<svg version="1.1" xmlns="http://www.w3.org/2000/svg" viewBox="0 0 920.5847285550317 643.0396703139882" width="1841.1694571100634" height="1286.0793406279763">
  <!-- svg-source:excalidraw -->
  
  <defs>
    <style class="style-fonts">
      @font-face {
        font-family: "Virgil";
        src: url("https://excalidraw.com/Virgil.woff2");
      }
      @font-face {
        font-family: "Cascadia";
        src: url("https://excalidraw.com/Cascadia.woff2");
      }
      @font-face {
        font-family: "Assistant";
        src: url("https://excalidraw.com/Assistant-Regular.woff2");
      }
    </style>
    
  </defs>
  <g stroke-linecap="round" transform="translate(10 69.27228492834115) rotate(0 236.74899802924256 155.0636712238314)"><path d="M7.86 8.16 C7.86 8.16, 7.86 8.16, 7.86 8.16 M7.86 8.16 C7.86 8.16, 7.86 8.16, 7.86 8.16 M1.43 27.75 C9.13 18.8, 15.47 11.09, 24.4 1.33 M1.43 27.75 C8.52 19.92, 15.98 10.13, 24.4 1.33 M0.26 41.3 C11.36 26.68, 22.66 15.63, 36.34 -0.21 M0.26 41.3 C13.59 26.28, 26.26 10.78, 36.34 -0.21 M0.39 53.34 C12.98 40.27, 22.41 28.17, 46.97 -0.25 M0.39 53.34 C16.92 33.56, 32.16 16.35, 46.97 -0.25 M0.52 65.38 C21.06 39.53, 45.55 16.91, 57.6 -0.28 M0.52 65.38 C13.28 53.55, 24.57 38.55, 57.6 -0.28 M0 78.17 C26 49.8, 52.54 20.06, 67.57 0.44 M0 78.17 C17.09 57.14, 35.36 36.29, 67.57 0.44 M0.13 90.22 C24.93 59.01, 51.2 33.1, 78.2 0.41 M0.13 90.22 C21.62 65.11, 45.28 38.11, 78.2 0.41 M0.26 102.26 C34.41 61.92, 68.14 23.12, 88.83 0.37 M0.26 102.26 C21.19 78.74, 40.74 54, 88.83 0.37 M0.4 114.3 C32.14 77.01, 65.84 37.01, 99.46 0.34 M0.4 114.3 C32.68 78.61, 63.61 42.22, 99.46 0.34 M0.53 126.34 C28.57 91.27, 57.45 58.81, 110.09 0.3 M0.53 126.34 C38.56 81.54, 79.04 37.33, 110.09 0.3 M0.01 139.13 C24.58 111.34, 51.26 81.21, 120.72 0.27 M0.01 139.13 C26.47 106.49, 54.75 74, 120.72 0.27 M0.14 151.17 C43.39 101.47, 85.87 50.8, 131.35 0.23 M0.14 151.17 C34.46 112.5, 68.7 72.34, 131.35 0.23 M0.27 163.22 C49.05 107.18, 97.81 51.49, 141.98 0.2 M0.27 163.22 C28.73 130.41, 58.8 96.56, 141.98 0.2 M0.41 175.26 C35.37 133.91, 70.29 93.28, 152.61 0.16 M0.41 175.26 C44.09 123.69, 87.67 72.54, 152.61 0.16 M0.54 187.3 C61.64 117.98, 123.82 48.67, 163.24 0.13 M0.54 187.3 C35.2 148.22, 70.08 105.82, 163.24 0.13 M0.02 200.09 C62.71 128.64, 123.34 59.45, 173.87 0.09 M0.02 200.09 C59.29 133.49, 119.35 64.56, 173.87 0.09 M0.15 212.13 C67.76 137.06, 134.38 61.97, 184.5 0.06 M0.15 212.13 C55.07 149.98, 110.2 86.88, 184.5 0.06 M0.28 224.17 C74.65 137.43, 151.56 50.49, 195.13 0.03 M0.28 224.17 C42.57 176.98, 83.96 129.86, 195.13 0.03 M0.42 236.22 C77.89 146.06, 156.47 57.58, 205.76 -0.01 M0.42 236.22 C60.68 167.13, 120.56 98.28, 205.76 -0.01 M-0.11 249.01 C71.97 167.95, 140.91 89.12, 216.39 -0.04 M-0.11 249.01 C53.21 189.46, 104.77 129.26, 216.39 -0.04 M0.03 261.05 C74.69 176.49, 148.7 90.96, 227.02 -0.08 M0.03 261.05 C60.75 189.98, 121.36 120.38, 227.02 -0.08 M0.16 273.09 C74.41 187.47, 150.37 101.82, 237.65 -0.11 M0.16 273.09 C70.85 190.46, 140.31 109.79, 237.65 -0.11 M1.61 283.62 C82.72 190.9, 163.83 97.88, 248.28 -0.15 M1.61 283.62 C87.23 185.39, 171.63 88.09, 248.28 -0.15 M3.05 294.16 C60.61 230.07, 113.97 164.79, 258.91 -0.18 M3.05 294.16 C98.75 186.26, 193.04 77.33, 258.91 -0.18 M7.78 300.91 C93.73 201.87, 179.82 103.5, 269.54 -0.22 M7.78 300.91 C71.31 225.84, 136.56 151.24, 269.54 -0.22 M13.81 306.16 C68.76 243.03, 123.99 180.97, 280.17 -0.25 M13.81 306.16 C117.23 188.84, 220.01 70.67, 280.17 -0.25 M21.82 309.15 C99.04 223.52, 175.58 135.81, 290.8 -0.28 M21.82 309.15 C112.02 205.17, 202.28 100.75, 290.8 -0.28 M31.14 310.62 C131.75 191.93, 234.34 75.98, 300.78 0.44 M31.14 310.62 C137.93 188.57, 244.53 66.9, 300.78 0.44 M41.77 310.59 C146.59 189.85, 251.49 70.65, 311.41 0.4 M41.77 310.59 C95.54 246.82, 150.83 183.96, 311.41 0.4 M52.4 310.55 C150.7 197.82, 248.82 85.56, 322.04 0.37 M52.4 310.55 C153.17 195.33, 252.87 80.65, 322.04 0.37 M63.03 310.52 C127.82 232.99, 193.78 158.47, 332.67 0.33 M63.03 310.52 C134.47 228.79, 205.12 147.15, 332.67 0.33 M73.66 310.48 C157.87 214.71, 241.46 120.09, 343.3 0.3 M73.66 310.48 C132.61 240.94, 191.92 171.32, 343.3 0.3 M84.29 310.45 C163.34 221.71, 240.93 132.41, 353.93 0.26 M84.29 310.45 C180.68 197.78, 279.28 85.55, 353.93 0.26 M94.92 310.41 C165.26 226.21, 238.85 143.41, 364.56 0.23 M94.92 310.41 C198.12 189.49, 301.39 71.01, 364.56 0.23 M105.55 310.38 C203.55 195.37, 304.03 79.04, 375.19 0.19 M105.55 310.38 C207.45 192.82, 309.04 75.49, 375.19 0.19 M116.18 310.35 C180.52 236.77, 245.44 161.18, 385.82 0.16 M116.18 310.35 C174.9 241.94, 233.64 173.96, 385.82 0.16 M126.81 310.31 C224.25 198.31, 322.2 86.41, 396.45 0.12 M126.81 310.31 C180.1 247.28, 234.71 183.9, 396.45 0.12 M137.44 310.28 C226.1 205.95, 314.46 104.03, 407.08 0.09 M137.44 310.28 C196.09 241.45, 254.82 173.91, 407.08 0.09 M148.07 310.24 C247.03 197.07, 345.66 86.06, 417.71 0.06 M148.07 310.24 C248.46 193.17, 349.93 76.5, 417.71 0.06 M158.7 310.21 C261.6 193.86, 362.38 77.35, 428.34 0.02 M158.7 310.21 C267.83 186.73, 375.19 62.62, 428.34 0.02 M168.67 310.93 C248.48 220.5, 326.28 130.2, 438.97 -0.01 M168.67 310.93 C234.74 233.66, 302.16 156.31, 438.97 -0.01 M179.3 310.89 C268.52 211.29, 354.96 109.29, 448.94 0.71 M179.3 310.89 C263.15 215.81, 346.28 119.18, 448.94 0.71 M189.93 310.86 C265.24 225.67, 339.99 137.4, 457.61 2.94 M189.93 310.86 C246.5 246.22, 303.1 181.25, 457.61 2.94 M200.56 310.82 C269.5 234.03, 335.89 155.77, 464.3 7.43 M200.56 310.82 C257.94 244.46, 318.12 175.56, 464.3 7.43 M211.19 310.79 C289.81 219.61, 369.55 130.44, 469.68 13.43 M211.19 310.79 C284.35 227.58, 355.12 146.06, 469.68 13.43 M221.82 310.75 C312.31 205, 402.73 99.9, 472.44 22.46 M221.82 310.75 C309.24 209.53, 396.13 110.35, 472.44 22.46 M232.45 310.72 C314.98 218.23, 395.93 123.93, 473.88 32.99 M232.45 310.72 C300.05 231.16, 369.44 152.5, 473.88 32.99 M243.08 310.69 C331.18 212.52, 415.9 112.07, 474.02 45.03 M243.08 310.69 C289.36 253.93, 337.61 199.42, 474.02 45.03 M253.71 310.65 C335.91 213.89, 422.21 118.62, 474.15 57.07 M253.71 310.65 C321.3 230.92, 389.74 153.46, 474.15 57.07 M264.34 310.62 C331.07 234.62, 397.69 158.01, 474.28 69.11 M264.34 310.62 C321.8 246.89, 378.04 182.98, 474.28 69.11 M274.97 310.58 C329.79 247.67, 384.02 186.62, 474.42 81.15 M274.97 310.58 C323.16 255.07, 373.34 199.3, 474.42 81.15 M285.6 310.55 C355.34 231.11, 426.54 151.95, 473.89 93.95 M285.6 310.55 C345.67 243.4, 402.77 176.25, 473.89 93.95 M296.23 310.51 C343.67 258.81, 387.02 207.64, 474.03 105.99 M296.23 310.51 C337.29 263.88, 375.96 219.18, 474.03 105.99 M306.86 310.48 C342.47 271.33, 374.31 231.67, 474.16 118.03 M306.86 310.48 C348.98 262.05, 392.47 213.35, 474.16 118.03 M317.49 310.44 C348.21 273.48, 380.34 236.25, 474.29 130.07 M317.49 310.44 C379.1 239.66, 440.9 168.93, 474.29 130.07 M328.12 310.41 C364.63 270.11, 398.22 227.75, 474.43 142.11 M328.12 310.41 C378.54 253.46, 429.8 195.38, 474.43 142.11 M338.75 310.38 C366 279.6, 394.06 247.34, 473.9 154.91 M338.75 310.38 C384.08 257.36, 432.09 204.38, 473.9 154.91 M349.39 310.34 C397.91 252.54, 448.72 194.67, 474.04 166.95 M349.39 310.34 C393.52 260.17, 438.6 209.24, 474.04 166.95 M360.02 310.31 C403.46 258.12, 444.59 209.81, 474.17 178.99 M360.02 310.31 C392.13 273.5, 424.29 236.19, 474.17 178.99 M370.65 310.27 C403.71 273.56, 439.51 234.19, 474.3 191.03 M370.65 310.27 C410.73 264.6, 449.92 218.82, 474.3 191.03 M381.28 310.24 C404.21 280.77, 432.43 254.06, 474.44 203.07 M381.28 310.24 C405.11 283.88, 427.65 258.8, 474.44 203.07 M391.91 310.2 C409.75 292.57, 424.26 270.48, 473.91 215.86 M391.91 310.2 C412.67 287.72, 431.98 264.14, 473.91 215.86 M401.88 310.92 C416.91 294.59, 431.48 274.76, 474.05 227.91 M401.88 310.92 C423.53 285.92, 445.74 260.59, 474.05 227.91 M412.51 310.89 C430.37 285.82, 451.16 266.12, 474.18 239.95 M412.51 310.89 C431.68 288.89, 451.57 265.52, 474.18 239.95 M423.14 310.85 C434.12 297.07, 444.08 287.9, 474.31 251.99 M423.14 310.85 C440.59 290.08, 459.19 268.56, 474.31 251.99 M433.77 310.82 C447.96 295.27, 457.35 284.54, 474.45 264.03 M433.77 310.82 C444.54 296.91, 456.72 284.63, 474.45 264.03 M445.06 310.03 C451.06 301.41, 459.18 292.94, 473.92 276.82 M445.06 310.03 C453.77 299.17, 463.13 288.43, 473.92 276.82 M457.65 307.73 C461.14 301.85, 463.74 298.31, 472.09 291.13 M457.65 307.73 C463.05 302.78, 467.25 297.26, 472.09 291.13 M12.54 305.66 C12.54 305.66, 12.54 305.66, 12.54 305.66 M12.54 305.66 C12.54 305.66, 12.54 305.66, 12.54 305.66 M26.85 307.5 C20.34 303.39, 16.38 296.41, 4.96 288.47 M26.85 307.5 C19.98 301.09, 13.08 294.5, 4.96 288.47 M36.62 305.4 C30.01 297.18, 22.79 290.9, 1.91 275.22 M36.62 305.4 C26.8 297.24, 18.47 290.14, 1.91 275.22 M48.67 305.27 C31.93 288.61, 15.31 273.33, 2.63 265.25 M48.67 305.27 C31.88 291.91, 14.36 276.05, 2.63 265.25 M60.71 305.13 C37.16 284.81, 17.62 267.74, 2.59 254.62 M60.71 305.13 C40.32 287.3, 19.06 269.95, 2.59 254.62 M72.75 305 C54.05 290.72, 35.93 274.3, 2.56 243.99 M72.75 305 C52.31 287.49, 32.84 271.55, 2.56 243.99 M84.79 304.87 C65.39 285.13, 43.03 269.36, 2.52 233.36 M84.79 304.87 C68.38 290.46, 52.07 276.84, 2.52 233.36 M97.58 305.39 C74.59 284.18, 55.89 266.76, 2.49 222.73 M97.58 305.39 C68.33 280.68, 40.43 254.21, 2.49 222.73 M109.62 305.26 C80.79 280.37, 54.25 257.6, 2.46 212.09 M109.62 305.26 C72.58 275.17, 36.51 242.45, 2.46 212.09 M121.67 305.12 C91.1 278.21, 65.21 253.99, 2.42 201.46 M121.67 305.12 C76.14 264.61, 30.37 224.22, 2.42 201.46 M133.71 304.99 C88.6 269.56, 45.18 231.85, 2.39 190.83 M133.71 304.99 C94.94 268.97, 55.09 236.49, 2.39 190.83 M145.75 304.86 C102.53 266.26, 60.87 233.1, 2.35 180.2 M145.75 304.86 C115.27 277.47, 85.98 251.89, 2.35 180.2 M158.54 305.38 C102.86 258.79, 48.09 210.19, 2.32 169.57 M158.54 305.38 C119.88 274.02, 83.08 240.64, 2.32 169.57 M170.58 305.25 C106.86 248.91, 41.53 191.52, 2.28 158.94 M170.58 305.25 C109.93 253.33, 48.95 199.35, 2.28 158.94 M182.62 305.11 C125.04 253.06, 66.75 202.5, 2.25 148.31 M182.62 305.11 C122.33 252.73, 58.8 198.73, 2.25 148.31 M194.66 304.98 C123.39 244.52, 53.18 183.81, 2.21 137.68 M194.66 304.98 C121.73 240.01, 49.48 177.32, 2.21 137.68 M206.71 304.85 C130.66 236.73, 53.59 169.13, 2.18 127.05 M206.71 304.85 C160.03 264.11, 114.73 223.99, 2.18 127.05 M219.5 305.37 C152.04 247.36, 85.99 192.55, 2.15 116.42 M219.5 305.37 C156.54 251.96, 93.82 198.47, 2.15 116.42 M231.54 305.24 C145.71 231.89, 62.27 156.45, 2.11 105.79 M231.54 305.24 C162.68 243.76, 92.94 183.84, 2.11 105.79 M243.58 305.1 C171.19 242.91, 97.86 180.48, 2.08 95.16 M243.58 305.1 C182.83 252.49, 120.75 200.33, 2.08 95.16 M255.62 304.97 C180.99 237.05, 106.11 172.54, 2.04 84.53 M255.62 304.97 C196.4 253.94, 137.15 202.73, 2.04 84.53 M267.66 304.84 C192.56 238.93, 116.8 173.89, 2.01 73.9 M267.66 304.84 C171.62 220.97, 74.62 137.73, 2.01 73.9 M280.46 305.36 C204.22 239.38, 130.12 173.8, 1.97 63.27 M280.46 305.36 C202.33 238.48, 124 170.59, 1.97 63.27 M292.5 305.23 C176.27 205.2, 58.62 104.7, 1.94 52.64 M292.5 305.23 C225.9 246.39, 160.22 188.22, 1.94 52.64 M304.54 305.09 C204.67 219.32, 105.18 134.4, 1.9 42.01 M304.54 305.09 C201.08 213.13, 97.7 122.9, 1.9 42.01 M316.58 304.96 C241.82 241.3, 167.28 175.04, 1.11 30.73 M316.58 304.96 C199.17 201.8, 82.49 100.23, 1.11 30.73 M328.62 304.83 C248.02 234.33, 166.58 162.8, 2.59 21.41 M328.62 304.83 C219.68 208.62, 110.4 113.54, 2.59 21.41 M341.42 305.35 C271.7 242.73, 200.24 180.54, 5.57 13.4 M341.42 305.35 C259.87 234.52, 178.17 163.7, 5.57 13.4 M353.46 305.22 C242 205.72, 128.6 107.62, 9.31 6.05 M353.46 305.22 C219.47 190.62, 85.6 74.84, 9.31 6.05 M365.5 305.08 C240.69 198.51, 116.38 89.28, 16.83 1.98 M365.5 305.08 C287.79 237.82, 210.88 170.87, 16.83 1.98 M377.54 304.95 C235.09 181.6, 93.72 57.52, 22.83 -3.4 M377.54 304.95 C282.05 223.98, 188.1 142.41, 22.83 -3.4 M389.58 304.82 C268.96 201.75, 149.61 97.76, 34.87 -3.53 M389.58 304.82 C248.49 181.07, 107.95 58.78, 34.87 -3.53 M402.38 305.34 C327.11 238.3, 249.85 172.32, 46.91 -3.66 M402.38 305.34 C280.03 199.85, 156.9 93.33, 46.91 -3.66 M414.42 305.21 C324.21 227.22, 233.35 149.33, 59.71 -3.14 M414.42 305.21 C277.53 187.23, 140.85 68.46, 59.71 -3.14 M426.46 305.07 C335.79 223.69, 242.84 143.37, 71.75 -3.27 M426.46 305.07 C344.4 234.82, 262.77 163.61, 71.75 -3.27 M443.03 308.88 C361.84 238.45, 279.43 167.16, 83.79 -3.41 M443.03 308.88 C326.64 206.97, 208.57 104.51, 83.79 -3.41 M453.56 307.43 C329.02 198.03, 205.76 89.19, 95.83 -3.54 M453.56 307.43 C330.65 200.51, 206 92.61, 95.83 -3.54 M461.83 304.02 C386.96 238.7, 312.22 173.59, 107.87 -3.67 M461.83 304.02 C362.65 218.53, 262.58 131.02, 107.87 -3.67 M467.83 298.64 C391.91 233.94, 316.47 167.5, 120.66 -3.15 M467.83 298.64 C349.57 197.5, 231.77 94.87, 120.66 -3.15 M473.08 292.6 C342.69 181.22, 212.89 66.68, 132.71 -3.28 M473.08 292.6 C394.23 224.2, 315.28 156.02, 132.71 -3.28 M474.55 283.28 C361.92 187.35, 248.34 88.15, 144.75 -3.42 M474.55 283.28 C384.72 204.33, 294.52 125.6, 144.75 -3.42 M476.78 274.62 C364.36 176.66, 251.88 79, 156.79 -3.55 M476.78 274.62 C388.54 195.71, 299.34 118.47, 156.79 -3.55 M476.75 263.99 C381.31 181.06, 285.08 96.96, 168.83 -3.68 M476.75 263.99 C403.28 197.9, 328.4 132.35, 168.83 -3.68 M476.72 253.36 C372.84 162.08, 268.79 72.16, 181.62 -3.16 M476.72 253.36 C401.43 187.67, 326.97 123.68, 181.62 -3.16 M476.68 242.73 C403.97 179.39, 330.9 116.46, 193.66 -3.29 M476.68 242.73 C376.54 154.15, 275.23 66.01, 193.66 -3.29 M476.65 232.1 C409.37 170.63, 340.7 113.23, 205.71 -3.43 M476.65 232.1 C396.43 162.96, 316.57 93.04, 205.71 -3.43 M476.61 221.47 C417.53 170.43, 357.87 118.71, 217.75 -3.56 M476.61 221.47 C385.65 141.27, 295.05 61.42, 217.75 -3.56 M476.58 210.84 C391.22 138.34, 307.79 64.61, 229.79 -3.69 M476.58 210.84 C407.96 150.73, 339.03 90.76, 229.79 -3.69 M476.54 200.21 C427.27 157.28, 381.29 115.08, 242.58 -3.17 M476.54 200.21 C387.29 122.4, 298.04 45.58, 242.58 -3.17 M476.51 189.58 C402.31 126.38, 328.72 60.84, 254.62 -3.3 M476.51 189.58 C389.55 111.83, 302 35.2, 254.62 -3.3 M476.47 178.95 C412.82 121.62, 348.49 66.26, 266.66 -3.44 M476.47 178.95 C431.75 137.59, 386.33 97.61, 266.66 -3.44 M476.44 168.32 C400.82 102.09, 321.57 32.75, 278.71 -3.57 M476.44 168.32 C403.65 105.36, 333.88 44, 278.71 -3.57 M476.4 157.69 C411.59 100.84, 344.67 43.31, 290.75 -3.7 M476.4 157.69 C426.89 114.45, 376.99 70.6, 290.75 -3.7 M476.37 147.06 C426.02 102.74, 379.79 60.92, 303.54 -3.18 M476.37 147.06 C441.69 116.22, 406.73 84.78, 303.54 -3.18 M476.34 136.43 C422.49 90.47, 370.6 42.12, 315.58 -3.31 M476.34 136.43 C418.37 86.27, 363.74 37.58, 315.58 -3.31 M476.3 125.8 C447.4 98.81, 416.33 72.9, 327.62 -3.45 M476.3 125.8 C433.53 88.25, 391.46 50.24, 327.62 -3.45 M477.02 115.82 C433.69 75.72, 388.43 38.12, 339.66 -3.58 M477.02 115.82 C433.36 78.15, 391.18 42.39, 339.66 -3.58 M476.99 105.19 C451.17 81.85, 424.24 57.6, 351.71 -3.71 M476.99 105.19 C442.42 72.42, 405.73 42.4, 351.71 -3.71 M476.95 94.56 C437.1 61.75, 399.5 26.99, 364.5 -3.19 M476.95 94.56 C452.92 74.78, 430.67 55.34, 364.5 -3.19 M476.92 83.93 C441.17 53.18, 406.78 24.97, 376.54 -3.32 M476.92 83.93 C456.74 66.33, 436.54 47.79, 376.54 -3.32 M476.88 73.3 C446.02 45.68, 412.18 19.05, 388.58 -3.46 M476.88 73.3 C449.67 47.41, 420.19 23.56, 388.58 -3.46 M476.85 62.67 C452.69 43.39, 429.67 25.13, 400.62 -3.59 M476.85 62.67 C450.32 40.25, 421.48 16.3, 400.62 -3.59 M476.81 52.04 C463.82 38.34, 447.45 25.25, 412.66 -3.72 M476.81 52.04 C453.52 30.83, 427.4 9.79, 412.66 -3.72 M476.78 41.41 C457.96 24.45, 435.71 5.86, 425.46 -3.2 M476.78 41.41 C465.63 32.81, 455.72 22.91, 425.46 -3.2 M475.24 29.47 C460.44 16.28, 446.61 4.22, 437.5 -3.33 M475.24 29.47 C463.33 19.74, 451.4 9.9, 437.5 -3.33 M472.94 16.87 C464.03 11.2, 456.07 1.1, 451.05 -2.15 M472.94 16.87 C466.88 10.49, 459.1 6.44, 451.05 -2.15" stroke="#fff4e6" stroke-width="1" fill="none"></path><path d="M32 0 C184.3 1.61, 334.99 1.61, 441.5 0 M441.5 0 C464.27 -0.8, 474.73 10.56, 473.5 32 M473.5 32 C473.43 84.7, 474.17 136.91, 473.5 278.13 M473.5 278.13 C472.26 301.05, 461.67 308.79, 441.5 310.13 M441.5 310.13 C293.76 310.74, 146.31 311.58, 32 310.13 M32 310.13 C9.82 311.5, 0.97 300.2, 0 278.13 M0 278.13 C-0.37 216.88, 0.18 156.65, 0 32 M0 32 C-0.02 9.3, 9.11 -0.51, 32 0" stroke="#e8590c" stroke-width="2.5" fill="none" stroke-dasharray="8 10"></path></g><g stroke-linecap="round" transform="translate(34.4330440600786 451.2763066380324) rotate(0 114.14876947078426 36.86663147378454)"><path d="M18.43 0 C77.51 -3.56, 144.84 -3.93, 209.86 0 C222.87 3.51, 231.7 3.96, 228.3 18.43 C228.15 31.75, 225.93 45.01, 228.3 55.3 C225.14 69.86, 218.94 74.71, 209.86 73.73 C165.36 73.16, 122.29 72.17, 18.43 73.73 C4.35 75.33, 2.8 67.91, 0 55.3 C-0.7 47.32, 3.4 36.53, 0 18.43 C3.04 2.6, 7.43 0.88, 18.43 0" stroke="none" stroke-width="0" fill="#e3fafc"></path><path d="M18.43 0 C87.27 -0.67, 152.87 0.27, 209.86 0 M18.43 0 C87.9 -1.42, 158.7 -1.3, 209.86 0 M209.86 0 C223.38 -1.31, 228.19 4.87, 228.3 18.43 M209.86 0 C222.89 0.01, 230.19 8.15, 228.3 18.43 M228.3 18.43 C227.33 25.12, 229.93 36.57, 228.3 55.3 M228.3 18.43 C227.62 31.81, 227.92 44.94, 228.3 55.3 M228.3 55.3 C226.65 67.46, 223.45 72.35, 209.86 73.73 M228.3 55.3 C226.29 68.22, 223.35 72.51, 209.86 73.73 M209.86 73.73 C168.08 72.57, 124.16 72.71, 18.43 73.73 M209.86 73.73 C141.64 72.55, 73.89 73.17, 18.43 73.73 M18.43 73.73 C7.65 73.62, 0.2 66.98, 0 55.3 M18.43 73.73 C4.12 75.12, 1.09 66.19, 0 55.3 M0 55.3 C-1.86 48.87, -0.67 39.94, 0 18.43 M0 55.3 C-0.13 42.13, 1.04 28.6, 0 18.43 M0 18.43 C0.33 7.13, 4.73 1.2, 18.43 0 M0 18.43 C1.72 5.45, 5.9 -0.75, 18.43 0" stroke="#15aabf" stroke-width="1" fill="none"></path></g><g stroke-linecap="round" transform="translate(711.0847285550319 451.2763066380323) rotate(0 99.74999999999989 36.55968768035916)"><path d="M18.28 0 C67.92 -1.75, 121.3 1.85, 181.22 0 C192.11 2.37, 197.79 8.8, 199.5 18.28 C202.85 32.07, 198.08 43.54, 199.5 54.84 C200.83 69.12, 192.55 70.69, 181.22 73.12 C134.43 74.02, 84.4 74.62, 18.28 73.12 C6.97 69.65, 0.19 67.16, 0 54.84 C-2.54 40.26, -1.46 27.3, 0 18.28 C2.47 5.1, 6.32 1.14, 18.28 0" stroke="none" stroke-width="0" fill="#ebfbee"></path><path d="M18.28 0 C76.34 -2.9, 133.39 0.22, 181.22 0 M18.28 0 C67.29 -0.72, 114.62 0.85, 181.22 0 M181.22 0 C192.94 0.68, 199.55 6.37, 199.5 18.28 M181.22 0 C193.38 -0.23, 201.07 8.07, 199.5 18.28 M199.5 18.28 C198.47 29.93, 201.02 38.17, 199.5 54.84 M199.5 18.28 C200.01 26.74, 200.62 36.29, 199.5 54.84 M199.5 54.84 C199.89 65.67, 193.54 71.29, 181.22 73.12 M199.5 54.84 C199.7 68.15, 195.11 71.22, 181.22 73.12 M181.22 73.12 C116.1 71.39, 55.68 70.08, 18.28 73.12 M181.22 73.12 C147.56 73.2, 115.26 73.06, 18.28 73.12 M18.28 73.12 C4.95 73.51, 0.64 67.73, 0 54.84 M18.28 73.12 C4.66 72.07, 1.06 69.04, 0 54.84 M0 54.84 C0.77 45.49, -0.46 34.7, 0 18.28 M0 54.84 C0.42 40.35, 0.03 28.04, 0 18.28 M0 18.28 C1.38 4.89, 5.65 -0.62, 18.28 0 M0 18.28 C-0.16 5.69, 6.82 -1.32, 18.28 0" stroke="#40c057" stroke-width="1" fill="none"></path></g><g stroke-linecap="round" transform="translate(746.3641437460819 163.3031074261542) rotate(0 66.31940948822444 66.31940948822444)"><path d="M95.76 5.92 C105 9.51, 113.28 18.99, 119.38 27.43 C125.48 35.86, 130.86 46.55, 132.36 56.53 C133.86 66.51, 131.91 77.68, 128.38 87.31 C124.84 96.93, 118.6 107.22, 111.15 114.27 C103.71 121.31, 93.41 126.61, 83.7 129.56 C73.99 132.51, 62.94 134.02, 52.89 131.96 C42.84 129.9, 31.3 123.93, 23.4 117.22 C15.5 110.51, 9.23 101.04, 5.51 91.71 C1.78 82.37, 0.32 71.3, 1.04 61.22 C1.75 51.13, 4.17 39.96, 9.8 31.21 C15.42 22.45, 25.72 13.85, 34.77 8.7 C43.81 3.55, 53.64 0.5, 64.09 0.29 C74.54 0.07, 91.65 5.84, 97.45 7.41 C103.25 8.98, 99.59 8.66, 98.88 9.72 M60.71 0.44 C70.26 -1.4, 81.16 1.38, 90.67 5.28 C100.17 9.18, 110.8 15.88, 117.73 23.86 C124.66 31.83, 130.28 42.85, 132.24 53.12 C134.21 63.39, 132.25 75.59, 129.52 85.48 C126.79 95.37, 122.97 105.28, 115.87 112.46 C108.77 119.63, 96.88 125.32, 86.93 128.52 C76.98 131.72, 66.35 133.01, 56.16 131.68 C45.96 130.35, 34.22 126.39, 25.78 120.55 C17.33 114.71, 9.57 106.25, 5.48 96.63 C1.39 87.02, 0.88 73.4, 1.21 62.87 C1.55 52.35, 2.63 42.21, 7.47 33.49 C12.32 24.76, 21.53 16.21, 30.29 10.52 C39.05 4.84, 54.81 1.09, 60.04 -0.62 C65.27 -2.33, 61.58 -1.06, 61.67 0.27" stroke="none" stroke-width="0" fill="#b2f2bb"></path><path d="M88.23 3.12 C97.76 5.11, 107.39 12.36, 114.29 19.67 C121.19 26.98, 126.75 36.94, 129.64 46.99 C132.53 57.03, 133.6 69.58, 131.61 79.94 C129.62 90.3, 124.13 101.11, 117.71 109.15 C111.29 117.19, 102.49 124.27, 93.1 128.19 C83.71 132.1, 71.78 133.56, 61.36 132.65 C50.94 131.74, 39.29 128.33, 30.58 122.72 C21.88 117.12, 14.31 107.87, 9.15 99.02 C3.99 90.17, -0.02 79.71, -0.39 69.6 C-0.76 59.49, 2.62 47.8, 6.94 38.36 C11.26 28.92, 17.53 19.22, 25.54 12.95 C33.55 6.68, 43.01 1.59, 55 0.75 C66.99 -0.1, 88.78 5.37, 97.51 7.88 C106.23 10.38, 107.84 14.87, 107.34 15.76 M46.72 2.24 C55.75 -1.45, 67.45 -0.19, 77.23 1.43 C87.01 3.05, 97.11 6.09, 105.4 11.97 C113.69 17.86, 122.42 27.43, 126.96 36.75 C131.5 46.08, 133.2 57.49, 132.62 67.94 C132.04 78.39, 128.63 90.48, 123.48 99.43 C118.33 108.39, 110.22 116.35, 101.71 121.67 C93.19 126.98, 82.88 130.65, 72.39 131.34 C61.9 132.02, 48.34 129.57, 38.76 125.79 C29.18 122.01, 20.94 116.32, 14.9 108.65 C8.86 100.99, 4.34 89.83, 2.5 79.78 C0.65 69.73, 1.35 58.05, 3.83 48.34 C6.32 38.63, 10.32 29.24, 17.41 21.51 C24.5 13.77, 41.54 4.82, 46.39 1.93 C51.25 -0.96, 46.21 2.89, 46.54 4.17" stroke="#1e1e1e" stroke-width="1" fill="none"></path></g><g stroke-linecap="round" transform="translate(776.05458497682 164.59399617531625) rotate(0 36.46760716384097 65.51260401999775)"><path d="M51.21 5.34 C56.89 8.56, 63.14 17.93, 66.67 27.05 C70.21 36.17, 71.86 49.03, 72.41 60.06 C72.97 71.09, 72.61 83.51, 70.02 93.23 C67.42 102.96, 61.97 112.23, 56.82 118.42 C51.67 124.61, 45.13 129.42, 39.12 130.39 C33.11 131.37, 26.06 128.68, 20.73 124.29 C15.41 119.89, 10.67 112.82, 7.17 103.99 C3.66 95.17, 0.27 82.33, -0.28 71.32 C-0.83 60.32, 1.11 47.73, 3.86 37.98 C6.62 28.24, 11.51 18.99, 16.26 12.86 C21.01 6.73, 25.61 1.64, 32.37 1.19 C39.13 0.74, 52.41 7.69, 56.82 10.16 C61.22 12.64, 59.24 15.18, 58.8 16.04 M49.5 3.78 C54.97 6.71, 59.96 15.3, 63.82 23.77 C67.67 32.23, 71.68 43.81, 72.63 54.58 C73.57 65.34, 71.57 78.14, 69.49 88.33 C67.41 98.52, 64.44 108.68, 60.14 115.73 C55.85 122.78, 49.86 128.55, 43.7 130.62 C37.55 132.7, 28.87 131.94, 23.22 128.16 C17.57 124.39, 13.75 116.65, 9.82 107.97 C5.9 99.29, 0.94 86.96, -0.33 76.08 C-1.59 65.2, 0.18 52.68, 2.24 42.68 C4.3 32.68, 7.56 22.79, 12.04 16.07 C16.53 9.36, 22.77 4.61, 29.14 2.39 C35.51 0.17, 47.17 2.31, 50.26 2.78 C53.34 3.24, 48.09 3.94, 47.66 5.17" stroke="none" stroke-width="0" fill="#b2f2bb"></path><path d="M42.23 0.08 C47.8 0.65, 54.21 6.6, 58.97 13.62 C63.73 20.65, 68.53 31.77, 70.79 42.25 C73.05 52.73, 73.37 65.62, 72.51 76.49 C71.65 87.36, 69.39 99.08, 65.64 107.47 C61.89 115.86, 55.84 122.98, 49.99 126.84 C44.14 130.69, 36.58 132.38, 30.56 130.59 C24.53 128.79, 18.61 122.87, 13.85 116.06 C9.09 109.25, 4.16 99.78, 2.01 89.75 C-0.14 79.72, 0.12 66.84, 0.97 55.89 C1.83 44.94, 3.53 32.66, 7.14 24.06 C10.75 15.46, 15.94 7.79, 22.64 4.3 C29.34 0.8, 42.2 2.34, 47.33 3.09 C52.46 3.85, 53.58 7.88, 53.41 8.83 M26.22 2.2 C31.6 -1.65, 38.32 -0.25, 43.92 1.91 C49.52 4.07, 55.16 8.21, 59.8 15.16 C64.43 22.12, 69.65 33.24, 71.72 43.64 C73.79 54.04, 73.58 66.68, 72.22 77.56 C70.85 88.43, 67.56 100.66, 63.53 108.88 C59.5 117.1, 53.62 123.61, 48.04 126.89 C42.45 130.17, 36.22 130.87, 30.02 128.55 C23.82 126.22, 15.52 119.93, 10.84 112.94 C6.16 105.95, 3.42 96.67, 1.94 86.61 C0.46 76.55, 0.56 63.28, 1.97 52.61 C3.38 41.94, 6.77 30.6, 10.4 22.6 C14.04 14.6, 21.18 7.85, 23.8 4.6 C26.42 1.36, 25.62 2.39, 26.12 3.14" stroke="#1e1e1e" stroke-width="1" fill="none"></path></g><g stroke-linecap="round"><g transform="translate(812.1994699533702 162.98038523886356) rotate(0 0 65.8353262072884)"><path d="M0.37 1.1 C0.18 23, -0.15 110.16, -0.35 131.85 M-0.89 0.64 C-1.34 22.72, -1.9 111.53, -1.48 133.47" stroke="#1e1e1e" stroke-width="1" fill="none"></path></g></g><mask></mask><g stroke-linecap="round"><g transform="translate(755.0776428029292 195.89804834250805) rotate(0 56.47638277586009 0)"><path d="M-0.35 0.17 C18.27 -0.09, 93.4 -0.49, 112.11 -0.45 M1.66 -0.78 C20.63 -0.36, 95.62 1.01, 114.39 0.85" stroke="#1e1e1e" stroke-width="1" fill="none"></path></g></g><mask></mask><g stroke-linecap="round"><g transform="translate(756.84761284003 264.0375118705992) rotate(0 56.47638277586009 0)"><path d="M-0.84 -0.45 C17.87 -0.42, 92.87 0.3, 111.91 0.38 M0.92 -1.74 C20.02 -2.09, 95.41 -2.06, 114.07 -1.55" stroke="#1e1e1e" stroke-width="1" fill="none"></path></g></g><mask></mask><g stroke-linecap="round"><g transform="translate(746.6892151296515 230.9520130406824) rotate(0 65.83415160914899 0)"><path d="M-1.05 0.38 C21.11 0.45, 109.81 -0.08, 132.11 0.01 M0.61 -0.47 C22.72 -0.15, 109.41 1.63, 131.4 1.56" stroke="#1e1e1e" stroke-width="1" fill="none"></path></g></g><mask></mask><g transform="translate(762.5070622541757 104.79853702232043) rotate(0 53.760231018066406 17.5)"><text x="53.760231018066406" y="0" font-family="Virgil, Segoe UI Emoji" font-size="28px" fill="#2f9e44" text-anchor="middle" style="white-space: pre;" direction="ltr" dominant-baseline="text-before-edge">Browser</text></g><g stroke-linecap="round" transform="translate(54.80773272807073 97.62387718851602) rotate(0 81.75 111.77135561283757)"><path d="M32 0 C54.91 -2.22, 81.21 -3.31, 131.5 0 C155.43 -1.29, 162.1 11.45, 163.5 32 C163.67 62.91, 162.55 100.12, 163.5 191.54 C160.83 214.14, 155.31 223.48, 131.5 223.54 C112.55 221.74, 91.43 226.1, 32 223.54 C12.38 226.96, -1.45 212.81, 0 191.54 C1.54 149.52, -1.16 109.21, 0 32 C-1.59 8.15, 11.52 3.33, 32 0" stroke="none" stroke-width="0" fill="#ebfbee"></path><path d="M32 0 C52.99 0.23, 71.98 -0.26, 131.5 0 M32 0 C60 0.67, 88.51 0.85, 131.5 0 M131.5 0 C150.88 -0.2, 164.1 12.46, 163.5 32 M131.5 0 C151.42 0.98, 162.53 10.64, 163.5 32 M163.5 32 C161.46 84.31, 164.6 134.33, 163.5 191.54 M163.5 32 C164.25 66.73, 163.2 103.81, 163.5 191.54 M163.5 191.54 C165.37 213.61, 154.59 223.29, 131.5 223.54 M163.5 191.54 C161.4 213.86, 153.11 221.5, 131.5 223.54 M131.5 223.54 C96.69 222.54, 64.12 222.61, 32 223.54 M131.5 223.54 C109.81 222.54, 86.93 222.27, 32 223.54 M32 223.54 C12.01 224.94, 0.9 212.2, 0 191.54 M32 223.54 C11.7 225.78, 0.96 213.71, 0 191.54 M0 191.54 C-0.08 149.46, -2.61 105.08, 0 32 M0 191.54 C-1.19 154.87, -1.32 117.88, 0 32 M0 32 C-1.39 9.81, 8.97 -0.07, 32 0 M0 32 C-0.01 11.74, 12.32 1.2, 32 0" stroke="#2f9e44" stroke-width="1" fill="none"></path></g><g stroke-linecap="round"><g transform="translate(55.388588385150456 122.95482063652088) rotate(0 11.629585028747272 -11.629585028747272)"><path d="M-0.88 0.71 C2.85 0.56, 19.35 2.38, 23.37 -1.43 C27.4 -5.25, 23.26 -18.66, 23.25 -22.18 M0.85 0.03 C4.4 -0.44, 19.14 0.6, 22.75 -3.4 C26.35 -7.39, 22.33 -20.39, 22.48 -23.96" stroke="#2f9e44" stroke-width="1" fill="none"></path></g></g><mask></mask><g stroke-linecap="round" transform="translate(264.44245430618935 99.83903579668612) rotate(0 81.75 40.736783926341104)"><path d="M20.37 0 C63.64 -0.63, 104.92 4.06, 143.13 0 C159.62 3.2, 166.48 4.33, 163.5 20.37 C164.55 32.04, 165.59 43.28, 163.5 61.11 C162.41 73.04, 155.38 83.76, 143.13 81.47 C116.71 76.63, 89.21 77.56, 20.37 81.47 C5.05 80.35, -0.02 75.94, 0 61.11 C2.22 48.02, 0.33 42.46, 0 20.37 C2.92 3.56, 5.97 -2.39, 20.37 0" stroke="none" stroke-width="0" fill="#e7f5ff"></path><path d="M20.37 0 C48.06 0.85, 72.79 -0.89, 143.13 0 M20.37 0 C45.99 0.33, 70.03 0.57, 143.13 0 M143.13 0 C157.23 -1.39, 165.35 7.01, 163.5 20.37 M143.13 0 C158.96 0.03, 165.5 7.58, 163.5 20.37 M163.5 20.37 C162.32 30.11, 161.82 36.08, 163.5 61.11 M163.5 20.37 C163.93 32.84, 164.46 46.39, 163.5 61.11 M163.5 61.11 C165.02 73.56, 155.68 80.26, 143.13 81.47 M163.5 61.11 C164.68 73.32, 154.58 80.79, 143.13 81.47 M143.13 81.47 C112.52 81.9, 77.32 81.12, 20.37 81.47 M143.13 81.47 C94.56 81.92, 47.4 82.58, 20.37 81.47 M20.37 81.47 C7.13 83.3, -0.75 75.04, 0 61.11 M20.37 81.47 C7.13 81.12, 1.83 76.9, 0 61.11 M0 61.11 C-0.24 53.11, -0.2 45.05, 0 20.37 M0 61.11 C0.38 45.63, 0.37 28.69, 0 20.37 M0 20.37 C1.01 8.7, 6.92 -1.2, 20.37 0 M0 20.37 C2.24 5.15, 4.96 0.95, 20.37 0" stroke="#1971c2" stroke-width="1" fill="none"></path></g><g stroke-linecap="round"><g transform="translate(264.5284340045989 120.22121965799005) rotate(0 11.753304018414951 -9.031486245729297)"><path d="M0.72 0.38 C4 -0.42, 16.13 -0.51, 20.02 -3.72 C23.91 -6.93, 23.42 -16.4, 24.06 -18.9 M-0.36 -0.47 C2.7 -0.65, 14.91 0.15, 18.9 -2.77 C22.89 -5.7, 22.69 -15.5, 23.59 -18.02" stroke="#1971c2" stroke-width="1" fill="none"></path></g></g><mask></mask><g stroke-linecap="round" transform="translate(265.10270820899336 239.56444578222266) rotate(0 81.75 40.736783926341104)"><path d="M20.37 0 C44.91 -4.12, 73.82 0.33, 143.13 0 C154.75 -1.75, 163.22 5.2, 163.5 20.37 C161.65 38.45, 160.78 48.13, 163.5 61.11 C160.33 71.45, 153.48 81.21, 143.13 81.47 C96.28 81.28, 46.26 84.15, 20.37 81.47 C10.13 79.17, 0.79 76.37, 0 61.11 C2.08 48.03, 1.81 39.4, 0 20.37 C-0.21 7.87, 6.48 -3.32, 20.37 0" stroke="none" stroke-width="0" fill="#fff4e6"></path><path d="M20.37 0 C68.22 -0.73, 116.51 1.74, 143.13 0 M20.37 0 C57.74 -0.59, 93.27 0.53, 143.13 0 M143.13 0 C155.53 -1.43, 164.39 6.73, 163.5 20.37 M143.13 0 C157.31 1.86, 162.81 8.32, 163.5 20.37 M163.5 20.37 C161.97 35.22, 163.97 50.55, 163.5 61.11 M163.5 20.37 C163.98 31.4, 164.34 43.59, 163.5 61.11 M163.5 61.11 C163.26 74.92, 156.67 82.17, 143.13 81.47 M163.5 61.11 C163.66 76.32, 157.06 82.81, 143.13 81.47 M143.13 81.47 C98.08 80.36, 52.94 82.89, 20.37 81.47 M143.13 81.47 C105.12 81.9, 66.32 80.7, 20.37 81.47 M20.37 81.47 C8.12 82.35, 0.85 76.45, 0 61.11 M20.37 81.47 C5.33 83.06, -0.7 73.94, 0 61.11 M0 61.11 C2.13 52.47, -0.74 41.45, 0 20.37 M0 61.11 C0.47 46.69, -0.24 29.68, 0 20.37 M0 20.37 C-0.16 7.08, 6.83 -0.4, 20.37 0 M0 20.37 C0.33 8.21, 6.26 1.82, 20.37 0" stroke="#e8590c" stroke-width="1" fill="none"></path></g><g stroke-linecap="round"><g transform="translate(265.18868790740294 260.4712885043887) rotate(0 11.753304018414951 -9.031486245729297)"><path d="M-0.8 0.25 C2.67 -0.38, 16.25 -0.72, 20.23 -3.83 C24.21 -6.94, 22.37 -15.83, 23.1 -18.39 M0.99 -0.66 C4.41 -1.1, 16.12 0.45, 19.64 -2.31 C23.16 -5.07, 21.77 -14.52, 22.12 -17.24" stroke="#e8590c" stroke-width="1" fill="none"></path></g></g><mask></mask><g transform="translate(78.87768866605393 136.65087456124394) rotate(0 57.12890625 70.21052657911031)"><text x="0" y="0" font-family="Cascadia, Segoe UI Emoji" font-size="13.001949366501908px" fill="#2f9e44" text-anchor="start" style="white-space: pre;" direction="ltr" dominant-baseline="text-before-edge">function main()</text><text x="0" y="15.602339239802289" font-family="Cascadia, Segoe UI Emoji" font-size="13.001949366501908px" fill="#2f9e44" text-anchor="start" style="white-space: pre;" direction="ltr" dominant-baseline="text-before-edge">{</text><text x="0" y="31.204678479604578" font-family="Cascadia, Segoe UI Emoji" font-size="13.001949366501908px" fill="#2f9e44" text-anchor="start" style="white-space: pre;" direction="ltr" dominant-baseline="text-before-edge">  let a = </text><text x="0" y="46.807017719406865" font-family="Cascadia, Segoe UI Emoji" font-size="13.001949366501908px" fill="#2f9e44" text-anchor="start" style="white-space: pre;" direction="ltr" dominant-baseline="text-before-edge">  "hello world"</text><text x="0" y="62.409356959209155" font-family="Cascadia, Segoe UI Emoji" font-size="13.001949366501908px" fill="#2f9e44" text-anchor="start" style="white-space: pre;" direction="ltr" dominant-baseline="text-before-edge">  set(window</text><text x="0" y="78.01169619901144" font-family="Cascadia, Segoe UI Emoji" font-size="13.001949366501908px" fill="#2f9e44" text-anchor="start" style="white-space: pre;" direction="ltr" dominant-baseline="text-before-edge">  .title, a)</text><text x="0" y="93.61403543881373" font-family="Cascadia, Segoe UI Emoji" font-size="13.001949366501908px" fill="#2f9e44" text-anchor="start" style="white-space: pre;" direction="ltr" dominant-baseline="text-before-edge">  ......</text><text x="0" y="109.21637467861602" font-family="Cascadia, Segoe UI Emoji" font-size="13.001949366501908px" fill="#2f9e44" text-anchor="start" style="white-space: pre;" direction="ltr" dominant-baseline="text-before-edge">}</text><text x="0" y="124.81871391841831" font-family="Cascadia, Segoe UI Emoji" font-size="13.001949366501908px" fill="#2f9e44" text-anchor="start" style="white-space: pre;" direction="ltr" dominant-baseline="text-before-edge"></text></g><g transform="translate(87.35940066798958 325.37034625739744) rotate(0 50.479942321777344 12.5)"><text x="0" y="0" font-family="Virgil, Segoe UI Emoji" font-size="20px" fill="#2f9e44" text-anchor="start" style="white-space: pre;" direction="ltr" dominant-baseline="text-before-edge">User Code</text></g><g transform="translate(275.3619731542758 191.9923880875196) rotate(0 83.63990783691406 12.5)"><text x="0" y="0" font-family="Virgil, Segoe UI Emoji" font-size="20px" fill="#1971c2" text-anchor="start" style="white-space: pre;" direction="ltr" dominant-baseline="text-before-edge">Standard Library</text></g><g transform="translate(288.47844467583036 331.71779807305603) rotate(0 62.279937744140625 12.5)"><text x="0" y="0" font-family="Virgil, Segoe UI Emoji" font-size="20px" fill="#e8590c" text-anchor="start" style="white-space: pre;" direction="ltr" dominant-baseline="text-before-edge">Dependencies</text></g><g stroke-linecap="round"><g transform="translate(289.5702244190895 128.89216436448731) rotate(0 35.435551447618195 0.24780105907422012)"><path d="M-0.06 -0.16 C11.78 -0.27, 59.77 -0.05, 71.72 0.18" stroke="#1971c2" stroke-width="1.5" fill="none" stroke-dasharray="8 9"></path></g></g><mask></mask><g stroke-linecap="round"><g transform="translate(289.42664013374815 143.73790682957218) rotate(0 57.31383678882298 0)"><path d="M0.19 1.11 C19.52 1.1, 96.24 0.5, 115.27 0.45" stroke="#1971c2" stroke-width="1.5" fill="none" stroke-dasharray="8 9"></path></g></g><mask></mask><g stroke-linecap="round"><g transform="translate(295.5174498368715 268.66955320977155) rotate(0 32.21413767965282 0)"><path d="M-0.14 -0.71 C10.65 -0.68, 53.55 -1.28, 64.24 -0.99" stroke="#e8590c" stroke-width="1.5" fill="none" stroke-dasharray="8 9"></path></g></g><mask></mask><g stroke-linecap="round"><g transform="translate(295.189352844847 281.427045330516) rotate(0 39.27674165481585 0)"><path d="M0.32 0.52 C13.5 0.82, 66.14 1.07, 79.19 1.1" stroke="#e8590c" stroke-width="1.5" fill="none" stroke-dasharray="8 9"></path></g></g><mask></mask><g stroke-linecap="round"><g transform="translate(289.65896784653955 161.54358999726236) rotate(0 22.639662719739704 0)"><path d="M0.25 -0.41 C7.8 -0.47, 37.85 -0.57, 45.4 -0.51" stroke="#1971c2" stroke-width="1.5" fill="none" stroke-dasharray="8 9"></path></g></g><mask></mask><g stroke-linecap="round"><g transform="translate(297.173559849683 300.0281968706426) rotate(0 52.2144740538962 0)"><path d="M-0.48 -0.12 C16.56 0.04, 85.82 0.66, 103.31 0.56" stroke="#e8590c" stroke-width="1.5" fill="none" stroke-dasharray="8 9"></path></g></g><mask></mask><g stroke-linecap="round" transform="translate(350.9575053911808 452.2263187617205) rotate(0 124.1171483351734 36.30987870813533)"><path d="M4.83 4.2 C4.83 4.2, 4.83 4.2, 4.83 4.2 M4.83 4.2 C4.83 4.2, 4.83 4.2, 4.83 4.2 M0.37 21.52 C3.68 17.11, 9.07 9.19, 18.74 0.39 M0.37 21.52 C5.61 15.75, 11.53 9.34, 18.74 0.39 M0.51 33.57 C7.57 25.45, 12.68 19.57, 29.37 0.36 M0.51 33.57 C9.6 22.99, 17.64 13.23, 29.37 0.36 M0.64 45.61 C8.86 36.02, 18.71 23.75, 40 0.32 M0.64 45.61 C13.82 29.17, 26.98 13.78, 40 0.32 M0.12 58.4 C15.67 40.79, 29.22 25.9, 50.63 0.29 M0.12 58.4 C11.87 44.54, 25.88 28.74, 50.63 0.29 M4.19 65.91 C19.36 49.34, 32.88 36.14, 61.26 0.25 M4.19 65.91 C27.2 40.41, 49.89 13.28, 61.26 0.25 M10.22 71.16 C25.72 54.47, 41.99 33.9, 71.89 0.22 M10.22 71.16 C22.63 55.25, 36.73 40.65, 71.89 0.22 M19.54 72.64 C38.74 49.83, 56.31 29.59, 82.52 0.19 M19.54 72.64 C35.36 53.2, 53.59 34.43, 82.52 0.19 M30.17 72.6 C48.64 54.13, 63.46 31.86, 93.15 0.15 M30.17 72.6 C45.49 55.1, 60.81 37.37, 93.15 0.15 M40.8 72.57 C58.89 50.01, 76.14 29.54, 103.78 0.12 M40.8 72.57 C60.98 50.62, 81.74 26.16, 103.78 0.12 M51.43 72.53 C74.86 46.53, 97.02 20.81, 113.76 0.84 M51.43 72.53 C65.36 57.4, 78.61 41.68, 113.76 0.84 M62.06 72.5 C77.62 51.74, 95.22 35.89, 124.39 0.8 M62.06 72.5 C74.68 57.43, 87.75 41.48, 124.39 0.8 M72.69 72.47 C93.23 49.75, 113.61 29.84, 135.02 0.77 M72.69 72.47 C89.36 53.18, 104.52 34.45, 135.02 0.77 M83.32 72.43 C106.29 44.7, 130.67 18.57, 145.65 0.73 M83.32 72.43 C103.36 48.05, 124.17 25.57, 145.65 0.73 M93.95 72.4 C116.03 44.05, 139.08 18.98, 156.28 0.7 M93.95 72.4 C112.35 49.94, 132.23 29.19, 156.28 0.7 M104.58 72.36 C123.15 53.04, 138.08 34.97, 166.91 0.66 M104.58 72.36 C119.4 56.99, 133.03 40.03, 166.91 0.66 M115.21 72.33 C129.11 58.61, 142.95 40.42, 177.54 0.63 M115.21 72.33 C134.74 49.68, 153.87 26.76, 177.54 0.63 M125.84 72.29 C147.09 48.72, 168.93 20.31, 188.17 0.6 M125.84 72.29 C147.12 48.12, 169.36 21.96, 188.17 0.6 M135.82 73.01 C152.39 53.15, 174.25 31.73, 198.8 0.56 M135.82 73.01 C154.72 52.43, 172.3 30.75, 198.8 0.56 M146.45 72.98 C170.44 46.9, 192.05 23.31, 209.43 0.53 M146.45 72.98 C164.58 52.94, 180.75 31.44, 209.43 0.53 M157.08 72.94 C176.14 47.73, 197.29 25.29, 220.06 0.49 M157.08 72.94 C173.24 53.35, 189.29 35.62, 220.06 0.49 M167.71 72.91 C185.98 48.72, 206.08 26.53, 230.69 0.46 M167.71 72.91 C189.13 47.94, 209.99 24.95, 230.69 0.46 M178.34 72.88 C191.18 57.94, 208.77 39.09, 239.35 2.69 M178.34 72.88 C194.23 56.38, 208.48 37.38, 239.35 2.69 M188.97 72.84 C210.9 48.49, 230.35 24.36, 246.04 7.18 M188.97 72.84 C209.01 49.68, 228.68 25.66, 246.04 7.18 M199.6 72.81 C218.45 50.46, 236.51 29.7, 248.15 16.96 M199.6 72.81 C218.39 51.98, 235.48 29.7, 248.15 16.96 M210.23 72.77 C216.66 62.81, 225.28 54.85, 247.62 29.75 M210.23 72.77 C220.69 60.09, 232.19 47.4, 247.62 29.75 M220.86 72.74 C229.67 63.76, 236.16 54.66, 247.76 41.79 M220.86 72.74 C228.45 63.59, 238.5 53.04, 247.76 41.79 M232.14 71.95 C235.23 66.9, 239.94 64.08, 247.23 54.59 M232.14 71.95 C235.55 67.41, 240.82 62.27, 247.23 54.59 M4.47 68.02 C4.47 68.02, 4.47 68.02, 4.47 68.02 M4.47 68.02 C4.47 68.02, 4.47 68.02, 4.47 68.02 M19.53 70.51 C14.82 64.71, 9.92 60.97, 2.93 56.08 M19.53 70.51 C13.09 66.21, 6.31 59.56, 2.93 56.08 M32.33 71.04 C22.27 61.25, 8.93 50.1, 2.89 45.45 M32.33 71.04 C22.8 64, 14.66 55.85, 2.89 45.45 M44.37 70.9 C26.45 56.79, 10.11 43.95, 2.86 34.82 M44.37 70.9 C33.34 61.45, 22.97 52.49, 2.86 34.82 M56.41 70.77 C35.94 54.11, 16.55 36.31, 2.82 24.19 M56.41 70.77 C44.76 60.5, 31.96 48.32, 2.82 24.19 M68.45 70.64 C45.48 47.9, 20.54 28.17, 1.28 12.25 M68.45 70.64 C51.07 55.77, 35.83 43.05, 1.28 12.25 M80.49 70.5 C56.21 51.58, 35.35 32.1, 4.26 4.24 M80.49 70.5 C53.95 48.38, 29.19 25.58, 4.26 4.24 M93.28 71.03 C67.66 48, 39.01 22.95, 11.02 -0.48 M93.28 71.03 C75.13 57.11, 59.83 42.39, 11.02 -0.48 M105.33 70.89 C78.7 51.02, 54.96 28.88, 20.8 -2.59 M105.33 70.89 C78.11 46.52, 51.3 23.57, 20.8 -2.59 M117.37 70.76 C94.87 51.44, 71.09 31.28, 32.84 -2.72 M117.37 70.76 C84.79 42.44, 53.54 14.99, 32.84 -2.72 M129.41 70.63 C113.02 55.7, 92.05 39.03, 44.88 -2.85 M129.41 70.63 C105.47 50.28, 84.47 31.35, 44.88 -2.85 M141.45 70.49 C109.8 43.69, 82.77 17.7, 56.92 -2.99 M141.45 70.49 C116.86 48.43, 90.71 27.57, 56.92 -2.99 M154.24 71.02 C135.6 56.28, 121.67 41.36, 69.72 -2.46 M154.24 71.02 C127.54 47.74, 99.16 24.51, 69.72 -2.46 M166.28 70.88 C134.24 45.38, 103.65 17.99, 81.76 -2.6 M166.28 70.88 C147.08 53.77, 128.38 36.85, 81.76 -2.6 M178.33 70.75 C147.94 44.18, 122.47 20.84, 93.8 -2.73 M178.33 70.75 C158.95 54.82, 140.69 37.64, 93.8 -2.73 M190.37 70.62 C163.88 49.36, 136.69 22, 105.84 -2.86 M190.37 70.62 C161.11 43.81, 131.53 19.32, 105.84 -2.86 M202.41 70.48 C184.16 51.38, 163.58 35.65, 117.88 -2.99 M202.41 70.48 C173.37 44.3, 143.84 19.55, 117.88 -2.99 M215.2 71.01 C188.89 49.59, 162.98 28.63, 130.68 -2.47 M215.2 71.01 C184.04 43.03, 152.01 14.77, 130.68 -2.47 M227.24 70.87 C205.45 51.13, 185.67 33.73, 142.72 -2.61 M227.24 70.87 C203.05 50.05, 178.75 28.27, 142.72 -2.61 M234.76 66.8 C203.41 41.88, 176.86 16.05, 154.76 -2.74 M234.76 66.8 C207.87 43.06, 179.89 20.82, 154.76 -2.74 M245.29 65.36 C223.56 49.52, 207.35 29.9, 166.8 -2.87 M245.29 65.36 C223.77 47.65, 203.12 30.24, 166.8 -2.87 M249.78 58.66 C231.56 44.41, 216.72 27.15, 178.84 -3 M249.78 58.66 C222.75 34.73, 195.13 11.46, 178.84 -3 M250.5 48.69 C237.24 35.56, 221.42 26.43, 191.63 -2.48 M250.5 48.69 C232.01 33.28, 214.69 17.72, 191.63 -2.48 M250.47 38.06 C237.56 25.96, 224.72 17.2, 203.68 -2.61 M250.47 38.06 C232.77 22.75, 214.95 6.45, 203.68 -2.61 M250.43 27.43 C238.09 18.15, 226.13 7.34, 215.72 -2.75 M250.43 27.43 C241.74 19.8, 232.57 12.61, 215.72 -2.75 M251.15 17.46 C248.66 14.93, 242.28 8.8, 230.78 -0.26 M251.15 17.46 C243.68 12.26, 237.54 6.18, 230.78 -0.26" stroke="#e7f5ff" stroke-width="1" fill="none"></path><path d="M18.15 0 C65.13 0.81, 109.9 3.04, 230.08 0 M230.08 0 C243.22 -1.43, 247.14 4.3, 248.23 18.15 M248.23 18.15 C249.21 33.61, 249.45 44.91, 248.23 54.46 M248.23 54.46 C248.06 66.46, 240.56 71.44, 230.08 72.62 M230.08 72.62 C169.58 73.43, 108.32 75.74, 18.15 72.62 M18.15 72.62 C5.41 74.37, 0.12 68.26, 0 54.46 M0 54.46 C1.2 41.54, 1.75 28.09, 0 18.15 M0 18.15 C-1.49 7.28, 5.6 1.43, 18.15 0" stroke="#228be6" stroke-width="2.5" fill="none" stroke-dasharray="8 10"></path></g><g transform="translate(172.26305595922327 10) rotate(0 84.32237243652344 17.5)"><text x="0" y="0" font-family="Virgil, Segoe UI Emoji" font-size="28px" fill="#e8590c" text-anchor="start" style="white-space: pre;" direction="ltr" dominant-baseline="text-before-edge">Source Code</text></g><g stroke-linecap="round"><g transform="translate(144.00915119205092 396.0135921499861) rotate(0 0.69095210906994 22.70575185777534)"><path d="M0.26 0.24 C0.47 7.71, 0.67 37.28, 0.92 44.87" stroke="#e8590c" stroke-width="2.5" fill="none" stroke-dasharray="8 10"></path></g><g transform="translate(144.00915119205092 396.0135921499861) rotate(0 0.69095210906994 22.70575185777534)"><path d="M-7.24 23.66 C-4.81 27.96, -4.25 34.57, 0.92 44.87" stroke="#e8590c" stroke-width="2.5" fill="none"></path></g><g transform="translate(144.00915119205092 396.0135921499861) rotate(0 0.69095210906994 22.70575185777534)"><path d="M8.3 23.38 C6.95 27.78, 3.72 34.46, 0.92 44.87" stroke="#e8590c" stroke-width="2.5" fill="none"></path></g></g><mask></mask><g stroke-linecap="round"><g transform="translate(273.3696133105352 488.05241008308855) rotate(0 33.30672231191966 0.19257561255722067)"><path d="M-0.61 -1.19 C10.43 -1.32, 55.05 -0.09, 66.24 0.17" stroke="#15aabf" stroke-width="2.5" fill="none" stroke-dasharray="8 10"></path></g><g transform="translate(273.3696133105352 488.05241008308855) rotate(0 33.30672231191966 0.19257561255722067)"><path d="M42.54 8.13 C47.71 5.21, 56.56 3.29, 66.24 0.17" stroke="#15aabf" stroke-width="2.5" fill="none"></path></g><g transform="translate(273.3696133105352 488.05241008308855) rotate(0 33.30672231191966 0.19257561255722067)"><path d="M42.97 -8.97 C48.15 -6.68, 56.86 -3.4, 66.24 0.17" stroke="#15aabf" stroke-width="2.5" fill="none"></path></g></g><mask></mask><g stroke-linecap="round"><g transform="translate(612.1369091718568 487.538466088682) rotate(0 43.671314474196606 -0.8559244368419741)"><path d="M-0.11 -0.43 C14.62 -0.46, 74.07 -0.44, 88.45 -0.55" stroke="#228be6" stroke-width="2.5" fill="none" stroke-dasharray="8 10"></path></g><g transform="translate(612.1369091718568 487.538466088682) rotate(0 43.671314474196606 -0.8559244368419741)"><path d="M23.38 -9 C15.42 -4.54, 10.85 -5.65, -0.11 -0.43" stroke="#228be6" stroke-width="2.5" fill="none"></path></g><g transform="translate(612.1369091718568 487.538466088682) rotate(0 43.671314474196606 -0.8559244368419741)"><path d="M23.39 8.1 C15.48 7.31, 10.91 0.93, -0.11 -0.43" stroke="#228be6" stroke-width="2.5" fill="none"></path></g><g transform="translate(612.1369091718568 487.538466088682) rotate(0 43.671314474196606 -0.8559244368419741)"><path d="M64.98 8.07 C71.51 7.29, 81.38 0.88, 88.45 -0.55" stroke="#228be6" stroke-width="2.5" fill="none"></path></g><g transform="translate(612.1369091718568 487.538466088682) rotate(0 43.671314474196606 -0.8559244368419741)"><path d="M64.93 -9.03 C71.43 -4.55, 81.32 -5.7, 88.45 -0.55" stroke="#228be6" stroke-width="2.5" fill="none"></path></g></g><mask></mask><g stroke-linecap="round"><g transform="translate(810.5150900033993 434.7225078122331) rotate(0 -0.12051386721589097 -52.31179690167761)"><path d="M0.67 0.07 C0.36 -17.21, -0.6 -86.84, -0.7 -104.45" stroke="#40c057" stroke-width="2.5" fill="none" stroke-dasharray="8 10"></path></g><g transform="translate(810.5150900033993 434.7225078122331) rotate(0 -0.12051386721589097 -52.31179690167761)"><path d="M-8.21 -23.3 C-4.77 -14.95, -1.1 -4.52, 0.67 0.07" stroke="#40c057" stroke-width="2.5" fill="none"></path></g><g transform="translate(810.5150900033993 434.7225078122331) rotate(0 -0.12051386721589097 -52.31179690167761)"><path d="M8.89 -23.54 C5.62 -15, 2.58 -4.48, 0.67 0.07" stroke="#40c057" stroke-width="2.5" fill="none"></path></g><g transform="translate(810.5150900033993 434.7225078122331) rotate(0 -0.12051386721589097 -52.31179690167761)"><path d="M8.09 -81.04 C4.91 -90.95, 1.64 -98.87, -0.7 -104.45" stroke="#40c057" stroke-width="2.5" fill="none"></path></g><g transform="translate(810.5150900033993 434.7225078122331) rotate(0 -0.12051386721589097 -52.31179690167761)"><path d="M-9.01 -80.87 C-5.48 -90.93, -2.04 -98.93, -0.7 -104.45" stroke="#40c057" stroke-width="2.5" fill="none"></path></g></g><mask></mask><g transform="translate(394.88393358072085 542.2660142696993) rotate(0 83.48234558105469 17.5)"><text x="0" y="0" font-family="Virgil, Segoe UI Emoji" font-size="28px" fill="#228be6" text-anchor="start" style="white-space: pre;" direction="ltr" dominant-baseline="text-before-edge">WebAssembly</text></g><g stroke-opacity="0.4" fill-opacity="0.4" transform="translate(384.8397347610528 598.0396703139882) rotate(0 88.984375 17.5)"><text x="0" y="0" font-family="Virgil, Segoe UI Emoji" font-size="28px" fill="#f08c00" text-anchor="start" style="white-space: pre;" direction="ltr" dominant-baseline="text-before-edge">@hemashushu</text></g><g transform="translate(762.513195881498 537.0263757078885) rotate(0 41.90217590332031 17.5)"><text x="0" y="0" font-family="Virgil, Segoe UI Emoji" font-size="28px" fill="#40c057" text-anchor="start" style="white-space: pre;" direction="ltr" dominant-baseline="text-before-edge">Bridge</text></g><g transform="translate(92.38913468660212 536.3149913541783) rotate(0 52.96222686767578 17.5)"><text x="0" y="0" font-family="Virgil, Segoe UI Emoji" font-size="28px" fill="#15aabf" text-anchor="start" style="white-space: pre;" direction="ltr" dominant-baseline="text-before-edge">Compiler</text></g><g transform="translate(60.76356755171287 475.07539071254934) rotate(0 88.69990539550781 12.5)"><text x="0" y="0" font-family="Virgil, Segoe UI Emoji" font-size="20px" fill="#15aabf" text-anchor="start" style="white-space: pre;" direction="ltr" dominant-baseline="text-before-edge">ans_compiler.wasm</text></g><g transform="translate(432.18125316640476 474.2420573792162) rotate(0 43.789947509765625 12.5)"><text x="0" y="0" font-family="Virgil, Segoe UI Emoji" font-size="20px" fill="#228be6" text-anchor="start" style="white-space: pre;" direction="ltr" dominant-baseline="text-before-edge">app.wasm</text></g><g transform="translate(746.6256976108493 475.9087240458828) rotate(0 66.7799301147461 12.5)"><text x="0" y="0" font-family="Virgil, Segoe UI Emoji" font-size="20px" fill="#40c057" text-anchor="start" style="white-space: pre;" direction="ltr" dominant-baseline="text-before-edge">ans_loader.js</text></g></svg>