<svg version="1.1" xmlns="http://www.w3.org/2000/svg" viewBox="0 0 1259.787207041482 643.7669049922648" width="2519.574414082964" height="1287.5338099845296">
  <!-- svg-source:excalidraw -->
  
  <defs>
    <style class="style-fonts">
      @font-face {
        font-family: "Virgil";
        src: url("https://excalidraw.com/Virgil.woff2");
      }
      @font-face {
        font-family: "Cascadia";
        src: url("https://excalidraw.com/Cascadia.woff2");
      }
      @font-face {
        font-family: "Assistant";
        src: url("https://excalidraw.com/Assistant-Regular.woff2");
      }
    </style>
    
  </defs>
  <g stroke-linecap="round" transform="translate(10 321.5878606401378) rotate(0 92.5 111)"><path d="M32 0 C64.6 0.91, 89.92 -3.58, 153 0 C172.93 -3.21, 185.93 9.68, 185 32 C185.48 72.23, 182.66 118.65, 185 190 C185.47 208.2, 171.25 222.44, 153 222 C123.3 220.46, 95.54 220.5, 32 222 C7.98 219.08, 1.27 210.92, 0 190 C4.54 144.75, -1.84 94.94, 0 32 C0.47 9.94, 12.22 1.86, 32 0" stroke="none" stroke-width="0" fill="#e6fcf5"></path><path d="M32 0 C74.62 -0.49, 113.94 -1.01, 153 0 M32 0 C74.56 -1.87, 118.17 -1.69, 153 0 M153 0 C175.04 -1.3, 183.94 10.31, 185 32 M153 0 C173.03 1.35, 186.17 8.94, 185 32 M185 32 C185.66 83.35, 182.27 135.14, 185 190 M185 32 C184.46 94.75, 185.86 157.81, 185 190 M185 190 C184.06 211.95, 175.22 223.05, 153 222 M185 190 C183.43 211.39, 173.27 224.29, 153 222 M153 222 C120.51 219.7, 89.57 223.07, 32 222 M153 222 C115.5 220.51, 78.9 221, 32 222 M32 222 C11.23 222.69, -0.92 211.46, 0 190 M32 222 C12.27 223.06, -1.02 210.23, 0 190 M0 190 C-0.49 144.29, 0.08 98.29, 0 32 M0 190 C-1.08 132.57, -0.86 75.28, 0 32 M0 32 C-0.19 10.48, 12.07 -1.37, 32 0 M0 32 C-1.68 9.77, 10.9 1.78, 32 0" stroke="#12b886" stroke-width="1" fill="none"></path></g><g stroke-linecap="round" transform="translate(27.5 382.5878606401378) rotate(0 75.75 15)"><path d="M7.5 0 C36.05 0.28, 60.52 -1.99, 144 0 C147.35 -0.56, 150.62 0.43, 151.5 7.5 C151.9 12.56, 150.78 17.19, 151.5 22.5 C148.48 29.64, 147.61 28.1, 144 30 C103.72 24.96, 69.67 28.62, 7.5 30 C0.08 30.77, 2.16 28.98, 0 22.5 C0.49 18.18, -0.73 13.96, 0 7.5 C-1.77 4.52, 4.66 0.73, 7.5 0" stroke="none" stroke-width="0" fill="#ebfbee"></path><path d="M7.5 0 C40.87 0.41, 73.75 -1.93, 144 0 M7.5 0 C55.18 -1.73, 101.27 -0.66, 144 0 M144 0 C149.54 -1.15, 150.99 2.15, 151.5 7.5 M144 0 C147.8 -1.98, 151.26 2.22, 151.5 7.5 M151.5 7.5 C150.64 10.97, 150.06 16.52, 151.5 22.5 M151.5 7.5 C152.31 12.09, 152.09 17.81, 151.5 22.5 M151.5 22.5 C151.72 27.21, 149.14 30.15, 144 30 M151.5 22.5 C149.85 27.5, 151.13 27.92, 144 30 M144 30 C100.26 31.25, 57.97 32.82, 7.5 30 M144 30 C95.64 29.78, 45.81 28.55, 7.5 30 M7.5 30 C4.38 28.24, 0.11 26.2, 0 22.5 M7.5 30 C2.79 31.42, 0.85 28.73, 0 22.5 M0 22.5 C0.34 18.06, 0.8 10.19, 0 7.5 M0 22.5 C0.39 19.11, 0.29 15.19, 0 7.5 M0 7.5 C1.18 1.13, 4.12 -0.88, 7.5 0 M0 7.5 C-1.16 0.4, 2.91 -0.22, 7.5 0" stroke="#12b886" stroke-width="1" fill="none"></path></g><g transform="translate(39.55384826660156 387.5878606401378) rotate(0 63.69615173339844 10)"><text x="63.69615173339844" y="0" font-family="Virgil, Segoe UI Emoji" font-size="16px" fill="#12b886" text-anchor="middle" style="white-space: pre;" direction="ltr" dominant-baseline="text-before-edge">read-write data</text></g><g stroke-linecap="round" transform="translate(28.23378466302188 341.1121836456051) rotate(0 75.75 15)"><path d="M7.5 0 C60.72 2.38, 105.77 -3.05, 144 0 C149.19 -0.3, 154.06 2.64, 151.5 7.5 C149.96 8.52, 152.29 14.3, 151.5 22.5 C151.21 24.98, 152.37 29.52, 144 30 C113.45 28.68, 91.23 29.16, 7.5 30 C2.06 30.42, -1.36 28.2, 0 22.5 C-1.85 18.67, 0.81 13.35, 0 7.5 C-2.85 5.15, 4.06 2.75, 7.5 0" stroke="none" stroke-width="0" fill="#ebfbee"></path><path d="M7.5 0 C40.36 1.16, 68.24 -1.46, 144 0 M7.5 0 C41.06 1.38, 76.66 1.57, 144 0 M144 0 C148.29 0.79, 153.27 1.12, 151.5 7.5 M144 0 C149.02 1.22, 149.67 0.38, 151.5 7.5 M151.5 7.5 C151.52 11.37, 153 17.25, 151.5 22.5 M151.5 7.5 C150.86 11.17, 152.22 14.53, 151.5 22.5 M151.5 22.5 C150.99 28.88, 148.38 31.12, 144 30 M151.5 22.5 C150.1 27.69, 148.29 29.57, 144 30 M144 30 C101.39 29.42, 57.76 29.72, 7.5 30 M144 30 C95.53 29.19, 46.34 30.32, 7.5 30 M7.5 30 C2.65 30.51, 1.79 29.35, 0 22.5 M7.5 30 C2.56 31.47, -1.73 26.85, 0 22.5 M0 22.5 C0.88 16.22, -1.26 10.89, 0 7.5 M0 22.5 C0.32 19.16, 0.82 14.42, 0 7.5 M0 7.5 C0.53 3.4, 2.64 -1.21, 7.5 0 M0 7.5 C-1.14 3.06, 3.84 0.67, 7.5 0" stroke="#12b886" stroke-width="1" fill="none"></path></g><g transform="translate(45.22365282708438 346.1121836456051) rotate(0 58.7601318359375 10)"><text x="58.7601318359375" y="0" font-family="Virgil, Segoe UI Emoji" font-size="16px" fill="#12b886" text-anchor="middle" style="white-space: pre;" direction="ltr" dominant-baseline="text-before-edge">read-only data</text></g><g stroke-linecap="round" transform="translate(27.75 425.5878606401378) rotate(0 74.2743230054673 15.24594616575547)"><path d="M7.62 0 C40.13 -1.64, 65.35 0.19, 140.93 0 C147.74 -0.38, 152.13 2.82, 148.55 7.62 C148.82 11.09, 148.24 14.37, 148.55 22.87 C149.66 30.3, 145.32 29.86, 140.93 30.49 C86.72 27.74, 36.47 27.89, 7.62 30.49 C-1.03 27.81, -1.78 27.55, 0 22.87 C1.81 15.75, -2.9 15.65, 0 7.62 C-3 2.47, 6.03 -1.42, 7.62 0" stroke="none" stroke-width="0" fill="#ebfbee"></path><path d="M7.62 0 C40.75 -2.55, 71.02 -1.78, 140.93 0 M7.62 0 C39.65 -0.5, 71 0.61, 140.93 0 M140.93 0 C146.66 1.4, 149.75 2.89, 148.55 7.62 M140.93 0 C144.47 -1, 149.47 2.73, 148.55 7.62 M148.55 7.62 C147.98 12.07, 150.03 18.74, 148.55 22.87 M148.55 7.62 C149.23 12.08, 149.17 17.79, 148.55 22.87 M148.55 22.87 C149.1 27.46, 147.42 29.12, 140.93 30.49 M148.55 22.87 C149.63 25.95, 145.56 30.74, 140.93 30.49 M140.93 30.49 C89.78 30.97, 38.29 29.71, 7.62 30.49 M140.93 30.49 C105.39 29.89, 69.4 30.06, 7.62 30.49 M7.62 30.49 C1.09 30.73, -1.41 29.56, 0 22.87 M7.62 30.49 C3.74 28.44, -0.55 30.03, 0 22.87 M0 22.87 C0.39 20.77, 1.3 15.57, 0 7.62 M0 22.87 C-0.1 19.41, -0.05 15.76, 0 7.62 M0 7.62 C-0.4 4.23, 4.14 0.81, 7.62 0 M0 7.62 C-1.67 0.38, 2.13 -0.12, 7.62 0" stroke="#12b886" stroke-width="1" fill="none"></path></g><g transform="translate(62.736229438572764 430.8338068058933) rotate(0 39.28809356689453 10)"><text x="39.28809356689453" y="0" font-family="Virgil, Segoe UI Emoji" font-size="16px" fill="#12b886" text-anchor="middle" style="white-space: pre;" direction="ltr" dominant-baseline="text-before-edge">BSS data</text></g><g stroke-linecap="round" transform="translate(25.25 469.5878606401378) rotate(0 75.75 27.5)"><path d="M13.75 0 C42.74 -0.55, 69.19 1.3, 137.75 0 C149.9 -2.29, 147.96 5.79, 151.5 13.75 C148.97 24.04, 149.44 33.19, 151.5 41.25 C152.98 51.96, 147.64 54.33, 137.75 55 C98.06 56.65, 57.3 53.04, 13.75 55 C3.38 58.58, 2.52 48.71, 0 41.25 C-0.26 31.44, 0.09 22.78, 0 13.75 C-2.65 6.67, 4.54 -2.36, 13.75 0" stroke="none" stroke-width="0" fill="#ebfbee"></path><path d="M13.75 0 C44.97 -1.37, 76.92 1, 137.75 0 M13.75 0 C54.84 0.4, 96.42 1.36, 137.75 0 M137.75 0 C145.76 1.73, 150.07 2.97, 151.5 13.75 M137.75 0 C147.67 -0.2, 153.45 4.47, 151.5 13.75 M151.5 13.75 C151.95 22.1, 151.18 27.29, 151.5 41.25 M151.5 13.75 C151.22 23.14, 152.08 32.45, 151.5 41.25 M151.5 41.25 C152.41 49.22, 146.13 54.89, 137.75 55 M151.5 41.25 C149.42 51.03, 148.51 52.8, 137.75 55 M137.75 55 C108.02 53.82, 78.76 56.75, 13.75 55 M137.75 55 C97.34 54.66, 57.39 54.78, 13.75 55 M13.75 55 C6.52 53.07, 0.84 51.54, 0 41.25 M13.75 55 C6.85 53.59, 0.44 50.7, 0 41.25 M0 41.25 C0.07 31.11, -1.39 22.61, 0 13.75 M0 41.25 C1.02 33.77, 0.86 26.17, 0 13.75 M0 13.75 C-1.11 6.29, 5.51 0.93, 13.75 0 M0 13.75 C-2.1 5.54, 4.28 1.12, 13.75 0" stroke="#12b886" stroke-width="1" fill="none"></path></g><g transform="translate(60.88792419433594 477.0878606401378) rotate(0 40.11207580566406 20)"><text x="40.11207580566406" y="0" font-family="Virgil, Segoe UI Emoji" font-size="16px" fill="#12b886" text-anchor="middle" style="white-space: pre;" direction="ltr" dominant-baseline="text-before-edge">Functions</text><text x="40.11207580566406" y="20" font-family="Virgil, Segoe UI Emoji" font-size="16px" fill="#12b886" text-anchor="middle" style="white-space: pre;" direction="ltr" dominant-baseline="text-before-edge">(bytecode)</text></g><g transform="translate(28.833333333333314 270.36563841791565) rotate(0 70.49030303955078 17.5)"><text x="0" y="0" font-family="Virgil, Segoe UI Emoji" font-size="28px" fill="#12b886" text-anchor="start" style="white-space: pre;" direction="ltr" dominant-baseline="text-before-edge">App Image</text></g><g stroke-linecap="round" transform="translate(357.3819505067079 63.285714285714334) rotate(0 241.2307129478271 249.60419128044816)"><path d="M32 0 C186.92 5.21, 342.5 4.34, 450.46 0 C471.06 -3.22, 481.22 8.43, 482.46 32 C477.97 155.73, 477.98 277.43, 482.46 467.21 C482.57 491.11, 469.38 500.22, 450.46 499.21 C334.99 499.74, 215.27 499.18, 32 499.21 C14.15 497.78, -0.76 491.03, 0 467.21 C-0.02 347.51, 0.78 230.43, 0 32 C-2.06 9.1, 9.41 0.39, 32 0" stroke="none" stroke-width="0" fill="#eefcfe"></path><path d="M32 0 C164.8 2.7, 295.51 2.58, 450.46 0 M32 0 C142.74 -1.02, 254.15 -1.02, 450.46 0 M450.46 0 C472.05 0.22, 483.24 12.42, 482.46 32 M450.46 0 C471.87 -1.49, 483.76 8.62, 482.46 32 M482.46 32 C480.65 183.06, 482 333.25, 482.46 467.21 M482.46 32 C481.29 196.56, 481.59 361.28, 482.46 467.21 M482.46 467.21 C482.07 487.52, 471.87 499.36, 450.46 499.21 M482.46 467.21 C481.2 486.53, 472.95 501.04, 450.46 499.21 M450.46 499.21 C314.37 500.49, 175.66 500.74, 32 499.21 M450.46 499.21 C319.47 499.51, 188.59 498.83, 32 499.21 M32 499.21 C8.72 497.82, 0.87 488.73, 0 467.21 M32 499.21 C9.15 499.41, 0.85 489.28, 0 467.21 M0 467.21 C-0.43 361.83, 0.03 255.89, 0 32 M0 467.21 C1.46 369.62, 1.05 272.48, 0 32 M0 32 C1.81 10.02, 11.63 -1.16, 32 0 M0 32 C1.85 8.82, 12.72 0.46, 32 0" stroke="#15aabf" stroke-width="1" fill="none"></path></g><g stroke-linecap="round" transform="translate(388.84344281196445 325.99409684661066) rotate(0 92.5 106.75)"><path d="M32 0 C75.01 -0.98, 116.32 0.51, 153 0 C171.86 0.8, 182.29 14.25, 185 32 C186.79 74.21, 189.7 110.71, 185 181.5 C186.84 202.54, 175.58 212.27, 153 213.5 C118.58 210.53, 80.15 209.97, 32 213.5 C7.74 214.41, -2.5 204.06, 0 181.5 C1.49 135.59, -0.84 94.36, 0 32 C-0.09 10.97, 12.25 2.42, 32 0" stroke="none" stroke-width="0" fill="#e6fcf5"></path><path d="M32 0 C63.19 -1.19, 90.63 1.7, 153 0 M153 0 C176.02 -0.81, 183.98 11.17, 185 32 M185 32 C187.56 83.92, 187.69 137.81, 185 181.5 M185 181.5 C185.06 202.65, 172.6 211.81, 153 213.5 M153 213.5 C109.21 214.44, 67.4 215.43, 32 213.5 M32 213.5 C8.9 215.1, -1.47 202.66, 0 181.5 M0 181.5 C2.9 148.76, 3.44 115.1, 0 32 M0 32 C0.21 11.65, 11.97 -1.98, 32 0" stroke="#12b886" stroke-width="1.5" fill="none" stroke-dasharray="8 9"></path></g><g stroke-linecap="round" transform="translate(405.8515504804535 382.49409684661066) rotate(0 75.75 15)"><path d="M7.5 0 C56.29 1.5, 99.91 0.76, 144 0 C146.29 3.59, 150.5 4.01, 151.5 7.5 C154.23 10.54, 152.93 17.39, 151.5 22.5 C152.75 26.27, 149.05 28.05, 144 30 C104.5 24.81, 61.96 29.04, 7.5 30 C0 31.23, -0.05 26.21, 0 22.5 C-1.39 18.43, -0.11 11.42, 0 7.5 C1.59 4.92, 0.07 -1.93, 7.5 0" stroke="none" stroke-width="0" fill="#ebfbee"></path><path d="M7.5 0 C43.67 2.41, 84.12 0.21, 144 0 M144 0 C147.98 0.5, 152.6 3.92, 151.5 7.5 M151.5 7.5 C152.83 12.76, 151.65 18.38, 151.5 22.5 M151.5 22.5 C149.76 25.81, 149.92 30.3, 144 30 M144 30 C88.73 30.71, 35.46 31.49, 7.5 30 M7.5 30 C1.03 29.83, -1.46 25.52, 0 22.5 M0 22.5 C1.37 18.96, 0.05 13.83, 0 7.5 M0 7.5 C1.3 0.52, 3.36 -1.06, 7.5 0" stroke="#12b886" stroke-width="1.5" fill="none" stroke-dasharray="8 9"></path></g><g stroke-linecap="round" transform="translate(405.6015504804535 341.99409684661066) rotate(0 75.75 15)"><path d="M7.5 0 C59.66 0.66, 108.33 0.89, 144 0 C146.55 -2.38, 154.03 3.9, 151.5 7.5 C152.63 12.48, 152.08 17.21, 151.5 22.5 C148.19 26.66, 145.83 29.44, 144 30 C96.23 29.85, 56.37 28.09, 7.5 30 C5.93 27.94, 3.58 30.88, 0 22.5 C1.76 18.65, 2.39 12.08, 0 7.5 C-3.03 5.94, 2.17 0.65, 7.5 0" stroke="none" stroke-width="0" fill="#ebfbee"></path><path d="M7.5 0 C56.91 1.05, 109.47 1.98, 144 0 M7.5 0 C58.44 0.62, 107.79 0.69, 144 0 M144 0 C147.26 -1.69, 152.42 2.8, 151.5 7.5 M144 0 C151.1 -2.22, 151.31 0.34, 151.5 7.5 M151.5 7.5 C150.26 12.49, 150.28 16.26, 151.5 22.5 M151.5 7.5 C152.34 12.78, 151.69 17.27, 151.5 22.5 M151.5 22.5 C152.8 25.52, 149.86 28.94, 144 30 M151.5 22.5 C152.59 28.47, 149.03 30.86, 144 30 M144 30 C95.7 32.3, 49.86 31.14, 7.5 30 M144 30 C99.02 29.83, 52.56 30.49, 7.5 30 M7.5 30 C3.19 29.32, 0.03 26.42, 0 22.5 M7.5 30 C2.27 31.3, -1.75 27.54, 0 22.5 M0 22.5 C-0.92 19.89, 0.1 15.72, 0 7.5 M0 22.5 C-0.4 17.29, -0.04 11.26, 0 7.5 M0 7.5 C0.88 3.84, 1.15 -1.07, 7.5 0 M0 7.5 C1.36 1.76, 4.12 -1.9, 7.5 0" stroke="#12b886" stroke-width="1" fill="none"></path></g><g transform="translate(422.591418644516 346.99409684661066) rotate(0 58.7601318359375 10)"><text x="58.7601318359375" y="0" font-family="Virgil, Segoe UI Emoji" font-size="16px" fill="#12b886" text-anchor="middle" style="white-space: pre;" direction="ltr" dominant-baseline="text-before-edge">read-only data</text></g><g stroke-linecap="round" transform="translate(406.59344281196445 425.49409684661066) rotate(0 74.27432300546724 15.49189233151094)"><path d="M7.75 0 C62.25 -0.34, 115.62 2.57, 140.8 0 C143.29 1.84, 148.26 3.83, 148.55 7.75 C148.27 13.44, 146.43 16.03, 148.55 23.24 C145.24 25.48, 146.88 28.48, 140.8 30.98 C99.11 30.65, 50.61 28.32, 7.75 30.98 C4.69 30.9, 0.3 29.99, 0 23.24 C1.84 16.65, 2.16 9.56, 0 7.75 C2.16 2.52, 4.91 3.02, 7.75 0" stroke="none" stroke-width="0" fill="#ebfbee"></path><path d="M7.75 0 C52.35 0.55, 93.13 0.68, 140.8 0 M140.8 0 C145.64 0.06, 148.36 0.85, 148.55 7.75 M148.55 7.75 C150.03 9.59, 148.49 12.97, 148.55 23.24 M148.55 23.24 C149.37 26.63, 147.56 29.51, 140.8 30.98 M140.8 30.98 C102.28 31.09, 64.45 31.63, 7.75 30.98 M7.75 30.98 C4.13 31.2, 0.98 29.7, 0 23.24 M0 23.24 C0.67 20.78, -0.04 17.59, 0 7.75 M0 7.75 C0.86 1.21, 3.02 -1.51, 7.75 0" stroke="#12b886" stroke-width="1.5" fill="none" stroke-dasharray="8 9"></path></g><g stroke-linecap="round" transform="translate(404.09344281196445 469.49409684661066) rotate(0 75.75 27.5)"><path d="M13.75 0 C41.7 2.5, 70.13 0.3, 137.75 0 C148.13 0.44, 153.6 1.28, 151.5 13.75 C152.03 20.6, 153.46 25.81, 151.5 41.25 C149.72 52.02, 143.37 58.43, 137.75 55 C106.15 59.57, 80.93 59.68, 13.75 55 C4.61 58.43, -3.56 47.38, 0 41.25 C2.1 29.96, 0.95 21.86, 0 13.75 C-0.76 4.57, 7.09 3.13, 13.75 0" stroke="none" stroke-width="0" fill="#ebfbee"></path><path d="M13.75 0 C59.89 -0.95, 106.49 -2.75, 137.75 0 M13.75 0 C41.39 -1.15, 67.13 -1.13, 137.75 0 M137.75 0 C147.74 -1.77, 153.1 3.11, 151.5 13.75 M137.75 0 C146.72 -1.67, 149.23 4.89, 151.5 13.75 M151.5 13.75 C153.21 24.17, 152.65 35.46, 151.5 41.25 M151.5 13.75 C152.09 19.7, 151.63 25.19, 151.5 41.25 M151.5 41.25 C152.36 49.05, 147.36 53.49, 137.75 55 M151.5 41.25 C153.79 49.78, 147.88 55.85, 137.75 55 M137.75 55 C96.77 57.26, 58.61 56.93, 13.75 55 M137.75 55 C104.67 54.89, 71.03 54.35, 13.75 55 M13.75 55 C2.74 53.38, 0.51 49.03, 0 41.25 M13.75 55 C5.37 54.97, -0.82 52.18, 0 41.25 M0 41.25 C1.27 32.55, 0.26 24.83, 0 13.75 M0 41.25 C0.78 30.83, 0.89 20.23, 0 13.75 M0 13.75 C1.2 4.55, 5.88 1.68, 13.75 0 M0 13.75 C1.43 6.21, 6.16 -1.56, 13.75 0" stroke="#12b886" stroke-width="1" fill="none"></path></g><g transform="translate(439.7313670063004 476.99409684661066) rotate(0 40.11207580566406 20)"><text x="40.11207580566406" y="0" font-family="Virgil, Segoe UI Emoji" font-size="16px" fill="#12b886" text-anchor="middle" style="white-space: pre;" direction="ltr" dominant-baseline="text-before-edge">Functions</text><text x="40.11207580566406" y="20" font-family="Virgil, Segoe UI Emoji" font-size="16px" fill="#12b886" text-anchor="middle" style="white-space: pre;" direction="ltr" dominant-baseline="text-before-edge">(bytecode)</text></g><g stroke-linecap="round" transform="translate(655.9212835386868 382.49409684661066) rotate(0 75.75 15)"><path d="M7.5 0 C45.19 2.06, 78.4 1.71, 144 0 C145.94 2.95, 152.92 -0.76, 151.5 7.5 C151.02 11.49, 151.58 12.93, 151.5 22.5 C150.38 29.93, 148.18 29.38, 144 30 C117.76 27.53, 87.76 25.94, 7.5 30 C3.79 31.99, 1.27 30.03, 0 22.5 C-0.71 19.27, 0.06 14.06, 0 7.5 C0.77 5.66, 4.69 1.2, 7.5 0" stroke="none" stroke-width="0" fill="#ebfbee"></path><path d="M7.5 0 C49.85 0.25, 92.96 0.87, 144 0 M7.5 0 C53.52 -1.15, 98.49 -0.8, 144 0 M144 0 C148.96 0.12, 153.09 3.28, 151.5 7.5 M144 0 C148.8 0.74, 149.91 2.85, 151.5 7.5 M151.5 7.5 C151.58 11.5, 152.93 16.71, 151.5 22.5 M151.5 7.5 C152.24 12.56, 151.44 16.91, 151.5 22.5 M151.5 22.5 C151.16 25.94, 150.08 31.29, 144 30 M151.5 22.5 C149.62 29.66, 149.05 30.72, 144 30 M144 30 C92.57 31.12, 37.68 32.43, 7.5 30 M144 30 C92.28 30.8, 38.31 30.46, 7.5 30 M7.5 30 C2.48 31.87, -0.97 25.69, 0 22.5 M7.5 30 C0.58 29.03, -0.54 29.16, 0 22.5 M0 22.5 C-0.89 20.11, -0.96 14.75, 0 7.5 M0 22.5 C-0.74 18.86, -0.36 14.15, 0 7.5 M0 7.5 C-0.98 1.15, 1.17 1.78, 7.5 0 M0 7.5 C0.28 2.05, 3.75 -0.51, 7.5 0" stroke="#12b886" stroke-width="1" fill="none"></path></g><g transform="translate(667.9751318052884 387.49409684661066) rotate(0 63.69615173339844 10)"><text x="63.69615173339844" y="0" font-family="Virgil, Segoe UI Emoji" font-size="16px" fill="#12b886" text-anchor="middle" style="white-space: pre;" direction="ltr" dominant-baseline="text-before-edge">read-write data</text></g><g stroke-linecap="round" transform="translate(655.4212835386868 426.99409684661066) rotate(0 75.75 15)"><path d="M7.5 0 C46.39 1.58, 80.53 0.04, 144 0 C146.88 -0.51, 148.24 5.38, 151.5 7.5 C152.56 12.55, 151.84 13.7, 151.5 22.5 C152.22 30.1, 148.2 29.96, 144 30 C92.73 32.85, 48.05 27.13, 7.5 30 C1.87 27.84, 1.82 24.14, 0 22.5 C-2.1 16.48, -0.13 10.36, 0 7.5 C-1.1 -0.31, 1.53 3.43, 7.5 0" stroke="none" stroke-width="0" fill="#ebfbee"></path><path d="M7.5 0 C34.2 -0.52, 65.47 1.01, 144 0 M7.5 0 C55.32 -1.01, 103.63 -0.91, 144 0 M144 0 C149.88 1.78, 151.54 3.07, 151.5 7.5 M144 0 C146.94 -1.23, 151.73 0.26, 151.5 7.5 M151.5 7.5 C152.93 12.69, 152.04 15.28, 151.5 22.5 M151.5 7.5 C150.93 12.14, 150.92 16.91, 151.5 22.5 M151.5 22.5 C150.26 28.64, 148.03 29.72, 144 30 M151.5 22.5 C153.21 25.64, 150.86 28.59, 144 30 M144 30 C114.3 29.7, 84.86 28.34, 7.5 30 M144 30 C116.67 29.59, 88.36 28.52, 7.5 30 M7.5 30 C0.77 31.46, -1.1 28.09, 0 22.5 M7.5 30 C0.44 30.07, 0.89 25.8, 0 22.5 M0 22.5 C0.25 17.55, -0.25 14.94, 0 7.5 M0 22.5 C-0.59 20.02, -0.06 16.55, 0 7.5 M0 7.5 C0.89 3.8, 1.99 -0.25, 7.5 0 M0 7.5 C-0.71 1.01, 0.95 0.47, 7.5 0" stroke="#12b886" stroke-width="1" fill="none"></path></g><g transform="translate(691.8831899717923 431.99409684661066) rotate(0 39.28809356689453 10)"><text x="39.28809356689453" y="0" font-family="Virgil, Segoe UI Emoji" font-size="16px" fill="#12b886" text-anchor="middle" style="white-space: pre;" direction="ltr" dominant-baseline="text-before-edge">BSS data</text></g><g stroke-linecap="round"><g transform="translate(565.3515504804535 400.34028593798473) rotate(0 39.6598665291167 0.3829164300732373)"><path d="M0.74 -0.42 C14.18 -0.45, 66.58 -0.56, 79.66 -0.17 M-0.33 -1.68 C13.07 -1.6, 65.77 0.56, 78.89 0.88" stroke="#12b886" stroke-width="1" fill="none"></path></g><g transform="translate(565.3515504804535 400.34028593798473) rotate(0 39.6598665291167 0.3829164300732373)"><path d="M55.12 8.64 C59.61 7.36, 63.95 4.89, 78.89 0.88 M55.12 8.64 C64.95 5.78, 73.81 1.63, 78.89 0.88" stroke="#12b886" stroke-width="1" fill="none"></path></g><g transform="translate(565.3515504804535 400.34028593798473) rotate(0 39.6598665291167 0.3829164300732373)"><path d="M55.69 -8.45 C60.06 -5.99, 64.27 -4.73, 78.89 0.88 M55.69 -8.45 C65.28 -4.48, 73.91 -1.8, 78.89 0.88" stroke="#12b886" stroke-width="1" fill="none"></path></g></g><mask></mask><g stroke-linecap="round"><g transform="translate(562.890146916152 441.27394500605624) rotate(0 40.88959735789388 0.3159547636883815)"><path d="M0.43 0.33 C14.08 0.56, 67.45 0.26, 80.91 0.26 M-0.81 -0.54 C13.31 -0.05, 69.68 1.27, 83.16 1.61" stroke="#12b886" stroke-width="1" fill="none"></path></g><g transform="translate(562.890146916152 441.27394500605624) rotate(0 40.88959735789388 0.3159547636883815)"><path d="M59.47 9.58 C65.2 6.33, 69.13 5.07, 83.16 1.61 M59.47 9.58 C65.67 8.2, 72.75 5.56, 83.16 1.61" stroke="#12b886" stroke-width="1" fill="none"></path></g><g transform="translate(562.890146916152 441.27394500605624) rotate(0 40.88959735789388 0.3159547636883815)"><path d="M59.88 -7.51 C65.36 -7.08, 69.21 -4.66, 83.16 1.61 M59.88 -7.51 C66.1 -4.2, 73.07 -2.15, 83.16 1.61" stroke="#12b886" stroke-width="1" fill="none"></path></g></g><mask></mask><g transform="translate(587.3434428119645 370.49409684661066) rotate(0 20.179977416992188 12.5)"><text x="0" y="0" font-family="Virgil, Segoe UI Emoji" font-size="20px" fill="#12b886" text-anchor="start" style="white-space: pre;" direction="ltr" dominant-baseline="text-before-edge">copy</text></g><g transform="translate(586.1994151020035 447.99409684661066) rotate(0 22.489974975585938 12.5)"><text x="0" y="0" font-family="Virgil, Segoe UI Emoji" font-size="20px" fill="#12b886" text-anchor="start" style="white-space: pre;" direction="ltr" dominant-baseline="text-before-edge">alloc</text></g><g transform="translate(380.5793519205447 282.7026822643047) rotate(0 101.44444274902344 17.5)"><text x="0" y="0" font-family="Virgil, Segoe UI Emoji" font-size="28px" fill="#12b886" text-anchor="start" style="white-space: pre;" direction="ltr" dominant-baseline="text-before-edge">App Image Ref</text></g><g stroke-linecap="round" transform="translate(389.8819505067079 116.53380460468361) rotate(0 92.25 72.75)"><path d="M32 0 C61.78 -2.67, 87.43 0.5, 152.5 0 C172.7 1.16, 183.23 12.13, 184.5 32 C185.81 60.45, 183.18 92.21, 184.5 113.5 C182.56 134.05, 176.5 146.1, 152.5 145.5 C125.96 146.6, 92.38 143.15, 32 145.5 C13.22 144.47, -3.57 133.01, 0 113.5 C-3.5 89.06, -0.94 60.54, 0 32 C-2.78 8.13, 11.58 0.85, 32 0" stroke="none" stroke-width="0" fill="#fff4e6"></path><path d="M32 0 C56.1 0.57, 82.6 -0.36, 152.5 0 M32 0 C58.39 -1.17, 86.92 -0.03, 152.5 0 M152.5 0 C174.05 -1.15, 184.54 10, 184.5 32 M152.5 0 C171.58 0.96, 184.19 9.2, 184.5 32 M184.5 32 C185.69 61.23, 183.74 93.11, 184.5 113.5 M184.5 32 C184.25 47.9, 184.35 65.13, 184.5 113.5 M184.5 113.5 C184.56 133.02, 172.14 145.35, 152.5 145.5 M184.5 113.5 C184.71 133.67, 175.6 146.72, 152.5 145.5 M152.5 145.5 C125.55 144.32, 95.21 144.04, 32 145.5 M152.5 145.5 C114.55 145.36, 77.81 143.43, 32 145.5 M32 145.5 C9.67 146.36, 1.91 134.8, 0 113.5 M32 145.5 C8.69 143.34, -1.35 134.04, 0 113.5 M0 113.5 C-1.16 94.25, 1.99 78.74, 0 32 M0 113.5 C-0.62 87.92, -0.73 63.05, 0 32 M0 32 C-1.75 9.79, 11.62 -1.78, 32 0 M0 32 C-0.6 12.81, 12.95 -1.15, 32 0" stroke="#fd7e14" stroke-width="1" fill="none"></path></g><g transform="translate(431.0228699243628 77.94024366795406) rotate(0 39.606170654296875 17.5)"><text x="0" y="0" font-family="Virgil, Segoe UI Emoji" font-size="28px" fill="#fd7e14" text-anchor="start" style="white-space: pre;" direction="ltr" dominant-baseline="text-before-edge">Stack</text></g><g stroke-linecap="round" transform="translate(407.1319505067079 133.5338046046836) rotate(0 75.75 15)"><path d="M7.5 0 C62.29 5.22, 112.51 1.05, 144 0 C151.92 -2.29, 148.07 1.26, 151.5 7.5 C151.79 15.33, 153.16 19.32, 151.5 22.5 C153.29 26.14, 151.84 30.38, 144 30 C98.37 31.96, 49.01 31.46, 7.5 30 C2.18 33.42, 2.07 29.59, 0 22.5 C-1.02 15.67, -0.88 15.48, 0 7.5 C-1.68 3.63, 5.5 1.45, 7.5 0" stroke="none" stroke-width="0" fill="#fff9db"></path><path d="M7.5 0 C50.87 -1.68, 98.03 0.44, 144 0 M7.5 0 C58.78 -0.43, 108.47 1.05, 144 0 M144 0 C148.44 -1.9, 151.67 1.61, 151.5 7.5 M144 0 C147.12 0.38, 151.19 3.82, 151.5 7.5 M151.5 7.5 C151.81 11.57, 152.18 16.77, 151.5 22.5 M151.5 7.5 C151.29 11.41, 151.79 14.68, 151.5 22.5 M151.5 22.5 C152.15 27.37, 147.46 29.15, 144 30 M151.5 22.5 C153.13 28.57, 147.18 29.81, 144 30 M144 30 C94.93 30.56, 42.04 31.12, 7.5 30 M144 30 C95.91 29.08, 47.79 28.96, 7.5 30 M7.5 30 C3.31 29.8, -1.49 27.22, 0 22.5 M7.5 30 C1.39 32.23, -1.11 28.32, 0 22.5 M0 22.5 C0.97 16.17, -1.53 9.23, 0 7.5 M0 22.5 C0.14 18.46, 0.3 14.98, 0 7.5 M0 7.5 C0.82 4.49, 2.49 -0.65, 7.5 0 M0 7.5 C2.1 1.46, 3.98 1.8, 7.5 0" stroke="#fd7e14" stroke-width="1" fill="none"></path></g><g transform="translate(443.58586896373913 138.5338046046836) rotate(0 39.29608154296875 10)"><text x="39.29608154296875" y="0" font-family="Virgil, Segoe UI Emoji" font-size="16px" fill="#fd7e14" text-anchor="middle" style="white-space: pre;" direction="ltr" dominant-baseline="text-before-edge">local vars</text></g><g stroke-linecap="round" transform="translate(408.6319505067079 175.0338046046836) rotate(0 75.75 15)"><path d="M7.5 0 C41.69 2.82, 78.25 -1.54, 144 0 C147.82 3.08, 150.28 2.88, 151.5 7.5 C149.94 13.6, 150.43 22.05, 151.5 22.5 C151.34 29.4, 146.86 27.18, 144 30 C102.07 31.8, 64.92 31.49, 7.5 30 C5.02 27.32, -0.64 28.75, 0 22.5 C-0.56 20.52, -0.52 13.42, 0 7.5 C3.39 2.56, 3.71 2.5, 7.5 0" stroke="none" stroke-width="0" fill="#fff9db"></path><path d="M7.5 0 C54.36 -0.48, 97.39 0.27, 144 0 M7.5 0 C59.13 0.07, 113.41 -0.29, 144 0 M144 0 C147.78 -0.31, 151.12 0.99, 151.5 7.5 M144 0 C149.91 0.37, 150.41 2.1, 151.5 7.5 M151.5 7.5 C152.28 9.71, 150.38 12.88, 151.5 22.5 M151.5 7.5 C152.11 10.62, 150.87 14.07, 151.5 22.5 M151.5 22.5 C150.01 26.66, 150.47 28.57, 144 30 M151.5 22.5 C149.75 28.28, 149.83 29.87, 144 30 M144 30 C102.08 29.54, 58.85 30.34, 7.5 30 M144 30 C96.12 28.08, 48.31 27.82, 7.5 30 M7.5 30 C2.72 30.7, 1.14 26.73, 0 22.5 M7.5 30 C1.97 32.11, 1.88 26.73, 0 22.5 M0 22.5 C1.49 19.13, -1.36 16.28, 0 7.5 M0 22.5 C0.11 17.39, -0.23 11.74, 0 7.5 M0 7.5 C-1.82 1.97, 3.38 0.77, 7.5 0 M0 7.5 C-1.82 2.6, 0.87 -1.08, 7.5 0" stroke="#fd7e14" stroke-width="1" fill="none"></path></g><g transform="translate(457.93389142467663 180.0338046046836) rotate(0 26.44805908203125 10)"><text x="26.44805908203125" y="0" font-family="Virgil, Segoe UI Emoji" font-size="16px" fill="#fd7e14" text-anchor="middle" style="white-space: pre;" direction="ltr" dominant-baseline="text-before-edge">frames</text></g><g stroke-linecap="round" transform="translate(409.1319505067079 214.5338046046836) rotate(0 75.75 15)"><path d="M7.5 0 C41.41 -5.1, 73.94 -0.68, 144 0 C147.54 -2.03, 148.7 2.77, 151.5 7.5 C153.35 10.74, 152.87 14.88, 151.5 22.5 C153.5 29.66, 147.91 30.79, 144 30 C93.52 33.92, 48.67 30.52, 7.5 30 C-1.08 32.13, 2.13 29.33, 0 22.5 C1.84 16.89, -0.28 15.12, 0 7.5 C-2.71 3.03, 5.4 -1.78, 7.5 0" stroke="none" stroke-width="0" fill="#fff9db"></path><path d="M7.5 0 C50.3 0.34, 94.05 -0.87, 144 0 M7.5 0 C54.17 -1.51, 101.4 -0.82, 144 0 M144 0 C147.24 -1.18, 151.76 3.39, 151.5 7.5 M144 0 C147.48 -1.67, 153.8 2.85, 151.5 7.5 M151.5 7.5 C150.62 13.41, 153.11 19.28, 151.5 22.5 M151.5 7.5 C152.08 11.5, 152.1 14.57, 151.5 22.5 M151.5 22.5 C151.75 29.47, 148.43 30.25, 144 30 M151.5 22.5 C152.36 28.73, 150.58 29.31, 144 30 M144 30 C102.63 29.26, 63.59 31.8, 7.5 30 M144 30 C100.66 28.58, 56.16 30.05, 7.5 30 M7.5 30 C1.83 28.8, 1.1 26.37, 0 22.5 M7.5 30 C0.28 27.9, -1.74 25.98, 0 22.5 M0 22.5 C-0.99 15.96, -1.08 11.9, 0 7.5 M0 22.5 C0.78 18.13, 0.74 12.01, 0 7.5 M0 7.5 C-0.99 1.32, 3.67 -1.75, 7.5 0 M0 7.5 C-0.34 1.96, 0.62 -2.07, 7.5 0" stroke="#fd7e14" stroke-width="1" fill="none"></path></g><g transform="translate(450.7218781800477 219.5338046046836) rotate(0 34.160072326660156 10)"><text x="34.160072326660156" y="0" font-family="Virgil, Segoe UI Emoji" font-size="16px" fill="#fd7e14" text-anchor="middle" style="white-space: pre;" direction="ltr" dominant-baseline="text-before-edge">operands</text></g><g stroke-linecap="round" transform="translate(654.5252576712022 116.17056059791179) rotate(0 78.25120006332935 17.5)"><path d="M8.75 0 C53.84 0.47, 101.5 -2.23, 147.75 0 C155.42 -2.15, 156.56 1.21, 156.5 8.75 C154.74 15.48, 155.76 18.63, 156.5 26.25 C155.98 29.51, 153.46 38.11, 147.75 35 C103.83 37.24, 58.62 33.14, 8.75 35 C-0.14 31.9, -1.07 31.13, 0 26.25 C0.63 23.32, 1.53 19.2, 0 8.75 C-2.34 4.67, 4.87 -1.55, 8.75 0" stroke="none" stroke-width="0" fill="#fff0f6"></path><path d="M8.75 0 C46.63 1.39, 82.26 1.16, 147.75 0 M8.75 0 C49.88 0.55, 90 -0.66, 147.75 0 M147.75 0 C152.58 -0.02, 154.81 3.34, 156.5 8.75 M147.75 0 C155.34 -1.89, 157.12 2.62, 156.5 8.75 M156.5 8.75 C157.46 14.18, 157.18 20.73, 156.5 26.25 M156.5 8.75 C157 13.43, 156.53 17.26, 156.5 26.25 M156.5 26.25 C156.96 30.87, 152.18 35.69, 147.75 35 M156.5 26.25 C155.67 30.28, 152.4 34.43, 147.75 35 M147.75 35 C94.31 35.14, 45.32 35.03, 8.75 35 M147.75 35 C93.69 36.49, 39.49 36.95, 8.75 35 M8.75 35 C2.29 36.55, -2 30.46, 0 26.25 M8.75 35 C1.08 33.66, -2.19 30.33, 0 26.25 M0 26.25 C0.86 20.73, 1.18 13.93, 0 8.75 M0 26.25 C0.24 21.08, 0.87 14.96, 0 8.75 M0 8.75 C-0.21 4.26, 4.25 1.12, 8.75 0 M0 8.75 C-0.76 2.81, 1.48 2.2, 8.75 0" stroke="#e64980" stroke-width="1" fill="none"></path></g><g stroke-linecap="round" transform="translate(655.5140272958186 231.33408969294118) rotate(0 23.01955386320401 17.5)"><path d="M8.75 0 C18.92 -1.5, 30.69 3.15, 37.29 0 C40.77 1.52, 48.03 1.28, 46.04 8.75 C43.03 16.19, 47.9 22.74, 46.04 26.25 C46.52 34.21, 41.18 36.6, 37.29 35 C26.4 33.37, 23.48 37.33, 8.75 35 C3.9 38.58, 2.89 28.74, 0 26.25 C2.41 19.22, -2.19 13.49, 0 8.75 C-1.17 -0.32, 4.38 1.51, 8.75 0" stroke="none" stroke-width="0" fill="#e7f5ff"></path><path d="M8.75 0 C17.85 -1.35, 27.81 -0.15, 37.29 0 M8.75 0 C15.44 -0.65, 21.95 0.77, 37.29 0 M37.29 0 C43.88 -1.6, 44.31 2.06, 46.04 8.75 M37.29 0 C43.71 -0.85, 46.68 4.98, 46.04 8.75 M46.04 8.75 C45.29 12.21, 45.12 19.48, 46.04 26.25 M46.04 8.75 C46.88 15.2, 46.71 19.98, 46.04 26.25 M46.04 26.25 C46.6 33.04, 43.91 34.23, 37.29 35 M46.04 26.25 C47.24 31.19, 44.58 36.81, 37.29 35 M37.29 35 C31.15 37.09, 23.68 36.38, 8.75 35 M37.29 35 C29.87 35.39, 22.67 34.95, 8.75 35 M8.75 35 C2.28 35.17, 0.49 33.61, 0 26.25 M8.75 35 C1.58 33.35, 1.97 34.33, 0 26.25 M0 26.25 C-1.37 21.67, -1.11 19.74, 0 8.75 M0 26.25 C0.78 20.12, 0.2 12.96, 0 8.75 M0 8.75 C0.37 2.94, 4.9 -0.18, 8.75 0 M0 8.75 C0.04 2.55, 2.67 -1.45, 8.75 0" stroke="#228be6" stroke-width="1" fill="none"></path></g><g transform="translate(668.1735958074601 236.33408969294118) rotate(0 10.3599853515625 12.5)"><text x="10.3599853515625" y="0" font-family="Virgil, Segoe UI Emoji" font-size="20px" fill="#228be6" text-anchor="middle" style="white-space: pre;" direction="ltr" dominant-baseline="text-before-edge">sp</text></g><g stroke-linecap="round" transform="translate(714.6301504117139 230.87018910338793) rotate(0 21.6350769474343 17.5)"><path d="M8.75 0 C15.58 3, 19.03 -3.56, 34.52 0 C36.8 1.03, 43.88 3.53, 43.27 8.75 C45.74 15.11, 45.67 20.41, 43.27 26.25 C42.95 30.99, 39.7 35.1, 34.52 35 C22.32 31.68, 12.73 33.66, 8.75 35 C1.08 36.04, 0.58 34.03, 0 26.25 C-1.76 22.84, -0.27 13.42, 0 8.75 C-1.48 6.09, -0.66 -2.03, 8.75 0" stroke="none" stroke-width="0" fill="#e7f5ff"></path><path d="M8.75 0 C13.86 -0.56, 23.13 -0.16, 34.52 0 M8.75 0 C18.22 -0.48, 28.42 -0.34, 34.52 0 M34.52 0 C42.03 0.54, 41.72 4.14, 43.27 8.75 M34.52 0 C40.16 0.93, 42.83 2.4, 43.27 8.75 M43.27 8.75 C44.33 12.72, 43.36 16.62, 43.27 26.25 M43.27 8.75 C43.74 13.48, 43.49 20.02, 43.27 26.25 M43.27 26.25 C41.7 31.88, 41.8 34.44, 34.52 35 M43.27 26.25 C42.84 34.09, 38.42 34.76, 34.52 35 M34.52 35 C29.7 36.51, 23.28 35.79, 8.75 35 M34.52 35 C26.08 34.75, 19.98 34.75, 8.75 35 M8.75 35 C1.25 35.72, -1.46 31.1, 0 26.25 M8.75 35 C1.26 33.96, -0.12 31.27, 0 26.25 M0 26.25 C-1.62 21.64, 0.25 14.92, 0 8.75 M0 26.25 C0.32 21.84, 0.61 16.7, 0 8.75 M0 8.75 C-1.49 3.92, 1.88 0.7, 8.75 0 M0 8.75 C-2.08 2.29, 3.35 -0.78, 8.75 0" stroke="#228be6" stroke-width="1" fill="none"></path></g><g transform="translate(726.4752417024099 235.87018910338793) rotate(0 9.789985656738281 12.5)"><text x="9.789985656738281" y="0" font-family="Virgil, Segoe UI Emoji" font-size="20px" fill="#228be6" text-anchor="middle" style="white-space: pre;" direction="ltr" dominant-baseline="text-before-edge">fp</text></g><g stroke-linecap="round" transform="translate(768.3232889170955 230.73812047191495) rotate(0 21.40433079480607 17.5)"><path d="M8.75 0 C16.16 -1.59, 19.6 3.14, 34.06 0 C42.15 -2.5, 46.13 6.32, 42.81 8.75 C41.53 13.61, 42.77 13.58, 42.81 26.25 C43.96 32.17, 39.19 34.7, 34.06 35 C21.22 38.42, 17.08 37.07, 8.75 35 C5.46 38, -3.32 33.83, 0 26.25 C-2.03 22.95, 0.2 17.38, 0 8.75 C3.59 3.57, -0.62 0.01, 8.75 0" stroke="none" stroke-width="0" fill="#e7f5ff"></path><path d="M8.75 0 C17.13 0.32, 27.69 -0.67, 34.06 0 M8.75 0 C12.91 1.03, 18.07 0.21, 34.06 0 M34.06 0 C39.99 1.31, 42.78 2.23, 42.81 8.75 M34.06 0 C41.19 0.49, 41.34 2.11, 42.81 8.75 M42.81 8.75 C42.91 11.56, 43.04 17.54, 42.81 26.25 M42.81 8.75 C42.98 14.81, 42.78 19.75, 42.81 26.25 M42.81 26.25 C44.26 32.03, 40.17 35.18, 34.06 35 M42.81 26.25 C44.4 29.85, 41.05 34.52, 34.06 35 M34.06 35 C27.63 34.05, 19.62 36.81, 8.75 35 M34.06 35 C25.1 35.38, 16.37 34.21, 8.75 35 M8.75 35 C3.05 33.4, -1.67 32.89, 0 26.25 M8.75 35 C1.11 33.02, -1.98 32.74, 0 26.25 M0 26.25 C0.75 21.18, -1.31 15.93, 0 8.75 M0 26.25 C0 22.48, 0.15 18.26, 0 8.75 M0 8.75 C1.08 4.7, 3.62 -0.13, 8.75 0 M0 8.75 C0.73 3.05, 1.68 -1.77, 8.75 0" stroke="#228be6" stroke-width="1" fill="none"></path></g><g transform="translate(779.777630393054 235.73812047191495) rotate(0 9.949989318847656 12.5)"><text x="9.949989318847656" y="0" font-family="Virgil, Segoe UI Emoji" font-size="20px" fill="#228be6" text-anchor="middle" style="white-space: pre;" direction="ltr" dominant-baseline="text-before-edge">pc</text></g><g stroke-linecap="round"><g transform="translate(216.1883275730845 436.11909040981317) rotate(0 62.10784363152504 -1.4860654077292281)"><path d="M0.77 0.41 C21.43 -0.23, 102.77 -2.43, 123.37 -2.85 M-0.29 -0.42 C20.8 -0.93, 104.98 -0.66, 125.64 -1.25" stroke="#12b886" stroke-width="1" fill="none"></path></g><g transform="translate(216.1883275730845 436.11909040981317) rotate(0 62.10784363152504 -1.4860654077292281)"><path d="M102.24 7.55 C108.71 3.8, 114.08 3.25, 125.64 -1.25 M102.24 7.55 C110.15 3.86, 119.44 0.99, 125.64 -1.25" stroke="#12b886" stroke-width="1" fill="none"></path></g><g transform="translate(216.1883275730845 436.11909040981317) rotate(0 62.10784363152504 -1.4860654077292281)"><path d="M102.06 -9.55 C108.71 -9.03, 114.13 -5.3, 125.64 -1.25 M102.06 -9.55 C110.19 -6.84, 119.56 -3.29, 125.64 -1.25" stroke="#12b886" stroke-width="1" fill="none"></path></g></g><mask></mask><g transform="translate(223.28387489754437 388.7964460578319) rotate(0 50.484214782714844 17.5)"><text x="0" y="0" font-family="Virgil, Segoe UI Emoji" font-size="28px" fill="#12b886" text-anchor="start" style="white-space: pre;" direction="ltr" dominant-baseline="text-before-edge">memmap</text></g><g transform="translate(545.4975699945843 10) rotate(0 49.154212951660156 17.5)"><text x="0" y="0" font-family="Virgil, Segoe UI Emoji" font-size="28px" fill="#15aabf" text-anchor="start" style="white-space: pre;" direction="ltr" dominant-baseline="text-before-edge">Thread</text></g><g transform="translate(1020.6062378032007 167.19896819726102) rotate(0 114.59048461914062 17.5)"><text x="0" y="0" font-family="Virgil, Segoe UI Emoji" font-size="28px" fill="#15aabf" text-anchor="start" style="white-space: pre;" direction="ltr" dominant-baseline="text-before-edge">Child Thread #0</text></g><g transform="translate(1018.7370687339685 379.3022673013843) rotate(0 113.97447967529297 17.5)"><text x="0" y="0" font-family="Virgil, Segoe UI Emoji" font-size="28px" fill="#15aabf" text-anchor="start" style="white-space: pre;" direction="ltr" dominant-baseline="text-before-edge">Child Thread #N</text></g><g stroke-linecap="round" transform="translate(901.1761235968286 410.3639641791187) rotate(0 26.49096310434004 8.421016478679832)"><path d="M4.21 0 C23.45 2.14, 34.37 0.85, 48.77 0 C49.35 -0.09, 53.33 0.21, 52.98 4.21 C53.02 8.15, 52.18 10.21, 52.98 12.63 C49.99 17.27, 48.91 13.54, 48.77 16.84 C32.06 17.56, 23.31 16.92, 4.21 16.84 C2.08 13.48, 1.8 18.12, 0 12.63 C-0.26 11.05, -0.4 8.93, 0 4.21 C0.68 4.86, -0.2 -2.23, 4.21 0" stroke="none" stroke-width="0" fill="#99e9f2"></path><path d="M4.21 0 C18.69 -0.73, 34.66 -1.49, 48.77 0 M4.21 0 C13.87 0.95, 22.61 1.14, 48.77 0 M48.77 0 C50.73 0.47, 51.47 2.54, 52.98 4.21 M48.77 0 C51.66 1.57, 53.28 2.6, 52.98 4.21 M52.98 4.21 C53.15 5.5, 53.55 8.42, 52.98 12.63 M52.98 4.21 C53.41 7.01, 52.91 9.86, 52.98 12.63 M52.98 12.63 C51.4 14.89, 53.56 16.33, 48.77 16.84 M52.98 12.63 C53.26 17.45, 51.46 19.02, 48.77 16.84 M48.77 16.84 C36 16.79, 20.31 17.26, 4.21 16.84 M48.77 16.84 C32.45 16.08, 15.79 16.8, 4.21 16.84 M4.21 16.84 C0.77 16.29, 1.08 14.86, 0 12.63 M4.21 16.84 C3.49 15.07, -1.13 13.76, 0 12.63 M0 12.63 C-0.44 10.89, -0.3 8.49, 0 4.21 M0 12.63 C-0.23 9.63, -0.38 6.3, 0 4.21 M0 4.21 C-0.22 2.28, -0.48 0.16, 4.21 0 M0 4.21 C-1.77 1.07, 0.8 0.43, 4.21 0" stroke="#15aabf" stroke-width="1" fill="none"></path></g><g stroke-linecap="round" transform="translate(896.8734265262299 410.10166674299506) rotate(0 5.170761689318624 7.980337787952777)"><path d="M4.12 0.38 C5.06 0, 6.18 0.48, 7.15 1.13 C8.12 1.78, 9.38 2.69, 9.93 4.25 C10.48 5.82, 10.69 8.72, 10.46 10.52 C10.23 12.33, 9.57 14.19, 8.55 15.07 C7.52 15.95, 5.45 16.12, 4.33 15.82 C3.21 15.51, 2.6 14.39, 1.82 13.22 C1.04 12.06, -0.28 10.45, -0.37 8.84 C-0.47 7.22, 0.45 4.91, 1.26 3.54 C2.06 2.17, 3.96 1.17, 4.48 0.63 C5 0.09, 4.41 0.18, 4.4 0.31 M5.68 -0.35 C6.74 -0.18, 8.89 1.44, 9.6 2.78 C10.3 4.13, 9.99 6.17, 9.88 7.71 C9.77 9.25, 9.49 10.59, 8.94 12.02 C8.38 13.44, 7.65 15.71, 6.55 16.26 C5.46 16.82, 3.44 16.2, 2.35 15.34 C1.25 14.48, 0.36 12.75, 0 11.11 C-0.37 9.47, -0.14 7.17, 0.15 5.5 C0.44 3.84, 0.74 1.91, 1.75 1.13 C2.75 0.34, 5.48 1.02, 6.17 0.79 C6.86 0.57, 6.06 -0.34, 5.89 -0.23" stroke="none" stroke-width="0" fill="#99e9f2"></path><path d="M5.14 -0.02 C6.24 -0.19, 7.94 0.36, 8.84 1.47 C9.74 2.58, 10.4 5.01, 10.55 6.65 C10.7 8.28, 10.3 9.82, 9.75 11.29 C9.21 12.75, 8.29 14.67, 7.26 15.42 C6.23 16.17, 4.56 16.3, 3.55 15.8 C2.54 15.3, 1.87 13.91, 1.21 12.43 C0.55 10.96, -0.41 8.59, -0.4 6.92 C-0.38 5.26, 0.28 3.62, 1.29 2.45 C2.3 1.28, 4.88 0.3, 5.65 -0.11 C6.42 -0.51, 5.97 -0.07, 5.9 0 M5.93 -0.58 C6.89 -0.67, 7.17 0.29, 8 1.38 C8.83 2.47, 10.76 4.3, 10.91 5.96 C11.05 7.63, 9.63 9.66, 8.87 11.37 C8.11 13.09, 7.15 15.55, 6.32 16.26 C5.5 16.96, 4.75 16.32, 3.92 15.61 C3.09 14.9, 1.89 13.63, 1.35 12 C0.81 10.36, 0.63 7.48, 0.69 5.79 C0.76 4.1, 1.11 2.8, 1.75 1.84 C2.4 0.88, 3.96 0.34, 4.56 0.03 C5.16 -0.29, 5.2 -0.24, 5.35 -0.04" stroke="#15aabf" stroke-width="1" fill="none"></path></g><g transform="translate(877.3032924722302 367.9520378752723) rotate(0 47.69819641113281 17.5)"><text x="0" y="0" font-family="Virgil, Segoe UI Emoji" font-size="28px" fill="#15aabf" text-anchor="start" style="white-space: pre;" direction="ltr" dominant-baseline="text-before-edge">channel</text></g><g stroke-linecap="round" transform="translate(1041.5070981012977 212.27181070170997) rotate(0 82.4586309514392 69.55555555555557)"><path d="M32 0 C59.61 2.81, 84.26 -2.35, 132.92 0 C151.58 -0.09, 163.48 9.61, 164.92 32 C161.89 49.09, 160.8 71.35, 164.92 107.11 C165.99 130.58, 156 138.85, 132.92 139.11 C93.47 142.71, 56.31 140.85, 32 139.11 C12.33 140.33, -3.37 131.68, 0 107.11 C1.66 83.76, -1.87 50.65, 0 32 C-0.45 13.91, 7.49 2.76, 32 0" stroke="none" stroke-width="0" fill="#eefcfe"></path><path d="M32 0 C65.2 1.47, 100.03 -1.32, 132.92 0 M32 0 C70.52 -0.31, 108.38 -0.85, 132.92 0 M132.92 0 C153.33 -1.38, 166.3 12.59, 164.92 32 M132.92 0 C153.99 1.68, 163.79 9.06, 164.92 32 M164.92 32 C165.17 61.73, 164.12 89.37, 164.92 107.11 M164.92 32 C164.73 54.24, 165.66 77.64, 164.92 107.11 M164.92 107.11 C164.36 128.82, 154.73 139.03, 132.92 139.11 M164.92 107.11 C165.42 130.69, 156.53 140.29, 132.92 139.11 M132.92 139.11 C98.19 137.76, 59.9 140.46, 32 139.11 M132.92 139.11 C94.24 140.66, 55.9 140.08, 32 139.11 M32 139.11 C10.85 137.98, -1.92 128.12, 0 107.11 M32 139.11 C9.28 140.48, 1.53 128.16, 0 107.11 M0 107.11 C1.82 89.36, -0.02 65.84, 0 32 M0 107.11 C-0.34 82.77, 1.09 59.16, 0 32 M0 32 C0.73 11.76, 11.9 0.92, 32 0 M0 32 C-1.95 10.49, 10.36 -1.68, 32 0" stroke="#15aabf" stroke-width="1" fill="none"></path></g><g stroke-linecap="round" transform="translate(1059.5827799360827 232.68847736837654) rotate(0 29.88874582310575 20.52777777777777)"><path d="M10.26 0 C22.42 -2.89, 31.22 -0.64, 49.51 0 C54.92 -1.06, 58.44 1.06, 59.78 10.26 C56.33 14.73, 60.63 21.6, 59.78 30.79 C61.52 37.37, 59.04 40.26, 49.51 41.06 C33.87 41.91, 21.86 42.72, 10.26 41.06 C0.05 44.29, 1.97 36.87, 0 30.79 C-2.3 23.17, -0.6 25.17, 0 10.26 C-3.18 6.18, 2.33 -3.27, 10.26 0" stroke="none" stroke-width="0" fill="#fff4e6"></path><path d="M10.26 0 C23.28 -1.65, 35.03 1.06, 49.51 0 M10.26 0 C21.38 -0.68, 33.96 -0.6, 49.51 0 M49.51 0 C57.74 1.92, 59.55 4.88, 59.78 10.26 M49.51 0 C55.23 -1.61, 61.88 1.2, 59.78 10.26 M59.78 10.26 C59.81 13.73, 59.91 19.43, 59.78 30.79 M59.78 10.26 C60.78 18.82, 59.51 26.87, 59.78 30.79 M59.78 30.79 C60.26 37.56, 56.79 43, 49.51 41.06 M59.78 30.79 C62.06 38.82, 57.56 41.93, 49.51 41.06 M49.51 41.06 C38.34 42.9, 32.59 40.07, 10.26 41.06 M49.51 41.06 C34.53 41.35, 18.91 40.74, 10.26 41.06 M10.26 41.06 C1.5 40.73, -1.21 38.83, 0 30.79 M10.26 41.06 C4.95 40.77, -0.87 38.09, 0 30.79 M0 30.79 C-0.08 24.19, 0.25 19.67, 0 10.26 M0 30.79 C0.67 23.64, 0.56 15.96, 0 10.26 M0 10.26 C1.23 4.34, 1.73 -0.16, 10.26 0 M0 10.26 C-0.31 1.74, 2.44 0.06, 10.26 0" stroke="#fd7e14" stroke-width="1" fill="none"></path></g><g stroke-linecap="round" transform="translate(1061.9049849904109 284.91624942352286) rotate(0 28.60544682556042 23.694444444444457)"><path d="M11.85 0 C23.7 -2.12, 32.83 -0.54, 45.36 0 C55.54 1.31, 57.39 4.28, 57.21 11.85 C54.63 19.77, 59.19 22.94, 57.21 35.54 C55.86 44.15, 50.78 50.93, 45.36 47.39 C32.85 43.89, 21.38 43.4, 11.85 47.39 C3.61 49.11, 1.93 44.75, 0 35.54 C-3.31 26.85, -0.75 16.09, 0 11.85 C-1.54 4.04, 3.98 1.65, 11.85 0" stroke="none" stroke-width="0" fill="#e6fcf5"></path><path d="M11.85 0 C25.94 1.57, 36.85 -0.07, 45.36 0 M45.36 0 C52.8 -1.92, 55.66 3.03, 57.21 11.85 M57.21 11.85 C57.15 18.78, 56.4 21.4, 57.21 35.54 M57.21 35.54 C59.04 41.51, 52.06 48.37, 45.36 47.39 M45.36 47.39 C34.81 46.47, 26.2 47.27, 11.85 47.39 M11.85 47.39 C3.14 49.38, 0.7 42.89, 0 35.54 M0 35.54 C0.38 29.94, 1.93 21.47, 0 11.85 M0 11.85 C1.05 4.71, 2.69 0.84, 11.85 0" stroke="#12b886" stroke-width="1.5" fill="none" stroke-dasharray="8 9"></path></g><g stroke-linecap="round" transform="translate(1140.9595368727962 235.75851308518156) rotate(0 25.256145500845946 5.18356416211023)"><path d="M2.59 0 C12.21 -0.75, 22.94 -1.69, 47.92 0 C47.68 -1.54, 48.6 -1.47, 50.51 2.59 C50.86 4.08, 51.04 5.51, 50.51 7.78 C52.42 8.32, 51.28 9.66, 47.92 10.37 C31.37 12.9, 21.12 10.02, 2.59 10.37 C-1.32 11.36, 2.37 7.94, 0 7.78 C-0.59 7.2, -0.2 4.97, 0 2.59 C-1.57 0.04, 1.36 0.78, 2.59 0" stroke="none" stroke-width="0" fill="#fff0f6"></path><path d="M2.59 0 C13.15 -0.3, 23.32 -1.11, 47.92 0 M2.59 0 C13.03 0.64, 22.72 0.52, 47.92 0 M47.92 0 C49.16 -0.7, 51.43 -0.1, 50.51 2.59 M47.92 0 C48.96 0.56, 50.69 0.82, 50.51 2.59 M50.51 2.59 C50.77 3.78, 50.41 5.2, 50.51 7.78 M50.51 2.59 C50.54 4.32, 50.53 6.19, 50.51 7.78 M50.51 7.78 C51.51 10.02, 50.17 10.75, 47.92 10.37 M50.51 7.78 C49.79 9.99, 49.24 9.29, 47.92 10.37 M47.92 10.37 C30.72 10.29, 12.34 10.64, 2.59 10.37 M47.92 10.37 C33.62 10.16, 19.98 10.54, 2.59 10.37 M2.59 10.37 C1.53 10.24, -0.38 9.7, 0 7.78 M2.59 10.37 C0.07 11.5, 1.13 9.58, 0 7.78 M0 7.78 C0.19 6.46, -0.03 5.75, 0 2.59 M0 7.78 C0.07 6, -0.12 4.1, 0 2.59 M0 2.59 C-0.14 0.13, 0.44 0.03, 2.59 0 M0 2.59 C0.01 1.39, 1.77 0.11, 2.59 0" stroke="#e64980" stroke-width="1" fill="none"></path></g><g stroke-linecap="round" transform="translate(1142.2241593312633 262.89112439508216) rotate(0 6.756391242826226 5.133796856757527)"><path d="M2.57 0 C4.66 -0.68, 6.73 -0.61, 10.95 0 C10.74 -2.33, 13.41 1.63, 13.51 2.57 C14.04 4.26, 14.04 5.95, 13.51 7.7 C15.15 8.7, 12.95 11.47, 10.95 10.27 C8.74 10.13, 4.43 10.78, 2.57 10.27 C3.23 8.71, -2.3 9.08, 0 7.7 C-0.14 5.09, -0.34 3.48, 0 2.57 C0.5 1.63, 1.4 0.46, 2.57 0" stroke="none" stroke-width="0" fill="#e7f5ff"></path><path d="M2.57 0 C5.55 -0.4, 8.39 -0.19, 10.95 0 M2.57 0 C4.48 0.11, 6.34 -0.19, 10.95 0 M10.95 0 C13.57 -0.97, 12.91 1.34, 13.51 2.57 M10.95 0 C12.84 -0.04, 12.67 0.87, 13.51 2.57 M13.51 2.57 C13.43 4.19, 13.63 5.23, 13.51 7.7 M13.51 2.57 C13.55 4.33, 13.65 5.91, 13.51 7.7 M13.51 7.7 C14.04 9.79, 12.03 10.69, 10.95 10.27 M13.51 7.7 C13.1 8.33, 13.8 11.23, 10.95 10.27 M10.95 10.27 C9.05 10.42, 6.64 10.31, 2.57 10.27 M10.95 10.27 C8.78 10.39, 7 10.23, 2.57 10.27 M2.57 10.27 C0.48 10.47, -0.69 10.39, 0 7.7 M2.57 10.27 C1.98 10.34, -1.07 9.67, 0 7.7 M0 7.7 C-0.04 6.7, 0.12 5.55, 0 2.57 M0 7.7 C-0.12 5.87, -0.03 3.96, 0 2.57 M0 2.57 C-0.43 0.88, 0.87 0.46, 2.57 0 M0 2.57 C0.9 0.97, 0.11 -0.85, 2.57 0" stroke="#228be6" stroke-width="1" fill="none"></path></g><g stroke-linecap="round" transform="translate(1160.143466325519 262.9072418425116) rotate(0 6.05685476625024 4.993889561442359)"><path d="M2.5 0 C3.72 -0.49, 5.67 -0.77, 9.62 0 C11.18 0.78, 13.65 2.09, 12.11 2.5 C12.64 3.66, 12.57 5.24, 12.11 7.49 C12.41 10.35, 12.16 7.55, 9.62 9.99 C6.06 10.32, 4.91 9.41, 2.5 9.99 C-1.47 9.66, 2.34 6.86, 0 7.49 C-0.37 5.41, 0.14 3.92, 0 2.5 C0.55 1.29, 2.68 1.48, 2.5 0" stroke="none" stroke-width="0" fill="#e7f5ff"></path><path d="M2.5 0 C4.25 -0.13, 6.31 0.28, 9.62 0 M2.5 0 C5.23 -0.15, 8.3 -0.2, 9.62 0 M9.62 0 C10.68 0.49, 12.27 0.8, 12.11 2.5 M9.62 0 C10.44 0.02, 11.72 1.98, 12.11 2.5 M12.11 2.5 C12.19 3.96, 12.15 5.62, 12.11 7.49 M12.11 2.5 C12.24 4.04, 12.18 5.5, 12.11 7.49 M12.11 7.49 C11.48 9.58, 10.92 9.05, 9.62 9.99 M12.11 7.49 C13.26 10.11, 10.8 11.03, 9.62 9.99 M9.62 9.99 C7.49 10.03, 5.12 9.66, 2.5 9.99 M9.62 9.99 C7.71 9.99, 5.51 10.04, 2.5 9.99 M2.5 9.99 C0.14 10.97, 0.98 9.22, 0 7.49 M2.5 9.99 C-0.24 10.25, -0.94 10.01, 0 7.49 M0 7.49 C0.14 6.56, 0.14 5.6, 0 2.5 M0 7.49 C0 5.67, -0.03 4.04, 0 2.5 M0 2.5 C0.01 1.29, 1.62 0.1, 2.5 0 M0 2.5 C-0.75 -0.02, 0.8 -0.46, 2.5 0" stroke="#228be6" stroke-width="1" fill="none"></path></g><g stroke-linecap="round" transform="translate(1177.6803859337765 262.51378518846724) rotate(0 6.336669356880634 5.553518742702977)"><path d="M2.78 0 C3.76 -0.78, 6.08 0.33, 9.9 0 C13.29 1.26, 12.48 2.87, 12.67 2.78 C13.18 4.12, 12.81 6.2, 12.67 8.33 C13.56 7.75, 14.08 12.53, 9.9 11.11 C8.76 10.59, 5.11 11.03, 2.78 11.11 C3.27 8.81, 1.99 9.39, 0 8.33 C0.18 7.38, 0.2 6.13, 0 2.78 C1.85 2.4, 1.04 0.72, 2.78 0" stroke="none" stroke-width="0" fill="#e7f5ff"></path><path d="M2.78 0 C3.98 0.26, 6.03 -0.02, 9.9 0 M2.78 0 C5.6 -0.15, 7.98 0.11, 9.9 0 M9.9 0 C11.9 -0.04, 11.94 0.94, 12.67 2.78 M9.9 0 C11.36 1.15, 12.75 0.46, 12.67 2.78 M12.67 2.78 C12.74 5.06, 12.67 7.27, 12.67 8.33 M12.67 2.78 C12.77 5.04, 12.61 7.25, 12.67 8.33 M12.67 8.33 C12.31 9.24, 12.74 11.94, 9.9 11.11 M12.67 8.33 C12.19 11.23, 11.77 11.83, 9.9 11.11 M9.9 11.11 C7.3 10.77, 5.05 10.9, 2.78 11.11 M9.9 11.11 C7.27 11.14, 4.65 11.28, 2.78 11.11 M2.78 11.11 C1.9 11.17, -0.93 10.41, 0 8.33 M2.78 11.11 C-0.01 11.97, -1.1 10.07, 0 8.33 M0 8.33 C0.14 6.57, 0.11 4.23, 0 2.78 M0 8.33 C-0.06 6.71, 0.01 5.15, 0 2.78 M0 2.78 C0.78 1.02, 0.28 -0.74, 2.78 0 M0 2.78 C-0.03 0.47, 0.59 -0.43, 2.78 0" stroke="#228be6" stroke-width="1" fill="none"></path></g><g stroke-linecap="round" transform="translate(1143.6637645641108 293.86641865479186) rotate(0 25.30983358709568 4.9289845234962115)"><path d="M2.46 0 C13.36 1.31, 25.99 1.79, 48.16 0 C49.61 1.94, 50.05 2.73, 50.62 2.46 C50.73 4.01, 50.88 4.37, 50.62 7.39 C52.95 10.46, 49.25 7.67, 48.16 9.86 C30.4 9.17, 19.59 7.21, 2.46 9.86 C2.81 9.07, -2.36 7.47, 0 7.39 C0.12 6.18, 0.44 5.11, 0 2.46 C0.12 1.54, 2.46 0.47, 2.46 0" stroke="none" stroke-width="0" fill="#e6fcf5"></path><path d="M2.46 0 C15.03 -0.27, 26.4 -0.65, 48.16 0 M2.46 0 C12.67 0.47, 23.56 0.2, 48.16 0 M48.16 0 C49.07 0.02, 50.28 1.82, 50.62 2.46 M48.16 0 C49.87 -0.46, 51.76 1.22, 50.62 2.46 M50.62 2.46 C50.61 3.86, 50.86 5.39, 50.62 7.39 M50.62 2.46 C50.55 4.25, 50.59 5.81, 50.62 7.39 M50.62 7.39 C51.61 9.87, 49.38 10.77, 48.16 9.86 M50.62 7.39 C50.64 9.76, 50.22 9.91, 48.16 9.86 M48.16 9.86 C33.87 9.04, 20.51 10.3, 2.46 9.86 M48.16 9.86 C34.68 10.39, 22.38 9.93, 2.46 9.86 M2.46 9.86 C-0.11 10.09, -0.82 9.78, 0 7.39 M2.46 9.86 C-0.27 9.75, 0.55 9.65, 0 7.39 M0 7.39 C0.1 5.53, -0.03 4.04, 0 2.46 M0 7.39 C0.01 6.33, 0.11 5.17, 0 2.46 M0 2.46 C-0.65 0.08, 0.8 -0.4, 2.46 0 M0 2.46 C-0.34 0.39, 0.07 -0.87, 2.46 0" stroke="#12b886" stroke-width="1" fill="none"></path></g><g stroke-linecap="round" transform="translate(1144.923652448313 312.74463956743983) rotate(0 24.55900062981891 4.28154724352251)"><path d="M2.14 0 C13.11 1.09, 20.81 1.77, 46.98 0 C47.83 1.91, 47.94 2.35, 49.12 2.14 C49.31 2.79, 49.62 4.78, 49.12 6.42 C48.57 5.66, 49.4 10.93, 46.98 8.56 C38.56 6.2, 27.45 7.7, 2.14 8.56 C-1.65 6.99, -0.82 8.35, 0 6.42 C0.38 5.33, 0.01 3.75, 0 2.14 C1.63 1.18, 3.07 1.99, 2.14 0" stroke="none" stroke-width="0" fill="#e6fcf5"></path><path d="M2.14 0 C19.43 -0.46, 34.56 0.94, 46.98 0 M2.14 0 C11.33 -0.13, 20 -0.1, 46.98 0 M46.98 0 C48.07 1, 49.18 0.31, 49.12 2.14 M46.98 0 C49.55 0.4, 48.8 0.93, 49.12 2.14 M49.12 2.14 C49.33 3.74, 49.23 5.03, 49.12 6.42 M49.12 2.14 C49.07 3.49, 49.21 5.12, 49.12 6.42 M49.12 6.42 C48.7 8.76, 48.42 9.2, 46.98 8.56 M49.12 6.42 C49.54 7.91, 48.51 7.91, 46.98 8.56 M46.98 8.56 C38.43 9.09, 28.56 8.05, 2.14 8.56 M46.98 8.56 C33.13 8.82, 17.83 8.9, 2.14 8.56 M2.14 8.56 C-0.1 9.31, -0.95 7.76, 0 6.42 M2.14 8.56 C1.26 9.18, 0.42 8.48, 0 6.42 M0 6.42 C-0.03 4.85, -0.17 3.23, 0 2.14 M0 6.42 C0.08 5.14, -0.07 3.75, 0 2.14 M0 2.14 C-0.02 0.31, 0.42 -0.37, 2.14 0 M0 2.14 C-0.75 -0.16, 0.03 -0.85, 2.14 0" stroke="#12b886" stroke-width="1" fill="none"></path></g><g stroke-linecap="round"><g transform="translate(963.9153399072557 419.6425520030438) rotate(0 12.904331233885046 0)"><path d="M0.49 -0.2 C4.89 -0.2, 21.58 0.45, 25.89 0.52 M0.08 -0.78 C4.46 -0.69, 21.13 -0.18, 25.49 -0.18" stroke="#15aabf" stroke-width="1" fill="none"></path></g></g><mask></mask><g stroke-linecap="round"><g transform="translate(990.0743704453705 281.93756593885934) rotate(0 -0.12178380298757929 106.22128556355133)"><path d="M0.61 -1.15 C0.9 34.2, 0.99 176.29, 0.67 212.04 M-0.53 0.87 C-0.23 36.39, -0.06 178.26, 0.2 213.36" stroke="#15aabf" stroke-width="1" fill="none"></path></g></g><mask></mask><g stroke-linecap="round"><g transform="translate(991.7669078800288 281.75494759029766) rotate(0 17.477431627047963 -0.08828131544481721)"><path d="M-0.46 0.3 C5.43 0.26, 28.98 0.27, 34.9 0.21 M0.31 -0.02 C6.16 0.02, 28.7 -0.66, 34.44 -0.56" stroke="#15aabf" stroke-width="1" fill="none"></path></g><g transform="translate(991.7669078800288 281.75494759029766) rotate(0 17.477431627047963 -0.08828131544481721)"><path d="M18.07 5.57 C22.12 4.21, 25.85 3.13, 34.44 -0.56 M18.07 5.57 C23.13 3.52, 28.56 1.86, 34.44 -0.56" stroke="#15aabf" stroke-width="1" fill="none"></path></g><g transform="translate(991.7669078800288 281.75494759029766) rotate(0 17.477431627047963 -0.08828131544481721)"><path d="M17.96 -6.38 C22.09 -5.12, 25.84 -3.57, 34.44 -0.56 M17.96 -6.38 C23.1 -4.64, 28.56 -2.49, 34.44 -0.56" stroke="#15aabf" stroke-width="1" fill="none"></path></g></g><mask></mask><g stroke-linecap="round"><g transform="translate(991.2245431271917 494.4461788589208) rotate(0 17.71145866540712 0.028705903438833502)"><path d="M0.05 0.41 C5.83 0.45, 29.23 0.12, 35.14 0.05 M-0.59 0.15 C5.33 0.29, 30.26 0.68, 36.23 0.75" stroke="#15aabf" stroke-width="1" fill="none"></path></g><g transform="translate(991.2245431271917 494.4461788589208) rotate(0 17.71145866540712 0.028705903438833502)"><path d="M19.51 6.58 C26.63 3.87, 32.41 2.24, 36.23 0.75 M19.51 6.58 C24.32 4.62, 29.24 2.89, 36.23 0.75" stroke="#15aabf" stroke-width="1" fill="none"></path></g><g transform="translate(991.2245431271917 494.4461788589208) rotate(0 17.71145866540712 0.028705903438833502)"><path d="M19.68 -5.54 C26.72 -3.57, 32.43 -0.53, 36.23 0.75 M19.68 -5.54 C24.39 -4.06, 29.26 -2.36, 36.23 0.75" stroke="#15aabf" stroke-width="1" fill="none"></path></g></g><mask></mask><g stroke-linecap="round"><g transform="translate(888.8494191042225 418.41088706521265) rotate(0 -15.977002902160393 -0.08123853726834795)"><path d="M-0.13 -0.42 C-5.6 -0.35, -27.04 0.06, -32.4 0.15 M0.81 0.56 C-4.54 0.49, -26.07 -0.43, -31.4 -0.65" stroke="#15aabf" stroke-width="1" fill="none"></path></g><g transform="translate(888.8494191042225 418.41088706521265) rotate(0 -15.977002902160393 -0.08123853726834795)"><path d="M-16.17 -5.48 C-22.61 -4.3, -27.38 -2.31, -31.4 -0.65 M-16.17 -5.48 C-21.63 -4.08, -26.72 -2.19, -31.4 -0.65" stroke="#15aabf" stroke-width="1" fill="none"></path></g><g transform="translate(888.8494191042225 418.41088706521265) rotate(0 -15.977002902160393 -0.08123853726834795)"><path d="M-16.62 5.44 C-22.87 2.44, -27.46 0.25, -31.4 -0.65 M-16.62 5.44 C-21.92 2.98, -26.85 1.02, -31.4 -0.65" stroke="#15aabf" stroke-width="1" fill="none"></path></g></g><mask></mask><g transform="translate(696.539119879033 78.91467700655119) rotate(0 31.612136840820312 17.5)"><text x="0" y="0" font-family="Virgil, Segoe UI Emoji" font-size="28px" fill="#e64980" text-anchor="start" style="white-space: pre;" direction="ltr" dominant-baseline="text-before-edge">Heap</text></g><g transform="translate(689.5605834232681 184.98843113418036) rotate(0 41.32817840576172 17.5)"><text x="0" y="0" font-family="Virgil, Segoe UI Emoji" font-size="28px" fill="#228be6" text-anchor="start" style="white-space: pre;" direction="ltr" dominant-baseline="text-before-edge">State</text></g><g stroke-opacity="0.5" fill-opacity="0.5" transform="translate(1000.489463449034 588.7669049922648) rotate(0 114.40805053710938 22.5)"><text x="0" y="0" font-family="Virgil, Segoe UI Emoji" font-size="36px" fill="#f08c00" text-anchor="start" style="white-space: pre;" direction="ltr" dominant-baseline="text-before-edge">@hemashushu</text></g><g stroke-linecap="round" transform="translate(1045.1016392359684 422.38345249613224) rotate(0 82.4586309514392 69.5555555555556)"><path d="M32 0 C66.72 -4.33, 106.93 1.89, 132.92 0 C155.04 3.46, 163.35 9.15, 164.92 32 C162.36 52.94, 163.9 71.29, 164.92 107.11 C162.49 126.13, 153.51 137.29, 132.92 139.11 C96.48 137.38, 70.49 134.85, 32 139.11 C12.55 135.79, -3 127.06, 0 107.11 C2.1 78.77, 2.53 46.91, 0 32 C2.98 14.12, 7.79 -0.72, 32 0" stroke="none" stroke-width="0" fill="#eefcfe"></path><path d="M32 0 C63.83 -0.09, 98.96 1.4, 132.92 0 M32 0 C65.27 1.1, 99.8 0.1, 132.92 0 M132.92 0 C152.53 0.96, 165.75 10.36, 164.92 32 M132.92 0 C153.22 1.62, 166.75 12.47, 164.92 32 M164.92 32 C164.85 50.33, 166 68.74, 164.92 107.11 M164.92 32 C163.83 56.18, 165.39 79.34, 164.92 107.11 M164.92 107.11 C164.38 130.09, 153.17 139.45, 132.92 139.11 M164.92 107.11 C163.06 126.83, 154.98 138.92, 132.92 139.11 M132.92 139.11 C95.77 138.23, 54.17 138.26, 32 139.11 M132.92 139.11 C98.61 139.4, 65.74 139.72, 32 139.11 M32 139.11 C11.66 138.54, -0.84 129.31, 0 107.11 M32 139.11 C11.96 137.22, -0.41 126.77, 0 107.11 M0 107.11 C0.32 78.58, 0.16 48.02, 0 32 M0 107.11 C0.28 78.47, -0.32 52.4, 0 32 M0 32 C0.15 12.43, 8.91 -0.22, 32 0 M0 32 C-2.29 11.42, 10.49 -0.45, 32 0" stroke="#15aabf" stroke-width="1" fill="none"></path></g><g stroke-linecap="round" transform="translate(1063.177321070753 442.80011916279886) rotate(0 29.88874582310575 20.52777777777777)"><path d="M10.26 0 C23.75 3.4, 38.14 4.14, 49.51 0 C54.79 -1.51, 57.53 2.5, 59.78 10.26 C58.87 19.26, 57.12 18.77, 59.78 30.79 C59.04 35.81, 57.3 37.9, 49.51 41.06 C42.99 37.48, 31.54 37.56, 10.26 41.06 C0.42 39.67, 3.53 38.33, 0 30.79 C2.55 22.85, 2.73 19.18, 0 10.26 C-2.88 2.7, 6.95 -1.12, 10.26 0" stroke="none" stroke-width="0" fill="#fff4e6"></path><path d="M10.26 0 C25.57 1.81, 38.26 -1.72, 49.51 0 M10.26 0 C19.64 -0.85, 26.3 0.39, 49.51 0 M49.51 0 C57.19 -0.31, 58.88 4.83, 59.78 10.26 M49.51 0 C58.19 1.81, 58.52 3.7, 59.78 10.26 M59.78 10.26 C60.75 17.22, 60.08 24.08, 59.78 30.79 M59.78 10.26 C60.18 14.54, 59.31 19.85, 59.78 30.79 M59.78 30.79 C58.7 37.98, 54.74 39.66, 49.51 41.06 M59.78 30.79 C60.51 37.45, 58.21 43.33, 49.51 41.06 M49.51 41.06 C32.71 39.08, 20.48 38.82, 10.26 41.06 M49.51 41.06 C39.67 42.31, 29.43 41.03, 10.26 41.06 M10.26 41.06 C2.58 41.92, 1.13 35.99, 0 30.79 M10.26 41.06 C3.01 39.38, 1.93 35.98, 0 30.79 M0 30.79 C-0.36 21.57, 1.44 15.29, 0 10.26 M0 30.79 C-0.36 27.49, 0.01 23.12, 0 10.26 M0 10.26 C-1.76 3.2, 1.43 0.65, 10.26 0 M0 10.26 C-0.18 2.98, 5.07 0.32, 10.26 0" stroke="#fd7e14" stroke-width="1" fill="none"></path></g><g stroke-linecap="round" transform="translate(1065.499526125081 495.02789121794524) rotate(0 28.60544682556042 23.694444444444457)"><path d="M11.85 0 C20.35 -2.94, 24.97 -1.28, 45.36 0 C55.66 1.63, 60.79 5.73, 57.21 11.85 C59.06 15.31, 56.39 22.09, 57.21 35.54 C60.22 40.86, 56.1 46.99, 45.36 47.39 C37.36 47.04, 20.97 48.04, 11.85 47.39 C1.06 46.32, 3.49 43.7, 0 35.54 C-3.21 27.51, 0.1 16.44, 0 11.85 C2.58 4.45, 5.57 -2.77, 11.85 0" stroke="none" stroke-width="0" fill="#e6fcf5"></path><path d="M11.85 0 C23.2 -1.96, 31.61 -0.65, 45.36 0 M45.36 0 C53.74 1.86, 55.69 2.23, 57.21 11.85 M57.21 11.85 C56.41 21.5, 58.91 29.91, 57.21 35.54 M57.21 35.54 C56.12 43.68, 54.16 47.23, 45.36 47.39 M45.36 47.39 C35.8 47.03, 23.87 45.45, 11.85 47.39 M11.85 47.39 C4.87 48.59, -0.22 42.9, 0 35.54 M0 35.54 C-1.49 25.09, 0.77 17.27, 0 11.85 M0 11.85 C1.61 5.93, 5.52 1.26, 11.85 0" stroke="#12b886" stroke-width="1.5" fill="none" stroke-dasharray="8 9"></path></g><g stroke-linecap="round" transform="translate(1144.5540780074666 445.8701548796039) rotate(0 25.256145500845946 5.183564162110201)"><path d="M2.59 0 C18.47 -1.66, 35 -1.23, 47.92 0 C48.7 -1.6, 52.74 0.38, 50.51 2.59 C50.33 4.32, 50.64 6.14, 50.51 7.78 C49.29 6.96, 49.02 12.83, 47.92 10.37 C36.44 8.82, 31.84 10.32, 2.59 10.37 C2.6 12.07, 1.12 11.52, 0 7.78 C-0.59 6.14, 0.6 4.57, 0 2.59 C-1.18 3.3, -1.29 -0.53, 2.59 0" stroke="none" stroke-width="0" fill="#fff0f6"></path><path d="M2.59 0 C19.63 0.02, 38.61 1.12, 47.92 0 M2.59 0 C12.96 -0.19, 22.68 0.24, 47.92 0 M47.92 0 C50.45 0.79, 49.97 0.98, 50.51 2.59 M47.92 0 C50.17 -0.09, 50.45 1.43, 50.51 2.59 M50.51 2.59 C50.29 3.87, 50.64 5.79, 50.51 7.78 M50.51 2.59 C50.44 4.11, 50.4 5.5, 50.51 7.78 M50.51 7.78 C50.83 9.42, 50.45 11.36, 47.92 10.37 M50.51 7.78 C51.42 10.23, 48.68 9.25, 47.92 10.37 M47.92 10.37 C37.67 9.66, 28.84 10.6, 2.59 10.37 M47.92 10.37 C29.6 10.52, 11.99 9.89, 2.59 10.37 M2.59 10.37 C0.69 9.64, 0.84 8.79, 0 7.78 M2.59 10.37 C1.77 10.24, 0.17 9.29, 0 7.78 M0 7.78 C-0.26 6.67, -0.23 5.34, 0 2.59 M0 7.78 C-0.12 5.7, -0.13 3.7, 0 2.59 M0 2.59 C-0.08 0.67, 1.58 0.14, 2.59 0 M0 2.59 C0.52 -0.02, -0.26 -0.02, 2.59 0" stroke="#e64980" stroke-width="1" fill="none"></path></g><g stroke-linecap="round" transform="translate(1145.8187004659335 473.00276618950454) rotate(0 6.756391242826226 5.133796856757499)"><path d="M2.57 0 C5.21 -0.23, 8.81 -0.62, 10.95 0 C14.88 -0.49, 16.1 -0.9, 13.51 2.57 C13.67 3.19, 13.18 4.33, 13.51 7.7 C12.88 11.87, 10.2 11.62, 10.95 10.27 C10.27 10.43, 8.19 10.94, 2.57 10.27 C1.98 12.28, -0.3 11.56, 0 7.7 C0.71 5.46, -0.25 4.26, 0 2.57 C-2.16 0.32, 2.41 0.95, 2.57 0" stroke="none" stroke-width="0" fill="#e7f5ff"></path><path d="M2.57 0 C4.49 0.4, 5.9 -0.35, 10.95 0 M2.57 0 C5.39 0.15, 8.57 0.17, 10.95 0 M10.95 0 C12.11 0.12, 13.96 0.78, 13.51 2.57 M10.95 0 C12.6 0.57, 13.44 1.04, 13.51 2.57 M13.51 2.57 C13.61 4.17, 13.46 5.4, 13.51 7.7 M13.51 2.57 C13.4 4.44, 13.54 6.48, 13.51 7.7 M13.51 7.7 C14.32 10.4, 13.44 10.9, 10.95 10.27 M13.51 7.7 C12.55 8.3, 11.71 10.67, 10.95 10.27 M10.95 10.27 C9.51 10.44, 7.94 10.45, 2.57 10.27 M10.95 10.27 C8.79 10.11, 6.36 10.13, 2.57 10.27 M2.57 10.27 C1.69 9.55, 0.79 9.3, 0 7.7 M2.57 10.27 C1.02 10.05, -0.83 10.22, 0 7.7 M0 7.7 C-0.18 6.07, 0.27 4.62, 0 2.57 M0 7.7 C-0.11 5.75, 0.01 3.69, 0 2.57 M0 2.57 C0.72 1, 1.31 -0.77, 2.57 0 M0 2.57 C-1.12 0.84, 1.72 0.25, 2.57 0" stroke="#228be6" stroke-width="1" fill="none"></path></g><g stroke-linecap="round" transform="translate(1163.7380074601892 473.018883636934) rotate(0 6.05685476625024 4.993889561442359)"><path d="M2.5 0 C4 -0.55, 6.96 -0.15, 9.62 0 C13.87 -1.75, 10.44 0.3, 12.11 2.5 C11.82 3.11, 11.97 5.6, 12.11 7.49 C9.66 10.51, 8.88 7.82, 9.62 9.99 C8.37 10.61, 6.29 10.72, 2.5 9.99 C0.54 12.14, 2.49 7.08, 0 7.49 C-0.36 6.7, -0.6 4.56, 0 2.5 C1.56 1.78, -0.06 -1.3, 2.5 0" stroke="none" stroke-width="0" fill="#e7f5ff"></path><path d="M2.5 0 C4.25 -0.34, 6.71 0.11, 9.62 0 M2.5 0 C4.67 0.11, 6.45 0, 9.62 0 M9.62 0 C11.73 -0.08, 12.06 1.33, 12.11 2.5 M9.62 0 C11.21 0.18, 11.92 -0.16, 12.11 2.5 M12.11 2.5 C12.1 3.45, 12.33 4.4, 12.11 7.49 M12.11 2.5 C12.13 4.07, 12.19 5.79, 12.11 7.49 M12.11 7.49 C12.9 9.79, 10.44 9.02, 9.62 9.99 M12.11 7.49 C11.17 9.56, 10.18 9.55, 9.62 9.99 M9.62 9.99 C8.19 10.18, 5.94 9.85, 2.5 9.99 M9.62 9.99 C7.14 9.83, 4.88 9.83, 2.5 9.99 M2.5 9.99 C1.62 9.88, 0.15 8.97, 0 7.49 M2.5 9.99 C0 10.8, 0.03 8.1, 0 7.49 M0 7.49 C0.26 5.86, 0.24 3.97, 0 2.5 M0 7.49 C0.02 6.02, 0.11 4.62, 0 2.5 M0 2.5 C0.45 0.06, -0.14 -0.02, 2.5 0 M0 2.5 C0.87 1.08, 1.94 -0.5, 2.5 0" stroke="#228be6" stroke-width="1" fill="none"></path></g><g stroke-linecap="round" transform="translate(1181.2749270684467 472.6254269828895) rotate(0 6.336669356880634 5.553518742702977)"><path d="M2.78 0 C5.52 -0.12, 7.61 -0.57, 9.9 0 C10.08 -0.53, 11.36 1.61, 12.67 2.78 C12.46 4.64, 11.96 5.51, 12.67 8.33 C10.27 8.01, 10.75 13.66, 9.9 11.11 C8.02 11.88, 5.25 11.93, 2.78 11.11 C3.42 9.03, -0.52 12.73, 0 8.33 C-0.57 6.69, 0.46 5.61, 0 2.78 C-0.89 -0.37, 3.11 1.85, 2.78 0" stroke="none" stroke-width="0" fill="#e7f5ff"></path><path d="M2.78 0 C5.75 0.18, 8.32 -0.13, 9.9 0 M2.78 0 C5.32 -0.01, 8.13 -0.04, 9.9 0 M9.9 0 C11.7 0.5, 12.61 1.08, 12.67 2.78 M9.9 0 C11.55 -1, 11.57 1.45, 12.67 2.78 M12.67 2.78 C12.9 4.62, 12.72 6.55, 12.67 8.33 M12.67 2.78 C12.79 4.19, 12.79 5.42, 12.67 8.33 M12.67 8.33 C11.83 9.21, 10.93 11.46, 9.9 11.11 M12.67 8.33 C11.57 9.75, 11.18 11.87, 9.9 11.11 M9.9 11.11 C7.34 10.97, 5.14 11.33, 2.78 11.11 M9.9 11.11 C8.5 10.95, 6.94 11.06, 2.78 11.11 M2.78 11.11 C1.07 10.92, -0.72 10.89, 0 8.33 M2.78 11.11 C0.95 10.05, 0.35 9.26, 0 8.33 M0 8.33 C0.22 6.59, -0.06 5.05, 0 2.78 M0 8.33 C0.1 6.5, 0.06 4.53, 0 2.78 M0 2.78 C-0.97 0.91, 1.68 0.22, 2.78 0 M0 2.78 C1.1 0.42, 0.44 -0.72, 2.78 0" stroke="#228be6" stroke-width="1" fill="none"></path></g><g stroke-linecap="round" transform="translate(1147.258305698781 503.97806044921424) rotate(0 25.30983358709568 4.928984523496183)"><path d="M2.46 0 C15.95 -1.64, 22.58 -0.42, 48.16 0 C48.48 0.68, 48.34 -0.4, 50.62 2.46 C50 3.8, 50.01 3.92, 50.62 7.39 C49.62 11.59, 50.3 11.6, 48.16 9.86 C31.15 12.47, 17.24 8.24, 2.46 9.86 C0.3 12.41, -0.81 7.86, 0 7.39 C0.44 5.69, -0.17 3.19, 0 2.46 C2.18 2.68, 0.57 -2.4, 2.46 0" stroke="none" stroke-width="0" fill="#e6fcf5"></path><path d="M2.46 0 C12.09 -0.54, 22.73 0.7, 48.16 0 M2.46 0 C19.99 -0.07, 37.04 0.22, 48.16 0 M48.16 0 C49.74 0.16, 50.45 -0.04, 50.62 2.46 M48.16 0 C48.69 0.53, 51.31 0.7, 50.62 2.46 M50.62 2.46 C50.68 3.61, 50.47 5.23, 50.62 7.39 M50.62 2.46 C50.74 3.98, 50.54 5.22, 50.62 7.39 M50.62 7.39 C49.8 9.39, 48.84 9.48, 48.16 9.86 M50.62 7.39 C50.05 9.8, 50.32 11, 48.16 9.86 M48.16 9.86 C32.62 10.32, 15.39 9.58, 2.46 9.86 M48.16 9.86 C38.16 9.64, 27.46 9.6, 2.46 9.86 M2.46 9.86 C0.1 10.56, 0.02 8.12, 0 7.39 M2.46 9.86 C1.17 8.94, -0.34 10.15, 0 7.39 M0 7.39 C-0.05 5.63, 0.06 4.34, 0 2.46 M0 7.39 C0.04 5.92, -0.14 4.63, 0 2.46 M0 2.46 C0.75 1.04, 1.78 -0.44, 2.46 0 M0 2.46 C-0.48 0.1, 0.53 -0.42, 2.46 0" stroke="#12b886" stroke-width="1" fill="none"></path></g><g stroke-linecap="round" transform="translate(1148.5181935829837 522.8562813618622) rotate(0 24.55900062981891 4.281547243522482)"><path d="M2.14 0 C13.08 -0.14, 26.04 1.07, 46.98 0 C46.12 -1.23, 46.58 0.08, 49.12 2.14 C48.55 3.37, 48.85 6.07, 49.12 6.42 C49.62 9.59, 50.11 9.69, 46.98 8.56 C32.55 6.97, 12.61 11.59, 2.14 8.56 C-0.1 7.39, 2.43 5.69, 0 6.42 C-0.22 4.95, 0.43 4.43, 0 2.14 C-0.26 -1.69, -0.7 -2.23, 2.14 0" stroke="none" stroke-width="0" fill="#e6fcf5"></path><path d="M2.14 0 C18.15 0.9, 33.54 -0.44, 46.98 0 M2.14 0 C16.11 0.27, 30.09 0.1, 46.98 0 M46.98 0 C48.23 -0.87, 48.16 1.17, 49.12 2.14 M46.98 0 C49.09 -0.12, 48.81 1.66, 49.12 2.14 M49.12 2.14 C48.97 3.26, 49.1 4.42, 49.12 6.42 M49.12 2.14 C49.04 3.75, 49.05 5.59, 49.12 6.42 M49.12 6.42 C48.16 7.47, 47.91 9.23, 46.98 8.56 M49.12 6.42 C49.64 8.99, 48.97 8.23, 46.98 8.56 M46.98 8.56 C34.59 8.51, 23.13 9.53, 2.14 8.56 M46.98 8.56 C36.82 8.44, 26.15 8.89, 2.14 8.56 M2.14 8.56 C0.74 7.65, 0.3 7.05, 0 6.42 M2.14 8.56 C0.37 9.68, 0.08 8.86, 0 6.42 M0 6.42 C0.07 5.5, -0.04 4.76, 0 2.14 M0 6.42 C-0.11 5.08, 0.07 3.76, 0 2.14 M0 2.14 C0.96 0.28, 0.29 -0.62, 2.14 0 M0 2.14 C-0.29 0.29, 0.01 0.99, 2.14 0" stroke="#12b886" stroke-width="1" fill="none"></path></g></svg>