<?xml version="1.0" encoding="UTF-8" standalone="no"?>
<!-- Created with Inkscape (http://www.inkscape.org/) -->

<svg
   width="512"
   height="512"
   viewBox="0 0 135.46666 135.46667"
   version="1.1"
   id="svg1"
   xmlns:xlink="http://www.w3.org/1999/xlink"
   xmlns="http://www.w3.org/2000/svg"
   xmlns:svg="http://www.w3.org/2000/svg">
  <defs
     id="defs1" />
  <g
     id="layer1">
    <circle
       style="display:inline;fill:none;stroke:#aa4400;stroke-width:1.354;stroke-linecap:square;paint-order:markers fill stroke"
       id="path5"
       cx="67.817802"
       cy="67.817665"
       r="63.108162" />
    <circle
       style="display:none;fill:none;stroke:#ff8080;stroke-width:1.43631;stroke-linecap:square;paint-order:markers fill stroke"
       id="path6"
       cx="-5.9732904"
       cy="95.778404"
       r="54.07795"
       transform="matrix(-0.75017889,0.66123493,0.66123493,0.75017889,0,0)" />
    <circle
       style="display:none;fill:none;stroke:#ff8080;stroke-width:1.87934;stroke-linecap:square;paint-order:markers fill stroke"
       id="path7"
       cx="-65.248138"
       cy="-70.308624"
       r="42.043938"
       transform="rotate(177.87467)" />
    <text
       xml:space="preserve"
       id="text7"
       style="font-style:normal;font-weight:normal;font-size:15.5222px;line-height:1.25;font-family:sans-serif;white-space:pre;display:none;fill:#d38d5f;fill-opacity:1;stroke:none"><textPath
         xlink:href="#path7"
         id="textPath7"
         style="font-style:normal;font-variant:normal;font-weight:900;font-stretch:normal;font-size:15.5222px;font-family:'Noto Sans';-inkscape-font-specification:'Noto Sans Heavy';fill:#d38d5f;stroke:none">XIAOXUAN LANG</textPath></text>
    <text
       xml:space="preserve"
       id="text8"
       style="font-style:normal;font-weight:normal;font-size:25.4px;line-height:1.25;font-family:sans-serif;letter-spacing:5.83406px;white-space:pre;display:none;fill:#d38d5f;fill-opacity:1;stroke:none"><textPath
         xlink:href="#path6"
         id="textPath8"
         style="font-style:normal;font-variant:normal;font-weight:900;font-stretch:normal;font-size:25.4px;font-family:'Noto Sans';-inkscape-font-specification:'Noto Sans Heavy';letter-spacing:5.83406px;fill:#d38d5f">ROCK</textPath></text>
    <path
       style="font-weight:900;font-size:15.5222px;line-height:1.25;font-family:'Noto Sans';-inkscape-font-specification:'Noto Sans Heavy';white-space:pre;fill:#d38d5f"
       d="m 26.49735,58.255764 -0.333092,3.445387 -3.653009,1.814481 3.239258,2.465215 -0.325624,3.368135 -5.285306,-4.206884 -5.725199,2.92409 0.319648,-3.306335 3.607172,-1.662967 -3.229269,-2.245925 0.328611,-3.399036 5.286287,4.035439 z m 2.171041,-6.032852 -1.767416,5.497117 -1.625492,-0.522623 -0.07958,-1.476708 -6.309863,-2.028727 -0.910497,1.158383 -1.625492,-0.522623 1.767416,-5.497117 1.625492,0.522623 0.0648,1.471957 6.309863,2.028728 0.925274,-1.153633 z m 3.966248,-7.548372 -2.073495,-0.567508 -1.797584,3.120413 1.523372,1.522462 -1.64262,2.851411 -7.838357,-8.689327 1.991289,-3.456664 11.472266,2.381252 z m -6.322383,-1.743311 q -0.294292,-0.07997 -0.834778,-0.230102 -0.553935,-0.157885 -1.134771,-0.331266 -0.580836,-0.173382 -0.942379,-0.292088 0.291809,0.239757 0.706277,0.639743 0.422216,0.386536 0.823234,0.778773 0.408767,0.378788 0.685079,0.645445 l 1.333462,1.323492 1.177727,-2.044408 z M 38.480375,29.943288 q 1.204825,1.231667 1.70627,2.543397 0.501686,1.28978 0.146583,2.63598 -0.344007,1.335345 -1.708828,2.670421 -1.331532,1.302512 -2.685228,1.62787 -1.353696,0.325359 -2.665157,-0.19401 -1.300364,-0.530222 -2.505188,-1.761889 -1.204824,-1.231668 -1.684319,-2.543156 -0.490349,-1.322584 -0.124391,-2.657688 0.365957,-1.335103 1.69749,-2.637616 1.353724,-1.324221 2.696324,-1.638725 1.342842,-0.336455 2.63211,0.204622 1.28951,0.519127 2.494334,1.750794 z m -5.448185,5.329447 q 1.052864,1.076322 2.01602,1.328417 0.974253,0.24124 1.828653,-0.594539 0.887688,-0.868341 0.645778,-1.825964 -0.24191,-0.957622 -1.294774,-2.033944 -1.052865,-1.076322 -2.015779,-1.350367 -0.962914,-0.274045 -1.839506,0.583443 -0.876592,0.857487 -0.634925,1.83706 0.241668,0.979573 1.294533,2.055894 z m 19.605267,-7.035668 -3.041901,1.651812 -3.547884,-2.012296 -0.23062,4.064098 -2.973696,1.614775 0.529234,-6.734408 -5.627023,-3.108831 2.919133,-1.585146 3.396662,2.059086 0.05446,-3.933115 3.000978,-1.62959 -0.386592,6.639288 z m 9.456915,-6.74701 q 0.469752,2.042165 -0.416667,3.52027 -0.874772,1.459498 -3.21948,1.998843 -2.238819,0.514987 -3.67971,-0.348137 -1.429244,-0.881731 -1.912914,-2.984405 l -1.510166,-6.565185 2.934668,-0.675051 1.457971,6.338277 q 0.264452,1.149664 0.806321,1.566557 0.556995,0.413414 1.388988,0.222033 0.892502,-0.205299 1.167501,-0.810093 0.286645,-0.6234 0.02219,-1.773064 l -1.454491,-6.32315 2.919541,-0.671571 z m 9.999632,4.458766 -0.447403,-2.102683 -3.597368,-0.165002 -0.653516,2.052186 -3.28725,-0.150778 4.122817,-10.952015 3.985015,0.182783 3.14945,11.285576 z m -1.352737,-6.417301 q -0.06402,-0.298168 -0.178677,-0.847276 -0.113949,-0.564613 -0.226476,-1.160238 -0.112527,-0.595625 -0.172987,-0.971323 -0.07909,0.369297 -0.24425,0.921108 -0.149651,0.552523 -0.314097,1.088829 -0.148939,0.537016 -0.259044,0.90489 l -0.563895,1.792143 2.356896,0.108105 z M 86.572984,29.846796 82.862661,28.560039 81.59327,19.855944 81.534608,19.8356 q -0.08765,0.347474 -0.226154,0.841601 -0.133421,0.479462 -0.286594,0.968503 -0.138507,0.494127 -0.275829,0.890091 l -1.63769,4.72223 -2.507768,-0.869705 3.6314,-10.471032 3.695658,1.28167 1.290328,8.596353 0.044,0.01526 q 0.102312,-0.342388 0.230648,-0.807185 0.128335,-0.464796 0.276421,-0.939172 0.148087,-0.474376 0.270151,-0.826344 l 1.642776,-4.736895 2.522433,0.874791 z m 5.48074,3.482807 7.065137,-8.538935 2.308139,1.909764 -5.521489,6.673285 3.288805,2.721167 -1.543643,1.865649 z m 10.933286,11.361688 1.34708,-1.675355 -2.1451,-2.892548 -2.00356,0.790135 -1.960172,-2.643191 11.093812,-3.724447 2.37625,3.204246 -6.75738,9.571883 z m 4.11927,-5.103256 q 0.19066,-0.238015 0.54382,-0.67384 0.36563,-0.445071 0.75619,-0.908634 0.39057,-0.463564 0.64357,-0.74781 -0.33622,0.172035 -0.86827,0.392685 -0.52282,0.233117 -1.04241,0.44452 -0.51034,0.223871 -0.86505,0.37097 l -1.74537,0.695291 1.40541,1.895118 z m 2.00795,18.788728 -1.347,-3.688878 5.94441,-6.483561 -0.0213,-0.05832 q -0.3247,0.151617 -0.79521,0.356474 -0.45593,0.199533 -0.93176,0.38981 -0.47051,0.204858 -0.86419,0.34861 l -4.69493,1.714371 -0.91043,-2.493273 10.41051,-3.801432 1.34168,3.674297 -5.84767,6.431712 0.016,0.04374 q 0.33003,-0.137036 0.77138,-0.331245 0.44134,-0.194209 0.9026,-0.379162 0.46125,-0.184953 0.81118,-0.312732 l 4.70952,-1.719696 0.91575,2.507854 z m 7.13714,6.483035 0.28449,4.772366 -5.96546,0.355603 q -0.3452,-0.834659 -0.59764,-1.939194 -0.25151,-1.089039 -0.32356,-2.297625 -0.0951,-1.595954 0.45261,-2.841486 0.54867,-1.230037 1.77859,-1.987542 1.23085,-0.742011 3.16769,-0.857467 1.7354,-0.103448 3.04568,0.487085 1.31029,0.590533 2.06871,1.835953 0.77485,1.25999 0.88754,3.150343 0.0619,1.038144 -0.0841,1.979833 -0.13052,0.940766 -0.39977,1.641005 l -2.39604,-0.805706 q 0.2593,-0.606347 0.35996,-1.265437 0.11615,-0.660014 0.0727,-1.388265 -0.0591,-0.99166 -0.54448,-1.569168 -0.48537,-0.577507 -1.24574,-0.812077 -0.75945,-0.219075 -1.65814,-0.165503 -1.54947,0.09236 -2.3319,0.792095 -0.76693,0.698806 -0.69488,1.907392 0.0157,0.26341 0.0688,0.633436 0.0696,0.384596 0.12807,0.583256 l 1.73541,-0.103448 -0.11731,-1.967826 z"
       id="text1"
       aria-label="XIAOXUAN LANG" />
    <path
       style="font-weight:900;font-size:25.4px;line-height:1.25;font-family:'Noto Sans';-inkscape-font-specification:'Noto Sans Heavy';letter-spacing:5.83406px;white-space:pre;fill:#d38d5f"
       d="m 44.413932,95.192598 q 5.703729,4.701092 2.295034,8.836782 -1.050072,1.27403 -2.472325,1.68174 -1.386497,0.40426 -3.00108,0.1268 l -0.947299,9.45597 -4.292497,-3.53794 1.240621,-7.53551 -0.960422,-0.79159 -4.200288,5.09611 -3.782886,-3.1179 11.534638,-13.994722 z m -2.417425,2.8132 -0.744817,-0.613888 -2.633257,3.19487 0.705616,0.58158 q 0.862419,0.71082 1.718176,0.79075 0.891512,0.0765 1.699259,-0.90354 0.565424,-0.68601 0.421558,-1.429987 -0.127711,-0.763573 -1.166535,-1.619785 z m 23.889527,15.692482 q -0.657186,2.74174 -2.037807,4.57872 -1.350001,1.81821 -3.524274,2.49854 -2.149572,0.68625 -5.187714,-0.042 -2.96404,-0.71047 -4.593619,-2.30258 -1.629578,-1.5921 -2.052081,-3.86129 -0.397803,-2.26327 0.259382,-5.005 0.657186,-2.74174 2.056587,-4.54811 1.405322,-1.83106 3.573674,-2.48669 2.168353,-0.65563 5.132393,0.0548 3.013441,0.72231 4.618319,2.30849 1.635499,1.5674 2.008602,3.82475 0.403723,2.23857 -0.253462,4.98031 z m -12.127865,-2.90701 q -0.574298,2.39593 -0.08482,3.94983 0.514179,1.55982 2.416105,2.0157 1.976026,0.47365 3.09207,-0.69541 1.116043,-1.16906 1.69034,-3.56499 0.574298,-2.39593 0.11544,-3.96861 -0.458857,-1.57268 -2.410184,-2.04041 -1.951326,-0.46772 -3.09799,0.72012 -1.146665,1.18784 -1.720962,3.58377 z m 24.16852,-4.45658 q -1.688445,0.36383 -2.357189,1.96299 -0.668745,1.59915 -0.133696,4.08216 0.540401,2.50783 1.79235,3.61516 1.246598,1.08249 3.208173,0.6598 1.167013,-0.25147 2.18998,-0.80968 1.047796,-0.56357 2.06349,-1.27611 l 0.872131,4.0473 q -1.054653,0.7729 -2.248002,1.2639 -1.163168,0.51047 -2.553652,0.8101 -2.880287,0.62066 -4.963835,-0.12559 -2.083548,-0.74624 -3.391341,-2.59504 -1.313143,-1.87363 -1.890997,-4.55528 -0.577854,-2.68164 -0.02874,-4.95656 0.549111,-2.27491 2.209553,-3.85391 1.679921,-1.60919 4.436058,-2.20309 1.291164,-0.27823 2.770684,-0.28524 1.479519,-0.007 2.984286,0.34428 l -0.651699,4.08985 q -1.070032,-0.2631 -2.12744,-0.34704 -1.062759,-0.10877 -2.180112,0.132 z m 28.946241,-0.0294 -4.46146,3.27964 -6.992685,-3.46582 -0.655023,1.55335 3.595566,4.89122 -3.970284,2.91858 -10.741565,-14.61228 3.970284,-2.918578 4.663705,6.344268 q -0.100433,-0.65123 -0.119003,-1.36265 -0.03361,-0.73187 -0.04256,-1.38731 l -0.224874,-6.738548 4.318195,-3.174328 0.209436,9.933866 z"
       id="text2"
       aria-label="ROCK" />
  </g>
</svg>
