<svg version="1.1" xmlns="http://www.w3.org/2000/svg" viewBox="0 0 809 420" width="1618" height="840">
  <!-- svg-source:excalidraw -->
  
  <defs>
    <style class="style-fonts">
      @font-face {
        font-family: "Virgil";
        src: url("https://excalidraw.com/Virgil.woff2");
      }
      @font-face {
        font-family: "Cascadia";
        src: url("https://excalidraw.com/Cascadia.woff2");
      }
      @font-face {
        font-family: "Assistant";
        src: url("https://excalidraw.com/Assistant-Regular.woff2");
      }
    </style>
    
  </defs>
  <g stroke-linecap="round" transform="translate(10 10) rotate(0 394.5 200)"><path d="M32 0 C304.88 0, 577.77 0, 757 0 C778.33 0, 789 10.67, 789 32 C789 133.53, 789 235.05, 789 368 C789 389.33, 778.33 400, 757 400 C467.42 400, 177.84 400, 32 400 C10.67 400, 0 389.33, 0 368 C0 282.13, 0 196.25, 0 32 C0 10.67, 10.67 0, 32 0" stroke="none" stroke-width="0" fill="#b2f2bb"></path><path d="M32 0 C268.88 0, 505.75 0, 757 0 M32 0 C212.81 0, 393.62 0, 757 0 M757 0 C778.33 0, 789 10.67, 789 32 M757 0 C778.33 0, 789 10.67, 789 32 M789 32 C789 131.11, 789 230.23, 789 368 M789 32 C789 106.03, 789 180.07, 789 368 M789 368 C789 389.33, 778.33 400, 757 400 M789 368 C789 389.33, 778.33 400, 757 400 M757 400 C548.86 400, 340.72 400, 32 400 M757 400 C529.87 400, 302.75 400, 32 400 M32 400 C10.67 400, 0 389.33, 0 368 M32 400 C10.67 400, 0 389.33, 0 368 M0 368 C0 264.29, 0 160.59, 0 32 M0 368 C0 265.02, 0 162.03, 0 32 M0 32 C0 10.67, 10.67 0, 32 0 M0 32 C0 10.67, 10.67 0, 32 0" stroke="#69db7c" stroke-width="4" fill="none"></path></g><g transform="translate(474.6663621320781 340.19123970550777) rotate(0 88.96666717529297 17.5)"><text x="0" y="0" font-family="Virgil, Segoe UI Emoji" font-size="28px" fill="#ffffff" text-anchor="start" style="white-space: pre;" direction="ltr" dominant-baseline="text-before-edge">@hemashushu</text></g><g stroke-linecap="round" transform="translate(47.909090909090764 44.54545454545456) rotate(0 36.28942486085339 35.563636363636334)"><path d="M72.58 35.56 C72.58 37.42, 72.43 39.3, 72.13 41.13 C71.84 42.96, 71.39 44.79, 70.8 46.55 C70.22 48.32, 69.48 50.06, 68.62 51.71 C67.76 53.36, 66.76 54.97, 65.65 56.47 C64.54 57.97, 63.29 59.4, 61.95 60.71 C60.61 62.02, 59.15 63.25, 57.62 64.34 C56.09 65.43, 54.45 66.41, 52.76 67.25 C51.08 68.09, 49.3 68.81, 47.5 69.39 C45.7 69.96, 43.84 70.4, 41.97 70.69 C40.1 70.98, 38.18 71.13, 36.29 71.13 C34.4 71.13, 32.48 70.98, 30.61 70.69 C28.74 70.4, 26.88 69.96, 25.08 69.39 C23.28 68.81, 21.5 68.09, 19.81 67.25 C18.13 66.41, 16.49 65.43, 14.96 64.34 C13.43 63.25, 11.97 62.02, 10.63 60.71 C9.29 59.4, 8.04 57.97, 6.93 56.47 C5.82 54.97, 4.81 53.36, 3.96 51.71 C3.1 50.06, 2.36 48.32, 1.78 46.55 C1.19 44.79, 0.74 42.96, 0.45 41.13 C0.15 39.3, 0 37.42, 0 35.56 C0 33.71, 0.15 31.83, 0.45 30 C0.74 28.17, 1.19 26.34, 1.78 24.57 C2.36 22.81, 3.1 21.07, 3.96 19.42 C4.81 17.77, 5.82 16.16, 6.93 14.66 C8.04 13.16, 9.29 11.73, 10.63 10.42 C11.97 9.11, 13.43 7.88, 14.96 6.79 C16.49 5.7, 18.13 4.72, 19.81 3.88 C21.5 3.03, 23.28 2.31, 25.08 1.74 C26.88 1.17, 28.74 0.73, 30.61 0.44 C32.48 0.15, 34.4 0, 36.29 0 C38.18 0, 40.1 0.15, 41.97 0.44 C43.84 0.73, 45.7 1.17, 47.5 1.74 C49.3 2.31, 51.08 3.03, 52.76 3.88 C54.45 4.72, 56.09 5.7, 57.62 6.79 C59.15 7.88, 60.61 9.11, 61.95 10.42 C63.29 11.73, 64.54 13.16, 65.65 14.66 C66.76 16.16, 67.76 17.77, 68.62 19.42 C69.48 21.07, 70.22 22.81, 70.8 24.57 C71.39 26.34, 71.84 28.17, 72.13 30 C72.43 31.83, 72.5 34.64, 72.58 35.56 C72.65 36.49, 72.65 34.64, 72.58 35.56" stroke="none" stroke-width="0" fill="#ffec99"></path><path d="M72.58 35.56 C72.58 37.42, 72.43 39.3, 72.13 41.13 C71.84 42.96, 71.39 44.79, 70.8 46.55 C70.22 48.32, 69.48 50.06, 68.62 51.71 C67.76 53.36, 66.76 54.97, 65.65 56.47 C64.54 57.97, 63.29 59.4, 61.95 60.71 C60.61 62.02, 59.15 63.25, 57.62 64.34 C56.09 65.43, 54.45 66.41, 52.76 67.25 C51.08 68.09, 49.3 68.81, 47.5 69.39 C45.7 69.96, 43.84 70.4, 41.97 70.69 C40.1 70.98, 38.18 71.13, 36.29 71.13 C34.4 71.13, 32.48 70.98, 30.61 70.69 C28.74 70.4, 26.88 69.96, 25.08 69.39 C23.28 68.81, 21.5 68.09, 19.81 67.25 C18.13 66.41, 16.49 65.43, 14.96 64.34 C13.43 63.25, 11.97 62.02, 10.63 60.71 C9.29 59.4, 8.04 57.97, 6.93 56.47 C5.82 54.97, 4.81 53.36, 3.96 51.71 C3.1 50.06, 2.36 48.32, 1.78 46.55 C1.19 44.79, 0.74 42.96, 0.45 41.13 C0.15 39.3, 0 37.42, 0 35.56 C0 33.71, 0.15 31.83, 0.45 30 C0.74 28.17, 1.19 26.34, 1.78 24.57 C2.36 22.81, 3.1 21.07, 3.96 19.42 C4.81 17.77, 5.82 16.16, 6.93 14.66 C8.04 13.16, 9.29 11.73, 10.63 10.42 C11.97 9.11, 13.43 7.88, 14.96 6.79 C16.49 5.7, 18.13 4.72, 19.81 3.88 C21.5 3.03, 23.28 2.31, 25.08 1.74 C26.88 1.17, 28.74 0.73, 30.61 0.44 C32.48 0.15, 34.4 0, 36.29 0 C38.18 0, 40.1 0.15, 41.97 0.44 C43.84 0.73, 45.7 1.17, 47.5 1.74 C49.3 2.31, 51.08 3.03, 52.76 3.88 C54.45 4.72, 56.09 5.7, 57.62 6.79 C59.15 7.88, 60.61 9.11, 61.95 10.42 C63.29 11.73, 64.54 13.16, 65.65 14.66 C66.76 16.16, 67.76 17.77, 68.62 19.42 C69.48 21.07, 70.22 22.81, 70.8 24.57 C71.39 26.34, 71.84 28.17, 72.13 30 C72.43 31.83, 72.5 34.64, 72.58 35.56 C72.65 36.49, 72.65 34.64, 72.58 35.56" stroke="transparent" stroke-width="2" fill="none"></path></g><g stroke-linecap="round" transform="translate(59.52170686456384 56.88385899814472) rotate(0 25.039703153988853 23.225231910946178)"><path d="M50.08 23.23 C50.08 24.57, 49.95 25.93, 49.7 27.26 C49.45 28.58, 49.07 29.91, 48.57 31.17 C48.07 32.43, 47.45 33.67, 46.72 34.84 C46 36, 45.15 37.12, 44.22 38.15 C43.29 39.18, 42.25 40.15, 41.13 41.02 C40.02 41.88, 38.81 42.67, 37.56 43.34 C36.3 44.01, 34.97 44.59, 33.6 45.05 C32.24 45.51, 30.82 45.86, 29.39 46.1 C27.96 46.33, 26.49 46.45, 25.04 46.45 C23.59 46.45, 22.12 46.33, 20.69 46.1 C19.26 45.86, 17.84 45.51, 16.48 45.05 C15.11 44.59, 13.78 44.01, 12.52 43.34 C11.26 42.67, 10.05 41.88, 8.94 41.02 C7.83 40.15, 6.79 39.18, 5.86 38.15 C4.93 37.12, 4.08 36, 3.35 34.84 C2.63 33.67, 2.01 32.43, 1.51 31.17 C1.01 29.91, 0.63 28.58, 0.38 27.26 C0.13 25.93, 0 24.57, 0 23.23 C0 21.88, 0.13 20.52, 0.38 19.19 C0.63 17.87, 1.01 16.55, 1.51 15.28 C2.01 14.02, 2.63 12.78, 3.35 11.61 C4.08 10.45, 4.93 9.33, 5.86 8.3 C6.79 7.27, 7.83 6.3, 8.94 5.43 C10.05 4.57, 11.26 3.78, 12.52 3.11 C13.78 2.44, 15.11 1.86, 16.48 1.4 C17.84 0.94, 19.26 0.59, 20.69 0.35 C22.12 0.12, 23.59 0, 25.04 0 C26.49 0, 27.96 0.12, 29.39 0.35 C30.82 0.59, 32.24 0.94, 33.6 1.4 C34.97 1.86, 36.3 2.44, 37.56 3.11 C38.81 3.78, 40.02 4.57, 41.13 5.43 C42.25 6.3, 43.29 7.27, 44.22 8.3 C45.15 9.33, 46 10.45, 46.72 11.61 C47.45 12.78, 48.07 14.02, 48.57 15.28 C49.07 16.55, 49.45 17.87, 49.7 19.19 C49.95 20.52, 50.02 22.55, 50.08 23.23 C50.14 23.9, 50.14 22.55, 50.08 23.23" stroke="none" stroke-width="0" fill="#ffffff"></path><path d="M50.08 23.23 C50.08 24.57, 49.95 25.93, 49.7 27.26 C49.45 28.58, 49.07 29.91, 48.57 31.17 C48.07 32.43, 47.45 33.67, 46.72 34.84 C46 36, 45.15 37.12, 44.22 38.15 C43.29 39.18, 42.25 40.15, 41.13 41.02 C40.02 41.88, 38.81 42.67, 37.56 43.34 C36.3 44.01, 34.97 44.59, 33.6 45.05 C32.24 45.51, 30.82 45.86, 29.39 46.1 C27.96 46.33, 26.49 46.45, 25.04 46.45 C23.59 46.45, 22.12 46.33, 20.69 46.1 C19.26 45.86, 17.84 45.51, 16.48 45.05 C15.11 44.59, 13.78 44.01, 12.52 43.34 C11.26 42.67, 10.05 41.88, 8.94 41.02 C7.83 40.15, 6.79 39.18, 5.86 38.15 C4.93 37.12, 4.08 36, 3.35 34.84 C2.63 33.67, 2.01 32.43, 1.51 31.17 C1.01 29.91, 0.63 28.58, 0.38 27.26 C0.13 25.93, 0 24.57, 0 23.23 C0 21.88, 0.13 20.52, 0.38 19.19 C0.63 17.87, 1.01 16.55, 1.51 15.28 C2.01 14.02, 2.63 12.78, 3.35 11.61 C4.08 10.45, 4.93 9.33, 5.86 8.3 C6.79 7.27, 7.83 6.3, 8.94 5.43 C10.05 4.57, 11.26 3.78, 12.52 3.11 C13.78 2.44, 15.11 1.86, 16.48 1.4 C17.84 0.94, 19.26 0.59, 20.69 0.35 C22.12 0.12, 23.59 0, 25.04 0 C26.49 0, 27.96 0.12, 29.39 0.35 C30.82 0.59, 32.24 0.94, 33.6 1.4 C34.97 1.86, 36.3 2.44, 37.56 3.11 C38.81 3.78, 40.02 4.57, 41.13 5.43 C42.25 6.3, 43.29 7.27, 44.22 8.3 C45.15 9.33, 46 10.45, 46.72 11.61 C47.45 12.78, 48.07 14.02, 48.57 15.28 C49.07 16.55, 49.45 17.87, 49.7 19.19 C49.95 20.52, 50.02 22.55, 50.08 23.23 C50.14 23.9, 50.14 22.55, 50.08 23.23" stroke="transparent" stroke-width="2" fill="none"></path></g><g transform="translate(332.5 44) rotate(0 66.88800048828125 179.42059172372637)"><text x="0" y="0" font-family="Virgil, Segoe UI Emoji" font-size="287.07294675796226px" fill="#69db7c" text-anchor="start" style="white-space: pre;" direction="ltr" dominant-baseline="text-before-edge">?</text></g><g transform="translate(342.61199951171875 50.579408276273625) rotate(0 66.88800048828125 179.42059172372637)"><text x="0" y="0" font-family="Virgil, Segoe UI Emoji" font-size="287.07294675796226px" fill="#ebfbee" text-anchor="start" style="white-space: pre;" direction="ltr" dominant-baseline="text-before-edge">?</text></g><g stroke-linecap="round" transform="translate(681.6903731189439 46.38008658008647) rotate(0 36.28942486085339 35.563636363636334)"><path d="M72.58 35.56 C72.58 37.42, 72.43 39.3, 72.13 41.13 C71.84 42.96, 71.39 44.79, 70.8 46.55 C70.22 48.32, 69.48 50.06, 68.62 51.71 C67.76 53.36, 66.76 54.97, 65.65 56.47 C64.54 57.97, 63.29 59.4, 61.95 60.71 C60.61 62.02, 59.15 63.25, 57.62 64.34 C56.09 65.43, 54.45 66.41, 52.76 67.25 C51.08 68.09, 49.3 68.81, 47.5 69.39 C45.7 69.96, 43.84 70.4, 41.97 70.69 C40.1 70.98, 38.18 71.13, 36.29 71.13 C34.4 71.13, 32.48 70.98, 30.61 70.69 C28.74 70.4, 26.88 69.96, 25.08 69.39 C23.28 68.81, 21.5 68.09, 19.81 67.25 C18.13 66.41, 16.49 65.43, 14.96 64.34 C13.43 63.25, 11.97 62.02, 10.63 60.71 C9.29 59.4, 8.04 57.97, 6.93 56.47 C5.82 54.97, 4.81 53.36, 3.96 51.71 C3.1 50.06, 2.36 48.32, 1.78 46.55 C1.19 44.79, 0.74 42.96, 0.45 41.13 C0.15 39.3, 0 37.42, 0 35.56 C0 33.71, 0.15 31.83, 0.45 30 C0.74 28.17, 1.19 26.34, 1.78 24.57 C2.36 22.81, 3.1 21.07, 3.96 19.42 C4.81 17.77, 5.82 16.16, 6.93 14.66 C8.04 13.16, 9.29 11.73, 10.63 10.42 C11.97 9.11, 13.43 7.88, 14.96 6.79 C16.49 5.7, 18.13 4.72, 19.81 3.88 C21.5 3.03, 23.28 2.31, 25.08 1.74 C26.88 1.17, 28.74 0.73, 30.61 0.44 C32.48 0.15, 34.4 0, 36.29 0 C38.18 0, 40.1 0.15, 41.97 0.44 C43.84 0.73, 45.7 1.17, 47.5 1.74 C49.3 2.31, 51.08 3.03, 52.76 3.88 C54.45 4.72, 56.09 5.7, 57.62 6.79 C59.15 7.88, 60.61 9.11, 61.95 10.42 C63.29 11.73, 64.54 13.16, 65.65 14.66 C66.76 16.16, 67.76 17.77, 68.62 19.42 C69.48 21.07, 70.22 22.81, 70.8 24.57 C71.39 26.34, 71.84 28.17, 72.13 30 C72.43 31.83, 72.5 34.64, 72.58 35.56 C72.65 36.49, 72.65 34.64, 72.58 35.56" stroke="none" stroke-width="0" fill="#ffec99"></path><path d="M72.58 35.56 C72.58 37.42, 72.43 39.3, 72.13 41.13 C71.84 42.96, 71.39 44.79, 70.8 46.55 C70.22 48.32, 69.48 50.06, 68.62 51.71 C67.76 53.36, 66.76 54.97, 65.65 56.47 C64.54 57.97, 63.29 59.4, 61.95 60.71 C60.61 62.02, 59.15 63.25, 57.62 64.34 C56.09 65.43, 54.45 66.41, 52.76 67.25 C51.08 68.09, 49.3 68.81, 47.5 69.39 C45.7 69.96, 43.84 70.4, 41.97 70.69 C40.1 70.98, 38.18 71.13, 36.29 71.13 C34.4 71.13, 32.48 70.98, 30.61 70.69 C28.74 70.4, 26.88 69.96, 25.08 69.39 C23.28 68.81, 21.5 68.09, 19.81 67.25 C18.13 66.41, 16.49 65.43, 14.96 64.34 C13.43 63.25, 11.97 62.02, 10.63 60.71 C9.29 59.4, 8.04 57.97, 6.93 56.47 C5.82 54.97, 4.81 53.36, 3.96 51.71 C3.1 50.06, 2.36 48.32, 1.78 46.55 C1.19 44.79, 0.74 42.96, 0.45 41.13 C0.15 39.3, 0 37.42, 0 35.56 C0 33.71, 0.15 31.83, 0.45 30 C0.74 28.17, 1.19 26.34, 1.78 24.57 C2.36 22.81, 3.1 21.07, 3.96 19.42 C4.81 17.77, 5.82 16.16, 6.93 14.66 C8.04 13.16, 9.29 11.73, 10.63 10.42 C11.97 9.11, 13.43 7.88, 14.96 6.79 C16.49 5.7, 18.13 4.72, 19.81 3.88 C21.5 3.03, 23.28 2.31, 25.08 1.74 C26.88 1.17, 28.74 0.73, 30.61 0.44 C32.48 0.15, 34.4 0, 36.29 0 C38.18 0, 40.1 0.15, 41.97 0.44 C43.84 0.73, 45.7 1.17, 47.5 1.74 C49.3 2.31, 51.08 3.03, 52.76 3.88 C54.45 4.72, 56.09 5.7, 57.62 6.79 C59.15 7.88, 60.61 9.11, 61.95 10.42 C63.29 11.73, 64.54 13.16, 65.65 14.66 C66.76 16.16, 67.76 17.77, 68.62 19.42 C69.48 21.07, 70.22 22.81, 70.8 24.57 C71.39 26.34, 71.84 28.17, 72.13 30 C72.43 31.83, 72.5 34.64, 72.58 35.56 C72.65 36.49, 72.65 34.64, 72.58 35.56" stroke="transparent" stroke-width="2" fill="none"></path></g><g stroke-linecap="round" transform="translate(693.3029890744167 58.718491032776626) rotate(0 25.039703153988853 23.225231910946178)"><path d="M50.08 23.23 C50.08 24.57, 49.95 25.93, 49.7 27.26 C49.45 28.58, 49.07 29.91, 48.57 31.17 C48.07 32.43, 47.45 33.67, 46.72 34.84 C46 36, 45.15 37.12, 44.22 38.15 C43.29 39.18, 42.25 40.15, 41.13 41.02 C40.02 41.88, 38.81 42.67, 37.56 43.34 C36.3 44.01, 34.97 44.59, 33.6 45.05 C32.24 45.51, 30.82 45.86, 29.39 46.1 C27.96 46.33, 26.49 46.45, 25.04 46.45 C23.59 46.45, 22.12 46.33, 20.69 46.1 C19.26 45.86, 17.84 45.51, 16.48 45.05 C15.11 44.59, 13.78 44.01, 12.52 43.34 C11.26 42.67, 10.05 41.88, 8.94 41.02 C7.83 40.15, 6.79 39.18, 5.86 38.15 C4.93 37.12, 4.08 36, 3.35 34.84 C2.63 33.67, 2.01 32.43, 1.51 31.17 C1.01 29.91, 0.63 28.58, 0.38 27.26 C0.13 25.93, 0 24.57, 0 23.23 C0 21.88, 0.13 20.52, 0.38 19.19 C0.63 17.87, 1.01 16.55, 1.51 15.28 C2.01 14.02, 2.63 12.78, 3.35 11.61 C4.08 10.45, 4.93 9.33, 5.86 8.3 C6.79 7.27, 7.83 6.3, 8.94 5.43 C10.05 4.57, 11.26 3.78, 12.52 3.11 C13.78 2.44, 15.11 1.86, 16.48 1.4 C17.84 0.94, 19.26 0.59, 20.69 0.35 C22.12 0.12, 23.59 0, 25.04 0 C26.49 0, 27.96 0.12, 29.39 0.35 C30.82 0.59, 32.24 0.94, 33.6 1.4 C34.97 1.86, 36.3 2.44, 37.56 3.11 C38.81 3.78, 40.02 4.57, 41.13 5.43 C42.25 6.3, 43.29 7.27, 44.22 8.3 C45.15 9.33, 46 10.45, 46.72 11.61 C47.45 12.78, 48.07 14.02, 48.57 15.28 C49.07 16.55, 49.45 17.87, 49.7 19.19 C49.95 20.52, 50.02 22.55, 50.08 23.23 C50.14 23.9, 50.14 22.55, 50.08 23.23" stroke="none" stroke-width="0" fill="#ffffff"></path><path d="M50.08 23.23 C50.08 24.57, 49.95 25.93, 49.7 27.26 C49.45 28.58, 49.07 29.91, 48.57 31.17 C48.07 32.43, 47.45 33.67, 46.72 34.84 C46 36, 45.15 37.12, 44.22 38.15 C43.29 39.18, 42.25 40.15, 41.13 41.02 C40.02 41.88, 38.81 42.67, 37.56 43.34 C36.3 44.01, 34.97 44.59, 33.6 45.05 C32.24 45.51, 30.82 45.86, 29.39 46.1 C27.96 46.33, 26.49 46.45, 25.04 46.45 C23.59 46.45, 22.12 46.33, 20.69 46.1 C19.26 45.86, 17.84 45.51, 16.48 45.05 C15.11 44.59, 13.78 44.01, 12.52 43.34 C11.26 42.67, 10.05 41.88, 8.94 41.02 C7.83 40.15, 6.79 39.18, 5.86 38.15 C4.93 37.12, 4.08 36, 3.35 34.84 C2.63 33.67, 2.01 32.43, 1.51 31.17 C1.01 29.91, 0.63 28.58, 0.38 27.26 C0.13 25.93, 0 24.57, 0 23.23 C0 21.88, 0.13 20.52, 0.38 19.19 C0.63 17.87, 1.01 16.55, 1.51 15.28 C2.01 14.02, 2.63 12.78, 3.35 11.61 C4.08 10.45, 4.93 9.33, 5.86 8.3 C6.79 7.27, 7.83 6.3, 8.94 5.43 C10.05 4.57, 11.26 3.78, 12.52 3.11 C13.78 2.44, 15.11 1.86, 16.48 1.4 C17.84 0.94, 19.26 0.59, 20.69 0.35 C22.12 0.12, 23.59 0, 25.04 0 C26.49 0, 27.96 0.12, 29.39 0.35 C30.82 0.59, 32.24 0.94, 33.6 1.4 C34.97 1.86, 36.3 2.44, 37.56 3.11 C38.81 3.78, 40.02 4.57, 41.13 5.43 C42.25 6.3, 43.29 7.27, 44.22 8.3 C45.15 9.33, 46 10.45, 46.72 11.61 C47.45 12.78, 48.07 14.02, 48.57 15.28 C49.07 16.55, 49.45 17.87, 49.7 19.19 C49.95 20.52, 50.02 22.55, 50.08 23.23 C50.14 23.9, 50.14 22.55, 50.08 23.23" stroke="transparent" stroke-width="2" fill="none"></path></g><g stroke-linecap="round" transform="translate(685.7812822098533 301.8346320346319) rotate(0 36.28942486085339 35.56363636363636)"><path d="M72.58 35.56 C72.58 37.42, 72.43 39.3, 72.13 41.13 C71.84 42.96, 71.39 44.79, 70.8 46.55 C70.22 48.32, 69.48 50.06, 68.62 51.71 C67.76 53.36, 66.76 54.97, 65.65 56.47 C64.54 57.97, 63.29 59.4, 61.95 60.71 C60.61 62.02, 59.15 63.25, 57.62 64.34 C56.09 65.43, 54.45 66.41, 52.76 67.25 C51.08 68.09, 49.3 68.81, 47.5 69.39 C45.7 69.96, 43.84 70.4, 41.97 70.69 C40.1 70.98, 38.18 71.13, 36.29 71.13 C34.4 71.13, 32.48 70.98, 30.61 70.69 C28.74 70.4, 26.88 69.96, 25.08 69.39 C23.28 68.81, 21.5 68.09, 19.81 67.25 C18.13 66.41, 16.49 65.43, 14.96 64.34 C13.43 63.25, 11.97 62.02, 10.63 60.71 C9.29 59.4, 8.04 57.97, 6.93 56.47 C5.82 54.97, 4.81 53.36, 3.96 51.71 C3.1 50.06, 2.36 48.32, 1.78 46.55 C1.19 44.79, 0.74 42.96, 0.45 41.13 C0.15 39.3, 0 37.42, 0 35.56 C0 33.71, 0.15 31.83, 0.45 30 C0.74 28.17, 1.19 26.34, 1.78 24.57 C2.36 22.81, 3.1 21.07, 3.96 19.42 C4.81 17.77, 5.82 16.16, 6.93 14.66 C8.04 13.16, 9.29 11.73, 10.63 10.42 C11.97 9.11, 13.43 7.88, 14.96 6.79 C16.49 5.7, 18.13 4.72, 19.81 3.88 C21.5 3.03, 23.28 2.31, 25.08 1.74 C26.88 1.17, 28.74 0.73, 30.61 0.44 C32.48 0.15, 34.4 0, 36.29 0 C38.18 0, 40.1 0.15, 41.97 0.44 C43.84 0.73, 45.7 1.17, 47.5 1.74 C49.3 2.31, 51.08 3.03, 52.76 3.88 C54.45 4.72, 56.09 5.7, 57.62 6.79 C59.15 7.88, 60.61 9.11, 61.95 10.42 C63.29 11.73, 64.54 13.16, 65.65 14.66 C66.76 16.16, 67.76 17.77, 68.62 19.42 C69.48 21.07, 70.22 22.81, 70.8 24.57 C71.39 26.34, 71.84 28.17, 72.13 30 C72.43 31.83, 72.5 34.64, 72.58 35.56 C72.65 36.49, 72.65 34.64, 72.58 35.56" stroke="none" stroke-width="0" fill="#ffec99"></path><path d="M72.58 35.56 C72.58 37.42, 72.43 39.3, 72.13 41.13 C71.84 42.96, 71.39 44.79, 70.8 46.55 C70.22 48.32, 69.48 50.06, 68.62 51.71 C67.76 53.36, 66.76 54.97, 65.65 56.47 C64.54 57.97, 63.29 59.4, 61.95 60.71 C60.61 62.02, 59.15 63.25, 57.62 64.34 C56.09 65.43, 54.45 66.41, 52.76 67.25 C51.08 68.09, 49.3 68.81, 47.5 69.39 C45.7 69.96, 43.84 70.4, 41.97 70.69 C40.1 70.98, 38.18 71.13, 36.29 71.13 C34.4 71.13, 32.48 70.98, 30.61 70.69 C28.74 70.4, 26.88 69.96, 25.08 69.39 C23.28 68.81, 21.5 68.09, 19.81 67.25 C18.13 66.41, 16.49 65.43, 14.96 64.34 C13.43 63.25, 11.97 62.02, 10.63 60.71 C9.29 59.4, 8.04 57.97, 6.93 56.47 C5.82 54.97, 4.81 53.36, 3.96 51.71 C3.1 50.06, 2.36 48.32, 1.78 46.55 C1.19 44.79, 0.74 42.96, 0.45 41.13 C0.15 39.3, 0 37.42, 0 35.56 C0 33.71, 0.15 31.83, 0.45 30 C0.74 28.17, 1.19 26.34, 1.78 24.57 C2.36 22.81, 3.1 21.07, 3.96 19.42 C4.81 17.77, 5.82 16.16, 6.93 14.66 C8.04 13.16, 9.29 11.73, 10.63 10.42 C11.97 9.11, 13.43 7.88, 14.96 6.79 C16.49 5.7, 18.13 4.72, 19.81 3.88 C21.5 3.03, 23.28 2.31, 25.08 1.74 C26.88 1.17, 28.74 0.73, 30.61 0.44 C32.48 0.15, 34.4 0, 36.29 0 C38.18 0, 40.1 0.15, 41.97 0.44 C43.84 0.73, 45.7 1.17, 47.5 1.74 C49.3 2.31, 51.08 3.03, 52.76 3.88 C54.45 4.72, 56.09 5.7, 57.62 6.79 C59.15 7.88, 60.61 9.11, 61.95 10.42 C63.29 11.73, 64.54 13.16, 65.65 14.66 C66.76 16.16, 67.76 17.77, 68.62 19.42 C69.48 21.07, 70.22 22.81, 70.8 24.57 C71.39 26.34, 71.84 28.17, 72.13 30 C72.43 31.83, 72.5 34.64, 72.58 35.56 C72.65 36.49, 72.65 34.64, 72.58 35.56" stroke="transparent" stroke-width="2" fill="none"></path></g><g stroke-linecap="round" transform="translate(697.3938981653262 314.17303648732207) rotate(0 25.039703153988853 23.225231910946206)"><path d="M50.08 23.23 C50.08 24.57, 49.95 25.93, 49.7 27.26 C49.45 28.58, 49.07 29.91, 48.57 31.17 C48.07 32.43, 47.45 33.67, 46.72 34.84 C46 36, 45.15 37.12, 44.22 38.15 C43.29 39.18, 42.25 40.15, 41.13 41.02 C40.02 41.88, 38.81 42.67, 37.56 43.34 C36.3 44.01, 34.97 44.59, 33.6 45.05 C32.24 45.51, 30.82 45.86, 29.39 46.1 C27.96 46.33, 26.49 46.45, 25.04 46.45 C23.59 46.45, 22.12 46.33, 20.69 46.1 C19.26 45.86, 17.84 45.51, 16.48 45.05 C15.11 44.59, 13.78 44.01, 12.52 43.34 C11.26 42.67, 10.05 41.88, 8.94 41.02 C7.83 40.15, 6.79 39.18, 5.86 38.15 C4.93 37.12, 4.08 36, 3.35 34.84 C2.63 33.67, 2.01 32.43, 1.51 31.17 C1.01 29.91, 0.63 28.58, 0.38 27.26 C0.13 25.93, 0 24.57, 0 23.23 C0 21.88, 0.13 20.52, 0.38 19.19 C0.63 17.87, 1.01 16.55, 1.51 15.28 C2.01 14.02, 2.63 12.78, 3.35 11.61 C4.08 10.45, 4.93 9.33, 5.86 8.3 C6.79 7.27, 7.83 6.3, 8.94 5.43 C10.05 4.57, 11.26 3.78, 12.52 3.11 C13.78 2.44, 15.11 1.86, 16.48 1.4 C17.84 0.94, 19.26 0.59, 20.69 0.35 C22.12 0.12, 23.59 0, 25.04 0 C26.49 0, 27.96 0.12, 29.39 0.35 C30.82 0.59, 32.24 0.94, 33.6 1.4 C34.97 1.86, 36.3 2.44, 37.56 3.11 C38.81 3.78, 40.02 4.57, 41.13 5.43 C42.25 6.3, 43.29 7.27, 44.22 8.3 C45.15 9.33, 46 10.45, 46.72 11.61 C47.45 12.78, 48.07 14.02, 48.57 15.28 C49.07 16.55, 49.45 17.87, 49.7 19.19 C49.95 20.52, 50.02 22.55, 50.08 23.23 C50.14 23.9, 50.14 22.55, 50.08 23.23" stroke="none" stroke-width="0" fill="#ffffff"></path><path d="M50.08 23.23 C50.08 24.57, 49.95 25.93, 49.7 27.26 C49.45 28.58, 49.07 29.91, 48.57 31.17 C48.07 32.43, 47.45 33.67, 46.72 34.84 C46 36, 45.15 37.12, 44.22 38.15 C43.29 39.18, 42.25 40.15, 41.13 41.02 C40.02 41.88, 38.81 42.67, 37.56 43.34 C36.3 44.01, 34.97 44.59, 33.6 45.05 C32.24 45.51, 30.82 45.86, 29.39 46.1 C27.96 46.33, 26.49 46.45, 25.04 46.45 C23.59 46.45, 22.12 46.33, 20.69 46.1 C19.26 45.86, 17.84 45.51, 16.48 45.05 C15.11 44.59, 13.78 44.01, 12.52 43.34 C11.26 42.67, 10.05 41.88, 8.94 41.02 C7.83 40.15, 6.79 39.18, 5.86 38.15 C4.93 37.12, 4.08 36, 3.35 34.84 C2.63 33.67, 2.01 32.43, 1.51 31.17 C1.01 29.91, 0.63 28.58, 0.38 27.26 C0.13 25.93, 0 24.57, 0 23.23 C0 21.88, 0.13 20.52, 0.38 19.19 C0.63 17.87, 1.01 16.55, 1.51 15.28 C2.01 14.02, 2.63 12.78, 3.35 11.61 C4.08 10.45, 4.93 9.33, 5.86 8.3 C6.79 7.27, 7.83 6.3, 8.94 5.43 C10.05 4.57, 11.26 3.78, 12.52 3.11 C13.78 2.44, 15.11 1.86, 16.48 1.4 C17.84 0.94, 19.26 0.59, 20.69 0.35 C22.12 0.12, 23.59 0, 25.04 0 C26.49 0, 27.96 0.12, 29.39 0.35 C30.82 0.59, 32.24 0.94, 33.6 1.4 C34.97 1.86, 36.3 2.44, 37.56 3.11 C38.81 3.78, 40.02 4.57, 41.13 5.43 C42.25 6.3, 43.29 7.27, 44.22 8.3 C45.15 9.33, 46 10.45, 46.72 11.61 C47.45 12.78, 48.07 14.02, 48.57 15.28 C49.07 16.55, 49.45 17.87, 49.7 19.19 C49.95 20.52, 50.02 22.55, 50.08 23.23 C50.14 23.9, 50.14 22.55, 50.08 23.23" stroke="transparent" stroke-width="2" fill="none"></path></g><g stroke-linecap="round" transform="translate(54.41764584621683 304.56190476190477) rotate(0 36.28942486085339 35.56363636363636)"><path d="M72.58 35.56 C72.58 37.42, 72.43 39.3, 72.13 41.13 C71.84 42.96, 71.39 44.79, 70.8 46.55 C70.22 48.32, 69.48 50.06, 68.62 51.71 C67.76 53.36, 66.76 54.97, 65.65 56.47 C64.54 57.97, 63.29 59.4, 61.95 60.71 C60.61 62.02, 59.15 63.25, 57.62 64.34 C56.09 65.43, 54.45 66.41, 52.76 67.25 C51.08 68.09, 49.3 68.81, 47.5 69.39 C45.7 69.96, 43.84 70.4, 41.97 70.69 C40.1 70.98, 38.18 71.13, 36.29 71.13 C34.4 71.13, 32.48 70.98, 30.61 70.69 C28.74 70.4, 26.88 69.96, 25.08 69.39 C23.28 68.81, 21.5 68.09, 19.81 67.25 C18.13 66.41, 16.49 65.43, 14.96 64.34 C13.43 63.25, 11.97 62.02, 10.63 60.71 C9.29 59.4, 8.04 57.97, 6.93 56.47 C5.82 54.97, 4.81 53.36, 3.96 51.71 C3.1 50.06, 2.36 48.32, 1.78 46.55 C1.19 44.79, 0.74 42.96, 0.45 41.13 C0.15 39.3, 0 37.42, 0 35.56 C0 33.71, 0.15 31.83, 0.45 30 C0.74 28.17, 1.19 26.34, 1.78 24.57 C2.36 22.81, 3.1 21.07, 3.96 19.42 C4.81 17.77, 5.82 16.16, 6.93 14.66 C8.04 13.16, 9.29 11.73, 10.63 10.42 C11.97 9.11, 13.43 7.88, 14.96 6.79 C16.49 5.7, 18.13 4.72, 19.81 3.88 C21.5 3.03, 23.28 2.31, 25.08 1.74 C26.88 1.17, 28.74 0.73, 30.61 0.44 C32.48 0.15, 34.4 0, 36.29 0 C38.18 0, 40.1 0.15, 41.97 0.44 C43.84 0.73, 45.7 1.17, 47.5 1.74 C49.3 2.31, 51.08 3.03, 52.76 3.88 C54.45 4.72, 56.09 5.7, 57.62 6.79 C59.15 7.88, 60.61 9.11, 61.95 10.42 C63.29 11.73, 64.54 13.16, 65.65 14.66 C66.76 16.16, 67.76 17.77, 68.62 19.42 C69.48 21.07, 70.22 22.81, 70.8 24.57 C71.39 26.34, 71.84 28.17, 72.13 30 C72.43 31.83, 72.5 34.64, 72.58 35.56 C72.65 36.49, 72.65 34.64, 72.58 35.56" stroke="none" stroke-width="0" fill="#ffec99"></path><path d="M72.58 35.56 C72.58 37.42, 72.43 39.3, 72.13 41.13 C71.84 42.96, 71.39 44.79, 70.8 46.55 C70.22 48.32, 69.48 50.06, 68.62 51.71 C67.76 53.36, 66.76 54.97, 65.65 56.47 C64.54 57.97, 63.29 59.4, 61.95 60.71 C60.61 62.02, 59.15 63.25, 57.62 64.34 C56.09 65.43, 54.45 66.41, 52.76 67.25 C51.08 68.09, 49.3 68.81, 47.5 69.39 C45.7 69.96, 43.84 70.4, 41.97 70.69 C40.1 70.98, 38.18 71.13, 36.29 71.13 C34.4 71.13, 32.48 70.98, 30.61 70.69 C28.74 70.4, 26.88 69.96, 25.08 69.39 C23.28 68.81, 21.5 68.09, 19.81 67.25 C18.13 66.41, 16.49 65.43, 14.96 64.34 C13.43 63.25, 11.97 62.02, 10.63 60.71 C9.29 59.4, 8.04 57.97, 6.93 56.47 C5.82 54.97, 4.81 53.36, 3.96 51.71 C3.1 50.06, 2.36 48.32, 1.78 46.55 C1.19 44.79, 0.74 42.96, 0.45 41.13 C0.15 39.3, 0 37.42, 0 35.56 C0 33.71, 0.15 31.83, 0.45 30 C0.74 28.17, 1.19 26.34, 1.78 24.57 C2.36 22.81, 3.1 21.07, 3.96 19.42 C4.81 17.77, 5.82 16.16, 6.93 14.66 C8.04 13.16, 9.29 11.73, 10.63 10.42 C11.97 9.11, 13.43 7.88, 14.96 6.79 C16.49 5.7, 18.13 4.72, 19.81 3.88 C21.5 3.03, 23.28 2.31, 25.08 1.74 C26.88 1.17, 28.74 0.73, 30.61 0.44 C32.48 0.15, 34.4 0, 36.29 0 C38.18 0, 40.1 0.15, 41.97 0.44 C43.84 0.73, 45.7 1.17, 47.5 1.74 C49.3 2.31, 51.08 3.03, 52.76 3.88 C54.45 4.72, 56.09 5.7, 57.62 6.79 C59.15 7.88, 60.61 9.11, 61.95 10.42 C63.29 11.73, 64.54 13.16, 65.65 14.66 C66.76 16.16, 67.76 17.77, 68.62 19.42 C69.48 21.07, 70.22 22.81, 70.8 24.57 C71.39 26.34, 71.84 28.17, 72.13 30 C72.43 31.83, 72.5 34.64, 72.58 35.56 C72.65 36.49, 72.65 34.64, 72.58 35.56" stroke="transparent" stroke-width="2" fill="none"></path></g><g stroke-linecap="round" transform="translate(66.03026180169013 316.9003092145949) rotate(0 25.039703153988853 23.225231910946206)"><path d="M50.08 23.23 C50.08 24.57, 49.95 25.93, 49.7 27.26 C49.45 28.58, 49.07 29.91, 48.57 31.17 C48.07 32.43, 47.45 33.67, 46.72 34.84 C46 36, 45.15 37.12, 44.22 38.15 C43.29 39.18, 42.25 40.15, 41.13 41.02 C40.02 41.88, 38.81 42.67, 37.56 43.34 C36.3 44.01, 34.97 44.59, 33.6 45.05 C32.24 45.51, 30.82 45.86, 29.39 46.1 C27.96 46.33, 26.49 46.45, 25.04 46.45 C23.59 46.45, 22.12 46.33, 20.69 46.1 C19.26 45.86, 17.84 45.51, 16.48 45.05 C15.11 44.59, 13.78 44.01, 12.52 43.34 C11.26 42.67, 10.05 41.88, 8.94 41.02 C7.83 40.15, 6.79 39.18, 5.86 38.15 C4.93 37.12, 4.08 36, 3.35 34.84 C2.63 33.67, 2.01 32.43, 1.51 31.17 C1.01 29.91, 0.63 28.58, 0.38 27.26 C0.13 25.93, 0 24.57, 0 23.23 C0 21.88, 0.13 20.52, 0.38 19.19 C0.63 17.87, 1.01 16.55, 1.51 15.28 C2.01 14.02, 2.63 12.78, 3.35 11.61 C4.08 10.45, 4.93 9.33, 5.86 8.3 C6.79 7.27, 7.83 6.3, 8.94 5.43 C10.05 4.57, 11.26 3.78, 12.52 3.11 C13.78 2.44, 15.11 1.86, 16.48 1.4 C17.84 0.94, 19.26 0.59, 20.69 0.35 C22.12 0.12, 23.59 0, 25.04 0 C26.49 0, 27.96 0.12, 29.39 0.35 C30.82 0.59, 32.24 0.94, 33.6 1.4 C34.97 1.86, 36.3 2.44, 37.56 3.11 C38.81 3.78, 40.02 4.57, 41.13 5.43 C42.25 6.3, 43.29 7.27, 44.22 8.3 C45.15 9.33, 46 10.45, 46.72 11.61 C47.45 12.78, 48.07 14.02, 48.57 15.28 C49.07 16.55, 49.45 17.87, 49.7 19.19 C49.95 20.52, 50.02 22.55, 50.08 23.23 C50.14 23.9, 50.14 22.55, 50.08 23.23" stroke="none" stroke-width="0" fill="#ffffff"></path><path d="M50.08 23.23 C50.08 24.57, 49.95 25.93, 49.7 27.26 C49.45 28.58, 49.07 29.91, 48.57 31.17 C48.07 32.43, 47.45 33.67, 46.72 34.84 C46 36, 45.15 37.12, 44.22 38.15 C43.29 39.18, 42.25 40.15, 41.13 41.02 C40.02 41.88, 38.81 42.67, 37.56 43.34 C36.3 44.01, 34.97 44.59, 33.6 45.05 C32.24 45.51, 30.82 45.86, 29.39 46.1 C27.96 46.33, 26.49 46.45, 25.04 46.45 C23.59 46.45, 22.12 46.33, 20.69 46.1 C19.26 45.86, 17.84 45.51, 16.48 45.05 C15.11 44.59, 13.78 44.01, 12.52 43.34 C11.26 42.67, 10.05 41.88, 8.94 41.02 C7.83 40.15, 6.79 39.18, 5.86 38.15 C4.93 37.12, 4.08 36, 3.35 34.84 C2.63 33.67, 2.01 32.43, 1.51 31.17 C1.01 29.91, 0.63 28.58, 0.38 27.26 C0.13 25.93, 0 24.57, 0 23.23 C0 21.88, 0.13 20.52, 0.38 19.19 C0.63 17.87, 1.01 16.55, 1.51 15.28 C2.01 14.02, 2.63 12.78, 3.35 11.61 C4.08 10.45, 4.93 9.33, 5.86 8.3 C6.79 7.27, 7.83 6.3, 8.94 5.43 C10.05 4.57, 11.26 3.78, 12.52 3.11 C13.78 2.44, 15.11 1.86, 16.48 1.4 C17.84 0.94, 19.26 0.59, 20.69 0.35 C22.12 0.12, 23.59 0, 25.04 0 C26.49 0, 27.96 0.12, 29.39 0.35 C30.82 0.59, 32.24 0.94, 33.6 1.4 C34.97 1.86, 36.3 2.44, 37.56 3.11 C38.81 3.78, 40.02 4.57, 41.13 5.43 C42.25 6.3, 43.29 7.27, 44.22 8.3 C45.15 9.33, 46 10.45, 46.72 11.61 C47.45 12.78, 48.07 14.02, 48.57 15.28 C49.07 16.55, 49.45 17.87, 49.7 19.19 C49.95 20.52, 50.02 22.55, 50.08 23.23 C50.14 23.9, 50.14 22.55, 50.08 23.23" stroke="transparent" stroke-width="2" fill="none"></path></g></svg>