<svg version="1.1" xmlns="http://www.w3.org/2000/svg" viewBox="0 0 813.1514662226623 419.15114043254346" width="1626.3029324453246" height="838.3022808650869">
  <!-- svg-source:excalidraw -->
  
  <defs>
    <style class="style-fonts">
      @font-face {
        font-family: "Virgil";
        src: url("https://excalidraw.com/Virgil.woff2");
      }
      @font-face {
        font-family: "Cascadia";
        src: url("https://excalidraw.com/Cascadia.woff2");
      }
      @font-face {
        font-family: "Assistant";
        src: url("https://excalidraw.com/Assistant-Regular.woff2");
      }
    </style>
    
  </defs>
  <g stroke-linecap="round" transform="translate(10.301696875026892 44.16130270447729) rotate(0 67.52231618823487 62.69887703646913)"><path d="M31.35 0 C47.06 -2.2, 66.16 -3.3, 103.7 0 C127.19 -1.29, 133.65 11.24, 135.04 31.35 C135.08 42.64, 133.96 60.23, 135.04 94.05 C132.38 116.21, 127.07 125.33, 103.7 125.4 C90.66 123.28, 75.46 127.63, 31.35 125.4 C12.16 128.81, -1.45 114.88, 0 94.05 C2.39 76.49, -0.3 60.64, 0 31.35 C-1.59 7.93, 11.3 3.33, 31.35 0" stroke="none" stroke-width="0" fill="#ebfbee"></path><path d="M31.35 0 C46.78 0.36, 60.22 -0.13, 103.7 0 M31.35 0 C51.75 0.68, 72.67 0.86, 103.7 0 M103.7 0 C122.65 -0.2, 135.65 12.24, 135.04 31.35 M103.7 0 C123.18 0.98, 134.07 10.42, 135.04 31.35 M135.04 31.35 C133.4 52.74, 136.54 71.84, 135.04 94.05 M135.04 31.35 C135.42 44.58, 134.37 60.16, 135.04 94.05 M135.04 94.05 C136.91 115.68, 126.35 125.14, 103.7 125.4 M135.04 94.05 C132.95 115.93, 124.87 123.36, 103.7 125.4 M103.7 125.4 C78 124.54, 54.54 124.61, 31.35 125.4 M103.7 125.4 C88.03 124.65, 71.17 124.38, 31.35 125.4 M31.35 125.4 C11.8 126.79, 0.9 114.27, 0 94.05 M31.35 125.4 C11.48 127.63, 0.96 115.78, 0 94.05 M0 94.05 C0.37 78.63, -2.17 60.91, 0 31.35 M0 94.05 C-0.63 79.84, -0.77 65.32, 0 31.35 M0 31.35 C-1.39 9.6, 8.75 -0.07, 31.35 0 M0 31.35 C-0.01 11.52, 12.1 1.2, 31.35 0" stroke="#2f9e44" stroke-width="1" fill="none"></path></g><g stroke-linecap="round"><g transform="translate(10.882552532106729 69.49224615248215) rotate(0 11.629585028747215 -11.629585028747272)"><path d="M-0.88 0.71 C2.85 0.56, 19.35 2.38, 23.37 -1.43 C27.4 -5.25, 23.26 -18.66, 23.25 -22.18 M0.85 0.03 C4.4 -0.44, 19.14 0.6, 22.75 -3.4 C26.35 -7.39, 22.33 -20.39, 22.48 -23.96" stroke="#2f9e44" stroke-width="1" fill="none"></path></g></g><mask></mask><g transform="translate(22.247191825592836 77.49722655249923) rotate(0 55.96160888671875 38.24560464460916)"><text x="0" y="0" font-family="Cascadia, Segoe UI Emoji" font-size="12.74853488153639px" fill="#2f9e44" text-anchor="start" style="white-space: pre;" direction="ltr" dominant-baseline="text-before-edge">function main()</text><text x="0" y="15.298241857843667" font-family="Cascadia, Segoe UI Emoji" font-size="12.74853488153639px" fill="#2f9e44" text-anchor="start" style="white-space: pre;" direction="ltr" dominant-baseline="text-before-edge">{</text><text x="0" y="30.596483715687334" font-family="Cascadia, Segoe UI Emoji" font-size="12.74853488153639px" fill="#2f9e44" text-anchor="start" style="white-space: pre;" direction="ltr" dominant-baseline="text-before-edge">  ......</text><text x="0" y="45.894725573531005" font-family="Cascadia, Segoe UI Emoji" font-size="12.74853488153639px" fill="#2f9e44" text-anchor="start" style="white-space: pre;" direction="ltr" dominant-baseline="text-before-edge">  ......</text><text x="0" y="61.19296743137467" font-family="Cascadia, Segoe UI Emoji" font-size="12.74853488153639px" fill="#2f9e44" text-anchor="start" style="white-space: pre;" direction="ltr" dominant-baseline="text-before-edge">}</text></g><g transform="translate(23.754524034177848 10) rotate(0 50.479942321777344 12.5)"><text x="0" y="0" font-family="Virgil, Segoe UI Emoji" font-size="20px" fill="#868e96" text-anchor="start" style="white-space: pre;" direction="ltr" dominant-baseline="text-before-edge">User Code</text></g><g stroke-opacity="0.4" fill-opacity="0.4" transform="translate(320.3471565308257 360.8564713921729) rotate(0 88.984375 17.5)"><text x="0" y="0" font-family="Virgil, Segoe UI Emoji" font-size="28px" fill="#f08c00" text-anchor="start" style="white-space: pre;" direction="ltr" dominant-baseline="text-before-edge">@hemashushu</text></g><g stroke-linecap="round" transform="translate(720.4629302316393 265.3807691788436) rotate(0 41.344267995511586 41.344267995511586)"><path d="M39.54 1.03 C46.46 0.33, 55.64 2.76, 62.21 6.37 C68.78 9.98, 75.63 16.17, 78.94 22.67 C82.25 29.17, 82.94 37.87, 82.05 45.38 C81.17 52.88, 78.09 61.92, 73.63 67.69 C69.17 73.45, 62.27 77.58, 55.3 79.98 C48.33 82.38, 39.29 83.79, 31.81 82.07 C24.34 80.36, 15.56 75.26, 10.46 69.67 C5.35 64.08, 2.27 55.74, 1.18 48.53 C0.1 41.33, 1.13 33.33, 3.94 26.42 C6.75 19.5, 11.15 11.28, 18.04 7.05 C24.93 2.81, 39.86 1.94, 45.27 1.02 C50.68 0.1, 50.7 0.87, 50.5 1.53 M35.1 1.13 C41.88 -0.55, 49.97 0.17, 56.95 3.02 C63.93 5.88, 72.69 12.15, 76.99 18.28 C81.28 24.42, 82.93 32.54, 82.73 39.84 C82.52 47.14, 79.45 55.52, 75.75 62.09 C72.05 68.66, 67.07 75.9, 60.52 79.25 C53.97 82.6, 44.15 83.04, 36.43 82.19 C28.71 81.35, 19.74 78.91, 14.19 74.18 C8.64 69.45, 5.46 60.97, 3.13 53.81 C0.81 46.65, -1.65 38.23, 0.23 31.21 C2.11 24.19, 8.84 16.65, 14.4 11.7 C19.97 6.75, 30.22 3.24, 33.62 1.53 C37.02 -0.17, 34.31 0.98, 34.81 1.46" stroke="none" stroke-width="0" fill="#e7f5ff"></path><path d="M59.84 4.7 C66.51 7.51, 74.04 14.73, 77.94 21.17 C81.83 27.61, 83.66 35.95, 83.21 43.32 C82.76 50.69, 79.64 59.2, 75.25 65.39 C70.85 71.58, 63.95 77.72, 56.84 80.46 C49.73 83.19, 39.82 83.48, 32.58 81.81 C25.35 80.14, 18.56 75.68, 13.42 70.44 C8.28 65.19, 3.7 57.49, 1.74 50.36 C-0.23 43.22, -0.61 34.46, 1.65 27.63 C3.92 20.79, 9.36 14.05, 15.3 9.36 C21.25 4.68, 28.52 -0.56, 37.33 -0.46 C46.14 -0.35, 61.7 6.87, 68.14 9.99 C74.58 13.12, 76.32 17.56, 75.96 18.3 M50 2.13 C57.26 3.32, 65.47 7.23, 70.76 12.55 C76.06 17.87, 80.04 27.04, 81.76 34.06 C83.48 41.08, 83.87 47.72, 81.08 54.68 C78.29 61.65, 71.37 70.99, 65 75.86 C58.64 80.73, 49.99 83.79, 42.91 83.89 C35.84 84, 28.88 80.53, 22.55 76.46 C16.21 72.39, 8.89 65.85, 4.91 59.49 C0.92 53.12, -2.13 45.7, -1.36 38.26 C-0.6 30.82, 4.85 20.99, 9.49 14.86 C14.14 8.73, 19.76 3.57, 26.51 1.48 C33.26 -0.61, 45.99 2.18, 49.98 2.32 C53.96 2.46, 50.33 1.73, 50.43 2.31" stroke="#1e1e1e" stroke-width="1" fill="none"></path></g><g stroke-linecap="round" transform="translate(738.9722862198976 266.18552378702816) rotate(0 22.734317681230095 40.841296365395806)"><path d="M15.77 2.07 C19.48 -0.84, 24.83 0.22, 28.98 2.63 C33.13 5.04, 37.8 10.37, 40.67 16.54 C43.53 22.7, 46.11 31.78, 46.18 39.63 C46.25 47.49, 43.74 56.96, 41.1 63.66 C38.47 70.36, 34.37 77.21, 30.37 79.85 C26.36 82.49, 21.25 81.76, 17.07 79.52 C12.88 77.29, 8.21 72.7, 5.24 66.45 C2.27 60.21, -0.63 50.24, -0.76 42.07 C-0.9 33.91, 0.82 24.33, 4.43 17.49 C8.04 10.64, 17.38 3.81, 20.9 0.99 C24.41 -1.83, 25.61 -0.12, 25.53 0.58 M25.46 -0.36 C29.76 -0.27, 34.02 3.76, 37.32 9.12 C40.62 14.49, 44.33 24.03, 45.26 31.85 C46.18 39.67, 44.46 48.75, 42.9 56.04 C41.35 63.33, 39.58 71.46, 35.93 75.59 C32.28 79.72, 25.81 81.61, 21.02 80.84 C16.23 80.08, 10.38 75.96, 7.19 70.99 C4.01 66.02, 2.8 58.7, 1.92 51.05 C1.04 43.4, 0.54 32.4, 1.91 25.07 C3.28 17.75, 6.19 11.27, 10.15 7.12 C14.12 2.97, 23.54 1.09, 25.72 0.18 C27.9 -0.72, 23.34 0.85, 23.23 1.69" stroke="none" stroke-width="0" fill="#e7f5ff"></path><path d="M23.62 0.31 C28.05 -0.21, 33.31 3.12, 36.83 7.81 C40.36 12.5, 43.47 20.68, 44.77 28.45 C46.07 36.23, 46.22 46.86, 44.63 54.46 C43.03 62.05, 38.76 69.58, 35.21 74 C31.66 78.43, 27.53 81.14, 23.3 81 C19.07 80.86, 13.65 77.79, 9.83 73.15 C6.01 68.5, 1.91 60.56, 0.36 53.13 C-1.19 45.69, -0.96 36.22, 0.52 28.53 C2 20.84, 5.04 11.72, 9.23 6.96 C13.43 2.21, 22.11 0.76, 25.71 0.01 C29.3 -0.75, 30.76 1.54, 30.79 2.44 M27.3 2.12 C31.72 3.45, 36.77 8.08, 39.78 14.11 C42.78 20.13, 44.72 30.57, 45.32 38.27 C45.92 45.97, 45.8 53.41, 43.39 60.29 C40.98 67.18, 35.31 75.97, 30.86 79.58 C26.41 83.19, 20.65 84.11, 16.67 81.97 C12.68 79.84, 9.7 73.23, 6.94 66.77 C4.18 60.32, 0.97 50.98, 0.1 43.21 C-0.78 35.45, -0.75 27.05, 1.7 20.16 C4.15 13.27, 10.58 5.24, 14.8 1.87 C19.03 -1.49, 24.99 -0.22, 27.05 -0.02 C29.12 0.19, 27.11 2.19, 27.17 3.1" stroke="#1e1e1e" stroke-width="1" fill="none"></path></g><g stroke-linecap="round"><g transform="translate(761.5054152490814 265.17958052679717) rotate(0 0 41.04248501744212)"><path d="M0.02 -0.77 C-0.17 13.06, -0.06 68.98, 0 82.9 M-1.43 1.44 C-1.88 14.95, -1.15 67.98, -0.94 81.21" stroke="#1e1e1e" stroke-width="1" fill="none"></path></g></g><mask></mask><g stroke-linecap="round"><g transform="translate(725.8950238368895 285.70082303551794) rotate(0 35.208014108099746 0)"><path d="M0 0.82 C11.8 1.06, 59.09 0.76, 70.79 0.69 M-1.46 0.2 C10.21 0.17, 58.24 -0.75, 70.03 -1.07" stroke="#1e1e1e" stroke-width="1" fill="none"></path></g></g><mask></mask><g stroke-linecap="round"><g transform="translate(726.9984431242831 328.17973325072455) rotate(0 35.208014108099746 0)"><path d="M0.37 0.69 C12.07 0.63, 58.52 0.47, 70.17 0.42 M-0.89 0.01 C10.62 -0.5, 57.37 -1.19, 69.1 -1.48" stroke="#1e1e1e" stroke-width="1" fill="none"></path></g></g><mask></mask><g stroke-linecap="round"><g transform="translate(720.6655833991463 307.5538600569628) rotate(0 41.04175275971181 0)"><path d="M-0.24 0.42 C13.35 0.37, 68.1 0.61, 81.95 0.4 M-1.83 -0.4 C11.57 -0.88, 66.87 -1.58, 80.93 -1.51" stroke="#1e1e1e" stroke-width="1" fill="none"></path></g></g><mask></mask><g stroke-linecap="round" transform="translate(726.4356592599461 131.48326879385093) rotate(0 33.126278055014154 17.377719635417236)"><path d="M8.69 0 C24.24 -2.28, 36.05 2.86, 57.56 0 C63.24 0.11, 64.53 0.98, 66.25 8.69 C66.92 12.44, 65.1 19.19, 66.25 26.07 C69.21 32.01, 60.41 36.57, 57.56 34.76 C42.93 34.13, 23.78 37.29, 8.69 34.76 C2.41 31.91, 1.96 29.6, 0 26.07 C-1 18.81, 2.69 17.56, 0 8.69 C-3.14 4.75, 5.52 2.5, 8.69 0" stroke="none" stroke-width="0" fill="#e7f5ff"></path><path d="M8.69 0 C23.03 1.36, 34.59 -0.13, 57.56 0 M8.69 0 C26.56 -0.99, 45.49 -0.96, 57.56 0 M57.56 0 C64.66 -0.6, 65 1.31, 66.25 8.69 M57.56 0 C62.08 2.23, 65.19 2.35, 66.25 8.69 M66.25 8.69 C65.21 14.83, 67.63 21.94, 66.25 26.07 M66.25 8.69 C66.89 13.34, 65.75 20.33, 66.25 26.07 M66.25 26.07 C64.83 33.58, 65.08 33.4, 57.56 34.76 M66.25 26.07 C66.25 29.72, 61.07 35.03, 57.56 34.76 M57.56 34.76 C38.09 33.92, 23.08 34.77, 8.69 34.76 M57.56 34.76 C40.6 35.86, 24.93 35.72, 8.69 34.76 M8.69 34.76 C2.24 34.52, 1.99 31.77, 0 26.07 M8.69 34.76 C4.49 36.41, 0.06 30.89, 0 26.07 M0 26.07 C1.22 20.24, 0.85 17.32, 0 8.69 M0 26.07 C-0.31 22.95, 0.61 18.72, 0 8.69 M0 8.69 C-0.92 3.19, 4.58 0.31, 8.69 0 M0 8.69 C-0.72 1.4, 4.39 -0.74, 8.69 0" stroke="#000000" stroke-width="1" fill="none"></path></g><g stroke-linecap="round" transform="translate(733.6039686095571 142.34434356598445) rotate(0 6.516644863281499 6.516644863281442)"><path d="M13.03 6.52 C13.03 6.89, 13 7.28, 12.93 7.65 C12.87 8.02, 12.77 8.39, 12.64 8.75 C12.51 9.1, 12.35 9.45, 12.16 9.77 C11.97 10.1, 11.75 10.42, 11.51 10.71 C11.27 10.99, 10.99 11.27, 10.71 11.51 C10.42 11.75, 10.1 11.97, 9.77 12.16 C9.45 12.35, 9.1 12.51, 8.75 12.64 C8.39 12.77, 8.02 12.87, 7.65 12.93 C7.28 13, 6.89 13.03, 6.52 13.03 C6.14 13.03, 5.76 13, 5.39 12.93 C5.01 12.87, 4.64 12.77, 4.29 12.64 C3.93 12.51, 3.58 12.35, 3.26 12.16 C2.93 11.97, 2.62 11.75, 2.33 11.51 C2.04 11.27, 1.77 10.99, 1.52 10.71 C1.28 10.42, 1.06 10.1, 0.87 9.77 C0.68 9.45, 0.52 9.1, 0.39 8.75 C0.26 8.39, 0.16 8.02, 0.1 7.65 C0.03 7.28, 0 6.89, 0 6.52 C0 6.14, 0.03 5.76, 0.1 5.39 C0.16 5.01, 0.26 4.64, 0.39 4.29 C0.52 3.93, 0.68 3.58, 0.87 3.26 C1.06 2.93, 1.28 2.62, 1.52 2.33 C1.77 2.04, 2.04 1.77, 2.33 1.52 C2.62 1.28, 2.93 1.06, 3.26 0.87 C3.58 0.68, 3.93 0.52, 4.29 0.39 C4.64 0.26, 5.01 0.16, 5.39 0.1 C5.76 0.03, 6.14 0, 6.52 0 C6.89 0, 7.28 0.03, 7.65 0.1 C8.02 0.16, 8.39 0.26, 8.75 0.39 C9.1 0.52, 9.45 0.68, 9.77 0.87 C10.1 1.06, 10.42 1.28, 10.71 1.52 C10.99 1.77, 11.27 2.04, 11.51 2.33 C11.75 2.62, 11.97 2.93, 12.16 3.26 C12.35 3.58, 12.51 3.93, 12.64 4.29 C12.77 4.64, 12.87 5.01, 12.93 5.39 C13 5.76, 13.02 6.33, 13.03 6.52 C13.05 6.71, 13.05 6.33, 13.03 6.52" stroke="none" stroke-width="0" fill="#fff"></path><path d="M13.03 6.52 C13.03 6.89, 13 7.28, 12.93 7.65 C12.87 8.02, 12.77 8.39, 12.64 8.75 C12.51 9.1, 12.35 9.45, 12.16 9.77 C11.97 10.1, 11.75 10.42, 11.51 10.71 C11.27 10.99, 10.99 11.27, 10.71 11.51 C10.42 11.75, 10.1 11.97, 9.77 12.16 C9.45 12.35, 9.1 12.51, 8.75 12.64 C8.39 12.77, 8.02 12.87, 7.65 12.93 C7.28 13, 6.89 13.03, 6.52 13.03 C6.14 13.03, 5.76 13, 5.39 12.93 C5.01 12.87, 4.64 12.77, 4.29 12.64 C3.93 12.51, 3.58 12.35, 3.26 12.16 C2.93 11.97, 2.62 11.75, 2.33 11.51 C2.04 11.27, 1.77 10.99, 1.52 10.71 C1.28 10.42, 1.06 10.1, 0.87 9.77 C0.68 9.45, 0.52 9.1, 0.39 8.75 C0.26 8.39, 0.16 8.02, 0.1 7.65 C0.03 7.28, 0 6.89, 0 6.52 C0 6.14, 0.03 5.76, 0.1 5.39 C0.16 5.01, 0.26 4.64, 0.39 4.29 C0.52 3.93, 0.68 3.58, 0.87 3.26 C1.06 2.93, 1.28 2.62, 1.52 2.33 C1.77 2.04, 2.04 1.77, 2.33 1.52 C2.62 1.28, 2.93 1.06, 3.26 0.87 C3.58 0.68, 3.93 0.52, 4.29 0.39 C4.64 0.26, 5.01 0.16, 5.39 0.1 C5.76 0.03, 6.14 0, 6.52 0 C6.89 0, 7.28 0.03, 7.65 0.1 C8.02 0.16, 8.39 0.26, 8.75 0.39 C9.1 0.52, 9.45 0.68, 9.77 0.87 C10.1 1.06, 10.42 1.28, 10.71 1.52 C10.99 1.77, 11.27 2.04, 11.51 2.33 C11.75 2.62, 11.97 2.93, 12.16 3.26 C12.35 3.58, 12.51 3.93, 12.64 4.29 C12.77 4.64, 12.87 5.01, 12.93 5.39 C13 5.76, 13.02 6.33, 13.03 6.52 C13.05 6.71, 13.05 6.33, 13.03 6.52" stroke="#000000" stroke-width="2" fill="none"></path></g><g stroke-linecap="round" transform="translate(773.1382807801288 142.34434356598445) rotate(0 6.516644863281499 6.516644863281442)"><path d="M13.03 6.52 C13.03 6.89, 13 7.28, 12.93 7.65 C12.87 8.02, 12.77 8.39, 12.64 8.75 C12.51 9.1, 12.35 9.45, 12.16 9.77 C11.97 10.1, 11.75 10.42, 11.51 10.71 C11.27 10.99, 10.99 11.27, 10.71 11.51 C10.42 11.75, 10.1 11.97, 9.77 12.16 C9.45 12.35, 9.1 12.51, 8.75 12.64 C8.39 12.77, 8.02 12.87, 7.65 12.93 C7.28 13, 6.89 13.03, 6.52 13.03 C6.14 13.03, 5.76 13, 5.39 12.93 C5.01 12.87, 4.64 12.77, 4.29 12.64 C3.93 12.51, 3.58 12.35, 3.26 12.16 C2.93 11.97, 2.62 11.75, 2.33 11.51 C2.04 11.27, 1.77 10.99, 1.52 10.71 C1.28 10.42, 1.06 10.1, 0.87 9.77 C0.68 9.45, 0.52 9.1, 0.39 8.75 C0.26 8.39, 0.16 8.02, 0.1 7.65 C0.03 7.28, 0 6.89, 0 6.52 C0 6.14, 0.03 5.76, 0.1 5.39 C0.16 5.01, 0.26 4.64, 0.39 4.29 C0.52 3.93, 0.68 3.58, 0.87 3.26 C1.06 2.93, 1.28 2.62, 1.52 2.33 C1.77 2.04, 2.04 1.77, 2.33 1.52 C2.62 1.28, 2.93 1.06, 3.26 0.87 C3.58 0.68, 3.93 0.52, 4.29 0.39 C4.64 0.26, 5.01 0.16, 5.39 0.1 C5.76 0.03, 6.14 0, 6.52 0 C6.89 0, 7.28 0.03, 7.65 0.1 C8.02 0.16, 8.39 0.26, 8.75 0.39 C9.1 0.52, 9.45 0.68, 9.77 0.87 C10.1 1.06, 10.42 1.28, 10.71 1.52 C10.99 1.77, 11.27 2.04, 11.51 2.33 C11.75 2.62, 11.97 2.93, 12.16 3.26 C12.35 3.58, 12.51 3.93, 12.64 4.29 C12.77 4.64, 12.87 5.01, 12.93 5.39 C13 5.76, 13.02 6.33, 13.03 6.52 C13.05 6.71, 13.05 6.33, 13.03 6.52" stroke="none" stroke-width="0" fill="#ffffff"></path><path d="M13.03 6.52 C13.03 6.89, 13 7.28, 12.93 7.65 C12.87 8.02, 12.77 8.39, 12.64 8.75 C12.51 9.1, 12.35 9.45, 12.16 9.77 C11.97 10.1, 11.75 10.42, 11.51 10.71 C11.27 10.99, 10.99 11.27, 10.71 11.51 C10.42 11.75, 10.1 11.97, 9.77 12.16 C9.45 12.35, 9.1 12.51, 8.75 12.64 C8.39 12.77, 8.02 12.87, 7.65 12.93 C7.28 13, 6.89 13.03, 6.52 13.03 C6.14 13.03, 5.76 13, 5.39 12.93 C5.01 12.87, 4.64 12.77, 4.29 12.64 C3.93 12.51, 3.58 12.35, 3.26 12.16 C2.93 11.97, 2.62 11.75, 2.33 11.51 C2.04 11.27, 1.77 10.99, 1.52 10.71 C1.28 10.42, 1.06 10.1, 0.87 9.77 C0.68 9.45, 0.52 9.1, 0.39 8.75 C0.26 8.39, 0.16 8.02, 0.1 7.65 C0.03 7.28, 0 6.89, 0 6.52 C0 6.14, 0.03 5.76, 0.1 5.39 C0.16 5.01, 0.26 4.64, 0.39 4.29 C0.52 3.93, 0.68 3.58, 0.87 3.26 C1.06 2.93, 1.28 2.62, 1.52 2.33 C1.77 2.04, 2.04 1.77, 2.33 1.52 C2.62 1.28, 2.93 1.06, 3.26 0.87 C3.58 0.68, 3.93 0.52, 4.29 0.39 C4.64 0.26, 5.01 0.16, 5.39 0.1 C5.76 0.03, 6.14 0, 6.52 0 C6.89 0, 7.28 0.03, 7.65 0.1 C8.02 0.16, 8.39 0.26, 8.75 0.39 C9.1 0.52, 9.45 0.68, 9.77 0.87 C10.1 1.06, 10.42 1.28, 10.71 1.52 C10.99 1.77, 11.27 2.04, 11.51 2.33 C11.75 2.62, 11.97 2.93, 12.16 3.26 C12.35 3.58, 12.51 3.93, 12.64 4.29 C12.77 4.64, 12.87 5.01, 12.93 5.39 C13 5.76, 13.02 6.33, 13.03 6.52 C13.05 6.71, 13.05 6.33, 13.03 6.52" stroke="#000000" stroke-width="2" fill="none"></path></g><g stroke-linecap="round"><g transform="translate(754.5491335739794 166.347318812411) rotate(0 0 3.676056076722773)"><path d="M0 0 C0 1.23, 0 6.13, 0 7.35 M0 0 C0 1.23, 0 6.13, 0 7.35" stroke="#000000" stroke-width="2" fill="none"></path></g></g><mask></mask><g stroke-linecap="round"><g transform="translate(763.9063672238153 166.41415619561678) rotate(0 0 3.676056076722773)"><path d="M0 0 C0 1.23, 0 6.13, 0 7.35 M0 0 C0 1.23, 0 6.13, 0 7.35" stroke="#000000" stroke-width="2" fill="none"></path></g></g><mask></mask><g stroke-linecap="round"><g transform="translate(735.3010131687438 124.17293000491316) rotate(0 17.033073117847835 -3.0076822445914217)" fill-rule="evenodd"><path d="M-0.5 0.79 L-1.93 -19.68 L33.65 -18.23 L34.27 0.32 L18.12 -0.91 L18.07 10.24 L13 -0.6 L-0.09 -1.13" stroke="none" stroke-width="0" fill="#ffec99" fill-rule="evenodd"></path><path d="M-1.18 1.18 C-0.41 -5.6, -1.3 -9.94, 1.75 -18.88 M-0.84 -0.58 C-0.41 -4.31, -0.17 -9.84, -0.03 -17.33 M1.64 -19.47 C14.46 -16.13, 24.13 -17.85, 32.21 -20.03 M-0.45 -18.73 C10.32 -16.85, 21.37 -17.39, 34.77 -17.52 M35.35 -18.64 C34.01 -12.08, 34.14 -8.46, 35.37 0.05 M34.58 -17.41 C33.56 -12.95, 34.59 -9.43, 34.06 0.44 M34.75 -0.7 C30.29 1.38, 26.31 -0.37, 17.94 0.98 M34.28 0.3 C29.59 -0.26, 26.61 -0.09, 18.95 -0.36 M19.43 0.15 C18.7 2.43, 19.71 6.93, 18.98 11.04 M18.5 0.4 C18.98 4.26, 19.51 8.35, 18.45 12.36 M18.78 11.59 C16.36 10.32, 16.32 5.15, 13.56 0.98 M18.38 11.44 C16.06 7, 14.29 3.39, 12.67 -0.31 M12.92 -0.06 C9.56 0.74, 6.64 -0.89, -1.18 0.93 M12.92 -0.17 C7.9 0.6, 3.97 0.12, -0.01 -0.29 M0 0 C0 0, 0 0, 0 0 M0 0 C0 0, 0 0, 0 0" stroke="#000000" stroke-width="1" fill="none"></path></g></g><mask></mask><g stroke-linecap="round"><g transform="translate(741.7163559970552 113.14476177474978) rotate(88.7546357332314 0 2.3393084124599)"><path d="M0 0 C0 0.78, 0 3.9, 0 4.68 M0 0 C0 0.78, 0 3.9, 0 4.68" stroke="#000000" stroke-width="2" fill="none"></path></g></g><mask></mask><g stroke-linecap="round"><g transform="translate(762.0673305730315 113.14476177474228) rotate(88.7546357332314 0 2.3393084124599)"><path d="M0 0 C0 0.78, 0 3.9, 0 4.68 M0 0 C0 0.78, 0 3.9, 0 4.68" stroke="#000000" stroke-width="2" fill="none"></path></g></g><mask></mask><g stroke-linecap="round"><g transform="translate(751.8918432850448 113.14476177474978) rotate(88.7546357332314 0 2.3393084124599)"><path d="M0 0 C0 0.78, 0 3.9, 0 4.68 M0 0 C0 0.78, 0 3.9, 0 4.68" stroke="#000000" stroke-width="2" fill="none"></path></g></g><mask></mask><g stroke-linecap="round"><g transform="translate(794.5174554056525 142.32506225850705) rotate(0 2.3698656332672954 7.465076744791872)"><path d="M0 0 C0.35 0.17, 1.36 0.43, 2.07 1.04 C2.79 1.65, 3.8 2.52, 4.3 3.65 C4.79 4.77, 5.06 6.51, 5.04 7.81 C5.01 9.11, 4.67 10.5, 4.15 11.46 C3.63 12.41, 2.67 12.96, 1.93 13.54 C1.18 14.12, 0.07 14.7, -0.3 14.93 M0 0 C0.35 0.17, 1.36 0.43, 2.07 1.04 C2.79 1.65, 3.8 2.52, 4.3 3.65 C4.79 4.77, 5.06 6.51, 5.04 7.81 C5.01 9.11, 4.67 10.5, 4.15 11.46 C3.63 12.41, 2.67 12.96, 1.93 13.54 C1.18 14.12, 0.07 14.7, -0.3 14.93" stroke="#000000" stroke-width="2" fill="none"></path></g></g><mask></mask><g stroke-linecap="round"><g transform="translate(724.0731994567825 142.32506225850705) rotate(0 -2.3698656332672954 7.465076744791872)"><path d="M0 0 C-0.35 0.17, -1.36 0.43, -2.07 1.04 C-2.79 1.65, -3.8 2.52, -4.3 3.65 C-4.79 4.77, -5.06 6.51, -5.04 7.81 C-5.01 9.11, -4.67 10.5, -4.15 11.46 C-3.63 12.41, -2.67 12.96, -1.93 13.54 C-1.18 14.12, -0.07 14.7, 0.3 14.93 M0 0 C-0.35 0.17, -1.36 0.43, -2.07 1.04 C-2.79 1.65, -3.8 2.52, -4.3 3.65 C-4.79 4.77, -5.06 6.51, -5.04 7.81 C-5.01 9.11, -4.67 10.5, -4.15 11.46 C-3.63 12.41, -2.67 12.96, -1.93 13.54 C-1.18 14.12, -0.07 14.7, 0.3 14.93" stroke="#000000" stroke-width="2" fill="none"></path></g></g><mask></mask><g stroke-linecap="round"><g transform="translate(360.58854299207087 209.98622467595578) rotate(0 -15.07488939973507 16.118535588947452)" fill-rule="evenodd"><path d="M0 0 C-0.77 0.43, -3.21 2.44, -4.64 2.55 C-6.07 2.67, -7.89 1.82, -8.58 0.7 C-9.28 -0.43, -7.65 -3.29, -8.81 -4.17 C-9.97 -5.06, -14.15 -5.26, -15.54 -4.64 C-16.93 -4.02, -16.23 -1.35, -17.16 -0.46 C-18.09 0.43, -19.83 0.97, -21.1 0.7 C-22.38 0.43, -23.27 -1.89, -24.82 -2.09 C-26.36 -2.28, -29.69 -1.82, -30.38 -0.46 C-31.08 0.89, -28.87 4.41, -28.99 6.03 C-29.11 7.65, -29.84 8.77, -31.08 9.28 C-32.31 9.78, -35.52 7.65, -36.41 9.04 C-37.3 10.44, -37.03 16.35, -36.41 17.63 C-35.79 18.9, -33.78 16.12, -32.7 16.7 C-31.62 17.28, -29.69 19.64, -29.92 21.1 C-30.15 22.57, -33.9 23.69, -34.09 25.51 C-34.29 27.33, -32.39 31.39, -31.08 32.01 C-29.76 32.62, -27.71 29.38, -26.21 29.22 C-24.7 29.07, -22.77 29.88, -22.03 31.08 C-21.3 32.28, -22.92 35.45, -21.8 36.41 C-20.68 37.38, -16.62 37.53, -15.31 36.88 C-13.99 36.22, -14.96 33.36, -13.92 32.47 C-12.87 31.58, -10.59 31.08, -9.04 31.54 C-7.5 32.01, -6.07 35.17, -4.64 35.25 C-3.21 35.33, -0.93 33.32, -0.46 32.01 C0 30.69, -1.93 28.76, -1.86 27.37 C-1.78 25.98, -1.35 24.24, 0 23.66 C1.35 23.08, 5.22 25.12, 6.26 23.89 C7.31 22.65, 7.11 17.7, 6.26 16.23 C5.41 14.77, 2.13 16.04, 1.16 15.07 C0.19 14.11, 0 11.98, 0.46 10.44 C0.93 8.89, 4.02 7.54, 3.94 5.8 C3.87 4.06, 0.66 0.97, 0 0" stroke="none" stroke-width="0" fill="#228be6" fill-rule="evenodd"></path><path d="M0 0 C-0.77 0.43, -3.21 2.44, -4.64 2.55 C-6.07 2.67, -7.89 1.82, -8.58 0.7 C-9.28 -0.43, -7.65 -3.29, -8.81 -4.17 C-9.97 -5.06, -14.15 -5.26, -15.54 -4.64 C-16.93 -4.02, -16.23 -1.35, -17.16 -0.46 C-18.09 0.43, -19.83 0.97, -21.1 0.7 C-22.38 0.43, -23.27 -1.89, -24.82 -2.09 C-26.36 -2.28, -29.69 -1.82, -30.38 -0.46 C-31.08 0.89, -28.87 4.41, -28.99 6.03 C-29.11 7.65, -29.84 8.77, -31.08 9.28 C-32.31 9.78, -35.52 7.65, -36.41 9.04 C-37.3 10.44, -37.03 16.35, -36.41 17.63 C-35.79 18.9, -33.78 16.12, -32.7 16.7 C-31.62 17.28, -29.69 19.64, -29.92 21.1 C-30.15 22.57, -33.9 23.69, -34.09 25.51 C-34.29 27.33, -32.39 31.39, -31.08 32.01 C-29.76 32.62, -27.71 29.38, -26.21 29.22 C-24.7 29.07, -22.77 29.88, -22.03 31.08 C-21.3 32.28, -22.92 35.45, -21.8 36.41 C-20.68 37.38, -16.62 37.53, -15.31 36.88 C-13.99 36.22, -14.96 33.36, -13.92 32.47 C-12.87 31.58, -10.59 31.08, -9.04 31.54 C-7.5 32.01, -6.07 35.17, -4.64 35.25 C-3.21 35.33, -0.93 33.32, -0.46 32.01 C0 30.69, -1.93 28.76, -1.86 27.37 C-1.78 25.98, -1.35 24.24, 0 23.66 C1.35 23.08, 5.22 25.12, 6.26 23.89 C7.31 22.65, 7.11 17.7, 6.26 16.23 C5.41 14.77, 2.13 16.04, 1.16 15.07 C0.19 14.11, 0 11.98, 0.46 10.44 C0.93 8.89, 4.02 7.54, 3.94 5.8 C3.87 4.06, 0.66 0.97, 0 0 M0 0 C-0.77 0.43, -3.21 2.44, -4.64 2.55 C-6.07 2.67, -7.89 1.82, -8.58 0.7 C-9.28 -0.43, -7.65 -3.29, -8.81 -4.17 C-9.97 -5.06, -14.15 -5.26, -15.54 -4.64 C-16.93 -4.02, -16.23 -1.35, -17.16 -0.46 C-18.09 0.43, -19.83 0.97, -21.1 0.7 C-22.38 0.43, -23.27 -1.89, -24.82 -2.09 C-26.36 -2.28, -29.69 -1.82, -30.38 -0.46 C-31.08 0.89, -28.87 4.41, -28.99 6.03 C-29.11 7.65, -29.84 8.77, -31.08 9.28 C-32.31 9.78, -35.52 7.65, -36.41 9.04 C-37.3 10.44, -37.03 16.35, -36.41 17.63 C-35.79 18.9, -33.78 16.12, -32.7 16.7 C-31.62 17.28, -29.69 19.64, -29.92 21.1 C-30.15 22.57, -33.9 23.69, -34.09 25.51 C-34.29 27.33, -32.39 31.39, -31.08 32.01 C-29.76 32.62, -27.71 29.38, -26.21 29.22 C-24.7 29.07, -22.77 29.88, -22.03 31.08 C-21.3 32.28, -22.92 35.45, -21.8 36.41 C-20.68 37.38, -16.62 37.53, -15.31 36.88 C-13.99 36.22, -14.96 33.36, -13.92 32.47 C-12.87 31.58, -10.59 31.08, -9.04 31.54 C-7.5 32.01, -6.07 35.17, -4.64 35.25 C-3.21 35.33, -0.93 33.32, -0.46 32.01 C0 30.69, -1.93 28.76, -1.86 27.37 C-1.78 25.98, -1.35 24.24, 0 23.66 C1.35 23.08, 5.22 25.12, 6.26 23.89 C7.31 22.65, 7.11 17.7, 6.26 16.23 C5.41 14.77, 2.13 16.04, 1.16 15.07 C0.19 14.11, 0 11.98, 0.46 10.44 C0.93 8.89, 4.02 7.54, 3.94 5.8 C3.87 4.06, 0.66 0.97, 0 0" stroke="#228be6" stroke-width="4" fill="none"></path></g></g><mask></mask><g stroke-linecap="round"><g transform="translate(285.9471894911603 214.85405830798766) rotate(0 12.755675645929728 15.88661421356693)" fill-rule="evenodd"><path d="M0 0 C0.62 0.35, 2.47 1.86, 3.71 2.09 C4.95 2.32, 6.69 2.32, 7.42 1.39 C8.16 0.46, 6.92 -2.55, 8.12 -3.48 C9.32 -4.41, 13.3 -4.87, 14.61 -4.17 C15.93 -3.48, 15.19 -0.31, 16 0.7 C16.81 1.7, 18.36 2.01, 19.48 1.86 C20.6 1.7, 21.53 -0.43, 22.73 -0.23 C23.93 -0.04, 26.4 1.78, 26.67 3.01 C26.94 4.25, 24.35 5.84, 24.35 7.19 C24.35 8.54, 25.43 10.28, 26.67 11.13 C27.91 11.98, 30.81 11.25, 31.77 12.29 C32.74 13.34, 32.93 16.27, 32.47 17.39 C32.01 18.52, 29.92 18.32, 28.99 19.02 C28.06 19.71, 26.9 20.25, 26.9 21.57 C26.9 22.88, 29.22 25.36, 28.99 26.9 C28.76 28.45, 26.79 30.57, 25.51 30.85 C24.24 31.12, 22.61 28.68, 21.34 28.53 C20.06 28.37, 18.59 28.87, 17.86 29.92 C17.12 30.96, 17.97 33.78, 16.93 34.79 C15.89 35.79, 12.83 36.49, 11.6 35.95 C10.36 35.41, 10.48 32.55, 9.51 31.54 C8.54 30.54, 7.15 29.76, 5.8 29.92 C4.45 30.07, 2.86 32.74, 1.39 32.47 C-0.08 32.2, -2.63 29.65, -3.01 28.29 C-3.4 26.94, -1.08 25.55, -0.93 24.35 C-0.77 23.15, -1.16 21.88, -2.09 21.1 C-3.01 20.33, -5.68 20.87, -6.49 19.71 C-7.31 18.55, -7.46 15.35, -6.96 14.15 C-6.46 12.95, -4.25 13.22, -3.48 12.52 C-2.71 11.83, -2.24 11.09, -2.32 9.97 C-2.4 8.85, -4.33 7.46, -3.94 5.8 C-3.56 4.14, -0.66 0.97, 0 0" stroke="none" stroke-width="0" fill="#228be6" fill-rule="evenodd"></path><path d="M0 0 C0.62 0.35, 2.47 1.86, 3.71 2.09 C4.95 2.32, 6.69 2.32, 7.42 1.39 C8.16 0.46, 6.92 -2.55, 8.12 -3.48 C9.32 -4.41, 13.3 -4.87, 14.61 -4.17 C15.93 -3.48, 15.19 -0.31, 16 0.7 C16.81 1.7, 18.36 2.01, 19.48 1.86 C20.6 1.7, 21.53 -0.43, 22.73 -0.23 C23.93 -0.04, 26.4 1.78, 26.67 3.01 C26.94 4.25, 24.35 5.84, 24.35 7.19 C24.35 8.54, 25.43 10.28, 26.67 11.13 C27.91 11.98, 30.81 11.25, 31.77 12.29 C32.74 13.34, 32.93 16.27, 32.47 17.39 C32.01 18.52, 29.92 18.32, 28.99 19.02 C28.06 19.71, 26.9 20.25, 26.9 21.57 C26.9 22.88, 29.22 25.36, 28.99 26.9 C28.76 28.45, 26.79 30.57, 25.51 30.85 C24.24 31.12, 22.61 28.68, 21.34 28.53 C20.06 28.37, 18.59 28.87, 17.86 29.92 C17.12 30.96, 17.97 33.78, 16.93 34.79 C15.89 35.79, 12.83 36.49, 11.6 35.95 C10.36 35.41, 10.48 32.55, 9.51 31.54 C8.54 30.54, 7.15 29.76, 5.8 29.92 C4.45 30.07, 2.86 32.74, 1.39 32.47 C-0.08 32.2, -2.63 29.65, -3.01 28.29 C-3.4 26.94, -1.08 25.55, -0.93 24.35 C-0.77 23.15, -1.16 21.88, -2.09 21.1 C-3.01 20.33, -5.68 20.87, -6.49 19.71 C-7.31 18.55, -7.46 15.35, -6.96 14.15 C-6.46 12.95, -4.25 13.22, -3.48 12.52 C-2.71 11.83, -2.24 11.09, -2.32 9.97 C-2.4 8.85, -4.33 7.46, -3.94 5.8 C-3.56 4.14, -0.66 0.97, 0 0 M0 0 C0.62 0.35, 2.47 1.86, 3.71 2.09 C4.95 2.32, 6.69 2.32, 7.42 1.39 C8.16 0.46, 6.92 -2.55, 8.12 -3.48 C9.32 -4.41, 13.3 -4.87, 14.61 -4.17 C15.93 -3.48, 15.19 -0.31, 16 0.7 C16.81 1.7, 18.36 2.01, 19.48 1.86 C20.6 1.7, 21.53 -0.43, 22.73 -0.23 C23.93 -0.04, 26.4 1.78, 26.67 3.01 C26.94 4.25, 24.35 5.84, 24.35 7.19 C24.35 8.54, 25.43 10.28, 26.67 11.13 C27.91 11.98, 30.81 11.25, 31.77 12.29 C32.74 13.34, 32.93 16.27, 32.47 17.39 C32.01 18.52, 29.92 18.32, 28.99 19.02 C28.06 19.71, 26.9 20.25, 26.9 21.57 C26.9 22.88, 29.22 25.36, 28.99 26.9 C28.76 28.45, 26.79 30.57, 25.51 30.85 C24.24 31.12, 22.61 28.68, 21.34 28.53 C20.06 28.37, 18.59 28.87, 17.86 29.92 C17.12 30.96, 17.97 33.78, 16.93 34.79 C15.89 35.79, 12.83 36.49, 11.6 35.95 C10.36 35.41, 10.48 32.55, 9.51 31.54 C8.54 30.54, 7.15 29.76, 5.8 29.92 C4.45 30.07, 2.86 32.74, 1.39 32.47 C-0.08 32.2, -2.63 29.65, -3.01 28.29 C-3.4 26.94, -1.08 25.55, -0.93 24.35 C-0.77 23.15, -1.16 21.88, -2.09 21.1 C-3.01 20.33, -5.68 20.87, -6.49 19.71 C-7.31 18.55, -7.46 15.35, -6.96 14.15 C-6.46 12.95, -4.25 13.22, -3.48 12.52 C-2.71 11.83, -2.24 11.09, -2.32 9.97 C-2.4 8.85, -4.33 7.46, -3.94 5.8 C-3.56 4.14, -0.66 0.97, 0 0" stroke="#228be6" stroke-width="4" fill="none"></path></g></g><mask></mask><g stroke-linecap="round"><g transform="translate(327.560926937115 199.21551490465345) rotate(0 -10.784343955195027 -7.3055233244869555)" fill-rule="evenodd"><path d="M0 0 C0.43 0.12, 1.78 1.16, 2.55 0.7 C3.32 0.23, 4.64 -1.82, 4.64 -2.78 C4.64 -3.75, 2.94 -3.9, 2.55 -5.1 C2.16 -6.3, 1.86 -8.93, 2.32 -9.97 C2.78 -11.02, 5.1 -10.4, 5.33 -11.36 C5.57 -12.33, 4.56 -15.04, 3.71 -15.77 C2.86 -16.51, 1.16 -15.5, 0.23 -15.77 C-0.7 -16.04, -1.43 -16.35, -1.86 -17.39 C-2.28 -18.44, -1.43 -21.1, -2.32 -22.03 C-3.21 -22.96, -6.11 -23.35, -7.19 -22.96 C-8.27 -22.57, -8.04 -20.22, -8.81 -19.71 C-9.59 -19.21, -10.78 -19.37, -11.83 -19.95 C-12.87 -20.53, -13.88 -22.92, -15.07 -23.19 C-16.27 -23.46, -18.36 -22.3, -19.02 -21.57 C-19.67 -20.83, -18.75 -19.79, -19.02 -18.79 C-19.29 -17.78, -19.64 -15.89, -20.64 -15.54 C-21.65 -15.19, -24 -17.43, -25.05 -16.7 C-26.09 -15.96, -27.13 -12.49, -26.9 -11.13 C-26.67 -9.78, -24.27 -9.43, -23.66 -8.58 C-23.04 -7.73, -22.65 -6.92, -23.19 -6.03 C-23.73 -5.14, -26.52 -4.52, -26.9 -3.25 C-27.29 -1.97, -26.48 0.93, -25.51 1.62 C-24.55 2.32, -22.26 0.85, -21.1 0.93 C-19.95 1, -18.9 1.12, -18.55 2.09 C-18.21 3.05, -19.64 5.68, -19.02 6.73 C-18.4 7.77, -16.12 8.58, -14.84 8.35 C-13.57 8.12, -12.37 5.84, -11.36 5.33 C-10.36 4.83, -9.59 4.79, -8.81 5.33 C-8.04 5.88, -7.89 8.27, -6.73 8.58 C-5.57 8.89, -2.47 8.04, -1.86 7.19 C-1.24 6.34, -3.32 4.68, -3.01 3.48 C-2.71 2.28, -0.5 0.58, 0 0" stroke="none" stroke-width="0" fill="#228be6" fill-rule="evenodd"></path><path d="M0 0 C0.43 0.12, 1.78 1.16, 2.55 0.7 C3.32 0.23, 4.64 -1.82, 4.64 -2.78 C4.64 -3.75, 2.94 -3.9, 2.55 -5.1 C2.16 -6.3, 1.86 -8.93, 2.32 -9.97 C2.78 -11.02, 5.1 -10.4, 5.33 -11.36 C5.57 -12.33, 4.56 -15.04, 3.71 -15.77 C2.86 -16.51, 1.16 -15.5, 0.23 -15.77 C-0.7 -16.04, -1.43 -16.35, -1.86 -17.39 C-2.28 -18.44, -1.43 -21.1, -2.32 -22.03 C-3.21 -22.96, -6.11 -23.35, -7.19 -22.96 C-8.27 -22.57, -8.04 -20.22, -8.81 -19.71 C-9.59 -19.21, -10.78 -19.37, -11.83 -19.95 C-12.87 -20.53, -13.88 -22.92, -15.07 -23.19 C-16.27 -23.46, -18.36 -22.3, -19.02 -21.57 C-19.67 -20.83, -18.75 -19.79, -19.02 -18.79 C-19.29 -17.78, -19.64 -15.89, -20.64 -15.54 C-21.65 -15.19, -24 -17.43, -25.05 -16.7 C-26.09 -15.96, -27.13 -12.49, -26.9 -11.13 C-26.67 -9.78, -24.27 -9.43, -23.66 -8.58 C-23.04 -7.73, -22.65 -6.92, -23.19 -6.03 C-23.73 -5.14, -26.52 -4.52, -26.9 -3.25 C-27.29 -1.97, -26.48 0.93, -25.51 1.62 C-24.55 2.32, -22.26 0.85, -21.1 0.93 C-19.95 1, -18.9 1.12, -18.55 2.09 C-18.21 3.05, -19.64 5.68, -19.02 6.73 C-18.4 7.77, -16.12 8.58, -14.84 8.35 C-13.57 8.12, -12.37 5.84, -11.36 5.33 C-10.36 4.83, -9.59 4.79, -8.81 5.33 C-8.04 5.88, -7.89 8.27, -6.73 8.58 C-5.57 8.89, -2.47 8.04, -1.86 7.19 C-1.24 6.34, -3.32 4.68, -3.01 3.48 C-2.71 2.28, -0.5 0.58, 0 0 M0 0 C0.43 0.12, 1.78 1.16, 2.55 0.7 C3.32 0.23, 4.64 -1.82, 4.64 -2.78 C4.64 -3.75, 2.94 -3.9, 2.55 -5.1 C2.16 -6.3, 1.86 -8.93, 2.32 -9.97 C2.78 -11.02, 5.1 -10.4, 5.33 -11.36 C5.57 -12.33, 4.56 -15.04, 3.71 -15.77 C2.86 -16.51, 1.16 -15.5, 0.23 -15.77 C-0.7 -16.04, -1.43 -16.35, -1.86 -17.39 C-2.28 -18.44, -1.43 -21.1, -2.32 -22.03 C-3.21 -22.96, -6.11 -23.35, -7.19 -22.96 C-8.27 -22.57, -8.04 -20.22, -8.81 -19.71 C-9.59 -19.21, -10.78 -19.37, -11.83 -19.95 C-12.87 -20.53, -13.88 -22.92, -15.07 -23.19 C-16.27 -23.46, -18.36 -22.3, -19.02 -21.57 C-19.67 -20.83, -18.75 -19.79, -19.02 -18.79 C-19.29 -17.78, -19.64 -15.89, -20.64 -15.54 C-21.65 -15.19, -24 -17.43, -25.05 -16.7 C-26.09 -15.96, -27.13 -12.49, -26.9 -11.13 C-26.67 -9.78, -24.27 -9.43, -23.66 -8.58 C-23.04 -7.73, -22.65 -6.92, -23.19 -6.03 C-23.73 -5.14, -26.52 -4.52, -26.9 -3.25 C-27.29 -1.97, -26.48 0.93, -25.51 1.62 C-24.55 2.32, -22.26 0.85, -21.1 0.93 C-19.95 1, -18.9 1.12, -18.55 2.09 C-18.21 3.05, -19.64 5.68, -19.02 6.73 C-18.4 7.77, -16.12 8.58, -14.84 8.35 C-13.57 8.12, -12.37 5.84, -11.36 5.33 C-10.36 4.83, -9.59 4.79, -8.81 5.33 C-8.04 5.88, -7.89 8.27, -6.73 8.58 C-5.57 8.89, -2.47 8.04, -1.86 7.19 C-1.24 6.34, -3.32 4.68, -3.01 3.48 C-2.71 2.28, -0.5 0.58, 0 0" stroke="#228be6" stroke-width="4" fill="none"></path></g></g><mask></mask><g stroke-linecap="round" transform="translate(288.8225114956874 221.81169956940187) rotate(0 9.044933639840906 8.697051576770207)"><path d="M18.09 8.7 C18.09 9.2, 18.04 9.71, 17.95 10.21 C17.86 10.7, 17.72 11.2, 17.54 11.67 C17.37 12.14, 17.14 12.61, 16.88 13.05 C16.62 13.48, 16.31 13.9, 15.97 14.29 C15.64 14.67, 15.26 15.04, 14.86 15.36 C14.46 15.68, 14.02 15.98, 13.57 16.23 C13.11 16.48, 12.63 16.7, 12.14 16.87 C11.65 17.04, 11.13 17.17, 10.62 17.26 C10.1 17.35, 9.57 17.39, 9.04 17.39 C8.52 17.39, 7.99 17.35, 7.47 17.26 C6.96 17.17, 6.44 17.04, 5.95 16.87 C5.46 16.7, 4.98 16.48, 4.52 16.23 C4.07 15.98, 3.63 15.68, 3.23 15.36 C2.83 15.04, 2.45 14.67, 2.12 14.29 C1.78 13.9, 1.47 13.48, 1.21 13.05 C0.95 12.61, 0.72 12.14, 0.55 11.67 C0.37 11.2, 0.23 10.7, 0.14 10.21 C0.05 9.71, 0 9.2, 0 8.7 C0 8.19, 0.05 7.68, 0.14 7.19 C0.23 6.69, 0.37 6.2, 0.55 5.72 C0.72 5.25, 0.95 4.78, 1.21 4.35 C1.47 3.91, 1.78 3.49, 2.12 3.11 C2.45 2.72, 2.83 2.36, 3.23 2.03 C3.63 1.71, 4.07 1.42, 4.52 1.17 C4.98 0.91, 5.46 0.7, 5.95 0.52 C6.44 0.35, 6.96 0.22, 7.47 0.13 C7.99 0.04, 8.52 0, 9.04 0 C9.57 0, 10.1 0.04, 10.62 0.13 C11.13 0.22, 11.65 0.35, 12.14 0.52 C12.63 0.7, 13.11 0.91, 13.57 1.17 C14.02 1.42, 14.46 1.71, 14.86 2.03 C15.26 2.36, 15.64 2.72, 15.97 3.11 C16.31 3.49, 16.62 3.91, 16.88 4.35 C17.14 4.78, 17.37 5.25, 17.54 5.72 C17.72 6.2, 17.86 6.69, 17.95 7.19 C18.04 7.68, 18.07 8.45, 18.09 8.7 C18.11 8.95, 18.11 8.45, 18.09 8.7" stroke="none" stroke-width="0" fill="#ffffff"></path><path d="M18.09 8.7 C18.09 9.2, 18.04 9.71, 17.95 10.21 C17.86 10.7, 17.72 11.2, 17.54 11.67 C17.37 12.14, 17.14 12.61, 16.88 13.05 C16.62 13.48, 16.31 13.9, 15.97 14.29 C15.64 14.67, 15.26 15.04, 14.86 15.36 C14.46 15.68, 14.02 15.98, 13.57 16.23 C13.11 16.48, 12.63 16.7, 12.14 16.87 C11.65 17.04, 11.13 17.17, 10.62 17.26 C10.1 17.35, 9.57 17.39, 9.04 17.39 C8.52 17.39, 7.99 17.35, 7.47 17.26 C6.96 17.17, 6.44 17.04, 5.95 16.87 C5.46 16.7, 4.98 16.48, 4.52 16.23 C4.07 15.98, 3.63 15.68, 3.23 15.36 C2.83 15.04, 2.45 14.67, 2.12 14.29 C1.78 13.9, 1.47 13.48, 1.21 13.05 C0.95 12.61, 0.72 12.14, 0.55 11.67 C0.37 11.2, 0.23 10.7, 0.14 10.21 C0.05 9.71, 0 9.2, 0 8.7 C0 8.19, 0.05 7.68, 0.14 7.19 C0.23 6.69, 0.37 6.2, 0.55 5.72 C0.72 5.25, 0.95 4.78, 1.21 4.35 C1.47 3.91, 1.78 3.49, 2.12 3.11 C2.45 2.72, 2.83 2.36, 3.23 2.03 C3.63 1.71, 4.07 1.42, 4.52 1.17 C4.98 0.91, 5.46 0.7, 5.95 0.52 C6.44 0.35, 6.96 0.22, 7.47 0.13 C7.99 0.04, 8.52 0, 9.04 0 C9.57 0, 10.1 0.04, 10.62 0.13 C11.13 0.22, 11.65 0.35, 12.14 0.52 C12.63 0.7, 13.11 0.91, 13.57 1.17 C14.02 1.42, 14.46 1.71, 14.86 2.03 C15.26 2.36, 15.64 2.72, 15.97 3.11 C16.31 3.49, 16.62 3.91, 16.88 4.35 C17.14 4.78, 17.37 5.25, 17.54 5.72 C17.72 6.2, 17.86 6.69, 17.95 7.19 C18.04 7.68, 18.07 8.45, 18.09 8.7 C18.11 8.95, 18.11 8.45, 18.09 8.7" stroke="#228be6" stroke-width="4" fill="none"></path></g><g stroke-linecap="round" transform="translate(335.02980132475204 215.5286424973608) rotate(0 9.740697765982645 10.088579829053458)"><path d="M19.48 10.09 C19.48 10.67, 19.43 11.27, 19.33 11.84 C19.24 12.42, 19.09 12.99, 18.89 13.54 C18.7 14.09, 18.46 14.63, 18.18 15.13 C17.89 15.64, 17.56 16.13, 17.2 16.57 C16.84 17.02, 16.43 17.44, 16 17.82 C15.57 18.19, 15.1 18.53, 14.61 18.83 C14.12 19.12, 13.6 19.37, 13.07 19.57 C12.54 19.77, 11.99 19.92, 11.43 20.02 C10.88 20.13, 10.3 20.18, 9.74 20.18 C9.18 20.18, 8.6 20.13, 8.05 20.02 C7.49 19.92, 6.94 19.77, 6.41 19.57 C5.88 19.37, 5.36 19.12, 4.87 18.83 C4.38 18.53, 3.91 18.19, 3.48 17.82 C3.05 17.44, 2.64 17.02, 2.28 16.57 C1.92 16.13, 1.59 15.64, 1.31 15.13 C1.02 14.63, 0.78 14.09, 0.59 13.54 C0.39 12.99, 0.25 12.42, 0.15 11.84 C0.05 11.27, 0 10.67, 0 10.09 C0 9.5, 0.05 8.91, 0.15 8.34 C0.25 7.76, 0.39 7.19, 0.59 6.64 C0.78 6.09, 1.02 5.55, 1.31 5.04 C1.59 4.54, 1.92 4.05, 2.28 3.6 C2.64 3.16, 3.05 2.74, 3.48 2.36 C3.91 1.98, 4.38 1.64, 4.87 1.35 C5.36 1.06, 5.88 0.81, 6.41 0.61 C6.94 0.41, 7.49 0.25, 8.05 0.15 C8.6 0.05, 9.18 0, 9.74 0 C10.3 0, 10.88 0.05, 11.43 0.15 C11.99 0.25, 12.54 0.41, 13.07 0.61 C13.6 0.81, 14.12 1.06, 14.61 1.35 C15.1 1.64, 15.57 1.98, 16 2.36 C16.43 2.74, 16.84 3.16, 17.2 3.6 C17.56 4.05, 17.89 4.54, 18.18 5.04 C18.46 5.55, 18.7 6.09, 18.89 6.64 C19.09 7.19, 19.24 7.76, 19.33 8.34 C19.43 8.91, 19.46 9.8, 19.48 10.09 C19.51 10.38, 19.51 9.8, 19.48 10.09" stroke="none" stroke-width="0" fill="#ffffff"></path><path d="M19.48 10.09 C19.48 10.67, 19.43 11.27, 19.33 11.84 C19.24 12.42, 19.09 12.99, 18.89 13.54 C18.7 14.09, 18.46 14.63, 18.18 15.13 C17.89 15.64, 17.56 16.13, 17.2 16.57 C16.84 17.02, 16.43 17.44, 16 17.82 C15.57 18.19, 15.1 18.53, 14.61 18.83 C14.12 19.12, 13.6 19.37, 13.07 19.57 C12.54 19.77, 11.99 19.92, 11.43 20.02 C10.88 20.13, 10.3 20.18, 9.74 20.18 C9.18 20.18, 8.6 20.13, 8.05 20.02 C7.49 19.92, 6.94 19.77, 6.41 19.57 C5.88 19.37, 5.36 19.12, 4.87 18.83 C4.38 18.53, 3.91 18.19, 3.48 17.82 C3.05 17.44, 2.64 17.02, 2.28 16.57 C1.92 16.13, 1.59 15.64, 1.31 15.13 C1.02 14.63, 0.78 14.09, 0.59 13.54 C0.39 12.99, 0.25 12.42, 0.15 11.84 C0.05 11.27, 0 10.67, 0 10.09 C0 9.5, 0.05 8.91, 0.15 8.34 C0.25 7.76, 0.39 7.19, 0.59 6.64 C0.78 6.09, 1.02 5.55, 1.31 5.04 C1.59 4.54, 1.92 4.05, 2.28 3.6 C2.64 3.16, 3.05 2.74, 3.48 2.36 C3.91 1.98, 4.38 1.64, 4.87 1.35 C5.36 1.06, 5.88 0.81, 6.41 0.61 C6.94 0.41, 7.49 0.25, 8.05 0.15 C8.6 0.05, 9.18 0, 9.74 0 C10.3 0, 10.88 0.05, 11.43 0.15 C11.99 0.25, 12.54 0.41, 13.07 0.61 C13.6 0.81, 14.12 1.06, 14.61 1.35 C15.1 1.64, 15.57 1.98, 16 2.36 C16.43 2.74, 16.84 3.16, 17.2 3.6 C17.56 4.05, 17.89 4.54, 18.18 5.04 C18.46 5.55, 18.7 6.09, 18.89 6.64 C19.09 7.19, 19.24 7.76, 19.33 8.34 C19.43 8.91, 19.46 9.8, 19.48 10.09 C19.51 10.38, 19.51 9.8, 19.48 10.09" stroke="#228be6" stroke-width="4" fill="none"></path></g><g stroke-linecap="round" transform="translate(308.6356396558708 183.00471381574403) rotate(0 7.885326762938348 8.465130201389684)"><path d="M15.77 8.47 C15.77 8.96, 15.73 9.45, 15.65 9.94 C15.57 10.42, 15.45 10.9, 15.3 11.36 C15.14 11.82, 14.94 12.27, 14.71 12.7 C14.49 13.12, 14.22 13.53, 13.93 13.91 C13.63 14.28, 13.3 14.63, 12.95 14.95 C12.6 15.26, 12.22 15.55, 11.83 15.8 C11.43 16.04, 11.01 16.25, 10.58 16.42 C10.15 16.59, 9.7 16.72, 9.25 16.8 C8.81 16.89, 8.34 16.93, 7.89 16.93 C7.43 16.93, 6.97 16.89, 6.52 16.8 C6.07 16.72, 5.62 16.59, 5.19 16.42 C4.76 16.25, 4.34 16.04, 3.94 15.8 C3.55 15.55, 3.17 15.26, 2.82 14.95 C2.47 14.63, 2.14 14.28, 1.84 13.91 C1.55 13.53, 1.28 13.12, 1.06 12.7 C0.83 12.27, 0.63 11.82, 0.48 11.36 C0.32 10.9, 0.2 10.42, 0.12 9.94 C0.04 9.45, 0 8.96, 0 8.47 C0 7.98, 0.04 7.48, 0.12 7 C0.2 6.51, 0.32 6.03, 0.48 5.57 C0.63 5.11, 0.83 4.66, 1.06 4.23 C1.28 3.81, 1.55 3.4, 1.84 3.02 C2.14 2.65, 2.47 2.3, 2.82 1.98 C3.17 1.67, 3.55 1.38, 3.94 1.13 C4.34 0.89, 4.76 0.68, 5.19 0.51 C5.62 0.34, 6.07 0.21, 6.52 0.13 C6.97 0.04, 7.43 0, 7.89 0 C8.34 0, 8.81 0.04, 9.25 0.13 C9.7 0.21, 10.15 0.34, 10.58 0.51 C11.01 0.68, 11.43 0.89, 11.83 1.13 C12.22 1.38, 12.6 1.67, 12.95 1.98 C13.3 2.3, 13.63 2.65, 13.93 3.02 C14.22 3.4, 14.49 3.81, 14.71 4.23 C14.94 4.66, 15.14 5.11, 15.3 5.57 C15.45 6.03, 15.57 6.51, 15.65 7 C15.73 7.48, 15.75 8.22, 15.77 8.47 C15.79 8.71, 15.79 8.22, 15.77 8.47" stroke="none" stroke-width="0" fill="#ffffff"></path><path d="M15.77 8.47 C15.77 8.96, 15.73 9.45, 15.65 9.94 C15.57 10.42, 15.45 10.9, 15.3 11.36 C15.14 11.82, 14.94 12.27, 14.71 12.7 C14.49 13.12, 14.22 13.53, 13.93 13.91 C13.63 14.28, 13.3 14.63, 12.95 14.95 C12.6 15.26, 12.22 15.55, 11.83 15.8 C11.43 16.04, 11.01 16.25, 10.58 16.42 C10.15 16.59, 9.7 16.72, 9.25 16.8 C8.81 16.89, 8.34 16.93, 7.89 16.93 C7.43 16.93, 6.97 16.89, 6.52 16.8 C6.07 16.72, 5.62 16.59, 5.19 16.42 C4.76 16.25, 4.34 16.04, 3.94 15.8 C3.55 15.55, 3.17 15.26, 2.82 14.95 C2.47 14.63, 2.14 14.28, 1.84 13.91 C1.55 13.53, 1.28 13.12, 1.06 12.7 C0.83 12.27, 0.63 11.82, 0.48 11.36 C0.32 10.9, 0.2 10.42, 0.12 9.94 C0.04 9.45, 0 8.96, 0 8.47 C0 7.98, 0.04 7.48, 0.12 7 C0.2 6.51, 0.32 6.03, 0.48 5.57 C0.63 5.11, 0.83 4.66, 1.06 4.23 C1.28 3.81, 1.55 3.4, 1.84 3.02 C2.14 2.65, 2.47 2.3, 2.82 1.98 C3.17 1.67, 3.55 1.38, 3.94 1.13 C4.34 0.89, 4.76 0.68, 5.19 0.51 C5.62 0.34, 6.07 0.21, 6.52 0.13 C6.97 0.04, 7.43 0, 7.89 0 C8.34 0, 8.81 0.04, 9.25 0.13 C9.7 0.21, 10.15 0.34, 10.58 0.51 C11.01 0.68, 11.43 0.89, 11.83 1.13 C12.22 1.38, 12.6 1.67, 12.95 1.98 C13.3 2.3, 13.63 2.65, 13.93 3.02 C14.22 3.4, 14.49 3.81, 14.71 4.23 C14.94 4.66, 15.14 5.11, 15.3 5.57 C15.45 6.03, 15.57 6.51, 15.65 7 C15.73 7.48, 15.75 8.22, 15.77 8.47 C15.79 8.71, 15.79 8.22, 15.77 8.47" stroke="#228be6" stroke-width="4" fill="none"></path></g><g stroke-linecap="round" transform="translate(14.059812612889118 254.40972638240999) rotate(0 61.362974537121886 77.37070702506674)"><path d="M0 0 C47.75 0, 95.5 0, 122.73 0 M0 0 C46.39 0, 92.77 0, 122.73 0 M122.73 0 C122.73 45.45, 122.73 90.91, 122.73 154.74 M122.73 0 C122.73 32.06, 122.73 64.13, 122.73 154.74 M122.73 154.74 C93.75 154.74, 64.77 154.74, 0 154.74 M122.73 154.74 C74.97 154.74, 27.22 154.74, 0 154.74 M0 154.74 C0 122, 0 89.26, 0 0 M0 154.74 C0 107.96, 0 61.19, 0 0" stroke="#0000" stroke-width="2" fill="none"></path></g><g stroke-linecap="round"><g transform="translate(15.16429759632365 347.6557629574203) rotate(0 63.11221345513866 13.722434736590287)" fill-rule="evenodd"><path d="M0 0 L0.37 26.2 L65.17 54.79 L125.9 29.29 L126.22 0 L63.85 -27.34 L0 0" stroke="none" stroke-width="0" fill="#a5d8ff" fill-rule="evenodd"></path><path d="M0 0 C0.1 7.32, 0.21 14.65, 0.37 26.2 M0 0 C0.11 8.08, 0.23 16.15, 0.37 26.2 M0.37 26.2 C16.9 33.5, 33.44 40.79, 65.17 54.79 M0.37 26.2 C19.37 34.59, 38.37 42.97, 65.17 54.79 M65.17 54.79 C88.31 45.07, 111.46 35.35, 125.9 29.29 M65.17 54.79 C83.08 47.27, 100.99 39.75, 125.9 29.29 M125.9 29.29 C125.98 22.32, 126.06 15.35, 126.22 0 M125.9 29.29 C125.97 22.92, 126.04 16.55, 126.22 0 M126.22 0 C108.11 -7.94, 90 -15.88, 63.85 -27.34 M126.22 0 C106.82 -8.5, 87.42 -17.01, 63.85 -27.34 M63.85 -27.34 C41.33 -17.7, 18.82 -8.06, 0 0 M63.85 -27.34 C47.55 -20.36, 31.25 -13.38, 0 0 M0 0 C0 0, 0 0, 0 0 M0 0 C0 0, 0 0, 0 0" stroke="#495057" stroke-width="2" fill="none"></path></g></g><mask></mask><g stroke-linecap="round"><g transform="translate(80.38195260825455 400.18336548930483) rotate(0 1.1368683772161603e-13 -12.548627236694188)"><path d="M0 0 C0 -6.88, 0 -13.75, 0 -25.1 M0 0 C0 -5.27, 0 -10.54, 0 -25.1" stroke="#495057" stroke-width="2" fill="none"></path></g></g><mask></mask><g stroke-linecap="round"><g transform="translate(15.902452139672732 348.3939175007529) rotate(0 61.82044300430243 13.542297607091427)"><path d="M0 0 C15.5 6.48, 31 12.97, 64.74 27.08 M0 0 C25.19 10.54, 50.38 21.08, 64.74 27.08 M64.74 27.08 C79.4 20.8, 94.06 14.52, 123.64 1.85 M64.74 27.08 C76.76 21.94, 88.77 16.79, 123.64 1.85" stroke="#495057" stroke-width="2" fill="none"></path></g></g><mask></mask><g stroke-linecap="round"><g transform="translate(96.14077280565425 382.683814579509) rotate(0 16.21083407141191 -6.766796512866165)"><path d="M0 0 C7.66 -3.2, 15.31 -6.39, 32.42 -13.53 M0 0 C12.62 -5.27, 25.23 -10.53, 32.42 -13.53" stroke="#495057" stroke-width="2" fill="none"></path></g></g><mask></mask><g transform="translate(39.314517396685915 216.5176508257548) rotate(0 38.09996032714844 12.5)"><text x="0" y="0" font-family="Virgil, Segoe UI Emoji" font-size="20px" fill="#868e96" text-anchor="start" style="white-space: pre;" direction="ltr" dominant-baseline="text-before-edge">Modules</text></g><g stroke-linecap="round"><g transform="translate(174.60731920582157 150.99270852508937) rotate(0 39.34997612911695 21.000246327974423)"><path d="M3.41 2.6 C21.23 11.02, 37.33 17.51, 75.3 38.18 M0.61 1.98 C32.48 16.72, 62.28 35.08, 77.53 43.39" stroke="#2f9e44" stroke-width="1" fill="none"></path></g><g transform="translate(174.60731920582157 150.99270852508937) rotate(0 39.34997612911695 21.000246327974423)"><path d="M54.58 40.53 C60.14 40.98, 64.61 40.12, 75.82 41.48 M53.18 40.22 C63.3 40.44, 72.39 42.96, 76.94 44.09" stroke="#2f9e44" stroke-width="1" fill="none"></path></g><g transform="translate(174.60731920582157 150.99270852508937) rotate(0 39.34997612911695 21.000246327974423)"><path d="M63.02 25.66 C66.43 29.78, 68.85 32.54, 75.82 41.48 M61.62 25.35 C68.41 31.36, 74.17 39.76, 76.94 44.09" stroke="#2f9e44" stroke-width="1" fill="none"></path></g></g><mask></mask><g stroke-linecap="round"><g transform="translate(176.31378364634224 280.61077666324195) rotate(0 37.311117262323364 -26.505165268317228)"><path d="M3.07 -0.15 C29.91 -17.98, 59.86 -41.48, 72.72 -49.7 M-0.16 -0.73 C30.97 -20.16, 59.64 -41.95, 73.59 -51.43" stroke="#2f9e44" stroke-width="1" fill="none"></path></g><g transform="translate(176.31378364634224 280.61077666324195) rotate(0 37.311117262323364 -26.505165268317228)"><path d="M60.88 -30.95 C65.19 -37.93, 71.25 -47.38, 72.63 -49.78 M59.27 -31.24 C65.78 -38.42, 71.27 -47.03, 73.07 -50.64" stroke="#2f9e44" stroke-width="1" fill="none"></path></g><g transform="translate(176.31378364634224 280.61077666324195) rotate(0 37.311117262323364 -26.505165268317228)"><path d="M51 -44.91 C59.05 -46.44, 68.93 -50.49, 72.63 -49.78 M49.39 -45.2 C59.59 -47.07, 68.87 -50.34, 73.07 -50.64" stroke="#2f9e44" stroke-width="1" fill="none"></path></g></g><mask></mask><g stroke-linecap="round"><g transform="translate(15.166419132714282 311.34689102613856) rotate(0 63.11221345513866 13.722434736590287)" fill-rule="evenodd"><path d="M0 0 L0.37 26.2 L65.17 54.79 L125.9 29.29 L126.22 0 L63.85 -27.34 L0 0" stroke="none" stroke-width="0" fill="#96f2d7" fill-rule="evenodd"></path><path d="M0 0 C0.11 8.1, 0.23 16.2, 0.37 26.2 M0 0 C0.14 9.72, 0.27 19.44, 0.37 26.2 M0.37 26.2 C14.2 32.3, 28.03 38.4, 65.17 54.79 M0.37 26.2 C16.71 33.41, 33.06 40.62, 65.17 54.79 M65.17 54.79 C78.07 49.37, 90.98 43.95, 125.9 29.29 M65.17 54.79 C84.15 46.82, 103.14 38.85, 125.9 29.29 M125.9 29.29 C125.98 21.95, 126.06 14.61, 126.22 0 M125.9 29.29 C126 20.49, 126.1 11.69, 126.22 0 M126.22 0 C112.79 -5.89, 99.35 -11.78, 63.85 -27.34 M126.22 0 C107.47 -8.22, 88.72 -16.44, 63.85 -27.34 M63.85 -27.34 C44.47 -19.05, 25.1 -10.75, 0 0 M63.85 -27.34 C43.51 -18.63, 23.17 -9.92, 0 0 M0 0 C0 0, 0 0, 0 0 M0 0 C0 0, 0 0, 0 0" stroke="#495057" stroke-width="2" fill="none"></path></g></g><mask></mask><g stroke-linecap="round"><g transform="translate(80.38407414464496 363.874493558023) rotate(0 1.1368683772161603e-13 -12.548627236694188)"><path d="M0 0 C0 -6.28, 0 -12.55, 0 -25.1 M0 0 C0 -6.34, 0 -12.67, 0 -25.1" stroke="#495057" stroke-width="2" fill="none"></path></g></g><mask></mask><g stroke-linecap="round"><g transform="translate(15.904573676063364 312.08504556947105) rotate(0 61.82044300430243 13.542297607091427)"><path d="M0 0 C23.72 9.92, 47.44 19.85, 64.74 27.08 M0 0 C23.82 9.96, 47.63 19.93, 64.74 27.08 M64.74 27.08 C87.99 17.12, 111.23 7.16, 123.64 1.85 M64.74 27.08 C86.52 17.75, 108.29 8.42, 123.64 1.85" stroke="#495057" stroke-width="2" fill="none"></path></g></g><mask></mask><g stroke-linecap="round"><g transform="translate(96.14289434204466 346.37494264822726) rotate(0 16.21083407141191 -6.766796512866165)"><path d="M0 0 C9.15 -3.82, 18.3 -7.64, 32.42 -13.53 M0 0 C8.15 -3.4, 16.3 -6.8, 32.42 -13.53" stroke="#495057" stroke-width="2" fill="none"></path></g></g><mask></mask><g stroke-linecap="round"><g transform="translate(14.69336002512864 275.39439884966237) rotate(0 63.11221345513866 13.722434736590287)" fill-rule="evenodd"><path d="M0 0 L0.37 26.2 L65.17 54.79 L125.9 29.29 L126.22 0 L63.85 -27.34 L0 0" stroke="none" stroke-width="0" fill="#b2f2bb" fill-rule="evenodd"></path><path d="M0 0 C0.14 10.03, 0.28 20.07, 0.37 26.2 M0 0 C0.12 8.28, 0.23 16.55, 0.37 26.2 M0.37 26.2 C17.61 33.81, 34.85 41.42, 65.17 54.79 M0.37 26.2 C18.52 34.21, 36.67 42.22, 65.17 54.79 M65.17 54.79 C82.92 47.33, 100.68 39.88, 125.9 29.29 M65.17 54.79 C85.5 46.25, 105.83 37.71, 125.9 29.29 M125.9 29.29 C125.98 22.55, 126.05 15.81, 126.22 0 M125.9 29.29 C125.97 22.94, 126.04 16.59, 126.22 0 M126.22 0 C103.39 -10.01, 80.56 -20.01, 63.85 -27.34 M126.22 0 C112.23 -6.13, 98.24 -12.27, 63.85 -27.34 M63.85 -27.34 C46.54 -19.93, 29.23 -12.52, 0 0 M63.85 -27.34 C51.02 -21.85, 38.19 -16.36, 0 0 M0 0 C0 0, 0 0, 0 0 M0 0 C0 0, 0 0, 0 0" stroke="#495057" stroke-width="2" fill="none"></path></g></g><mask></mask><g stroke-linecap="round"><g transform="translate(79.91101503705909 327.9220013815468) rotate(0 1.1368683772161603e-13 -12.548627236694188)"><path d="M0 0 C0 -7.69, 0 -15.38, 0 -25.1 M0 0 C0 -5.44, 0 -10.88, 0 -25.1" stroke="#495057" stroke-width="2" fill="none"></path></g></g><mask></mask><g stroke-linecap="round"><g transform="translate(15.431514568477724 276.1325533929946) rotate(0 61.82044300430243 13.542297607091427)"><path d="M0 0 C18.82 7.87, 37.64 15.75, 64.74 27.08 M0 0 C21.49 8.99, 42.99 17.98, 64.74 27.08 M64.74 27.08 C80.91 20.16, 97.08 13.23, 123.64 1.85 M64.74 27.08 C79.57 20.73, 94.39 14.38, 123.64 1.85" stroke="#495057" stroke-width="2" fill="none"></path></g></g><mask></mask><g stroke-linecap="round"><g transform="translate(95.66983523445901 310.42245047175084) rotate(0 16.21083407141191 -6.766796512866165)"><path d="M0 0 C9.06 -3.78, 18.12 -7.56, 32.42 -13.53 M0 0 C11.8 -4.93, 23.61 -9.85, 32.42 -13.53" stroke="#495057" stroke-width="2" fill="none"></path></g></g><mask></mask><g stroke-linecap="round" transform="translate(495.15856769547827 173.54785655942362) rotate(0 35.33929034561561 53.625409397054625)"><path d="M-0.44 -1.62 L70.51 -0.71 L70.19 106.42 L1.5 105.74" stroke="none" stroke-width="0" fill="#fff"></path><path d="M0 0 C19.29 0.28, 36.45 -0.98, 70.68 0 M0 0 C22.64 0.7, 44.93 0.79, 70.68 0 M70.68 0 C71.32 39.43, 68.41 76.8, 70.68 107.25 M70.68 0 C72.16 41.18, 71.99 81.02, 70.68 107.25 M70.68 107.25 C48.23 107.9, 28.51 108.21, 0 107.25 M70.68 107.25 C42.64 107.86, 13.25 107.33, 0 107.25 M0 107.25 C-1.52 85.21, 0.41 61.02, 0 0 M0 107.25 C-0.74 73.97, -1.31 38.89, 0 0" stroke="#228be6" stroke-width="2" fill="none"></path></g><g stroke-linecap="round" transform="translate(487.61113465976405 166.5277672737093) rotate(0 35.33929034561561 53.625409397054625)"><path d="M-0.17 -0.71 L70.19 -0.83 L72.18 105.74 L0.24 107.58" stroke="none" stroke-width="0" fill="#fff"></path><path d="M0 0 C21.63 -1.03, 44.16 -1.96, 70.68 0 M0 0 C21.98 0.33, 45.68 -1.21, 70.68 0 M70.68 0 C69.79 29.56, 72.97 63.56, 70.68 107.25 M70.68 0 C71.44 42.36, 71.19 85.16, 70.68 107.25 M70.68 107.25 C54.12 108.98, 38.23 109.16, 0 107.25 M70.68 107.25 C42.94 106.8, 16.22 108.07, 0 107.25 M0 107.25 C1.61 73.62, 0.73 40.32, 0 0 M0 107.25 C-0.59 82.35, -0.39 56.9, 0 0" stroke="#228be6" stroke-width="2" fill="none"></path></g><g stroke-linecap="round" transform="translate(478.2160453740487 158.27386102370951) rotate(0 35.33929034561572 53.625409397054625)"><path d="M-0.48 -0.83 L72.18 -1.51 L70.92 107.58 L-0.08 106.44" stroke="none" stroke-width="0" fill="#fff"></path><path d="M0 0 C22.85 -1.52, 45.2 0.12, 70.68 0 M0 0 C27.7 -1.28, 53.99 0.01, 70.68 0 M70.68 0 C71.41 36.24, 71.79 69.5, 70.68 107.25 M70.68 0 C71.01 37.29, 70.42 74.55, 70.68 107.25 M70.68 107.25 C47.78 109.27, 22.48 108.16, 0 107.25 M70.68 107.25 C48.31 107.69, 27.76 106.57, 0 107.25 M0 107.25 C-0.3 69.15, -2.05 28.03, 0 0 M0 107.25 C0.22 65.25, 0.36 24.51, 0 0" stroke="#228be6" stroke-width="2" fill="none"></path></g><g stroke-linecap="round"><g transform="translate(490.20247196095966 207.02109807106217) rotate(0 23.289917928650425 -1.4675838694766412)"><path d="M-0.51 0.1 C6.26 0.18, 32.57 1.06, 40.37 0.61 C48.17 0.16, 45.19 -1.91, 46.28 -2.59 M0.24 -0.32 C6.95 -0.39, 32.32 0.39, 39.91 -0.12 C47.5 -0.63, 44.56 -2.9, 45.78 -3.39" stroke="#228be6" stroke-width="1" fill="none"></path></g></g><mask></mask><g stroke-linecap="round"><g transform="translate(492.05772419897403 175.5558107722236) rotate(0 22.783707840338252 -1.4016489420073412)"><path d="M-0.06 0.46 C2.78 0.06, 8.87 -2.11, 16.53 -2.3 C24.19 -2.49, 41.09 -1.06, 45.92 -0.67 M-0.75 0.21 C2.31 -0.34, 9.86 -2.93, 17.61 -3.01 C25.36 -3.08, 41.09 -0.6, 45.75 -0.25" stroke="#228be6" stroke-width="1" fill="none"></path></g></g><mask></mask><g stroke-linecap="round"><g transform="translate(491.98112468260456 242.95018504258087) rotate(0 24.16834131719213 0.17504253415347648)"><path d="M-0.3 0.5 C4.17 0.33, 20.46 -0.96, 26.76 -0.6 C33.07 -0.24, 33.94 2.98, 37.55 2.68 C41.16 2.38, 46.71 -1.7, 48.45 -2.4 M0.55 0.29 C4.98 0.14, 20.41 -0.33, 26.51 -0.08 C32.62 0.17, 33.48 2.14, 37.17 1.8 C40.85 1.46, 46.67 -1.36, 48.61 -2.13" stroke="#228be6" stroke-width="1" fill="none"></path></g></g><mask></mask><g stroke-linecap="round"><g transform="translate(488.7970775010742 254.19333345085965) rotate(0 27.20347491392124 -0.8422655250909088)"><path d="M0.77 -0.75 C2.54 -1, 7.41 -0.2, 10.01 -0.38 C12.61 -0.55, 10.45 -2.12, 16.37 -1.8 C22.29 -1.47, 38.98 1.45, 45.51 1.56 C52.04 1.68, 53.99 -0.58, 55.57 -1.12 M-0.29 1.46 C1.37 1.39, 6.32 -1.68, 8.99 -2.08 C11.66 -2.49, 9.67 -1.25, 15.73 -0.98 C21.79 -0.72, 38.87 -0.03, 45.36 -0.49 C51.86 -0.96, 53.43 -3.45, 54.7 -3.77" stroke="#228be6" stroke-width="1" fill="none"></path></g></g><mask></mask><g stroke-linecap="round"><g transform="translate(489.08192039664004 190.61641232548482) rotate(0 23.464326446472228 0.6465876758273907)"><path d="M-0.07 0.36 C2.92 0.25, 10.53 -1.36, 18.3 -1.03 C26.08 -0.7, 41.72 1.74, 46.58 2.32 M-0.77 0.07 C2.13 0.04, 9.85 -0.79, 17.93 -0.55 C26.01 -0.32, 43.02 1.13, 47.72 1.48" stroke="#228be6" stroke-width="1" fill="none"></path></g></g><mask></mask><g stroke-linecap="round"><g transform="translate(489.1894085927904 225.0997413613245) rotate(0 23.464326446472228 0.6465876758273907)"><path d="M0.11 -0.44 C1.41 -0.19, 4.65 1.8, 7.75 1.86 C10.85 1.93, 12.15 -0.1, 18.72 -0.05 C25.3 0, 42.45 1.87, 47.17 2.16 M-0.5 0.53 C0.99 0.6, 5.61 1.35, 8.81 1.12 C12 0.89, 12.22 -0.84, 18.65 -0.84 C25.08 -0.84, 42.77 0.7, 47.41 1.14" stroke="#228be6" stroke-width="1" fill="none"></path></g></g><mask></mask><g stroke-linecap="round"><g transform="translate(390.8261866863186 217.8636152033107) rotate(0 33.69288945288042 -1.628100376971645)"><path d="M1.65 -3.94 C23.46 -5.08, 50.69 -1.17, 64.8 -0.15 M-0.05 -1.51 C25.91 0.81, 49.21 -0.73, 66.54 -3" stroke="#228be6" stroke-width="1" fill="none"></path></g><g transform="translate(390.8261866863186 217.8636152033107) rotate(0 33.69288945288042 -1.628100376971645)"><path d="M44.87 5.94 C51.47 2.04, 60.78 0.43, 65.25 -1.44 M44.02 7.16 C52.79 4.57, 60.2 0.28, 66.11 -2.87" stroke="#228be6" stroke-width="1" fill="none"></path></g><g transform="translate(390.8261866863186 217.8636152033107) rotate(0 33.69288945288042 -1.628100376971645)"><path d="M43.12 -11.07 C50.39 -8.44, 60.37 -3.51, 65.25 -1.44 M42.27 -9.86 C51.63 -5.99, 59.7 -3.83, 66.11 -2.87" stroke="#228be6" stroke-width="1" fill="none"></path></g></g><mask></mask><g transform="translate(264.1201430965955 130.5309055195179) rotate(0 52.779937744140625 12.5)"><text x="0" y="0" font-family="Virgil, Segoe UI Emoji" font-size="20px" fill="#868e96" text-anchor="start" style="white-space: pre;" direction="ltr" dominant-baseline="text-before-edge">Compilation</text></g><g transform="translate(490.25869536225923 109.51886929349678) rotate(0 27.41997528076172 12.5)"><text x="0" y="0" font-family="Virgil, Segoe UI Emoji" font-size="20px" fill="#868e96" text-anchor="start" style="white-space: pre;" direction="ltr" dominant-baseline="text-before-edge">WGSL</text></g><g transform="translate(723.0451692876434 225.8932237760764) rotate(0 38.39996337890625 12.5)"><text x="0" y="0" font-family="Virgil, Segoe UI Emoji" font-size="20px" fill="#868e96" text-anchor="start" style="white-space: pre;" direction="ltr" dominant-baseline="text-before-edge">Browser</text></g><g transform="translate(727.6895158191044 64.80094604324609) rotate(0 21.639976501464844 12.5)"><text x="0" y="0" font-family="Virgil, Segoe UI Emoji" font-size="20px" fill="#868e96" text-anchor="start" style="white-space: pre;" direction="ltr" dominant-baseline="text-before-edge">GPU</text></g><g stroke-linecap="round"><g transform="translate(603.5386165483301 187.204879654327) rotate(0 39.6193612089379 -15.636124527652555)"><path d="M-2.07 -0.77 C17.36 -2.55, 33.64 -12.82, 80.19 -28.95 M-0.61 -0.9 C22.73 -6.67, 40.88 -15.56, 79.37 -33.11" stroke="#228be6" stroke-width="1" fill="none"></path></g><g transform="translate(603.5386165483301 187.204879654327) rotate(0 39.6193612089379 -15.636124527652555)"><path d="M60.5 -15.97 C65.82 -17.75, 69.59 -23.26, 79.84 -31.95 M61.24 -16.04 C67.07 -19.38, 70.39 -24.33, 79.43 -34.04" stroke="#228be6" stroke-width="1" fill="none"></path></g><g transform="translate(603.5386165483301 187.204879654327) rotate(0 39.6193612089379 -15.636124527652555)"><path d="M53.41 -31.53 C60.11 -30.13, 65.3 -32.52, 79.84 -31.95 M54.14 -31.6 C61.76 -30.83, 66.96 -31.67, 79.43 -34.04" stroke="#228be6" stroke-width="1" fill="none"></path></g></g><mask></mask><g stroke-linecap="round"><g transform="translate(603.1131358995203 255.8763299659896) rotate(0 40.15813136857935 9.95545805532214)"><path d="M0.05 2.6 C22.5 6.93, 53.25 15.84, 82.11 18.24 M-0.04 -0.85 C28.89 7.22, 57.58 11.37, 81.25 19.56" stroke="#228be6" stroke-width="1" fill="none"></path></g><g transform="translate(603.1131358995203 255.8763299659896) rotate(0 40.15813136857935 9.95545805532214)"><path d="M56.33 22.56 C62.64 20.62, 73.06 21.27, 82.15 18.72 M56.29 20.84 C65.36 21.02, 74.2 18.87, 81.71 19.38" stroke="#228be6" stroke-width="1" fill="none"></path></g><g transform="translate(603.1131358995203 255.8763299659896) rotate(0 40.15813136857935 9.95545805532214)"><path d="M61.07 6.13 C65.8 9.51, 74.67 15.52, 82.15 18.72 M61.02 4.41 C68.3 10.56, 75.42 14.36, 81.71 19.38" stroke="#228be6" stroke-width="1" fill="none"></path></g></g><mask></mask></svg>