<svg version="1.1" xmlns="http://www.w3.org/2000/svg" viewBox="0 0 1062.5 361.23814372746784" width="2125" height="722.4762874549357">
  <!-- svg-source:excalidraw -->
  
  <defs>
    <style class="style-fonts">
      @font-face {
        font-family: "Virgil";
        src: url("https://excalidraw.com/Virgil.woff2");
      }
      @font-face {
        font-family: "Cascadia";
        src: url("https://excalidraw.com/Cascadia.woff2");
      }
    </style>
  </defs>
  <rect x="0" y="0" width="1062.5" height="361.23814372746784" fill="#ffffff"></rect><g stroke-linecap="round" transform="translate(80.58076840744832 42.73814372746784) rotate(0 53.5 23)"><path d="M14.2 1.85 L104.01 -0.59 L103.14 5.72 L103.67 8 L109.56 35.74 L102.2 43.91 L98.48 43.63 L8.37 44.74 L4.3 47.12 L-0.65 35.15 L-2.1 6.15 L-0.1 0.04 L10.29 -3.06" stroke="none" stroke-width="0" fill="#12b88633"></path><path d="M11.5 0 M11.5 0 C33.41 1.91, 55.18 2.28, 95.5 0 M11.5 0 C30.59 1.54, 52.67 1.72, 95.5 0 M95.5 0 C101.93 0.24, 110.15 2.34, 107 11.5 M95.5 0 C104.34 -3.09, 104.61 5.86, 107 11.5 M107 11.5 C105.17 19.37, 110.11 20, 107 34.5 M107 11.5 C106.54 17.62, 105.14 23.06, 107 34.5 M107 34.5 C104.92 39.81, 100.72 45.58, 95.5 46 M107 34.5 C107.96 40.46, 106.12 48.02, 95.5 46 M95.5 46 C59.81 46.65, 29.97 47.19, 11.5 46 M95.5 46 C75.32 46.67, 51.38 45.9, 11.5 46 M11.5 46 C6.89 43.56, 2.98 44.41, 0 34.5 M11.5 46 C0.74 50.16, -0.61 46.56, 0 34.5 M0 34.5 C-1.69 25.61, -1.9 17.09, 0 11.5 M0 34.5 C0.75 28.92, 1.39 23.11, 0 11.5 M0 11.5 C0.63 2.5, 7.76 -0.93, 11.5 0 M0 11.5 C-4.49 6.12, 6.76 1.12, 11.5 0" stroke="#087f5b" stroke-width="1" fill="none"></path></g><g transform="translate(112.08076840744832 53.23814372746784) rotate(0 22 12.5)"><text x="22" y="18" font-family="Virgil, Segoe UI Emoji" font-size="20px" fill="#087f5b" text-anchor="middle" style="white-space: pre;" direction="ltr">GCC</text></g><g stroke-linecap="round" transform="translate(469.46965729633723 38.73814372746784) rotate(0 52.5 23)"><path d="M14.98 -1.31 L97.54 3.56 L98.98 2.07 L108.1 5.01 L103.97 39.06 L103.49 42.02 L95.4 45.45 L7.89 49.27 L2.04 41.07 L-2.1 34.54 L-2.79 5.97 L1.66 -0.18 L10.31 -1.56" stroke="none" stroke-width="0" fill="#40c05733"></path><path d="M11.5 0 M11.5 0 C33.11 1.34, 55.91 -0.17, 93.5 0 M11.5 0 C37.13 0.5, 61.99 -1.3, 93.5 0 M93.5 0 C104.32 -1.49, 106.02 1.15, 105 11.5 M93.5 0 C98.78 2.02, 102.31 5.03, 105 11.5 M105 11.5 C107.77 17.31, 103.81 24.74, 105 34.5 M105 11.5 C103.55 17.22, 103.95 24.02, 105 34.5 M105 34.5 C102.55 41.74, 102 44.51, 93.5 46 M105 34.5 C107.96 44.19, 105.69 48.95, 93.5 46 M93.5 46 C68.58 46.96, 39.17 46.94, 11.5 46 M93.5 46 C72.58 48.15, 54.97 46.1, 11.5 46 M11.5 46 C6.82 48.24, -2.69 45.78, 0 34.5 M11.5 46 C3.22 50.4, 1.59 38.49, 0 34.5 M0 34.5 C-2.03 26.83, -0.44 24.16, 0 11.5 M0 34.5 C1.3 31.41, 0.12 24.37, 0 11.5 M0 11.5 C3.93 2.9, -0.07 1.99, 11.5 0 M0 11.5 C2.92 4.96, 7.65 -0.8, 11.5 0" stroke="#2b8a3e" stroke-width="1" fill="none"></path></g><g transform="translate(493.96965729633723 49.23814372746784) rotate(0 28 12.5)"><text x="28" y="18" font-family="Virgil, Segoe UI Emoji" font-size="20px" fill="#2b8a3e" text-anchor="middle" style="white-space: pre;" direction="ltr">LANG</text></g><g stroke-linecap="round" transform="translate(882.8585461852263 35.23814372746784) rotate(0 52.5 23)"><path d="M10.51 2.84 L95.38 -0.09 L105.4 -0.92 L104.51 8.33 L107.26 37.16 L102.4 43.84 L94.92 49.99 L5.64 43.23 L0.59 40.47 L-2.79 34.36 L-1.03 5.75 L1.68 1.31 L10.87 -0.78" stroke="none" stroke-width="0" fill="#82c91e33"></path><path d="M11.5 0 M11.5 0 C37.26 -0.33, 67.91 -3.74, 93.5 0 M11.5 0 C42.58 -1.45, 76.47 -2.32, 93.5 0 M93.5 0 C102.19 -2.69, 102.92 5.59, 105 11.5 M93.5 0 C98.48 1.2, 108.06 1.59, 105 11.5 M105 11.5 C104.38 16.11, 105.26 27.88, 105 34.5 M105 11.5 C103.63 16.97, 103.44 24.58, 105 34.5 M105 34.5 C105.83 40.68, 103.74 47.76, 93.5 46 M105 34.5 C109.52 45.12, 102.13 43.43, 93.5 46 M93.5 46 C66.58 47.16, 40.85 49.21, 11.5 46 M93.5 46 C63.86 45.47, 32.66 47.8, 11.5 46 M11.5 46 C1.15 49.62, -0.53 45.99, 0 34.5 M11.5 46 C5.42 42.32, -2.51 39.81, 0 34.5 M0 34.5 C-0.41 29.24, -3.51 23.79, 0 11.5 M0 34.5 C-0.03 25.86, 1.62 18.08, 0 11.5 M0 11.5 C-3.91 5.82, 6.38 0.98, 11.5 0 M0 11.5 C3.82 3.03, 5.5 4.09, 11.5 0" stroke="#5c940d" stroke-width="1" fill="none"></path></g><g transform="translate(907.3585461852263 45.73814372746784) rotate(0 28 12.5)"><text x="28" y="18" font-family="Virgil, Segoe UI Emoji" font-size="20px" fill="#5c940d" text-anchor="middle" style="white-space: pre;" direction="ltr">CORE</text></g><g transform="translate(449.24743507411495 326.23814372746784) rotate(0 64.5 12.5)"><text x="0" y="18" font-family="Virgil, Segoe UI Emoji" font-size="20px" fill="#e6770055" text-anchor="start" style="white-space: pre;" direction="ltr">@hemashushu</text></g><g stroke-linecap="round" transform="translate(364.9999999999999 109.6432072341442) rotate(0 52.5 23)"><path d="M13.39 3.77 L101.99 -2.19 L99.74 4.22 L107.12 5.76 L101.61 42.32 L101.26 42.15 L90.73 44.55 L4.88 42.36 L6.2 41.41 L2.9 34.84 L3.65 11.65 L3.79 6.27 L14.78 0.25" stroke="none" stroke-width="0" fill="#40c05733"></path><path d="M11.5 0 M11.5 0 C29.68 3.67, 40.54 2.31, 93.5 0 M11.5 0 C31.48 0.45, 52.36 -1.13, 93.5 0 M93.5 0 C100.81 -1.55, 105.24 6.54, 105 11.5 M93.5 0 C103.4 -4.52, 108.67 0.02, 105 11.5 M105 11.5 C105.36 20.28, 102.24 26.43, 105 34.5 M105 11.5 C104.47 21.38, 106.95 28.6, 105 34.5 M105 34.5 C101.36 38.77, 102.45 48.1, 93.5 46 M105 34.5 C108.76 40.65, 97.04 44.05, 93.5 46 M93.5 46 C72.84 46.33, 56.8 44.34, 11.5 46 M93.5 46 C74.35 46.11, 55.6 45.12, 11.5 46 M11.5 46 C5.65 49.82, -1.45 39.8, 0 34.5 M11.5 46 C7.3 50.15, -1.93 42.36, 0 34.5 M0 34.5 C2.19 31.72, 0.05 25.79, 0 11.5 M0 34.5 C-0.01 28.04, 0.08 25.65, 0 11.5 M0 11.5 C2.12 7.76, 7.37 1.67, 11.5 0 M0 11.5 C1.4 6.88, -0.07 0.4, 11.5 0" stroke="#2b8a3e" stroke-width="1" fill="none"></path></g><g transform="translate(379.9999999999999 120.1432072341442) rotate(0 37.5 12.5)"><text x="37.5" y="18" font-family="Virgil, Segoe UI Emoji" font-size="20px" fill="#2b8a3e" text-anchor="middle" style="white-space: pre;" direction="ltr">compiler</text></g><g stroke-linecap="round" transform="translate(605.0000000000001 109.6432072341442) rotate(0 43 23)"><path d="M15.32 -1.45 L79.14 4.64 L89.43 7.13 L84.55 38.66 L70.92 44.18 L6.27 46.86 L-0.18 39.01 L-2.87 11.89 L0.75 3.57 L8.88 0.87" stroke="none" stroke-width="0" fill="#40c05733"></path><path d="M11.5 0 M11.5 0 C38.5 0.43, 59.63 1.41, 74.5 0 M11.5 0 C25.45 1.42, 36.74 -0.33, 74.5 0 M74.5 0 C80.99 1.07, 83.98 0.62, 86 11.5 M74.5 0 C84.84 -3.94, 82.75 6.03, 86 11.5 M86 11.5 C87.29 21.84, 83.79 26.58, 86 34.5 M86 11.5 C86.31 18.95, 84.57 28.6, 86 34.5 M86 34.5 C84.74 39.62, 80.19 45.86, 74.5 46 M86 34.5 C86.8 38.3, 85.62 43.6, 74.5 46 M74.5 46 C56.98 44.19, 48.45 43.74, 11.5 46 M74.5 46 C48.47 46.01, 26.28 48.16, 11.5 46 M11.5 46 C0.8 44.49, -0.31 42.01, 0 34.5 M11.5 46 C3.25 45.53, -4.41 44.31, 0 34.5 M0 34.5 C1.92 30.16, -3.57 19.55, 0 11.5 M0 34.5 C-1.42 27.37, 0.71 21.54, 0 11.5 M0 11.5 C-3.42 7.71, 6.56 2.84, 11.5 0 M0 11.5 C-2.32 0.47, 1.93 -2.25, 11.5 0" stroke="#2b8a3e" stroke-width="1" fill="none"></path></g><g transform="translate(623.0000000000001 120.1432072341442) rotate(0 25 12.5)"><text x="25" y="18" font-family="Virgil, Segoe UI Emoji" font-size="20px" fill="#2b8a3e" text-anchor="middle" style="white-space: pre;" direction="ltr">linker</text></g><g stroke-linecap="round" transform="translate(401.4999999999999 177.1432072341442) rotate(0 52.5 23)"><path d="M11.82 0.8 L101.96 4.24 L99.67 -0.72 L105.18 11.81 L103.96 40.6 L98.31 40.55 L97.38 49.32 L4.77 45.91 L-0.03 42 L0.42 40.39 L0.27 11.45 L4.64 6.74 L10.96 -3.3" stroke="none" stroke-width="0" fill="#40c05733"></path><path d="M11.5 0 M11.5 0 C28.06 3.56, 49.37 2.86, 93.5 0 M11.5 0 C34.53 0.22, 61.21 2.07, 93.5 0 M93.5 0 C100.84 1.31, 103.41 1.64, 105 11.5 M93.5 0 C100.05 2.06, 101.22 1.01, 105 11.5 M105 11.5 C101.16 19.03, 105.04 19.76, 105 34.5 M105 11.5 C105.19 16.36, 106.08 22.03, 105 34.5 M105 34.5 C108.47 40.9, 98.28 48.77, 93.5 46 M105 34.5 C103.29 44.45, 102.6 45.69, 93.5 46 M93.5 46 C72.51 42.78, 58.12 43.02, 11.5 46 M93.5 46 C66.56 47.51, 40.23 46.62, 11.5 46 M11.5 46 C3.26 44.92, 3.76 39.32, 0 34.5 M11.5 46 C6.92 49.57, -2.82 46.58, 0 34.5 M0 34.5 C0 26.68, -0.1 16.45, 0 11.5 M0 34.5 C-0.95 24.81, -1.37 18, 0 11.5 M0 11.5 C-3.27 5.08, 5.53 0.1, 11.5 0 M0 11.5 C-4.39 7.25, 6.88 -3.22, 11.5 0" stroke="#2b8a3e" stroke-width="1" fill="none"></path></g><g transform="translate(433.4999999999999 187.6432072341442) rotate(0 20.5 12.5)"><text x="20.5" y="18" font-family="Virgil, Segoe UI Emoji" font-size="20px" fill="#2b8a3e" text-anchor="middle" style="white-space: pre;" direction="ltr">HDL</text></g><g stroke-linecap="round" transform="translate(526.0000000000001 179.1432072341442) rotate(0 56 23)"><path d="M13.7 0.3 L106.72 4.01 L111.94 6.52 L114.8 9.31 L112.35 39.38 L107.83 40.5 L96.74 43.81 L7.39 46.4 L2.33 42.7 L-1.53 34.84 L-2.19 5.2 L2.64 1.93 L9.01 -3.3" stroke="none" stroke-width="0" fill="#40c05733"></path><path d="M11.5 0 M11.5 0 C32.97 2.48, 59.98 1.43, 100.5 0 M11.5 0 C36.92 -0.63, 60.84 2.9, 100.5 0 M100.5 0 C110.37 3.05, 108.2 5.03, 112 11.5 M100.5 0 C104.81 -3.59, 109.43 6.7, 112 11.5 M112 11.5 C111.03 22.46, 110.12 25.01, 112 34.5 M112 11.5 C111.89 18.49, 113.47 25.48, 112 34.5 M112 34.5 C113.11 45.26, 110.12 46.27, 100.5 46 M112 34.5 C109.67 40.11, 107.68 49.74, 100.5 46 M100.5 46 C85.61 49.45, 67.59 49.39, 11.5 46 M100.5 46 C78.82 45.92, 59.13 46.64, 11.5 46 M11.5 46 C3.19 43.11, -2.86 39.15, 0 34.5 M11.5 46 C1.21 47.53, 2.73 45.67, 0 34.5 M0 34.5 C2.94 25.96, 1.02 17.15, 0 11.5 M0 34.5 C1.1 25.94, -0.73 16.85, 0 11.5 M0 11.5 C-1.93 6.81, 3 -3.14, 11.5 0 M0 11.5 C-3.3 6.47, 5.55 3.86, 11.5 0" stroke="#2b8a3e" stroke-width="1" fill="none"></path></g><g transform="translate(536.5000000000001 189.6432072341442) rotate(0 45.5 12.5)"><text x="45.5" y="18" font-family="Virgil, Segoe UI Emoji" font-size="20px" fill="#2b8a3e" text-anchor="middle" style="white-space: pre;" direction="ltr">simulator</text></g><g stroke-linecap="round" transform="translate(815 111.1432072341442) rotate(0 52.5 23)"><path d="M13.29 -3.81 L98.53 -0.56 L104.58 -0.67 L104.81 8.2 L100.63 36.54 L96.99 44.2 L92.45 43.06 L6.79 43.57 L6.39 42.14 L-1.63 35.51 L1.3 5.27 L-0.55 -0.56 L12.17 2.18" stroke="none" stroke-width="0" fill="#82c91e33"></path><path d="M11.5 0 M11.5 0 C35.88 -0.45, 64.45 1.88, 93.5 0 M11.5 0 C40.69 -0.29, 68.03 1.02, 93.5 0 M93.5 0 C104.75 2.91, 107.2 4.28, 105 11.5 M93.5 0 C103.1 1.41, 106.63 4.96, 105 11.5 M105 11.5 C106.73 20.3, 105.51 20.89, 105 34.5 M105 11.5 C104.03 20.1, 102.86 24.59, 105 34.5 M105 34.5 C107.02 43.84, 104.59 42.62, 93.5 46 M105 34.5 C105.73 43.68, 98.48 41.77, 93.5 46 M93.5 46 C69.24 47.93, 50.39 43.52, 11.5 46 M93.5 46 C73.89 42.95, 58.04 45.39, 11.5 46 M11.5 46 C0.48 49.6, -0.03 44.04, 0 34.5 M11.5 46 C8.16 46.59, 2.32 43.93, 0 34.5 M0 34.5 C-1.49 27.99, -4.22 24.49, 0 11.5 M0 34.5 C-0.91 29.55, 0.04 22.98, 0 11.5 M0 11.5 C2.78 6.62, 5.41 -2.15, 11.5 0 M0 11.5 C2.67 2.56, 6.58 -2.34, 11.5 0" stroke="#5c940d" stroke-width="1" fill="none"></path></g><g transform="translate(853 121.6432072341442) rotate(0 14.5 12.5)"><text x="14.5" y="18" font-family="Virgil, Segoe UI Emoji" font-size="20px" fill="#5c940d" text-anchor="middle" style="white-space: pre;" direction="ltr">OS</text></g><g stroke-linecap="round" transform="translate(947.5 106.6432072341442) rotate(0 52.5 23)"><path d="M7.98 2.37 L94.88 4.39 L102.25 5.46 L100.85 5.99 L101.56 42.41 L102.97 46.38 L93.39 47.48 L6.46 43.73 L2.56 40.97 L-1.06 39.26 L-3.6 5.38 L1.58 6.43 L12.35 3.5" stroke="none" stroke-width="0" fill="#82c91e33"></path><path d="M11.5 0 M11.5 0 C37.02 -1.24, 66.33 2.6, 93.5 0 M11.5 0 C33.26 1.33, 55.39 -0.18, 93.5 0 M93.5 0 C98.18 -1.21, 102.64 1.29, 105 11.5 M93.5 0 C103.46 -0.75, 106.5 5.88, 105 11.5 M105 11.5 C101.69 19.32, 107.96 31.1, 105 34.5 M105 11.5 C103.75 16.54, 103.3 22.19, 105 34.5 M105 34.5 C106.91 40.76, 99.27 48.07, 93.5 46 M105 34.5 C103.18 41.77, 101.27 48.41, 93.5 46 M93.5 46 C63.56 48.66, 39.59 50.03, 11.5 46 M93.5 46 C63.09 44.61, 32.75 43.06, 11.5 46 M11.5 46 C6.36 47.82, -2.92 40.51, 0 34.5 M11.5 46 C4.96 49.23, -1.33 42.21, 0 34.5 M0 34.5 C-2.48 29.48, 1.83 25.06, 0 11.5 M0 34.5 C0.82 28.84, 1.77 24.21, 0 11.5 M0 11.5 C-1.76 1.69, 6.55 2.79, 11.5 0 M0 11.5 C2 3.1, 4.58 -1.03, 11.5 0" stroke="#5c940d" stroke-width="1" fill="none"></path></g><g transform="translate(978 117.1432072341442) rotate(0 22 12.5)"><text x="22" y="18" font-family="Virgil, Segoe UI Emoji" font-size="20px" fill="#5c940d" text-anchor="middle" style="white-space: pre;" direction="ltr">shell</text></g><g stroke-linecap="round" transform="translate(838 174.1432072341442) rotate(0 97 24.5)"><path d="M13.73 0 L183.07 -0.12 L188.78 1.82 L195.3 3.11 L190.39 38.33 L194.5 46.78 L185.25 50.62 L6.22 49.55 L2.39 46.34 L-0.23 45.01 L-0.93 12.7 L1.38 1.18 L13.53 -3.03" stroke="none" stroke-width="0" fill="#82c91e33"></path><path d="M12.25 0 M12.25 0 C53.32 -1.52, 101.09 0.37, 181.75 0 M12.25 0 C70.58 -2.51, 123.15 -3.3, 181.75 0 M181.75 0 C192.43 1.99, 191.07 3.05, 194 12.25 M181.75 0 C192.87 -2.61, 193.6 0.44, 194 12.25 M194 12.25 C192.34 22, 192.65 27.25, 194 36.75 M194 12.25 C194.17 21.6, 192.57 27.59, 194 36.75 M194 36.75 C193.24 47.35, 192.86 45.06, 181.75 49 M194 36.75 C190.84 45.45, 189.31 50.24, 181.75 49 M181.75 49 C143.33 48.88, 111.74 53.35, 12.25 49 M181.75 49 C136.03 47.08, 88.67 45.41, 12.25 49 M12.25 49 C5.96 48.76, -1.79 44.44, 0 36.75 M12.25 49 C8.12 50.75, 0.48 48.85, 0 36.75 M0 36.75 C2.94 30.41, 1.95 17.86, 0 12.25 M0 36.75 C0.59 29.13, 0.6 22, 0 12.25 M0 12.25 C-2.12 4.49, 6.81 -1.55, 12.25 0 M0 12.25 C-4.01 3.82, 8.48 4.19, 12.25 0" stroke="#5c940d" stroke-width="1" fill="none"></path></g><g transform="translate(851 186.1432072341442) rotate(0 84 12.5)"><text x="84" y="18" font-family="Virgil, Segoe UI Emoji" font-size="20px" fill="#5c940d" text-anchor="middle" style="white-space: pre;" direction="ltr">package manager</text></g><g stroke-linecap="round" transform="translate(10 117.1432072341442) rotate(0 53.5 23)"><path d="M13.95 -2.8 L103.05 -2.46 L100.98 2.45 L104.94 11.6 L108.18 41.08 L98.89 41.4 L95.43 46.87 L5.21 48.91 L3.35 46.2 L4.01 33.78 L-3.59 10.34 L6.31 2.53 L10.63 -2.58" stroke="none" stroke-width="0" fill="#12b88633"></path><path d="M11.5 0 M11.5 0 C45.84 1, 69 3.43, 95.5 0 M11.5 0 C38.04 -1.72, 67.6 0.93, 95.5 0 M95.5 0 C102.79 -3.81, 110.89 1.33, 107 11.5 M95.5 0 C103.49 -1.97, 108.35 1.41, 107 11.5 M107 11.5 C108.64 20.05, 111.05 24.48, 107 34.5 M107 11.5 C107.98 18.36, 108.83 22.65, 107 34.5 M107 34.5 C108.82 41.83, 101.14 49.26, 95.5 46 M107 34.5 C107.35 38.82, 99.18 44.58, 95.5 46 M95.5 46 C61.78 45.84, 31.12 45.48, 11.5 46 M95.5 46 C72.08 47.06, 47.02 46.47, 11.5 46 M11.5 46 C5.89 42.25, -3.46 38.88, 0 34.5 M11.5 46 C7.13 43.43, -3.8 42.89, 0 34.5 M0 34.5 C0.43 24.4, -3.27 21.59, 0 11.5 M0 34.5 C-1.66 27.73, -0.79 20.64, 0 11.5 M0 11.5 C-3.38 6.1, 5.74 -2.8, 11.5 0 M0 11.5 C-0.93 1.29, 4.62 -2.03, 11.5 0" stroke="#087f5b" stroke-width="1" fill="none"></path></g><g transform="translate(27 127.6432072341442) rotate(0 36.5 12.5)"><text x="36.5" y="18" font-family="Virgil, Segoe UI Emoji" font-size="20px" fill="#087f5b" text-anchor="middle" style="white-space: pre;" direction="ltr">Binutils</text></g><g stroke-linecap="round" transform="translate(131.5 117.6432072341442) rotate(0 53.5 23)"><path d="M9.22 1.82 L100.2 -1.31 L107.38 3.18 L103.91 5.33 L105.05 43.2 L101.74 46.07 L94.68 45.14 L7.88 44.05 L2.1 42.29 L0.96 37.52 L1.65 6.16 L3.17 4.93 L7.75 -3.46" stroke="none" stroke-width="0" fill="#12b88633"></path><path d="M11.5 0 M11.5 0 C26.49 1.57, 48.95 0.93, 95.5 0 M11.5 0 C33 2.07, 56.92 1.46, 95.5 0 M95.5 0 C104.76 -3.17, 105.32 2.4, 107 11.5 M95.5 0 C98.57 -3.89, 109.6 6.03, 107 11.5 M107 11.5 C107.59 15.03, 106.57 24.44, 107 34.5 M107 11.5 C109.08 18.77, 108.99 25.8, 107 34.5 M107 34.5 C108.51 43.92, 99.21 43.51, 95.5 46 M107 34.5 C107.07 40.23, 102.21 46.63, 95.5 46 M95.5 46 C74.04 48.9, 43.56 42.41, 11.5 46 M95.5 46 C65.19 45.97, 32.38 47.08, 11.5 46 M11.5 46 C4.56 44.34, 1.24 43.11, 0 34.5 M11.5 46 C-0.09 41.78, 4.32 40.94, 0 34.5 M0 34.5 C-2.59 30.7, 4.18 20.22, 0 11.5 M0 34.5 C1.68 28.83, -0.95 19.43, 0 11.5 M0 11.5 C-2.26 6.67, 5.01 0.3, 11.5 0 M0 11.5 C0.88 3.96, 1.8 -0.68, 11.5 0" stroke="#087f5b" stroke-width="1" fill="none"></path></g><g transform="translate(161 128.1432072341442) rotate(0 24 12.5)"><text x="24" y="18" font-family="Virgil, Segoe UI Emoji" font-size="20px" fill="#087f5b" text-anchor="middle" style="white-space: pre;" direction="ltr">GDB</text></g><g stroke-linecap="round" transform="translate(12 181.6432072341442) rotate(0 53.5 23)"><path d="M8.7 -0.81 L98.32 1.4 L102.36 2.54 L109.18 8.92 L110.25 41.88 L105.75 44.99 L98.58 46.73 L7.98 47.03 L-1.08 40.63 L0.24 35.51 L-0.65 9.35 L2.48 3.16 L12.07 2.91" stroke="none" stroke-width="0" fill="#12b88633"></path><path d="M11.5 0 M11.5 0 C45.12 3.16, 73.24 3.31, 95.5 0 M11.5 0 C36.59 -1.67, 61.58 -0.37, 95.5 0 M95.5 0 C99.75 -3.67, 110.76 2.76, 107 11.5 M95.5 0 C103.71 -3.73, 104.21 0.43, 107 11.5 M107 11.5 C106.99 16.42, 110.28 31.63, 107 34.5 M107 11.5 C105.55 20.93, 107.27 27.67, 107 34.5 M107 34.5 C107.77 42.28, 101.4 45.41, 95.5 46 M107 34.5 C102.6 45.36, 105.95 45.85, 95.5 46 M95.5 46 C74.6 45.61, 48.05 45.3, 11.5 46 M95.5 46 C71.56 46.71, 49.12 46.26, 11.5 46 M11.5 46 C0.78 45.24, 0.35 38.27, 0 34.5 M11.5 46 C4.97 45.83, 1.23 41.27, 0 34.5 M0 34.5 C-0.22 25.89, -3.81 25.25, 0 11.5 M0 34.5 C2.07 25.19, -0.37 18.38, 0 11.5 M0 11.5 C0.79 3.15, 5.38 -1.22, 11.5 0 M0 11.5 C-3.16 0.15, 5.98 2.06, 11.5 0" stroke="#087f5b" stroke-width="1" fill="none"></path></g><g transform="translate(46.5 192.1432072341442) rotate(0 19 12.5)"><text x="19" y="18" font-family="Virgil, Segoe UI Emoji" font-size="20px" fill="#087f5b" text-anchor="middle" style="white-space: pre;" direction="ltr">ISA</text></g><g stroke-linecap="round" transform="translate(136.5 180.1432072341442) rotate(0 53.5 23)"><path d="M14.24 2.99 L102.13 3.89 L106.96 4.7 L105.46 11.65 L108.24 37.63 L102.53 44.2 L95.53 42.98 L5.21 48.95 L-1 42.59 L-2.84 39 L0.72 7.17 L4.99 6.3 L10.23 -1.73" stroke="none" stroke-width="0" fill="#12b88633"></path><path d="M11.5 0 M11.5 0 C37.61 -0.9, 59.47 0.83, 95.5 0 M11.5 0 C35.05 1.2, 54.49 1.64, 95.5 0 M95.5 0 C105.3 1.73, 107.38 4.66, 107 11.5 M95.5 0 C106.33 1.53, 102.63 1.72, 107 11.5 M107 11.5 C108.91 12.91, 104.83 21.69, 107 34.5 M107 11.5 C108.88 15.85, 108.48 21.01, 107 34.5 M107 34.5 C110.65 42.55, 107.05 47.81, 95.5 46 M107 34.5 C110.24 44.78, 105.44 50.22, 95.5 46 M95.5 46 C73.83 48.27, 50.46 41.41, 11.5 46 M95.5 46 C72.38 44.76, 50.92 46.62, 11.5 46 M11.5 46 C3.11 47.3, 0.43 42.43, 0 34.5 M11.5 46 C6.41 50.28, 1.61 44.38, 0 34.5 M0 34.5 C-1.4 26, -2.09 18.42, 0 11.5 M0 34.5 C0.59 27.62, -0.86 22.8, 0 11.5 M0 11.5 C1.12 1.16, 1.28 -1.19, 11.5 0 M0 11.5 C2.98 5.2, 5.07 0.53, 11.5 0" stroke="#087f5b" stroke-width="1" fill="none"></path></g><g transform="translate(168.5 190.6432072341442) rotate(0 21.5 12.5)"><text x="21.5" y="18" font-family="Virgil, Segoe UI Emoji" font-size="20px" fill="#087f5b" text-anchor="middle" style="white-space: pre;" direction="ltr">ASM</text></g><g stroke-linecap="round"><g transform="translate(269.5 159.1432072341442) rotate(0 43.37035548947753 0.7914053208753273)"><path d="M-0.7 0.76 C13.88 0.8, 72.55 0.29, 87.44 0.3 M1.14 0.11 C15.5 0.3, 71.68 1.15, 86.2 1.47" stroke="#2b8a3e" stroke-width="2" fill="none"></path></g><g transform="translate(269.5 159.1432072341442) rotate(0 43.37035548947753 0.7914053208753273)"><path d="M59.09 10.28 C65.16 9.56, 74.48 5.57, 86.28 1.32 M58.56 11.18 C64.18 8.14, 71.47 6.03, 85.97 2.23" stroke="#2b8a3e" stroke-width="2" fill="none"></path></g><g transform="translate(269.5 159.1432072341442) rotate(0 43.37035548947753 0.7914053208753273)"><path d="M59.46 -10.23 C65.42 -4.81, 74.64 -2.65, 86.28 1.32 M58.93 -9.34 C64.62 -7.46, 71.82 -4.66, 85.97 2.23" stroke="#2b8a3e" stroke-width="2" fill="none"></path></g></g><g stroke-linecap="round"><g transform="translate(716 160.1432072341442) rotate(0 39.08790620113723 1.0996417548507509)"><path d="M-0.32 -0.65 C12.6 -0.3, 63.55 2.26, 76.38 2.85 M1.71 1.63 C15.08 1.58, 65.6 1.27, 78.5 1.17" stroke="#2b8a3e" stroke-width="2" fill="none"></path></g><g transform="translate(716 160.1432072341442) rotate(0 39.08790620113723 1.0996417548507509)"><path d="M49.3 9.75 C57.49 8.12, 63.31 7.21, 79.11 -0.64 M51.16 11.65 C57.6 9.42, 65.25 6.12, 79.12 0.91" stroke="#2b8a3e" stroke-width="2" fill="none"></path></g><g transform="translate(716 160.1432072341442) rotate(0 39.08790620113723 1.0996417548507509)"><path d="M49.16 -10.77 C57.51 -8.19, 63.36 -4.89, 79.11 -0.64 M51.02 -8.87 C57.53 -5.57, 65.21 -3.34, 79.12 0.91" stroke="#2b8a3e" stroke-width="2" fill="none"></path></g></g><g stroke-linecap="round"><g transform="translate(308 17.1432072341442) rotate(0 -0.8947477957950127 143.69225297234956)"><path d="M-0.61 -0.4 C-0.94 47.61, -1.28 239.69, -1.14 287.79" stroke="#2b8a3e" stroke-width="1.5" fill="none" stroke-dasharray="1.5 7"></path></g></g><g stroke-linecap="round"><g transform="translate(751.394747795795 8.950954261794692) rotate(0 0.9244439204373975 144.18364872001115)"><path d="M0.92 1.05 C0.94 48.88, 1.02 239.33, 0.89 287.32" stroke="#2b8a3e" stroke-width="1.5" fill="none" stroke-dasharray="1.5 7"></path></g></g><g transform="translate(92 263.6432072341442) rotate(0 34 18)"><text x="0" y="25" font-family="Virgil, Segoe UI Emoji" font-size="28px" fill="#2b8a3e" text-anchor="start" style="white-space: pre;" direction="ltr">learn</text></g><g transform="translate(429 267.6432072341442) rotate(0 80 18)"><text x="0" y="25" font-family="Virgil, Segoe UI Emoji" font-size="28px" fill="#2b8a3e" text-anchor="start" style="white-space: pre;" direction="ltr">craft tools</text></g><g transform="translate(863 262.1432072341442) rotate(0 84 18)"><text x="0" y="25" font-family="Virgil, Segoe UI Emoji" font-size="28px" fill="#2b8a3e" text-anchor="start" style="white-space: pre;" direction="ltr">build system</text></g><g stroke-linecap="round" transform="translate(481.4999999999999 108.6432072341442) rotate(0 55.5 23)"><path d="M14.05 -0.92 L101.8 -2.86 L109.23 4.72 L113.4 8.66 L107.99 41.34 L104.88 47.9 L96.16 48.85 L3.8 42.67 L0.95 45.15 L-1.83 35.81 L2.06 10.39 L-0.45 2.43 L15.3 -3.04" stroke="none" stroke-width="0" fill="#40c05733"></path><path d="M11.5 0 M11.5 0 C33.64 2.78, 60.05 -3.71, 99.5 0 M11.5 0 C44.57 -2.59, 75.65 -0.33, 99.5 0 M99.5 0 C108.06 -1.12, 109.97 6.61, 111 11.5 M99.5 0 C105.93 2.78, 113.62 7.93, 111 11.5 M111 11.5 C110.61 18.53, 112.24 28.09, 111 34.5 M111 11.5 C113.19 17.23, 109.47 25.24, 111 34.5 M111 34.5 C110.8 40.61, 111.06 43.27, 99.5 46 M111 34.5 C112.17 40.09, 105.1 42.47, 99.5 46 M99.5 46 C67.83 42.07, 36.4 45.76, 11.5 46 M99.5 46 C73 46.49, 46.11 46.78, 11.5 46 M11.5 46 C2.77 48.79, 2.75 40.75, 0 34.5 M11.5 46 C1.64 45.22, 3.29 41.32, 0 34.5 M0 34.5 C2.4 32.3, -3.55 22.38, 0 11.5 M0 34.5 C-0.49 25.07, 1.24 17.37, 0 11.5 M0 11.5 C3.3 3.74, 0.67 2.38, 11.5 0 M0 11.5 C3.27 8.4, 7.85 2.48, 11.5 0" stroke="#2b8a3e" stroke-width="1" fill="none"></path></g><g transform="translate(488.9999999999999 119.1432072341442) rotate(0 48 12.5)"><text x="48" y="18" font-family="Virgil, Segoe UI Emoji" font-size="20px" fill="#2b8a3e" text-anchor="middle" style="white-space: pre;" direction="ltr">assembler</text></g></svg>