<svg version="1.1" xmlns="http://www.w3.org/2000/svg" viewBox="0 0 782.595513867603 513.4142905771121" width="1565.191027735206" height="1026.8285811542241">
  <!-- svg-source:excalidraw -->
  
  <defs>
    <style class="style-fonts">
      @font-face {
        font-family: "Virgil";
        src: url("https://excalidraw.com/Virgil.woff2");
      }
      @font-face {
        font-family: "Cascadia";
        src: url("https://excalidraw.com/Cascadia.woff2");
      }
    </style>
  </defs>
  <rect x="0" y="0" width="782.595513867603" height="513.4142905771121" fill="#ffffff"></rect><g stroke-linecap="round" transform="translate(124.02628289598533 283.414290577112) rotate(0 55 19.5)"><path d="M12.45 1.85 L107.99 -0.7 L108.4 8.33 L106.24 32.71 L110.84 32.77 L99.94 38.53 L8.47 36.02 L2.51 32.97 L1.42 13.74 L1.61 0.39 L7.47 -2.65" stroke="none" stroke-width="0" fill="#12b88633"></path><path d="M9.75 0 M9.75 0 C27.12 -0.65, 49.04 -0.08, 100.25 0 M9.75 0 C36.14 -0.34, 60.75 1, 100.25 0 M100.25 0 C103.84 3.46, 110.14 7.09, 110 9.75 M100.25 0 C105.32 0.28, 113.63 1.54, 110 9.75 M110 9.75 C111.45 13.82, 110.75 25.04, 110 29.25 M110 9.75 C108.95 14.18, 108.46 19.51, 110 29.25 M110 29.25 C109.92 35.31, 103.86 36.73, 100.25 39 M110 29.25 C107.61 33.04, 103.94 38.51, 100.25 39 M100.25 39 C72.97 44.1, 44.74 41, 9.75 39 M100.25 39 C78.57 38.78, 56.47 38.51, 9.75 39 M9.75 39 C6.12 42.2, -1.79 37.42, 0 29.25 M9.75 39 C6.76 36.2, 3.43 38.32, 0 29.25 M0 29.25 C3.37 26.05, -3.47 18.04, 0 9.75 M0 29.25 C-0.87 24.07, 0.58 17.71, 0 9.75 M0 9.75 C1.72 5.12, 6.25 3.28, 9.75 0 M0 9.75 C0.72 1.71, 7.77 -1.07, 9.75 0" stroke="#087f5b" stroke-width="1" fill="none"></path></g><g transform="translate(146.52628289598533 292.914290577112) rotate(0 32.5 10)"><text x="32.5" y="14" font-family="Virgil, Segoe UI Emoji" font-size="16px" fill="#087f5b" text-anchor="middle" style="white-space: pre;" direction="ltr">practice</text></g><g stroke-linecap="round" transform="translate(344.91517178487425 305.414290577112) rotate(0 55.5 19.5)"><path d="M13.23 -1.31 L104.53 3.45 L107.24 4.68 L113.67 29.72 L108.25 36.09 L104.23 36.63 L7.38 37.85 L2.03 37.51 L-0.83 7.7 L0.16 -0.21 L6.78 -2.84" stroke="none" stroke-width="0" fill="#40c05733"></path><path d="M9.75 0 M9.75 0 C32.87 -0.08, 58.32 2.19, 101.25 0 M9.75 0 C33.56 1.25, 55.42 2.74, 101.25 0 M101.25 0 C107.89 3.84, 109.76 3.49, 111 9.75 M101.25 0 C111.38 -1.71, 112.17 0.16, 111 9.75 M111 9.75 C112.19 17.18, 109.27 21.68, 111 29.25 M111 9.75 C108.98 17.02, 110.71 24.15, 111 29.25 M111 29.25 C108.11 33.48, 105.67 36.65, 101.25 39 M111 29.25 C108.19 35.26, 108.71 37.29, 101.25 39 M101.25 39 C70.49 41.63, 32.36 41.1, 9.75 39 M101.25 39 C71.03 37.1, 41.42 39.82, 9.75 39 M9.75 39 C1.46 40.67, 3.06 33.31, 0 29.25 M9.75 39 C6.68 41.57, -3.09 39.91, 0 29.25 M0 29.25 C-3.49 21.53, -2.37 16.9, 0 9.75 M0 29.25 C0.66 22.67, 1.04 20.67, 0 9.75 M0 9.75 C3 6.53, 3.88 -1.34, 9.75 0 M0 9.75 C4.52 2.18, -1.24 2.29, 9.75 0" stroke="#2b8a3e" stroke-width="1" fill="none"></path></g><g transform="translate(356.41517178487425 314.914290577112) rotate(0 44 10)"><text x="44" y="14" font-family="Virgil, Segoe UI Emoji" font-size="16px" fill="#2b8a3e" text-anchor="middle" style="white-space: pre;" direction="ltr">understand</text></g><g stroke-linecap="round" transform="translate(557.8040606737632 290.414290577112) rotate(0 52.5 19.5)"><path d="M8.76 2.84 L96.37 -0.19 L107.67 1.69 L104.08 33.04 L105.54 34.19 L97.15 38.45 L6.91 42.38 L-0.22 31.47 L-2.28 7.1 L-0.53 -0.4 L8.54 -3.06" stroke="none" stroke-width="0" fill="#82c91e33"></path><path d="M9.75 0 M9.75 0 C32.06 1.91, 54.24 2.29, 95.25 0 M9.75 0 C29.21 1.53, 51.65 1.72, 95.25 0 M95.25 0 C100.51 0.24, 108.15 1.76, 105 9.75 M95.25 0 C102.92 -3.09, 102.61 5.27, 105 9.75 M105 9.75 C103.2 16.71, 108.02 16.62, 105 29.25 M105 9.75 C104.61 14.91, 103.24 19.4, 105 29.25 M105 29.25 C102.92 33.4, 99.3 38.58, 95.25 39 M105 29.25 C105.96 34.04, 104.71 41.02, 95.25 39 M95.25 39 C58.96 39.65, 28.53 40.19, 9.75 39 M95.25 39 C74.69 39.65, 50.36 38.88, 9.75 39 M9.75 39 C6.31 36.56, 2.98 37.99, 0 29.25 M9.75 39 C0.16 43.16, -0.61 40.15, 0 29.25 M0 29.25 C-1.69 21.56, -1.9 14.23, 0 9.75 M0 29.25 C0.75 24.64, 1.37 19.8, 0 9.75 M0 9.75 C0.63 1.91, 7.18 -0.93, 9.75 0 M0 9.75 C-4.49 5.54, 6.17 1.12, 9.75 0" stroke="#5c940d" stroke-width="1" fill="none"></path></g><g transform="translate(577.8040606737632 299.914290577112) rotate(0 32.5 10)"><text x="32.5" y="14" font-family="Virgil, Segoe UI Emoji" font-size="16px" fill="#5c940d" text-anchor="middle" style="white-space: pre;" direction="ltr">practice</text></g><g stroke-linecap="round" transform="translate(558.1929495626521 131.414290577112) rotate(0 56 19)"><path d="M6.35 -0.8 L109.93 -3.2 L111.1 4.87 L114.39 30.29 L111.52 35.08 L103.92 41.99 L4.51 35.36 L-1.69 30 L-2.97 6.66 L1.16 -0.68 L8.31 -1.56" stroke="none" stroke-width="0" fill="#fab00533"></path><path d="M9.5 0 M9.5 0 C34.24 1.25, 60.16 -0.26, 102.5 0 M9.5 0 C38.56 0.31, 66.85 -1.49, 102.5 0 M102.5 0 C111.99 -1.49, 113.02 0.48, 112 9.5 M102.5 0 C106.44 2.02, 109.31 4.37, 112 9.5 M112 9.5 C114.66 13.98, 110.9 19.99, 112 28.5 M112 9.5 C110.62 14.08, 111 19.7, 112 28.5 M112 28.5 C109.55 34.41, 109.67 36.51, 102.5 38 M112 28.5 C114.96 36.85, 113.36 40.95, 102.5 38 M102.5 38 C74.05 38.97, 41.11 38.96, 9.5 38 M102.5 38 C78.89 40.32, 58.6 38.27, 9.5 38 M9.5 38 C6.15 40.24, -2.69 38.45, 0 28.5 M9.5 38 C2.56 42.4, 1.59 31.15, 0 28.5 M0 28.5 C-1.96 21.92, -0.44 20.08, 0 9.5 M0 28.5 C1.26 26.15, 0.13 20.05, 0 9.5 M0 9.5 C3.93 2.24, -0.74 1.99, 9.5 0 M0 9.5 C2.92 4.29, 6.99 -0.8, 9.5 0" stroke="#e67700" stroke-width="1" fill="none"></path></g><g transform="translate(570.1929495626521 140.414290577112) rotate(0 44 10)"><text x="44" y="14" font-family="Virgil, Segoe UI Emoji" font-size="16px" fill="#e67700" text-anchor="middle" style="white-space: pre;" direction="ltr">understand</text></g><g stroke-linecap="round" transform="translate(348.69294956265196 88.91429057711201) rotate(0 54 18.5)"><path d="M12.53 -3.79 L102.49 0.1 L110.4 2.84 L109.32 31.25 L107.11 38.68 L97.92 34.95 L2.92 33.77 L-2.39 28.96 L-1.21 6.19 L1.12 0.75 L8.62 -0.78" stroke="none" stroke-width="0" fill="#fd7e1433"></path><path d="M9.25 0 M9.25 0 C37.56 -0.4, 70.77 -3.81, 98.75 0 M9.25 0 C43.23 -1.6, 80.02 -2.46, 98.75 0 M98.75 0 C105.94 -2.69, 105.92 4.84, 108 9.25 M98.75 0 C102.23 1.2, 111.06 0.84, 108 9.25 M108 9.25 C107.38 12.52, 108.2 22.41, 108 27.75 M108 9.25 C106.77 13.51, 106.6 19.75, 108 27.75 M108 27.75 C108.83 32.43, 107.49 38.76, 98.75 37 M108 27.75 C112.52 36.87, 105.88 34.43, 98.75 37 M98.75 37 C69.52 38.2, 41.49 40.24, 9.25 37 M98.75 37 C66.26 36.53, 32.2 38.87, 9.25 37 M9.25 37 C0.4 40.62, -0.53 37.74, 0 27.75 M9.25 37 C4.67 33.32, -2.51 31.56, 0 27.75 M0 27.75 C-0.41 23.63, -3.28 19.35, 0 9.25 M0 27.75 C0.01 20.72, 1.54 14.49, 0 9.25 M0 9.25 C-3.91 5.07, 5.63 0.98, 9.25 0 M0 9.25 C3.82 2.28, 4.75 4.09, 9.25 0" stroke="#d9480f" stroke-width="1" fill="none"></path></g><g transform="translate(370.19294956265196 97.41429057711201) rotate(0 32.5 10)"><text x="32.5" y="14" font-family="Virgil, Segoe UI Emoji" font-size="16px" fill="#d9480f" text-anchor="middle" style="white-space: pre;" direction="ltr">practice</text></g><g stroke-linecap="round" transform="translate(156.19294956265196 345.914290577112) rotate(0 24.5 25.5)"><path d="M21.66 0.01 C26.49 -0.96, 33.5 0.83, 37.8 3.83 C42.11 6.82, 46.05 12.61, 47.49 17.96 C48.93 23.32, 48.59 30.72, 46.43 35.96 C44.27 41.2, 39.09 46.93, 34.55 49.41 C30 51.89, 24.11 52.31, 19.16 50.85 C14.22 49.38, 8.18 45.03, 4.85 40.61 C1.52 36.2, -1.02 29.96, -0.81 24.34 C-0.61 18.72, 1.72 11.01, 6.1 6.9 C10.47 2.8, 21.61 0.79, 25.43 -0.29 C29.26 -1.36, 29.25 -0.1, 29.06 0.44 M23.96 0.99 C28.81 0.67, 35.66 1.86, 39.67 5.09 C43.68 8.32, 47.04 14.77, 47.99 20.39 C48.94 26.02, 47.83 34.21, 45.39 38.85 C42.94 43.49, 38.44 46.37, 33.34 48.22 C28.23 50.08, 20.02 51.64, 14.76 49.98 C9.5 48.31, 4.2 43.27, 1.75 38.24 C-0.69 33.21, -0.97 25.14, 0.09 19.81 C1.14 14.47, 3.89 9.5, 8.09 6.22 C12.28 2.95, 22.4 0.89, 25.25 0.13 C28.1 -0.63, 25.12 1.4, 25.18 1.68" stroke="none" stroke-width="0" fill="#fa525255"></path><path d="M26.14 0.28 C31.01 0.64, 38.07 4.47, 41.95 8.33 C45.82 12.19, 49.01 18.2, 49.39 23.45 C49.77 28.7, 47.25 35.37, 44.24 39.84 C41.23 44.32, 36.54 48.78, 31.32 50.29 C26.1 51.8, 17.79 51.39, 12.93 48.89 C8.08 46.4, 4.21 40.56, 2.18 35.34 C0.16 30.12, -0.67 22.6, 0.77 17.57 C2.21 12.54, 5.76 7.8, 10.81 5.15 C15.87 2.5, 26.78 1.82, 31.11 1.68 C35.43 1.54, 36.79 3.86, 36.75 4.32 M24.6 0.68 C29.6 0.29, 35.02 3.49, 38.95 7.06 C42.88 10.62, 47.23 17.1, 48.18 22.09 C49.14 27.07, 47.06 32.57, 44.65 36.97 C42.25 41.37, 38.62 46.33, 33.75 48.49 C28.89 50.64, 20.39 51.82, 15.45 49.91 C10.51 48, 6.53 41.63, 4.13 37.04 C1.73 32.45, 0.38 27.5, 1.07 22.36 C1.75 17.22, 4.28 10.08, 8.24 6.19 C12.19 2.3, 21.88 -0.18, 24.81 -0.96 C27.74 -1.73, 26.06 1.1, 25.84 1.54" stroke="#000000" stroke-width="1" fill="none"></path></g><g stroke-linecap="round"><g transform="translate(192.0185423094607 384.14650135697826) rotate(0 -10.786350177885623 -2.120563104515668)" fill-rule="evenodd"><path d="M0 0 L-8.28 -3.58 L-13.06 -3.83 L-21.56 -0.13 L-10.82 -4.24 L0 0" stroke="none" stroke-width="0" fill="#fa525255" fill-rule="evenodd"></path><path d="M0 0 C-1.38 -0.6, -6.1 -2.95, -8.28 -3.58 C-10.45 -4.22, -10.85 -4.4, -13.06 -3.83 C-15.28 -3.25, -21.93 -0.06, -21.56 -0.13 C-21.18 -0.2, -14.41 -4.26, -10.82 -4.24 C-7.22 -4.22, -1.8 -0.71, 0 0 M0 0 C-1.38 -0.6, -6.1 -2.95, -8.28 -3.58 C-10.45 -4.22, -10.85 -4.4, -13.06 -3.83 C-15.28 -3.25, -21.93 -0.06, -21.56 -0.13 C-21.18 -0.2, -14.41 -4.26, -10.82 -4.24 C-7.22 -4.22, -1.8 -0.71, 0 0" stroke="#000000" stroke-width="1" fill="none"></path></g></g><g stroke-linecap="round"><g transform="translate(194.3056943794935 369.1184688419633) rotate(538.24567963071 -6.177689858513446 -2.6913391628531826)"><path d="M0 0 C-0.15 -0.59, -0.24 -2.69, -0.88 -3.55 C-1.51 -4.41, -2.58 -4.92, -3.82 -5.14 C-5.06 -5.37, -6.91 -5.64, -8.33 -4.89 C-9.75 -4.13, -11.68 -1.32, -12.36 -0.61 M0 0 C-0.15 -0.59, -0.24 -2.69, -0.88 -3.55 C-1.51 -4.41, -2.58 -4.92, -3.82 -5.14 C-5.06 -5.37, -6.91 -5.64, -8.33 -4.89 C-9.75 -4.13, -11.68 -1.32, -12.36 -0.61" stroke="#000" stroke-width="1" fill="none"></path></g></g><g stroke-linecap="round"><g transform="translate(176.41064143327264 368.7786261570157) rotate(538.24567963071 -6.1678685235936825 -2.697295588588645)"><path d="M0 0 C-0.15 -0.59, -0.25 -2.7, -0.9 -3.56 C-1.56 -4.41, -2.66 -4.93, -3.94 -5.16 C-5.22 -5.38, -7.2 -5.66, -8.59 -4.9 C-9.99 -4.14, -11.71 -1.32, -12.34 -0.6 M0 0 C-0.15 -0.59, -0.25 -2.7, -0.9 -3.56 C-1.56 -4.41, -2.66 -4.93, -3.94 -5.16 C-5.22 -5.38, -7.2 -5.66, -8.59 -4.9 C-9.99 -4.14, -11.71 -1.32, -12.34 -0.6" stroke="#000" stroke-width="1" fill="none"></path></g></g><g stroke-linecap="round" transform="translate(121.19294956265196 123.41429057711198) rotate(0 56 20)"><path d="M9.69 -0.47 L109.36 -1.74 L113.27 5.08 L112.8 38.37 L108.67 35.45 L99.72 37.35 L2.65 36.54 L-0.59 31.32 L-1.19 8.44 L1.87 1.72 L11.64 -1.7" stroke="none" stroke-width="0" fill="#be4bdb33"></path><path d="M10 0 M10 0 C42.71 -3.14, 77.94 -0.09, 102 0 M10 0 C48.01 -0.86, 83.37 -1.46, 102 0 M102 0 C106.59 1.76, 109.67 4.38, 112 10 M102 0 C111.73 -2.24, 114.66 6.78, 112 10 M112 10 C111.82 14.61, 111.46 16.49, 112 30 M112 10 C110.57 14.66, 112.21 18.99, 112 30 M112 30 C114.57 38.42, 112.6 42.56, 102 40 M112 30 C112.96 34.1, 109.01 41.6, 102 40 M102 40 C70.25 43.25, 46.16 38.59, 10 40 M102 40 C72.05 40, 37.78 40.69, 10 40 M10 40 C2.8 43.82, 1.38 33.47, 0 30 M10 40 C0.82 37.64, -1.37 34.06, 0 30 M0 30 C-3.71 26.73, 1.94 23.02, 0 10 M0 30 C1.9 21.9, -2.02 15.72, 0 10 M0 10 C2.54 4.31, 6.65 -0.69, 10 0 M0 10 C1.67 7.43, 2.56 -3.14, 10 0" stroke="#862e9c" stroke-width="1" fill="none"></path></g><g transform="translate(133.19294956265196 133.41429057711198) rotate(0 44 10)"><text x="44" y="14" font-family="Virgil, Segoe UI Emoji" font-size="16px" fill="#862e9c" text-anchor="middle" style="white-space: pre;" direction="ltr">understand</text></g><g stroke-linecap="round" transform="translate(589.7507260820781 351.5) rotate(0 24.5 25.5)"><path d="M25.99 0.82 C31.09 0.72, 38.08 3.27, 41.89 6.99 C45.7 10.71, 48.46 17.6, 48.86 23.15 C49.26 28.7, 47.16 35.67, 44.29 40.29 C41.42 44.91, 36.54 49.32, 31.64 50.86 C26.73 52.4, 19.83 52.1, 14.87 49.55 C9.91 47, 4.31 40.58, 1.89 35.56 C-0.54 30.54, -1.25 24.62, 0.29 19.44 C1.84 14.26, 6.15 7.58, 11.18 4.46 C16.21 1.33, 26.51 0.83, 30.46 0.68 C34.41 0.53, 34.9 3.28, 34.88 3.57 M17.83 0.56 C22.2 -1.55, 28.4 -0.8, 33.12 1.57 C37.84 3.94, 43.81 9.63, 46.15 14.79 C48.48 19.94, 48.08 27.2, 47.11 32.5 C46.13 37.81, 44.2 43.44, 40.27 46.61 C36.34 49.78, 28.73 51.8, 23.53 51.52 C18.33 51.24, 13.16 48.85, 9.04 44.94 C4.92 41.03, -0.35 33.78, -1.19 28.07 C-2.04 22.35, 1.05 15.22, 3.97 10.67 C6.9 6.13, 13.96 2.4, 16.34 0.79 C18.72 -0.82, 17.74 0.53, 18.27 1.01" stroke="none" stroke-width="0" fill="#fa525255"></path><path d="M17.63 1.33 C22.32 -0.43, 29.31 0.04, 34.15 2.02 C38.99 3.99, 44.15 8.39, 46.66 13.21 C49.17 18.02, 50.34 25.46, 49.22 30.88 C48.1 36.3, 44.32 42.21, 39.93 45.71 C35.55 49.22, 28.11 52.1, 22.9 51.91 C17.69 51.73, 12.45 48.23, 8.68 44.6 C4.91 40.96, 1.05 35.43, 0.28 30.1 C-0.5 24.77, 0.76 17.42, 4.05 12.62 C7.34 7.81, 16.92 3.22, 20.01 1.28 C23.1 -0.66, 22.6 0.65, 22.58 0.96 M20.7 -0.26 C25.47 -1.62, 32.67 -0.44, 37.24 2.51 C41.8 5.46, 46.24 12.33, 48.11 17.42 C49.97 22.51, 50.17 27.95, 48.42 33.06 C46.67 38.17, 42.41 45.24, 37.63 48.09 C32.85 50.94, 25.08 50.93, 19.75 50.16 C14.41 49.39, 8.83 47.74, 5.63 43.48 C2.42 39.21, 0.54 30.47, 0.51 24.59 C0.49 18.7, 2.36 12.01, 5.49 8.17 C8.62 4.32, 17.09 2.5, 19.31 1.51 C21.53 0.52, 18.63 2.06, 18.82 2.23" stroke="#000000" stroke-width="1" fill="none"></path></g><g stroke-linecap="round"><g transform="translate(625.5763188288871 389.73221077986625) rotate(0 -10.786350177885595 -2.120563104515668)" fill-rule="evenodd"><path d="M0 0 L-8.28 -3.58 L-13.06 -3.83 L-21.56 -0.13 L-10.82 -4.24 L0 0" stroke="none" stroke-width="0" fill="#fa525255" fill-rule="evenodd"></path><path d="M0 0 C-1.38 -0.6, -6.1 -2.95, -8.28 -3.58 C-10.45 -4.22, -10.85 -4.4, -13.06 -3.83 C-15.28 -3.25, -21.93 -0.06, -21.56 -0.13 C-21.18 -0.2, -14.41 -4.26, -10.82 -4.24 C-7.22 -4.22, -1.8 -0.71, 0 0 M0 0 C-1.38 -0.6, -6.1 -2.95, -8.28 -3.58 C-10.45 -4.22, -10.85 -4.4, -13.06 -3.83 C-15.28 -3.25, -21.93 -0.06, -21.56 -0.13 C-21.18 -0.2, -14.41 -4.26, -10.82 -4.24 C-7.22 -4.22, -1.8 -0.71, 0 0" stroke="#000000" stroke-width="1" fill="none"></path></g></g><g stroke-linecap="round"><g transform="translate(627.8634708989199 374.7041782648513) rotate(538.24567963071 -6.177689858513418 -2.6913391628531826)"><path d="M0 0 C-0.15 -0.59, -0.24 -2.69, -0.88 -3.55 C-1.51 -4.41, -2.58 -4.92, -3.82 -5.14 C-5.06 -5.37, -6.91 -5.64, -8.33 -4.89 C-9.75 -4.13, -11.68 -1.32, -12.36 -0.61 M0 0 C-0.15 -0.59, -0.24 -2.69, -0.88 -3.55 C-1.51 -4.41, -2.58 -4.92, -3.82 -5.14 C-5.06 -5.37, -6.91 -5.64, -8.33 -4.89 C-9.75 -4.13, -11.68 -1.32, -12.36 -0.61" stroke="#000" stroke-width="1" fill="none"></path></g></g><g stroke-linecap="round"><g transform="translate(609.968417952699 374.3643355799037) rotate(538.24567963071 -6.167868523593711 -2.697295588588645)"><path d="M0 0 C-0.15 -0.59, -0.25 -2.7, -0.9 -3.56 C-1.56 -4.41, -2.66 -4.93, -3.94 -5.16 C-5.22 -5.38, -7.2 -5.66, -8.59 -4.9 C-9.99 -4.14, -11.71 -1.32, -12.34 -0.6 M0 0 C-0.15 -0.59, -0.25 -2.7, -0.9 -3.56 C-1.56 -4.41, -2.66 -4.93, -3.94 -5.16 C-5.22 -5.38, -7.2 -5.66, -8.59 -4.9 C-9.99 -4.14, -11.71 -1.32, -12.34 -0.6" stroke="#000" stroke-width="1" fill="none"></path></g></g><g stroke-linecap="round"><g transform="translate(620.5314579050229 104.7783279918666) rotate(334.90373538033356 -1.2961927719103414 -23.279936255139717)" fill-rule="evenodd"><path d="M1.4 1.19 L10.88 -2.03 L10.91 -15.06 L19.2 -30.58 L19.43 -35.88 L16.01 -43.38 L9.05 -45.58 L-1.05 -48.14 L-11.15 -42.62 L-18.99 -36.35 L-19.86 -29.06 L-18.66 -28.07 L-16.66 -24.14 L-3.73 -10.44 L-1.66 1.72" stroke="none" stroke-width="0" fill="#fab00599" fill-rule="evenodd"></path><path d="M-1.13 1.06 C0.71 0.77, 8.23 1.07, 10.26 -1.37 C12.3 -3.8, 9.72 -8.12, 11.06 -13.57 C12.4 -19.03, 18.72 -28.59, 18.29 -34.09 C17.86 -39.58, 13.47 -44.8, 8.47 -46.55 C3.47 -48.31, -7.27 -48.05, -11.72 -44.62 C-16.17 -41.19, -19.72 -31.42, -18.24 -25.96 C-16.75 -20.5, -6.03 -16.27, -2.82 -11.86 C0.39 -7.44, 0.46 -1.6, 1.02 0.52 M0.48 0.57 C2.23 -0.09, 7.67 -0.4, 9.33 -3.08 C10.99 -5.76, 8.92 -10.01, 10.44 -15.52 C11.96 -21.04, 18.99 -31.1, 18.45 -36.19 C17.9 -41.27, 12.55 -44.97, 7.18 -46.04 C1.8 -47.1, -9.18 -45.76, -13.82 -42.59 C-18.46 -39.43, -22.34 -32.1, -20.68 -27.03 C-19.01 -21.96, -7.26 -16.6, -3.84 -12.19 C-0.41 -7.79, -1.03 -2.77, -0.12 -0.6" stroke="#000000" stroke-width="2" fill="none"></path></g></g><g stroke-linecap="round"><g transform="translate(633.5010208875036 98.36711945170248) rotate(327.423799657176 5.1524328540560305 4.5492155717162035)" fill-rule="evenodd"><path d="M1.98 -0.32 L0.83 8.05 L9.56 8.83 L8.49 0.12 L-1.03 -0.33" stroke="none" stroke-width="0" fill="#fab00599" fill-rule="evenodd"></path><path d="M0.02 0.64 C0.34 3.89, 0.16 7.26, 0.88 10.07 M0.21 0.01 C0.11 3.62, 0.51 6.63, 0.95 10.22 M0.67 9.52 C4.74 9.11, 7.85 8.25, 10.51 7.76 M0.32 10.08 C4.07 9.02, 6.96 8.61, 10.49 8.41 M9.64 8.9 C8.92 7.04, 9.34 4.01, 8.08 -0.19 M9.82 8.58 C9.63 5.26, 8.99 2.6, 8.17 -0.59 M9.06 -1.12 C4.58 -0.83, 2.58 0.57, -0.21 -0.27 M8.42 -1.09 C5.74 -0.24, 4.03 -0.19, -0.13 -0.33 M0 0 C0 0, 0 0, 0 0 M0 0 C0 0, 0 0, 0 0" stroke="#000000" stroke-width="2" fill="none"></path></g></g><g stroke-linecap="round"><g transform="translate(632.3354819176608 98.14940082429746) rotate(0 -3.108893809855374 -9.76135015421849)" fill-rule="evenodd"><path d="M-0.4 0.84 L-11.92 -11.08 L-4.25 -17.53 L3.99 -0.82" stroke="none" stroke-width="0" fill="#fab00599" fill-rule="evenodd"></path><path d="M1.05 0.38 C-1.23 -2.79, -3.19 -4.67, -9.99 -12.05 M0.01 0.01 C-1.55 -2.17, -3.99 -4.51, -9.75 -11.96 M-10.59 -11.86 C-8.98 -14.03, -7.72 -15.98, -6.26 -17.98 M-10.15 -12.28 C-8.94 -14.65, -7.22 -16.31, -5.76 -18.61 M-4.52 -19.9 C-1.68 -13.25, -1.17 -8.92, 4.37 -1.27 M-5.18 -18.15 C-3.82 -14.12, -1.16 -10.26, 3.52 -0.96 M3.07 -1.89 C1.84 -0.81, 1.11 -0.45, -0.12 -0.06 M3.08 -1.68 C2.31 -0.89, 1.21 -0.62, -0.14 -0.07" stroke="#000000" stroke-width="2" fill="none"></path></g></g><g stroke-linecap="round" transform="translate(382.25072608207813 10) rotate(0 24.5 25.5)"><path d="M35.32 2.87 C39.9 4.7, 44.88 8.85, 46.96 13.86 C49.03 18.86, 49.22 27.34, 47.79 32.89 C46.37 38.44, 42.77 44.24, 38.4 47.17 C34.03 50.1, 26.87 50.94, 21.57 50.48 C16.28 50.02, 10.36 48.09, 6.65 44.4 C2.94 40.72, -0.36 34.07, -0.66 28.37 C-0.96 22.67, 1.79 14.65, 4.84 10.19 C7.89 5.74, 11.98 2.45, 17.67 1.63 C23.36 0.81, 34.85 4.05, 38.98 5.25 C43.11 6.45, 42.78 8.55, 42.45 8.82 M34.31 1.29 C38.99 2.97, 43.06 8.8, 45.55 13.7 C48.04 18.6, 50.12 25.38, 49.24 30.67 C48.37 35.97, 44.78 41.88, 40.31 45.47 C35.84 49.07, 27.87 52.52, 22.42 52.24 C16.97 51.96, 11.19 47.53, 7.6 43.81 C4.01 40.08, 1.39 35.16, 0.88 29.9 C0.37 24.64, 1.92 17.01, 4.54 12.24 C7.17 7.47, 11.82 3.14, 16.64 1.27 C21.45 -0.59, 30.52 0.66, 33.42 1.04 C36.32 1.41, 34.16 2.88, 34.04 3.53" stroke="none" stroke-width="0" fill="#fa525255"></path><path d="M24.99 0.06 C30.22 0.06, 38.29 2.63, 42.11 6.43 C45.94 10.23, 47.33 17.26, 47.93 22.87 C48.53 28.48, 48.41 35.46, 45.69 40.08 C42.98 44.7, 36.83 49.17, 31.65 50.59 C26.47 52.01, 19.49 50.82, 14.63 48.6 C9.77 46.39, 4.78 42.27, 2.49 37.31 C0.2 32.36, -0.36 24.29, 0.88 18.86 C2.12 13.43, 5.54 7.84, 9.95 4.74 C14.35 1.64, 24.46 1.07, 27.31 0.24 C30.16 -0.58, 27.14 -0.79, 27.06 -0.23 M21.42 0.69 C26.61 -0.42, 34.37 0.34, 38.53 3.05 C42.7 5.76, 44.71 11.64, 46.42 16.95 C48.12 22.25, 50.52 29.69, 48.77 34.86 C47.02 40.03, 40.82 45.34, 35.94 47.97 C31.06 50.6, 24.49 51.57, 19.49 50.63 C14.49 49.68, 9.06 46.44, 5.95 42.3 C2.84 38.17, 0.89 31.63, 0.83 25.84 C0.77 20.05, 2.21 11.82, 5.6 7.57 C8.99 3.32, 18.61 1.39, 21.16 0.33 C23.7 -0.74, 21.11 0.91, 20.88 1.17" stroke="#000000" stroke-width="1" fill="none"></path></g><g stroke-linecap="round"><g transform="translate(418.0763188288871 48.23221077986625) rotate(0 -10.786350177885595 -2.1205631045156537)" fill-rule="evenodd"><path d="M0 0 L-8.28 -3.58 L-13.06 -3.83 L-21.56 -0.13 L-10.82 -4.24 L0 0" stroke="none" stroke-width="0" fill="#fa525255" fill-rule="evenodd"></path><path d="M0 0 C-1.38 -0.6, -6.1 -2.95, -8.28 -3.58 C-10.45 -4.22, -10.85 -4.4, -13.06 -3.83 C-15.28 -3.25, -21.93 -0.06, -21.56 -0.13 C-21.18 -0.2, -14.41 -4.26, -10.82 -4.24 C-7.22 -4.22, -1.8 -0.71, 0 0 M0 0 C-1.38 -0.6, -6.1 -2.95, -8.28 -3.58 C-10.45 -4.22, -10.85 -4.4, -13.06 -3.83 C-15.28 -3.25, -21.93 -0.06, -21.56 -0.13 C-21.18 -0.2, -14.41 -4.26, -10.82 -4.24 C-7.22 -4.22, -1.8 -0.71, 0 0" stroke="#000000" stroke-width="1" fill="none"></path></g></g><g stroke-linecap="round"><g transform="translate(420.3634708989199 33.20417826485129) rotate(538.24567963071 -6.177689858513418 -2.6913391628531897)"><path d="M0 0 C-0.15 -0.59, -0.24 -2.69, -0.88 -3.55 C-1.51 -4.41, -2.58 -4.92, -3.82 -5.14 C-5.06 -5.37, -6.91 -5.64, -8.33 -4.89 C-9.75 -4.13, -11.68 -1.32, -12.36 -0.61 M0 0 C-0.15 -0.59, -0.24 -2.69, -0.88 -3.55 C-1.51 -4.41, -2.58 -4.92, -3.82 -5.14 C-5.06 -5.37, -6.91 -5.64, -8.33 -4.89 C-9.75 -4.13, -11.68 -1.32, -12.36 -0.61" stroke="#000" stroke-width="1" fill="none"></path></g></g><g stroke-linecap="round"><g transform="translate(402.46841795269904 32.864335579903695) rotate(538.24567963071 -6.167868523593711 -2.697295588588645)"><path d="M0 0 C-0.15 -0.59, -0.25 -2.7, -0.9 -3.56 C-1.56 -4.41, -2.66 -4.93, -3.94 -5.16 C-5.22 -5.38, -7.2 -5.66, -8.59 -4.9 C-9.99 -4.14, -11.71 -1.32, -12.34 -0.6 M0 0 C-0.15 -0.59, -0.25 -2.7, -0.9 -3.56 C-1.56 -4.41, -2.66 -4.93, -3.94 -5.16 C-5.22 -5.38, -7.2 -5.66, -8.59 -4.9 C-9.99 -4.14, -11.71 -1.32, -12.34 -0.6" stroke="#000" stroke-width="1" fill="none"></path></g></g><g stroke-linecap="round"><g transform="translate(247.4044564690888 306.42482495591355) rotate(0 39.584703018699315 10.074086683908888)"><path d="M-0.38 1 C5.66 2.67, 20.65 8.37, 34.58 11.35 C48.51 14.32, 75.17 17.67, 83.2 18.83 M-4.03 -0.93 C2.04 1.05, 19.76 10.99, 33.86 14.66 C47.97 18.33, 72.53 20.22, 80.62 21.08" stroke="#d9480f" stroke-width="1" fill="none"></path></g><g transform="translate(247.4044564690888 306.42482495591355) rotate(0 39.584703018699315 10.074086683908888)"><path d="M56.12 31.74 C60.04 24.16, 64.84 21.95, 77.64 18.24 M53.91 27.43 C61.4 26.93, 67.93 25.31, 79.51 21.33" stroke="#d9480f" stroke-width="1" fill="none"></path></g><g transform="translate(247.4044564690888 306.42482495591355) rotate(0 39.584703018699315 10.074086683908888)"><path d="M57.9 13.52 C61.57 10.32, 65.93 12.5, 77.64 18.24 M55.69 9.21 C62.42 13.61, 68.47 16.91, 79.51 21.33" stroke="#d9480f" stroke-width="1" fill="none"></path></g></g><g stroke-linecap="round"><g transform="translate(471.51517178487427 327.47798193369573) rotate(0 35.020577341025785 -6.753857661678325)"><path d="M-1.65 -1.71 C3.24 -1.19, 15.53 3.5, 27.75 1.7 C39.97 -0.09, 63.99 -10.28, 71.69 -12.48 M2.65 3.53 C7.29 3.28, 14.24 0.44, 25.35 -2.99 C36.46 -6.42, 61.01 -14.86, 69.32 -17.04" stroke="#d9480f" stroke-width="1" fill="none"></path></g><g transform="translate(471.51517178487427 327.47798193369573) rotate(0 35.020577341025785 -6.753857661678325)"><path d="M47.96 -3.29 C55.99 -7.58, 62.32 -7.78, 73.25 -14.47 M51.1 -2.45 C55.78 -7.03, 61.58 -10.55, 70.92 -17.93" stroke="#d9480f" stroke-width="1" fill="none"></path></g><g transform="translate(471.51517178487427 327.47798193369573) rotate(0 35.020577341025785 -6.753857661678325)"><path d="M43.27 -18.76 C52.28 -19.23, 59.76 -15.67, 73.25 -14.47 M46.42 -17.92 C52.42 -17.55, 59.73 -16.1, 70.92 -17.93" stroke="#d9480f" stroke-width="1" fill="none"></path></g></g><g stroke-linecap="round"><g transform="translate(680.3120201377029 309.7668402541523) rotate(0 44.044428613072114 -69.5189689955655)"><path d="M-0.49 1.02 C7.7 -3.92, 35.35 -15.32, 49.78 -27.3 C64.21 -39.28, 83.22 -55.57, 86.09 -70.88 C88.96 -86.19, 78.64 -107.63, 66.99 -119.16 C55.35 -130.69, 24.54 -137.17, 16.21 -140.06 M-4.19 -0.9 C3.78 -4.17, 32.88 -11.53, 48.89 -23.92 C64.91 -36.31, 88.86 -59.73, 91.89 -75.23 C94.91 -90.74, 80.11 -106.15, 67.03 -116.95 C53.95 -127.75, 22.43 -136.54, 13.4 -140.02" stroke="#d9480f" stroke-width="1" fill="none"></path></g><g transform="translate(680.3120201377029 309.7668402541523) rotate(0 44.044428613072114 -69.5189689955655)"><path d="M43.17 -137.02 C31.87 -143.22, 26.43 -141.75, 12.35 -138.29 M40.57 -140.94 C34.25 -139.32, 28.73 -139.03, 14.08 -138.51" stroke="#d9480f" stroke-width="1" fill="none"></path></g><g transform="translate(680.3120201377029 309.7668402541523) rotate(0 44.044428613072114 -69.5189689955655)"><path d="M36.9 -118.68 C27.33 -130.81, 23.93 -135.29, 12.35 -138.29 M34.3 -122.61 C29.23 -125.51, 25.23 -129.66, 14.08 -138.51" stroke="#d9480f" stroke-width="1" fill="none"></path></g></g><g stroke-linecap="round"><g transform="translate(539.192949562652 141.414290577112) rotate(0 -35.35529223050747 -18.4339691519325)"><path d="M-2.6 0.21 C-7.51 -3.89, -16.14 -19.1, -27.59 -24.56 C-39.05 -30.01, -63.51 -31.23, -71.34 -32.51 M1.18 -2.15 C-4.39 -5.82, -18.38 -15.41, -30.56 -21.23 C-42.74 -27.05, -64.58 -34.42, -71.89 -37.08" stroke="#d9480f" stroke-width="1" fill="none"></path></g><g transform="translate(539.192949562652 141.414290577112) rotate(0 -35.35529223050747 -18.4339691519325)"><path d="M-47.34 -39.2 C-57.31 -34.35, -62.86 -38.86, -68.98 -34.12 M-48.67 -38.91 C-57.43 -36.77, -63.46 -37.11, -72.92 -38.1" stroke="#d9480f" stroke-width="1" fill="none"></path></g><g transform="translate(539.192949562652 141.414290577112) rotate(0 -35.35529223050747 -18.4339691519325)"><path d="M-52.89 -23.56 C-60.83 -24.33, -64.35 -34.57, -68.98 -34.12 M-54.22 -23.27 C-61.03 -26.38, -65.21 -31.95, -72.92 -38.1" stroke="#d9480f" stroke-width="1" fill="none"></path></g></g><g stroke-linecap="round"><g transform="translate(339.44294956265196 107.34898192578032) rotate(0 -44.453836397528676 16.604190537349837)"><path d="M-2.23 -1.56 C-8.87 0.03, -27.73 2.99, -42.07 8.57 C-56.42 14.14, -81.1 27.84, -88.29 31.91 M1.76 3.77 C-5.18 5.95, -29.62 7.17, -45.03 12.33 C-60.43 17.5, -84.25 30.84, -90.67 34.76" stroke="#d9480f" stroke-width="1" fill="none"></path></g><g transform="translate(339.44294956265196 107.34898192578032) rotate(0 -44.453836397528676 16.604190537349837)"><path d="M-76 12.88 C-77.29 17.43, -82.06 26.25, -89.82 38.46 M-71.93 13.92 C-81.69 20.23, -85 28.31, -89.43 35.05" stroke="#d9480f" stroke-width="1" fill="none"></path></g><g transform="translate(339.44294956265196 107.34898192578032) rotate(0 -44.453836397528676 16.604190537349837)"><path d="M-67.1 28.42 C-70.25 29.39, -76.99 34.77, -89.82 38.46 M-63.03 29.46 C-75.65 30.55, -82.05 33.23, -89.43 35.05" stroke="#d9480f" stroke-width="1" fill="none"></path></g></g><g stroke-linecap="round"><g transform="translate(107.6635377979461 149.74738831441346) rotate(0 -46.93325369245238 77.2861963764856)"><path d="M-2.61 2.76 C-14.98 9.69, -56.68 27.06, -72.14 38.97 C-87.59 50.88, -94.05 62.67, -95.36 74.2 C-96.67 85.73, -88.3 98.16, -79.98 108.15 C-71.66 118.13, -59.39 126.67, -45.43 134.11 C-31.46 141.55, -4.01 149.69, 3.8 152.79 M1.16 1.79 C-11.8 8.25, -58.16 22.82, -74.62 35.41 C-91.09 48, -96.76 64.69, -97.61 77.34 C-98.46 90, -89.19 101.52, -79.7 111.33 C-70.2 121.15, -53.88 129.49, -40.64 136.23 C-27.41 142.96, -7.53 149.31, -0.28 151.75" stroke="#d9480f" stroke-width="1" fill="none"></path></g><g transform="translate(107.6635377979461 149.74738831441346) rotate(0 -46.93325369245238 77.2861963764856)"><path d="M-21.19 151.73 C-12.03 151.45, -6.51 151.58, 1.25 150.74 M-25.2 154.19 C-13.74 150.73, -5.13 151.07, -1.36 150.46" stroke="#d9480f" stroke-width="1" fill="none"></path></g><g transform="translate(107.6635377979461 149.74738831441346) rotate(0 -46.93325369245238 77.2861963764856)"><path d="M-15.78 135.6 C-8.95 141.24, -5.44 147.38, 1.25 150.74 M-19.79 138.07 C-10.12 140.81, -3.56 147.24, -1.36 150.46" stroke="#d9480f" stroke-width="1" fill="none"></path></g></g><g transform="translate(364.69294956265196 478.414290577112) rotate(0 64.5 12.5)"><text x="0" y="18" font-family="Virgil, Segoe UI Emoji" font-size="20px" fill="#e6770055" text-anchor="start" style="white-space: pre;" direction="ltr">@hemashushu</text></g><g stroke-linecap="round"><g transform="translate(578.3988319155932 72.00252587122964) rotate(0 5.2783933462684445 1.3546294897575706)"><path d="M-1.09 -0.52 C0.92 -0.12, 9.45 2.85, 11.64 3.23 M0.54 1.82 C2.45 1.82, 9.01 1.39, 10.88 1.54" stroke="#000000" stroke-width="2" fill="none"></path></g></g><g stroke-linecap="round"><g transform="translate(588.032203275207 49.000837557942674) rotate(0 4.502050823952175 4.281656174967608)"><path d="M0.87 1.11 C2.34 2.35, 7.83 5.77, 9.14 6.51 M-0.14 0.65 C1.16 2.14, 6.92 6.98, 8.25 7.91" stroke="#000000" stroke-width="2" fill="none"></path></g></g><g stroke-linecap="round"><g transform="translate(605.3851444516777 36.97142579323679) rotate(0 2.4271487447871323 5.553266335448043)"><path d="M0.5 0.85 C1.05 2.71, 2.56 9.24, 3.3 10.85 M-0.69 0.26 C0.23 1.78, 4.67 7.08, 5.55 9.02" stroke="#000000" stroke-width="2" fill="none"></path></g></g><g stroke-linecap="round"><g transform="translate(628.8557326869717 34.50083755794269) rotate(0 -0.5814502369721595 5.504434644235843)"><path d="M-0.7 0.09 C-1.07 1.77, -1.69 9.04, -1.84 10.85 M1.13 -0.91 C0.65 0.83, -1.81 9.79, -2.29 11.91" stroke="#000000" stroke-width="2" fill="none"></path></g></g><g stroke-linecap="round"><g transform="translate(163.72555025452357 88.74221499192942) rotate(334.90373538033356 -1.038227627408446 -23.96400167081248)" fill-rule="evenodd"><path d="M-1.94 1.25 L8.79 -1.24 L10.79 -13.7 L19.31 -28.7 L18.32 -36.2 L15.26 -42.04 L8.03 -46.88 L-2.43 -47.29 L-13.68 -44.5 L-17.43 -34.25 L-20.19 -31.43 L-19.29 -25.29 L-17.75 -23.24 L-4.37 -13.86 L-1.17 1.35" stroke="none" stroke-width="0" fill="#fab00599" fill-rule="evenodd"></path><path d="M0.81 0.96 C2.47 0.5, 9.21 0.95, 10.84 -1.54 C12.48 -4.03, 9.36 -8.38, 10.62 -13.97 C11.88 -19.57, 18.71 -29.82, 18.4 -35.11 C18.1 -40.4, 13.82 -44.39, 8.78 -45.7 C3.74 -47, -6.98 -46, -11.85 -42.94 C-16.73 -39.87, -21.88 -32.36, -20.47 -27.29 C-19.06 -22.21, -6.95 -17.14, -3.38 -12.49 C0.19 -7.85, 0.57 -1.68, 0.96 0.58 M-0.22 0.41 C1.25 0.11, 8.54 -0.59, 10.21 -3.34 C11.87 -6.1, 8.37 -11.01, 9.77 -16.13 C11.17 -21.26, 18.97 -28.71, 18.62 -34.09 C18.26 -39.47, 12.47 -46.79, 7.64 -48.39 C2.82 -49.99, -5.68 -47.52, -10.36 -43.68 C-15.03 -39.85, -21.97 -30.48, -20.42 -25.4 C-18.86 -20.31, -4.4 -17.31, -1.04 -13.16 C2.33 -9.02, -0.25 -2.89, -0.21 -0.5" stroke="#000000" stroke-width="2" fill="none"></path></g></g><g stroke-linecap="round"><g transform="translate(176.69511323700408 82.33100645176529) rotate(327.423799657176 4.776408330648962 4.728585414522215)" fill-rule="evenodd"><path d="M1.05 -1.32 L-1.39 10.77 L8.19 7.75 L9.2 0.99 L-0.69 0.3" stroke="none" stroke-width="0" fill="#fab00599" fill-rule="evenodd"></path><path d="M0.49 0.5 C0.18 4.23, 0.5 7.76, 1.13 10.78 M-0.33 -0.23 C-0.02 3.49, 0.66 5.76, 1.04 9.4 M0.61 10.17 C4.84 9.97, 7.4 8.05, 10.15 8.4 M0.53 9.48 C3.15 9.54, 6.51 8.76, 9.92 8.26 M9.35 7.33 C8.95 5.63, 9.29 2.06, 8.86 -1.32 M10.33 8.02 C9.95 5.73, 9.37 3.24, 8.31 -0.5 M7.96 -0.19 C6.14 -0.47, 3.73 0.02, -0.78 0.6 M8.74 -0.52 C6.17 -0.29, 4.11 -0.18, -0.08 -0.32 M0 0 C0 0, 0 0, 0 0 M0 0 C0 0, 0 0, 0 0" stroke="#000000" stroke-width="2" fill="none"></path></g></g><g stroke-linecap="round"><g transform="translate(175.52957426716148 82.11328782436027) rotate(0 -3.6910778339131696 -9.795936979858766)" fill-rule="evenodd"><path d="M1.2 1.23 L-9.27 -10.63 L-4.74 -16.99 L3.2 -1.58" stroke="none" stroke-width="0" fill="#fab00599" fill-rule="evenodd"></path><path d="M0.82 -0.22 C-3.42 -4.61, -7.9 -8.23, -8.84 -12.22 M-0.37 -0.42 C-2.81 -3.99, -7.73 -7.97, -11.1 -11.93 M-10.08 -11.82 C-8.77 -13.83, -8.79 -15.03, -5.77 -18.36 M-10.62 -12.62 C-8.9 -13.9, -7.81 -16.01, -5.88 -18.1 M-7.79 -19.44 C-2.45 -13.33, -0.98 -9.08, 1.99 -2.1 M-6.36 -17.43 C-2.63 -11.65, 0.59 -6.29, 3.71 -1.49 M3.47 -1.41 C2.05 -0.76, 0.94 -0.74, 0.26 -0.2 M3.33 -1.64 C2.09 -1.01, 0.81 -0.36, -0.14 -0.15" stroke="#000000" stroke-width="2" fill="none"></path></g></g><g stroke-linecap="round"><g transform="translate(121.59292426509364 55.96641287129245) rotate(0 5.552267382817121 1.2800971820172578)"><path d="M0.61 -0.16 C2.39 0.13, 9.89 1.81, 11.64 2.35 M-0.54 -1.29 C1.03 -0.85, 9.07 3.46, 10.87 3.85" stroke="#000000" stroke-width="2" fill="none"></path></g></g><g stroke-linecap="round"><g transform="translate(131.22629562470775 32.964724558005514) rotate(0 3.6303038674976165 3.76914980615544)"><path d="M-0.16 0.35 C1.23 1.35, 7.33 5.35, 8.97 6.6 M-1.7 -0.52 C-0.53 0.62, 6.16 6.95, 7.98 8.06" stroke="#000000" stroke-width="2" fill="none"></path></g></g><g stroke-linecap="round"><g transform="translate(148.57923680117847 20.9353127932996) rotate(0 1.541808822152234 4.894830582311165)"><path d="M0.35 -0.06 C0.91 1.78, 3.19 9.18, 4.02 10.93 M-0.93 -1.14 C-0.59 0.37, 1.98 6.98, 2.98 9.15" stroke="#000000" stroke-width="2" fill="none"></path></g></g><g stroke-linecap="round"><g transform="translate(172.0498250364726 18.464724558005514) rotate(0 -1.415877101339163 5.7841418539831295)"><path d="M-0.06 -0.16 C-0.4 1.92, -1.73 10.78, -2.16 12.86 M-1.56 -1.29 C-1.98 0.45, -2.47 9.38, -2.77 11.31" stroke="#000000" stroke-width="2" fill="none"></path></g></g><g stroke-linecap="round"><g transform="translate(414.7255502545237 449.74221499192953) rotate(334.90373538033356 0.4894523756640865 -23.31601644961782)" fill-rule="evenodd"><path d="M1.96 0.48 L9.55 -2.04 L9.2 -13.71 L17.23 -29.71 L18.41 -33.14 L13.31 -44.14 L9.98 -45.48 L-2.9 -46.25 L-12.96 -45.26 L-19.06 -35.46 L-19.4 -31.28 L-18.94 -26.42 L-15.52 -24.26 L-3.48 -11.55 L-0.36 -0.72" stroke="none" stroke-width="0" fill="#fab00599" fill-rule="evenodd"></path><path d="M-0.77 -0.5 C0.73 -0.72, 8.05 1.19, 10.17 -0.98 C12.3 -3.15, 10.44 -7.78, 11.97 -13.52 C13.5 -19.26, 19.84 -29.98, 19.36 -35.42 C18.88 -40.85, 14.22 -44.82, 9.1 -46.13 C3.97 -47.44, -6.74 -46.59, -11.39 -43.3 C-16.04 -40, -20.38 -31.42, -18.81 -26.37 C-17.24 -21.31, -5.2 -17.38, -1.99 -12.97 C1.23 -8.56, 0.15 -2.13, 0.5 0.09 M1.02 -1.8 C2.26 -2.35, 7.38 -0.22, 9.19 -2.49 C10.99 -4.76, 10.02 -10.1, 11.83 -15.44 C13.65 -20.79, 20.69 -29.57, 20.08 -34.56 C19.46 -39.55, 13.69 -43.78, 8.13 -45.39 C2.56 -47, -8.98 -47.19, -13.32 -44.23 C-17.65 -41.28, -19.68 -33.32, -17.88 -27.66 C-16.09 -21.99, -5.39 -14.63, -2.57 -10.23 C0.26 -5.83, -1.49 -2.96, -0.91 -1.25" stroke="#000000" stroke-width="2" fill="none"></path></g></g><g stroke-linecap="round"><g transform="translate(427.6951132370044 443.3310064517654) rotate(327.423799657176 4.901314986591331 4.8289774661908496)" fill-rule="evenodd"><path d="M1.24 0.25 L1.47 10.76 L8.98 8.72 L9.43 1.18 L0.73 1.48" stroke="none" stroke-width="0" fill="#fab00599" fill-rule="evenodd"></path><path d="M-0.06 0.96 C1.12 3.89, 1.07 6.08, 1.39 10.42 M0.04 0.35 C-0.22 3.68, 0.48 6.98, 0.74 10.36 M-0.15 10.17 C3.48 9.58, 6.7 9.68, 9.22 7.39 M0.77 9.65 C3.88 9.01, 8.06 8.65, 9.95 8.34 M9.76 8.39 C9.32 5.18, 8.06 2.81, 8.87 -0.19 M9.75 8.33 C9.77 5.94, 9.27 3.48, 8.34 -0.69 M8.42 -0.77 C6.04 -0.32, 5.13 -1.03, 0.19 -0.13 M8.54 -0.47 C5.36 -0.73, 2.13 -0.12, 0.21 0.32 M0 0 C0 0, 0 0, 0 0 M0 0 C0 0, 0 0, 0 0" stroke="#000000" stroke-width="2" fill="none"></path></g></g><g stroke-linecap="round"><g transform="translate(426.5295742671616 443.1132878243604) rotate(0 -3.0627530992476864 -8.527109516490498)" fill-rule="evenodd"><path d="M1.18 -0.51 L-8.8 -13.47 L-6.05 -19.11 L4.37 -2.86" stroke="none" stroke-width="0" fill="#fab00599" fill-rule="evenodd"></path><path d="M1.57 1.6 C-1.3 -1.73, -5.44 -4.58, -9.42 -11.6 M0.57 -0.74 C-2.98 -3.87, -6.52 -7.64, -9.52 -12.24 M-10.09 -12.59 C-8.96 -13.98, -7.3 -16.16, -6.54 -17.64 M-10.49 -12.76 C-8.87 -14.56, -7.03 -16.83, -5.81 -18.31 M-5.58 -18.66 C-3.5 -14.28, 0.45 -5.37, 4.36 -2.33 M-5.7 -18.03 C-3.41 -13.75, -1.31 -9.56, 3.31 -2.23 M3.22 -1.74 C2.14 -0.71, 0.55 -0.32, -0.05 0.2 M3.35 -1.58 C2.39 -1.33, 1.82 -0.77, 0.14 0" stroke="#000000" stroke-width="2" fill="none"></path></g></g><g stroke-linecap="round"><g transform="translate(372.592924265094 416.96641287129245) rotate(0 6.206526849597481 2.0369686843421846)"><path d="M1.17 1.19 C3.27 1.75, 10.48 2.94, 12.09 3.3 M0.32 0.77 C2.37 1.01, 9.98 1.52, 11.56 1.65" stroke="#000000" stroke-width="2" fill="none"></path></g></g><g stroke-linecap="round"><g transform="translate(382.22629562470786 393.96472455800557) rotate(0 5.139024821753765 3.8766853994229677)"><path d="M1.19 0.8 C2.86 1.65, 8.46 5.19, 9.92 6.29 M0.36 0.17 C1.95 1.7, 7.88 6.71, 9.44 7.58" stroke="#000000" stroke-width="2" fill="none"></path></g></g><g stroke-linecap="round"><g transform="translate(399.5792368011786 381.9353127932997) rotate(0 1.7309917199118559 5.782488336033907)"><path d="M0.8 0.89 C1.22 2.57, 3.03 9.58, 3.7 11.25 M-0.24 0.32 C-0.12 2.18, 1.73 8.2, 2.51 9.63" stroke="#000000" stroke-width="2" fill="none"></path></g></g><g stroke-linecap="round"><g transform="translate(423.0498250364725 379.46472455800557) rotate(0 -0.6964383909308367 5.331571804471849)"><path d="M0.89 -0.47 C0.39 1.47, -1.33 10.36, -1.84 12.43 M-0.1 -1.77 C-0.78 -0.24, -1.87 8.13, -2.29 10.65" stroke="#000000" stroke-width="2" fill="none"></path></g></g></svg>