<svg version="1.1" xmlns="http://www.w3.org/2000/svg" viewBox="0 0 1614.550019688036 600.1157386483882" width="3229.100039376072" height="1200.2314772967763">
  <!-- svg-source:excalidraw -->
  
  <defs>
    <style class="style-fonts">
      @font-face {
        font-family: "Virgil";
        src: url("https://excalidraw.com/Virgil.woff2");
      }
      @font-face {
        font-family: "Cascadia";
        src: url("https://excalidraw.com/Cascadia.woff2");
      }
      @font-face {
        font-family: "Assistant";
        src: url("https://excalidraw.com/Assistant-Regular.woff2");
      }
    </style>
    
  </defs>
  <g stroke-linecap="round" transform="translate(138.68132651984155 108.91099635942821) rotate(0 133 48.50000000000001)"><path d="M24.25 0 C94.47 -1.65, 167.85 -3.66, 241.75 0 C258.81 -2.28, 267.16 10.96, 266 24.25 C263.34 37.4, 264.82 49.89, 266 72.75 C264.41 87.58, 255.96 97.75, 241.75 97 C184.82 95, 134.17 96.55, 24.25 97 C10.74 97.21, 0.67 90.54, 0 72.75 C2.29 53.64, 1.96 40.87, 0 24.25 C1.87 9.32, 10.27 -0.59, 24.25 0" stroke="none" stroke-width="0" fill="#ced4da55"></path><path d="M24.25 0 C103.27 -0.4, 186.69 -1.01, 241.75 0 M24.25 0 C108.1 0.75, 191.6 1.02, 241.75 0 M241.75 0 C257.88 -0.65, 265.69 9.62, 266 24.25 M241.75 0 C258.12 1.95, 264.41 6.12, 266 24.25 M266 24.25 C266.49 42.12, 264.29 58.99, 266 72.75 M266 24.25 C264.93 37.47, 265.13 49.41, 266 72.75 M266 72.75 C267.04 88.49, 259.86 98.02, 241.75 97 M266 72.75 C267.41 90.61, 258.16 95.77, 241.75 97 M241.75 97 C166.84 95.5, 94.32 96.37, 24.25 97 M241.75 97 C186.52 97.22, 131.76 96.68, 24.25 97 M24.25 97 C6.73 98.58, 0.13 89.62, 0 72.75 M24.25 97 C6.33 98.77, -1.12 88.65, 0 72.75 M0 72.75 C0.28 58.98, 1.42 47.31, 0 24.25 M0 72.75 C-0.27 59.57, 0.45 46.71, 0 24.25 M0 24.25 C1.77 7.17, 6.09 1.69, 24.25 0 M0 24.25 C1.26 10.12, 8.4 -1.38, 24.25 0" stroke="#495057" stroke-width="1" fill="none"></path></g><g transform="translate(179.6514345520681 145.41099635942822) rotate(0 92.02989196777344 12)"><text x="92.02989196777344" y="0" font-family="Virgil, Segoe UI Emoji" font-size="20px" fill="#495057" text-anchor="middle" style="white-space: pre;" direction="ltr" dominant-baseline="text-before-edge">Power-on self-test</text></g><g stroke-opacity="0.5" fill-opacity="0.5" transform="translate(1213.4291571755462 16.817646528875258) rotate(0 88.984375 16.8)"><text x="0" y="0" font-family="Virgil, Segoe UI Emoji" font-size="28px" fill="#e67700" text-anchor="start" style="white-space: pre;" direction="ltr" dominant-baseline="text-before-edge">@hemashushu</text></g><g transform="translate(10 10) rotate(0 62.91626739501953 16.8)"><text x="0" y="0" font-family="Virgil, Segoe UI Emoji" font-size="28px" fill="#c92a2a" text-anchor="start" style="white-space: pre;" direction="ltr" dominant-baseline="text-before-edge">Power On</text></g><g transform="translate(547.0036692417516 233.16216721981658) rotate(0 41.08995819091797 12)"><text x="0" y="0" font-family="Virgil, Segoe UI Emoji" font-size="20px" fill="#495057" text-anchor="start" style="white-space: pre;" direction="ltr" dominant-baseline="text-before-edge">Firmware</text></g><g stroke-linecap="round" transform="translate(781.9858120988945 111.98716721981675) rotate(0 133 48.49999999999999)"><path d="M24.25 0 C81.16 2.09, 139.55 2.77, 241.75 0 C257.6 3.24, 263.37 7.23, 266 24.25 C264.79 41.14, 267.1 54.17, 266 72.75 C262.67 91.42, 259.9 100.09, 241.75 97 C155.27 93.12, 71.05 97.25, 24.25 97 C6.81 94.83, 3.12 86.01, 0 72.75 C2.57 59.91, 0.14 45.55, 0 24.25 C-0.41 10.25, 5.3 -1.36, 24.25 0" stroke="none" stroke-width="0" fill="#ced4da55"></path><path d="M24.25 0 C104.41 -0.12, 182.49 -0.13, 241.75 0 M24.25 0 C82.14 -1.12, 141.27 -1.71, 241.75 0 M241.75 0 C257.5 0.69, 267.62 8.41, 266 24.25 M241.75 0 C256.7 0.51, 267.71 6.13, 266 24.25 M266 24.25 C265.75 40.7, 265.09 54.89, 266 72.75 M266 24.25 C265.85 36.22, 267.29 49.54, 266 72.75 M266 72.75 C266.34 89.43, 256.62 95.68, 241.75 97 M266 72.75 C265.8 86.82, 258.89 95.7, 241.75 97 M241.75 97 C159.75 97.37, 81.59 97.12, 24.25 97 M241.75 97 C178.52 96.72, 116.6 95.52, 24.25 97 M24.25 97 C6.57 95.98, -1.38 88.35, 0 72.75 M24.25 97 C7.95 98.26, 2 90.44, 0 72.75 M0 72.75 C0.9 59.7, 2.07 44.48, 0 24.25 M0 72.75 C-0.34 54.03, -0.35 36.06, 0 24.25 M0 24.25 C1.06 6.8, 8.27 0.73, 24.25 0 M0 24.25 C0.11 6.35, 10.05 1.98, 24.25 0" stroke="#495057" stroke-width="1" fill="none"></path></g><g transform="translate(799.225939662371 148.48716721981674) rotate(0 115.75987243652344 12)"><text x="115.75987243652344" y="0" font-family="Virgil, Segoe UI Emoji" font-size="20px" fill="#495057" text-anchor="middle" style="white-space: pre;" direction="ltr" dominant-baseline="text-before-edge">/EFI/GRUB/grubx64.efi</text></g><g transform="translate(856.3258999895195 229.61216721981674) rotate(0 54.29994201660156 12)"><text x="0" y="0" font-family="Virgil, Segoe UI Emoji" font-size="20px" fill="#495057" text-anchor="start" style="white-space: pre;" direction="ltr" dominant-baseline="text-before-edge">Bootloader</text></g><g stroke-linecap="round" transform="translate(1152.4858120988945 107.29966721981674) rotate(0 133 48.5)"><path d="M24.25 0 C109.32 -0.77, 199.28 1.77, 241.75 0 C257.48 3.23, 265.62 5.09, 266 24.25 C269.19 42.15, 267.97 57.58, 266 72.75 C268.86 90.58, 257.21 97.99, 241.75 97 C172.93 99.65, 108.34 98.64, 24.25 97 C9.25 93.86, -0.59 91.08, 0 72.75 C-1.66 58.47, -0.5 41.88, 0 24.25 C-1.02 8.84, 6.97 0.75, 24.25 0" stroke="none" stroke-width="0" fill="#ced4da55"></path><path d="M24.25 0 C109.63 -0.76, 195.56 -1.67, 241.75 0 M24.25 0 C95.17 -1.59, 165.41 -0.75, 241.75 0 M241.75 0 C259.02 -1.4, 264.04 7.23, 266 24.25 M241.75 0 C259.01 0.51, 268.23 6.81, 266 24.25 M266 24.25 C264.25 39.87, 265.46 58.01, 266 72.75 M266 24.25 C267.09 42.57, 267 62.61, 266 72.75 M266 72.75 C266.41 90, 256.72 98.77, 241.75 97 M266 72.75 C267.38 91.13, 259.12 97.52, 241.75 97 M241.75 97 C170.42 97.49, 96.61 96.83, 24.25 97 M241.75 97 C183.71 95.29, 125.17 95.3, 24.25 97 M24.25 97 C8.99 95.58, -0.79 89.87, 0 72.75 M24.25 97 C10.19 96.06, -1.55 90.67, 0 72.75 M0 72.75 C-0.97 53.49, 0.5 33.87, 0 24.25 M0 72.75 C-0.31 61.99, 0.5 53.31, 0 24.25 M0 24.25 C-1.56 9.92, 8.13 -0.17, 24.25 0 M0 24.25 C-1.25 7.33, 8.69 1.02, 24.25 0" stroke="#495057" stroke-width="1" fill="none"></path></g><g transform="translate(1213.1475247453789 138.99966721981673) rotate(0 72.33828735351562 16.799999999999997)"><text x="72.33828735351562" y="0" font-family="Virgil, Segoe UI Emoji" font-size="28px" fill="#495057" text-anchor="middle" style="white-space: pre;" direction="ltr" dominant-baseline="text-before-edge">vmlinz-linux</text></g><g transform="translate(1258.7008999895195 224.42466721981674) rotate(0 28.66997528076172 12)"><text x="0" y="0" font-family="Virgil, Segoe UI Emoji" font-size="20px" fill="#495057" text-anchor="start" style="white-space: pre;" direction="ltr" dominant-baseline="text-before-edge">Kernel</text></g><g stroke-linecap="round" transform="translate(1029.5750978131805 368.3800243626739) rotate(0 133 43.5)"><path d="M21.75 0 C94.86 -1.56, 172.85 -2.84, 244.25 0 C262.25 1.18, 266.9 3.65, 266 21.75 C267.03 38.5, 269.34 56.96, 266 65.25 C264.66 80.22, 262.25 87.64, 244.25 87 C169.19 81.48, 89.93 81.92, 21.75 87 C7.02 84.05, 0.96 79.36, 0 65.25 C2.31 56.38, 2.5 45.61, 0 21.75 C-1.01 6.43, 7.87 3.59, 21.75 0" stroke="none" stroke-width="0" fill="#82c91e33"></path><path d="M21.75 0 C111.52 -1.05, 197.94 -0.11, 244.25 0 M21.75 0 C80.19 -1.87, 139.04 -1.05, 244.25 0 M244.25 0 C257.57 -0.91, 267.33 5.39, 266 21.75 M244.25 0 C258.07 1.01, 266.57 5.58, 266 21.75 M266 21.75 C266.49 36.93, 267.54 54.81, 266 65.25 M266 21.75 C265.4 31.84, 266.56 42.91, 266 65.25 M266 65.25 C266.78 80.77, 260.46 85.26, 244.25 87 M266 65.25 C267.17 80.36, 257.27 85.02, 244.25 87 M244.25 87 C163.48 84.01, 77.93 85.36, 21.75 87 M244.25 87 C188.19 85.51, 130.95 87.06, 21.75 87 M21.75 87 C8.53 86.46, -1.66 78.06, 0 65.25 M21.75 87 C5.66 88.64, 2.08 81.33, 0 65.25 M0 65.25 C1.46 51.72, -0.98 41.26, 0 21.75 M0 65.25 C1.08 51.09, 0.56 36.53, 0 21.75 M0 21.75 C-1.73 6.66, 6.6 -1.57, 21.75 0 M0 21.75 C1 5.51, 8.83 1.3, 21.75 0" stroke="#5c940d" stroke-width="1" fill="none"></path></g><g transform="translate(1045.7306306500946 395.0800243626739) rotate(0 116.84446716308594 16.80000000000001)"><text x="116.84446716308594" y="0" font-family="Virgil, Segoe UI Emoji" font-size="28px" fill="#5c940d" text-anchor="middle" style="white-space: pre;" direction="ltr" dominant-baseline="text-before-edge">initramfs-linux.img</text></g><g stroke-linecap="round" transform="translate(643.1465263846089 369.5407386483881) rotate(0 133 44)"><path d="M22 0 C100.26 1.37, 178.66 0.3, 244 0 C257.97 0.47, 269.59 9.36, 266 22 C266.38 37.35, 265.27 47.72, 266 66 C263.25 80.61, 260.38 88.86, 244 88 C168.97 84.9, 91.92 86.88, 22 88 C10.63 89.97, 3.42 80.89, 0 66 C-0.73 51.45, 0.91 35.82, 0 22 C-0.53 5.75, 8.41 -2.69, 22 0" stroke="none" stroke-width="0" fill="#82c91e33"></path><path d="M22 0 C84.76 -0.31, 149.1 1.21, 244 0 M22 0 C72.16 2.1, 123.34 1.83, 244 0 M244 0 C257.75 1.22, 266.44 6.51, 266 22 M244 0 C259.55 -1.85, 265.56 5.55, 266 22 M266 22 C264.67 37.11, 264.13 49.18, 266 66 M266 22 C266.74 37.94, 265.84 53.06, 266 66 M266 66 C265.48 79.9, 259.22 88.4, 244 88 M266 66 C266.05 80.48, 260.07 86.4, 244 88 M244 88 C181.42 88.91, 118.36 88.21, 22 88 M244 88 C198.38 89.3, 152.8 89.2, 22 88 M22 88 C7.03 87.01, -1.38 82.33, 0 66 M22 88 C5.95 87.16, -2.16 82.35, 0 66 M0 66 C-0.76 53.26, -0.21 43.05, 0 22 M0 66 C0.53 55.03, 1.24 43.92, 0 22 M0 22 C1 5.52, 6.85 0.66, 22 0 M0 22 C1.36 8.25, 8.89 -0.08, 22 0" stroke="#5c940d" stroke-width="1" fill="none"></path></g><g transform="translate(683.8581581595113 396.7407386483881) rotate(0 92.28836822509766 16.80000000000001)"><text x="92.28836822509766" y="0" font-family="Virgil, Segoe UI Emoji" font-size="28px" fill="#5c940d" text-anchor="middle" style="white-space: pre;" direction="ltr" dominant-baseline="text-before-edge">systemd (init)</text></g><g stroke-linecap="round" transform="translate(235.3786692417516 360.20145293410246) rotate(0 133 55.5)"><path d="M27.75 0 C105.64 1.07, 183.49 2.73, 238.25 0 C257.41 3.1, 266.05 9.86, 266 27.75 C265.64 51.94, 265.76 69.23, 266 83.25 C268.96 98.18, 255.22 108.11, 238.25 111 C190.01 111.49, 147.15 112.52, 27.75 111 C10.4 109.85, -0.57 99.32, 0 83.25 C-0.76 67.94, 1.98 45.61, 0 27.75 C-0.84 8.75, 6.56 0.28, 27.75 0" stroke="none" stroke-width="0" fill="#82c91e33"></path><path d="M27.75 0 C90.93 -1.39, 154.23 -3.34, 238.25 0 M27.75 0 C86.81 0.39, 144.65 0.12, 238.25 0 M238.25 0 C256.18 0.18, 266.45 10.78, 266 27.75 M238.25 0 C258.56 -0.43, 268.04 8.99, 266 27.75 M266 27.75 C264.19 43.45, 266.13 59.96, 266 83.25 M266 27.75 C266 40.67, 266 54.39, 266 83.25 M266 83.25 C267.6 103.35, 256.02 112.61, 238.25 111 M266 83.25 C263.74 101.05, 256.37 112.41, 238.25 111 M238.25 111 C182.21 113.64, 123.82 113.99, 27.75 111 M238.25 111 C168.43 111.09, 100.36 111.14, 27.75 111 M27.75 111 C11.22 111.61, 1.72 101.34, 0 83.25 M27.75 111 C7.33 109.31, -0.54 101.25, 0 83.25 M0 83.25 C1.4 65.25, -2.13 50.96, 0 27.75 M0 83.25 C-0.73 69.69, -0.32 54.56, 0 27.75 M0 27.75 C0.7 8.11, 7.66 0.01, 27.75 0 M0 27.75 C2.16 9.36, 9.18 -0.03, 27.75 0" stroke="#5c940d" stroke-width="1" fill="none"></path></g><g transform="translate(259.1187891758336 391.70145293410246) rotate(0 109.25988006591797 24)"><text x="109.25988006591797" y="0" font-family="Virgil, Segoe UI Emoji" font-size="20px" fill="#5c940d" text-anchor="middle" style="white-space: pre;" direction="ltr" dominant-baseline="text-before-edge">- Shell</text><text x="109.25988006591797" y="24" font-family="Virgil, Segoe UI Emoji" font-size="20px" fill="#5c940d" text-anchor="middle" style="white-space: pre;" direction="ltr" dominant-baseline="text-before-edge">- Desktop Environment</text></g><g transform="translate(1031.2215843680071 502.20145293410224) rotate(0 138.4598388671875 24)"><text x="138.4598388671875" y="0" font-family="Virgil, Segoe UI Emoji" font-size="20px" fill="#5c940d" text-anchor="middle" style="white-space: pre;" direction="ltr" dominant-baseline="text-before-edge">Temporary Root File System</text><text x="138.4598388671875" y="24" font-family="Virgil, Segoe UI Emoji" font-size="20px" fill="#5c940d" text-anchor="middle" style="white-space: pre;" direction="ltr" dominant-baseline="text-before-edge">Load Disk Drivers</text></g><g transform="translate(358.19939481896995 535.4157386483881) rotate(0 12.589988708496094 12)"><text x="12.589988708496094" y="0" font-family="Virgil, Segoe UI Emoji" font-size="20px" fill="#5c940d" text-anchor="middle" style="white-space: pre;" direction="ltr" dominant-baseline="text-before-edge">UI</text></g><g stroke-linecap="round"><g transform="translate(66.86081209889443 55.45145293410246) rotate(0 27.5 24.375)"><path d="M2.52 0.85 C4.32 4.09, 3.27 13.59, 11.79 21.57 C20.32 29.55, 46.58 43.78, 53.67 48.72 M0.44 -1.16 C1.66 2.4, 0.38 16.55, 8.83 25.38 C17.28 34.21, 43.52 48.29, 51.14 51.81" stroke="#c92a2a" stroke-width="1" fill="none"></path></g><g transform="translate(66.86081209889443 55.45145293410246) rotate(0 27.5 24.375)"><path d="M26.94 47.75 C34.89 48.57, 42.94 50.1, 52.89 53.32 M25.72 48.91 C34.04 50.02, 40.52 49.33, 50.49 50.89" stroke="#c92a2a" stroke-width="1" fill="none"></path></g><g transform="translate(66.86081209889443 55.45145293410246) rotate(0 27.5 24.375)"><path d="M34.75 32.53 C40.2 38.51, 45.64 45.14, 52.89 53.32 M33.52 33.7 C39.74 39.17, 44.02 42.78, 50.49 50.89" stroke="#c92a2a" stroke-width="1" fill="none"></path></g></g><mask></mask><g stroke-linecap="round"><g transform="translate(698.0215263846087 161.52288150553102) rotate(0 32.232142857142875 -2.0339018313169674)"><path d="M1.43 -0.18 C11.5 -1, 51.22 -1.52, 62.07 -2.57 M-1.24 -2.75 C9.53 -4.59, 55.99 -6.44, 67.18 -6.77" stroke="#495057" stroke-width="1" fill="none"></path></g><g transform="translate(698.0215263846087 161.52288150553102) rotate(0 32.232142857142875 -2.0339018313169674)"><path d="M43.9 0.95 C53.33 0.66, 58.81 -4.13, 66.2 -8.42 M44.14 3.24 C52.64 -0.28, 62.39 -5.11, 66.79 -6.72" stroke="#495057" stroke-width="1" fill="none"></path></g><g transform="translate(698.0215263846087 161.52288150553102) rotate(0 32.232142857142875 -2.0339018313169674)"><path d="M43.25 -16.14 C53.05 -10.3, 58.77 -8.96, 66.2 -8.42 M43.5 -13.85 C52.35 -10.72, 62.36 -8.92, 66.79 -6.72" stroke="#495057" stroke-width="1" fill="none"></path></g></g><mask></mask><g stroke-linecap="round"><g transform="translate(1064.9858120988947 154.6339922919981) rotate(0 33.06249999999994 0.46617173559245373)"><path d="M1.87 -2.38 C12.49 -1.47, 52.81 2.33, 63.38 2.76 M-0.56 2.5 C10.92 2.86, 57.69 -1.33, 68.29 -1.26" stroke="#495057" stroke-width="1" fill="none"></path></g><g transform="translate(1064.9858120988947 154.6339922919981) rotate(0 33.06249999999994 0.46617173559245373)"><path d="M43.54 6.47 C53.26 4.91, 58.04 0.82, 67.99 -1.58 M46.11 9.16 C50.98 6.38, 57.93 2.6, 68.35 -1.68" stroke="#495057" stroke-width="1" fill="none"></path></g><g transform="translate(1064.9858120988947 154.6339922919981) rotate(0 33.06249999999994 0.46617173559245373)"><path d="M42.71 -10.61 C52.5 -7.27, 57.52 -6.46, 67.99 -1.58 M45.27 -7.92 C50.42 -6.04, 57.6 -5.16, 68.35 -1.68" stroke="#495057" stroke-width="1" fill="none"></path></g></g><mask></mask><g stroke-linecap="round"><g transform="translate(1404.8358962032798 225.63002436267385) rotate(0 -46.46121293091545 88.9692408491766)"><path d="M-1.32 1.78 C-1.18 12.54, 3.94 42.04, -1.31 64.19 C-6.56 86.34, -17.08 115.29, -32.82 134.68 C-48.56 154.07, -85.64 173.54, -95.76 180.53 M3.16 0.28 C4.37 11.48, 10.2 44.67, 3.97 67.38 C-2.27 90.09, -17.54 118.46, -34.25 136.54 C-50.96 154.63, -85.85 169.19, -96.29 175.9" stroke="#495057" stroke-width="1" fill="none"></path></g><g transform="translate(1404.8358962032798 225.63002436267385) rotate(0 -46.46121293091545 88.9692408491766)"><path d="M-78.44 155.7 C-84.03 161.8, -88.8 164.02, -94.44 176.03 M-80.28 158.12 C-84.94 162.75, -87.44 166.69, -96.1 176.71" stroke="#495057" stroke-width="1" fill="none"></path></g><g transform="translate(1404.8358962032798 225.63002436267385) rotate(0 -46.46121293091545 88.9692408491766)"><path d="M-70.29 170.74 C-77.69 173.43, -84.28 172.29, -94.44 176.03 M-72.13 173.16 C-78.77 173.92, -83.34 174.06, -96.1 176.71" stroke="#495057" stroke-width="1" fill="none"></path></g></g><mask></mask><g stroke-linecap="round"><g transform="translate(1023.1388733233846 411.76077221548906) rotate(0 -53.63934948979599 0.060909277080099855)"><path d="M-1.24 1.01 C-19.18 0.49, -89.43 -0.26, -106.99 -0.57 M3.29 -0.91 C-15.06 0.2, -90.52 2.24, -109.08 2.68" stroke="#5c940d" stroke-width="1" fill="none"></path></g><g transform="translate(1023.1388733233846 411.76077221548906) rotate(0 -53.63934948979599 0.060909277080099855)"><path d="M-85.1 -6.28 C-93.76 -3.14, -101.5 -1.21, -107.17 2.15 M-86.18 -7.03 C-92.82 -4.31, -98.68 -1.77, -109.57 2.46" stroke="#5c940d" stroke-width="1" fill="none"></path></g><g transform="translate(1023.1388733233846 411.76077221548906) rotate(0 -53.63934948979599 0.060909277080099855)"><path d="M-84.65 10.81 C-93.61 8.42, -101.5 4.82, -107.17 2.15 M-85.74 10.06 C-92.67 7.86, -98.66 5.45, -109.57 2.46" stroke="#5c940d" stroke-width="1" fill="none"></path></g></g><mask></mask><g stroke-linecap="round"><g transform="translate(624.1328374402268 413.57289154266255) rotate(0 -53.97433035714293 -1.9829109265740499)"><path d="M-2.07 -0.68 C-20.11 -1.21, -88.43 -4.02, -106.09 -4.11 M2 -3.52 C-16.43 -3.5, -88.68 -0.27, -107.31 -0.56" stroke="#5c940d" stroke-width="1" fill="none"></path></g><g transform="translate(624.1328374402268 413.57289154266255) rotate(0 -53.97433035714293 -1.9829109265740499)"><path d="M-84.46 -8.2 C-92.86 -6.36, -99.54 -0.99, -106.16 -0.04 M-83.65 -9.51 C-90.94 -7.21, -100.24 -2.61, -107.93 -0.49" stroke="#5c940d" stroke-width="1" fill="none"></path></g><g transform="translate(624.1328374402268 413.57289154266255) rotate(0 -53.97433035714293 -1.9829109265740499)"><path d="M-84.16 8.9 C-92.61 4.32, -99.4 3.29, -106.16 -0.04 M-83.35 7.59 C-90.61 4.18, -100 3.08, -107.93 -0.49" stroke="#5c940d" stroke-width="1" fill="none"></path></g></g><mask></mask><g stroke-linecap="round"><g transform="translate(14.051288289370405 296.915738648388) rotate(0 795.0694444444446 0)"><path d="M-0.43 1.07 C264.65 1.31, 1325.06 -1.02, 1590.5 -1.24" stroke="#495057" stroke-width="1.5" fill="none" stroke-dasharray="1.5 7"></path></g></g><mask></mask><g transform="translate(1432.5393366611854 373.115738648388) rotate(0 77.7143325805664 16.80000000000001)"><text x="77.7143325805664" y="0" font-family="Virgil, Segoe UI Emoji" font-size="28px" fill="#5c940d" text-anchor="middle" style="white-space: pre;" direction="ltr" dominant-baseline="text-before-edge">User Space</text></g><g stroke-linecap="round" transform="translate(512.3965263846087 112.13002436267386) rotate(0 79 48.49999999999999)"><path d="M24.25 0 C46.49 2.43, 70.74 -1.61, 133.75 0 C150.27 0.32, 158.45 8.9, 158 24.25 C155.98 43.49, 154.51 59.16, 158 72.75 C158.24 87.57, 149.69 96.53, 133.75 97 C107.15 96.07, 83.06 95.18, 24.25 97 C6.67 99.23, 3.41 91.14, 0 72.75 C3.39 62.67, -2.25 51.83, 0 24.25 C0.66 7.1, 5.52 -1.91, 24.25 0" stroke="none" stroke-width="0" fill="#ced4da55"></path><path d="M24.25 0 C66.47 -1.29, 110.36 2.11, 133.75 0 M24.25 0 C59.11 1.2, 94.73 0.91, 133.75 0 M133.75 0 C148.87 0.72, 158.19 8, 158 24.25 M133.75 0 C149.04 1.75, 159.36 5.8, 158 24.25 M158 24.25 C156.38 44.26, 156.12 61.02, 158 72.75 M158 24.25 C157.47 36.36, 158.34 50.23, 158 72.75 M158 72.75 C159.02 90.52, 151.89 97.56, 133.75 97 M158 72.75 C157.34 90.24, 148.32 98.18, 133.75 97 M133.75 97 C109.23 96.74, 84.77 98.95, 24.25 97 M133.75 97 C110.49 96.07, 87.74 96.35, 24.25 97 M24.25 97 C6.31 98.69, 1.35 90.64, 0 72.75 M24.25 97 C5.91 99.22, -1.31 87.98, 0 72.75 M0 72.75 C1.83 58.04, -0.85 40.75, 0 24.25 M0 72.75 C0.09 56.06, 0.09 39.63, 0 24.25 M0 24.25 C0.02 9.92, 8.58 0.13, 24.25 0 M0 24.25 C-1.68 9.35, 8.7 1.11, 24.25 0" stroke="#495057" stroke-width="1" fill="none"></path></g><g transform="translate(556.2983742239642 143.83002436267387) rotate(0 35.09815216064453 16.799999999999997)"><text x="35.09815216064453" y="0" font-family="Virgil, Segoe UI Emoji" font-size="28px" fill="#495057" text-anchor="middle" style="white-space: pre;" direction="ltr" dominant-baseline="text-before-edge">UEFI</text></g><g stroke-linecap="round"><g transform="translate(425.85494844604784 157.87765115522822) rotate(0 31.517857142857167 -0.4464285714285552)"><path d="M-0.52 -2.25 C9.5 -2.69, 51.01 -3.56, 61.74 -3.07 M-4.24 2.7 C5.13 2.58, 47.68 0.48, 58.8 -0.62" stroke="#495057" stroke-width="1" fill="none"></path></g><g transform="translate(425.85494844604784 157.87765115522822) rotate(0 31.517857142857167 -0.4464285714285552)"><path d="M34.36 8.64 C42.63 6.53, 53.56 1.69, 58.95 -1.13 M36.17 9.67 C42.55 7.43, 49.69 3.13, 58.91 -0.42" stroke="#495057" stroke-width="1" fill="none"></path></g><g transform="translate(425.85494844604784 157.87765115522822) rotate(0 31.517857142857167 -0.4464285714285552)"><path d="M33.16 -8.42 C41.84 -4.4, 53.2 -3.11, 58.95 -1.13 M34.97 -7.39 C41.53 -4.75, 49.01 -4.18, 58.91 -0.42" stroke="#495057" stroke-width="1" fill="none"></path></g></g><mask></mask><g transform="translate(248.44942533654785 230.7728815055308) rotate(0 21.699981689453125 12)"><text x="0" y="0" font-family="Virgil, Segoe UI Emoji" font-size="20px" fill="#495057" text-anchor="start" style="white-space: pre;" direction="ltr" dominant-baseline="text-before-edge">ROM</text></g><g transform="translate(705.7080367431465 494.1157386483881) rotate(0 75.25991821289062 48.00000000000003)"><text x="75.25991821289062" y="0" font-family="Virgil, Segoe UI Emoji" font-size="20px" fill="#5c940d" text-anchor="middle" style="white-space: pre;" direction="ltr" dominant-baseline="text-before-edge">Load Modules</text><text x="75.25991821289062" y="24" font-family="Virgil, Segoe UI Emoji" font-size="20px" fill="#5c940d" text-anchor="middle" style="white-space: pre;" direction="ltr" dominant-baseline="text-before-edge">Start Daemons</text><text x="75.25991821289062" y="48" font-family="Virgil, Segoe UI Emoji" font-size="20px" fill="#5c940d" text-anchor="middle" style="white-space: pre;" direction="ltr" dominant-baseline="text-before-edge">getty</text><text x="75.25991821289062" y="72" font-family="Virgil, Segoe UI Emoji" font-size="20px" fill="#5c940d" text-anchor="middle" style="white-space: pre;" direction="ltr" dominant-baseline="text-before-edge">login</text></g></svg>