<svg version="1.1" xmlns="http://www.w3.org/2000/svg" viewBox="0 0 670.5713803048934 257.1532980596461" width="1341.1427606097868" height="514.3065961192922">
  <!-- svg-source:excalidraw -->
  
  <defs>
    <style class="style-fonts">
      @font-face {
        font-family: "Virgil";
        src: url("https://excalidraw.com/Virgil.woff2");
      }
      @font-face {
        font-family: "Cascadia";
        src: url("https://excalidraw.com/Cascadia.woff2");
      }
      @font-face {
        font-family: "Assistant";
        src: url("https://excalidraw.com/Assistant-Regular.woff2");
      }
    </style>
    
  </defs>
  <g stroke-linecap="round"><g transform="translate(503.0204342974439 130.62635256348062) rotate(0 65.15260428717835 57.04825594901709)" fill-rule="evenodd"><path d="M2.32 -1.31 C0.13 2.62, -8.32 13.18, -13.51 21.71 C-18.7 30.24, -27.78 40.55, -28.82 49.85 C-29.87 59.14, -24.89 69.87, -19.78 77.49 C-14.66 85.11, -6.83 90.11, 1.85 95.58 C10.54 101.05, 22.76 106.65, 32.33 110.33 C41.91 114, 50.58 116.63, 59.29 117.64 C67.99 118.64, 76.07 117.86, 84.56 116.35 C93.06 114.83, 101.94 112.05, 110.26 108.54 C118.57 105.04, 128.2 100.93, 134.46 95.3 C140.71 89.67, 143.93 82.51, 147.77 74.78 C151.61 67.04, 156.17 57.4, 157.51 48.89 C158.85 40.38, 156.94 30, 155.81 23.73 C154.67 17.46, 153.44 15.51, 150.69 11.29 C147.93 7.06, 143.11 0.55, 139.28 -1.62 C135.44 -3.79, 130.9 -3.33, 127.65 -1.73 C124.41 -0.13, 122.69 5.05, 119.82 7.97 C116.94 10.9, 114.19 14.26, 110.39 15.84 C106.58 17.42, 100.05 17.79, 97 17.45 C93.94 17.11, 94.94 14.46, 92.07 13.78 C89.2 13.1, 83.05 14.73, 79.77 13.38 C76.48 12.02, 78.48 8.59, 72.37 5.64 C66.26 2.69, 54.29 -3.37, 43.1 -4.31 C31.92 -5.25, 11.95 -0.05, 5.25 -0.02" stroke="none" stroke-width="0" fill="#ffec99" fill-rule="evenodd"></path><path d="M-0.62 1.14 C-3.33 4.18, -11.59 11.05, -15.85 19.25 C-20.12 27.45, -25.81 41.08, -26.21 50.35 C-26.61 59.63, -22.89 67, -18.27 74.91 C-13.64 82.83, -6.92 92.05, 1.53 97.84 C9.98 103.63, 23.14 106.76, 32.45 109.66 C41.76 112.55, 48.34 114.14, 57.4 115.21 C66.47 116.27, 77.67 117.09, 86.84 116.04 C96 114.99, 104.62 112.47, 112.38 108.9 C120.14 105.33, 127.04 100.78, 133.4 94.64 C139.75 88.5, 146.55 79.88, 150.52 72.07 C154.49 64.26, 156.3 55.58, 157.19 47.78 C158.09 39.98, 157.18 31.62, 155.87 25.27 C154.56 18.92, 152 14.34, 149.33 9.69 C146.66 5.04, 143.67 -0.77, 139.87 -2.65 C136.07 -4.53, 130.24 -3.69, 126.53 -1.6 C122.82 0.5, 120.29 7.28, 117.62 9.95 C114.94 12.61, 113.68 13.02, 110.48 14.38 C107.27 15.74, 101.63 17.79, 98.37 18.09 C95.11 18.4, 93.89 17.11, 90.91 16.19 C87.92 15.27, 83.85 14.63, 80.44 12.56 C77.04 10.49, 76.88 6.3, 70.47 3.75 C64.06 1.21, 52.86 -1.83, 41.98 -2.71 C31.09 -3.58, 11.53 -1.51, 5.15 -1.48 M1.26 0.69 C-1.68 4.39, -12.35 12.43, -17.03 20.38 C-21.71 28.34, -26.13 39.19, -26.81 48.42 C-27.48 57.64, -25.55 67.39, -21.09 75.72 C-16.64 84.04, -8.65 92.91, -0.06 98.38 C8.54 103.85, 20.77 105.97, 30.47 108.54 C40.17 111.11, 48.82 112.67, 58.15 113.78 C67.47 114.89, 77.67 116.26, 86.43 115.22 C95.2 114.18, 102.75 110.97, 110.72 107.54 C118.7 104.11, 127.51 100.44, 134.28 94.65 C141.06 88.85, 147.74 80.67, 151.36 72.76 C154.97 64.86, 155.11 55.35, 155.96 47.24 C156.82 39.13, 157.71 30.37, 156.51 24.11 C155.31 17.85, 151.46 13.69, 148.77 9.67 C146.08 5.65, 143.96 1.64, 140.38 -0.02 C136.81 -1.67, 130.81 -1.5, 127.33 -0.26 C123.86 0.98, 122.47 4.94, 119.53 7.42 C116.6 9.9, 112.9 12.84, 109.71 14.62 C106.52 16.4, 103.98 18.13, 100.4 18.09 C96.82 18.05, 91.71 15.46, 88.24 14.4 C84.76 13.33, 82.53 13.14, 79.54 11.71 C76.55 10.29, 76.47 8.39, 70.29 5.86 C64.11 3.32, 53.6 -2.15, 42.47 -3.49 C31.34 -4.84, 9.74 -2.36, 3.5 -2.22" stroke="#1e1e1e" stroke-width="2" fill="none"></path></g></g><mask></mask><g stroke-linecap="round"><g transform="translate(599.3371942109735 27.518628521021952) rotate(0 -58.63757913947211 45.38029011512606)" fill-rule="evenodd"><path d="M-0.7 1.74 C-4.09 -0.36, -12.13 -7.81, -18.74 -10.7 C-25.35 -13.6, -30.22 -15.48, -40.37 -15.64 C-50.51 -15.8, -69.39 -14.93, -79.62 -11.67 C-89.85 -8.4, -96.64 -1.31, -101.76 3.94 C-106.88 9.19, -108.4 14.62, -110.34 19.83 C-112.29 25.03, -110.72 31.32, -113.42 35.17 C-116.12 39.02, -123.85 39.73, -126.55 42.93 C-129.25 46.13, -128.86 51.05, -129.63 54.37 C-130.39 57.7, -131.77 59.07, -131.14 62.88 C-130.52 66.68, -129.21 72.7, -125.88 77.18 C-122.55 81.67, -115.96 86.37, -111.18 89.81 C-106.41 93.25, -103.89 95.52, -97.25 97.8 C-90.61 100.09, -82.31 101.69, -71.33 103.51 C-60.35 105.33, -42.03 110.38, -31.35 108.74 C-20.66 107.09, -13.6 99.11, -7.21 93.64 C-0.81 88.17, 3.76 81.89, 7.03 75.92 C10.3 69.95, 11.1 65.25, 12.41 57.8 C13.73 50.35, 16.26 38.73, 14.93 31.23 C13.61 23.73, 6.57 17.6, 4.48 12.79 C2.38 7.98, 3.01 4.7, 2.37 2.38" stroke="none" stroke-width="0" fill="#ffec99" fill-rule="evenodd"></path><path d="M1.04 -1.04 C-1.93 -2.3, -11.78 -5.96, -18.79 -8.37 C-25.8 -10.78, -30.95 -14.48, -41.04 -15.5 C-51.12 -16.51, -69.21 -17.75, -79.3 -14.45 C-89.38 -11.16, -96.78 -1.5, -101.55 4.25 C-106.32 10.01, -106.11 15.03, -107.9 20.07 C-109.68 25.12, -109.52 30.7, -112.27 34.53 C-115.01 38.37, -121.17 39.99, -124.37 43.06 C-127.56 46.12, -130.22 49.27, -131.46 52.94 C-132.7 56.62, -132.51 61.24, -131.81 65.11 C-131.11 68.98, -130.33 72.15, -127.27 76.18 C-124.2 80.21, -118.71 85.49, -113.42 89.28 C-108.14 93.07, -102.68 96.33, -95.57 98.91 C-88.47 101.49, -81.23 103.49, -70.79 104.76 C-60.35 106.03, -43.16 108.04, -32.94 106.55 C-22.73 105.06, -16.32 100.73, -9.49 95.81 C-2.67 90.89, 4.28 83.55, 7.99 77 C11.69 70.45, 11.82 64.02, 12.75 56.49 C13.69 48.95, 14.69 38.77, 13.59 31.77 C12.48 24.77, 8.46 19.77, 6.12 14.49 C3.77 9.21, 0.63 2.33, -0.48 0.08 M0.13 1.03 C-2.36 -0.53, -9.5 -7.21, -16.41 -10.27 C-23.32 -13.33, -30.84 -16.77, -41.35 -17.33 C-51.86 -17.9, -69.77 -17.32, -79.46 -13.66 C-89.14 -10, -94.45 -0.79, -99.49 4.62 C-104.52 10.02, -107.62 13.49, -109.65 18.76 C-111.69 24.03, -109.1 32.27, -111.68 36.23 C-114.27 40.18, -122.14 39.84, -125.16 42.46 C-128.17 45.09, -128.74 48.19, -129.78 51.99 C-130.82 55.79, -131.83 61.08, -131.39 65.28 C-130.94 69.48, -129.86 73.31, -127.1 77.18 C-124.34 81.05, -120.17 84.97, -114.82 88.5 C-109.47 92.02, -102.32 95.55, -95.02 98.33 C-87.72 101.11, -81.43 103.94, -71 105.16 C-60.57 106.38, -42.75 107, -32.42 105.63 C-22.09 104.26, -15.59 101.69, -9.02 96.96 C-2.46 92.22, 3.04 83.82, 6.96 77.21 C10.89 70.61, 13.6 64.88, 14.54 57.33 C15.48 49.78, 13.96 39.28, 12.58 31.91 C11.19 24.55, 8.63 18.62, 6.23 13.12 C3.83 7.62, -0.69 1.1, -1.81 -1.07" stroke="#1e1e1e" stroke-width="2" fill="none"></path></g></g><mask></mask><g stroke-linecap="round" transform="translate(557.0303034173661 68.05761667909252) rotate(0 11.322023655572593 9.642249431085332)"><path d="M9 0.57 C11.3 0.04, 15.2 0.1, 17.38 1.09 C19.56 2.07, 21.39 4.56, 22.08 6.49 C22.76 8.42, 22.34 10.82, 21.5 12.67 C20.67 14.52, 19.19 16.53, 17.07 17.6 C14.96 18.67, 11.17 19.32, 8.84 19.08 C6.5 18.84, 4.49 17.72, 3.07 16.14 C1.64 14.56, 0.38 11.69, 0.28 9.6 C0.18 7.51, 0.92 5.28, 2.47 3.63 C4.02 1.98, 8.31 0.19, 9.59 -0.32 C10.86 -0.84, 10.02 0.38, 10.12 0.54 M11.86 0.44 C14.17 0.28, 16.78 1.07, 18.49 2.36 C20.19 3.65, 21.53 6.25, 22.11 8.2 C22.68 10.15, 23.13 12.25, 21.92 14.06 C20.7 15.87, 17.21 18.28, 14.81 19.07 C12.42 19.86, 9.86 19.52, 7.55 18.81 C5.24 18.1, 2.1 16.59, 0.95 14.8 C-0.2 13, 0.09 10.14, 0.65 8.02 C1.2 5.89, 2.61 3.44, 4.28 2.05 C5.94 0.65, 9.57 -0.1, 10.63 -0.36 C11.68 -0.61, 10.45 0.38, 10.63 0.53" stroke="none" stroke-width="0" fill="#1e1e1e"></path><path d="M14.28 0.17 C16.58 0.57, 19.19 2.58, 20.54 4.32 C21.9 6.06, 22.68 8.56, 22.42 10.62 C22.17 12.67, 20.71 15.22, 19.02 16.65 C17.32 18.07, 14.61 18.99, 12.28 19.17 C9.94 19.36, 7.05 18.84, 5.01 17.77 C2.97 16.69, 0.67 14.68, 0.04 12.74 C-0.59 10.8, 0.2 8.12, 1.23 6.13 C2.25 4.14, 4 1.75, 6.19 0.79 C8.38 -0.17, 12.95 0.35, 14.35 0.36 C15.75 0.38, 14.58 0.7, 14.6 0.86 M13.87 -0.13 C16.12 0.3, 19.12 2.51, 20.63 4.29 C22.15 6.07, 23.06 8.65, 22.96 10.57 C22.86 12.49, 21.59 14.47, 20.03 15.84 C18.47 17.2, 16.12 18.5, 13.61 18.79 C11.09 19.07, 7 18.53, 4.92 17.56 C2.85 16.6, 1.85 14.86, 1.13 12.98 C0.42 11.09, -0.18 8.1, 0.62 6.25 C1.42 4.4, 3.74 2.97, 5.93 1.9 C8.11 0.83, 12.58 -0.02, 13.74 -0.16 C14.91 -0.3, 12.95 0.87, 12.89 1.07" stroke="#1e1e1e" stroke-width="2" fill="none"></path></g><g stroke-linecap="round" transform="translate(571.8312652522002 75.69212181347996) rotate(0 2.173607431511755 2.38061766308428)"><path d="M2.33 0.24 C2.72 0.18, 3.21 0.15, 3.55 0.46 C3.88 0.77, 4.27 1.58, 4.35 2.11 C4.44 2.64, 4.34 3.22, 4.04 3.65 C3.75 4.08, 3.02 4.5, 2.59 4.68 C2.17 4.85, 1.86 4.95, 1.48 4.69 C1.09 4.43, 0.54 3.61, 0.28 3.12 C0.02 2.64, -0.14 2.23, -0.09 1.76 C-0.04 1.29, 0.11 0.63, 0.56 0.3 C1.01 -0.03, 2.34 -0.19, 2.61 -0.22 C2.87 -0.25, 2.19 0.04, 2.17 0.13 M2.25 -0.06 C2.59 -0.12, 2.58 0.07, 2.93 0.39 C3.28 0.7, 4.11 1.37, 4.34 1.83 C4.57 2.29, 4.56 2.65, 4.31 3.14 C4.05 3.64, 3.26 4.57, 2.82 4.79 C2.38 5.01, 2.16 4.64, 1.68 4.45 C1.21 4.26, 0.18 4.05, -0.03 3.64 C-0.24 3.23, 0.27 2.53, 0.4 1.99 C0.53 1.46, 0.58 0.75, 0.76 0.43 C0.94 0.11, 1.26 0.16, 1.48 0.08 C1.69 0, 1.98 -0.1, 2.04 -0.06" stroke="none" stroke-width="0" fill="#ffffff"></path><path d="M2.17 0.21 C2.71 0.13, 3.43 0.01, 3.79 0.25 C4.15 0.49, 4.29 1.1, 4.33 1.63 C4.37 2.17, 4.2 3, 4.04 3.45 C3.87 3.9, 3.73 4.14, 3.33 4.33 C2.93 4.53, 2.19 4.72, 1.65 4.62 C1.11 4.53, 0.38 4.19, 0.1 3.75 C-0.17 3.31, -0.12 2.49, -0.01 1.99 C0.09 1.49, 0.39 1.09, 0.76 0.77 C1.12 0.45, 2 0.17, 2.2 0.06 C2.4 -0.05, 1.94 0.07, 1.93 0.11 M1.63 -0.33 C2.02 -0.46, 2.84 0.22, 3.22 0.49 C3.6 0.75, 3.75 0.86, 3.89 1.26 C4.03 1.66, 4.21 2.42, 4.07 2.9 C3.93 3.37, 3.45 3.75, 3.08 4.13 C2.7 4.51, 2.3 5.14, 1.82 5.16 C1.34 5.18, 0.58 4.77, 0.21 4.26 C-0.16 3.74, -0.55 2.65, -0.4 2.08 C-0.26 1.5, 0.65 1.13, 1.1 0.8 C1.55 0.47, 2.22 0.27, 2.28 0.1 C2.34 -0.08, 1.57 -0.24, 1.47 -0.23" stroke="#ffffff" stroke-width="2" fill="none"></path></g><g stroke-linecap="round"><g transform="translate(510.9536558218267 53.06705516444853) rotate(0 4.091315976656858 7.060477103036121)"><path d="M-0.74 0.68 C1.48 2.56, 13.99 9.01, 13.26 11.33 C12.52 13.64, -1.84 14.01, -5.14 14.58 M1.08 0 C3.1 2.07, 13.2 10.78, 12.07 12.86 C10.94 14.94, -2.55 12.53, -5.71 12.49" stroke="#1e1e1e" stroke-width="4" fill="none"></path></g></g><mask></mask><g stroke-linecap="round"><g transform="translate(530.4587511019129 114.87921617195701) rotate(0 -1.5697631274455262 -13.297605428313716)" fill-rule="evenodd"><path d="M-0.92 0.07 C-3.5 -0.09, -10.52 -1.75, -14.43 -2.93 C-18.33 -4.11, -22.56 -4.48, -24.36 -7.01 C-26.15 -9.54, -26.91 -15.78, -25.2 -18.1 C-23.49 -20.42, -18.11 -19.15, -14.09 -20.95 C-10.07 -22.75, -5.23 -28.8, -1.1 -28.87 C3.02 -28.95, 6.82 -24.11, 10.68 -21.38 C14.55 -18.66, 20.05 -15, 22.1 -12.5 C24.14 -10.01, 24.22 -8.63, 22.95 -6.44 C21.68 -4.24, 18.51 -0.27, 14.47 0.66 C10.44 1.59, 1.4 -0.97, -1.25 -0.85" stroke="none" stroke-width="0" fill="#f08c00" fill-rule="evenodd"></path><path d="M-0.15 -0.93 C-2.81 -1.61, -10.81 -1.66, -14.99 -3.16 C-19.16 -4.66, -23.61 -7.38, -25.2 -9.92 C-26.79 -12.45, -26.22 -16.1, -24.53 -18.36 C-22.85 -20.62, -18.98 -21.89, -15.1 -23.47 C-11.22 -25.05, -5.42 -27.97, -1.27 -27.83 C2.88 -27.69, 6 -25.04, 9.81 -22.65 C13.62 -20.27, 19.45 -16.49, 21.6 -13.53 C23.75 -10.57, 24.08 -7.4, 22.72 -4.92 C21.36 -2.43, 17.34 0.53, 13.43 1.4 C9.53 2.27, 1.49 0.56, -0.72 0.3 M-1.69 1.2 C-4.09 0.59, -8.8 -0.25, -12.9 -1.94 C-17.01 -3.62, -24.44 -6.31, -26.3 -8.9 C-28.17 -11.49, -25.82 -15.11, -24.1 -17.48 C-22.38 -19.86, -20 -21.19, -15.96 -23.13 C-11.92 -25.07, -4.22 -29.02, 0.13 -29.11 C4.48 -29.2, 6.72 -26.24, 10.13 -23.68 C13.53 -21.12, 18.65 -17.21, 20.56 -13.73 C22.46 -10.25, 23.12 -5.33, 21.55 -2.83 C19.98 -0.33, 14.84 0.56, 11.12 1.27 C7.4 1.98, 1.26 1.76, -0.78 1.44" stroke="#e8590c" stroke-width="2" fill="none"></path></g></g><mask></mask><g stroke-linecap="round"><g transform="translate(562.0526389618957 105.070340159225) rotate(0 8.263689803913906 -1.373889962815099)"><path d="M0.51 0.92 C2.11 -0.35, 9.17 -8.45, 10.1 -8.11 C11.03 -7.77, 4.96 2.4, 6.1 2.96 C7.24 3.51, 15.87 -5.08, 16.93 -4.77 C17.99 -4.45, 13.38 3.14, 12.46 4.85 M-0.69 0.35 C0.67 -1.22, 7.34 -9.99, 8.89 -9.91 C10.43 -9.82, 7.16 0.32, 8.58 0.85 C10 1.37, 16.88 -7.39, 17.39 -6.75 C17.89 -6.12, 12.35 2.22, 11.6 4.65" stroke="#f783ac" stroke-width="2" fill="none"></path></g></g><mask></mask><g stroke-linecap="round"><g transform="translate(484.8731316472981 84.00101700795466) rotate(0 6.210306947176434 -1.1903088315422394)"><path d="M0.41 -1.14 C2.13 -2.17, 8.28 -7.06, 9.15 -6.55 C10.02 -6.04, 4.89 1.58, 5.62 1.92 C6.35 2.25, 13.16 -5.04, 13.53 -4.54 C13.91 -4.05, 8.58 3.31, 7.87 4.88 M-0.84 0.87 C0.93 -0.43, 7.83 -8.52, 8.82 -8.14 C9.81 -7.77, 4.77 2.88, 5.08 3.1 C5.4 3.32, 9.93 -7.16, 10.7 -6.82 C11.48 -6.49, 10.29 3.37, 9.74 5.12" stroke="#f783ac" stroke-width="2" fill="none"></path></g></g><mask></mask><g stroke-linecap="round"><g transform="translate(541.1542345803135 131.95095903937812) rotate(0 35.43394857370242 -57.45273108288164)" fill-rule="evenodd"><path d="M0 0 C2.37 -0.21, 9.39 -0.46, 14.22 -1.29 C19.06 -2.11, 24.55 -3.25, 29 -4.94 C33.45 -6.64, 36.71 -8.09, 40.92 -11.46 C45.13 -14.82, 50.69 -19.4, 54.27 -25.12 C57.84 -30.84, 60.94 -38.21, 62.37 -45.78 C63.8 -53.35, 63.67 -63.26, 62.85 -70.57 C62.03 -77.88, 59.14 -84.82, 57.45 -89.64 C55.75 -94.46, 54.72 -96.76, 52.68 -99.49 C50.64 -102.22, 48.31 -103.44, 45.21 -106.01 C42.11 -108.58, 32.55 -114.96, 34.09 -114.91 C35.62 -114.85, 50.05 -108.89, 54.43 -105.69 C58.8 -102.49, 57.94 -100.8, 60.34 -95.71 C62.74 -90.61, 67.08 -82.48, 68.84 -75.12 C70.59 -67.75, 71.43 -59.23, 70.87 -51.52 C70.31 -43.8, 68.01 -34.76, 65.48 -28.83 C62.94 -22.9, 60.8 -20.46, 55.67 -15.95 C50.55 -11.44, 44 -4.42, 34.72 -1.76 C25.44 0.9, 5.79 -0.29, 0 0" stroke="none" stroke-width="0" fill="#ffa94d88" fill-rule="evenodd"></path><path d="M0 0 C2.37 -0.21, 9.39 -0.46, 14.22 -1.29 C19.06 -2.11, 24.55 -3.25, 29 -4.94 C33.45 -6.64, 36.71 -8.09, 40.92 -11.46 C45.13 -14.82, 50.69 -19.4, 54.27 -25.12 C57.84 -30.84, 60.94 -38.21, 62.37 -45.78 C63.8 -53.35, 63.67 -63.26, 62.85 -70.57 C62.03 -77.88, 59.14 -84.82, 57.45 -89.64 C55.75 -94.46, 54.72 -96.76, 52.68 -99.49 C50.64 -102.22, 48.31 -103.44, 45.21 -106.01 C42.11 -108.58, 32.55 -114.96, 34.09 -114.91 C35.62 -114.85, 50.05 -108.89, 54.43 -105.69 C58.8 -102.49, 57.94 -100.8, 60.34 -95.71 C62.74 -90.61, 67.08 -82.48, 68.84 -75.12 C70.59 -67.75, 71.43 -59.23, 70.87 -51.52 C70.31 -43.8, 68.01 -34.76, 65.48 -28.83 C62.94 -22.9, 60.8 -20.46, 55.67 -15.95 C50.55 -11.44, 44 -4.42, 34.72 -1.76 C25.44 0.9, 5.79 -0.29, 0 0 M0 0 C2.37 -0.21, 9.39 -0.46, 14.22 -1.29 C19.06 -2.11, 24.55 -3.25, 29 -4.94 C33.45 -6.64, 36.71 -8.09, 40.92 -11.46 C45.13 -14.82, 50.69 -19.4, 54.27 -25.12 C57.84 -30.84, 60.94 -38.21, 62.37 -45.78 C63.8 -53.35, 63.67 -63.26, 62.85 -70.57 C62.03 -77.88, 59.14 -84.82, 57.45 -89.64 C55.75 -94.46, 54.72 -96.76, 52.68 -99.49 C50.64 -102.22, 48.31 -103.44, 45.21 -106.01 C42.11 -108.58, 32.55 -114.96, 34.09 -114.91 C35.62 -114.85, 50.05 -108.89, 54.43 -105.69 C58.8 -102.49, 57.94 -100.8, 60.34 -95.71 C62.74 -90.61, 67.08 -82.48, 68.84 -75.12 C70.59 -67.75, 71.43 -59.23, 70.87 -51.52 C70.31 -43.8, 68.01 -34.76, 65.48 -28.83 C62.94 -22.9, 60.8 -20.46, 55.67 -15.95 C50.55 -11.44, 44 -4.42, 34.72 -1.76 C25.44 0.9, 5.79 -0.29, 0 0" stroke="transparent" stroke-width="1" fill="none"></path></g></g><mask></mask><g stroke-linecap="round"><g transform="translate(540.7302921802253 177.24143167112368) rotate(0 43.5410087187484 15.473997706317363)"><path d="M1.09 -0.63 C0.02 1.53, -5.28 9.07, -5.38 13.75 C-5.48 18.42, -3.19 23.36, 0.46 27.4 C4.11 31.43, 11.17 34.93, 16.51 37.97 C21.86 41, 26.54 44.07, 32.54 45.61 C38.53 47.15, 46.27 47.79, 52.46 47.21 C58.64 46.63, 64.86 43.85, 69.65 42.13 C74.44 40.41, 77.88 39.67, 81.19 36.9 C84.5 34.13, 87.72 29.46, 89.48 25.51 C91.24 21.55, 92.5 14.12, 91.77 13.18 C91.03 12.25, 87.94 18.51, 85.07 19.9 C82.2 21.29, 75.68 22.02, 74.53 21.5 C73.39 20.98, 76.89 18.04, 78.19 16.77 C79.49 15.5, 80.52 15.58, 82.33 13.9 C84.14 12.22, 87.64 9.72, 89.07 6.7 C90.5 3.69, 91.17 -1.7, 90.89 -4.17 C90.61 -6.63, 88.9 -8.13, 87.4 -8.08 C85.9 -8.03, 84.9 -4.25, 81.89 -3.86 C78.87 -3.47, 72.72 -4.51, 69.31 -5.72 C65.9 -6.92, 63.76 -9.52, 61.45 -11.08 C59.14 -12.64, 57.92 -14.29, 55.46 -15.05 C52.99 -15.82, 48.01 -15.54, 46.64 -15.67 M0.2 1.65 C-0.6 3.39, -3.24 7.44, -3.24 11.91 C-3.24 16.39, -3.22 23.97, 0.19 28.5 C3.59 33.02, 11.49 36.07, 17.17 39.06 C22.85 42.05, 28.18 45.18, 34.29 46.42 C40.39 47.67, 48.33 46.9, 53.8 46.51 C59.26 46.13, 62.69 45.81, 67.07 44.12 C71.45 42.44, 76.02 39.2, 80.07 36.41 C84.13 33.62, 89.28 31.4, 91.39 27.41 C93.5 23.42, 93.7 13.56, 92.74 12.47 C91.79 11.39, 88.35 19.44, 85.66 20.9 C82.98 22.37, 77.75 21.56, 76.62 21.27 C75.48 20.97, 77.48 20.36, 78.84 19.15 C80.21 17.94, 83.08 16.23, 84.79 13.99 C86.5 11.76, 88.47 9.08, 89.11 5.75 C89.75 2.42, 89.05 -3.28, 88.63 -5.98 C88.22 -8.68, 87.9 -10.35, 86.6 -10.45 C85.3 -10.54, 83.87 -7.44, 80.82 -6.54 C77.76 -5.65, 71.45 -4.03, 68.26 -5.08 C65.08 -6.13, 64.04 -10.96, 61.73 -12.84 C59.42 -14.73, 56.82 -15.69, 54.41 -16.39 C51.99 -17.09, 48.33 -16.98, 47.24 -17.05" stroke="#1e1e1e" stroke-width="2" fill="none"></path></g></g><mask></mask><g stroke-linecap="round" transform="translate(486.7370286790074 157.09549156837227) rotate(12.063197851609198 4.548529569608604 14.09152298035616)"><path d="M4.36 0.29 C5.24 0.05, 6.13 0.83, 6.97 2.72 C7.81 4.6, 9.14 8.54, 9.43 11.59 C9.71 14.64, 9.17 18.44, 8.68 21.03 C8.19 23.62, 7.44 26.06, 6.49 27.13 C5.53 28.19, 3.92 28.35, 2.97 27.41 C2.03 26.47, 1.27 24.15, 0.83 21.48 C0.38 18.81, 0.2 14.36, 0.28 11.38 C0.36 8.39, 0.62 5.43, 1.29 3.55 C1.97 1.68, 3.77 0.65, 4.35 0.13 C4.93 -0.38, 4.74 0.33, 4.77 0.47 M5.61 0.25 C6.43 0.87, 6.87 3.4, 7.45 5.96 C8.02 8.53, 8.89 12.79, 9.06 15.65 C9.22 18.51, 9.02 21.15, 8.44 23.15 C7.86 25.15, 6.54 27.14, 5.55 27.64 C4.57 28.14, 3.37 27.67, 2.53 26.14 C1.69 24.61, 0.77 21.27, 0.51 18.44 C0.25 15.62, 0.6 12.07, 0.98 9.2 C1.36 6.34, 2.01 2.7, 2.8 1.24 C3.6 -0.21, 5.25 0.71, 5.75 0.49 C6.25 0.28, 5.79 -0.2, 5.8 -0.04" stroke="none" stroke-width="0" fill="#ffffff"></path><path d="M4.44 0.48 C5.33 0.19, 6.61 1.34, 7.42 3.11 C8.23 4.89, 9.18 8.13, 9.3 11.13 C9.42 14.13, 8.6 18.47, 8.15 21.11 C7.7 23.75, 7.39 25.94, 6.59 26.96 C5.8 27.99, 4.38 28.26, 3.37 27.26 C2.36 26.25, 1.02 23.54, 0.52 20.93 C0.02 18.31, 0.16 14.49, 0.36 11.57 C0.56 8.66, 0.99 5.43, 1.69 3.44 C2.4 1.45, 4.07 0.1, 4.58 -0.36 C5.08 -0.82, 4.61 0.34, 4.7 0.65 M3.03 -0.01 C3.9 -0.76, 5.95 -0.27, 6.88 1.34 C7.81 2.95, 8.37 6.68, 8.61 9.64 C8.84 12.59, 8.6 16.35, 8.31 19.07 C8.03 21.8, 7.69 24.57, 6.89 25.98 C6.08 27.39, 4.37 28.05, 3.47 27.53 C2.58 27.01, 2.16 25.02, 1.51 22.85 C0.86 20.68, -0.47 17.4, -0.45 14.52 C-0.43 11.65, 0.88 8, 1.61 5.61 C2.34 3.22, 3.68 0.91, 3.91 0.17 C4.14 -0.56, 2.97 0.99, 2.98 1.22" stroke="#ffffff" stroke-width="2" fill="none"></path></g><g stroke-linecap="round" transform="translate(546.1498325613923 190.98153304862825) rotate(314.1001402850957 1.9655096311002467 6.2480429574672485)"><path d="M1.99 0.71 C2.35 0.04, 2.31 -0.23, 2.6 0.15 C2.89 0.53, 3.67 1.83, 3.72 3.01 C3.78 4.2, 3.12 5.76, 2.93 7.26 C2.74 8.77, 2.66 11.26, 2.61 12.02 C2.55 12.79, 2.92 12.03, 2.59 11.84 C2.27 11.66, 0.95 11.77, 0.66 10.89 C0.37 10.02, 0.99 7.97, 0.85 6.6 C0.72 5.23, -0.31 3.87, -0.16 2.66 C-0.01 1.46, 1.3 -0.33, 1.74 -0.63 C2.18 -0.93, 2.55 0.65, 2.48 0.87 M0.96 -0.33 C1.57 -0.2, 3.98 1.3, 4.32 2.31 C4.66 3.32, 2.89 4.56, 3.01 5.75 C3.13 6.94, 4.99 8.53, 5.05 9.47 C5.11 10.41, 3.91 10.84, 3.36 11.38 C2.82 11.92, 2.52 12.85, 1.78 12.72 C1.03 12.6, -0.62 11.89, -1.12 10.62 C-1.62 9.34, -1.56 6.44, -1.21 5.05 C-0.86 3.66, 0.4 3.15, 0.98 2.27 C1.56 1.39, 2.31 0.1, 2.27 -0.23 C2.23 -0.56, 0.7 -0.05, 0.74 0.3" stroke="none" stroke-width="0" fill="#ffffff"></path><path d="M1.97 -0.54 C2.22 -1.06, 1.71 -0.72, 1.94 0.2 C2.17 1.12, 3.03 3.62, 3.36 4.97 C3.69 6.33, 4.04 7.23, 3.91 8.32 C3.77 9.41, 2.84 10.75, 2.57 11.53 C2.3 12.31, 2.65 13.2, 2.3 12.99 C1.94 12.79, 0.97 11.5, 0.42 10.29 C-0.13 9.08, -1.13 7.23, -1 5.74 C-0.87 4.25, 0.72 2.44, 1.2 1.35 C1.68 0.26, 1.64 -0.52, 1.9 -0.8 C2.15 -1.07, 2.8 -0.71, 2.75 -0.31 M1.89 0.11 C2.22 -0.36, 2.73 -0.93, 3.07 -0.06 C3.4 0.8, 3.79 3.92, 3.9 5.3 C4.01 6.68, 3.7 7.12, 3.73 8.22 C3.76 9.33, 4.43 11.34, 4.06 11.94 C3.69 12.53, 1.9 12.32, 1.52 11.79 C1.14 11.27, 1.99 10, 1.77 8.79 C1.55 7.57, 0.19 5.72, 0.21 4.51 C0.22 3.31, 1.5 2.23, 1.84 1.55 C2.19 0.87, 2.49 0.43, 2.3 0.44 C2.11 0.45, 1.01 1.39, 0.72 1.6" stroke="#ffffff" stroke-width="2" fill="none"></path></g><g stroke-linecap="round"><g transform="translate(114.29262991017455 51.76311100454683) rotate(0 19.818658288138792 1.750993377418581)" fill-rule="evenodd"><path d="M-0.81 1.98 C-1.33 0.87, -0.1 -3.05, -1.06 -5.17 C-2.02 -7.29, -6.14 -8.27, -6.55 -10.76 C-6.95 -13.26, -7.86 -18.49, -3.49 -20.11 C0.87 -21.74, 13.13 -21.63, 19.64 -20.51 C26.15 -19.39, 30.48 -17.26, 35.56 -13.41 C40.64 -9.56, 49.96 -2.94, 50.11 2.61 C50.25 8.16, 41.18 15.88, 36.43 19.9 C31.68 23.92, 28.06 25.88, 21.63 26.74 C15.2 27.6, 2.76 26.82, -2.15 25.07 C-7.06 23.32, -7.89 19.16, -7.85 16.21 C-7.81 13.27, -3.6 10.29, -1.91 7.42 C-0.21 4.55, 1.7 0.5, 2.32 -1" stroke="none" stroke-width="0" fill="#ffec99" fill-rule="evenodd"></path><path d="M-0.44 0.53 C-0.89 -0.62, -2.62 -3.62, -3.87 -5.88 C-5.13 -8.14, -7.54 -10.75, -7.95 -13.03 C-8.36 -15.31, -11.13 -18.28, -6.33 -19.57 C-1.53 -20.86, 13.56 -21.64, 20.86 -20.77 C28.17 -19.9, 32.95 -17.95, 37.5 -14.35 C42.04 -10.75, 48.02 -4.42, 48.14 0.84 C48.26 6.1, 42.96 13.19, 38.21 17.2 C33.46 21.22, 26.57 24.16, 19.64 24.93 C12.71 25.7, 1.2 23.05, -3.38 21.82 C-7.96 20.59, -8.02 19.47, -7.86 17.56 C-7.7 15.65, -3.71 13.25, -2.42 10.35 C-1.13 7.46, -0.47 2, -0.11 0.19 M1.53 -0.23 C0.99 -0.64, -3.44 -2.31, -5.07 -4.27 C-6.69 -6.22, -7.97 -9.51, -8.23 -11.96 C-8.48 -14.42, -11.26 -17.62, -6.6 -18.99 C-1.94 -20.37, 12.2 -20.83, 19.76 -20.22 C27.31 -19.62, 33.92 -18.66, 38.72 -15.35 C43.52 -12.03, 48.29 -5.65, 48.58 -0.33 C48.88 4.99, 45.09 12.58, 40.5 16.59 C35.91 20.6, 28.32 22.42, 21.03 23.73 C13.75 25.05, 1.56 25.38, -3.21 24.48 C-7.97 23.57, -8.03 20.63, -7.58 18.3 C-7.14 15.96, -1.81 13.61, -0.53 10.47 C0.74 7.33, 0.15 1.37, 0.06 -0.54" stroke="#1e1e1e" stroke-width="2" fill="none"></path></g></g><mask></mask><g stroke-linecap="round"><g transform="translate(99.24124225819767 39.07826561864562) rotate(0 4.933477498309188 14.42093422582687)"><path d="M-0.22 -0.45 C0.72 0.74, 4 4.96, 5.7 7.57 C7.4 10.18, 9.86 12.68, 10 15.18 C10.14 17.69, 7.89 20.37, 6.53 22.6 C5.17 24.83, 2.69 27.59, 1.84 28.54 M0.67 0.51 C1.77 1.51, 5.19 4.24, 6.7 6.77 C8.21 9.3, 9.73 12.99, 9.72 15.7 C9.72 18.41, 8.07 20.87, 6.66 23.01 C5.25 25.16, 2.03 27.53, 1.25 28.57" stroke="#1e1e1e" stroke-width="2" fill="none"></path></g></g><mask></mask><g stroke-linecap="round" transform="translate(142.09737711141025 42.6720067131202) rotate(0 3.9343963317697614 3.299905294824242)"><path d="M3.64 0.06 C4.43 -0.05, 5.06 0.44, 5.74 0.8 C6.42 1.16, 7.39 1.54, 7.73 2.2 C8.07 2.85, 8.05 4.07, 7.77 4.73 C7.49 5.39, 6.85 5.86, 6.06 6.15 C5.26 6.45, 3.84 6.6, 3.02 6.47 C2.2 6.35, 1.66 5.99, 1.14 5.4 C0.62 4.81, -0.04 3.68, -0.1 2.91 C-0.15 2.14, 0.22 1.29, 0.83 0.77 C1.45 0.26, 3.12 -0.09, 3.58 -0.15 C4.03 -0.21, 3.55 0.31, 3.56 0.39 M3.68 0.14 C4.38 -0.06, 5.32 0.01, 5.99 0.42 C6.66 0.83, 7.51 1.95, 7.68 2.6 C7.85 3.25, 7.41 3.71, 7 4.33 C6.59 4.94, 5.84 5.84, 5.22 6.29 C4.6 6.73, 3.98 7.13, 3.29 6.98 C2.6 6.84, 1.54 6.01, 1.08 5.41 C0.61 4.81, 0.56 4.19, 0.5 3.41 C0.44 2.62, 0.19 1.31, 0.71 0.69 C1.23 0.07, 3.19 -0.18, 3.62 -0.33 C4.05 -0.47, 3.24 -0.28, 3.3 -0.18" stroke="none" stroke-width="0" fill="#1e1e1e"></path><path d="M4.42 0.16 C5.15 0.25, 5.93 0.78, 6.47 1.23 C7.02 1.67, 7.63 2.17, 7.69 2.85 C7.76 3.52, 7.3 4.63, 6.85 5.28 C6.39 5.92, 5.76 6.55, 4.96 6.71 C4.15 6.87, 2.72 6.59, 2 6.24 C1.28 5.88, 1 5.2, 0.65 4.57 C0.29 3.95, -0.25 3.1, -0.13 2.46 C0 1.83, 0.61 1.22, 1.41 0.79 C2.22 0.35, 4.14 0.01, 4.69 -0.14 C5.23 -0.29, 4.79 -0.22, 4.69 -0.1 M4.65 -0.08 C5.47 -0.13, 6.65 -0.04, 7.13 0.54 C7.62 1.13, 7.59 2.65, 7.55 3.42 C7.52 4.18, 7.34 4.59, 6.93 5.14 C6.52 5.68, 5.88 6.51, 5.09 6.69 C4.3 6.87, 3.05 6.55, 2.2 6.22 C1.36 5.88, 0.39 5.37, 0 4.68 C-0.39 3.98, -0.48 2.77, -0.13 2.05 C0.22 1.33, 1.32 0.62, 2.11 0.36 C2.89 0.09, 4.22 0.5, 4.57 0.46 C4.92 0.41, 4.31 0.04, 4.22 0.09" stroke="#1e1e1e" stroke-width="1" fill="none"></path></g><g stroke-linecap="round" transform="translate(145.62286152646303 43.857460029322965) rotate(0 1.2537444617403253 1.1049951188219609)"><path d="M1.3 -0.01 C1.51 -0.05, 1.56 0.29, 1.8 0.44 C2.04 0.58, 2.65 0.71, 2.77 0.87 C2.88 1.04, 2.66 1.23, 2.48 1.43 C2.3 1.63, 1.91 2, 1.67 2.07 C1.42 2.14, 1.31 1.94, 1.03 1.84 C0.75 1.74, 0.15 1.59, -0.02 1.49 C-0.19 1.4, -0.12 1.42, 0 1.27 C0.12 1.11, 0.48 0.73, 0.7 0.57 C0.91 0.42, 1.18 0.47, 1.31 0.33 C1.43 0.18, 1.5 -0.24, 1.45 -0.28 M1.47 -0.07 C1.85 -0.09, 2.28 -0.14, 2.45 0.04 C2.61 0.22, 2.5 0.75, 2.46 1 C2.42 1.25, 2.39 1.37, 2.22 1.53 C2.06 1.69, 1.73 1.76, 1.46 1.94 C1.2 2.11, 0.8 2.68, 0.62 2.58 C0.43 2.47, 0.44 1.6, 0.37 1.29 C0.3 0.98, 0.11 0.85, 0.17 0.74 C0.24 0.63, 0.66 0.78, 0.76 0.64 C0.86 0.49, 0.79 0.06, 0.79 -0.12 C0.8 -0.31, 0.79 -0.52, 0.79 -0.45" stroke="none" stroke-width="0" fill="#ffffff"></path><path d="M0.9 0.23 C1.14 0.26, 1.87 0.25, 2.13 0.39 C2.39 0.54, 2.42 0.85, 2.45 1.1 C2.48 1.35, 2.49 1.74, 2.33 1.88 C2.17 2.01, 1.7 1.89, 1.51 1.91 C1.33 1.93, 1.44 2.02, 1.22 2 C1 1.98, 0.39 1.97, 0.21 1.8 C0.03 1.62, 0.13 1.22, 0.14 0.93 C0.16 0.64, 0.14 0.25, 0.31 0.06 C0.48 -0.12, 1.05 -0.21, 1.16 -0.17 C1.26 -0.12, 0.97 0.25, 0.95 0.33 M1.27 0.41 C1.48 0.35, 1.76 -0.14, 1.89 -0.1 C2.03 -0.05, 1.98 0.3, 2.08 0.68 C2.18 1.06, 2.57 2.01, 2.48 2.2 C2.39 2.38, 1.77 1.8, 1.54 1.79 C1.32 1.79, 1.37 2.17, 1.11 2.17 C0.85 2.17, 0.1 1.95, -0.02 1.78 C-0.15 1.61, 0.28 1.44, 0.37 1.15 C0.46 0.85, 0.36 0.11, 0.52 0 C0.68 -0.12, 1.19 0.48, 1.35 0.46 C1.52 0.44, 1.58 -0.01, 1.52 -0.11" stroke="#ffffff" stroke-width="1" fill="none"></path></g><g stroke-linecap="round"><g transform="translate(141.4907938087142 57.352900733820775) rotate(0 4.092245149110312 0.19451988240345486)"><path d="M0.24 -0.04 C1.01 -0.53, 4.26 -3.68, 4.67 -3.3 C5.07 -2.93, 2.13 1.93, 2.7 2.2 C3.26 2.47, 7.63 -1.88, 8.05 -1.66 C8.46 -1.45, 5.66 2.67, 5.16 3.48 M-0.06 -0.37 C0.81 -0.79, 4.95 -3.29, 5.37 -2.95 C5.79 -2.62, 2 1.54, 2.45 1.65 C2.9 1.75, 7.67 -2.66, 8.05 -2.34 C8.42 -2.01, 5.14 2.57, 4.7 3.59" stroke="#f783ac" stroke-width="1" fill="none"></path></g></g><mask></mask><g stroke-linecap="round"><g transform="translate(253.31462973277 151.82313796419334) rotate(0 28.64687273245673 0.300572076792605)" fill-rule="evenodd"><path d="M-0.76 0.68 C-0.29 -2.86, -2.47 -17.33, 2.1 -21.08 C6.67 -24.82, 19.6 -22.28, 26.64 -21.77 C33.68 -21.27, 39.26 -21.33, 44.34 -18.02 C49.42 -14.71, 56.82 -7.98, 57.14 -1.91 C57.45 4.15, 50.87 14.13, 46.24 18.36 C41.6 22.6, 36.48 23.26, 29.33 23.5 C22.17 23.74, 7.84 23.47, 3.3 19.81 C-1.25 16.15, 2.76 4.49, 2.07 1.52" stroke="none" stroke-width="0" fill="#ffec99" fill-rule="evenodd"></path><path d="M0.45 1.02 C0.98 -2.06, -0.79 -15.66, 3.9 -19.58 C8.6 -23.51, 21.33 -23.04, 28.62 -22.52 C35.91 -21.99, 43.07 -20.19, 47.66 -16.42 C52.24 -12.66, 56.19 -5.45, 56.11 0.08 C56.04 5.62, 51.71 12.94, 47.21 16.8 C42.71 20.67, 36.17 22.67, 29.1 23.26 C22.02 23.85, 9.77 24.4, 4.76 20.36 C-0.25 16.31, -0.3 2.34, -0.98 -1 M-0.78 0.51 C-0.42 -2.84, -1.54 -17.86, 3.2 -21.48 C7.94 -25.09, 20.14 -22.18, 27.68 -21.2 C35.22 -20.22, 43.43 -18.7, 48.44 -15.61 C53.44 -12.51, 57.69 -7.92, 57.68 -2.65 C57.68 2.63, 53.09 11.94, 48.39 16.05 C43.69 20.15, 36.86 21.37, 29.5 21.99 C22.14 22.61, 9.05 23.31, 4.22 19.77 C-0.62 16.23, 0.89 4.05, 0.49 0.75" stroke="#1e1e1e" stroke-width="2" fill="none"></path></g></g><mask></mask><g stroke-linecap="round" transform="translate(289.33980552989146 143.96878492106617) rotate(0 3.9343963317697614 3.299905294824242)"><path d="M3.75 0.3 C4.53 0.21, 5.26 0.08, 5.96 0.46 C6.67 0.84, 7.68 1.8, 7.96 2.56 C8.25 3.32, 8.02 4.41, 7.65 5 C7.27 5.58, 6.46 5.86, 5.71 6.08 C4.97 6.3, 4.04 6.46, 3.15 6.31 C2.26 6.16, 0.87 5.74, 0.36 5.2 C-0.14 4.65, -0.03 3.72, 0.12 3.06 C0.27 2.4, 0.68 1.74, 1.27 1.23 C1.85 0.72, 3.14 0.19, 3.62 0.01 C4.09 -0.17, 4.07 0.09, 4.1 0.15 M3.66 -0.43 C4.59 -0.49, 6.03 0.42, 6.67 0.89 C7.31 1.37, 7.32 1.73, 7.51 2.42 C7.7 3.11, 8.21 4.3, 7.79 5.03 C7.37 5.76, 5.76 6.5, 4.99 6.78 C4.22 7.06, 3.81 6.92, 3.17 6.69 C2.52 6.46, 1.72 6.1, 1.12 5.41 C0.52 4.72, -0.47 3.33, -0.44 2.54 C-0.4 1.75, 0.6 1.06, 1.31 0.68 C2.02 0.29, 3.44 0.39, 3.81 0.22 C4.19 0.05, 3.51 -0.37, 3.58 -0.33" stroke="none" stroke-width="0" fill="#1e1e1e"></path><path d="M4.24 -0.14 C5.06 -0.1, 6.26 0.71, 6.86 1.24 C7.46 1.78, 7.76 2.41, 7.84 3.07 C7.92 3.73, 7.89 4.59, 7.32 5.2 C6.76 5.81, 5.33 6.55, 4.46 6.72 C3.59 6.9, 2.76 6.6, 2.1 6.23 C1.44 5.86, 0.8 5.17, 0.48 4.52 C0.16 3.86, -0.07 3, 0.19 2.32 C0.45 1.63, 1.29 0.75, 2.01 0.39 C2.73 0.04, 4.08 0.22, 4.51 0.18 C4.94 0.13, 4.63 0.11, 4.59 0.12 M3.62 -0.04 C4.54 -0.16, 6.16 0.18, 6.91 0.67 C7.65 1.16, 8.08 2.17, 8.09 2.89 C8.1 3.6, 7.47 4.32, 6.95 4.97 C6.42 5.61, 5.63 6.52, 4.92 6.75 C4.22 6.98, 3.46 6.68, 2.72 6.35 C1.99 6.02, 0.96 5.46, 0.51 4.76 C0.06 4.07, -0.19 2.81, 0.04 2.18 C0.27 1.55, 1.21 1.42, 1.87 0.98 C2.53 0.55, 3.59 -0.35, 3.99 -0.44 C4.39 -0.53, 4.19 0.25, 4.27 0.45" stroke="#1e1e1e" stroke-width="1" fill="none"></path></g><g stroke-linecap="round" transform="translate(292.86528994494427 145.154238237269) rotate(0 1.2537444617403253 1.1049951188219609)"><path d="M0.85 -0.15 C1.12 -0.23, 1.87 0.06, 2.17 0.26 C2.46 0.47, 2.56 0.89, 2.63 1.06 C2.69 1.24, 2.65 1.18, 2.56 1.32 C2.47 1.47, 2.41 1.78, 2.09 1.93 C1.77 2.08, 0.93 2.23, 0.64 2.21 C0.35 2.2, 0.43 1.99, 0.34 1.85 C0.25 1.7, 0.1 1.58, 0.08 1.33 C0.06 1.08, 0 0.56, 0.21 0.35 C0.42 0.14, 1.19 0.14, 1.36 0.09 C1.53 0.04, 1.27 0.08, 1.21 0.04 M1.68 0.24 C1.9 0.29, 1.65 0, 1.84 0.16 C2.03 0.32, 2.84 0.87, 2.83 1.2 C2.83 1.53, 1.96 1.94, 1.82 2.14 C1.68 2.34, 2.1 2.34, 2 2.39 C1.91 2.43, 1.64 2.62, 1.26 2.43 C0.87 2.24, -0.12 1.54, -0.32 1.25 C-0.51 0.95, -0.05 0.79, 0.1 0.65 C0.25 0.52, 0.41 0.62, 0.59 0.45 C0.77 0.27, 0.97 -0.35, 1.16 -0.4 C1.36 -0.45, 1.81 0.09, 1.76 0.15" stroke="none" stroke-width="0" fill="#ffffff"></path><path d="M1.38 0.15 C1.68 0.17, 1.9 0.09, 2.13 0.21 C2.37 0.34, 2.83 0.6, 2.8 0.89 C2.78 1.18, 2.19 1.73, 1.99 1.95 C1.78 2.17, 1.76 2.18, 1.58 2.2 C1.39 2.22, 1.14 2.19, 0.89 2.09 C0.65 1.99, 0.22 1.83, 0.1 1.6 C-0.02 1.37, 0.14 0.91, 0.2 0.69 C0.26 0.48, 0.28 0.43, 0.47 0.32 C0.66 0.2, 1.21 0.07, 1.33 0.01 C1.44 -0.06, 1.14 -0.06, 1.15 -0.07 M1.8 -0.13 C2.16 -0.09, 2.39 0.26, 2.44 0.45 C2.5 0.64, 2.23 0.74, 2.15 1.01 C2.07 1.29, 2.04 1.91, 1.97 2.1 C1.9 2.29, 1.95 2.18, 1.73 2.15 C1.52 2.13, 0.98 2.14, 0.7 1.95 C0.42 1.77, 0.1 1.2, 0.06 1.05 C0.03 0.89, 0.38 1.25, 0.47 1.03 C0.55 0.81, 0.36 -0.16, 0.56 -0.26 C0.76 -0.37, 1.46 0.27, 1.68 0.39 C1.9 0.51, 1.9 0.42, 1.87 0.46" stroke="#ffffff" stroke-width="1" fill="none"></path></g><g stroke-linecap="round"><g transform="translate(288.7332222271955 158.6496789417667) rotate(0 4.092245149110312 0.19451988240345486)"><path d="M0.23 -0.27 C0.96 -0.77, 4.21 -3.47, 4.65 -3.11 C5.09 -2.74, 2.32 1.64, 2.89 1.91 C3.45 2.17, 7.68 -1.71, 8.05 -1.5 C8.41 -1.28, 5.51 2.36, 5.08 3.19 M-0.08 0.35 C0.74 -0.07, 4.88 -2.98, 5.35 -2.66 C5.82 -2.34, 2.29 2.18, 2.74 2.28 C3.19 2.37, 7.57 -2.23, 8.05 -2.09 C8.54 -1.94, 6.17 2.27, 5.64 3.16" stroke="#f783ac" stroke-width="1" fill="none"></path></g></g><mask></mask><g stroke-linecap="round"><g transform="translate(363.02467314900366 217.7936766115344) rotate(0 19.818658288138806 1.750993377418581)" fill-rule="evenodd"><path d="M-2.31 0.74 C-3.04 -0.45, -4.6 -5.79, -5.72 -8.17 C-6.84 -10.55, -8.85 -12.14, -9.03 -13.52 C-9.2 -14.91, -11.59 -15.29, -6.76 -16.48 C-1.93 -17.67, 12.59 -20.85, 19.94 -20.68 C27.29 -20.51, 32.21 -19.23, 37.32 -15.45 C42.43 -11.66, 50.46 -3.83, 50.58 2.03 C50.71 7.89, 42.63 15.81, 38.06 19.7 C33.48 23.6, 29.46 24.59, 23.13 25.42 C16.8 26.24, 4.92 26.15, 0.07 24.66 C-4.77 23.18, -5.54 18.96, -5.93 16.5 C-6.32 14.03, -2.86 12.46, -2.26 9.88 C-1.65 7.3, -2.94 2.31, -2.3 1.02" stroke="none" stroke-width="0" fill="#ffec99" fill-rule="evenodd"></path><path d="M-0.08 -0.71 C-0.54 -2, -1.33 -5.35, -2.72 -7.15 C-4.11 -8.95, -8.07 -9.7, -8.43 -11.54 C-8.79 -13.37, -9.59 -16.55, -4.88 -18.13 C-0.17 -19.72, 12.55 -21.59, 19.84 -21.07 C27.13 -20.54, 34.29 -18.74, 38.87 -14.97 C43.45 -11.21, 47.41 -4, 47.33 1.53 C47.26 7.07, 42.93 14.39, 38.42 18.26 C33.92 22.12, 26.94 24.02, 20.31 24.71 C13.69 25.4, 3.52 23.68, -1.33 22.4 C-6.17 21.12, -8.82 19.17, -8.77 17.04 C-8.72 14.91, -2.43 12.45, -1.03 9.62 C0.37 6.79, -0.47 1.63, -0.36 0.08 M-1.59 1.53 C-2.14 0.3, -2.08 -3.73, -3.31 -6.2 C-4.54 -8.68, -8.78 -11.58, -8.96 -13.34 C-9.14 -15.11, -9.52 -15.58, -4.39 -16.8 C0.75 -18.02, 14.93 -21.37, 21.85 -20.68 C28.78 -19.98, 32.91 -16.21, 37.16 -12.64 C41.41 -9.07, 47.35 -4.41, 47.35 0.73 C47.36 5.87, 41.38 14.42, 37.17 18.2 C32.95 21.97, 28.88 22.82, 22.06 23.4 C15.24 23.98, 1.44 22.68, -3.73 21.7 C-8.9 20.71, -9.24 19.56, -8.96 17.5 C-8.69 15.44, -3.52 12.38, -2.08 9.35 C-0.64 6.32, -0.46 0.8, -0.32 -0.7" stroke="#1e1e1e" stroke-width="2" fill="none"></path></g></g><mask></mask><g stroke-linecap="round" transform="translate(391.6082701473797 213.4837809310314) rotate(0 3.9343963317697614 3.299905294824242)"><path d="M3.61 -0.16 C4.38 -0.24, 5.32 0.45, 6.06 0.91 C6.8 1.37, 7.8 1.94, 8.06 2.6 C8.31 3.26, 7.95 4.29, 7.57 4.87 C7.2 5.44, 6.59 5.82, 5.82 6.05 C5.05 6.28, 3.8 6.39, 2.96 6.23 C2.12 6.08, 1.28 5.67, 0.79 5.13 C0.29 4.59, -0.12 3.65, -0.03 3 C0.06 2.35, 0.74 1.72, 1.35 1.23 C1.96 0.74, 3.18 0.29, 3.62 0.06 C4.07 -0.18, 4.04 -0.2, 4.01 -0.18 M4.85 0.32 C5.61 0.41, 6.58 0.37, 7.04 0.88 C7.5 1.4, 7.52 2.63, 7.61 3.41 C7.69 4.19, 8.04 5.1, 7.54 5.55 C7.03 6, 5.44 6, 4.57 6.11 C3.71 6.23, 3.08 6.53, 2.35 6.24 C1.62 5.94, 0.61 4.92, 0.21 4.34 C-0.2 3.75, -0.31 3.29, -0.07 2.73 C0.17 2.16, 0.95 1.41, 1.65 0.95 C2.35 0.48, 3.73 0.04, 4.13 -0.05 C4.54 -0.13, 4.01 0.35, 4.06 0.44" stroke="none" stroke-width="0" fill="#1e1e1e"></path><path d="M3.33 0.34 C4.15 0.23, 5.68 0.15, 6.37 0.52 C7.05 0.88, 7.29 1.83, 7.43 2.53 C7.58 3.22, 7.56 4.02, 7.25 4.68 C6.94 5.34, 6.29 6.15, 5.58 6.49 C4.87 6.83, 3.78 6.93, 2.98 6.73 C2.19 6.53, 1.34 5.95, 0.82 5.29 C0.3 4.63, -0.27 3.47, -0.17 2.76 C-0.06 2.06, 0.83 1.55, 1.44 1.05 C2.04 0.55, 3.04 -0.08, 3.46 -0.25 C3.88 -0.41, 3.89 -0.08, 3.95 0.07 M3.92 0.22 C4.76 0.28, 6.04 0.48, 6.74 0.97 C7.45 1.47, 8.14 2.49, 8.16 3.18 C8.17 3.86, 7.28 4.48, 6.83 5.1 C6.38 5.72, 6.28 6.63, 5.45 6.9 C4.63 7.17, 2.79 7.09, 1.88 6.74 C0.96 6.4, 0.23 5.44, -0.02 4.82 C-0.27 4.2, 0.15 3.78, 0.37 3 C0.59 2.23, 0.72 0.6, 1.31 0.17 C1.89 -0.25, 3.4 0.37, 3.89 0.43 C4.39 0.5, 4.23 0.61, 4.28 0.54" stroke="#1e1e1e" stroke-width="1" fill="none"></path></g><g stroke-linecap="round" transform="translate(395.1337545624325 214.66923424723421) rotate(0 1.2537444617403253 1.1049951188219609)"><path d="M1.24 0.3 C1.55 0.36, 2.25 0.32, 2.48 0.47 C2.71 0.62, 2.59 1.01, 2.6 1.18 C2.61 1.36, 2.69 1.39, 2.52 1.51 C2.36 1.64, 1.91 1.85, 1.62 1.94 C1.33 2.03, 1.05 2.12, 0.79 2.06 C0.52 2, 0.15 1.73, 0.05 1.56 C-0.04 1.4, 0.14 1.29, 0.22 1.07 C0.29 0.85, 0.26 0.45, 0.5 0.23 C0.74 0.01, 1.57 -0.18, 1.67 -0.24 C1.78 -0.3, 1.14 -0.24, 1.14 -0.13 M1.29 -0.17 C1.43 -0.22, 1.39 0.23, 1.66 0.43 C1.93 0.62, 2.84 0.89, 2.93 1.01 C3.01 1.12, 2.34 0.93, 2.2 1.11 C2.05 1.29, 2.28 1.95, 2.07 2.09 C1.85 2.23, 1.24 1.94, 0.9 1.96 C0.55 1.98, 0.19 2.28, 0.01 2.2 C-0.16 2.12, -0.17 1.81, -0.17 1.49 C-0.17 1.17, -0.13 0.48, 0.01 0.29 C0.16 0.1, 0.53 0.38, 0.71 0.36 C0.9 0.34, 1.11 0.14, 1.13 0.18" stroke="none" stroke-width="0" fill="#ffffff"></path><path d="M1.4 -0.09 C1.65 -0.15, 1.6 0.15, 1.74 0.31 C1.88 0.47, 2.14 0.61, 2.25 0.87 C2.35 1.12, 2.43 1.59, 2.35 1.84 C2.27 2.1, 2.01 2.32, 1.78 2.39 C1.55 2.46, 1.26 2.42, 0.96 2.26 C0.66 2.1, 0.1 1.64, -0.01 1.43 C-0.12 1.23, 0.26 1.26, 0.29 1.02 C0.32 0.78, -0.01 0.18, 0.18 0.01 C0.36 -0.16, 1.19 -0.06, 1.38 0 C1.58 0.05, 1.36 0.34, 1.35 0.34 M1.24 0.08 C1.58 0.05, 2.14 0.33, 2.28 0.45 C2.42 0.57, 1.99 0.54, 2.08 0.8 C2.16 1.05, 2.92 1.71, 2.79 2 C2.66 2.29, 1.68 2.48, 1.3 2.52 C0.92 2.55, 0.63 2.27, 0.5 2.22 C0.37 2.17, 0.63 2.5, 0.5 2.22 C0.37 1.94, -0.21 0.79, -0.28 0.54 C-0.35 0.3, -0.17 0.77, 0.08 0.76 C0.34 0.75, 1.06 0.65, 1.25 0.48 C1.43 0.31, 1.15 -0.14, 1.19 -0.26" stroke="#ffffff" stroke-width="1" fill="none"></path></g><g stroke-linecap="round"><g transform="translate(391.0016868446837 228.1646749517319) rotate(0 4.092245149110312 0.19451988240345486)"><path d="M-0.02 -0.3 C0.87 -0.8, 4.75 -3.25, 5.19 -2.93 C5.63 -2.62, 2.13 1.46, 2.64 1.61 C3.15 1.75, 7.83 -2.39, 8.25 -2.07 C8.68 -1.76, 5.66 2.55, 5.19 3.5 M-0.46 0.31 C0.43 -0.29, 4.62 -3.72, 5.09 -3.47 C5.56 -3.22, 1.82 1.56, 2.37 1.83 C2.91 2.09, 7.96 -2.18, 8.36 -1.88 C8.75 -1.58, 5.32 2.75, 4.74 3.61" stroke="#f783ac" stroke-width="1" fill="none"></path></g></g><mask></mask><g stroke-linecap="round"><g transform="translate(105.61248817443507 157.10309290498378) rotate(0 28.64687273245673 0.300572076792605)" fill-rule="evenodd"><path d="M0.74 -2.3 C1.13 -5.28, -3.26 -16.58, 1.29 -20.18 C5.83 -23.78, 20.08 -24.6, 27.99 -23.92 C35.89 -23.24, 43.79 -19.85, 48.73 -16.11 C53.68 -12.37, 58.03 -7.22, 57.68 -1.48 C57.33 4.26, 51.06 14.38, 46.62 18.34 C42.19 22.31, 37.88 21.5, 31.08 22.31 C24.28 23.12, 10.85 26.52, 5.82 23.19 C0.78 19.86, 1.52 5.88, 0.85 2.32" stroke="none" stroke-width="0" fill="#ffec99" fill-rule="evenodd"></path><path d="M0 1.01 C0.4 -2.46, -2.11 -17.21, 2.89 -21.2 C7.88 -25.2, 22.6 -23.76, 29.98 -22.95 C37.37 -22.14, 42.6 -20.16, 47.18 -16.34 C51.75 -12.52, 57.44 -5.29, 57.44 -0.02 C57.44 5.25, 51.98 11.32, 47.17 15.29 C42.36 19.26, 35.73 22.94, 28.56 23.81 C21.39 24.67, 8.87 24.5, 4.13 20.47 C-0.62 16.44, 0.71 3.15, 0.08 -0.37 M-1.46 0.5 C-1.3 -2.85, -3.55 -16.56, 1.65 -20.29 C6.85 -24.01, 22.08 -22.67, 29.76 -21.86 C37.43 -21.06, 43.32 -19.26, 47.7 -15.48 C52.09 -11.69, 55.94 -4.62, 56.04 0.86 C56.15 6.34, 52.9 13.73, 48.33 17.4 C43.77 21.06, 36.19 22.4, 28.68 22.82 C21.16 23.25, 8.29 23.46, 3.26 19.94 C-1.78 16.42, -1.22 5.27, -1.55 1.71" stroke="#1e1e1e" stroke-width="2" fill="none"></path></g></g><mask></mask><g stroke-linecap="round" transform="translate(144.3233013384972 147.4399246490516) rotate(0 3.9343963317697614 3.299905294824242)"><path d="M3.65 0.12 C4.39 0.08, 5.13 0.4, 5.79 0.73 C6.44 1.07, 7.31 1.46, 7.59 2.15 C7.86 2.84, 7.83 4.14, 7.46 4.86 C7.08 5.58, 6.1 6.17, 5.36 6.49 C4.61 6.8, 3.73 6.89, 2.98 6.74 C2.22 6.58, 1.35 6.18, 0.85 5.55 C0.35 4.93, -0.02 3.68, 0 2.97 C0.02 2.25, 0.42 1.82, 0.97 1.27 C1.52 0.72, 2.85 -0.09, 3.33 -0.32 C3.8 -0.55, 3.8 -0.27, 3.82 -0.12 M4.37 -0.46 C5.1 -0.44, 5.74 0.21, 6.3 0.8 C6.86 1.38, 7.65 2.39, 7.75 3.05 C7.84 3.7, 7.22 4.13, 6.85 4.73 C6.48 5.32, 6.32 6.3, 5.53 6.62 C4.74 6.93, 2.95 6.82, 2.1 6.62 C1.26 6.42, 0.79 6.06, 0.48 5.42 C0.18 4.78, 0.19 3.59, 0.3 2.76 C0.41 1.94, 0.5 0.89, 1.14 0.47 C1.77 0.05, 3.58 0.35, 4.11 0.25 C4.64 0.15, 4.36 -0.16, 4.32 -0.12" stroke="none" stroke-width="0" fill="#1e1e1e"></path><path d="M4.41 0.08 C5.22 0.18, 6.01 0.87, 6.56 1.34 C7.1 1.8, 7.64 2.17, 7.68 2.89 C7.73 3.6, 7.32 5.07, 6.84 5.65 C6.37 6.22, 5.6 6.21, 4.83 6.36 C4.06 6.5, 2.96 6.84, 2.22 6.51 C1.48 6.18, 0.68 5.12, 0.39 4.39 C0.1 3.65, 0.23 2.77, 0.49 2.12 C0.75 1.46, 1.25 0.8, 1.95 0.45 C2.65 0.1, 4.27 0.14, 4.68 0.03 C5.1 -0.07, 4.53 -0.22, 4.45 -0.18 M4.11 0.47 C4.8 0.5, 5.48 0.85, 6.08 1.19 C6.69 1.53, 7.62 1.89, 7.75 2.5 C7.87 3.11, 7.19 4.22, 6.85 4.85 C6.5 5.48, 6.38 6.05, 5.68 6.29 C4.98 6.53, 3.52 6.45, 2.66 6.27 C1.81 6.1, 1.08 5.8, 0.57 5.26 C0.06 4.72, -0.58 3.8, -0.38 3.04 C-0.19 2.28, 0.98 1.13, 1.72 0.7 C2.46 0.27, 3.76 0.61, 4.08 0.47 C4.41 0.33, 3.65 -0.08, 3.68 -0.15" stroke="#1e1e1e" stroke-width="1" fill="none"></path></g><g stroke-linecap="round" transform="translate(147.84878575355 148.6253779652543) rotate(0 1.2537444617403253 1.1049951188219609)"><path d="M0.78 0.19 C0.99 0.1, 1.55 -0.17, 1.82 -0.04 C2.08 0.1, 2.32 0.72, 2.37 1.03 C2.41 1.33, 2.17 1.55, 2.08 1.77 C1.98 1.98, 1.95 2.2, 1.78 2.32 C1.61 2.43, 1.31 2.59, 1.05 2.47 C0.79 2.36, 0.44 1.84, 0.24 1.64 C0.05 1.44, -0.08 1.56, -0.11 1.29 C-0.14 1.02, -0.15 0.26, 0.07 0.02 C0.3 -0.23, 1.09 -0.22, 1.24 -0.18 C1.39 -0.14, 0.98 0.18, 0.96 0.26 M0.93 0.02 C1.1 0.11, 1.71 0.4, 1.88 0.49 C2.05 0.58, 1.84 0.35, 1.97 0.56 C2.1 0.77, 2.78 1.46, 2.67 1.76 C2.57 2.05, 1.64 2.17, 1.35 2.32 C1.05 2.47, 1.07 2.75, 0.93 2.66 C0.78 2.58, 0.69 2.13, 0.48 1.81 C0.28 1.49, -0.28 0.95, -0.28 0.74 C-0.28 0.54, 0.2 0.75, 0.5 0.59 C0.79 0.44, 1.39 -0.12, 1.48 -0.18 C1.58 -0.25, 1.14 0.14, 1.07 0.2" stroke="none" stroke-width="0" fill="#ffffff"></path><path d="M0.89 0.23 C1.13 0.15, 1.61 -0.24, 1.84 -0.08 C2.08 0.07, 2.2 0.92, 2.3 1.18 C2.41 1.43, 2.53 1.24, 2.46 1.45 C2.39 1.66, 2.12 2.34, 1.87 2.43 C1.63 2.53, 1.21 2.17, 0.98 2.02 C0.74 1.87, 0.63 1.73, 0.49 1.54 C0.34 1.36, 0.09 1.12, 0.1 0.91 C0.1 0.7, 0.37 0.48, 0.53 0.28 C0.68 0.07, 0.98 -0.24, 1.05 -0.3 C1.12 -0.37, 0.89 -0.2, 0.92 -0.11 M0.81 0.38 C1.04 0.24, 1.78 -0.09, 1.98 -0.03 C2.19 0.03, 1.89 0.5, 2.03 0.76 C2.17 1.02, 2.84 1.31, 2.81 1.53 C2.78 1.74, 2.15 1.87, 1.83 2.04 C1.51 2.2, 1.26 2.51, 0.91 2.51 C0.55 2.51, -0.18 2.3, -0.29 2.03 C-0.39 1.76, 0.14 1.1, 0.28 0.88 C0.41 0.67, 0.41 0.91, 0.52 0.73 C0.63 0.55, 0.76 -0.05, 0.92 -0.21 C1.08 -0.38, 1.41 -0.36, 1.48 -0.26" stroke="#ffffff" stroke-width="1" fill="none"></path></g><g stroke-linecap="round"><g transform="translate(143.7167180358011 162.12081866975223) rotate(0 4.092245149110312 0.19451988240345486)"><path d="M-0.08 -0.1 C0.69 -0.61, 4.37 -3.74, 4.88 -3.44 C5.39 -3.13, 2.49 1.5, 2.98 1.74 C3.48 1.98, 7.42 -2.31, 7.85 -2 C8.27 -1.69, 6.02 2.65, 5.55 3.6 M0.53 -0.45 C1.22 -0.9, 4.24 -3.57, 4.63 -3.16 C5.02 -2.75, 2.37 1.8, 2.89 2.03 C3.41 2.26, 7.35 -2.07, 7.75 -1.78 C8.15 -1.49, 5.68 2.9, 5.28 3.77" stroke="#f783ac" stroke-width="1" fill="none"></path></g></g><mask></mask><g stroke-linecap="round"><g transform="translate(264.70368117452097 59.54250077443959) rotate(0 19.818658288138806 1.750993377418581)" fill-rule="evenodd"><path d="M-1.36 1.7 C-1.52 0.24, -0.88 -4.28, -2.42 -6.71 C-3.97 -9.15, -9.88 -11.33, -10.63 -12.92 C-11.39 -14.51, -12.4 -14.95, -6.94 -16.27 C-1.47 -17.59, 14.94 -20.76, 22.17 -20.82 C29.39 -20.89, 32.4 -20.1, 36.39 -16.68 C40.39 -13.26, 45.55 -5.65, 46.11 -0.32 C46.67 5.02, 44.17 11.55, 39.77 15.32 C35.36 19.1, 26.39 21.1, 19.7 22.34 C13.01 23.58, 3.86 23.81, -0.4 22.78 C-4.66 21.75, -5.55 18.65, -5.87 16.17 C-6.18 13.69, -3.18 10.89, -2.31 7.89 C-1.44 4.9, -0.75 -0.16, -0.67 -1.8" stroke="none" stroke-width="0" fill="#ffec99" fill-rule="evenodd"></path><path d="M-0.95 -0.3 C-1.36 -1.47, -1.21 -4.61, -2.48 -6.64 C-3.74 -8.68, -8.1 -10.37, -8.53 -12.52 C-8.96 -14.67, -9.99 -18.01, -5.08 -19.56 C-0.16 -21.1, 13.85 -22.47, 20.97 -21.8 C28.09 -21.12, 32.91 -19.25, 37.64 -15.49 C42.36 -11.73, 49.18 -4.63, 49.33 0.77 C49.47 6.17, 43.39 13.1, 38.5 16.91 C33.6 20.72, 26.61 22.59, 19.97 23.61 C13.32 24.64, 3.17 24.12, -1.39 23.07 C-5.96 22.01, -7.46 19.52, -7.43 17.29 C-7.4 15.06, -2.46 12.56, -1.22 9.68 C0.01 6.81, -0.04 1.52, -0.03 0.05 M0.76 -1.51 C0.27 -2.56, -1.29 -3.82, -2.93 -5.43 C-4.58 -7.05, -8.83 -8.93, -9.12 -11.19 C-9.41 -13.44, -9.52 -17.2, -4.68 -18.97 C0.16 -20.74, 12.65 -22.71, 19.92 -21.79 C27.19 -20.87, 34.46 -16.98, 38.93 -13.43 C43.4 -9.87, 47.01 -5.37, 46.74 -0.44 C46.46 4.48, 41.48 11.83, 37.28 16.14 C33.07 20.45, 28.38 24.29, 21.53 25.39 C14.68 26.49, 0.91 23.97, -3.83 22.72 C-8.57 21.47, -7.17 20.09, -6.92 17.88 C-6.68 15.67, -3.56 12.55, -2.37 9.45 C-1.19 6.34, -0.41 0.64, 0.18 -0.75" stroke="#1e1e1e" stroke-width="2" fill="none"></path></g></g><mask></mask><g stroke-linecap="round"><g transform="translate(249.6522935225441 46.857655388538376) rotate(0 4.933477498309202 14.42093422582687)"><path d="M0.43 -0.28 C1.55 0.95, 4.72 4.74, 6.31 7.27 C7.91 9.8, 9.9 12.37, 9.99 14.9 C10.08 17.43, 8.26 20.19, 6.86 22.43 C5.46 24.68, 2.38 27.27, 1.58 28.35 M-0.01 0.76 C1.09 2.1, 4.34 5.56, 5.96 7.97 C7.58 10.39, 9.51 12.8, 9.71 15.27 C9.91 17.73, 8.64 20.59, 7.16 22.76 C5.69 24.93, 1.85 27.32, 0.86 28.28" stroke="#1e1e1e" stroke-width="2" fill="none"></path></g></g><mask></mask><g stroke-linecap="round" transform="translate(292.5084283757567 50.45139648301296) rotate(0 3.9343963317697614 3.299905294824242)"><path d="M4.37 -0.15 C5.17 -0.2, 5.75 0.37, 6.3 0.85 C6.85 1.33, 7.49 2.04, 7.67 2.74 C7.85 3.45, 7.87 4.42, 7.38 5.07 C6.9 5.72, 5.57 6.45, 4.76 6.67 C3.94 6.88, 3.18 6.67, 2.5 6.36 C1.82 6.06, 1.11 5.43, 0.69 4.82 C0.28 4.22, -0.16 3.42, 0.01 2.72 C0.18 2.02, 1.03 1.06, 1.72 0.61 C2.42 0.15, 3.76 0.04, 4.17 -0.03 C4.59 -0.09, 4.19 0.16, 4.22 0.2 M3.32 -0.07 C3.97 -0.19, 4.98 -0.18, 5.77 0.24 C6.55 0.65, 7.73 1.64, 8.03 2.41 C8.32 3.19, 7.93 4.32, 7.54 4.9 C7.16 5.47, 6.45 5.6, 5.75 5.86 C5.04 6.11, 4.09 6.45, 3.3 6.42 C2.51 6.39, 1.63 6.17, 1.01 5.67 C0.39 5.17, -0.49 4.26, -0.44 3.41 C-0.39 2.56, 0.66 1.07, 1.32 0.56 C1.98 0.05, 3.2 0.43, 3.51 0.35 C3.81 0.28, 3.11 0.15, 3.16 0.11" stroke="none" stroke-width="0" fill="#1e1e1e"></path><path d="M3.88 -0.06 C4.68 -0.08, 5.61 0.61, 6.28 1.08 C6.95 1.55, 7.78 2.12, 7.9 2.75 C8.03 3.37, 7.54 4.18, 7.04 4.83 C6.53 5.49, 5.63 6.41, 4.87 6.68 C4.12 6.95, 3.27 6.74, 2.5 6.45 C1.73 6.17, 0.63 5.62, 0.25 4.98 C-0.14 4.34, -0.03 3.36, 0.19 2.59 C0.4 1.83, 0.83 0.83, 1.54 0.37 C2.24 -0.1, 3.91 -0.11, 4.41 -0.19 C4.9 -0.26, 4.53 -0.22, 4.53 -0.11 M3.43 0.47 C4.35 0.42, 6.05 0.45, 6.73 0.72 C7.4 1, 7.44 1.46, 7.47 2.11 C7.51 2.77, 7.25 4.02, 6.94 4.65 C6.63 5.27, 6.37 5.63, 5.64 5.85 C4.9 6.08, 3.32 6.13, 2.55 6 C1.77 5.86, 1.36 5.65, 1 5.06 C0.65 4.48, 0.4 3.25, 0.42 2.5 C0.45 1.75, 0.62 1.06, 1.15 0.58 C1.68 0.1, 3.24 -0.21, 3.61 -0.36 C3.99 -0.52, 3.35 -0.5, 3.38 -0.33" stroke="#1e1e1e" stroke-width="1" fill="none"></path></g><g stroke-linecap="round" transform="translate(296.0339127908095 51.636849799215724) rotate(0 1.2537444617403253 1.1049951188219609)"><path d="M1.07 -0.05 C1.26 -0.04, 1.73 0, 1.99 0.17 C2.26 0.34, 2.67 0.7, 2.67 1 C2.66 1.3, 2.12 1.77, 1.96 1.97 C1.79 2.17, 1.83 2.19, 1.67 2.21 C1.5 2.24, 1.24 2.22, 0.97 2.13 C0.69 2.05, 0.14 1.96, 0.01 1.72 C-0.12 1.49, 0.1 1.01, 0.19 0.74 C0.27 0.48, 0.32 0.25, 0.51 0.15 C0.71 0.04, 1.18 0.17, 1.36 0.13 C1.54 0.08, 1.61 -0.17, 1.58 -0.12 M0.75 -0.34 C1.1 -0.36, 1.99 -0.04, 2.28 0.2 C2.57 0.43, 2.46 0.89, 2.5 1.05 C2.54 1.21, 2.57 0.99, 2.51 1.16 C2.45 1.32, 2.35 1.79, 2.13 2.03 C1.91 2.28, 1.6 2.62, 1.2 2.63 C0.81 2.64, -0.06 2.45, -0.23 2.11 C-0.4 1.77, 0.1 0.82, 0.19 0.58 C0.28 0.33, 0.23 0.75, 0.32 0.66 C0.41 0.57, 0.57 0.18, 0.74 0.03 C0.92 -0.12, 1.38 -0.25, 1.38 -0.23" stroke="none" stroke-width="0" fill="#ffffff"></path><path d="M1.1 0.23 C1.4 0.24, 2.04 0.14, 2.23 0.24 C2.43 0.34, 2.32 0.52, 2.28 0.81 C2.24 1.1, 2.11 1.75, 2 2 C1.89 2.24, 1.85 2.24, 1.6 2.28 C1.35 2.32, 0.72 2.36, 0.49 2.23 C0.26 2.11, 0.28 1.83, 0.2 1.54 C0.13 1.25, -0.04 0.73, 0.06 0.47 C0.16 0.21, 0.53 0.1, 0.8 -0.01 C1.07 -0.11, 1.55 -0.2, 1.69 -0.18 C1.83 -0.15, 1.72 0.16, 1.65 0.17 M1.63 0.05 C1.89 -0.13, 1.68 -0.33, 1.74 -0.22 C1.8 -0.11, 1.86 0.49, 1.99 0.72 C2.13 0.95, 2.62 0.98, 2.54 1.14 C2.46 1.3, 1.71 1.51, 1.49 1.68 C1.27 1.84, 1.39 2.2, 1.23 2.13 C1.08 2.07, 0.8 1.55, 0.58 1.3 C0.35 1.05, -0.06 0.88, -0.1 0.65 C-0.15 0.42, 0.13 0.08, 0.29 -0.09 C0.45 -0.27, 0.69 -0.47, 0.85 -0.4 C1.02 -0.33, 1.23 0.31, 1.28 0.35" stroke="#ffffff" stroke-width="1" fill="none"></path></g><g stroke-linecap="round"><g transform="translate(291.9018450730606 65.13229050371353) rotate(0 4.092245149110312 0.19451988240345486)"><path d="M0.24 -0.22 C1.02 -0.74, 4.32 -3.79, 4.77 -3.42 C5.23 -3.04, 2.43 1.79, 2.98 2.01 C3.53 2.24, 7.74 -2.25, 8.08 -2.06 C8.41 -1.86, 5.42 2.27, 4.99 3.21 M-0.07 0.44 C0.65 -0.02, 3.97 -3.46, 4.46 -3.13 C4.95 -2.79, 2.27 2.23, 2.88 2.44 C3.48 2.65, 7.65 -1.98, 8.09 -1.85 C8.53 -1.73, 6.03 2.32, 5.51 3.18" stroke="#f783ac" stroke-width="1" fill="none"></path></g></g><mask></mask><g stroke-linecap="round"><g transform="translate(95.47083897558173 44.7281571429329) rotate(0 -33.361509607860626 0)"><path d="M-1.15 0.73 C-12.36 0.77, -56.09 -0.54, -66.87 -0.6 M0.45 0.07 C-10.96 0.33, -56.8 0.93, -67.9 0.63" stroke="#846358" stroke-width="1" fill="none"></path></g></g><mask></mask><g stroke-linecap="round"><g transform="translate(94.38987151119758 64.91351786593236) rotate(0 -32.24250258767097 0)"><path d="M-0.35 0.03 C-11.39 -0.01, -54.69 -1.05, -65.28 -1.12 M1.66 -0.99 C-9.07 -0.86, -51.99 -0.46, -62.99 -0.17" stroke="#846358" stroke-width="1" fill="none"></path></g></g><mask></mask><g stroke-linecap="round"><g transform="translate(98.27544103150441 148.11413833063267) rotate(0 -10.702680827955291 -51.102890439786535)"><path d="M1.17 1.08 C-1.95 0.82, -14.75 1.21, -18.32 -2.25 C-21.88 -5.7, -19.76 -3.11, -20.21 -19.66 C-20.66 -36.21, -20.77 -87.69, -21.01 -101.57 M0.32 0.6 C-2.47 0.6, -12.62 2.93, -16.16 -0.76 C-19.69 -4.46, -20.17 -4.41, -20.9 -21.58 C-21.64 -38.75, -20.78 -90.23, -20.56 -103.8" stroke="#846358" stroke-width="1" fill="none"></path></g></g><mask></mask><g stroke-linecap="round"><g transform="translate(97.19447356712024 168.29949905363213) rotate(0 -21.110132375684657 -50.81362879578771)"><path d="M-1.05 -0.1 C-7.16 -0.94, -28.72 0.97, -35.52 -3.98 C-42.32 -8.93, -40.69 -13.4, -41.83 -29.8 C-42.97 -46.2, -42.48 -90.6, -42.36 -102.38 M0.6 -1.2 C-5.76 -1.86, -29.23 -0.58, -36.39 -5.68 C-43.56 -10.78, -41.41 -15.81, -42.39 -31.8 C-43.36 -47.8, -42.3 -89.79, -42.24 -101.67" stroke="#846358" stroke-width="1" fill="none"></path></g></g><mask></mask><g stroke-linecap="round"><g transform="translate(244.3238236505712 53.14678554614787) rotate(0 -39.05032193983686 -0.3856821919983844)"><path d="M-0.06 0.42 C-13.12 0.46, -65.66 0.46, -78.77 0.39 M-1.56 -0.4 C-14.18 -0.68, -63.37 -0.87, -76.42 -1.13" stroke="#846358" stroke-width="1" fill="none"></path></g></g><mask></mask><g stroke-linecap="round"><g transform="translate(243.94150263926755 73.75414549380929) rotate(0 -106.73754663555411 18.787889404426863)"><path d="M0.25 0.35 C-6.73 0.81, -33.09 -3.86, -41.13 2.32 C-49.16 8.49, -38.33 31.55, -47.97 37.38 C-57.6 43.2, -73.9 37.04, -98.94 37.27 C-123.97 37.5, -179.19 38.93, -198.18 38.78 C-217.17 38.62, -210.38 36.82, -212.89 36.32 M-1.08 -0.52 C-7.73 0.18, -31.33 -2.26, -38.76 3.77 C-46.19 9.79, -35.72 29.85, -45.66 35.64 C-55.6 41.43, -73.26 38.44, -98.4 38.52 C-123.53 38.6, -177.07 36.69, -196.47 36.14 C-215.87 35.58, -212.17 34.94, -214.82 35.21" stroke="#846358" stroke-width="1" fill="none"></path></g></g><mask></mask><g stroke-linecap="round"><g transform="translate(244.7158315259787 140.89385006927648) rotate(0 -10.316998635956878 -42.61788221582199)"><path d="M-0.98 0.31 C-3.82 0.09, -13.25 3.66, -16.49 -0.52 C-19.73 -4.7, -19.75 -10.81, -20.41 -24.77 C-21.07 -38.74, -20.5 -74.12, -20.46 -84.32 M0.7 -0.57 C-2.37 -1.24, -13.95 1.85, -17.64 -2.5 C-21.32 -6.85, -20.99 -12.66, -21.4 -26.65 C-21.82 -40.63, -20.12 -76.5, -20.12 -86.4" stroke="#846358" stroke-width="1" fill="none"></path></g></g><mask></mask><g stroke-linecap="round"><g transform="translate(245.28802913056725 159.20938834570478) rotate(0 -22.85166987590452 -25.165763027894798)"><path d="M-0.72 -0.56 C-7.25 -1.12, -32.99 2.41, -40.32 -2.66 C-47.66 -7.74, -43.93 -23.21, -44.71 -31 C-45.5 -38.78, -44.68 -46.35, -45.04 -49.39 M1.1 1.76 C-4.96 0.78, -30.9 0.74, -38.14 -4.5 C-45.38 -9.74, -41.27 -21.86, -42.32 -29.69 C-43.37 -37.51, -43.95 -47.74, -44.45 -51.46" stroke="#846358" stroke-width="1" fill="none"></path></g></g><mask></mask><g stroke-linecap="round"><g transform="translate(345.8194632387641 229.28844453417395) rotate(0 -89.89288169158553 -35.47432346836317)"><path d="M0.5 0.12 C-11.67 -0.22, -45.81 -1.09, -72.05 -2.22 C-98.3 -3.34, -141.91 3.18, -156.97 -6.65 C-172.03 -16.47, -158.77 -50.58, -162.39 -61.16 C-166.01 -71.74, -175.98 -68.54, -178.69 -70.13 M-0.69 -0.87 C-13.01 -1.03, -46.79 -0.17, -72.45 -0.99 C-98.11 -1.81, -139.2 4.63, -154.65 -5.77 C-170.11 -16.17, -161.02 -52.79, -165.18 -63.38 C-169.33 -73.97, -177.07 -67.94, -179.59 -69.31" stroke="#846358" stroke-width="1" fill="none"></path></g></g><mask></mask><g stroke-linecap="round"><g transform="translate(349.14792639294876 213.57880729992655) rotate(0 -16.184484703010668 -31.367480176463516)"><path d="M-0.33 -0.35 C-3.53 -1.29, -15.49 2.2, -18.72 -6.69 C-21.94 -15.58, -17.54 -44.43, -19.69 -53.69 C-21.85 -62.95, -29.54 -60.61, -31.65 -62.26 M1.7 -1.58 C-1.64 -2.8, -15.64 -0.07, -19.32 -8.59 C-23 -17.12, -18.45 -44.02, -20.4 -52.74 C-22.35 -61.46, -28.79 -59.09, -31.03 -60.91" stroke="#846358" stroke-width="1" fill="none"></path></g></g><mask></mask><g stroke-linecap="round"><g transform="translate(319.1857611270998 58.963984431024755) rotate(0 7.480798602171518 -0.21172071515582047)"><path d="M0.08 -0.52 C2.56 -0.57, 12.5 -0.46, 15.06 -0.36 M-0.54 0.41 C1.86 0.46, 12.04 0.57, 14.67 0.38" stroke="#846358" stroke-width="1" fill="none"></path></g></g><mask></mask><g stroke-linecap="round"><g transform="translate(414.82452099307 217.35314758382287) rotate(0 7.480798602171518 -0.21172071515582047)"><path d="M-0.23 0.23 C2.42 0.12, 13.03 -0.67, 15.51 -0.8 M0.65 -0.13 C3.32 -0.16, 13.11 -0.31, 15.36 -0.29" stroke="#846358" stroke-width="1" fill="none"></path></g></g><mask></mask><g stroke-linecap="round" transform="translate(10 35.16648241835952) rotate(0 7.36475468747355 6.695231534066863)"><path d="M7.98 0.49 C9.47 0.47, 10.95 1.04, 12.09 1.91 C13.23 2.79, 14.64 4.38, 14.83 5.74 C15.02 7.1, 14.08 8.8, 13.22 10.09 C12.37 11.37, 11.15 12.97, 9.72 13.45 C8.29 13.94, 6.09 13.49, 4.65 12.98 C3.21 12.47, 1.78 11.68, 1.06 10.41 C0.34 9.14, 0 6.94, 0.31 5.37 C0.62 3.81, 1.76 1.86, 2.92 1.04 C4.08 0.21, 6.51 0.54, 7.29 0.44 C8.07 0.34, 7.63 0.47, 7.62 0.43 M4.98 -0.49 C6.5 -0.85, 8.94 0.06, 10.57 0.78 C12.2 1.49, 14.13 2.45, 14.76 3.8 C15.4 5.16, 14.9 7.54, 14.39 8.9 C13.88 10.26, 13.12 11.11, 11.72 11.96 C10.32 12.81, 7.58 14.16, 6.01 13.98 C4.45 13.81, 3.26 12.09, 2.33 10.92 C1.4 9.74, 0.53 8.25, 0.45 6.94 C0.37 5.62, 1.05 4.17, 1.83 3.03 C2.61 1.89, 4.6 0.57, 5.13 0.1 C5.66 -0.37, 4.94 0.04, 5.01 0.22" stroke="#2f9e44" stroke-width="4" fill="none"></path></g><g stroke-linecap="round" transform="translate(10.334761576703329 58.59979278759357) rotate(0 7.36475468747355 6.695231534066863)"><path d="M6 -0.03 C7.39 -0.55, 9.44 -0.5, 10.72 0.25 C12.01 0.99, 13.14 3.06, 13.74 4.42 C14.34 5.79, 14.66 7.08, 14.31 8.43 C13.95 9.79, 12.9 11.67, 11.6 12.56 C10.3 13.45, 8 13.89, 6.49 13.77 C4.98 13.64, 3.69 12.97, 2.56 11.82 C1.44 10.66, 0 8.27, -0.26 6.83 C-0.52 5.38, -0.02 4.33, 1 3.14 C2.02 1.94, 4.93 0.18, 5.85 -0.34 C6.78 -0.85, 6.61 -0.16, 6.55 0.06 M7.86 -0.37 C9.45 -0.43, 11.58 0.98, 12.63 1.98 C13.67 2.99, 14.05 4.35, 14.14 5.67 C14.24 6.98, 14.02 8.8, 13.21 9.9 C12.39 11, 10.61 11.87, 9.25 12.26 C7.89 12.65, 6.53 12.63, 5.08 12.22 C3.62 11.81, 1.24 10.99, 0.52 9.8 C-0.2 8.61, 0.43 6.44, 0.76 5.08 C1.09 3.72, 1.34 2.39, 2.51 1.62 C3.68 0.84, 6.83 0.67, 7.76 0.45 C8.69 0.24, 8.2 0.27, 8.09 0.34" stroke="#2f9e44" stroke-width="4" fill="none"></path></g><g stroke-linecap="round" transform="translate(10.669523153406686 103.12308248913826) rotate(0 7.36475468747355 6.695231534066863)"><path d="M9.15 0.37 C10.54 0.65, 12.24 1.97, 13.19 3.08 C14.13 4.19, 14.8 5.75, 14.8 7.06 C14.79 8.36, 14.28 9.86, 13.15 10.93 C12.02 12.01, 9.6 13.27, 8.04 13.5 C6.47 13.73, 5.02 13.1, 3.76 12.33 C2.5 11.55, 1.03 10.26, 0.46 8.87 C-0.11 7.48, -0.31 5.33, 0.33 3.96 C0.98 2.59, 2.75 1.31, 4.32 0.65 C5.89 0, 8.92 0.05, 9.75 0.02 C10.57 -0.01, 9.4 0.3, 9.28 0.48 M8.46 0.45 C9.95 0.51, 12.28 0.89, 13.41 1.94 C14.54 2.99, 15.24 5.28, 15.24 6.74 C15.25 8.21, 14.46 9.64, 13.44 10.75 C12.41 11.85, 10.64 13, 9.09 13.37 C7.54 13.74, 5.67 13.63, 4.14 12.97 C2.61 12.31, 0.59 10.84, -0.07 9.39 C-0.73 7.94, -0.46 5.7, 0.18 4.26 C0.83 2.82, 2.36 1.46, 3.78 0.75 C5.2 0.05, 8.04 0.08, 8.72 0.03 C9.4 -0.01, 7.9 0.38, 7.85 0.47" stroke="#2f9e44" stroke-width="4" fill="none"></path></g><g stroke-linecap="round" transform="translate(339.07062989938663 52.90884598363675) rotate(0 7.36475468747355 6.695231534066863)"><path d="M8.27 0.29 C9.77 0.25, 11.75 0.9, 12.84 1.83 C13.93 2.76, 14.67 4.43, 14.82 5.87 C14.98 7.31, 14.76 9.18, 13.75 10.48 C12.74 11.77, 10.29 13.23, 8.78 13.65 C7.28 14.07, 6.11 13.61, 4.73 13 C3.34 12.39, 1.23 11.4, 0.47 9.99 C-0.29 8.59, -0.22 6.05, 0.16 4.56 C0.54 3.08, 1.37 1.83, 2.75 1.08 C4.14 0.33, 7.53 0.21, 8.49 0.07 C9.45 -0.08, 8.48 0.16, 8.5 0.21 M8.6 -0.53 C9.87 -0.27, 11.49 1.28, 12.47 2.63 C13.45 3.99, 14.34 6.16, 14.46 7.59 C14.59 9.02, 14.13 10.14, 13.23 11.2 C12.32 12.26, 10.76 13.76, 9.03 13.97 C7.31 14.18, 4.21 13.26, 2.88 12.48 C1.54 11.69, 1.51 10.66, 1.05 9.26 C0.58 7.87, -0.35 5.46, 0.07 4.13 C0.49 2.8, 2.2 2, 3.58 1.27 C4.97 0.54, 7.4 -0.02, 8.39 -0.24 C9.37 -0.46, 9.44 -0.14, 9.48 -0.05" stroke="#f08c00" stroke-width="4" fill="none"></path></g><g stroke-linecap="round" transform="translate(433.8081561064329 209.24250230409814) rotate(0 7.364754687473521 6.695231534066863)"><path d="M6.17 -0.3 C7.74 -0.52, 10.34 0.58, 11.66 1.41 C12.98 2.23, 13.6 3.29, 14.08 4.65 C14.55 6, 15.09 8.11, 14.51 9.52 C13.93 10.92, 11.99 12.39, 10.6 13.08 C9.21 13.76, 7.74 14.01, 6.17 13.63 C4.59 13.26, 2.15 12.09, 1.17 10.82 C0.2 9.56, 0.21 7.47, 0.31 6.04 C0.41 4.61, 0.69 3.21, 1.76 2.24 C2.83 1.27, 5.86 0.55, 6.76 0.24 C7.65 -0.08, 7.12 0.32, 7.13 0.36 M7.81 0.07 C9.53 -0.21, 11.57 0.28, 12.73 1.13 C13.88 1.98, 14.67 3.58, 14.74 5.18 C14.81 6.78, 14.01 9.51, 13.14 10.71 C12.27 11.92, 10.87 11.93, 9.52 12.43 C8.16 12.93, 6.36 14.07, 5.01 13.73 C3.66 13.4, 2.15 11.84, 1.42 10.42 C0.69 8.99, 0.42 6.58, 0.63 5.2 C0.83 3.82, 1.51 2.89, 2.66 2.12 C3.8 1.34, 6.79 0.91, 7.49 0.56 C8.18 0.21, 6.73 0.11, 6.82 0.02" stroke="#f08c00" stroke-width="4" fill="none"></path></g><g stroke-opacity="0.3" fill-opacity="0.3" transform="translate(16.517417240841127 209.96446014821504) rotate(0 63.55992889404297 12.5)"><text x="0" y="0" font-family="Virgil, Segoe UI Emoji" font-size="20px" fill="#f08c00" text-anchor="start" style="white-space: pre;" direction="ltr" dominant-baseline="text-before-edge">@hemashushu</text></g></svg>