<svg version="1.1" xmlns="http://www.w3.org/2000/svg" viewBox="0 0 829.8895367835723 824.1684238895339" width="1659.7790735671447" height="1648.3368477790677">
  <!-- svg-source:excalidraw -->
  
  <defs>
    <style class="style-fonts">
      @font-face {
        font-family: "Virgil";
        src: url("https://excalidraw.com/Virgil.woff2");
      }
      @font-face {
        font-family: "Cascadia";
        src: url("https://excalidraw.com/Cascadia.woff2");
      }
      @font-face {
        font-family: "Assistant";
        src: url("https://excalidraw.com/Assistant-Regular.woff2");
      }
    </style>
    
  </defs>
  <g stroke-linecap="round" transform="translate(527.2002680983794 570.0777419779238) rotate(0 140.84463434259646 89.63757875170896)"><path d="M32 0 C117.41 0.78, 197.08 3.65, 249.69 0 C271.23 -1.88, 279.27 9.29, 281.69 32 C283.4 81.14, 284.35 121.79, 281.69 147.28 C281.1 171.32, 268.63 182.77, 249.69 179.28 C180.65 178.87, 107.3 184.18, 32 179.28 C11.86 178.55, 0.11 171.92, 0 147.28 C-2.28 105.26, 3.21 59.39, 0 32 C-3.1 13.83, 10.93 2.13, 32 0" stroke="none" stroke-width="0" fill="#228be633"></path><path d="M32 0 C98.36 -1.25, 162.69 0.62, 249.69 0 M32 0 C78.48 1.04, 125.22 0.3, 249.69 0 M249.69 0 C269.52 -1.33, 279.81 11.36, 281.69 32 M249.69 0 C272.51 0.66, 283.71 9.64, 281.69 32 M281.69 32 C283.12 71.94, 283.13 109.26, 281.69 147.28 M281.69 32 C281.49 70.92, 281.08 111.6, 281.69 147.28 M281.69 147.28 C279.82 169.08, 272.93 178.78, 249.69 179.28 M281.69 147.28 C283 167.73, 269.74 178.08, 249.69 179.28 M249.69 179.28 C194.49 177.67, 137.72 179.15, 32 179.28 M249.69 179.28 C202.8 179.52, 157.18 179.09, 32 179.28 M32 179.28 C10.35 181.01, -1.31 169.31, 0 147.28 M32 179.28 C9.9 180.29, 1.3 167.36, 0 147.28 M0 147.28 C-1.49 101.09, -0.87 56.22, 0 32 M0 147.28 C0.64 117.39, 1.01 88.23, 0 32 M0 32 C1.89 11, 10.8 -1.46, 32 0 M0 32 C-1.33 10.39, 11.96 0.99, 32 0" stroke="#1864ab" stroke-width="1" fill="none"></path></g><g stroke-linecap="round" transform="translate(243.93557193062492 63.755317723243635) rotate(0 163.59227609567256 74.12617912346195)"><path d="M32 0 C117.35 -2.05, 205.58 -3.88, 295.18 0 C317.41 -2.28, 328.34 13.54, 327.18 32 C324.58 53.82, 326.07 74.97, 327.18 116.25 C325.6 136.25, 314.56 149, 295.18 148.25 C226.77 145.88, 164.09 147.3, 32 148.25 C13.32 148.46, 0.67 139.21, 0 116.25 C1.93 84.84, 1.6 59.77, 0 32 C1.87 11.9, 12.86 -0.59, 32 0" stroke="none" stroke-width="0" fill="#ced4da55"></path><path d="M32 0 C128.13 -0.48, 228.27 -1.05, 295.18 0 M32 0 C133.29 0.91, 234.27 1.14, 295.18 0 M295.18 0 C316.49 -0.65, 326.88 12.2, 327.18 32 M295.18 0 C316.72 1.95, 325.6 8.7, 327.18 32 M327.18 32 C327.66 62.61, 325.46 92.23, 327.18 116.25 M327.18 32 C325.91 54.4, 326.11 75.51, 327.18 116.25 M327.18 116.25 C328.22 137.16, 318.46 149.28, 295.18 148.25 M327.18 116.25 C328.59 139.28, 316.77 147.03, 295.18 148.25 M295.18 148.25 C204.88 146.93, 116.76 147.72, 32 148.25 M295.18 148.25 C228.3 148.37, 161.84 147.88, 32 148.25 M32 148.25 C9.32 149.84, 0.13 138.29, 0 116.25 M32 148.25 C8.91 150.02, -1.12 137.31, 0 116.25 M0 116.25 C-0.07 93, 1.07 71.86, 0 32 M0 116.25 C0.03 93.36, 0.75 70.78, 0 32 M0 32 C1.77 9.76, 8.67 1.69, 32 0 M0 32 C1.26 12.7, 10.99 -1.38, 32 0" stroke="#495057" stroke-width="1" fill="none"></path></g><g stroke-opacity="0.5" fill-opacity="0.5" transform="translate(319.74241884255997 490.96834965092387) rotate(0 88.984375 16.80000000000001)"><text x="0" y="0" font-family="Virgil, Segoe UI Emoji" font-size="28px" fill="#e67700" text-anchor="start" style="white-space: pre;" direction="ltr" dominant-baseline="text-before-edge">@hemashushu</text></g><g transform="translate(272.8826621503311 83.9661125510659) rotate(0 140.625 57.599999999999994)"><text x="0" y="0" font-family="Cascadia, Segoe UI Emoji" font-size="16px" fill="#495057" text-anchor="start" style="white-space: pre;" direction="ltr" dominant-baseline="text-before-edge">#include &lt;stdio.h&gt;</text><text x="0" y="19.2" font-family="Cascadia, Segoe UI Emoji" font-size="16px" fill="#495057" text-anchor="start" style="white-space: pre;" direction="ltr" dominant-baseline="text-before-edge"></text><text x="0" y="38.4" font-family="Cascadia, Segoe UI Emoji" font-size="16px" fill="#495057" text-anchor="start" style="white-space: pre;" direction="ltr" dominant-baseline="text-before-edge">int main(void) {</text><text x="0" y="57.599999999999994" font-family="Cascadia, Segoe UI Emoji" font-size="16px" fill="#495057" text-anchor="start" style="white-space: pre;" direction="ltr" dominant-baseline="text-before-edge">    printf("Hello, World!\n");</text><text x="0" y="76.8" font-family="Cascadia, Segoe UI Emoji" font-size="16px" fill="#495057" text-anchor="start" style="white-space: pre;" direction="ltr" dominant-baseline="text-before-edge">    return 0;</text><text x="0" y="96" font-family="Cascadia, Segoe UI Emoji" font-size="16px" fill="#495057" text-anchor="start" style="white-space: pre;" direction="ltr" dominant-baseline="text-before-edge">}</text></g><g transform="translate(312.66351351615754 10) rotate(0 84.32237243652344 16.799999999999997)"><text x="0" y="0" font-family="Virgil, Segoe UI Emoji" font-size="28px" fill="#495057" text-anchor="start" style="white-space: pre;" direction="ltr" dominant-baseline="text-before-edge">Source Code</text></g><g stroke-linecap="round" transform="translate(10 363.51524413009577) rotate(0 139.5 53)"><path d="M26.5 0 C98.65 2.36, 166.83 0.79, 252.5 0 C272.56 2.54, 278.32 8.08, 279 26.5 C277.46 38.96, 276.67 56.28, 279 79.5 C279.92 95.63, 268.7 102.65, 252.5 106 C202.5 105.31, 153.27 105.96, 26.5 106 C7.08 106.02, -2.59 100.75, 0 79.5 C1.06 64.83, 2.04 53.62, 0 26.5 C3.06 6.64, 12.31 -1.55, 26.5 0" stroke="none" stroke-width="0" fill="#82c91e33"></path><path d="M26.5 0 C110.73 2.06, 194.51 0.79, 252.5 0 M26.5 0 C101.84 -1.87, 178.06 -1.22, 252.5 0 M252.5 0 C268.55 -0.02, 280.65 9.18, 279 26.5 M252.5 0 C272.38 -2.13, 278.23 6.95, 279 26.5 M279 26.5 C277.14 44.56, 280.47 64.23, 279 79.5 M279 26.5 C280.36 39.23, 279.93 50.32, 279 79.5 M279 79.5 C280.85 97.16, 269.76 107.47, 252.5 106 M279 79.5 C280.78 95.02, 269.91 106.93, 252.5 106 M252.5 106 C193.93 107.74, 138.05 108.39, 26.5 106 M252.5 106 C164.25 107.23, 76.04 106.52, 26.5 106 M26.5 106 C7.9 106.71, -1.03 96.86, 0 79.5 M26.5 106 C10.47 104.14, 1.83 97.57, 0 79.5 M0 79.5 C-1.3 62.01, -1.6 42.91, 0 26.5 M0 79.5 C0.36 63.75, -0.59 50.48, 0 26.5 M0 26.5 C-0.53 10.8, 8.58 -0.4, 26.5 0 M0 26.5 C-1.76 8.71, 9.95 -2.3, 26.5 0" stroke="#5c940d" stroke-width="1" fill="none"></path></g><g transform="translate(82.76172637939453 399.71524413009575) rotate(0 66.73827362060547 16.80000000000001)"><text x="66.73827362060547" y="0" font-family="Virgil, Segoe UI Emoji" font-size="28px" fill="#5c940d" text-anchor="middle" style="white-space: pre;" direction="ltr" dominant-baseline="text-before-edge">gcc main.c</text></g><g stroke-linecap="round" transform="translate(10 577.7864683524111) rotate(0 141.70705559088756 85.96442618861082)"><path d="M32 0 C104.13 2.71, 176.72 -1.02, 251.41 0 C273.35 -2.99, 280.47 8.17, 283.41 32 C281.61 60.74, 279.53 86, 283.41 139.93 C285.68 163.88, 270.32 170.55, 251.41 171.93 C174.4 168.53, 104.75 166.82, 32 171.93 C13.31 168.96, 2.32 158.17, 0 139.93 C0.81 116.93, -2.17 85.18, 0 32 C2.52 13.41, 11.27 0.56, 32 0" stroke="none" stroke-width="0" fill="#82c91e33"></path><path d="M32 0 C96.19 0.41, 156.14 2, 251.41 0 M32 0 C103.49 -0.46, 175.17 -0.72, 251.41 0 M251.41 0 C274.25 1.67, 281.92 8.84, 283.41 32 M251.41 0 C272.94 -1.64, 282.84 9.2, 283.41 32 M283.41 32 C283.13 73.79, 284.02 115.88, 283.41 139.93 M283.41 32 C283.86 56.47, 284.04 82.13, 283.41 139.93 M283.41 139.93 C283.43 161.32, 272.03 172.93, 251.41 171.93 M283.41 139.93 C281.64 159.29, 272.54 171.62, 251.41 171.93 M251.41 171.93 C201.26 171.19, 153.42 172.19, 32 171.93 M251.41 171.93 C184.22 169.63, 117.58 169.52, 32 171.93 M32 171.93 C10.96 170.45, 0.55 162.59, 0 139.93 M32 171.93 C10.55 172.02, 0.81 163.19, 0 139.93 M0 139.93 C0.16 114.58, 1.48 88.08, 0 32 M0 139.93 C-0.34 111.83, 0.99 83.97, 0 32 M0 32 C1.81 12.41, 9.59 -1.61, 32 0 M0 32 C2.11 10.79, 10.55 0, 32 0" stroke="#5c940d" stroke-width="1" fill="none"></path></g><g transform="translate(595.8117060263946 591.1301002248476) rotate(0 79.6875 67.20000000000002)"><text x="0" y="0" font-family="Cascadia, Segoe UI Emoji" font-size="16px" fill="#495057" text-anchor="start" style="white-space: pre;" direction="ltr" dominant-baseline="text-before-edge">addi    sp,sp,-16</text><text x="0" y="19.2" font-family="Cascadia, Segoe UI Emoji" font-size="16px" fill="#495057" text-anchor="start" style="white-space: pre;" direction="ltr" dominant-baseline="text-before-edge">sd      ra,8(sp)</text><text x="0" y="38.4" font-family="Cascadia, Segoe UI Emoji" font-size="16px" fill="#495057" text-anchor="start" style="white-space: pre;" direction="ltr" dominant-baseline="text-before-edge">sd      s0,0(sp)</text><text x="0" y="57.599999999999994" font-family="Cascadia, Segoe UI Emoji" font-size="16px" fill="#495057" text-anchor="start" style="white-space: pre;" direction="ltr" dominant-baseline="text-before-edge">addi    s0,sp,16</text><text x="0" y="76.8" font-family="Cascadia, Segoe UI Emoji" font-size="16px" fill="#495057" text-anchor="start" style="white-space: pre;" direction="ltr" dominant-baseline="text-before-edge">auipc   a0,0x0</text><text x="0" y="96" font-family="Cascadia, Segoe UI Emoji" font-size="16px" fill="#495057" text-anchor="start" style="white-space: pre;" direction="ltr" dominant-baseline="text-before-edge">addi    a0,a0,32 </text><text x="0" y="115.19999999999999" font-family="Cascadia, Segoe UI Emoji" font-size="16px" fill="#495057" text-anchor="start" style="white-space: pre;" direction="ltr" dominant-baseline="text-before-edge">jal     ra,5a0</text></g><g stroke-linecap="round" transform="translate(524.8895367835723 356.8065177556084) rotate(0 147.5 53)"><path d="M26.5 0 C114 2.5, 198.17 2.91, 268.5 0 C287.7 3.37, 295.85 11.26, 295 26.5 C295.83 41.16, 297.21 52.05, 295 79.5 C291.83 96.7, 285.38 106.64, 268.5 106 C188.46 102.83, 103.07 107.83, 26.5 106 C11.29 105.08, -0.9 95.79, 0 79.5 C2.33 63.01, 0.68 52.51, 0 26.5 C-0.6 11.27, 5.6 0.68, 26.5 0" stroke="none" stroke-width="0" fill="#82c91e33"></path><path d="M26.5 0 C95.97 -0.07, 163.03 -0.87, 268.5 0 M26.5 0 C114.46 -0.39, 203.81 -0.14, 268.5 0 M268.5 0 C287.73 0.75, 293.99 10.44, 295 26.5 M268.5 0 C285.37 0.42, 295 10.58, 295 26.5 M295 26.5 C294.7 35.58, 293.44 49.78, 295 79.5 M295 26.5 C294.46 38.02, 294.67 50.29, 295 79.5 M295 79.5 C295.26 97.39, 287.44 105.02, 268.5 106 M295 79.5 C296.36 95.23, 286.33 107.93, 268.5 106 M268.5 106 C204.72 107.83, 139.14 106.84, 26.5 106 M268.5 106 C190.72 107.23, 110.99 107.93, 26.5 106 M26.5 106 C6.96 107.79, -1.65 98.03, 0 79.5 M26.5 106 C7.5 105.49, 1.85 96.5, 0 79.5 M0 79.5 C-2.15 66.18, -1.31 54.12, 0 26.5 M0 79.5 C0.38 62.67, -0.62 43.91, 0 26.5 M0 26.5 C-0.42 7.77, 10.74 0.64, 26.5 0 M0 26.5 C1.92 10.25, 10.95 -1, 26.5 0" stroke="#5c940d" stroke-width="1" fill="none"></path></g><g transform="translate(541.2696789954864 397.8065177556084) rotate(0 131.11985778808594 12)"><text x="131.11985778808594" y="0" font-family="Virgil, Segoe UI Emoji" font-size="20px" fill="#5c940d" text-anchor="middle" style="white-space: pre;" direction="ltr" dominant-baseline="text-before-edge">riscv64-linux-gnu-gcc main.c</text></g><g transform="translate(52.6503533066043 620.5468846603825) rotate(0 107.8125 47.99999999999997)"><text x="0" y="0" font-family="Cascadia, Segoe UI Emoji" font-size="16px" fill="#495057" text-anchor="start" style="white-space: pre;" direction="ltr" dominant-baseline="text-before-edge">push   %rbp</text><text x="0" y="19.2" font-family="Cascadia, Segoe UI Emoji" font-size="16px" fill="#495057" text-anchor="start" style="white-space: pre;" direction="ltr" dominant-baseline="text-before-edge">mov    %rsp,%rbp</text><text x="0" y="38.4" font-family="Cascadia, Segoe UI Emoji" font-size="16px" fill="#495057" text-anchor="start" style="white-space: pre;" direction="ltr" dominant-baseline="text-before-edge">lea    0xec0(%rip),%rax</text><text x="0" y="57.599999999999994" font-family="Cascadia, Segoe UI Emoji" font-size="16px" fill="#495057" text-anchor="start" style="white-space: pre;" direction="ltr" dominant-baseline="text-before-edge">mov    %rax,%rdi</text><text x="0" y="76.8" font-family="Cascadia, Segoe UI Emoji" font-size="16px" fill="#495057" text-anchor="start" style="white-space: pre;" direction="ltr" dominant-baseline="text-before-edge">call   1030</text></g><g transform="translate(19.407383090630162 316.80915032891363) rotate(0 138.7825927734375 16.799999999999997)"><text x="0" y="0" font-family="Virgil, Segoe UI Emoji" font-size="28px" fill="#495057" text-anchor="start" style="white-space: pre;" direction="ltr" dominant-baseline="text-before-edge">Compiler on X86_64</text></g><g transform="translate(534.2268298130068 313.268900704131) rotate(0 138.7825927734375 16.799999999999997)"><text x="0" y="0" font-family="Virgil, Segoe UI Emoji" font-size="28px" fill="#495057" text-anchor="start" style="white-space: pre;" direction="ltr" dominant-baseline="text-before-edge">Compiler on X86_64</text></g><g transform="translate(54.64926673662188 542.9743621109558) rotate(0 105.7698974609375 12)"><text x="0" y="0" font-family="Virgil, Segoe UI Emoji" font-size="20px" fill="#495057" text-anchor="start" style="white-space: pre;" direction="ltr" dominant-baseline="text-before-edge">X86_64 Instructions</text></g><g transform="translate(550.2039188630224 533.5545499247141) rotate(0 121.50987243652344 12)"><text x="0" y="0" font-family="Virgil, Segoe UI Emoji" font-size="20px" fill="#495057" text-anchor="start" style="white-space: pre;" direction="ltr" dominant-baseline="text-before-edge"> RISC-V 64 Instructions</text></g><g stroke-linecap="round"><g transform="translate(252.03588174183065 218.50207865947692) rotate(0 -34.480992132877745 43.375687117999604)"><path d="M0.02 -2.5 C-10.74 12.56, -54.92 74.08, -66.7 88.65 M-3.41 2.32 C-14.16 16.74, -57.49 70.55, -67.72 84.68" stroke="#495057" stroke-width="1" fill="none"></path></g><g transform="translate(252.03588174183065 218.50207865947692) rotate(0 -34.480992132877745 43.375687117999604)"><path d="M-61.96 62.45 C-60.66 64.98, -65.01 70.15, -69.17 84.54 M-59.29 60.18 C-62.65 69.73, -65.77 77.75, -68.68 84.76" stroke="#495057" stroke-width="1" fill="none"></path></g><g transform="translate(252.03588174183065 218.50207865947692) rotate(0 -34.480992132877745 43.375687117999604)"><path d="M-48.4 72.88 C-50.09 73.05, -57.5 75.88, -69.17 84.54 M-45.74 70.6 C-53.83 76.52, -61.61 80.96, -68.68 84.76" stroke="#495057" stroke-width="1" fill="none"></path></g></g><mask></mask><g stroke-linecap="round"><g transform="translate(565.6765891888623 216.45257807772018) rotate(0 35.54908404974762 41.61889262801249)"><path d="M2.04 -0.58 C13.31 13.07, 58.03 68.67, 69.98 82.45 M-0.3 -3.37 C10.28 10.65, 54.86 70.99, 67.13 85.66" stroke="#495057" stroke-width="1" fill="none"></path></g><g transform="translate(565.6765891888623 216.45257807772018) rotate(0 35.54908404974762 41.61889262801249)"><path d="M45.53 71.59 C53.55 79.21, 61.44 81.42, 68.24 86.2 M45.05 73.2 C51.32 74.76, 54.76 77.65, 66.41 85.59" stroke="#495057" stroke-width="1" fill="none"></path></g><g transform="translate(565.6765891888623 216.45257807772018) rotate(0 35.54908404974762 41.61889262801249)"><path d="M59.01 61.08 C61.87 72.82, 64.59 79.08, 68.24 86.2 M58.54 62.68 C61.7 66.61, 62.11 71.87, 66.41 85.59" stroke="#495057" stroke-width="1" fill="none"></path></g></g><mask></mask><g stroke-linecap="round"><g transform="translate(145.04314603430754 481.09722510080394) rotate(0 0 23.95802619437032)"><path d="M-0.8 -0.06 C-0.58 7.64, 0.63 39.43, 0.87 47.23 M0.99 -1.13 C1.17 7.22, 0.51 40.31, 0.38 48.41" stroke="#495057" stroke-width="1" fill="none"></path></g><g transform="translate(145.04314603430754 481.09722510080394) rotate(0 0 23.95802619437032)"><path d="M-7.52 27.21 C-6.32 32.85, -5.05 37.88, 1.86 48.61 M-7.86 24.94 C-4.19 34.56, -1.5 44.04, 1.24 48.82" stroke="#495057" stroke-width="1" fill="none"></path></g><g transform="translate(145.04314603430754 481.09722510080394) rotate(0 0 23.95802619437032)"><path d="M8.87 27.49 C5.76 32.95, 2.72 37.91, 1.86 48.61 M8.52 25.23 C5.94 34.73, 2.36 44.1, 1.24 48.82" stroke="#495057" stroke-width="1" fill="none"></path></g></g><mask></mask><g stroke-linecap="round"><g transform="translate(663.0925079480812 471.9072928635474) rotate(0 0 23.229976410042923)"><path d="M-1.17 -0.74 C-1.18 7.1, -0.91 38.53, -0.61 46.6 M0.42 1.49 C0.86 9.58, 1.82 40.8, 1.79 48.21" stroke="#495057" stroke-width="1" fill="none"></path></g><g transform="translate(663.0925079480812 471.9072928635474) rotate(0 0 23.229976410042923)"><path d="M-7.76 25.5 C-4.28 33.19, -0.42 39.01, -0.08 48.97 M-6.05 26.83 C-5.14 30.75, -2.2 37.43, 0.96 49.08" stroke="#495057" stroke-width="1" fill="none"></path></g><g transform="translate(663.0925079480812 471.9072928635474) rotate(0 0 23.229976410042923)"><path d="M8.13 25.24 C7.6 32.83, 7.44 38.72, -0.08 48.97 M9.83 26.56 C7.07 30.66, 6.33 37.4, 0.96 49.08" stroke="#495057" stroke-width="1" fill="none"></path></g></g><mask></mask><g transform="translate(24.145588647486022 780.4778185774608) rotate(0 125.2025146484375 16.80000000000001)"><text x="0" y="0" font-family="Virgil, Segoe UI Emoji" font-size="28px" fill="#495057" text-anchor="start" style="white-space: pre;" direction="ltr" dominant-baseline="text-before-edge">Native Compilation</text></g><g transform="translate(551.0608430116729 780.5684238895337) rotate(0 118.88848876953125 16.80000000000001)"><text x="0" y="0" font-family="Virgil, Segoe UI Emoji" font-size="28px" fill="#495057" text-anchor="start" style="white-space: pre;" direction="ltr" dominant-baseline="text-before-edge">Cross Compilation</text></g></svg>