<svg version="1.1" xmlns="http://www.w3.org/2000/svg" viewBox="0 0 753.4803709111112 417.25" width="1506.9607418222224" height="834.5">
  <!-- svg-source:excalidraw -->
  
  <defs>
    <style class="style-fonts">
      @font-face {
        font-family: "Virgil";
        src: url("https://excalidraw.com/Virgil.woff2");
      }
      @font-face {
        font-family: "Cascadia";
        src: url("https://excalidraw.com/Cascadia.woff2");
      }
      @font-face {
        font-family: "Assistant";
        src: url("https://excalidraw.com/Assistant-Regular.woff2");
      }
    </style>
    
  </defs>
  <g stroke-linecap="round" transform="translate(545.6335203969068 32.125) rotate(0 76.25 26.75)"><path d="M13.38 0 C42.08 4.78, 69.28 0.52, 139.13 0 M13.38 0 C58.3 -2.95, 103.69 -0.34, 139.13 0 M139.13 0 C145.59 -0.54, 155.22 0.74, 152.5 13.38 M139.13 0 C143.91 -4.4, 154.59 7.67, 152.5 13.38 M152.5 13.38 C150.07 27.1, 150.39 34.86, 152.5 40.13 M152.5 13.38 C151.58 24.51, 153.67 33.66, 152.5 40.13 M152.5 40.13 C151.91 51.43, 146.42 54.58, 139.13 53.5 M152.5 40.13 C150.47 49.34, 147.67 54.6, 139.13 53.5 M139.13 53.5 C111.01 58.87, 82.78 55.6, 13.38 53.5 M139.13 53.5 C111.99 51.58, 84 53.96, 13.38 53.5 M13.38 53.5 C2.83 54.65, 2.58 49.07, 0 40.13 M13.38 53.5 C7.01 51.51, 2.57 53.1, 0 40.13 M0 40.13 C1.91 31.28, -3.15 20.06, 0 13.38 M0 40.13 C-0.63 32.68, 0.31 22.48, 0 13.38 M0 13.38 C1.13 4.26, 5.55 2, 13.38 0 M0 13.38 C3.94 6.36, -0.05 -1.98, 13.38 0" stroke="#e67700" stroke-width="2" fill="none"></path></g><g transform="translate(569.6335203969068 46.125) rotate(0 54 12.5)"><text x="0" y="0" font-family="Virgil, Segoe UI Emoji" font-size="20px" fill="#e67700" text-anchor="start" style="white-space: pre;" direction="ltr" dominant-baseline="text-before-edge">Compilation</text></g><g stroke-linecap="round" transform="translate(254.13352039690676 170.875) rotate(0 88 20.75)"><path d="M10.37 0 C49.01 1.27, 95.29 3.73, 165.63 0 M10.37 0 C62.51 -3.62, 108.99 -3.84, 165.63 0 M165.63 0 C174.76 2.01, 173.56 2.92, 176 10.37 M165.63 0 C169.81 -2.21, 175.82 7.49, 176 10.37 M176 10.37 C176.42 16.67, 172.09 29.41, 176 31.12 M176 10.37 C176.36 15.47, 177.84 21.86, 176 31.12 M176 31.12 C178.43 36.95, 169.15 45.11, 165.63 41.5 M176 31.12 C174.5 38.88, 172.13 41.61, 165.63 41.5 M165.63 41.5 C118.64 42, 80.36 44.3, 10.37 41.5 M165.63 41.5 C110.72 40.66, 54.33 39.5, 10.37 41.5 M10.37 41.5 C6.64 44.73, -3.4 34.54, 0 31.12 M10.37 41.5 C4.76 43.8, 1.27 37.89, 0 31.12 M0 31.12 C-0.14 22.99, -1.06 14.2, 0 10.37 M0 31.12 C1.64 22.36, -0.4 14.43, 0 10.37 M0 10.37 C-3.39 2.27, 6.31 1, 10.37 0 M0 10.37 C2.34 2.49, 3.18 2.12, 10.37 0" stroke="#1864ab" stroke-width="2" fill="none"></path></g><g transform="translate(299.63352039690676 178.375) rotate(0 30.5 12.5)"><text x="0" y="0" font-family="Virgil, Segoe UI Emoji" font-size="20px" fill="#1864ab" text-anchor="start" style="white-space: pre;" direction="ltr" dominant-baseline="text-before-edge">Linking</text></g><g stroke-linecap="round"><g transform="translate(708.812059392556 57.97125567725675) rotate(0 17.089710105268637 63.12190844786295)"><path d="M-0.05 -2.19 C5.41 8.94, 33.98 43.8, 34.66 65.27 C35.33 86.75, 9.06 116.78, 3.99 126.66 M-3.52 2.8 C1.44 14.37, 31.56 46.7, 32.68 67.9 C33.8 89.1, 7.66 120.28, 3.2 130" stroke="#e67700" stroke-width="1" fill="none"></path></g><g transform="translate(708.812059392556 57.97125567725675) rotate(0 17.089710105268637 63.12190844786295)"><path d="M6.82 105.88 C5.04 115.85, 4.75 124.97, 1.97 128.36 M7.77 104.79 C6.49 112.83, 5.77 121.1, 2.44 130.66" stroke="#e67700" stroke-width="1" fill="none"></path></g><g transform="translate(708.812059392556 57.97125567725675) rotate(0 17.089710105268637 63.12190844786295)"><path d="M21.33 114.94 C14.27 121.58, 8.66 127.38, 1.97 128.36 M22.27 113.84 C16.68 119, 11.58 124.53, 2.44 130.66" stroke="#e67700" stroke-width="1" fill="none"></path></g></g><mask></mask><g stroke-linecap="round"><g transform="translate(438.7056062864773 55.13786976406482) rotate(0 49.11503067484665 1.7918819242455584)"><path d="M-0.37 1.53 C15.89 2.16, 80.98 1.17, 97.46 1.62 M-4.01 -0.1 C11.82 1.03, 78 2.89, 94.8 4.18" stroke="#d9480f" stroke-width="1" fill="none"></path></g><g transform="translate(438.7056062864773 55.13786976406482) rotate(0 49.11503067484665 1.7918819242455584)"><path d="M72.01 11 C76.65 9.59, 85.57 5.99, 95.9 5.54 M70.67 11.19 C78.82 9.57, 86.18 7.47, 94.31 4.74" stroke="#d9480f" stroke-width="1" fill="none"></path></g><g transform="translate(438.7056062864773 55.13786976406482) rotate(0 49.11503067484665 1.7918819242455584)"><path d="M72.86 -6.08 C77.11 -2.43, 85.79 -0.97, 95.9 5.54 M71.52 -5.89 C79.49 -2.06, 86.58 1.31, 94.31 4.74" stroke="#d9480f" stroke-width="1" fill="none"></path></g></g><mask></mask><g stroke-linecap="round" transform="translate(251.75852039690676 35.25) rotate(0 88 26.75)"><path d="M13.38 0 C47.34 -2.52, 85.52 3.49, 162.63 0 M13.38 0 C63.5 -0.1, 118.01 0.67, 162.63 0 M162.63 0 C169.88 -0.24, 172.87 7.6, 176 13.38 M162.63 0 C172.05 -0.9, 173.5 1.66, 176 13.38 M176 13.38 C174.98 21.18, 175.59 33.77, 176 40.13 M176 13.38 C174.04 21.79, 174.7 26.89, 176 40.13 M176 40.13 C177.78 48.99, 173.22 49.82, 162.63 53.5 M176 40.13 C171.86 45.46, 171.66 54.6, 162.63 53.5 M162.63 53.5 C128 48.54, 90.35 48.3, 13.38 53.5 M162.63 53.5 C114.87 55.98, 64.1 55.94, 13.38 53.5 M13.38 53.5 C0.52 54.62, 3.76 51.02, 0 40.13 M13.38 53.5 C6.22 52.84, -2.12 50.52, 0 40.13 M0 40.13 C4.09 27.55, 1.01 24.34, 0 13.38 M0 40.13 C-1.55 32.78, -0.39 30.77, 0 13.38 M0 13.38 C-1.39 2.12, 1.82 3.79, 13.38 0 M0 13.38 C0.75 6.86, 1.17 4.15, 13.38 0" stroke="#d9480f" stroke-width="2" fill="none"></path></g><g transform="translate(275.75852039690676 49.25) rotate(0 65.5 12.5)"><text x="0" y="0" font-family="Virgil, Segoe UI Emoji" font-size="20px" fill="#d9480f" text-anchor="start" style="white-space: pre;" direction="ltr" dominant-baseline="text-before-edge">Preprocessing</text></g><g stroke-linecap="round" transform="translate(543.2585203969068 167.75) rotate(0 77.37951807228916 21.5)"><path d="M10.75 0 C54.9 -1.55, 103.37 -1.57, 144.01 0 M10.75 0 C52.13 -1.43, 91.84 -1.01, 144.01 0 M144.01 0 C147.28 2.33, 152.3 5.59, 154.76 10.75 M144.01 0 C154.54 -0.95, 156.26 -0.27, 154.76 10.75 M154.76 10.75 C155.81 16.97, 158.88 19.31, 154.76 32.25 M154.76 10.75 C155.75 14.51, 154.09 20.48, 154.76 32.25 M154.76 32.25 C156.07 38.16, 147.28 43.01, 144.01 43 M154.76 32.25 C156.1 40.85, 152.35 43.73, 144.01 43 M144.01 43 C93.48 43.66, 40.82 41.68, 10.75 43 M144.01 43 C89.96 41.4, 38.66 44.03, 10.75 43 M10.75 43 C6.97 43.31, -1.7 42.6, 0 32.25 M10.75 43 C1.24 47.53, 1.3 36.45, 0 32.25 M0 32.25 C0.52 26.07, 3.95 20.04, 0 10.75 M0 32.25 C-2.17 24.43, 0.69 15.73, 0 10.75 M0 10.75 C-0.53 7.25, 1.91 2.95, 10.75 0 M0 10.75 C-1.37 2.73, 4.37 1.53, 10.75 0" stroke="#5c940d" stroke-width="2" fill="none"></path></g><g transform="translate(589.662134854738 175.06927710843377) rotate(0 42.5 12.5)"><text x="0" y="0" font-family="Virgil, Segoe UI Emoji" font-size="19.518072289156628px" fill="#5c940d" text-anchor="start" style="white-space: pre;" direction="ltr" dominant-baseline="text-before-edge">Assemble</text></g><g transform="translate(34.75852039690676 42) rotate(0 35 18)"><text x="0" y="0" font-family="Virgil, Segoe UI Emoji" font-size="28px" fill="#a61e4d" text-anchor="start" style="white-space: pre;" direction="ltr" dominant-baseline="text-before-edge">app.c</text></g><g stroke-linecap="round"><g transform="translate(158.69211496524906 59.06128526878126) rotate(0 44.53320271582885 0.016993893601068066)"><path d="M1.34 2.57 C16.12 2.54, 74.4 -1.95, 88.96 -2.12 M-1.37 1.49 C12.99 1.93, 71.99 1.11, 86.67 0.34" stroke="#a61e4d" stroke-width="1" fill="none"></path></g><g transform="translate(158.69211496524906 59.06128526878126) rotate(0 44.53320271582885 0.016993893601068066)"><path d="M65.27 9.51 C69.21 6.33, 79.09 3.16, 85.27 0.53 M64.12 9.78 C71.5 6.42, 78.22 3.14, 86.98 0.7" stroke="#a61e4d" stroke-width="1" fill="none"></path></g><g transform="translate(158.69211496524906 59.06128526878126) rotate(0 44.53320271582885 0.016993893601068066)"><path d="M64.77 -7.59 C68.74 -5.44, 78.78 -3.28, 85.27 0.53 M63.62 -7.32 C71.06 -5.17, 77.93 -2.95, 86.98 0.7" stroke="#a61e4d" stroke-width="1" fill="none"></path></g></g><mask></mask><g transform="translate(450.25852039690676 10) rotate(0 22.5 12.5)"><text x="0" y="0" font-family="Virgil, Segoe UI Emoji" font-size="20px" fill="#d9480f" text-anchor="start" style="white-space: pre;" direction="ltr" dominant-baseline="text-before-edge">app.i</text></g><g transform="translate(650.7585203969068 110) rotate(0 25.5 12.5)"><text x="0" y="0" font-family="Virgil, Segoe UI Emoji" font-size="20px" fill="#e67700" text-anchor="start" style="white-space: pre;" direction="ltr" dominant-baseline="text-before-edge">app.s</text></g><g transform="translate(454.75852039690676 147.5) rotate(0 26 12.5)"><text x="0" y="0" font-family="Virgil, Segoe UI Emoji" font-size="20px" fill="#5c940d" text-anchor="start" style="white-space: pre;" direction="ltr" dominant-baseline="text-before-edge">app.o</text></g><g stroke-linecap="round"><g transform="translate(243.89348972206017 196.58751604948634) rotate(0 -41.72163930234177 1.5424521880378563)"><path d="M0.77 -1.51 C-12.95 -1.2, -69.5 4.17, -83.58 4.59 M-2.26 3.84 C-16.25 4.53, -72 0.54, -85.89 0.4" stroke="#1864ab" stroke-width="1" fill="none"></path></g><g transform="translate(243.89348972206017 196.58751604948634) rotate(0 -41.72163930234177 1.5424521880378563)"><path d="M-63.13 -7.22 C-66.97 -5.31, -75.6 -1.89, -84.14 1.75 M-62.96 -7.02 C-71.98 -4.3, -81.79 -1.14, -85.25 1.27" stroke="#1864ab" stroke-width="1" fill="none"></path></g><g transform="translate(243.89348972206017 196.58751604948634) rotate(0 -41.72163930234177 1.5424521880378563)"><path d="M-63.87 9.87 C-67.69 7.42, -76.13 6.49, -84.14 1.75 M-63.7 10.07 C-72.28 5.99, -81.8 2.34, -85.25 1.27" stroke="#1864ab" stroke-width="1" fill="none"></path></g></g><mask></mask><g transform="translate(23.25852039690676 180.5) rotate(0 51.5 18)"><text x="0" y="0" font-family="Virgil, Segoe UI Emoji" font-size="28px" fill="#1864ab" text-anchor="start" style="white-space: pre;" direction="ltr" dominant-baseline="text-before-edge">app.out</text></g><g transform="translate(454.78261678244894 334.31927710843377) rotate(0 24.5 12.5)"><text x="0" y="0" font-family="Virgil, Segoe UI Emoji" font-size="19.518072289156628px" fill="#0b7285" text-anchor="start" style="white-space: pre;" direction="ltr" dominant-baseline="text-before-edge">libX.o</text></g><g stroke-linecap="round"><g transform="translate(502.4867467178277 264.3482700208001) rotate(0 -26.181597823037123 -23.77819404827727)"><path d="M-1.92 -2.34 C-3.28 -9.1, 1.04 -33.39, -7.42 -40.77 C-15.89 -48.15, -45.54 -45.35, -52.71 -46.62 M2.23 2.56 C0.57 -3.68, 0.67 -28.06, -8.81 -37.09 C-18.3 -46.12, -48.04 -50.12, -54.7 -51.65" stroke="#0b7285" stroke-width="1" fill="none"></path></g><g transform="translate(502.4867467178277 264.3482700208001) rotate(0 -26.181597823037123 -23.77819404827727)"><path d="M-34.7 -54.04 C-40.05 -54.4, -46.51 -51.61, -55.29 -50.05 M-32.51 -55.62 C-38.29 -53.96, -45.93 -53.49, -55.44 -51.21" stroke="#0b7285" stroke-width="1" fill="none"></path></g><g transform="translate(502.4867467178277 264.3482700208001) rotate(0 -26.181597823037123 -23.77819404827727)"><path d="M-37.52 -39.29 C-41.93 -44.45, -47.47 -46.47, -55.29 -50.05 M-35.32 -40.87 C-40.19 -43.29, -47.06 -46.9, -55.44 -51.21" stroke="#0b7285" stroke-width="1" fill="none"></path></g></g><mask></mask><g stroke-opacity="0.5" fill-opacity="0.5" transform="translate(231.515625 368.4365671641791) rotate(0 71.984375 14.156716417910445)"><text x="71.984375" y="0" font-family="Virgil, Segoe UI Emoji" font-size="22.650746268656714px" fill="#e67700" text-anchor="middle" style="white-space: pre;" direction="ltr" dominant-baseline="text-before-edge">@hemashushu</text></g><g transform="translate(452.5240963855422 294.56927710843377) rotate(0 46.5 12.5)"><text x="0" y="0" font-family="Virgil, Segoe UI Emoji" font-size="19.518072289156628px" fill="#0b7285" text-anchor="start" style="white-space: pre;" direction="ltr" dominant-baseline="text-before-edge">startup.o</text></g><g stroke-linecap="round"><g transform="translate(530.5 191.25) rotate(0 -43.5 0.25)"><path d="M0.03 -0.93 C-14.58 -1.08, -72.93 -0.5, -87.35 -0.46 M-1.42 1.2 C-16.23 1.12, -74.22 0.77, -88.48 0.57" stroke="#5c940d" stroke-width="1" fill="none"></path></g><g transform="translate(530.5 191.25) rotate(0 -43.5 0.25)"><path d="M-64.91 -7.76 C-74.01 -5.66, -81.65 -1.58, -88.48 0.57 M-64.91 -7.76 C-69.52 -5.56, -74.77 -4.07, -88.48 0.57" stroke="#5c940d" stroke-width="1" fill="none"></path></g><g transform="translate(530.5 191.25) rotate(0 -43.5 0.25)"><path d="M-65.07 9.34 C-74.19 5.94, -81.77 4.52, -88.48 0.57 M-65.07 9.34 C-69.48 8.1, -74.69 6.15, -88.48 0.57" stroke="#5c940d" stroke-width="1" fill="none"></path></g></g><mask></mask><g transform="translate(454.5 364.2499999999999) rotate(0 17 12.5)"><text x="0" y="0" font-family="Virgil, Segoe UI Emoji" font-size="19.518072289156628px" fill="#0b7285" text-anchor="start" style="white-space: pre;" direction="ltr" dominant-baseline="text-before-edge">......</text></g><g stroke-opacity="0.2" fill-opacity="0.2" stroke-linecap="round" transform="translate(412 277.75) rotate(0 85 64.75)"><path d="M32.37 0 C55.59 1.73, 78.35 -1.45, 137.62 0 C161.22 1.7, 166.93 8.87, 170 32.37 C169.1 59.27, 173.43 82.45, 170 97.12 C167.68 117.27, 158.47 130.98, 137.62 129.5 C101.74 126.26, 66.64 130.68, 32.37 129.5 C12.67 131.86, -0.45 117.41, 0 97.12 C-0.04 76.79, -3.77 53.93, 0 32.37 C-3.23 10.05, 13.76 -1.16, 32.37 0" stroke="none" stroke-width="0" fill="#15aabf"></path><path d="M32.37 0 C74.66 -0.38, 113.2 -0.04, 137.62 0 M137.62 0 C159.95 -1.07, 170.6 9.13, 170 32.37 M170 32.37 C171.43 50.03, 170.85 68.94, 170 97.12 M170 97.12 C168.89 119, 159.34 128.59, 137.62 129.5 M137.62 129.5 C100.65 131.8, 63.03 131.12, 32.37 129.5 M32.37 129.5 C10.45 127.94, 1.89 119.12, 0 97.12 M0 97.12 C-1.92 83.96, -1.95 72, 0 32.37 M0 32.37 C1.29 11.43, 11.01 0.81, 32.37 0" stroke="#0b7285" stroke-width="1.5" fill="none" stroke-dasharray="8 9"></path></g><g transform="translate(22 21.75) rotate(0 47.5 10)"><text x="47.5" y="0" font-family="Virgil, Segoe UI Emoji" font-size="16px" fill="#495057" text-anchor="middle" style="white-space: pre;" direction="ltr" dominant-baseline="text-before-edge">source code</text></g><g transform="translate(10 161.25) rotate(0 62 10)"><text x="62" y="0" font-family="Virgil, Segoe UI Emoji" font-size="16px" fill="#495057" text-anchor="middle" style="white-space: pre;" direction="ltr" dominant-baseline="text-before-edge">ELF executable</text></g></svg>