<svg version="1.1" xmlns="http://www.w3.org/2000/svg" viewBox="0 0 1036.020712495551 589.280663250629" width="2072.041424991102" height="1178.561326501258">
  <!-- svg-source:excalidraw -->
  
  <defs>
    <style class="style-fonts">
      @font-face {
        font-family: "Virgil";
        src: url("https://excalidraw.com/Virgil.woff2");
      }
      @font-face {
        font-family: "Cascadia";
        src: url("https://excalidraw.com/Cascadia.woff2");
      }
      @font-face {
        font-family: "Assistant";
        src: url("https://excalidraw.com/Assistant-Regular.woff2");
      }
    </style>
    
  </defs>
  <g stroke-linecap="round" transform="translate(94.63793904675452 87.70224251509742) rotate(0 269.8240880368966 85.14660342680432)"><path d="M32 0 C187.55 1.56, 341.9 0.24, 507.65 0 M507.65 0 C530.98 0.77, 539.04 12.34, 539.65 32 M539.65 32 C541.23 61.02, 541.31 91.7, 539.65 138.29 M539.65 138.29 C539.67 158.09, 530.3 168.76, 507.65 170.29 M507.65 170.29 C400.93 169.07, 294.16 168.35, 32 170.29 M32 170.29 C8.89 169.02, -0.32 160.13, 0 138.29 M0 138.29 C-0.87 111.17, 1.9 87.3, 0 32 M0 32 C-0.24 10.76, 8.92 0.01, 32 0" stroke="#495057" stroke-width="1.5" fill="none" stroke-dasharray="8 9"></path></g><g stroke-linecap="round" transform="translate(726.8176738548977 85.59619659231257) rotate(0 145.97988867689702 82.7415812925328)"><path d="M32 0 C92.49 0.05, 154.26 -3.17, 259.96 0 M259.96 0 C282.18 -0.55, 292.82 12.23, 291.96 32 M291.96 32 C293.91 57.23, 290.75 84.42, 291.96 133.48 M291.96 133.48 C292.47 156.39, 280.46 163.7, 259.96 165.48 M259.96 165.48 C172.06 166.11, 85.62 164.46, 32 165.48 M32 165.48 C9.93 166.99, -1.8 155.43, 0 133.48 M0 133.48 C0.25 112.45, 1.62 87.27, 0 32 M0 32 C-0.69 10.7, 10.45 -1.27, 32 0" stroke="#c92a2a" stroke-width="1.5" fill="none" stroke-dasharray="8 9"></path></g><g stroke-linecap="round" transform="translate(783.1232294104532 151.1621684558394) rotate(0 77 33.5)"><path d="M16.75 0 C45.02 2.78, 72.6 0, 137.25 0 C148.77 1.68, 152.14 3.27, 154 16.75 C153.19 27.74, 154.06 35.13, 154 50.25 C151.31 61.87, 146.77 64.99, 137.25 67 C104 63.29, 67.24 68.03, 16.75 67 C5.55 64.34, 3.01 58.81, 0 50.25 C3.67 40.98, 3.73 30.92, 0 16.75 C1.76 7.61, 8.84 1.33, 16.75 0" stroke="none" stroke-width="0" fill="#fab00533"></path><path d="M16.75 0 C64.19 -1.18, 107.75 2.45, 137.25 0 M16.75 0 C62.09 -1.48, 109.25 -1.69, 137.25 0 M137.25 0 C149.38 -0.01, 152.57 6.92, 154 16.75 M137.25 0 C149.43 1.04, 152.49 6.55, 154 16.75 M154 16.75 C156.28 22.56, 153.94 32.22, 154 50.25 M154 16.75 C154.73 26.49, 154.74 38.06, 154 50.25 M154 50.25 C154.62 61.63, 148.61 66.16, 137.25 67 M154 50.25 C156.21 63.45, 150.63 67.21, 137.25 67 M137.25 67 C111.53 69.52, 89.83 65.94, 16.75 67 M137.25 67 C106.67 65.53, 76.63 66.16, 16.75 67 M16.75 67 C6.48 67.88, 1.98 63.34, 0 50.25 M16.75 67 C5.15 68.79, 1.57 63.51, 0 50.25 M0 50.25 C0.47 41.45, -0.87 32.51, 0 16.75 M0 50.25 C-0.18 37.8, -0.45 27.23, 0 16.75 M0 16.75 C-1.13 7.07, 5.75 -1.21, 16.75 0 M0 16.75 C0.86 7.59, 7.51 -2.13, 16.75 0" stroke="#e67700" stroke-width="1" fill="none"></path></g><g transform="translate(803.5632852576211 172.6621684558394) rotate(0 56.55994415283203 12)"><text x="56.55994415283203" y="0" font-family="Virgil, Segoe UI Emoji" font-size="20px" fill="#e67700" text-anchor="middle" style="white-space: pre;" direction="ltr" dominant-baseline="text-before-edge">Linux kernel</text></g><g stroke-linecap="round" transform="translate(155.87215795079265 412.82044379878903) rotate(0 79.5 28.5)"><path d="M14.25 0 C55.45 -0.59, 101.08 -2.67, 144.75 0 C155.48 -0.22, 160.18 3.54, 159 14.25 C156.14 23.34, 156.13 23.86, 159 42.75 C156.68 48.95, 156.19 56.53, 144.75 57 C96.74 60.14, 51.65 56.96, 14.25 57 C4.75 58.32, -2.29 48.68, 0 42.75 C-2.33 33.25, -3.29 26.58, 0 14.25 C-1.97 1.57, 7.34 -1.8, 14.25 0" stroke="none" stroke-width="0" fill="#82c91e33"></path><path d="M14.25 0 C60.15 1.78, 105.55 -1.7, 144.75 0 M14.25 0 C64.9 0.75, 117.53 0.46, 144.75 0 M144.75 0 C152.3 -0.74, 159.08 5.05, 159 14.25 M144.75 0 C155.92 2.22, 158.35 5.5, 159 14.25 M159 14.25 C159.79 24.39, 160.54 37.11, 159 42.75 M159 14.25 C159.51 24.1, 159.22 33.49, 159 42.75 M159 42.75 C158.32 52.16, 153.74 58.16, 144.75 57 M159 42.75 C160.88 50.38, 152.42 57.42, 144.75 57 M144.75 57 C99.63 56.07, 56.16 58.73, 14.25 57 M144.75 57 C111.9 57.67, 78.36 56.26, 14.25 57 M14.25 57 C4.9 58.8, -0.14 53.03, 0 42.75 M14.25 57 C5.67 58.2, -1.27 54.33, 0 42.75 M0 42.75 C-1.23 35.42, -0.38 26.12, 0 14.25 M0 42.75 C1.21 33.93, 0.49 23.23, 0 14.25 M0 14.25 C1.85 3.42, 3.27 -0.93, 14.25 0 M0 14.25 C-1.21 4, 2.67 -0.81, 14.25 0" stroke="#5c940d" stroke-width="1" fill="none"></path></g><g transform="translate(193.30221166173015 429.32044379878903) rotate(0 42.0699462890625 12)"><text x="42.0699462890625" y="0" font-family="Virgil, Segoe UI Emoji" font-size="20px" fill="#5c940d" text-anchor="middle" style="white-space: pre;" direction="ltr" dominant-baseline="text-before-edge">/sbin/init</text></g><g stroke-linecap="round" transform="translate(100.72413640141286 358.26297279398125) rotate(0 462.64828804706906 79.04507445811595)"><path d="M32 0 C363.77 0.63, 696.38 1.22, 893.3 0 M893.3 0 C916.32 -0.53, 925.93 10.06, 925.3 32 M925.3 32 C923.2 51.9, 923.76 70.23, 925.3 126.09 M925.3 126.09 C925.76 147.26, 914.95 156.25, 893.3 158.09 M893.3 158.09 C563.82 157.28, 232.67 157.25, 32 158.09 M32 158.09 C9.4 157.54, 1.54 146.98, 0 126.09 M0 126.09 C-0.07 106.88, -1.14 89.23, 0 32 M0 32 C0.59 10.07, 10.36 0.41, 32 0" stroke="#2b8a3e" stroke-width="1.5" fill="none" stroke-dasharray="8 9"></path></g><g stroke-linecap="round" transform="translate(821.5801799114317 407.9328136391723) rotate(0 80.5 30)"><path d="M15 0 C61.31 0.81, 114.59 -1.27, 146 0 C158.51 3.48, 161.55 2.37, 161 15 C160.29 27.88, 160.1 35.71, 161 45 C164.18 51.67, 154.71 62.17, 146 60 C118.1 56.69, 82.25 58.38, 15 60 C5.38 62.04, -2.45 53.75, 0 45 C-0.5 31.25, -0.28 23.51, 0 15 C-1.88 6.09, 8.25 2.74, 15 0" stroke="none" stroke-width="0" fill="#82c91e33"></path><path d="M15 0 C43.34 -1.93, 74.52 0.31, 146 0 M15 0 C55.43 -1.16, 94.91 0.57, 146 0 M146 0 C154.37 1.36, 160.54 6.64, 161 15 M146 0 C157.37 -1.42, 161.53 5.29, 161 15 M161 15 C160.52 22.48, 159.08 27.32, 161 45 M161 15 C161.35 25.42, 161.58 33.09, 161 45 M161 45 C159.92 53.05, 155.78 58.66, 146 60 M161 45 C161.05 56.53, 155.6 57.84, 146 60 M146 60 C102.6 58.5, 56.2 59.44, 15 60 M146 60 C95.39 61.13, 43.34 60.46, 15 60 M15 60 C3.59 58.48, 1.19 54.18, 0 45 M15 60 C4.47 60.2, -1.71 57.17, 0 45 M0 45 C-1.15 37.05, 0.6 26.77, 0 15 M0 45 C-0.4 38.86, -0.15 33.28, 0 15 M0 15 C1.31 3.58, 5.33 -0.71, 15 0 M0 15 C0.3 2.88, 6.19 -0.15, 15 0" stroke="#5c940d" stroke-width="1" fill="none"></path></g><g transform="translate(869.7702204998106 425.9328136391723) rotate(0 32.309959411621094 12)"><text x="32.309959411621094" y="0" font-family="Virgil, Segoe UI Emoji" font-size="20px" fill="#5c940d" text-anchor="middle" style="white-space: pre;" direction="ltr" dominant-baseline="text-before-edge">/bin/sh</text></g><g stroke-linecap="round" transform="translate(148.09791022152575 154.91669478560763) rotate(0 75.71141204220064 36.14853360578533)"><path d="M18.07 0 C54.5 -0.37, 94.55 -2.67, 133.35 0 C146.29 -2.28, 152.58 8.9, 151.42 18.07 C148.74 28.23, 150.23 37.72, 151.42 54.22 C149.83 64.94, 143.44 73.04, 133.35 72.3 C102.19 71.52, 78.26 73.31, 18.07 72.3 C8.68 72.51, 0.67 67.9, 0 54.22 C2.42 39.37, 2.09 30.84, 0 18.07 C1.87 7.26, 8.22 -0.59, 18.07 0" stroke="none" stroke-width="0" fill="#ced4da55"></path><path d="M18.07 0 C58.89 -0.11, 104.77 -0.82, 133.35 0 M18.07 0 C62.86 0.25, 107.27 0.55, 133.35 0 M133.35 0 C145.37 -0.65, 151.12 7.56, 151.42 18.07 M133.35 0 C145.6 1.95, 149.84 4.06, 151.42 18.07 M151.42 18.07 C151.92 31.54, 149.71 44.01, 151.42 54.22 M151.42 18.07 C150.43 28.13, 150.63 36.89, 151.42 54.22 M151.42 54.22 C152.46 65.85, 147.34 73.32, 133.35 72.3 M151.42 54.22 C152.83 67.97, 145.65 71.07, 133.35 72.3 M133.35 72.3 C92.93 70.47, 55.27 71.47, 18.07 72.3 M133.35 72.3 C104.2 72.78, 75.59 72.16, 18.07 72.3 M18.07 72.3 C4.67 73.88, 0.13 66.98, 0 54.22 M18.07 72.3 C4.27 74.07, -1.12 66, 0 54.22 M0 54.22 C0.4 43.72, 1.54 35.34, 0 18.07 M0 54.22 C-0.38 44.4, 0.34 34.89, 0 18.07 M0 18.07 C1.77 5.11, 4.03 1.69, 18.07 0 M0 18.07 C1.26 8.06, 6.34 -1.38, 18.07 0" stroke="#495057" stroke-width="1" fill="none"></path></g><g transform="translate(176.44911833935143 169.2528408011997) rotate(0 50.8392333984375 21.599999999999994)"><text x="0" y="0" font-family="Cascadia, Segoe UI Emoji" font-size="9.650289388638228px" fill="#495057" text-anchor="start" style="white-space: pre;" direction="ltr" dominant-baseline="text-before-edge">auipc   t0,0x0</text><text x="0" y="10.799999999999999" font-family="Cascadia, Segoe UI Emoji" font-size="9.650289388638228px" fill="#495057" text-anchor="start" style="white-space: pre;" direction="ltr" dominant-baseline="text-before-edge">addi    a2,t0,40</text><text x="0" y="21.599999999999998" font-family="Cascadia, Segoe UI Emoji" font-size="9.650289388638228px" fill="#495057" text-anchor="start" style="white-space: pre;" direction="ltr" dominant-baseline="text-before-edge">csrr    a0,mhartid</text><text x="0" y="32.4" font-family="Cascadia, Segoe UI Emoji" font-size="9.650289388638228px" fill="#495057" text-anchor="start" style="white-space: pre;" direction="ltr" dominant-baseline="text-before-edge">ld      a1,32(t0)</text></g><g transform="translate(150.42325742626008 114.795934176759) rotate(0 87.08990478515625 12)"><text x="0" y="0" font-family="Virgil, Segoe UI Emoji" font-size="20px" fill="#495057" text-anchor="start" style="white-space: pre;" direction="ltr" dominant-baseline="text-before-edge">boot code in ROM</text></g><g stroke-opacity="0.5" fill-opacity="0.5" transform="translate(487.9525137858423 545.680663250629) rotate(0 88.984375 16.80000000000001)"><text x="0" y="0" font-family="Virgil, Segoe UI Emoji" font-size="28px" fill="#f08c00" text-anchor="start" style="white-space: pre;" direction="ltr" dominant-baseline="text-before-edge">@hemashushu</text></g><g stroke-linecap="round" transform="translate(435.6666666666664 154.68888888888884) rotate(0 76.99999999999997 35)"><path d="M17.5 0 C51.71 -3.99, 89.68 1.24, 136.5 0 C151.55 0.74, 155.48 5.71, 154 17.5 C150.79 31.89, 152.25 37.87, 154 52.5 C154.1 65.76, 145.8 68.68, 136.5 70 C109.83 67.16, 76.04 72.04, 17.5 70 C2.36 69.6, -2.6 65.47, 0 52.5 C1.22 38.32, -2.66 31.35, 0 17.5 C2.5 5.14, 9.34 0.88, 17.5 0" stroke="none" stroke-width="0" fill="#ced4da55"></path><path d="M17.5 0 C46.27 -0.13, 73.79 -1.11, 136.5 0 M17.5 0 C55.55 0.03, 95.86 0.07, 136.5 0 M136.5 0 C149.78 -1.42, 154.14 7.4, 154 17.5 M136.5 0 C149.57 -1.44, 154.86 6.51, 154 17.5 M154 17.5 C156.15 30.53, 156.06 44.61, 154 52.5 M154 17.5 C153.95 31.07, 155.07 43.05, 154 52.5 M154 52.5 C154.88 63.84, 149.28 68.98, 136.5 70 M154 52.5 C152.07 66.25, 148.27 71.52, 136.5 70 M136.5 70 C110.78 71.87, 80.72 72.33, 17.5 70 M136.5 70 C106.58 69.25, 76.83 70.56, 17.5 70 M17.5 70 C4.77 70.97, 1.28 64.82, 0 52.5 M17.5 70 C4.11 71.35, -1.78 62.8, 0 52.5 M0 52.5 C-0.17 40.7, -1.63 25.73, 0 17.5 M0 52.5 C0 44.51, -0.55 37.85, 0 17.5 M0 17.5 C0.57 4.29, 6.5 0.49, 17.5 0 M0 17.5 C1.4 5.2, 6.86 1.41, 17.5 0" stroke="#495057" stroke-width="1" fill="none"></path></g><g transform="translate(471.53669993082656 177.68888888888884) rotate(0 41.129966735839815 12)"><text x="41.129966735839844" y="0" font-family="Virgil, Segoe UI Emoji" font-size="20px" fill="#495057" text-anchor="middle" style="white-space: pre;" direction="ltr" dominant-baseline="text-before-edge">OpenSBI</text></g><g transform="translate(453.8888888888886 51.26666666666655) rotate(0 91.16990661621091 12.000000000000007)"><text x="0" y="0" font-family="Virgil, Segoe UI Emoji" font-size="20px" fill="#495057" text-anchor="start" style="white-space: pre;" direction="ltr" dominant-baseline="text-before-edge">CPU Machine Mode</text></g><g transform="translate(486.91009521484375 120.57777777777775) rotate(0 26.059982299804716 12)"><text x="0" y="0" font-family="Virgil, Segoe UI Emoji" font-size="20px" fill="#495057" text-anchor="start" style="white-space: pre;" direction="ltr" dominant-baseline="text-before-edge">BIOS</text></g><g transform="translate(797.1654600744846 49.839704330459284) rotate(0 103.69988250732422 12)"><text x="0" y="0" font-family="Virgil, Segoe UI Emoji" font-size="20px" fill="#c92a2a" text-anchor="start" style="white-space: pre;" direction="ltr" dominant-baseline="text-before-edge">CPU Supervisor Mode</text></g><g transform="translate(853.7693220950405 321.3444208243076) rotate(0 76.8899154663086 12)"><text x="0" y="0" font-family="Virgil, Segoe UI Emoji" font-size="20px" fill="#2b8a3e" text-anchor="start" style="white-space: pre;" direction="ltr" dominant-baseline="text-before-edge">CPU User Mode</text></g><g stroke-linecap="round" transform="translate(620.3345729419198 412.8429163187217) rotate(0 74 28.5)"><path d="M14.25 0 C49.03 -2.12, 79.13 -2.75, 133.75 0 C146.49 -1.43, 147.51 5.48, 148 14.25 C144.34 28.08, 144.83 35.19, 148 42.75 C150.22 52.28, 145.45 57.23, 133.75 57 C95.31 54.28, 52 57.44, 14.25 57 C1.5 53.66, -2.04 49.69, 0 42.75 C2.71 37.14, -0.92 22.44, 0 14.25 C0.63 8.04, 2.01 2.17, 14.25 0" stroke="none" stroke-width="0" fill="#82c91e33"></path><path d="M14.25 0 C52.14 2.46, 87.98 0.04, 133.75 0 M14.25 0 C46.26 1.44, 78.13 0.69, 133.75 0 M133.75 0 C142.37 1.9, 147.97 2.93, 148 14.25 M133.75 0 C144.55 -0.11, 146.29 3.22, 148 14.25 M148 14.25 C147.53 20.88, 146.73 27.81, 148 42.75 M148 14.25 C146.95 22.14, 148.66 30.25, 148 42.75 M148 42.75 C147.6 50.39, 142.38 55.34, 133.75 57 M148 42.75 C146.27 50.49, 141.15 58.64, 133.75 57 M133.75 57 C98.69 55.06, 67.61 56.42, 14.25 57 M133.75 57 C93.86 56.95, 53.44 57.54, 14.25 57 M14.25 57 C6.43 55.99, 0.47 53.95, 0 42.75 M14.25 57 C5.29 56.52, -0.6 50.08, 0 42.75 M0 42.75 C-1.34 36.82, -1.18 31.96, 0 14.25 M0 42.75 C-1.19 36.74, 0.05 30.56, 0 14.25 M0 14.25 C1.35 4.42, 6.35 -1.27, 14.25 0 M0 14.25 C-1.67 5.6, 4.79 1.13, 14.25 0" stroke="#5c940d" stroke-width="1" fill="none"></path></g><g transform="translate(674.294594914576 429.3429163187217) rotate(0 20.03997802734375 12)"><text x="20.03997802734375" y="0" font-family="Virgil, Segoe UI Emoji" font-size="20px" fill="#5c940d" text-anchor="middle" style="white-space: pre;" direction="ltr" dominant-baseline="text-before-edge">login</text></g><g stroke-linecap="round" transform="translate(384.4000236201371 410.7088087131499) rotate(0 76 28.5)"><path d="M14.25 0 C49.66 2, 89.11 -2.33, 137.75 0 C150.71 0.03, 148.88 4.48, 152 14.25 C154.13 20.6, 153.12 29.78, 152 42.75 C151.34 53.13, 149.89 56.91, 137.75 57 C87.68 61.07, 45.02 55.63, 14.25 57 C4.75 53.92, -1.25 53.4, 0 42.75 C-2.16 33.01, 0.41 23.14, 0 14.25 C0.88 5.28, 2.49 2.24, 14.25 0" stroke="none" stroke-width="0" fill="#82c91e33"></path><path d="M14.25 0 C44.5 -1.18, 77.56 -0.78, 137.75 0 M14.25 0 C45 -0.78, 75.32 -1.6, 137.75 0 M137.75 0 C145.83 -0.52, 151.47 4.67, 152 14.25 M137.75 0 C148.97 -1.76, 153.85 6.72, 152 14.25 M152 14.25 C150.81 22.14, 151.46 30.12, 152 42.75 M152 14.25 C151.94 23.65, 151.46 34.97, 152 42.75 M152 42.75 C150.86 52.9, 145.96 58.23, 137.75 57 M152 42.75 C149.96 51.56, 146 58.21, 137.75 57 M137.75 57 C107.11 58.66, 72.11 58.4, 14.25 57 M137.75 57 C90.7 57.73, 42.33 55.96, 14.25 57 M14.25 57 C5.58 56.83, 1.22 50.39, 0 42.75 M14.25 57 C6.67 55.03, 1.1 53.1, 0 42.75 M0 42.75 C2.2 32.5, 1.24 21.58, 0 14.25 M0 42.75 C-1.17 33.13, -0.33 22.64, 0 14.25 M0 14.25 C-0.5 6, 4.38 -1.86, 14.25 0 M0 14.25 C-1.96 6.62, 5.15 -2.29, 14.25 0" stroke="#5c940d" stroke-width="1" fill="none"></path></g><g transform="translate(433.9300529170121 427.2088087131499) rotate(0 26.469970703125 12)"><text x="26.469970703125" y="0" font-family="Virgil, Segoe UI Emoji" font-size="20px" fill="#5c940d" text-anchor="middle" style="white-space: pre;" direction="ltr" dominant-baseline="text-before-edge">getty</text></g><g stroke-linecap="round"><g transform="translate(54.70619282057929 54.04444444444445) rotate(0 36.53579247859924 65.65555555555555)"><path d="M-0.47 0.73 C-0.14 8.6, -3.25 29.27, 2.26 46.86 C7.78 64.46, 20.69 92.29, 32.6 106.32 C44.52 120.34, 66.86 126.71, 73.75 131.01 M1.48 0.06 C1.7 8.18, -3.25 30.47, 1.77 48.4 C6.79 66.33, 19.49 93.71, 31.59 107.64 C43.69 121.57, 67.47 127.74, 74.35 131.96" stroke="#495057" stroke-width="1" fill="none"></path></g><g transform="translate(54.70619282057929 54.04444444444445) rotate(0 36.53579247859924 65.65555555555555)"><path d="M50.83 130.25 C59.63 132.32, 66.01 130.67, 74.35 131.96 M50.83 130.25 C58.62 131.51, 65.65 131.32, 74.35 131.96" stroke="#495057" stroke-width="1" fill="none"></path></g><g transform="translate(54.70619282057929 54.04444444444445) rotate(0 36.53579247859924 65.65555555555555)"><path d="M57.44 115.53 C64.05 122.33, 68.3 125.43, 74.35 131.96 M57.44 115.53 C63.33 121.2, 68.37 125.43, 74.35 131.96" stroke="#495057" stroke-width="1" fill="none"></path></g></g><mask></mask><g transform="translate(10 10) rotate(0 58.15625762939453 16.799999999999997)"><text x="0" y="0" font-family="Virgil, Segoe UI Emoji" font-size="28px" fill="#495057" text-anchor="start" style="white-space: pre;" direction="ltr" dominant-baseline="text-before-edge">power on</text></g><g stroke-linecap="round"><g transform="translate(316.11111111111114 190.35555555555558) rotate(0 48.333333333333314 0.5555555555555429)"><path d="M0.43 -1.06 C16.6 -0.57, 81.29 1.42, 97.15 1.76 M-0.81 0.99 C15.23 1.24, 80 -0.23, 96.46 -0.02" stroke="#495057" stroke-width="1" fill="none"></path></g><g transform="translate(316.11111111111114 190.35555555555558) rotate(0 48.333333333333314 0.5555555555555429)"><path d="M73.03 8.69 C78.62 6.71, 88.75 1.43, 96.46 -0.02 M73.03 8.69 C79.85 5.66, 86.87 3.49, 96.46 -0.02" stroke="#495057" stroke-width="1" fill="none"></path></g><g transform="translate(316.11111111111114 190.35555555555558) rotate(0 48.333333333333314 0.5555555555555429)"><path d="M72.91 -8.41 C78.37 -5.08, 88.54 -5.06, 96.46 -0.02 M72.91 -8.41 C79.82 -6.49, 86.87 -3.72, 96.46 -0.02" stroke="#495057" stroke-width="1" fill="none"></path></g></g><mask></mask><g stroke-linecap="round"><g transform="translate(856.8373350619422 235.96614261179454) rotate(0 -305.9974477789089 80.10138226646393)"><path d="M0.53 -0.2 C-3.34 6.47, -1.08 27.3, -23.78 40.37 C-46.49 53.43, -59.38 70.15, -135.7 78.19 C-212.02 86.24, -406.83 83.07, -481.7 88.62 C-556.57 94.18, -563.41 99.46, -584.93 111.51 C-606.46 123.56, -606.34 152.96, -610.84 160.91 M-0.64 -1.36 C-4.59 4.96, -1.95 25.69, -24.51 38.66 C-47.07 51.63, -59.8 67.91, -136 76.44 C-212.2 84.98, -406.71 83.96, -481.71 89.87 C-556.71 95.79, -564.19 100.22, -585.98 111.94 C-607.78 123.67, -608.27 152.06, -612.48 160.24" stroke="#087f5b" stroke-width="1" fill="none"></path></g><g transform="translate(856.8373350619422 235.96614261179454) rotate(0 -305.9974477789089 80.10138226646393)"><path d="M-614.08 135.29 C-613.95 142.33, -611.89 149.47, -612.48 160.24 M-614.08 135.29 C-612.88 145.18, -611.96 155.53, -612.48 160.24" stroke="#087f5b" stroke-width="1" fill="none"></path></g><g transform="translate(856.8373350619422 235.96614261179454) rotate(0 -305.9974477789089 80.10138226646393)"><path d="M-597.67 140.1 C-601.73 145.98, -603.84 151.91, -612.48 160.24 M-597.67 140.1 C-602.92 148.13, -608.46 156.59, -612.48 160.24" stroke="#087f5b" stroke-width="1" fill="none"></path></g></g><mask></mask><g stroke-linecap="round"><g transform="translate(323.8006159324228 441.2299416652402) rotate(0 25.938592732745974 0.019304226817098424)"><path d="M-0.18 -0.94 C8.71 -1.08, 43.96 -0.6, 52.69 -0.56 M-1.73 1.18 C7.13 1.17, 43.28 0.83, 52.17 0.67" stroke="#2b8a3e" stroke-width="1" fill="none"></path></g><g transform="translate(323.8006159324228 441.2299416652402) rotate(0 25.938592732745974 0.019304226817098424)"><path d="M28.79 9.52 C32.96 8.73, 39.31 5.74, 52.17 0.67 M28.79 9.52 C34.7 8.42, 40.86 6.17, 52.17 0.67" stroke="#2b8a3e" stroke-width="1" fill="none"></path></g><g transform="translate(323.8006159324228 441.2299416652402) rotate(0 25.938592732745974 0.019304226817098424)"><path d="M28.57 -7.58 C32.83 -4.16, 39.23 -2.93, 52.17 0.67 M28.57 -7.58 C34.62 -4.6, 40.84 -2.79, 52.17 0.67" stroke="#2b8a3e" stroke-width="1" fill="none"></path></g></g><mask></mask><g stroke-linecap="round"><g transform="translate(547.5005244372023 442.0410522523739) rotate(0 33.5228302164474 0.5153782296182783)"><path d="M0.65 0.71 C11.63 0.82, 55.15 1.33, 66.29 1.39 M-0.47 0.03 C10.86 -0.28, 57.37 -0.94, 68.6 -0.54" stroke="#2b8a3e" stroke-width="1" fill="none"></path></g><g transform="translate(547.5005244372023 442.0410522523739) rotate(0 33.5228302164474 0.5153782296182783)"><path d="M45.05 7.86 C54.03 3.67, 61.3 2.84, 68.6 -0.54 M45.05 7.86 C51.95 4.41, 59.5 2.21, 68.6 -0.54" stroke="#2b8a3e" stroke-width="1" fill="none"></path></g><g transform="translate(547.5005244372023 442.0410522523739) rotate(0 33.5228302164474 0.5153782296182783)"><path d="M45.16 -9.24 C54.2 -7.73, 61.44 -2.87, 68.6 -0.54 M45.16 -9.24 C52.04 -7.47, 59.56 -4.44, 68.6 -0.54" stroke="#2b8a3e" stroke-width="1" fill="none"></path></g></g><mask></mask><g stroke-linecap="round"><g transform="translate(607.6807544093222 187.14144210620432) rotate(0 76.76690220440281 0.5555555555555429)"><path d="M1.16 0.91 C26.84 1.16, 128.65 0.19, 154.17 0.3 M0.31 0.34 C25.88 0.82, 127.96 1.56, 153.56 1.42" stroke="#087f5b" stroke-width="1" fill="none"></path></g><g transform="translate(607.6807544093222 187.14144210620432) rotate(0 76.76690220440281 0.5555555555555429)"><path d="M130.05 9.92 C138.92 8.12, 143.33 5.64, 153.56 1.42 M130.05 9.92 C138.1 6.43, 145.86 5.14, 153.56 1.42" stroke="#087f5b" stroke-width="1" fill="none"></path></g><g transform="translate(607.6807544093222 187.14144210620432) rotate(0 76.76690220440281 0.5555555555555429)"><path d="M130.08 -7.18 C138.77 -3.69, 143.17 -0.88, 153.56 1.42 M130.08 -7.18 C138.27 -4.85, 146.01 -0.33, 153.56 1.42" stroke="#087f5b" stroke-width="1" fill="none"></path></g></g><mask></mask><g stroke-linecap="round"><g transform="translate(773.2258982565493 441.7922225245064) rotate(0 22.0875905617782 -0.10274283279628094)"><path d="M0.14 -0.11 C7.53 -0.15, 36.59 -0.07, 43.91 -0.09 M-0.45 -0.64 C7.16 -0.87, 37.65 -1.16, 45 -0.99" stroke="#2b8a3e" stroke-width="1" fill="none"></path></g><g transform="translate(773.2258982565493 441.7922225245064) rotate(0 22.0875905617782 -0.10274283279628094)"><path d="M24.22 6.49 C28.55 4.33, 33.51 2.95, 45 -0.99 M24.22 6.49 C30.15 3.82, 36.46 1.79, 45 -0.99" stroke="#2b8a3e" stroke-width="1" fill="none"></path></g><g transform="translate(773.2258982565493 441.7922225245064) rotate(0 22.0875905617782 -0.10274283279628094)"><path d="M24.27 -8.62 C28.62 -7.47, 33.56 -5.55, 45 -0.99 M24.27 -8.62 C30.2 -6.81, 36.5 -4.35, 45 -0.99" stroke="#2b8a3e" stroke-width="1" fill="none"></path></g></g><mask></mask></svg>