<svg version="1.1" xmlns="http://www.w3.org/2000/svg" viewBox="0 0 622.4418759552159 372.7164963461175" width="1244.8837519104318" height="745.432992692235">
  <!-- svg-source:excalidraw -->
  
  <defs>
    <style class="style-fonts">
      @font-face {
        font-family: "Virgil";
        src: url("https://excalidraw.com/Virgil.woff2");
      }
      @font-face {
        font-family: "Cascadia";
        src: url("https://excalidraw.com/Cascadia.woff2");
      }
    </style>
  </defs>
  <rect x="0" y="0" width="622.4418759552159" height="372.7164963461175" fill="#ffffff"></rect><g stroke-linecap="round" transform="translate(82.7144281868616 24.693357721986956) rotate(0 24.25 11.75)"><path d="M15.43 0.03 C19.71 -0.93, 26.18 -0.82, 31.2 0.15 C36.23 1.12, 42.63 3.51, 45.58 5.84 C48.53 8.17, 49.68 11.7, 48.89 14.12 C48.1 16.54, 44.76 18.82, 40.84 20.37 C36.92 21.92, 30.51 23.23, 25.37 23.44 C20.23 23.65, 14.14 23.08, 10.01 21.63 C5.88 20.18, 1.77 17.36, 0.58 14.74 C-0.61 12.12, 0.13 8.17, 2.87 5.91 C5.62 3.65, 14.19 2.2, 17.07 1.18 C19.96 0.16, 19.98 -0.28, 20.17 -0.19 M31.21 1.41 C35.96 2.42, 42.61 5.14, 45.2 7.13 C47.78 9.12, 47.74 11.02, 46.73 13.34 C45.72 15.66, 42.76 19.2, 39.14 21.06 C35.51 22.93, 30.19 24.4, 24.99 24.53 C19.79 24.65, 12.03 23.53, 7.93 21.79 C3.83 20.05, 1.25 16.82, 0.39 14.07 C-0.47 11.31, 0.23 7.25, 2.78 5.25 C5.34 3.25, 10.82 2.87, 15.73 2.08 C20.63 1.29, 29.43 0.96, 32.22 0.52 C35 0.08, 32.74 -0.64, 32.43 -0.56" stroke="none" stroke-width="0" fill="#be4bdb55"></path><path d="M27.83 -0.03 C32.67 0.19, 39.62 1.89, 43.14 3.94 C46.65 6, 49.02 9.62, 48.9 12.3 C48.79 14.99, 45.83 18.35, 42.45 20.05 C39.08 21.76, 33.59 22.13, 28.65 22.5 C23.72 22.88, 17.49 23.26, 12.83 22.31 C8.17 21.37, 2.69 19.35, 0.71 16.83 C-1.26 14.3, -0.9 9.75, 0.97 7.17 C2.84 4.6, 6.43 2.41, 11.94 1.36 C17.44 0.3, 29.28 0.43, 34.02 0.84 C38.76 1.24, 40.48 3.68, 40.39 3.78 M17.55 -0.28 C22.45 -0.97, 29.87 0.04, 34.38 1.26 C38.9 2.49, 42.65 4.85, 44.66 7.09 C46.67 9.33, 47.65 12.33, 46.46 14.7 C45.26 17.06, 41.53 19.97, 37.48 21.28 C33.43 22.59, 26.95 22.95, 22.17 22.55 C17.38 22.16, 12.37 20.5, 8.77 18.93 C5.16 17.36, 1.42 15.43, 0.54 13.14 C-0.34 10.85, 0.85 7.39, 3.47 5.19 C6.09 3, 14.04 0.68, 16.26 -0.02 C18.47 -0.71, 16.7 0.57, 16.78 1" stroke="#000000" stroke-width="1" fill="none"></path></g><g stroke-linecap="round"><g transform="translate(82.7144281868616 40.693357721986956) rotate(0 -0.334175126338323 128.33466449992733)"><path d="M0.39 1.18 C0.23 43.49, 0.1 212.19, 0 254.59 M-0.86 0.76 C-1.27 43.16, -0.9 213.78, -0.94 255.91" stroke="#000000" stroke-width="1" fill="none"></path></g></g><g stroke-linecap="round"><g transform="translate(130.7144281868616 35.693357721986956) rotate(0 -0.7828934142709159 127.71160264064557)"><path d="M0 -0.41 C-0.1 42.24, -0.19 214.2, -0.22 257.1 M-1.45 -1.67 C-1.77 41.13, -1.35 212.52, -1.28 255.29" stroke="#000000" stroke-width="1" fill="none"></path></g></g><g stroke-linecap="round"><g transform="translate(82.2144281868616 297.69335772198696) rotate(0 24.265400132667253 1.5537644611375399)"><path d="M-0.22 0.6 C2.13 1.91, 7.75 6.49, 14.07 7.49 C20.39 8.49, 31.81 8.69, 37.72 6.59 C43.63 4.49, 47.89 -3.27, 49.53 -5.11 M-1.79 -0.14 C0.38 0.85, 6.5 4.34, 13.03 5.62 C19.56 6.9, 31.18 9.17, 37.39 7.56 C43.61 5.95, 48.35 -2.17, 50.32 -4.06" stroke="#000000" stroke-width="1" fill="none"></path></g></g><g transform="translate(98.7144281868616 75.19335772198696) rotate(0 11 47)"><text x="0" y="18.5" font-family="Yozai_Light, Segoe UI Emoji" font-size="20px" fill="#000000" text-anchor="start" style="white-space: pre;" direction="ltr">组</text><text x="0" y="42" font-family="Yozai_Light, Segoe UI Emoji" font-size="20px" fill="#000000" text-anchor="start" style="white-space: pre;" direction="ltr">成</text><text x="0" y="65.5" font-family="Yozai_Light, Segoe UI Emoji" font-size="20px" fill="#000000" text-anchor="start" style="white-space: pre;" direction="ltr">原</text><text x="0" y="89" font-family="Yozai_Light, Segoe UI Emoji" font-size="20px" fill="#000000" text-anchor="start" style="white-space: pre;" direction="ltr">理</text></g><g stroke-linecap="round"><g transform="translate(108.35364705383881 54.96608499471432) rotate(0 -2.097451808736139 120.11330055038593)" fill-rule="evenodd"><path d="M-1.92 0.45 L-17.16 -5.37 L-23.48 -6.13 L-19.29 241.98 L-8.78 246.86 L0.32 246.95 L17.38 241 L19.42 54.58 L17.59 -4.12 L14.73 -7.57 L-1.51 0.97" stroke="none" stroke-width="0" fill="#be4bdb55" fill-rule="evenodd"></path><path d="M0.83 -0.67 C-2.21 -1.71, -14.35 -7.58, -18.42 -5.77 C-22.48 -3.96, -23.08 -9.61, -23.57 10.18 C-24.06 29.97, -21.98 76.27, -21.37 112.96 C-20.76 149.66, -20.36 208.42, -19.89 230.33 C-19.42 252.23, -21.95 241.67, -18.55 244.38 C-15.15 247.08, -5.37 246.94, 0.51 246.53 C6.39 246.12, 13.65 244.95, 16.73 241.91 C19.82 238.86, 18.6 250.11, 19 228.26 C19.4 206.41, 19.19 147.34, 19.14 110.8 C19.08 74.27, 19.04 28.72, 18.69 9.04 C18.34 -10.64, 20.06 -5.83, 17.04 -7.29 C14.03 -8.75, 3.57 -1.03, 0.58 0.27 M-0.19 1.59 C-3.29 0.7, -15.33 -5.38, -18.82 -4.29 C-22.32 -3.2, -20.82 -11.52, -21.17 8.12 C-21.52 27.76, -20.99 76.47, -20.92 113.53 C-20.85 150.59, -21.33 208.83, -20.77 230.47 C-20.22 252.11, -21.2 240.37, -17.57 243.37 C-13.95 246.38, -4.55 248.74, 0.97 248.5 C6.49 248.25, 12.73 245.51, 15.53 241.9 C18.33 238.29, 17.13 248.84, 17.78 226.86 C18.43 204.87, 19.28 146.15, 19.42 109.97 C19.56 73.79, 19.22 29.44, 18.62 9.77 C18.02 -9.9, 18.74 -6.36, 15.82 -8.05 C12.9 -9.75, 3.49 -1.86, 1.11 -0.41" stroke="#ffffff" stroke-width="1" fill="none"></path></g></g><g stroke-linecap="round" transform="translate(498.30957815468923 14.300615255712756) rotate(0 24.25 11.75)"><path d="M35.56 1.5 C40 2.47, 45.04 4.13, 47.05 6.28 C49.06 8.44, 49.36 11.97, 47.64 14.44 C45.93 16.91, 41.33 19.69, 36.76 21.09 C32.2 22.5, 25.17 23.1, 20.25 22.88 C15.33 22.65, 10.5 21.43, 7.23 19.73 C3.97 18.04, 1 15.07, 0.67 12.71 C0.33 10.35, 2.34 7.59, 5.23 5.55 C8.12 3.52, 12.29 0.99, 18 0.48 C23.7 -0.03, 35.16 1.6, 39.44 2.49 C43.72 3.38, 43.74 5.65, 43.68 5.81 M21.46 0.07 C26.3 -0.31, 33.79 1.25, 38.19 2.82 C42.59 4.39, 46.55 7.09, 47.85 9.49 C49.15 11.88, 47.93 15.13, 46.01 17.17 C44.09 19.2, 41.09 20.56, 36.35 21.7 C31.61 22.85, 22.71 24.39, 17.56 24.06 C12.42 23.74, 8.65 22.15, 5.5 19.77 C2.35 17.38, -1.39 12.62, -1.34 9.74 C-1.3 6.87, 1.74 4.28, 5.76 2.51 C9.79 0.74, 20.1 -0.31, 22.81 -0.87 C25.52 -1.43, 22.34 -1.38, 22 -0.86" stroke="none" stroke-width="0" fill="#fab00555"></path><path d="M26.59 -0.17 C31.62 0.04, 38.6 1.96, 42.22 3.86 C45.84 5.76, 48.02 8.59, 48.33 11.23 C48.64 13.87, 47.03 17.53, 44.1 19.68 C41.17 21.83, 35.84 23.61, 30.74 24.14 C25.65 24.66, 18.17 24.24, 13.53 22.83 C8.9 21.41, 4.84 18.06, 2.91 15.65 C0.98 13.24, 0.77 10.52, 1.94 8.39 C3.1 6.25, 5.55 4.32, 9.91 2.85 C14.28 1.37, 25.03 -0.02, 28.12 -0.45 C31.21 -0.89, 28.5 0.03, 28.44 0.23 M21.97 -0.68 C26.57 -0.83, 33.08 0.69, 37.12 2.14 C41.16 3.6, 44.8 5.63, 46.22 8.07 C47.64 10.51, 47.54 14.32, 45.65 16.79 C43.75 19.26, 39.43 21.98, 34.85 22.87 C30.27 23.76, 23.5 22.77, 18.19 22.12 C12.88 21.48, 5.85 20.96, 2.98 19.03 C0.11 17.09, 0.13 13.16, 0.97 10.49 C1.8 7.83, 4.3 4.67, 7.98 3.04 C11.67 1.41, 20.64 1.42, 23.08 0.72 C25.52 0.02, 22.59 -1.28, 22.65 -1.15" stroke="#000000" stroke-width="1" fill="none"></path></g><g stroke-linecap="round"><g transform="translate(498.30957815468923 30.300615255712756) rotate(0 -0.3786442223332642 127.63554269235581)"><path d="M-1.17 0.27 C-1.26 42.71, -0.26 212.18, -0.14 254.59 M0.42 -0.64 C0.12 41.98, -0.85 213.15, -1.16 255.91" stroke="#000000" stroke-width="1" fill="none"></path></g></g><g stroke-linecap="round"><g transform="translate(546.3095781546892 25.300615255712756) rotate(0 -0.6549323001969469 128.05408524082972)"><path d="M0.27 -0.14 C0.21 42.73, -0.32 213.2, -0.41 256.06 M-1.05 -1.26 C-1.29 41.88, -1.55 214.67, -1.58 257.36" stroke="#000000" stroke-width="1" fill="none"></path></g></g><g stroke-linecap="round"><g transform="translate(497.80957815468923 291.1711689858542) rotate(0 23.426723703630273 2.631476366920783)"><path d="M-0.14 -0.41 C2.36 0.66, 7.55 5.39, 13.81 6.71 C20.06 8.03, 31.62 9.42, 37.38 7.51 C43.14 5.6, 46.43 -2.85, 48.35 -4.74 M-1.67 -1.68 C0.73 -0.45, 6.2 6.33, 12.63 8.1 C19.05 9.87, 30.89 10.89, 36.87 8.96 C42.85 7.03, 46.73 -0.92, 48.52 -3.5" stroke="#000000" stroke-width="1" fill="none"></path></g></g><g stroke-linecap="round"><g transform="translate(523.9487970216662 44.14328100286886) rotate(0 -1.1497057062518934 119.96260130245918)" fill-rule="evenodd"><path d="M-0.98 -1.24 L-15.2 -7.48 L-23.07 -5.74 L-20.45 244.21 L-8.58 247.08 L-0.46 245.21 L19.15 242.9 L19.64 55.54 L18.47 -3.92 L13.99 -5.64 L-1.91 1.58" stroke="none" stroke-width="0" fill="#fab00555" fill-rule="evenodd"></path><path d="M-0.44 -0.29 C-3.58 -1.12, -15.24 -7.11, -18.96 -5.41 C-22.68 -3.72, -22.37 -10.2, -22.76 9.89 C-23.16 29.98, -21.8 78.12, -21.34 115.13 C-20.89 152.14, -20.66 210.32, -20.04 231.96 C-19.42 253.6, -21.3 242.59, -17.64 244.97 C-13.98 247.35, -4.06 246.85, 1.92 246.23 C7.89 245.6, 15.69 244.03, 18.21 241.22 C20.73 238.41, 16.68 251.1, 17.04 229.37 C17.4 207.64, 20.02 147.5, 20.38 110.82 C20.73 74.14, 19.72 28.97, 19.15 9.29 C18.58 -10.39, 20.21 -5.83, 16.98 -7.28 C13.75 -8.73, 2.78 -0.6, -0.22 0.61 M1.53 -1.48 C-1.71 -2.66, -15.47 -9.54, -19.65 -7.4 C-23.84 -5.27, -23.4 -8.75, -23.61 11.35 C-23.81 31.44, -21.32 76.85, -20.88 113.18 C-20.45 149.5, -21.79 207.45, -21.01 229.3 C-20.23 251.15, -19.59 241.15, -16.18 244.28 C-12.77 247.4, -6.2 248.61, -0.54 248.04 C5.12 247.47, 14.61 244.1, 17.78 240.85 C20.94 237.6, 17.86 250.35, 18.45 228.54 C19.03 206.73, 21.16 146.4, 21.31 110 C21.45 73.6, 20.26 29.82, 19.33 10.15 C18.4 -9.53, 18.97 -6.36, 15.73 -8.03 C12.49 -9.71, 2.29 -1.2, -0.11 0.1" stroke="#ffffff" stroke-width="1" fill="none"></path></g></g><g transform="translate(514.3095781546892 64.80061525571276) rotate(0 11 35.5)"><text x="0" y="17.666666666666668" font-family="Yozai_Light, Segoe UI Emoji" font-size="20px" fill="#000000" text-anchor="start" style="white-space: pre;" direction="ltr">编</text><text x="0" y="41.333333333333336" font-family="Yozai_Light, Segoe UI Emoji" font-size="20px" fill="#000000" text-anchor="start" style="white-space: pre;" direction="ltr">译</text><text x="0" y="65" font-family="Yozai_Light, Segoe UI Emoji" font-size="20px" fill="#000000" text-anchor="start" style="white-space: pre;" direction="ltr">器</text></g><g stroke-linecap="round" transform="translate(417.4580113472899 37.5239376365617) rotate(0 24.25 11.75)"><path d="M22.41 -0.72 C27.22 -1.05, 34.53 -0.12, 38.69 1.69 C42.85 3.51, 46.14 7.55, 47.38 10.16 C48.61 12.77, 48.47 15.19, 46.09 17.33 C43.72 19.47, 37.92 21.89, 33.13 22.98 C28.35 24.07, 22.41 24.7, 17.41 23.87 C12.41 23.04, 5.93 20.17, 3.14 17.98 C0.34 15.8, 0.02 13.24, 0.66 10.74 C1.3 8.24, 3.02 4.88, 6.96 3 C10.9 1.11, 21.39 -0.07, 24.28 -0.59 C27.18 -1.11, 24.46 -0.51, 24.33 -0.14 M29.02 -0.02 C33.87 0.48, 39.88 2.8, 43.32 4.57 C46.76 6.34, 50.03 8.05, 49.67 10.59 C49.31 13.14, 45.01 17.87, 41.15 19.86 C37.29 21.84, 31.29 21.94, 26.51 22.51 C21.73 23.08, 16.78 24.62, 12.48 23.26 C8.17 21.9, 2.63 16.76, 0.69 14.35 C-1.26 11.95, -1.31 10.84, 0.8 8.81 C2.92 6.78, 8.75 3.41, 13.37 2.17 C18 0.93, 25.88 1.64, 28.55 1.36 C31.22 1.07, 29.58 0.31, 29.4 0.48" stroke="none" stroke-width="0" fill="#40c05755"></path><path d="M15.24 0.06 C19.95 -1.05, 27.65 -1.24, 32.59 -0.35 C37.52 0.53, 42.11 3.04, 44.86 5.37 C47.61 7.7, 49.74 11.09, 49.08 13.61 C48.41 16.12, 44.77 18.81, 40.87 20.46 C36.97 22.12, 31.08 23.52, 25.66 23.55 C20.23 23.59, 12.55 22.18, 8.3 20.68 C4.05 19.17, 1.03 17.1, 0.14 14.54 C-0.76 11.98, -0.46 7.65, 2.94 5.3 C6.35 2.96, 16.89 1.47, 20.58 0.49 C24.26 -0.5, 25.19 -0.63, 25.07 -0.61 M23.48 0.64 C28.08 0.49, 33.44 2.3, 37.73 3.8 C42.03 5.3, 48.13 7.36, 49.27 9.63 C50.41 11.91, 47.16 15.52, 44.55 17.43 C41.95 19.34, 38 20.09, 33.63 21.1 C29.26 22.12, 23.15 23.9, 18.35 23.53 C13.56 23.16, 7.65 20.92, 4.85 18.88 C2.05 16.84, 1.12 13.78, 1.55 11.3 C1.98 8.82, 4.06 5.7, 7.44 3.99 C10.82 2.29, 19.01 1.74, 21.82 1.09 C24.63 0.45, 24.25 0.23, 24.3 0.13" stroke="#000000" stroke-width="1" fill="none"></path></g><g stroke-linecap="round"><g transform="translate(417.4580113472899 53.5239376365617) rotate(0 0.26544169646160753 127.44950882275589)"><path d="M0.84 -0.9 C0.5 41.5, -0.71 212.02, -0.87 254.52 M-0.18 1.24 C-0.25 43.79, 1.52 213.52, 1.39 255.8" stroke="#000000" stroke-width="1" fill="none"></path></g></g><g stroke-linecap="round"><g transform="translate(465.45801134729015 48.5239376365617) rotate(0 -0.4320229517915095 128.50194502377883)"><path d="M-0.9 -0.87 C-1 41.73, -0.48 213.36, -0.48 256.39 M0.82 1.29 C0.52 44.01, -1.8 215.52, -1.68 257.87" stroke="#000000" stroke-width="1" fill="none"></path></g></g><g stroke-linecap="round"><g transform="translate(416.9580113472899 310.5239376365617) rotate(0 23.897143030865095 1.4829945050246636)"><path d="M-0.87 -0.48 C1.35 0.68, 7.71 4.98, 14.14 6.08 C20.57 7.18, 31.98 8.01, 37.7 6.12 C43.42 4.22, 46.48 -3.45, 48.44 -5.28 M0.88 -1.78 C2.86 -0.41, 7.05 5.71, 13.13 7.14 C19.21 8.58, 31.44 8.74, 37.36 6.83 C43.28 4.92, 46.79 -2.45, 48.66 -4.32" stroke="#000000" stroke-width="1" fill="none"></path></g></g><g stroke-linecap="round"><g transform="translate(443.09723021426714 67.79666490928906) rotate(0 -1.2015938010184755 120.27685768881821)" fill-rule="evenodd"><path d="M0.83 -1.4 L-13.33 -3.71 L-21.55 -6.67 L-20.13 243.68 L-11.17 248.46 L1.57 248.39 L19.44 243.56 L21.3 53.94 L20.14 -6.8 L14.53 -4.61 L-0.16 -1.16" stroke="none" stroke-width="0" fill="#40c05755" fill-rule="evenodd"></path><path d="M-0.11 -0.92 C-3.07 -1.97, -14.88 -8.52, -18.64 -6.81 C-22.4 -5.1, -22.32 -10.8, -22.67 9.36 C-23.02 29.52, -21.13 77.26, -20.75 114.15 C-20.36 151.04, -21.02 209, -20.37 230.7 C-19.72 252.41, -20.2 241.68, -16.84 244.37 C-13.48 247.06, -5.78 247.29, -0.2 246.86 C5.38 246.42, 13.58 245.05, 16.64 241.79 C19.7 238.53, 17.58 248.93, 18.17 227.28 C18.77 205.64, 20.13 148.4, 20.2 111.94 C20.27 75.47, 19.39 28.39, 18.61 8.49 C17.82 -11.4, 18.61 -6.15, 15.48 -7.45 C12.36 -8.75, 2.35 -0.63, -0.13 0.69 M-1.63 1.22 C-4.6 0.31, -15.52 -7.43, -19.17 -5.87 C-22.81 -4.32, -23.33 -9.67, -23.47 10.53 C-23.6 30.74, -20.3 78.59, -19.97 115.34 C-19.65 152.09, -21.73 209.71, -21.51 231.04 C-21.28 252.38, -22.19 240.38, -18.62 243.37 C-15.06 246.36, -5.78 249.27, -0.11 248.99 C5.56 248.72, 12.62 245.05, 15.39 241.72 C18.16 238.39, 15.57 250.69, 16.52 229.02 C17.46 207.35, 20.71 148.38, 21.04 111.7 C21.37 75.02, 19.15 28.93, 18.5 8.93 C17.84 -11.07, 20.18 -6.84, 17.1 -8.29 C14.02 -9.74, 2.85 -1.25, 0.03 0.22" stroke="#ffffff" stroke-width="1" fill="none"></path></g></g><g transform="translate(433.4580113472899 88.0239376365617) rotate(0 11 47)"><text x="0" y="18.5" font-family="Yozai_Light, Segoe UI Emoji" font-size="20px" fill="#000000" text-anchor="start" style="white-space: pre;" direction="ltr">编</text><text x="0" y="42" font-family="Yozai_Light, Segoe UI Emoji" font-size="20px" fill="#000000" text-anchor="start" style="white-space: pre;" direction="ltr">译</text><text x="0" y="65.5" font-family="Yozai_Light, Segoe UI Emoji" font-size="20px" fill="#000000" text-anchor="start" style="white-space: pre;" direction="ltr">原</text><text x="0" y="89" font-family="Yozai_Light, Segoe UI Emoji" font-size="20px" fill="#000000" text-anchor="start" style="white-space: pre;" direction="ltr">理</text></g><g stroke-linecap="round" transform="translate(341.76718284674496 10) rotate(0 24.25 11.75)"><path d="M15.3 1.02 C20.06 -0.05, 27.59 -0.32, 32.52 0.35 C37.45 1.02, 42.27 3.03, 44.87 5.02 C47.47 7.02, 48.82 9.81, 48.15 12.32 C47.47 14.84, 44.64 18.4, 40.8 20.14 C36.97 21.88, 30.43 22.53, 25.13 22.78 C19.83 23.03, 13.04 23.11, 9.01 21.65 C4.98 20.18, 2.11 16.68, 0.94 13.98 C-0.22 11.28, -0.85 7.75, 2 5.44 C4.85 3.13, 14.72 0.94, 18.03 0.13 C21.34 -0.69, 21.72 0.22, 21.88 0.57 M12.88 -0.04 C17.14 -1.07, 24.46 -0.5, 29.67 0.15 C34.87 0.81, 41.07 2.04, 44.1 3.88 C47.13 5.72, 48.28 8.7, 47.87 11.2 C47.47 13.71, 44.83 16.98, 41.68 18.91 C38.54 20.84, 33.98 22.37, 29 22.77 C24.03 23.17, 16.48 22.74, 11.84 21.31 C7.21 19.88, 2.9 16.58, 1.19 14.21 C-0.52 11.84, -0.47 9.17, 1.59 7.07 C3.66 4.97, 11.89 2.73, 13.57 1.6 C15.26 0.48, 11.41 0.07, 11.7 0.34" stroke="none" stroke-width="0" fill="#15aabf55"></path><path d="M26.23 0.87 C30.91 1.17, 36.59 2.39, 40.34 4 C44.09 5.6, 48.1 8.06, 48.71 10.52 C49.32 12.98, 46.96 16.82, 44 18.76 C41.04 20.7, 35.98 21.44, 30.96 22.16 C25.95 22.87, 18.54 23.95, 13.92 23.07 C9.29 22.2, 5.54 19.41, 3.23 16.91 C0.92 14.4, -0.93 10.58, 0.07 8.06 C1.08 5.54, 4.84 3.02, 9.26 1.78 C13.69 0.53, 23.28 0.77, 26.62 0.58 C29.96 0.38, 29.33 0.5, 29.28 0.61 M33.42 0.79 C38.45 1.66, 44.43 4.11, 46.88 6.39 C49.32 8.67, 49.19 11.93, 48.1 14.45 C47 16.96, 44.36 19.93, 40.31 21.49 C36.27 23.05, 29.26 24.14, 23.83 23.82 C18.4 23.51, 11.61 21.16, 7.74 19.62 C3.87 18.08, 1.43 16.71, 0.59 14.59 C-0.25 12.46, 0.04 9.36, 2.69 6.87 C5.35 4.38, 11.28 0.8, 16.53 -0.34 C21.78 -1.48, 31.29 0.01, 34.18 0.04 C37.07 0.07, 34.21 -0.47, 33.86 -0.14" stroke="#000000" stroke-width="1" fill="none"></path></g><g stroke-linecap="round"><g transform="translate(341.76718284674496 26) rotate(0 -0.08540217541155926 127.06208648191766)"><path d="M-0.95 0.19 C-0.76 42.53, 0.61 211.28, 0.78 253.91 M0.75 -0.76 C0.88 41.71, 0.47 212.39, 0.24 254.88" stroke="#000000" stroke-width="1" fill="none"></path></g></g><g stroke-linecap="round"><g transform="translate(389.76718284674496 21) rotate(0 -0.05741626750676687 129.15935118030757)"><path d="M0.19 0.78 C0.03 43.71, -1.22 214.15, -1.09 256.59 M-1.17 0.15 C-0.95 43.37, 0.73 215.5, 1.06 258.17" stroke="#000000" stroke-width="1" fill="none"></path></g></g><g stroke-linecap="round"><g transform="translate(341.26718284674496 283) rotate(0 24.537232841383684 2.143340435755743)"><path d="M0.78 -1.09 C3.33 0.22, 8.5 6.49, 14.34 8 C20.18 9.52, 30.05 10.2, 35.81 8.02 C41.57 5.83, 46.82 -3.03, 48.89 -5.12 M-0.27 0.96 C2.22 1.93, 7.04 5.56, 13.44 6.41 C19.84 7.26, 32.15 7.82, 38.13 6.07 C44.11 4.32, 47.32 -2.41, 49.34 -4.09" stroke="#000000" stroke-width="1" fill="none"></path></g></g><g stroke-linecap="round"><g transform="translate(367.4064017137222 40.272727272727366) rotate(0 -1.048624251143849 120.24694170951747)" fill-rule="evenodd"><path d="M-0.11 1.57 L-15.11 -5.4 L-22.01 -3.3 L-20.02 244.56 L-8.8 246.65 L-0.25 247.68 L20.15 240.34 L21.88 53.84 L17.85 -4.31 L12 -5.58 L-1.63 -0.52" stroke="none" stroke-width="0" fill="#15aabf55" fill-rule="evenodd"></path><path d="M0.09 1 C-3.47 0.37, -16.82 -6.33, -20.54 -4.91 C-24.25 -3.49, -21.98 -10.38, -22.23 9.51 C-22.48 29.4, -22.28 77.71, -22.03 114.41 C-21.78 151.11, -21.38 207.92, -20.72 229.7 C-20.06 251.47, -21.83 242.12, -18.06 245.06 C-14.29 247.99, -3.82 248.09, 1.9 247.31 C7.61 246.53, 13.7 243.62, 16.23 240.37 C18.76 237.12, 16.59 249.2, 17.06 227.82 C17.53 206.44, 18.52 148.43, 19.03 112.09 C19.54 75.74, 20.67 29.53, 20.12 9.74 C19.56 -10.05, 18.89 -4.9, 15.69 -6.64 C12.5 -8.38, 3.62 -1.83, 0.93 -0.72 M-1.32 0.49 C-4.59 -0.4, -14.82 -8.35, -18.39 -6.64 C-21.97 -4.92, -22.2 -9.63, -22.79 10.76 C-23.38 31.16, -22.05 79.28, -21.93 115.74 C-21.8 152.2, -22.9 208.06, -22.05 229.51 C-21.19 250.95, -20.4 241.66, -16.82 244.41 C-13.24 247.17, -6.45 246.83, -0.57 246.02 C5.3 245.21, 15.25 242.25, 18.42 239.55 C21.6 236.86, 18.34 251.11, 18.48 229.84 C18.62 208.57, 18.87 148.43, 19.26 111.93 C19.65 75.43, 21.11 30.67, 20.8 10.84 C20.49 -9, 20.62 -5.55, 17.42 -7.06 C14.23 -8.58, 4.77 0.59, 1.65 1.74" stroke="#ffffff" stroke-width="1" fill="none"></path></g></g><g transform="translate(357.76718284674496 60.5) rotate(0 11 47)"><text x="0" y="18.5" font-family="Yozai_Light, Segoe UI Emoji" font-size="20px" fill="#000000" text-anchor="start" style="white-space: pre;" direction="ltr">系</text><text x="0" y="42" font-family="Yozai_Light, Segoe UI Emoji" font-size="20px" fill="#000000" text-anchor="start" style="white-space: pre;" direction="ltr">统</text><text x="0" y="65.5" font-family="Yozai_Light, Segoe UI Emoji" font-size="20px" fill="#000000" text-anchor="start" style="white-space: pre;" direction="ltr">原</text><text x="0" y="89" font-family="Yozai_Light, Segoe UI Emoji" font-size="20px" fill="#000000" text-anchor="start" style="white-space: pre;" direction="ltr">理</text></g><g stroke-linecap="round" transform="translate(258.3665389229144 75.36935188683418) rotate(0 24.25 11.75)"><path d="M32.21 0.05 C36.77 0.49, 41.46 3.31, 44.01 5.41 C46.55 7.51, 48.14 9.99, 47.47 12.64 C46.81 15.3, 43.88 19.68, 40.02 21.35 C36.17 23.02, 29.5 22.74, 24.34 22.66 C19.18 22.59, 12.98 22.45, 9.08 20.89 C5.17 19.33, 1.84 15.83, 0.9 13.28 C-0.04 10.73, 1.13 7.52, 3.44 5.59 C5.75 3.66, 9.76 2.6, 14.77 1.68 C19.78 0.77, 30.33 0.27, 33.5 0.1 C36.68 -0.07, 34.07 0.28, 33.82 0.66 M29.44 0.4 C34.32 0.49, 39 1.9, 42.27 3.63 C45.53 5.36, 48.73 8.36, 49.03 10.78 C49.32 13.2, 47.62 16.1, 44.04 18.15 C40.46 20.19, 32.86 22.22, 27.53 23.03 C22.2 23.83, 16.4 24.18, 12.05 22.99 C7.71 21.8, 3.31 18.2, 1.47 15.88 C-0.36 13.57, -0.75 11.35, 1.04 9.1 C2.82 6.85, 7.66 3.63, 12.18 2.39 C16.69 1.15, 25.5 1.9, 28.14 1.67 C30.77 1.45, 28.06 1.23, 27.98 1.04" stroke="none" stroke-width="0" fill="#228be655"></path><path d="M33.58 1.13 C38.07 1.87, 42.75 4.1, 45.08 6.32 C47.4 8.53, 48.63 11.82, 47.53 14.41 C46.44 16.99, 42.53 20.2, 38.48 21.84 C34.44 23.47, 28.44 24.54, 23.24 24.2 C18.03 23.87, 11.11 21.64, 7.25 19.84 C3.4 18.04, 0.55 15.83, 0.09 13.4 C-0.38 10.96, 1.46 7.3, 4.44 5.21 C7.42 3.12, 12.31 1.3, 17.98 0.85 C23.66 0.4, 34.53 2.17, 38.5 2.51 C42.46 2.86, 42.14 2.79, 41.77 2.91 M23.73 -1.29 C28.49 -1.78, 34.04 -0.59, 38.21 1.25 C42.39 3.09, 47.38 6.98, 48.77 9.74 C50.17 12.51, 49.09 15.51, 46.58 17.83 C44.06 20.15, 38.92 22.76, 33.66 23.64 C28.4 24.52, 20.3 24.35, 15.02 23.12 C9.73 21.89, 4.27 18.32, 1.97 16.28 C-0.34 14.23, 0.01 13.17, 1.18 10.83 C2.35 8.49, 5.13 4.11, 9 2.21 C12.86 0.31, 22.02 -0.08, 24.38 -0.58 C26.75 -1.07, 23.36 -1.16, 23.19 -0.76" stroke="#000000" stroke-width="1" fill="none"></path></g><g stroke-linecap="round"><g transform="translate(258.3665389229144 91.36935188683418) rotate(0 -0.7255142761023876 127.89581097115762)"><path d="M0.03 0.99 C-0.09 43.4, 0.11 212.96, 0.02 255.32 M-1.41 0.47 C-1.76 42.41, -0.9 210.69, -0.92 253.37" stroke="#000000" stroke-width="1" fill="none"></path></g></g><g stroke-linecap="round"><g transform="translate(306.3665389229144 86.36935188683418) rotate(0 0.2681988198124259 128.1165812588856)"><path d="M0.99 0.02 C0.9 42.67, 0.46 213.42, 0.32 255.99 M0.06 -1.02 C-0.25 41.79, -0.36 214.39, -0.46 257.25" stroke="#000000" stroke-width="1" fill="none"></path></g></g><g stroke-linecap="round"><g transform="translate(257.8665389229144 348.3693518868341) rotate(0 23.40606732441114 2.3392473755042644)"><path d="M0.02 0.32 C2.3 1.35, 7.77 6.05, 13.74 7.16 C19.7 8.28, 30.06 9.04, 35.79 6.99 C41.53 4.93, 46.08 -3.28, 48.17 -5.16 M-1.44 -0.55 C0.64 0.61, 5.93 7.34, 12.52 8.79 C19.11 10.24, 32.16 10.31, 38.11 8.16 C44.07 6.01, 46.8 -2.19, 48.25 -4.13" stroke="#000000" stroke-width="1" fill="none"></path></g></g><g stroke-linecap="round"><g transform="translate(284.0057577898916 105.64207915956155) rotate(0 -1.3488643495583688 120.37177399840697)" fill-rule="evenodd"><path d="M-1.73 -1.81 L-17.13 -4.65 L-22.04 -3.35 L-20.16 244.95 L-8.03 245.27 L1.22 245.25 L16.51 242.88 L21.31 55.04 L18.19 -4.71 L12.33 -7.4 L-1.33 -0.8" stroke="none" stroke-width="0" fill="#228be655" fill-rule="evenodd"></path><path d="M-0.51 0.16 C-3.94 -0.88, -16.81 -7.49, -20.55 -5.94 C-24.29 -4.39, -22.72 -10.63, -22.94 9.48 C-23.17 29.59, -22.32 77.69, -21.89 114.72 C-21.45 151.75, -20.97 210.15, -20.33 231.67 C-19.68 253.19, -21.53 241.16, -18.01 243.82 C-14.49 246.48, -5.13 248.05, 0.79 247.63 C6.7 247.2, 14.5 244.4, 17.5 241.25 C20.5 238.11, 18.23 250.29, 18.78 228.76 C19.33 207.24, 20.53 148.77, 20.79 112.1 C21.06 75.43, 21.11 28.48, 20.37 8.74 C19.63 -11, 19.76 -4.85, 16.36 -6.36 C12.96 -7.87, 2.64 -1.33, -0.03 -0.29 M1.42 -0.79 C-1.65 -1.69, -14.2 -6.46, -18.41 -4.55 C-22.63 -2.63, -23.33 -8.8, -23.88 10.72 C-24.43 30.23, -22.12 75.58, -21.71 112.55 C-21.3 149.52, -22.27 210.85, -21.44 232.52 C-20.62 254.18, -20.55 240.2, -16.74 242.53 C-12.94 244.86, -4.18 246.78, 1.39 246.51 C6.96 246.24, 14.02 244.05, 16.7 240.9 C19.37 237.75, 17.18 249.11, 17.44 227.62 C17.71 206.13, 17.66 148.33, 18.28 111.95 C18.9 75.56, 21.16 29.07, 21.19 9.31 C21.21 -10.45, 21.95 -4.87, 18.44 -6.63 C14.94 -8.4, 3.28 -2.31, 0.18 -1.27" stroke="#ffffff" stroke-width="1" fill="none"></path></g></g><g transform="translate(274.3665389229144 125.86935188683418) rotate(0 11 47)"><text x="0" y="18.5" font-family="Yozai_Light, Segoe UI Emoji" font-size="20px" fill="#000000" text-anchor="start" style="white-space: pre;" direction="ltr">操</text><text x="0" y="42" font-family="Yozai_Light, Segoe UI Emoji" font-size="20px" fill="#000000" text-anchor="start" style="white-space: pre;" direction="ltr">作</text><text x="0" y="65.5" font-family="Yozai_Light, Segoe UI Emoji" font-size="20px" fill="#000000" text-anchor="start" style="white-space: pre;" direction="ltr">系</text><text x="0" y="89" font-family="Yozai_Light, Segoe UI Emoji" font-size="20px" fill="#000000" text-anchor="start" style="white-space: pre;" direction="ltr">统</text></g><g stroke-linecap="round" transform="translate(167.59226499037834 77.94972104026158) rotate(0 24.25 11.75)"><path d="M22.14 0.25 C26.97 -0.25, 34.98 0.23, 39.1 1.84 C43.21 3.44, 45.75 7.44, 46.83 9.9 C47.92 12.36, 47.78 14.64, 45.61 16.61 C43.45 18.59, 38.43 20.77, 33.84 21.74 C29.25 22.71, 23.09 23.13, 18.09 22.45 C13.08 21.77, 6.8 19.7, 3.83 17.66 C0.86 15.61, -0.22 12.66, 0.28 10.19 C0.77 7.73, 2.89 4.44, 6.81 2.89 C10.72 1.34, 20.57 1.5, 23.74 0.91 C26.91 0.33, 25.83 -0.63, 25.85 -0.64 M17.33 0.71 C21.49 -0.28, 27.65 -1.17, 32.21 -0.06 C36.76 1.05, 42.1 5.12, 44.64 7.37 C47.18 9.63, 48.18 11.03, 47.45 13.49 C46.72 15.94, 44.4 20.56, 40.26 22.1 C36.12 23.63, 28.13 22.87, 22.62 22.7 C17.12 22.52, 10.99 22.61, 7.23 21.05 C3.46 19.48, 0.72 15.91, 0.02 13.32 C-0.68 10.74, 0.15 7.67, 3.05 5.55 C5.94 3.44, 15.29 1.29, 17.39 0.64 C19.5 0, 15.47 1.54, 15.68 1.66" stroke="none" stroke-width="0" fill="#4c6ef555"></path><path d="M16.95 -0.23 C21.71 -1.02, 29.5 0.85, 34.26 1.84 C39.01 2.83, 43.06 3.51, 45.48 5.71 C47.89 7.91, 49.91 12.34, 48.75 15.03 C47.6 17.71, 42.92 20.27, 38.55 21.83 C34.18 23.39, 27.78 24.73, 22.53 24.37 C17.27 24.01, 10.78 21.37, 7.01 19.67 C3.23 17.98, 0.27 16.44, -0.11 14.2 C-0.48 11.96, 1.11 8.6, 4.74 6.23 C8.37 3.85, 18.39 0.91, 21.69 -0.06 C24.99 -1.03, 24.44 0.35, 24.53 0.4 M29.41 0.64 C34.32 1.17, 41.3 4.51, 44.49 6.42 C47.67 8.33, 48.91 9.99, 48.53 12.11 C48.14 14.24, 45.84 17.24, 42.17 19.17 C38.51 21.11, 32.01 23.3, 26.53 23.73 C21.04 24.17, 13.43 23.23, 9.27 21.79 C5.1 20.34, 2.9 17.33, 1.51 15.07 C0.12 12.8, -1.12 10.64, 0.93 8.18 C2.99 5.72, 8.98 1.84, 13.83 0.32 C18.68 -1.19, 27.36 -1.19, 30.03 -0.91 C32.7 -0.63, 29.77 1.59, 29.86 2" stroke="#000000" stroke-width="1" fill="none"></path></g><g stroke-linecap="round"><g transform="translate(168.45238804152086 95.23990561697542) rotate(0 -0.30827835355881916 127.43802242539823)"><path d="M0.61 -0.73 C0.48 41.91, -0.07 213.14, -0.19 255.61 M-0.52 1.5 C-0.88 43.81, -1.18 211.57, -1.23 253.8" stroke="#000000" stroke-width="1" fill="none"></path></g></g><g stroke-linecap="round"><g transform="translate(216.88244956709218 90.23990561697542) rotate(0 0.18075797871472332 128.31366765987127)"><path d="M-0.73 -0.19 C-0.59 42.45, 0.64 213.53, 0.61 256.45 M1.09 -1.33 C1.14 41.46, -0.09 215.16, -0.03 257.96" stroke="#000000" stroke-width="1" fill="none"></path></g></g><g stroke-linecap="round"><g transform="translate(167.95238804152086 352.2399056169755) rotate(0 23.22780490947889 1.6434724667079195)"><path d="M-0.19 0.61 C2.08 1.74, 7.88 4.78, 14.2 6.08 C20.51 7.38, 32.07 10.37, 37.72 8.39 C43.38 6.42, 46.18 -3.67, 48.14 -5.76 M-1.74 -0.12 C0.3 1.2, 6.7 6, 13.22 7.13 C19.74 8.26, 31.56 8.67, 37.39 6.64 C43.22 4.61, 46.34 -3.4, 48.2 -5.06" stroke="#000000" stroke-width="1" fill="none"></path></g></g><g stroke-linecap="round"><g transform="translate(193.23148385735544 108.65250983856046) rotate(0 -1.1145747549642238 120.11333304460369)" fill-rule="evenodd"><path d="M0.33 0.58 L-13.34 -5.44 L-23.12 -3.96 L-21.76 243.96 L-8.87 245.41 L1.37 248.06 L18.8 239.99 L21.84 54.14 L17.99 -5.87 L11.37 -7.01 L1.85 1.01" stroke="none" stroke-width="0" fill="#4c6ef555" fill-rule="evenodd"></path><path d="M-0.05 -0.92 C-3.13 -1.78, -14.8 -6.17, -18.62 -4.53 C-22.44 -2.9, -22.62 -11.02, -22.98 8.88 C-23.33 28.77, -20.99 77.71, -20.75 114.84 C-20.51 151.98, -21.9 209.94, -21.52 231.69 C-21.14 253.44, -22.04 242.92, -18.48 245.36 C-14.92 247.79, -6.01 246.81, -0.14 246.32 C5.72 245.83, 13.46 245.23, 16.7 242.39 C19.93 239.55, 18.6 251.12, 19.25 229.28 C19.91 207.43, 20.8 147.93, 20.64 111.34 C20.47 74.75, 18.78 29.58, 18.27 9.72 C17.75 -10.14, 20.48 -6.21, 17.54 -7.82 C14.6 -9.42, 3.4 -1.08, 0.62 0.09 M-1.54 1.21 C-4.68 -0.01, -15.4 -7.49, -19.13 -6.06 C-22.86 -4.63, -23.79 -10.01, -23.93 9.79 C-24.07 29.59, -20.7 75.61, -19.97 112.74 C-19.25 149.86, -20.02 210.53, -19.61 232.55 C-19.19 254.57, -20.73 242.27, -17.46 244.87 C-14.2 247.47, -5.51 248.55, -0.02 248.18 C5.47 247.81, 12.45 245.94, 15.48 242.64 C18.51 239.35, 17.12 250.38, 18.16 228.4 C19.2 206.43, 21.74 147.06, 21.71 110.79 C21.68 74.53, 18.83 30.13, 17.98 10.8 C17.12 -8.53, 19.38 -3.28, 16.58 -5.2 C13.78 -7.11, 3.84 -1.31, 1.17 -0.68" stroke="#ffffff" stroke-width="1" fill="none"></path></g></g><g transform="translate(184.45238804152086 129.73990561697542) rotate(0 11 35.5)"><text x="0" y="17.666666666666668" font-family="Yozai_Light, Segoe UI Emoji" font-size="20px" fill="#000000" text-anchor="start" style="white-space: pre;" direction="ltr">微</text><text x="0" y="41.333333333333336" font-family="Yozai_Light, Segoe UI Emoji" font-size="20px" fill="#000000" text-anchor="start" style="white-space: pre;" direction="ltr">架</text><text x="0" y="65" font-family="Yozai_Light, Segoe UI Emoji" font-size="20px" fill="#000000" text-anchor="start" style="white-space: pre;" direction="ltr">构</text></g><g stroke-linecap="round"><g transform="translate(50.727546261237876 319.622620235127) rotate(0 273.7405481742129 -41.00954370498155)"><path d="M-2.72 -2.56 C20.67 -0.04, 90.98 13.7, 141.13 14.49 C191.28 15.28, 250.76 9.21, 298.18 2.16 C345.6 -4.89, 383.99 -15.2, 425.65 -27.81 C467.31 -40.42, 535.39 -62.49, 548.15 -73.5 C560.91 -84.5, 510.28 -90.95, 502.2 -93.84 M1 2.22 C23.83 3.94, 89.14 10.89, 138.23 10.11 C187.33 9.33, 248.77 3.56, 295.58 -2.45 C342.39 -8.45, 377.47 -14.02, 419.07 -25.91 C460.68 -37.8, 532.15 -62.01, 545.18 -73.79 C558.22 -85.56, 504.79 -93.43, 497.3 -96.58" stroke="#c92a2a" stroke-width="1" fill="none"></path></g></g><g stroke-linecap="round"><g transform="translate(57.683305812141725 178.5354285890786) rotate(0 275.45407258500177 -44.988799427491955)"><path d="M-0.26 1.48 C23.15 4.41, 91.91 16.8, 142.15 15.74 C192.38 14.67, 254.53 2.93, 301.16 -4.91 C347.79 -12.74, 380.64 -19.07, 421.91 -31.29 C463.18 -43.51, 530.08 -66.33, 548.76 -78.23 C567.44 -90.13, 536.77 -98.47, 534.01 -102.68 M-3.85 -0.18 C19.02 2.17, 89.09 12.32, 139.8 12.03 C190.51 11.74, 253.3 4.8, 300.41 -1.91 C347.51 -8.62, 381.46 -15.82, 422.41 -28.23 C463.37 -40.65, 528.19 -63.49, 546.12 -76.42 C564.06 -89.34, 532.05 -102, 530.03 -105.78" stroke="#c92a2a" stroke-width="1" fill="none"></path></g></g><g stroke-linecap="round"><g transform="translate(591.7449454299042 73.19736608278538) rotate(0 -18.862625941665556 -9.846489990855588)"><path d="M1.09 2.65 C-4.78 -1.42, -29.86 -18.78, -36.27 -22.34 M-1.76 1.62 C-7.96 -2.31, -33.87 -15.5, -38.82 -19.63" stroke="#c92a2a" stroke-width="1" fill="none"></path></g><g transform="translate(591.7449454299042 73.19736608278538) rotate(0 -18.862625941665556 -9.846489990855588)"><path d="M-14.88 -16.11 C-26.46 -18.66, -26.54 -17.75, -38.81 -17.3 M-19.55 -16.97 C-25.26 -17.52, -31.45 -20.02, -39.61 -20.27" stroke="#c92a2a" stroke-width="1" fill="none"></path></g><g transform="translate(591.7449454299042 73.19736608278538) rotate(0 -18.862625941665556 -9.846489990855588)"><path d="M-22.39 -4.17 C-32.17 -9.92, -30.27 -12.16, -38.81 -17.3 M-27.06 -5.03 C-30.38 -9.14, -34.27 -15.29, -39.61 -20.27" stroke="#c92a2a" stroke-width="1" fill="none"></path></g></g><g stroke-linecap="round"><g transform="translate(494.12097912522404 219.8483463025907) rotate(0 -10.906455109522483 0.7888623537517421)"><path d="M-1.14 2.19 C-5.18 2.93, -20.07 3.4, -24.29 3.11 M3.43 0.91 C-0.75 0.86, -19.97 -1.86, -25.25 -1.61" stroke="#c92a2a" stroke-width="1" fill="none"></path></g></g><g stroke-linecap="round"><g transform="translate(414.559596894538 219.8483463025907) rotate(0 -11.024154668782273 0.9748770262749917)"><path d="M-1.36 1.86 C-5.65 2.41, -18.96 3.55, -23.02 3.06 M3.1 0.4 C-1.79 0.13, -21.26 -1.25, -25.15 -1.23" stroke="#c92a2a" stroke-width="1" fill="none"></path></g></g><g stroke-linecap="round"><g transform="translate(339.7288914451359 222.42871545601838) rotate(0 -17.597327024877416 1.1429242588746344)"><path d="M-0.01 1.81 C-5.55 2.11, -29.38 3.43, -35.19 3.52 M-3.46 0.32 C-7.95 -0.4, -25.66 -1.82, -29.91 -0.98" stroke="#c92a2a" stroke-width="1" fill="none"></path></g></g><g stroke-linecap="round"><g transform="translate(255.0067709075944 224.57902308387474) rotate(0 -19.09771374246003 -2.639480606358659)"><path d="M2.26 -1.1 C-3.99 -1.69, -31.8 -4.02, -38.99 -3.73 M0.04 -4.16 C-6.31 -4.44, -33.29 -1.28, -40.45 -1.19" stroke="#c92a2a" stroke-width="1" fill="none"></path></g></g><g stroke-linecap="round"><g transform="translate(164.6938505376263 219.8483463025907) rotate(0 -16.582383662988434 -0.06650607213538251)"><path d="M-1.44 0.14 C-3.91 -0.49, -11.72 -2.6, -17.5 -2.23 C-23.28 -1.87, -33.35 2.19, -36.14 2.31 M2.97 -2.26 C0.6 -2.76, -12.85 0.1, -18.38 0.07 C-23.92 0.04, -27.72 -2.4, -30.24 -2.44" stroke="#c92a2a" stroke-width="1" fill="none"></path></g></g><g stroke-linecap="round"><g transform="translate(79.11160694894227 215.54773104687797) rotate(0 -34.14858517112606 -17.35997203887701)"><path d="M0.81 1.67 C-5.19 0.1, -24.41 -3.47, -35.59 -7.16 C-46.76 -10.86, -62.59 -16.27, -66.25 -20.49 C-69.91 -24.71, -64.51 -29.84, -57.53 -32.49 C-50.54 -35.14, -29.26 -35.86, -24.32 -36.39 M-2.19 0.11 C-8.46 -1.18, -25.96 -0.42, -36.95 -3.57 C-47.94 -6.71, -64.55 -14.37, -68.11 -18.76 C-71.67 -23.14, -65.13 -27.1, -58.32 -29.87 C-51.5 -32.64, -32.61 -34.08, -27.22 -35.38" stroke="#c92a2a" stroke-width="1" fill="none"></path></g></g><g transform="translate(435.20255012195935 337.7164963461175) rotate(0 64.5 12.5)"><text x="0" y="18" font-family="Virgil, Segoe UI Emoji" font-size="20px" fill="#e6770055" text-anchor="start" style="white-space: pre;" direction="ltr">@hemashushu</text></g></svg>