<svg version="1.1" xmlns="http://www.w3.org/2000/svg" viewBox="0 0 714.2857142857142 621.6923840709633" width="1428.5714285714284" height="1243.3847681419265">
  <!-- svg-source:excalidraw -->
  
  <defs>
    <style class="style-fonts">
      @font-face {
        font-family: "Virgil";
        src: url("https://excalidraw.com/Virgil.woff2");
      }
      @font-face {
        font-family: "Cascadia";
        src: url("https://excalidraw.com/Cascadia.woff2");
      }
    </style>
  </defs>
  <rect x="0" y="0" width="714.2857142857142" height="621.6923840709633" fill="#ffffff"></rect><g stroke-linecap="round" transform="translate(10 10) rotate(0 347.1428571428571 232.49999999999994)"><path d="M32 0 L662.29 0 L669.79 0.5 L676.29 2 L681.79 4.5 L686.29 8 L689.79 12.5 L692.29 18 L693.79 24.5 L694.29 32 L694.29 433 L693.79 440.5 L692.29 447 L689.79 452.5 L686.29 457 L681.79 460.5 L676.29 463 L669.79 464.5 L662.29 465 L32 465 L24.5 464.5 L18 463 L12.5 460.5 L8 457 L4.5 452.5 L2 447 L0.5 440.5 L0 433 L0 32 L0.5 24.5 L2 18 L4.5 12.5 L8 8 L12.5 4.5 L18 2 L24.5 0.5 L32 0" stroke="none" stroke-width="0" fill="#82c91e11"></path><path d="M32 0 M32 0 C177.46 0, 322.93 0, 662.29 0 M662.29 0 C683.62 0, 694.29 10.67, 694.29 32 M694.29 32 C694.29 142.26, 694.29 252.52, 694.29 433 M694.29 433 C694.29 454.33, 683.62 465, 662.29 465 M662.29 465 C428.02 465, 193.75 465, 32 465 M32 465 C10.67 465, 0 454.33, 0 433 M0 433 C0 287.44, 0 141.88, 0 32 M0 32 C0 10.67, 10.67 0, 32 0" stroke="#2b8a3e" stroke-width="1.5" fill="none" stroke-dasharray="1.5 7"></path></g><g stroke-opacity="0.3" fill-opacity="0.3" transform="translate(280.2885831718896 578.0923840709632) rotate(0 88.984375 16.80000000000001)"><text x="0" y="0" font-family="Virgil, Segoe UI Emoji" font-size="28px" fill="#e67700" text-anchor="start" style="white-space: pre;" direction="ltr" dominant-baseline="text-before-edge">@hemashushu</text></g><g stroke-linecap="round" transform="translate(210.80357142857133 47.38392857142844) rotate(0 151.92857142857144 66)"><path d="M33.87 -1.93 L272.24 -0.26 L285.4 2.09 L294.35 8.46 L298.34 13.49 L304.86 23.02 L305.28 100.44 L302.96 112.6 L297.39 118.65 L292.3 127.94 L287.79 128.89 L272.46 130.86 L32.17 130.52 L17.6 129.74 L14.22 129.44 L5.88 119.51 L2.01 105.62 L1.84 24.16 L2.41 19.08 L6.8 9.77 L19.2 3.93 L33.04 0.45" stroke="none" stroke-width="0" fill="#ced4da55"></path><path d="M32 0 M32 0 C112.26 1.87, 190.15 1.24, 271.86 0 M32 0 C96.14 1.03, 159.79 1.04, 271.86 0 M271.86 0 C294.09 -1.42, 303.07 11.62, 303.86 32 M271.86 0 C295.3 -0.94, 302.31 12.42, 303.86 32 M303.86 32 C303.71 58.29, 305.18 84.23, 303.86 100 M303.86 32 C302.52 45.09, 303.33 60.25, 303.86 100 M303.86 100 C302.3 123.17, 293.23 131.83, 271.86 132 M303.86 100 C302.61 120.58, 293.8 133.02, 271.86 132 M271.86 132 C175.19 131.81, 81.12 133.16, 32 132 M271.86 132 C202.13 132, 133.92 131.15, 32 132 M32 132 C12.36 133.18, 1.01 122.33, 0 100 M32 132 C12.5 133.06, -0.45 121.97, 0 100 M0 100 C-1.31 78.57, 0.74 56.73, 0 32 M0 100 C1.19 77.8, 1.46 54.86, 0 32 M0 32 C-0.5 11.92, 10.81 1.22, 32 0 M0 32 C-0.65 11.15, 9.96 0.48, 32 0" stroke="#495057" stroke-width="1" fill="none"></path></g><g stroke-linecap="round" transform="translate(211.46428571428623 314.17857142857156) rotate(0 147 62.85714285714289)"><path d="M33.35 0.89 L263.35 1.86 L275.97 1.82 L286.88 7.1 L288.19 13.75 L293.84 23.01 L295.59 95.14 L290.85 107.13 L287.47 115.99 L281.13 122.18 L276.82 122.3 L263.82 126.27 L31.14 126.09 L17.09 125.17 L9.37 116.8 L5.34 115.3 L-1.11 100.32 L1.21 23.37 L5.2 13.3 L13.98 2.68 L25.08 1.02 L30.14 -1.72" stroke="none" stroke-width="0" fill="#82c91e33"></path><path d="M31.43 0 M31.43 0 C118.81 -0.05, 201.49 1.28, 262.57 0 M31.43 0 C90.69 0.05, 148.78 1.57, 262.57 0 M262.57 0 C284.81 -0.54, 292.34 8.78, 294 31.43 M262.57 0 C281.93 1.64, 296.08 12.06, 294 31.43 M294 31.43 C294.47 47.82, 292.03 67.29, 294 94.29 M294 31.43 C294.11 51.22, 293.6 70.61, 294 94.29 M294 94.29 C292.27 114.65, 282.87 124.14, 262.57 125.71 M294 94.29 C295 113.5, 285.11 127.01, 262.57 125.71 M262.57 125.71 C182.95 125.81, 105.99 125.11, 31.43 125.71 M262.57 125.71 C169.89 127, 79.56 125.97, 31.43 125.71 M31.43 125.71 C10.71 125.51, 1.52 115.77, 0 94.29 M31.43 125.71 C9.62 126.01, 2.23 115.65, 0 94.29 M0 94.29 C0.91 71.48, -1.24 50.31, 0 31.43 M0 94.29 C0.41 74.86, 1.29 56.41, 0 31.43 M0 31.43 C1.62 10.47, 12.2 -1.08, 31.43 0 M0 31.43 C-0.65 9.95, 10.87 2.29, 31.43 0" stroke="#5c940d" stroke-width="1" fill="none"></path></g><g transform="translate(172.03241620744984 515.6464285714285) rotate(0 211.80686950683594 16.80000000000001)"><text x="211.80686950683594" y="0" font-family="Virgil, Segoe UI Emoji" font-size="28px" fill="#5c940d" text-anchor="middle" style="white-space: pre;" direction="ltr" dominant-baseline="text-before-edge">Minimal Linux Operating System</text></g><g stroke-linecap="round"><g transform="translate(16.714285714285666 254.142857142857) rotate(0 342.1054995569799 -0.07896765415139839)"><path d="M-0.43 1.07 C113.67 1.31, 570.18 -1.02, 684.65 -1.24" stroke="#1864ab" stroke-width="1.5" fill="none" stroke-dasharray="1.5 7"></path></g></g><mask></mask><g transform="translate(275.4802300589424 72.3428571428571) rotate(0 80.9483413696289 16.799999999999997)"><text x="80.9483413696289" y="0" font-family="Virgil, Segoe UI Emoji" font-size="28px" fill="#343a40" text-anchor="middle" style="white-space: pre;" direction="ltr" dominant-baseline="text-before-edge">Linux Kernel</text></g><g transform="translate(244.01727621895907 119.42857142857144) rotate(0 113.8398666381836 12)"><text x="113.8398666381836" y="0" font-family="Virgil, Segoe UI Emoji" font-size="20px" fill="#343a40" text-anchor="middle" style="white-space: pre;" direction="ltr" dominant-baseline="text-before-edge">/arch/riscv/boot/Image</text></g><g transform="translate(241.3497913905553 345.2) rotate(0 119.36449432373047 16.80000000000001)"><text x="119.36449432373047" y="0" font-family="Virgil, Segoe UI Emoji" font-size="28px" fill="#2b8a3e" text-anchor="middle" style="white-space: pre;" direction="ltr" dominant-baseline="text-before-edge">BusyBox Program</text></g><g transform="translate(302.36864253452836 395.5142857142858) rotate(0 59.05992889404297 12)"><text x="59.05992889404297" y="0" font-family="Virgil, Segoe UI Emoji" font-size="20px" fill="#2b8a3e" text-anchor="middle" style="white-space: pre;" direction="ltr" dominant-baseline="text-before-edge">/bin/busybox</text></g><g transform="translate(552.4457789829801 202.85714285714283) rotate(0 61.839935302734375 12)"><text x="61.839935302734375" y="0" font-family="Virgil, Segoe UI Emoji" font-size="20px" fill="#495057" text-anchor="middle" style="white-space: pre;" direction="ltr" dominant-baseline="text-before-edge">Kernel Space</text></g><g transform="translate(45.20435224260575 277.2857142857143) rotate(0 55.50993347167969 12)"><text x="55.50993347167969" y="0" font-family="Virgil, Segoe UI Emoji" font-size="20px" fill="#2b8a3e" text-anchor="middle" style="white-space: pre;" direction="ltr" dominant-baseline="text-before-edge">User Space</text></g><g stroke-linecap="round"><g transform="translate(351.5503952180002 187.85714285714283) rotate(0 -1.4418733544007978 57.721741817263634)"><path d="M0.3 2.3 C-0.15 21.37, -0.42 95.78, -0.93 114.37 M-2.98 1.07 C-3.8 19.27, -1.93 90.46, -2.19 109.79" stroke="#2b8a3e" stroke-width="1" fill="none"></path></g><g transform="translate(351.5503952180002 187.85714285714283) rotate(0 -1.4418733544007978 57.721741817263634)"><path d="M13.56 33.16 C7.81 20.33, 3.39 6.26, -0.95 2.47 M8.66 28.82 C8.58 19.84, 4.17 12.49, 0.32 2.07" stroke="#2b8a3e" stroke-width="1" fill="none"></path></g><g transform="translate(351.5503952180002 187.85714285714283) rotate(0 -1.4418733544007978 57.721741817263634)"><path d="M-6.96 32.96 C-5.26 20.15, -2.24 6.16, -0.95 2.47 M-11.86 28.61 C-5.64 19.92, -3.75 12.64, 0.32 2.07" stroke="#2b8a3e" stroke-width="1" fill="none"></path></g><g transform="translate(351.5503952180002 187.85714285714283) rotate(0 -1.4418733544007978 57.721741817263634)"><path d="M-9.38 84.25 C-7.73 91.85, -4.73 98.26, -3.44 109.97 M-14.28 79.91 C-7.13 88.46, -5.26 98.42, -2.17 109.56" stroke="#2b8a3e" stroke-width="1" fill="none"></path></g><g transform="translate(351.5503952180002 187.85714285714283) rotate(0 -1.4418733544007978 57.721741817263634)"><path d="M11.15 84.1 C5.34 91.79, 0.89 98.26, -3.44 109.97 M6.24 79.76 C7.09 88.13, 2.67 98.14, -2.17 109.56" stroke="#2b8a3e" stroke-width="1" fill="none"></path></g></g><mask></mask></svg>