<svg version="1.1" xmlns="http://www.w3.org/2000/svg" viewBox="0 0 714.2857142857142 543.6923840709633" width="1428.5714285714284" height="1087.3847681419265">
  <!-- svg-source:excalidraw -->
  
  <defs>
    <style class="style-fonts">
      @font-face {
        font-family: "Virgil";
        src: url("https://excalidraw.com/Virgil.woff2");
      }
      @font-face {
        font-family: "Cascadia";
        src: url("https://excalidraw.com/Cascadia.woff2");
      }
      @font-face {
        font-family: "Assistant";
        src: url("https://excalidraw.com/Assistant-Regular.woff2");
      }
    </style>
    
  </defs>
  <g stroke-linecap="round" transform="translate(10 10) rotate(0 347.1428571428571 232.49999999999994)"><path d="M32 0 C264.83 0, 497.66 0, 662.29 0 C683.62 0, 694.29 10.67, 694.29 32 C694.29 182.35, 694.29 332.71, 694.29 433 C694.29 454.33, 683.62 465, 662.29 465 C486.65 465, 311.02 465, 32 465 C10.67 465, 0 454.33, 0 433 C0 283.52, 0 134.05, 0 32 C0 10.67, 10.67 0, 32 0" stroke="none" stroke-width="0" fill="#82c91e11"></path><path d="M32 0 C282.51 0, 533.01 0, 662.29 0 M662.29 0 C683.62 0, 694.29 10.67, 694.29 32 M694.29 32 C694.29 116.5, 694.29 201, 694.29 433 M694.29 433 C694.29 454.33, 683.62 465, 662.29 465 M662.29 465 C438.24 465, 214.2 465, 32 465 M32 465 C10.67 465, 0 454.33, 0 433 M0 433 C0 291.66, 0 150.32, 0 32 M0 32 C0 10.67, 10.67 0, 32 0" stroke="#2b8a3e" stroke-width="1.5" fill="none" stroke-dasharray="1.5 7"></path></g><g stroke-opacity="0.5" fill-opacity="0.5" transform="translate(285.7885831718896 500.09238407096325) rotate(0 88.984375 16.80000000000001)"><text x="0" y="0" font-family="Virgil, Segoe UI Emoji" font-size="28px" fill="#e67700" text-anchor="start" style="white-space: pre;" direction="ltr" dominant-baseline="text-before-edge">@hemashushu</text></g><g stroke-linecap="round" transform="translate(210.80357142857133 47.38392857142844) rotate(0 151.92857142857144 66)"><path d="M32 0 C126.07 -0.75, 224.82 1.67, 271.86 0 C292.75 3.23, 303.48 7.67, 303.86 32 C307.1 56.24, 305.88 78.01, 303.86 100 C306.72 122.99, 292.48 132.99, 271.86 132 C196.11 134.83, 124.42 133.87, 32 132 C11.83 128.86, -0.59 123.49, 0 100 C-1.96 79.07, -0.8 55.84, 0 32 C-1.02 11.42, 9.56 0.75, 32 0" stroke="none" stroke-width="0" fill="#ced4da55"></path><path d="M32 0 C126.19 -0.76, 220.9 -1.63, 271.86 0 M32 0 C110.12 -1.61, 187.58 -0.81, 271.86 0 M271.86 0 C294.3 -1.4, 301.89 9.81, 303.86 32 M271.86 0 C294.28 0.51, 306.09 9.39, 303.86 32 M303.86 32 C301.99 54.06, 303.21 78.64, 303.86 100 M303.86 32 C305.08 58.07, 304.99 85.85, 303.86 100 M303.86 100 C304.27 122.42, 291.99 133.77, 271.86 132 M303.86 100 C305.24 123.55, 294.39 132.52, 271.86 132 M271.86 132 C193.08 132.4, 111.93 131.77, 32 132 M271.86 132 C207.84 130.23, 143.35 130.24, 32 132 M32 132 C11.57 130.58, -0.79 122.29, 0 100 M32 132 C12.77 131.06, -1.55 123.09, 0 100 M0 100 C-1.11 73.11, 0.36 45.87, 0 32 M0 100 C-0.14 85.25, 0.67 72.58, 0 32 M0 32 C-1.56 12.5, 10.71 -0.17, 32 0 M0 32 C-1.25 9.92, 11.28 1.02, 32 0" stroke="#495057" stroke-width="1" fill="none"></path></g><g stroke-linecap="round" transform="translate(211.46428571428623 314.17857142857156) rotate(0 147 62.85714285714289)"><path d="M31.43 0 C107.51 -1.56, 188.38 -2.83, 262.57 0 C287.03 1.18, 294.9 6.88, 294 31.43 C295.29 55.8, 297.6 81.88, 294 94.29 C292.66 115.71, 287.02 126.36, 262.57 125.71 C184.55 120.16, 102.39 120.59, 31.43 125.71 C10.25 122.76, 0.96 114.84, 0 94.29 C2.04 81.48, 2.23 66.77, 0 31.43 C-1.01 9.66, 11.09 3.59, 31.43 0" stroke="none" stroke-width="0" fill="#82c91e33"></path><path d="M31.43 0 C124.59 -1.06, 214.47 -0.14, 262.57 0 M31.43 0 C92.13 -1.89, 153.24 -1.08, 262.57 0 M262.57 0 C282.34 -0.91, 295.33 8.61, 294 31.43 M262.57 0 C282.85 1.01, 294.57 8.81, 294 31.43 M294 31.43 C294.55 53.63, 295.6 78.52, 294 94.29 M294 31.43 C293.49 46.3, 294.65 62.16, 294 94.29 M294 94.29 C294.78 116.26, 285.23 123.98, 262.57 125.71 M294 94.29 C295.17 115.85, 282.04 123.74, 262.57 125.71 M262.57 125.71 C178.57 122.72, 89.86 124.05, 31.43 125.71 M262.57 125.71 C204.31 124.22, 144.88 125.74, 31.43 125.71 M31.43 125.71 C11.76 125.17, -1.66 113.55, 0 94.29 M31.43 125.71 C8.88 127.36, 2.08 116.82, 0 94.29 M0 94.29 C1.64 75.31, -0.81 59.41, 0 31.43 M0 94.29 C1.25 73.95, 0.74 53.2, 0 31.43 M0 31.43 C-1.73 9.89, 9.83 -1.57, 31.43 0 M0 31.43 C1 8.74, 12.06 1.3, 31.43 0" stroke="#5c940d" stroke-width="1" fill="none"></path></g><g stroke-linecap="round"><g transform="translate(16.714285714285666 254.142857142857) rotate(0 342.14285714285705 0)"><path d="M-0.43 1.07 C113.67 1.31, 570.18 -1.02, 684.65 -1.24" stroke="#1864ab" stroke-width="1.5" fill="none" stroke-dasharray="1.5 7"></path></g></g><mask></mask><g transform="translate(275.4802300589424 72.3428571428571) rotate(0 80.9483413696289 16.799999999999997)"><text x="80.9483413696289" y="0" font-family="Virgil, Segoe UI Emoji" font-size="28px" fill="#343a40" text-anchor="middle" style="white-space: pre;" direction="ltr" dominant-baseline="text-before-edge">Linux Kernel</text></g><g transform="translate(244.01727621895907 119.42857142857144) rotate(0 113.8398666381836 12)"><text x="113.8398666381836" y="0" font-family="Virgil, Segoe UI Emoji" font-size="20px" fill="#343a40" text-anchor="middle" style="white-space: pre;" direction="ltr" dominant-baseline="text-before-edge">/arch/riscv/boot/Image</text></g><g transform="translate(241.3497913905553 345.2) rotate(0 119.36449432373047 16.80000000000001)"><text x="119.36449432373047" y="0" font-family="Virgil, Segoe UI Emoji" font-size="28px" fill="#2b8a3e" text-anchor="middle" style="white-space: pre;" direction="ltr" dominant-baseline="text-before-edge">BusyBox Program</text></g><g transform="translate(302.36864253452836 395.5142857142858) rotate(0 59.05992889404297 12)"><text x="59.05992889404297" y="0" font-family="Virgil, Segoe UI Emoji" font-size="20px" fill="#2b8a3e" text-anchor="middle" style="white-space: pre;" direction="ltr" dominant-baseline="text-before-edge">/bin/busybox</text></g><g transform="translate(552.4457789829801 202.85714285714283) rotate(0 61.839935302734375 12)"><text x="61.839935302734375" y="0" font-family="Virgil, Segoe UI Emoji" font-size="20px" fill="#495057" text-anchor="middle" style="white-space: pre;" direction="ltr" dominant-baseline="text-before-edge">Kernel Space</text></g><g transform="translate(45.20435224260575 277.2857142857143) rotate(0 55.50993347167969 12)"><text x="55.50993347167969" y="0" font-family="Virgil, Segoe UI Emoji" font-size="20px" fill="#2b8a3e" text-anchor="middle" style="white-space: pre;" direction="ltr" dominant-baseline="text-before-edge">User Space</text></g><g stroke-linecap="round"><g transform="translate(351.5503952180002 187.85714285714283) rotate(0 -1.3638313492880343 56.785714285714306)"><path d="M0.3 2.3 C-0.15 21.37, -0.42 95.78, -0.93 114.37 M-2.98 1.07 C-3.8 19.27, -1.93 90.46, -2.19 109.79" stroke="#2b8a3e" stroke-width="1" fill="none"></path></g><g transform="translate(351.5503952180002 187.85714285714283) rotate(0 -1.3638313492880343 56.785714285714306)"><path d="M10.26 27.16 C6.18 17.32, 2.76 6.86, -0.32 2.38 M7.81 24.99 C6.79 17.61, 3.56 11.05, 0.31 2.18" stroke="#2b8a3e" stroke-width="1" fill="none"></path></g><g transform="translate(351.5503952180002 187.85714285714283) rotate(0 -1.3638313492880343 56.785714285714306)"><path d="M-6.84 26.99 C-4.72 17.19, -1.93 6.8, -0.32 2.38 M-9.29 24.82 C-5.07 17.59, -3.04 11.07, 0.31 2.18" stroke="#2b8a3e" stroke-width="1" fill="none"></path></g><g transform="translate(351.5503952180002 187.85714285714283) rotate(0 -1.3638313492880343 56.785714285714306)"><path d="M-9.27 87.65 C-7.18 94.85, -4.41 101.46, -2.81 109.88 M-11.72 85.48 C-7.12 92.62, -5.11 100.48, -2.18 109.68" stroke="#2b8a3e" stroke-width="1" fill="none"></path></g><g transform="translate(351.5503952180002 187.85714285714283) rotate(0 -1.3638313492880343 56.785714285714306)"><path d="M7.83 87.52 C3.71 94.79, 0.27 101.44, -2.81 109.88 M5.38 85.35 C4.74 92.44, 1.49 100.34, -2.18 109.68" stroke="#2b8a3e" stroke-width="1" fill="none"></path></g></g><mask></mask></svg>