<svg version="1.1" xmlns="http://www.w3.org/2000/svg" viewBox="0 0 1689.8992260372422 751.7602412138204" width="3379.7984520744844" height="1503.520482427641">
  <!-- svg-source:excalidraw -->
  
  <defs>
    <style class="style-fonts">
      @font-face {
        font-family: "Virgil";
        src: url("https://excalidraw.com/Virgil.woff2");
      }
      @font-face {
        font-family: "Cascadia";
        src: url("https://excalidraw.com/Cascadia.woff2");
      }
    </style>
  </defs>
  <rect x="0" y="0" width="1689.8992260372422" height="751.7602412138204" fill="#ffffff"></rect><g stroke-linecap="round" transform="translate(138.68132651984155 171.92025771104008) rotate(0 133 48.50000000000001)"><path d="M25.67 1.5 L242.42 -1.97 L252.64 2.64 L259.5 7.72 L261.24 8.27 L266.93 17.69 L267.84 72.48 L264.45 82.71 L262.28 89.06 L256.7 95.28 L240.37 95.29 L25.38 96.93 L15.24 95.99 L6.64 89.24 L3.58 86.66 L-0.77 77.9 L-1.2 20.11 L2.24 10 L7.1 5.64 L15.58 2.54 L25.48 1.47" stroke="none" stroke-width="0" fill="#ced4da55"></path><path d="M24.25 0 M24.25 0 C91.79 -0.56, 158.28 -2.43, 241.75 0 M24.25 0 C90.62 0.66, 157.23 1.5, 241.75 0 M241.75 0 C259.89 0.26, 264.65 9.67, 266 24.25 M241.75 0 C258.06 0.81, 264.24 9.85, 266 24.25 M266 24.25 C267.91 36.28, 266.7 47.71, 266 72.75 M266 24.25 C265.23 42.8, 265.39 62.55, 266 72.75 M266 72.75 C266.08 89.54, 259.69 96.09, 241.75 97 M266 72.75 C263.7 90.87, 259.17 99.04, 241.75 97 M241.75 97 C174.83 98.99, 104.49 98.2, 24.25 97 M241.75 97 C171.79 97.75, 103.62 96.97, 24.25 97 M24.25 97 C8.26 98.16, -1.52 89.69, 0 72.75 M24.25 97 C7.28 98.36, -1.01 88.06, 0 72.75 M0 72.75 C1.61 59.19, -1.11 49.46, 0 24.25 M0 72.75 C-0.31 53.57, 0.08 34.46, 0 24.25 M0 24.25 C1.12 7.68, 9.63 -1.34, 24.25 0 M0 24.25 C1.57 9.04, 9.28 0.79, 24.25 0" stroke="#495057" stroke-width="1" fill="none"></path></g><g transform="translate(179.6514345520681 208.4202577110401) rotate(0 92.02989196777344 12)"><text x="92.02989196777344" y="0" font-family="Virgil, Segoe UI Emoji" font-size="20px" fill="#495057" text-anchor="middle" style="white-space: pre;" direction="ltr" dominant-baseline="text-before-edge">Power-on self-test</text></g><g stroke-opacity="0.3" fill-opacity="0.3" transform="translate(701.9708238422126 708.1602412138204) rotate(0 88.984375 16.80000000000001)"><text x="0" y="0" font-family="Virgil, Segoe UI Emoji" font-size="28px" fill="#e67700" text-anchor="start" style="white-space: pre;" direction="ltr" dominant-baseline="text-before-edge">@hemashushu</text></g><g transform="translate(10 73.00926135161187) rotate(0 62.91626739501953 16.8)"><text x="0" y="0" font-family="Virgil, Segoe UI Emoji" font-size="28px" fill="#c92a2a" text-anchor="start" style="white-space: pre;" direction="ltr" dominant-baseline="text-before-edge">Power On</text></g><g transform="translate(547.0036692417516 296.17142857142846) rotate(0 41.08995819091797 12)"><text x="0" y="0" font-family="Virgil, Segoe UI Emoji" font-size="20px" fill="#495057" text-anchor="start" style="white-space: pre;" direction="ltr" dominant-baseline="text-before-edge">Firmware</text></g><g stroke-linecap="round" transform="translate(781.9858120988945 174.99642857142862) rotate(0 133 48.49999999999999)"><path d="M25.58 1.27 L240.09 0.57 L250.42 0.27 L257.99 5.44 L262.73 10.68 L264.15 18.63 L265.91 71.44 L264.07 84.05 L264.21 87.86 L255.47 94.03 L243.23 95.31 L24.53 96.52 L13.28 95.35 L7.27 90.15 L3.57 86.86 L1.66 80.29 L-0.54 16.64 L5.38 8.33 L6.4 6.58 L12.34 0.2 L24.08 -1.83" stroke="none" stroke-width="0" fill="#ced4da55"></path><path d="M24.25 0 M24.25 0 C100.06 -1.58, 171.35 -0.64, 241.75 0 M24.25 0 C94.84 -0.06, 163.25 0.59, 241.75 0 M241.75 0 C257.69 -1.94, 264.49 7.07, 266 24.25 M241.75 0 C256.33 -0.65, 265.86 9.34, 266 24.25 M266 24.25 C265.38 43.59, 266.99 62.13, 266 72.75 M266 24.25 C265.25 43.02, 265.12 61.69, 266 72.75 M266 72.75 C264.92 87.97, 258.98 95.72, 241.75 97 M266 72.75 C266.22 89.76, 258.03 95.26, 241.75 97 M241.75 97 C156.48 96.3, 74.38 97.47, 24.25 97 M241.75 97 C160.36 96.2, 77.19 97.14, 24.25 97 M24.25 97 C7.38 95.72, -0.5 89.29, 0 72.75 M24.25 97 C8.98 95.38, -2.13 90.51, 0 72.75 M0 72.75 C-1.07 54.54, -1.69 36.89, 0 24.25 M0 72.75 C-0.9 61.77, -1.11 49.15, 0 24.25 M0 24.25 C-1.52 6.76, 9.14 1.19, 24.25 0 M0 24.25 C-0.33 9.86, 7.82 1.39, 24.25 0" stroke="#495057" stroke-width="1" fill="none"></path></g><g transform="translate(799.225939662371 211.49642857142862) rotate(0 115.75987243652344 12)"><text x="115.75987243652344" y="0" font-family="Virgil, Segoe UI Emoji" font-size="20px" fill="#495057" text-anchor="middle" style="white-space: pre;" direction="ltr" dominant-baseline="text-before-edge">/EFI/GRUB/grubx64.efi</text></g><g transform="translate(856.3258999895195 292.6214285714286) rotate(0 54.29994201660156 12)"><text x="0" y="0" font-family="Virgil, Segoe UI Emoji" font-size="20px" fill="#495057" text-anchor="start" style="white-space: pre;" direction="ltr" dominant-baseline="text-before-edge">Bootloader</text></g><g stroke-linecap="round" transform="translate(1152.4858120988945 170.30892857142862) rotate(0 133 48.5)"><path d="M26.12 -1.93 L242.13 -0.26 L251.9 1.61 L258.43 6.52 L261.57 10.47 L267.12 17.09 L267.42 73.19 L265.59 81.95 L260.63 86.67 L257.47 94.03 L243.69 95.89 L24.86 95.86 L13.81 94.01 L5.66 90.68 L5.13 89.47 L1.76 78.44 L1.89 16.69 L4.75 9.14 L6.47 7.15 L12.44 3.28 L25.45 1.93" stroke="none" stroke-width="0" fill="#ced4da55"></path><path d="M24.25 0 M24.25 0 C101.55 -1.24, 178.22 0.59, 241.75 0 M24.25 0 C77.91 0.01, 131.62 0.24, 241.75 0 M241.75 0 C257.06 -0.86, 266.9 6.67, 266 24.25 M241.75 0 C257.01 1.1, 268.11 7.15, 266 24.25 M266 24.25 C267.79 37.37, 265.74 46.53, 266 72.75 M266 24.25 C264.89 40.89, 265.03 56.61, 266 72.75 M266 72.75 C266.14 89.75, 256.36 98.83, 241.75 97 M266 72.75 C266.05 88.72, 256.67 96.25, 241.75 97 M241.75 97 C169.64 98.98, 98.76 98.56, 24.25 97 M241.75 97 C167.58 96.68, 91.12 96.99, 24.25 97 M24.25 97 C8.41 95.46, 1.69 90.1, 0 72.75 M24.25 97 C9.25 98.15, 1.83 89.98, 0 72.75 M0 72.75 C1.77 60.93, -0.79 45.32, 0 24.25 M0 72.75 C-0.66 54.67, 0.81 37.33, 0 24.25 M0 24.25 C1.73 8.22, 7.58 1.25, 24.25 0 M0 24.25 C0.16 9.49, 7.43 0.48, 24.25 0" stroke="#495057" stroke-width="1" fill="none"></path></g><g transform="translate(1213.1475247453789 202.0089285714286) rotate(0 72.33828735351562 16.799999999999997)"><text x="72.33828735351562" y="0" font-family="Virgil, Segoe UI Emoji" font-size="28px" fill="#495057" text-anchor="middle" style="white-space: pre;" direction="ltr" dominant-baseline="text-before-edge">vmlinz-linux</text></g><g transform="translate(1258.7008999895195 287.4339285714286) rotate(0 28.66997528076172 12)"><text x="0" y="0" font-family="Virgil, Segoe UI Emoji" font-size="20px" fill="#495057" text-anchor="start" style="white-space: pre;" direction="ltr" dominant-baseline="text-before-edge">Kernel</text></g><g stroke-linecap="round" transform="translate(1029.5750978131805 431.3892857142858) rotate(0 133 43.5)"><path d="M23.67 0.89 L245.03 1.86 L253.42 1.21 L261.3 4.68 L264.27 18.13 L266.33 64.19 L266.23 75.62 L256.32 83.04 L245.58 85.14 L21.16 87.88 L12.73 84.19 L6.69 82.12 L0.05 70.72 L-0.25 18.08 L6.95 4.38 L13.15 3.22 L20.15 -1.33" stroke="none" stroke-width="0" fill="#82c91e33"></path><path d="M21.75 0 M21.75 0 C97.4 0.73, 169.78 0.13, 244.25 0 M21.75 0 C95.01 1.99, 166.41 2.51, 244.25 0 M244.25 0 C256.95 -1.56, 265.77 6.33, 266 21.75 M244.25 0 C260.54 -0.9, 267.35 5.3, 266 21.75 M266 21.75 C265.87 32.25, 264.72 44.68, 266 65.25 M266 21.75 C266.21 36.98, 266.34 54.59, 266 65.25 M266 65.25 C264.71 78.36, 259.24 87.38, 244.25 87 M266 65.25 C263.92 78.47, 260.32 86.37, 244.25 87 M244.25 87 C173.28 84.78, 101.96 86.09, 21.75 87 M244.25 87 C194.65 88.06, 144.6 87.44, 21.75 87 M21.75 87 C6.8 87.16, -1.28 81.7, 0 65.25 M21.75 87 C8 87.57, -2.3 81.9, 0 65.25 M0 65.25 C-0.09 50.4, 0.66 31.77, 0 21.75 M0 65.25 C-0.01 51.09, -1.41 38.3, 0 21.75 M0 21.75 C-1.35 5.67, 6.18 -0.13, 21.75 0 M0 21.75 C-1.89 7.87, 7 -2.22, 21.75 0" stroke="#5c940d" stroke-width="1" fill="none"></path></g><g transform="translate(1045.7306306500946 458.0892857142858) rotate(0 116.84446716308594 16.80000000000001)"><text x="116.84446716308594" y="0" font-family="Virgil, Segoe UI Emoji" font-size="28px" fill="#5c940d" text-anchor="middle" style="white-space: pre;" direction="ltr" dominant-baseline="text-before-edge">initramfs-linux.img</text></g><g stroke-linecap="round" transform="translate(643.1465263846089 432.55) rotate(0 133 44)"><path d="M21.73 0.18 L243.31 -1.03 L252.5 1.15 L263.54 7.18 L267.03 15.23 L264.31 67.3 L263.6 76.29 L256.49 86.13 L244.44 87.18 L22.77 86.4 L11.99 85.08 L3.32 78.22 L-0.25 70.09 L1.75 15.23 L2.88 9.61 L7.9 2.09 L23.78 1.02" stroke="none" stroke-width="0" fill="#82c91e33"></path><path d="M22 0 M22 0 C87.7 0.98, 155.06 0.54, 244 0 M22 0 C86.68 0.9, 152.16 1.62, 244 0 M244 0 C258.36 0.76, 264.88 5.43, 266 22 M244 0 C256.83 1.35, 265.5 7.8, 266 22 M266 22 C265.05 32.11, 267.7 43.78, 266 66 M266 22 C265.3 33.84, 265.75 44.87, 266 66 M266 66 C265.18 80.56, 259.55 87.01, 244 88 M266 66 C264.59 81.43, 259.26 88.11, 244 88 M244 88 C154.18 88.54, 68.06 89.98, 22 88 M244 88 C168.92 87.67, 93.18 88.21, 22 88 M22 88 C8.65 89.35, 0.62 80.28, 0 66 M22 88 C7.64 90.3, 1.29 80.3, 0 66 M0 66 C1.44 50.2, 0.26 34.08, 0 22 M0 66 C0.17 52.6, -0.28 39.72, 0 22 M0 22 C-1.83 5.94, 6.77 1.83, 22 0 M0 22 C1.26 9.52, 7.48 1.23, 22 0" stroke="#5c940d" stroke-width="1" fill="none"></path></g><g transform="translate(683.8581581595113 459.75) rotate(0 92.28836822509766 16.80000000000001)"><text x="92.28836822509766" y="0" font-family="Virgil, Segoe UI Emoji" font-size="28px" fill="#5c940d" text-anchor="middle" style="white-space: pre;" direction="ltr" dominant-baseline="text-before-edge">systemd (init)</text></g><g stroke-linecap="round" transform="translate(235.3786692417516 423.21071428571435) rotate(0 133 55.5)"><path d="M27.78 -1.66 L240.03 -0.28 L250.69 1.29 L257.14 6.5 L262.83 10.63 L266.67 21.69 L265.43 83.08 L263.7 95.57 L262.55 101.69 L256.74 106.72 L252.16 109.04 L238.24 109.73 L27.07 109.54 L14.68 109.75 L5.89 102.93 L3.05 99.12 L0.9 88.59 L0.91 20.52 L5.51 12.44 L6.21 8.55 L13.64 1.12 L27.42 1.22" stroke="none" stroke-width="0" fill="#82c91e33"></path><path d="M27.75 0 M27.75 0 C84.55 -0.62, 139 -0.27, 238.25 0 M27.75 0 C96.67 -1.72, 167.35 -1.67, 238.25 0 M238.25 0 C258.72 0.61, 267.72 8.84, 266 27.75 M238.25 0 C254.83 -1.69, 265.46 8.75, 266 27.75 M266 27.75 C268.25 42.11, 264.72 60.19, 266 83.25 M266 27.75 C265.83 42.47, 266.24 55.63, 266 83.25 M266 83.25 C266.7 100.61, 255.16 111.01, 238.25 111 M266 83.25 C268.16 101.86, 256.68 110.97, 238.25 111 M238.25 111 C158.06 111.39, 77.85 112.31, 27.75 111 M238.25 111 C171.39 111.9, 105.02 110.9, 27.75 111 M27.75 111 C8.56 112.12, -0.62 100.17, 0 83.25 M27.75 111 C11.14 108.72, -0.98 99.91, 0 83.25 M0 83.25 C-0.99 71.64, 1.4 59.98, 0 27.75 M0 83.25 C-0.5 65.22, 0.85 46.09, 0 27.75 M0 27.75 C-0.05 11.19, 10.72 -0.03, 27.75 0 M0 27.75 C-0.54 8.93, 7.53 0.18, 27.75 0" stroke="#5c940d" stroke-width="1" fill="none"></path></g><g transform="translate(259.1187891758336 454.71071428571435) rotate(0 109.25988006591797 24)"><text x="109.25988006591797" y="0" font-family="Virgil, Segoe UI Emoji" font-size="20px" fill="#5c940d" text-anchor="middle" style="white-space: pre;" direction="ltr" dominant-baseline="text-before-edge">- Shell</text><text x="109.25988006591797" y="24" font-family="Virgil, Segoe UI Emoji" font-size="20px" fill="#5c940d" text-anchor="middle" style="white-space: pre;" direction="ltr" dominant-baseline="text-before-edge">- Desktop Environment</text></g><g transform="translate(1031.2215843680071 565.2107142857141) rotate(0 138.4598388671875 24)"><text x="138.4598388671875" y="0" font-family="Virgil, Segoe UI Emoji" font-size="20px" fill="#5c940d" text-anchor="middle" style="white-space: pre;" direction="ltr" dominant-baseline="text-before-edge">Temporary Root File System</text><text x="138.4598388671875" y="24" font-family="Virgil, Segoe UI Emoji" font-size="20px" fill="#5c940d" text-anchor="middle" style="white-space: pre;" direction="ltr" dominant-baseline="text-before-edge">Load Disk Drivers</text></g><g transform="translate(358.19939481896995 598.425) rotate(0 12.589988708496094 12)"><text x="12.589988708496094" y="0" font-family="Virgil, Segoe UI Emoji" font-size="20px" fill="#5c940d" text-anchor="middle" style="white-space: pre;" direction="ltr" dominant-baseline="text-before-edge">UI</text></g><g stroke-linecap="round"><g transform="translate(66.86081209889443 118.46071428571433) rotate(0 27.05718923777343 25.32287954583764)"><path d="M2.52 0.85 C4.32 4.09, 3.27 13.59, 11.79 21.57 C20.32 29.55, 46.58 43.78, 53.67 48.72 M0.44 -1.16 C1.66 2.4, 0.38 16.55, 8.83 25.38 C17.28 34.21, 43.52 48.29, 51.14 51.81" stroke="#c92a2a" stroke-width="1" fill="none"></path></g><g transform="translate(66.86081209889443 118.46071428571433) rotate(0 27.05718923777343 25.32287954583764)"><path d="M27.5 46.79 C35.12 47.39, 42.93 49.42, 54.64 54.83 M25.05 49.12 C34.7 50.46, 40.67 48.19, 49.84 49.98" stroke="#c92a2a" stroke-width="1" fill="none"></path></g><g transform="translate(66.86081209889443 118.46071428571433) rotate(0 27.05718923777343 25.32287954583764)"><path d="M35.32 31.54 C40.55 37.39, 45.74 44.52, 54.64 54.83 M32.86 33.88 C40.51 39.66, 44.27 41.7, 49.84 49.98" stroke="#c92a2a" stroke-width="1" fill="none"></path></g></g><mask></mask><g stroke-linecap="round"><g transform="translate(698.0215263846087 224.5321428571429) rotate(0 32.97014936713238 -3.4779571952998793)"><path d="M1.43 -0.18 C11.5 -1, 51.22 -1.52, 62.07 -2.57 M-1.24 -2.75 C9.53 -4.59, 55.99 -6.44, 67.18 -6.77" stroke="#495057" stroke-width="1" fill="none"></path></g><g transform="translate(698.0215263846087 224.5321428571429) rotate(0 32.97014936713238 -3.4779571952998793)"><path d="M39.13 1.13 C51.31 3.2, 55.64 -3.66, 65.22 -10.06 M39.63 5.71 C49.41 1.62, 61.71 -5.12, 66.41 -6.66" stroke="#495057" stroke-width="1" fill="none"></path></g><g transform="translate(698.0215263846087 224.5321428571429) rotate(0 32.97014936713238 -3.4779571952998793)"><path d="M38.36 -19.38 C51.16 -9.95, 55.76 -9.46, 65.22 -10.06 M38.86 -14.8 C49.18 -10.91, 61.79 -9.68, 66.41 -6.66" stroke="#495057" stroke-width="1" fill="none"></path></g></g><mask></mask><g stroke-linecap="round"><g transform="translate(1064.9858120988947 217.64325364360997) rotate(0 33.865897392481486 0.19072308621581158)"><path d="M1.87 -2.38 C12.49 -1.47, 52.81 2.33, 63.38 2.76 M-0.56 2.5 C10.92 2.86, 57.69 -1.33, 68.29 -1.26" stroke="#495057" stroke-width="1" fill="none"></path></g><g transform="translate(1064.9858120988947 217.64325364360997) rotate(0 33.865897392481486 0.19072308621581158)"><path d="M37.23 6.45 C51.41 5.49, 55.69 -0.47, 67.68 -1.91 M42.36 11.83 C47.07 8.42, 55.94 2.98, 68.4 -2.1" stroke="#495057" stroke-width="1" fill="none"></path></g><g transform="translate(1064.9858120988947 217.64325364360997) rotate(0 33.865897392481486 0.19072308621581158)"><path d="M36.23 -14.05 C50.3 -9.13, 54.87 -9.22, 67.68 -1.91 M41.36 -8.66 C46.45 -6.48, 55.59 -6.32, 68.4 -2.1" stroke="#495057" stroke-width="1" fill="none"></path></g></g><mask></mask><g stroke-linecap="round"><g transform="translate(1404.8358962032798 288.63928571428573) rotate(0 -44.74711504631017 90.40258362100477)"><path d="M-1.32 1.78 C-1.18 12.54, 3.94 42.04, -1.31 64.19 C-6.56 86.34, -17.08 115.29, -32.82 134.68 C-48.56 154.07, -85.64 173.54, -95.76 180.53 M3.16 0.28 C4.37 11.48, 10.2 44.67, 3.97 67.38 C-2.27 90.09, -17.54 118.46, -34.25 136.54 C-50.96 154.63, -85.85 169.19, -96.29 175.9" stroke="#495057" stroke-width="1" fill="none"></path></g><g transform="translate(1404.8358962032798 288.63928571428573) rotate(0 -44.74711504631017 90.40258362100477)"><path d="M-73.85 150.48 C-82.07 159.28, -88.64 160.38, -92.59 176.17 M-77.53 155.31 C-83.53 160.72, -85.18 164.82, -95.91 177.53" stroke="#495057" stroke-width="1" fill="none"></path></g><g transform="translate(1404.8358962032798 288.63928571428573) rotate(0 -44.74711504631017 90.40258362100477)"><path d="M-64.08 168.52 C-74.44 173.19, -83.19 170.25, -92.59 176.17 M-67.75 173.35 C-76.04 174.06, -80.16 173.59, -95.91 177.53" stroke="#495057" stroke-width="1" fill="none"></path></g></g><mask></mask><g stroke-linecap="round"><g transform="translate(1023.1388733233846 474.77003356710094) rotate(0 -52.896347263592304 0.8813703549192553)"><path d="M-1.24 1.01 C-19.18 0.49, -89.43 -0.26, -106.99 -0.57 M3.29 -0.91 C-15.06 0.2, -90.52 2.24, -109.08 2.68" stroke="#5c940d" stroke-width="1" fill="none"></path></g><g transform="translate(1023.1388733233846 474.77003356710094) rotate(0 -52.896347263592304 0.8813703549192553)"><path d="M-79.73 -7.91 C-91 -4.04, -100.46 -2.55, -105.25 1.63 M-81.9 -9.42 C-89.77 -6, -96.11 -3.05, -110.05 2.24" stroke="#5c940d" stroke-width="1" fill="none"></path></g><g transform="translate(1023.1388733233846 474.77003356710094) rotate(0 -52.896347263592304 0.8813703549192553)"><path d="M-79.19 12.6 C-91 9.83, -100.64 4.68, -105.25 1.63 M-81.36 11.1 C-89.78 8.6, -96.27 5.62, -110.05 2.24" stroke="#5c940d" stroke-width="1" fill="none"></path></g></g><mask></mask><g stroke-linecap="round"><g transform="translate(624.1328374402268 476.58215289427443) rotate(0 -52.65875898955131 -2.324684409517772)"><path d="M-2.07 -0.68 C-20.11 -1.21, -88.43 -4.02, -106.09 -4.11 M2 -3.52 C-16.43 -3.5, -88.68 -0.27, -107.31 -0.56" stroke="#5c940d" stroke-width="1" fill="none"></path></g><g transform="translate(624.1328374402268 476.58215289427443) rotate(0 -52.65875898955131 -2.324684409517772)"><path d="M-80.28 -8.66 C-90.09 -7.75, -96.44 0.31, -105.01 0.49 M-78.66 -11.29 C-87.04 -9.02, -99.39 -2.21, -108.56 -0.42" stroke="#5c940d" stroke-width="1" fill="none"></path></g><g transform="translate(624.1328374402268 476.58215289427443) rotate(0 -52.65875898955131 -2.324684409517772)"><path d="M-79.91 11.86 C-89.72 5.07, -96.22 5.43, -105.01 0.49 M-78.3 9.23 C-86.48 4.66, -98.96 4.62, -108.56 -0.42" stroke="#5c940d" stroke-width="1" fill="none"></path></g></g><mask></mask><g transform="translate(563.0174413887942 10) rotate(0 219.64694213867188 16.8)"><text x="219.64694213867188" y="0" font-family="Virgil, Segoe UI Emoji" font-size="28px" fill="#495057" text-anchor="middle" style="white-space: pre;" direction="ltr" dominant-baseline="text-before-edge">Linux Boot Process on x86_64</text></g><g stroke-linecap="round"><g transform="translate(114.53938352746576 359.9249999999999) rotate(0 782.4626424141229 -0.07896765415139839)"><path d="M-0.43 1.07 C260.46 1.31, 1304.11 -1.02, 1565.36 -1.24" stroke="#495057" stroke-width="1.5" fill="none" stroke-dasharray="1.5 7"></path></g></g><mask></mask><g transform="translate(1432.5393366611854 436.1249999999999) rotate(0 77.7143325805664 16.80000000000001)"><text x="77.7143325805664" y="0" font-family="Virgil, Segoe UI Emoji" font-size="28px" fill="#5c940d" text-anchor="middle" style="white-space: pre;" direction="ltr" dominant-baseline="text-before-edge">User Space</text></g><g stroke-linecap="round" transform="translate(512.3965263846087 175.13928571428573) rotate(0 79 48.49999999999999)"><path d="M26.09 -1.54 L132.72 -0.71 L146.67 3.66 L156.14 9.97 L156.67 17.1 L156.6 73.54 L153.32 87.73 L147.48 94.31 L133.94 96.91 L23.49 98.52 L10.65 91.6 L5.26 86.69 L0.62 77.01 L1.35 16.89 L2.11 8.88 L6.64 4.47 L12.31 -0.48 L24.65 -0.46" stroke="none" stroke-width="0" fill="#ced4da55"></path><path d="M24.25 0 M24.25 0 C63.22 -1.66, 102.23 -2.47, 133.75 0 M24.25 0 C63.4 -1.12, 100.66 -1.47, 133.75 0 M133.75 0 C151.1 -1.88, 159.38 6.87, 158 24.25 M133.75 0 C148.37 -0.61, 156.05 8.1, 158 24.25 M158 24.25 C160.14 32.61, 160.34 43.6, 158 72.75 M158 24.25 C159.06 37.5, 158.38 48.73, 158 72.75 M158 72.75 C156.61 89.88, 148.46 98.09, 133.75 97 M158 72.75 C157.39 89.39, 149.3 98.53, 133.75 97 M133.75 97 C100.92 95.81, 68.93 97.81, 24.25 97 M133.75 97 C94.74 97.98, 57.67 98.55, 24.25 97 M24.25 97 C6.24 97.19, 0.18 89.17, 0 72.75 M24.25 97 C8.6 98.28, -1.41 90.98, 0 72.75 M0 72.75 C-0.04 60.33, -1.02 47.52, 0 24.25 M0 72.75 C0.79 58.93, -0.29 45.82, 0 24.25 M0 24.25 C-1.59 7.3, 9.32 1.89, 24.25 0 M0 24.25 C1.42 5.91, 6.77 -0.5, 24.25 0" stroke="#495057" stroke-width="1" fill="none"></path></g><g transform="translate(556.2983742239642 206.83928571428572) rotate(0 35.09815216064453 16.799999999999997)"><text x="35.09815216064453" y="0" font-family="Virgil, Segoe UI Emoji" font-size="28px" fill="#495057" text-anchor="middle" style="white-space: pre;" direction="ltr" dominant-baseline="text-before-edge">UEFI</text></g><g stroke-linecap="round"><g transform="translate(425.85494844604784 220.88691250684008) rotate(0 28.749991233854445 -0.2565508014724429)"><path d="M-0.52 -2.25 C9.5 -2.69, 51.01 -3.56, 61.74 -3.07 M-4.24 2.7 C5.13 2.58, 47.68 0.48, 58.8 -0.62" stroke="#495057" stroke-width="1" fill="none"></path></g><g transform="translate(425.85494844604784 220.88691250684008) rotate(0 28.749991233854445 -0.2565508014724429)"><path d="M28.18 9.75 C38.17 8.47, 53.46 1.71, 59.1 -1.64 M31.82 11.8 C39.38 9.69, 48.45 3.41, 59.02 -0.22" stroke="#495057" stroke-width="1" fill="none"></path></g><g transform="translate(425.85494844604784 220.88691250684008) rotate(0 28.749991233854445 -0.2565508014724429)"><path d="M26.74 -10.72 C37.19 -4.63, 53 -4.04, 59.1 -1.64 M30.37 -8.67 C37.97 -4.92, 47.45 -5.36, 59.02 -0.22" stroke="#495057" stroke-width="1" fill="none"></path></g></g><mask></mask><g transform="translate(248.44942533654785 293.7821428571427) rotate(0 21.699981689453125 12)"><text x="0" y="0" font-family="Virgil, Segoe UI Emoji" font-size="20px" fill="#495057" text-anchor="start" style="white-space: pre;" direction="ltr" dominant-baseline="text-before-edge">ROM</text></g><g transform="translate(705.7080367431465 557.125) rotate(0 75.25991821289062 48.00000000000003)"><text x="75.25991821289062" y="0" font-family="Virgil, Segoe UI Emoji" font-size="20px" fill="#5c940d" text-anchor="middle" style="white-space: pre;" direction="ltr" dominant-baseline="text-before-edge">Load Modules</text><text x="75.25991821289062" y="24" font-family="Virgil, Segoe UI Emoji" font-size="20px" fill="#5c940d" text-anchor="middle" style="white-space: pre;" direction="ltr" dominant-baseline="text-before-edge">Start Daemons</text><text x="75.25991821289062" y="48" font-family="Virgil, Segoe UI Emoji" font-size="20px" fill="#5c940d" text-anchor="middle" style="white-space: pre;" direction="ltr" dominant-baseline="text-before-edge">getty</text><text x="75.25991821289062" y="72" font-family="Virgil, Segoe UI Emoji" font-size="20px" fill="#5c940d" text-anchor="middle" style="white-space: pre;" direction="ltr" dominant-baseline="text-before-edge">login</text></g></svg>