<svg version="1.1" xmlns="http://www.w3.org/2000/svg" viewBox="0 0 829.8895367835723 897.4254925080668" width="1659.7790735671447" height="1794.8509850161336">
  <!-- svg-source:excalidraw -->
  
  <defs>
    <style class="style-fonts">
      @font-face {
        font-family: "Virgil";
        src: url("https://excalidraw.com/Virgil.woff2");
      }
      @font-face {
        font-family: "Cascadia";
        src: url("https://excalidraw.com/Cascadia.woff2");
      }
    </style>
  </defs>
  <rect x="0" y="0" width="829.8895367835723" height="897.4254925080668" fill="#ffffff"></rect><g stroke-linecap="round" transform="translate(527.2002680983794 570.0777419779238) rotate(0 140.84463434259646 89.63757875170896)"><path d="M31.99 -0.49 L249.36 1.36 L255.4 0.88 L269.54 2.78 L278.68 12.08 L279.42 19.49 L281.76 31.78 L280.18 145.95 L279.31 155.47 L278.49 167.35 L270.94 173.88 L264.4 178.29 L248.71 180.13 L33.26 180.13 L24.4 179.61 L11.89 174.82 L4.81 165.81 L-0.01 156.34 L-1.37 24.97 L3.9 17.5 L9.14 7.24 L16.89 0.96 L31.08 -1.5" stroke="none" stroke-width="0" fill="#228be633"></path><path d="M32 0 M32 0 C81.24 1.5, 131.65 0.69, 249.69 0 M32 0 C102.16 -0.27, 171.39 1.06, 249.69 0 M249.69 0 C269.71 0.7, 281.03 11.55, 281.69 32 M249.69 0 C272.33 -1.25, 283.81 11.37, 281.69 32 M281.69 32 C280.52 75.28, 280.16 118.43, 281.69 147.28 M281.69 32 C281.82 61.69, 282.51 91.31, 281.69 147.28 M281.69 147.28 C281.82 167.15, 269.87 179.04, 249.69 179.28 M281.69 147.28 C282.98 169.6, 272.97 179.86, 249.69 179.28 M249.69 179.28 C193.8 179.82, 140.66 177.82, 32 179.28 M249.69 179.28 C199.53 180.74, 148.49 181.91, 32 179.28 M32 179.28 C11.48 178.03, -0.33 170.11, 0 147.28 M32 179.28 C9.14 181.51, 0.7 166.85, 0 147.28 M0 147.28 C-0.16 106.24, -0.39 61.59, 0 32 M0 147.28 C-1.19 111.54, -1.77 78.28, 0 32 M0 32 C1.64 11.91, 8.94 1.76, 32 0 M0 32 C0.17 12.03, 12.12 0.61, 32 0" stroke="#1864ab" stroke-width="1" fill="none"></path></g><g stroke-linecap="round" transform="translate(243.93557193062492 63.755317723243635) rotate(0 163.59227609567256 74.12617912346195)"><path d="M33.42 1.5 L295.86 -1.97 L302.96 1.62 L314.25 6.16 L321.34 11.3 L326.49 17.13 L329.03 31.73 L327.15 115.61 L326.38 125.29 L322.86 137.45 L313.3 142.04 L310.31 146.19 L296.78 148.76 L32.58 146.56 L24.67 146.89 L11.35 143.22 L2.92 137.3 L-0.67 124.28 L1.54 24.08 L3.94 19.02 L9.23 9.47 L18.22 0.93 L32.78 -0.06" stroke="none" stroke-width="0" fill="#ced4da55"></path><path d="M32 0 M32 0 C113.78 1.28, 194.67 2, 295.18 0 M32 0 C105.72 -1.45, 177.34 -0.93, 295.18 0 M295.18 0 C316.65 0.71, 325.66 12.21, 327.18 32 M295.18 0 C315.4 -0.27, 326.38 12.93, 327.18 32 M327.18 32 C329.4 56.86, 326.94 79.48, 327.18 116.25 M327.18 32 C326.65 52.58, 327.5 72.08, 327.18 116.25 M327.18 116.25 C325.19 139.28, 317.61 150.02, 295.18 148.25 M327.18 116.25 C327.5 136.21, 317.18 150.04, 295.18 148.25 M295.18 148.25 C194.66 148.62, 93.92 148.03, 32 148.25 M295.18 148.25 C207.83 147.51, 119.73 147.36, 32 148.25 M32 148.25 C9.97 149.43, -0.88 136.84, 0 116.25 M32 148.25 C9.41 148.73, -1.05 139.55, 0 116.25 M0 116.25 C2.41 99.47, 1.9 79.77, 0 32 M0 116.25 C0.18 89.2, 0.39 61.88, 0 32 M0 32 C1.36 11.5, 11.71 0.69, 32 0 M0 32 C1.4 10.29, 12.45 1.48, 32 0" stroke="#495057" stroke-width="1" fill="none"></path></g><g stroke-opacity="0.3" fill-opacity="0.3" transform="translate(334.74241884255997 853.8254925080666) rotate(0 88.984375 16.80000000000001)"><text x="0" y="0" font-family="Virgil, Segoe UI Emoji" font-size="28px" fill="#e67700" text-anchor="start" style="white-space: pre;" direction="ltr" dominant-baseline="text-before-edge">@hemashushu</text></g><g transform="translate(272.8826621503311 83.9661125510659) rotate(0 140.625 57.599999999999994)"><text x="0" y="0" font-family="Cascadia, Segoe UI Emoji" font-size="16px" fill="#495057" text-anchor="start" style="white-space: pre;" direction="ltr" dominant-baseline="text-before-edge">#include &lt;stdio.h&gt;</text><text x="0" y="19.2" font-family="Cascadia, Segoe UI Emoji" font-size="16px" fill="#495057" text-anchor="start" style="white-space: pre;" direction="ltr" dominant-baseline="text-before-edge"></text><text x="0" y="38.4" font-family="Cascadia, Segoe UI Emoji" font-size="16px" fill="#495057" text-anchor="start" style="white-space: pre;" direction="ltr" dominant-baseline="text-before-edge">int main(void) {</text><text x="0" y="57.599999999999994" font-family="Cascadia, Segoe UI Emoji" font-size="16px" fill="#495057" text-anchor="start" style="white-space: pre;" direction="ltr" dominant-baseline="text-before-edge">    printf("Hello, World!\n");</text><text x="0" y="76.8" font-family="Cascadia, Segoe UI Emoji" font-size="16px" fill="#495057" text-anchor="start" style="white-space: pre;" direction="ltr" dominant-baseline="text-before-edge">    return 0;</text><text x="0" y="96" font-family="Cascadia, Segoe UI Emoji" font-size="16px" fill="#495057" text-anchor="start" style="white-space: pre;" direction="ltr" dominant-baseline="text-before-edge">}</text></g><g transform="translate(312.66351351615754 10) rotate(0 84.32237243652344 16.799999999999997)"><text x="0" y="0" font-family="Virgil, Segoe UI Emoji" font-size="28px" fill="#495057" text-anchor="start" style="white-space: pre;" direction="ltr" dominant-baseline="text-before-edge">Source Code</text></g><g stroke-linecap="round" transform="translate(10 363.51524413009577) rotate(0 139.5 53)"><path d="M27.86 -0.51 L252.03 1.26 L265.97 3.65 L272.77 7.34 L276.87 11.73 L277.19 19.03 L278.28 79.77 L275.73 91.07 L276.92 95.99 L270.57 100.42 L251.83 104.36 L27.83 106.03 L13.81 102.47 L5.27 100.84 L2.62 94.17 L2.27 85.07 L2.16 21.77 L4.61 10.04 L12.2 3.72 L26.09 1.47" stroke="none" stroke-width="0" fill="#82c91e33"></path><path d="M26.5 0 M26.5 0 C112.47 -0.56, 196.22 1.22, 252.5 0 M26.5 0 C81.95 -0.03, 136.36 -0.45, 252.5 0 M252.5 0 C270.41 0.99, 279.59 8.16, 279 26.5 M252.5 0 C269.1 0.82, 277.81 8.48, 279 26.5 M279 26.5 C278.93 46.91, 279.05 64.21, 279 79.5 M279 26.5 C278.64 39.11, 279.88 52.62, 279 79.5 M279 79.5 C280.56 95.64, 269.82 107.9, 252.5 106 M279 79.5 C278.4 99.43, 269.88 105.54, 252.5 106 M252.5 106 C200.31 107.05, 152.45 107.26, 26.5 106 M252.5 106 C163.13 107.84, 73.56 107.11, 26.5 106 M26.5 106 C8.41 105.13, -0.1 99.15, 0 79.5 M26.5 106 C7.88 105.28, -1.46 98.83, 0 79.5 M0 79.5 C-1.64 60.57, 0.84 43.47, 0 26.5 M0 79.5 C0.51 65.11, -0.33 50.97, 0 26.5 M0 26.5 C1.99 7.61, 7.88 0.66, 26.5 0 M0 26.5 C0.39 7.55, 9.85 -0.35, 26.5 0" stroke="#5c940d" stroke-width="1" fill="none"></path></g><g transform="translate(82.76172637939453 399.71524413009575) rotate(0 66.73827362060547 16.80000000000001)"><text x="66.73827362060547" y="0" font-family="Virgil, Segoe UI Emoji" font-size="28px" fill="#5c940d" text-anchor="middle" style="white-space: pre;" direction="ltr" dominant-baseline="text-before-edge">gcc main.c</text></g><g stroke-linecap="round" transform="translate(10 577.7864683524111) rotate(0 141.70705559088756 85.96442618861082)"><path d="M31.7 1.7 L250.2 1.93 L258.05 -0.54 L271.88 5.06 L278.43 13.46 L280.41 19.06 L281.84 32.47 L284.92 141.6 L281.42 145.6 L279.08 158 L270.41 166.16 L267.15 171.79 L249.58 170.64 L32.03 171.53 L24.87 170.06 L12.42 169.19 L5.49 158.38 L1.83 147.71 L0.51 24.56 L1.28 19 L6.46 6.29 L17.82 1.73 L30.43 1.9" stroke="none" stroke-width="0" fill="#82c91e33"></path><path d="M32 0 M32 0 C97.82 1.07, 165.29 1.41, 251.41 0 M32 0 C76.33 0.39, 120.5 0.29, 251.41 0 M251.41 0 C273.3 1.33, 283.31 10.75, 283.41 32 M251.41 0 C273.56 1.93, 282.01 9.66, 283.41 32 M283.41 32 C284.25 70.79, 282.45 109.59, 283.41 139.93 M283.41 32 C283.37 70.17, 283.61 108.78, 283.41 139.93 M283.41 139.93 C282.34 159.65, 274.59 172.04, 251.41 171.93 M283.41 139.93 C283.3 161.26, 273.36 170.4, 251.41 171.93 M251.41 171.93 C196.49 171.18, 140.24 171.18, 32 171.93 M251.41 171.93 C202.82 170.23, 155.62 171.41, 32 171.93 M32 171.93 C9.41 172.14, 1.26 162.72, 0 139.93 M32 171.93 C9.12 171.05, 0.94 162.24, 0 139.93 M0 139.93 C2.67 115.8, 2.22 92.68, 0 32 M0 139.93 C0.87 101.35, 1.12 62.24, 0 32 M0 32 C-1.27 9.7, 12.07 1.52, 32 0 M0 32 C0.39 11.03, 9.27 0.62, 32 0" stroke="#5c940d" stroke-width="1" fill="none"></path></g><g transform="translate(595.8117060263946 591.1301002248476) rotate(0 79.6875 67.20000000000002)"><text x="0" y="0" font-family="Cascadia, Segoe UI Emoji" font-size="16px" fill="#495057" text-anchor="start" style="white-space: pre;" direction="ltr" dominant-baseline="text-before-edge">addi    sp,sp,-16</text><text x="0" y="19.2" font-family="Cascadia, Segoe UI Emoji" font-size="16px" fill="#495057" text-anchor="start" style="white-space: pre;" direction="ltr" dominant-baseline="text-before-edge">sd      ra,8(sp)</text><text x="0" y="38.4" font-family="Cascadia, Segoe UI Emoji" font-size="16px" fill="#495057" text-anchor="start" style="white-space: pre;" direction="ltr" dominant-baseline="text-before-edge">sd      s0,0(sp)</text><text x="0" y="57.599999999999994" font-family="Cascadia, Segoe UI Emoji" font-size="16px" fill="#495057" text-anchor="start" style="white-space: pre;" direction="ltr" dominant-baseline="text-before-edge">addi    s0,sp,16</text><text x="0" y="76.8" font-family="Cascadia, Segoe UI Emoji" font-size="16px" fill="#495057" text-anchor="start" style="white-space: pre;" direction="ltr" dominant-baseline="text-before-edge">auipc   a0,0x0</text><text x="0" y="96" font-family="Cascadia, Segoe UI Emoji" font-size="16px" fill="#495057" text-anchor="start" style="white-space: pre;" direction="ltr" dominant-baseline="text-before-edge">addi    a0,a0,32 </text><text x="0" y="115.19999999999999" font-family="Cascadia, Segoe UI Emoji" font-size="16px" fill="#495057" text-anchor="start" style="white-space: pre;" direction="ltr" dominant-baseline="text-before-edge">jal     ra,5a0</text></g><g stroke-linecap="round" transform="translate(524.8895367835723 356.8065177556084) rotate(0 147.5 53)"><path d="M26.17 -1.21 L268.64 0.99 L280.17 0.73 L287.5 7.93 L290.91 11.01 L293.46 20.95 L296.06 80.76 L294.91 91.84 L290.26 97.26 L283.96 102.64 L268.5 107.52 L24.65 105.36 L13.51 104.21 L4.7 97.99 L5 94.24 L1.43 85.83 L-1.21 18.98 L2.54 9.24 L10.61 3.95 L27.78 -0.98" stroke="none" stroke-width="0" fill="#82c91e33"></path><path d="M26.5 0 M26.5 0 C114.76 -0.69, 199.52 0.75, 268.5 0 M26.5 0 C111.94 0.22, 197.6 0.48, 268.5 0 M268.5 0 C287.72 0.25, 293.41 10.77, 295 26.5 M268.5 0 C284.01 2.05, 293.1 9.83, 295 26.5 M295 26.5 C294.3 38.37, 295.97 50.17, 295 79.5 M295 26.5 C295.7 37.81, 295.56 47.89, 295 79.5 M295 79.5 C296.34 98.85, 285.51 105.5, 268.5 106 M295 79.5 C294.52 95.94, 288.36 106.74, 268.5 106 M268.5 106 C174.97 108.78, 83.26 106.28, 26.5 106 M268.5 106 C185.11 105.89, 102.77 105.73, 26.5 106 M26.5 106 C10.18 105.08, 1.9 97.49, 0 79.5 M26.5 106 C8.79 106.76, 0.83 96.28, 0 79.5 M0 79.5 C0.43 69.12, -0.39 56.58, 0 26.5 M0 79.5 C1.3 59.07, 0.16 37.03, 0 26.5 M0 26.5 C-0.76 7.76, 7.37 -0.6, 26.5 0 M0 26.5 C1.04 6.64, 8.82 -0.56, 26.5 0" stroke="#5c940d" stroke-width="1" fill="none"></path></g><g transform="translate(541.2696789954864 397.8065177556084) rotate(0 131.11985778808594 12)"><text x="131.11985778808594" y="0" font-family="Virgil, Segoe UI Emoji" font-size="20px" fill="#5c940d" text-anchor="middle" style="white-space: pre;" direction="ltr" dominant-baseline="text-before-edge">riscv64-linux-gnu-gcc main.c</text></g><g transform="translate(52.6503533066043 620.5468846603825) rotate(0 107.8125 47.99999999999997)"><text x="0" y="0" font-family="Cascadia, Segoe UI Emoji" font-size="16px" fill="#495057" text-anchor="start" style="white-space: pre;" direction="ltr" dominant-baseline="text-before-edge">push   %rbp</text><text x="0" y="19.2" font-family="Cascadia, Segoe UI Emoji" font-size="16px" fill="#495057" text-anchor="start" style="white-space: pre;" direction="ltr" dominant-baseline="text-before-edge">mov    %rsp,%rbp</text><text x="0" y="38.4" font-family="Cascadia, Segoe UI Emoji" font-size="16px" fill="#495057" text-anchor="start" style="white-space: pre;" direction="ltr" dominant-baseline="text-before-edge">lea    0xec0(%rip),%rax</text><text x="0" y="57.599999999999994" font-family="Cascadia, Segoe UI Emoji" font-size="16px" fill="#495057" text-anchor="start" style="white-space: pre;" direction="ltr" dominant-baseline="text-before-edge">mov    %rax,%rdi</text><text x="0" y="76.8" font-family="Cascadia, Segoe UI Emoji" font-size="16px" fill="#495057" text-anchor="start" style="white-space: pre;" direction="ltr" dominant-baseline="text-before-edge">call   1030</text></g><g transform="translate(19.407383090630162 316.80915032891363) rotate(0 138.7825927734375 16.799999999999997)"><text x="0" y="0" font-family="Virgil, Segoe UI Emoji" font-size="28px" fill="#495057" text-anchor="start" style="white-space: pre;" direction="ltr" dominant-baseline="text-before-edge">Compiler on X86_64</text></g><g transform="translate(534.2268298130068 313.268900704131) rotate(0 138.7825927734375 16.799999999999997)"><text x="0" y="0" font-family="Virgil, Segoe UI Emoji" font-size="28px" fill="#495057" text-anchor="start" style="white-space: pre;" direction="ltr" dominant-baseline="text-before-edge">Compiler on X86_64</text></g><g transform="translate(54.64926673662188 542.9743621109558) rotate(0 105.7698974609375 12)"><text x="0" y="0" font-family="Virgil, Segoe UI Emoji" font-size="20px" fill="#495057" text-anchor="start" style="white-space: pre;" direction="ltr" dominant-baseline="text-before-edge">X86_64 Instructions</text></g><g transform="translate(550.2039188630224 533.5545499247141) rotate(0 121.50987243652344 12)"><text x="0" y="0" font-family="Virgil, Segoe UI Emoji" font-size="20px" fill="#495057" text-anchor="start" style="white-space: pre;" direction="ltr" dominant-baseline="text-before-edge"> RISC-V 64 Instructions</text></g><g stroke-linecap="round"><g transform="translate(252.03588174183065 218.50207865947692) rotate(0 -33.84656496719066 43.07829663840513)"><path d="M0.02 -2.5 C-10.74 12.56, -54.92 74.08, -66.7 88.65 M-3.41 2.32 C-14.16 16.74, -57.49 70.55, -67.72 84.68" stroke="#495057" stroke-width="1" fill="none"></path></g><g transform="translate(252.03588174183065 218.50207865947692) rotate(0 -33.84656496719066 43.07829663840513)"><path d="M-62.23 59.3 C-58.33 60.05, -65.69 66.1, -70.63 84.4 M-56.91 54.75 C-61.49 67.29, -65.64 76.77, -69.65 84.85" stroke="#495057" stroke-width="1" fill="none"></path></g><g transform="translate(252.03588174183065 218.50207865947692) rotate(0 -33.84656496719066 43.07829663840513)"><path d="M-45.97 71.81 C-45.58 69.74, -56.6 72.97, -70.63 84.4 M-40.64 67.26 C-50.98 75.38, -60.73 80.56, -69.65 84.85" stroke="#495057" stroke-width="1" fill="none"></path></g></g><mask></mask><g stroke-linecap="round"><g transform="translate(565.6765891888623 216.45257807772018) rotate(0 34.839997524158406 41.14500017127234)"><path d="M2.04 -0.58 C13.31 13.07, 58.03 68.67, 69.98 82.45 M-0.3 -3.37 C10.28 10.65, 54.86 70.99, 67.13 85.66" stroke="#495057" stroke-width="1" fill="none"></path></g><g transform="translate(565.6765891888623 216.45257807772018) rotate(0 34.839997524158406 41.14500017127234)"><path d="M40.87 68.14 C50.41 79.23, 59.7 79.59, 69.34 86.74 M39.92 71.35 C48.6 72.09, 51.67 75.47, 65.68 85.52" stroke="#495057" stroke-width="1" fill="none"></path></g><g transform="translate(565.6765891888623 216.45257807772018) rotate(0 34.839997524158406 41.14500017127234)"><path d="M57.05 55.52 C60.43 71.69, 63.5 76.9, 69.34 86.74 M56.1 58.73 C60.98 62.31, 60.41 68.54, 65.68 85.52" stroke="#495057" stroke-width="1" fill="none"></path></g></g><mask></mask><g stroke-linecap="round"><g transform="translate(145.04314603430754 481.09722510080394) rotate(0 0.27434969694012423 23.199931505269348)"><path d="M-1.86 -0.13 C-1.34 7.17, 1.47 38.76, 2.04 46.32 M2.33 -2.68 C2.75 6.19, 1.2 40.82, 0.9 49.08" stroke="#495057" stroke-width="1" fill="none"></path></g><g transform="translate(145.04314603430754 481.09722510080394) rotate(0 0.27434969694012423 23.199931505269348)"><path d="M-6.59 29.16 C-6.36 34.54, -6.03 38.69, 3.85 49.48 M-7.28 24.63 C-3.1 35.28, -0.9 45.64, 2.61 49.91" stroke="#495057" stroke-width="1" fill="none"></path></g><g transform="translate(145.04314603430754 481.09722510080394) rotate(0 0.27434969694012423 23.199931505269348)"><path d="M9.78 29.81 C5.7 34.8, 1.73 38.78, 3.85 49.48 M9.1 25.28 C7.01 35.66, 2.96 45.77, 2.61 49.91" stroke="#495057" stroke-width="1" fill="none"></path></g></g><mask></mask><g stroke-linecap="round"><g transform="translate(663.0925079480812 471.9072928635474) rotate(0 0.7464944386526327 24.427715558331897)"><path d="M-2.73 -1.73 C-2.74 6.24, -2.13 38.28, -1.41 46.78 M0.98 3.51 C2.03 12.08, 4.29 43.63, 4.22 50.58" stroke="#495057" stroke-width="1" fill="none"></path></g><g transform="translate(663.0925079480812 471.9072928635474) rotate(0 0.7464944386526327 24.427715558331897)"><path d="M-7.07 27.07 C-2.08 36.91, 3.67 43.03, 0.49 52.1 M-3.66 29.73 C-3.64 32.48, 0.43 40.77, 2.57 52.33" stroke="#495057" stroke-width="1" fill="none"></path></g><g transform="translate(663.0925079480812 471.9072928635474) rotate(0 0.7464944386526327 24.427715558331897)"><path d="M8.81 26.43 C9.78 36.12, 11.52 42.4, 0.49 52.1 M12.21 29.08 C8.56 32.21, 8.96 40.65, 2.57 52.33" stroke="#495057" stroke-width="1" fill="none"></path></g></g><mask></mask><g transform="translate(24.145588647486022 780.4778185774608) rotate(0 125.2025146484375 16.80000000000001)"><text x="0" y="0" font-family="Virgil, Segoe UI Emoji" font-size="28px" fill="#495057" text-anchor="start" style="white-space: pre;" direction="ltr" dominant-baseline="text-before-edge">Native Compilation</text></g><g transform="translate(551.0608430116729 780.5684238895337) rotate(0 118.88848876953125 16.80000000000001)"><text x="0" y="0" font-family="Virgil, Segoe UI Emoji" font-size="28px" fill="#495057" text-anchor="start" style="white-space: pre;" direction="ltr" dominant-baseline="text-before-edge">Cross Compilation</text></g></svg>