<svg version="1.1" xmlns="http://www.w3.org/2000/svg" viewBox="0 0 944.5 419" width="1889" height="838">
  <!-- svg-source:excalidraw -->
  
  <defs>
    <style class="style-fonts">
      @font-face {
        font-family: "Virgil";
        src: url("https://excalidraw.com/Virgil.woff2");
      }
      @font-face {
        font-family: "Cascadia";
        src: url("https://excalidraw.com/Cascadia.woff2");
      }
      @font-face {
        font-family: "Assistant";
        src: url("https://excalidraw.com/Assistant-Regular.woff2");
      }
    </style>
    
  </defs>
  <g stroke-opacity="0.4" fill-opacity="0.4" stroke-linecap="round" transform="translate(10 10) rotate(0 462.25 199.5)"><path d="M32 0 C266.84 -0.57, 500.91 -1.3, 892.5 0 M892.5 0 C912.07 1.08, 925.83 9.31, 924.5 32 M924.5 32 C924.14 98.85, 923.5 166.74, 924.5 367 M924.5 367 C926.39 389.39, 912.25 400.37, 892.5 399 M892.5 399 C704.85 401.27, 516.91 401.4, 32 399 M32 399 C10.21 399.14, 1 390.12, 0 367 M0 367 C-0.35 267.62, 0.78 166.54, 0 32 M0 32 C1.32 11.21, 10.97 -0.58, 32 0" stroke="#fd7e14" stroke-width="2.5" fill="none" stroke-dasharray="1.5 8"></path></g><g stroke-linecap="round"><g transform="translate(71.19670937693354 395.2314605309417) rotate(0 401.10265409841907 -70.269551410627)" fill-rule="evenodd"><path d="M-2.27 3.13 C117.24 5.01, 580.27 13.16, 720.53 7.42 C860.79 1.68, 827.15 -8.14, 839.28 -31.32 C851.41 -54.51, 822.66 -112.92, 793.32 -131.68 C763.98 -150.44, 726.65 -142.06, 663.23 -143.9 C599.82 -145.73, 495.54 -142.78, 412.81 -142.69 C330.08 -142.59, 231.37 -145.88, 166.85 -143.32 C102.34 -140.76, 57.54 -137.47, 25.72 -127.35 C-6.1 -117.23, -14.06 -98.75, -24.07 -82.59 C-34.08 -66.44, -38.25 -44.25, -34.36 -30.4 C-30.47 -16.56, -6.3 -4.65, -0.75 0.48" stroke="none" stroke-width="0" fill="#ffd8a8" fill-rule="evenodd"></path><path d="M-1.25 -1.89 C119.32 -1.6, 581.45 8.66, 721.24 3.6 C861.04 -1.47, 824.48 -9.79, 837.5 -32.26 C850.51 -54.72, 828.72 -113.21, 799.35 -131.2 C769.98 -149.2, 725.66 -137.52, 661.29 -140.24 C596.92 -142.97, 494.86 -147.69, 413.13 -147.56 C331.4 -147.42, 235.1 -143.36, 170.91 -139.42 C106.73 -135.47, 61.32 -133.81, 28.03 -123.87 C-5.27 -113.93, -18.42 -94.86, -28.87 -79.76 C-39.32 -64.67, -39.58 -46.98, -34.66 -33.29 C-29.74 -19.6, -5.11 -3.26, 0.65 2.37 M3.27 3.26 C123.57 3.8, 578.43 12.33, 718.42 6.88 C858.42 1.43, 830.84 -6.64, 843.23 -29.43 C855.62 -52.22, 823.6 -111.52, 792.74 -129.85 C761.88 -148.18, 720.76 -137.24, 658.08 -139.41 C595.39 -141.58, 497.52 -142.47, 416.63 -142.88 C335.74 -143.29, 237.74 -144.93, 172.74 -141.85 C107.74 -138.77, 59.67 -134.2, 26.62 -124.39 C-6.43 -114.59, -14.45 -98.12, -25.56 -83.01 C-36.67 -67.9, -44.6 -47.12, -40.04 -33.73 C-35.49 -20.34, -4.33 -8.24, 1.77 -2.66" stroke="#ffd8a8" stroke-width="1" fill="none"></path></g></g><mask></mask><g transform="translate(703.6209075866234 344.1685124327805) rotate(0 88.984375 17.5)"><text x="0" y="0" font-family="Virgil, Segoe UI Emoji" font-size="28px" fill="#ffffff" text-anchor="start" style="white-space: pre;" direction="ltr" dominant-baseline="text-before-edge">@hemashushu</text></g></svg>