<svg version="1.1" xmlns="http://www.w3.org/2000/svg" viewBox="0 0 738.2147505387052 507.75" width="1476.4295010774104" height="1015.5">
  <!-- svg-source:excalidraw -->
  
  <defs>
    <style class="style-fonts">
      @font-face {
        font-family: "Virgil";
        src: url("https://excalidraw.com/Virgil.woff2");
      }
      @font-face {
        font-family: "Cascadia";
        src: url("https://excalidraw.com/Cascadia.woff2");
      }
    </style>
  </defs>
  <rect x="0" y="0" width="738.2147505387052" height="507.75" fill="#ffffff"></rect><g transform="translate(452.99743507411654 465.84493649332364) rotate(0 64.5 12.5)"><text x="0" y="18" font-family="Virgil, Segoe UI Emoji" font-size="20px" fill="#e6770055" text-anchor="start" style="white-space: pre;" direction="ltr">@hemashushu</text></g><g stroke-linecap="round" transform="translate(285.7500000000001 353.75) rotate(0 48.00000000000006 23)"><path d="M15.32 -1.45 L89.14 4.64 L99.43 7.13 L94.55 38.66 L80.92 44.18 L6.27 46.86 L-0.18 39.01 L-2.87 11.89 L0.75 3.57 L8.88 0.87" stroke="none" stroke-width="0" fill="#40c05733"></path><path d="M11.5 0 M11.5 0 C42.22 0.23, 67.08 1.22, 84.5 0 M11.5 0 C27.61 1.37, 41.04 -0.37, 84.5 0 M84.5 0 C90.99 1.07, 93.98 0.62, 96 11.5 M84.5 0 C94.84 -3.94, 92.75 6.03, 96 11.5 M96 11.5 C97.29 21.84, 93.79 26.58, 96 34.5 M96 11.5 C96.31 18.95, 94.57 28.6, 96 34.5 M96 34.5 C94.74 39.62, 90.19 45.86, 84.5 46 M96 34.5 C96.8 38.3, 95.62 43.6, 84.5 46 M84.5 46 C64.64 44.09, 53.77 43.64, 11.5 46 M84.5 46 C54.65 46.06, 28.63 48.21, 11.5 46 M11.5 46 C0.8 44.49, -0.31 42.01, 0 34.5 M11.5 46 C3.25 45.53, -4.41 44.31, 0 34.5 M0 34.5 C1.92 30.16, -3.57 19.55, 0 11.5 M0 34.5 C-1.42 27.37, 0.71 21.54, 0 11.5 M0 11.5 C-3.42 7.71, 6.56 2.84, 11.5 0 M0 11.5 C-2.32 0.47, 1.93 -2.25, 11.5 0" stroke="#2b8a3e" stroke-width="1" fill="none"></path></g><g transform="translate(308.75 364.25) rotate(0 25 12.5)"><text x="25" y="18" font-family="Virgil, Segoe UI Emoji" font-size="20px" fill="#2b8a3e" text-anchor="middle" style="white-space: pre;" direction="ltr">linker</text></g><g stroke-linecap="round" transform="translate(250.7499999999999 462.75) rotate(0 86.49999999999994 17.5)"><path d="M9.07 0.8 L171.51 4.06 L170 1.33 L172.81 33.08 L167.76 35.52 L162.05 31.17 L8.8 37.77 L-1.15 30.7 L-2.91 7.63 L2.42 5.38 L8.84 2.64" stroke="none" stroke-width="0" fill="#fab00555"></path><path d="M8.75 0 M8.75 0 C58.97 -2.7, 119.61 0.01, 164.25 0 M8.75 0 C50.3 -1.11, 90.61 -2.98, 164.25 0 M164.25 0 C166.85 -2.6, 173.82 4.01, 173 8.75 M164.25 0 C169.7 1.51, 171.18 0.4, 173 8.75 M173 8.75 C171.01 10.34, 169.7 18.92, 173 26.25 M173 8.75 C172.68 10.99, 174.77 15.72, 173 26.25 M173 26.25 C172.58 32.01, 171.45 36.48, 164.25 35 M173 26.25 C176.99 30.63, 166.77 38.18, 164.25 35 M164.25 35 C123.1 32.6, 82.43 34.06, 8.75 35 M164.25 35 C129.32 35.61, 97.01 34.41, 8.75 35 M8.75 35 C3.24 38.99, 1.85 34.29, 0 26.25 M8.75 35 C2.25 33.76, 4.32 28.81, 0 26.25 M0 26.25 C3.08 22.9, -3.05 11.66, 0 8.75 M0 26.25 C-0.19 22.52, -1.64 16.9, 0 8.75 M0 8.75 C-2.72 0.91, -0.63 1.73, 8.75 0 M0 8.75 C-3.76 4.35, 4.86 0.12, 8.75 0" stroke="#e67700" stroke-width="1" fill="none"></path></g><g transform="translate(279.75 467.75) rotate(0 57.5 12.5)"><text x="57.5" y="18" font-family="Virgil, Segoe UI Emoji" font-size="20px" fill="#e67700" text-anchor="middle" style="white-space: pre;" direction="ltr">linker script</text></g><g stroke-linecap="round" transform="translate(517.7500000000016 188.25) rotate(0 56 23)"><path d="M13.7 0.3 L106.72 4.01 L111.94 6.52 L114.8 9.31 L112.35 39.38 L107.83 40.5 L96.74 43.81 L7.39 46.4 L2.33 42.7 L-1.53 34.84 L-2.19 5.2 L2.64 1.93 L9.01 -3.3" stroke="none" stroke-width="0" fill="#fab00555"></path><path d="M11.5 0 M11.5 0 C32.97 2.48, 59.98 1.43, 100.5 0 M11.5 0 C36.92 -0.63, 60.84 2.9, 100.5 0 M100.5 0 C110.37 3.05, 108.2 5.03, 112 11.5 M100.5 0 C104.81 -3.59, 109.43 6.7, 112 11.5 M112 11.5 C111.03 22.46, 110.12 25.01, 112 34.5 M112 11.5 C111.89 18.49, 113.47 25.48, 112 34.5 M112 34.5 C113.11 45.26, 110.12 46.27, 100.5 46 M112 34.5 C109.67 40.11, 107.68 49.74, 100.5 46 M100.5 46 C85.61 49.45, 67.59 49.39, 11.5 46 M100.5 46 C78.82 45.92, 59.13 46.64, 11.5 46 M11.5 46 C3.19 43.11, -2.86 39.15, 0 34.5 M11.5 46 C1.21 47.53, 2.73 45.67, 0 34.5 M0 34.5 C2.94 25.96, 1.02 17.15, 0 11.5 M0 34.5 C1.1 25.94, -0.73 16.85, 0 11.5 M0 11.5 C-1.93 6.81, 3 -3.14, 11.5 0 M0 11.5 C-3.3 6.47, 5.55 3.86, 11.5 0" stroke="#e67700" stroke-width="1" fill="none"></path></g><g transform="translate(552.2500000000016 198.75) rotate(0 21.5 12.5)"><text x="21.5" y="18" font-family="Virgil, Segoe UI Emoji" font-size="20px" fill="#e67700" text-anchor="middle" style="white-space: pre;" direction="ltr">ASM</text></g><g stroke-linecap="round" transform="translate(516.2499999999998 349.25) rotate(0 55.5 23)"><path d="M14.05 -0.92 L101.8 -2.86 L109.23 4.72 L113.4 8.66 L107.99 41.34 L104.88 47.9 L96.16 48.85 L3.8 42.67 L0.95 45.15 L-1.83 35.81 L2.06 10.39 L-0.45 2.43 L15.3 -3.04" stroke="none" stroke-width="0" fill="#40c05733"></path><path d="M11.5 0 M11.5 0 C33.64 2.78, 60.05 -3.71, 99.5 0 M11.5 0 C44.57 -2.59, 75.65 -0.33, 99.5 0 M99.5 0 C108.06 -1.12, 109.97 6.61, 111 11.5 M99.5 0 C105.93 2.78, 113.62 7.93, 111 11.5 M111 11.5 C110.61 18.53, 112.24 28.09, 111 34.5 M111 11.5 C113.19 17.23, 109.47 25.24, 111 34.5 M111 34.5 C110.8 40.61, 111.06 43.27, 99.5 46 M111 34.5 C112.17 40.09, 105.1 42.47, 99.5 46 M99.5 46 C67.83 42.07, 36.4 45.76, 11.5 46 M99.5 46 C73 46.49, 46.11 46.78, 11.5 46 M11.5 46 C2.77 48.79, 2.75 40.75, 0 34.5 M11.5 46 C1.64 45.22, 3.29 41.32, 0 34.5 M0 34.5 C2.4 32.3, -3.55 22.38, 0 11.5 M0 34.5 C-0.49 25.07, 1.24 17.37, 0 11.5 M0 11.5 C3.3 3.74, 0.67 2.38, 11.5 0 M0 11.5 C3.27 8.4, 7.85 2.48, 11.5 0" stroke="#2b8a3e" stroke-width="1" fill="none"></path></g><g transform="translate(523.7499999999998 359.75) rotate(0 48 12.5)"><text x="48" y="18" font-family="Virgil, Segoe UI Emoji" font-size="20px" fill="#2b8a3e" text-anchor="middle" style="white-space: pre;" direction="ltr">assembler</text></g><g stroke-linecap="round" transform="translate(273.75 189.75) rotate(0 52.5 23)"><path d="M11.94 3.43 L101.04 1.87 L99.07 1.17 L103.81 11.18 L100.35 39.87 L99.04 44.25 L95.88 44.59 L6.49 46.64 L1.92 40.59 L1.11 39.14 L4.04 9.57 L0.27 2.99 L8.77 3.65" stroke="none" stroke-width="0" fill="#fab00555"></path><path d="M11.5 0 M11.5 0 C37.03 1.58, 61.23 -4.28, 93.5 0 M11.5 0 C39.92 0.24, 66.1 0.34, 93.5 0 M93.5 0 C98.34 -3.53, 105.62 5.5, 105 11.5 M93.5 0 C105.54 -1.28, 109.32 1.95, 105 11.5 M105 11.5 C101.35 21.49, 107.75 26.81, 105 34.5 M105 11.5 C107.05 16.14, 104.48 22.41, 105 34.5 M105 34.5 C104.1 41.28, 103.68 49.28, 93.5 46 M105 34.5 C106.02 46.19, 102.7 45.77, 93.5 46 M93.5 46 C77.51 49.19, 57.55 46.39, 11.5 46 M93.5 46 C64.78 43.65, 34.78 44.29, 11.5 46 M11.5 46 C7.82 43.44, 3.18 43.85, 0 34.5 M11.5 46 C2.61 48.6, -3.29 37.91, 0 34.5 M0 34.5 C2.59 22.62, -2.48 19.35, 0 11.5 M0 34.5 C0.04 25.32, 1.49 19.99, 0 11.5 M0 11.5 C2.91 6.69, 0.66 -1.98, 11.5 0 M0 11.5 C-0.59 5.96, -0.38 -0.26, 11.5 0" stroke="#e67700" stroke-width="1" fill="none"></path></g><g transform="translate(313.25 200.25) rotate(0 13 12.5)"><text x="13" y="18" font-family="Virgil, Segoe UI Emoji" font-size="20px" fill="#e67700" text-anchor="middle" style="white-space: pre;" direction="ltr">IR</text></g><g stroke-linecap="round" transform="translate(10.750000000001592 327.75) rotate(0 58.25 53.75)"><path d="M35.22 4.86 C43.45 0.95, 57.29 -0.53, 67 0.31 C76.72 1.15, 85.79 4.07, 93.52 9.9 C101.24 15.72, 109.41 26.46, 113.35 35.26 C117.29 44.07, 118.45 54.23, 117.15 62.72 C115.85 71.22, 112.07 79.56, 105.57 86.24 C99.06 92.92, 87.55 99.24, 78.12 102.79 C68.68 106.35, 58.34 108.61, 48.95 107.57 C39.55 106.53, 29.21 102.47, 21.75 96.57 C14.3 90.67, 8.06 80.31, 4.21 72.18 C0.36 64.04, -2.87 56.55, -1.34 47.77 C0.19 38.99, -0.09 26.43, 13.4 19.49 C26.89 12.56, 63.39 3.44, 79.62 6.16 C95.85 8.88, 110.74 35.37, 110.78 35.8 M48.88 -1.24 C58.41 -3.83, 71.72 0.44, 80.31 3.71 C88.9 6.98, 94.49 11.53, 100.43 18.38 C106.37 25.22, 113.47 36.08, 115.96 44.78 C118.44 53.48, 118.71 62.06, 115.36 70.57 C112.01 79.08, 103.2 89.94, 95.85 95.85 C88.5 101.77, 81.1 104.61, 71.27 106.06 C61.44 107.51, 46.84 107.16, 36.88 104.55 C26.92 101.94, 17.41 96.97, 11.5 90.4 C5.59 83.83, 3.22 74.78, 1.4 65.15 C-0.43 55.51, -2.85 41.8, 0.56 32.6 C3.98 23.41, 14.42 14.94, 21.89 9.98 C29.35 5.02, 41.41 3.99, 45.37 2.83 C49.33 1.67, 44.96 2.42, 45.62 3.02" stroke="none" stroke-width="0" fill="#be4bdb55"></path><path d="M47.19 -0.39 C55.99 -2.51, 67.85 0.82, 76.74 3.94 C85.63 7.06, 94.1 11.76, 100.54 18.35 C106.98 24.93, 113.24 34.8, 115.37 43.44 C117.5 52.09, 116.65 61.59, 113.33 70.21 C110.01 78.83, 102.3 88.92, 95.46 95.17 C88.61 101.41, 81.65 106.04, 72.26 107.71 C62.88 109.38, 48.67 107.94, 39.15 105.18 C29.63 102.43, 21.45 97.91, 15.15 91.17 C8.85 84.44, 3.25 73.82, 1.34 64.76 C-0.57 55.71, 0.47 45.35, 3.69 36.83 C6.91 28.31, 12 19.91, 20.68 13.64 C29.36 7.37, 48.92 1.03, 55.8 -0.8 C62.68 -2.63, 62.04 1.29, 61.97 2.67 M48.88 0.83 C58.4 -1.17, 73.97 -1.34, 83.41 2.26 C92.84 5.87, 100.01 15.27, 105.48 22.47 C110.95 29.67, 115.05 36.67, 116.25 45.49 C117.44 54.3, 116.98 66.79, 112.66 75.36 C108.34 83.93, 98.57 91.36, 90.34 96.91 C82.11 102.47, 72.57 107.94, 63.28 108.69 C53.99 109.44, 43.72 105.58, 34.6 101.42 C25.47 97.25, 13.9 90.83, 8.54 83.71 C3.18 76.59, 3.02 67.69, 2.44 58.68 C1.87 49.66, 1.16 37.55, 5.08 29.63 C8.99 21.71, 18.52 16.41, 25.94 11.15 C33.36 5.89, 45.35 -0.7, 49.62 -1.94 C53.89 -3.18, 51.53 2.47, 51.55 3.7" stroke="#862e9c" stroke-width="1" fill="none"></path></g><g transform="translate(25.00000000000159 371.5) rotate(0 44 10)"><text x="44" y="14" font-family="Virgil, Segoe UI Emoji" font-size="16px" fill="#862e9c" text-anchor="middle" style="white-space: pre;" direction="ltr">Executable</text></g><g stroke-linecap="round"><g transform="translate(151.25 213.83873937259682) rotate(0 51.549454552899135 -0.9493663151995975)"><path d="M0.52 -0.49 C17.78 -0.35, 86.85 0.12, 103.77 0.16 M-0.67 -1.8 C16.49 -1.97, 85.71 -2.27, 103.22 -1.81" stroke="#c92a2a" stroke-width="1" fill="none"></path></g><g transform="translate(151.25 213.83873937259682) rotate(0 51.549454552899135 -0.9493663151995975)"><path d="M74.12 9.49 C84.41 3.29, 92.6 2.9, 102.87 -1.63 M75.81 7.21 C85.54 4.97, 94.34 0.42, 102.67 -1.36" stroke="#c92a2a" stroke-width="1" fill="none"></path></g><g transform="translate(151.25 213.83873937259682) rotate(0 51.549454552899135 -0.9493663151995975)"><path d="M74.3 -11.04 C84.41 -10.77, 92.54 -4.69, 102.87 -1.63 M75.99 -13.31 C85.77 -8.45, 94.51 -5.89, 102.67 -1.36" stroke="#c92a2a" stroke-width="1" fill="none"></path></g></g><g transform="translate(163.75 183.25) rotate(0 26.5 10)"><text x="0" y="14" font-family="Virgil, Segoe UI Emoji" font-size="16px" fill="#c92a2a" text-anchor="start" style="white-space: pre;" direction="ltr">compile</text></g><g stroke-linecap="round"><g transform="translate(394.68072289452107 214.26217023310846) rotate(0 52.13991948710293 -0.5490632423642126)"><path d="M-0.36 0.18 C16.57 0.08, 85.15 0.3, 102.29 0.38 M1.66 -0.77 C18.91 -1.31, 88 -1.38, 104.64 -1.47" stroke="#c92a2a" stroke-width="1" fill="none"></path></g><g transform="translate(394.68072289452107 214.26217023310846) rotate(0 52.13991948710293 -0.5490632423642126)"><path d="M76.78 7.71 C87.48 4.38, 98.12 1.94, 103 -1.69 M76.94 9.43 C86.19 6.03, 95.57 2.33, 104.77 -1.61" stroke="#c92a2a" stroke-width="1" fill="none"></path></g><g transform="translate(394.68072289452107 214.26217023310846) rotate(0 52.13991948710293 -0.5490632423642126)"><path d="M76.71 -12.82 C87.6 -8.69, 98.27 -3.68, 103 -1.69 M76.87 -11.1 C86.11 -7.18, 95.51 -3.56, 104.77 -1.61" stroke="#c92a2a" stroke-width="1" fill="none"></path></g></g><g transform="translate(407.18072289452107 183.67343086051164) rotate(0 26.5 10)"><text x="0" y="14" font-family="Virgil, Segoe UI Emoji" font-size="16px" fill="#c92a2a" text-anchor="start" style="white-space: pre;" direction="ltr">compile</text></g><g stroke-linecap="round" transform="translate(10 161) rotate(0 58.25 53.75)"><path d="M93.35 11.93 C101.08 16.75, 107.96 26.85, 111.74 35.27 C115.52 43.68, 117.33 53.4, 116.02 62.4 C114.72 71.41, 110.39 82.39, 103.91 89.28 C97.43 96.17, 86.26 101.16, 77.12 103.75 C67.98 106.34, 58.64 105.92, 49.1 104.83 C39.55 103.74, 27.63 102.54, 19.87 97.22 C12.12 91.89, 5.54 81.82, 2.56 72.88 C-0.43 63.94, 0.06 52.29, 1.97 43.6 C3.88 34.91, 8 27.58, 14.01 20.76 C20.02 13.94, 29.31 5.78, 38.05 2.7 C46.79 -0.38, 54.53 -1.85, 66.45 2.29 C78.37 6.43, 101.37 20.1, 109.6 27.57 C117.82 35.04, 116.53 46.81, 115.78 47.1 M98.31 18.61 C104.62 23.68, 111.76 31.91, 113.93 39.87 C116.1 47.84, 113.78 57.65, 111.32 66.4 C108.87 75.15, 105.38 85.98, 99.21 92.39 C93.04 98.81, 84.14 102.89, 74.32 104.89 C64.51 106.89, 50.38 107.08, 40.32 104.4 C30.25 101.71, 20.51 95.15, 13.93 88.76 C7.36 82.38, 2.86 74.78, 0.89 66.08 C-1.08 57.38, -1.2 44.95, 2.1 36.55 C5.41 28.14, 13.37 21.23, 20.73 15.66 C28.1 10.09, 37.11 5.71, 46.3 3.13 C55.5 0.54, 66.93 -1.89, 75.92 0.16 C84.9 2.21, 96.45 12.4, 100.2 15.42 C103.96 18.43, 99.4 16.99, 98.45 18.24" stroke="none" stroke-width="0" fill="#228be655"></path><path d="M102.93 18.69 C109.55 24.21, 111.82 34.12, 113.66 43.01 C115.51 51.9, 116.96 63.45, 114 72.03 C111.05 80.62, 103.27 89.01, 95.94 94.51 C88.61 100.02, 79.9 103.62, 70.04 105.08 C60.17 106.54, 46.24 106.15, 36.77 103.26 C27.31 100.36, 19.43 94.68, 13.24 87.71 C7.05 80.73, 1.49 70.04, -0.39 61.42 C-2.28 52.8, -1.44 44.36, 1.95 35.97 C5.35 27.58, 12.33 16.75, 19.97 11.09 C27.61 5.43, 37.82 3.33, 47.79 2.03 C57.76 0.74, 69.23 -1.78, 79.78 3.32 C90.34 8.42, 105.29 24.63, 111.11 32.62 C116.92 40.6, 115.54 50.36, 114.68 51.23 M75.27 0.74 C84.82 2.87, 97.52 10.02, 104.47 17.45 C111.43 24.88, 115.57 36.14, 117.01 45.33 C118.46 54.51, 116.79 64.37, 113.14 72.59 C109.49 80.81, 102.46 89.24, 95.12 94.62 C87.77 100.01, 78.28 103.41, 69.07 104.88 C59.85 106.35, 49.5 106.45, 39.83 103.47 C30.16 100.48, 17.18 94.01, 11.06 86.95 C4.95 79.89, 4.08 69.81, 3.14 61.13 C2.2 52.44, 2.71 42.84, 5.44 34.83 C8.16 26.81, 12.19 18.54, 19.47 13.05 C26.75 7.57, 39.05 3.77, 49.13 1.92 C59.21 0.07, 75.48 1.37, 79.95 1.95 C84.42 2.53, 76.57 4.82, 75.94 5.38" stroke="#1864ab" stroke-width="1" fill="none"></path></g><g transform="translate(35.25 202.25) rotate(0 33 12.5)"><text x="33" y="18" font-family="Virgil, Segoe UI Emoji" font-size="20px" fill="#1864ab" text-anchor="middle" style="white-space: pre;" direction="ltr">Source</text></g><g stroke-linecap="round"><g transform="translate(266.2005454471008 383.01381443299204) rotate(0 -59.45222468747295 1.1668444739914037)"><path d="M-0.11 -0.2 C-20 0.29, -98.4 1.71, -118.24 2.25 M-1.63 -1.34 C-21.71 -0.62, -99.06 3.29, -118.79 3.68" stroke="#c92a2a" stroke-width="1" fill="none"></path></g><g transform="translate(266.2005454471008 383.01381443299204) rotate(0 -59.45222468747295 1.1668444739914037)"><path d="M-91.33 -6.36 C-102.27 -3.51, -111.81 2.27, -118.2 3.91 M-90.98 -6.68 C-98.24 -3.92, -105.79 -0.49, -119.34 2.77" stroke="#c92a2a" stroke-width="1" fill="none"></path></g><g transform="translate(266.2005454471008 383.01381443299204) rotate(0 -59.45222468747295 1.1668444739914037)"><path d="M-90.57 14.15 C-101.7 8.98, -111.54 6.74, -118.2 3.91 M-90.21 13.83 C-97.86 10.81, -105.62 8.47, -119.34 2.77" stroke="#c92a2a" stroke-width="1" fill="none"></path></g></g><g stroke-linecap="round"><g transform="translate(494.2005454471025 377.2947181072273) rotate(0 -46.54344697818624 -0.08222475841139953)"><path d="M0.52 0.32 C-14.78 0.44, -77.32 0.94, -92.64 0.82 M-0.67 -0.56 C-16.05 -0.79, -78.46 -1.15, -93.6 -0.94" stroke="#c92a2a" stroke-width="1" fill="none"></path></g><g transform="translate(494.2005454471025 377.2947181072273) rotate(0 -46.54344697818624 -0.08222475841139953)"><path d="M-64.91 -11.31 C-70.71 -6.81, -79.1 -4.48, -95.42 -0.56 M-64.62 -10.81 C-76.76 -7.94, -87.05 -4.27, -93.35 -1.87" stroke="#c92a2a" stroke-width="1" fill="none"></path></g><g transform="translate(494.2005454471025 377.2947181072273) rotate(0 -46.54344697818624 -0.08222475841139953)"><path d="M-64.86 9.21 C-70.69 9.04, -79.09 6.7, -95.42 -0.56 M-64.57 9.71 C-76.72 4.89, -87.03 0.87, -93.35 -1.87" stroke="#c92a2a" stroke-width="1" fill="none"></path></g></g><g stroke-linecap="round"><g transform="translate(331.435157454021 450.25) rotate(0 -0.9768219721714786 -21.891192155270858)"><path d="M0 -0.88 C-0.16 -8.42, -0.7 -37.94, -1.08 -45.06 M-1.46 1.28 C-1.74 -6.18, -2.13 -36.25, -1.86 -44.08" stroke="#c92a2a" stroke-width="1" fill="none"></path></g><g transform="translate(331.435157454021 450.25) rotate(0 -0.9768219721714786 -21.891192155270858)"><path d="M4.06 -22.81 C1.57 -30.85, 1.86 -34.33, -3.58 -42.2 M6.45 -23.64 C2.64 -30.48, 0.84 -36.59, -1.56 -43.53" stroke="#c92a2a" stroke-width="1" fill="none"></path></g><g transform="translate(331.435157454021 450.25) rotate(0 -0.9768219721714786 -21.891192155270858)"><path d="M-11 -22.92 C-9.11 -30.93, -4.44 -34.38, -3.58 -42.2 M-8.6 -23.74 C-7.84 -30.63, -5.07 -36.71, -1.56 -43.53" stroke="#c92a2a" stroke-width="1" fill="none"></path></g></g><g stroke-linecap="round" transform="translate(509.5000000000016 10) rotate(0 58.25 53.75)"><path d="M12.85 20.6 C18.31 13.66, 31.56 6.22, 40.95 2.74 C50.33 -0.73, 59.86 -2.04, 69.17 -0.26 C78.47 1.52, 89.74 7.71, 96.78 13.45 C103.83 19.18, 108.16 26.04, 111.44 34.15 C114.71 42.25, 118.11 52.82, 116.44 62.07 C114.77 71.32, 108.19 82.64, 101.41 89.65 C94.63 96.66, 84.46 101.4, 75.75 104.13 C67.04 106.86, 58.58 107.57, 49.14 106.02 C39.69 104.46, 26.91 100.85, 19.08 94.81 C11.24 88.77, 5.09 77.96, 2.13 69.77 C-0.82 61.59, -8.08 57.14, 1.34 45.72 C10.76 34.3, 41.98 5.64, 58.66 1.27 C75.34 -3.11, 101.3 18.77, 101.43 19.46 M98.94 14.16 C106.3 18.67, 108.12 27.42, 110.41 35.93 C112.7 44.44, 113.58 56.64, 112.69 65.23 C111.81 73.83, 111.15 80.82, 105.11 87.49 C99.07 94.15, 86.14 102.14, 76.44 105.22 C66.74 108.3, 56.43 107.6, 46.94 105.98 C37.44 104.35, 26.91 101.5, 19.48 95.48 C12.04 89.47, 5.22 77.97, 2.35 69.89 C-0.53 61.8, 0.64 55.52, 2.23 46.96 C3.82 38.4, 5.44 25.6, 11.9 18.54 C18.35 11.47, 31.32 7.75, 40.97 4.55 C50.62 1.34, 60.93 -2.34, 69.8 -0.69 C78.67 0.97, 90.39 12.55, 94.18 14.45 C97.96 16.36, 92.39 10.01, 92.51 10.73" stroke="none" stroke-width="0" fill="#15aabf55"></path><path d="M20.1 14.63 C26.41 8.06, 35.36 3.54, 44.69 1.45 C54.01 -0.63, 66.54 -0.57, 76.06 2.12 C85.57 4.82, 95.21 10.6, 101.8 17.63 C108.39 24.65, 113.83 35.31, 115.62 44.26 C117.4 53.2, 115.26 63.44, 112.51 71.31 C109.77 79.19, 106.04 85.46, 99.14 91.5 C92.24 97.54, 80.78 105.05, 71.12 107.55 C61.46 110.06, 50.6 109.56, 41.2 106.54 C31.8 103.51, 21.45 96.57, 14.74 89.39 C8.02 82.21, 2.66 72.02, 0.91 63.46 C-0.84 54.91, -1.81 47.93, 4.25 38.05 C10.3 28.18, 27.71 10.44, 37.24 4.2 C46.77 -2.03, 60.64 0.07, 61.42 0.64 M59.42 -0.38 C68.78 -0.61, 78.93 3.88, 87.15 8.43 C95.36 12.97, 103.52 19.78, 108.71 26.89 C113.89 34.01, 118.21 42.02, 118.26 51.12 C118.3 60.22, 114.24 73.91, 108.97 81.5 C103.69 89.1, 95.1 92.68, 86.61 96.69 C78.11 100.7, 67.35 104.56, 57.97 105.59 C48.6 106.62, 38.28 106.54, 30.35 102.89 C22.41 99.24, 14.95 91.33, 10.36 83.71 C5.77 76.08, 3.86 66.26, 2.81 57.16 C1.76 48.06, 0.14 37.25, 4.05 29.1 C7.97 20.95, 17.46 13.04, 26.29 8.24 C35.11 3.44, 52.03 1.12, 57 0.27 C61.96 -0.57, 56.53 2.7, 56.06 3.18" stroke="#0b7285" stroke-width="1" fill="none"></path></g><g transform="translate(544.7500000000016 53.75) rotate(0 23 10)"><text x="23" y="14" font-family="Virgil, Segoe UI Emoji" font-size="16px" fill="#0b7285" text-anchor="middle" style="white-space: pre;" direction="ltr">WASM</text></g><g stroke-linecap="round"><g transform="translate(329.7500000000016 167.75) rotate(0 77.79235092476011 -54.90050508835819)"><path d="M-0.43 0.3 C5.1 -15.74, 6.76 -78.42, 32.83 -96.53 C58.9 -114.64, 135.7 -106.17, 156.01 -108.36 M1.54 -0.58 C6.91 -16.47, 6 -77.15, 31.66 -95.41 C57.32 -113.66, 135.04 -107.9, 155.52 -110.1" stroke="#0b7285" stroke-width="1" fill="none"></path></g><g transform="translate(329.7500000000016 167.75) rotate(0 77.79235092476011 -54.90050508835819)"><path d="M128.07 -99.91 C133.86 -101.2, 144.64 -106.31, 155.23 -108.55 M126.98 -98.65 C136.33 -103.8, 147.83 -106, 156.32 -110.07" stroke="#0b7285" stroke-width="1" fill="none"></path></g><g transform="translate(329.7500000000016 167.75) rotate(0 77.79235092476011 -54.90050508835819)"><path d="M127.61 -120.43 C133.48 -116.16, 144.39 -115.71, 155.23 -108.55 M126.51 -119.17 C136.11 -117.19, 147.76 -112.28, 156.32 -110.07" stroke="#0b7285" stroke-width="1" fill="none"></path></g></g><g stroke-linecap="round"><g transform="translate(652.2934469781878 214.83222475841148) rotate(0 36.152320689208636 73.37768072122898)"><path d="M-1.04 -0.84 C8.6 3.68, 42.39 14.87, 55.22 25.89 C68.05 36.9, 75.77 52.64, 75.92 65.25 C76.07 77.87, 69.4 87.36, 56.14 101.57 C42.88 115.78, 6.38 141.73, -3.62 150.51 M3.59 -3.76 C13.06 1.19, 40.84 17.88, 52.73 28.6 C64.61 39.32, 74.27 48.14, 74.91 60.58 C75.54 73.03, 68.84 88.35, 56.52 103.25 C44.2 118.16, 10.63 141.81, 1.01 150.01" stroke="#c92a2a" stroke-width="1" fill="none"></path></g><g transform="translate(652.2934469781878 214.83222475841148) rotate(0 36.152320689208636 73.37768072122898)"><path d="M15.68 123.87 C10.99 131.74, 12.4 134.34, -1.41 148.57 M15.99 125.73 C13.67 129.67, 11.49 135.6, 0.47 149.98" stroke="#c92a2a" stroke-width="1" fill="none"></path></g><g transform="translate(652.2934469781878 214.83222475841148) rotate(0 36.152320689208636 73.37768072122898)"><path d="M28.33 140.02 C21.18 144.48, 20 143.77, -1.41 148.57 M28.64 141.88 C23.87 142.6, 19.08 145.2, 0.47 149.98" stroke="#c92a2a" stroke-width="1" fill="none"></path></g></g></svg>