<svg version="1.1" xmlns="http://www.w3.org/2000/svg" viewBox="0 0 1173.5672858643184 707.6085945461161" width="2347.1345717286367" height="1415.2171890922323">
  <!-- svg-source:excalidraw -->
  
  <defs>
    <style class="style-fonts">
      @font-face {
        font-family: "Virgil";
        src: url("https://excalidraw.com/Virgil.woff2");
      }
      @font-face {
        font-family: "Cascadia";
        src: url("https://excalidraw.com/Cascadia.woff2");
      }
      @font-face {
        font-family: "Assistant";
        src: url("https://excalidraw.com/Assistant-Regular.woff2");
      }
    </style>
    
  </defs>
  <g stroke-linecap="round" transform="translate(10 188.818108055256) rotate(0 126.80555555555554 66)"><path d="M32 0 C81.71 0.83, 124.13 -3.66, 221.61 0 C241.54 -3.21, 254.54 9.68, 253.61 32 C253.89 48.22, 251.07 70.62, 253.61 100 C254.08 118.2, 239.86 132.44, 221.61 132 C175.46 130.68, 131.25 130.71, 32 132 C7.98 129.08, 1.27 120.92, 0 100 C4 81.89, -2.37 59.23, 0 32 C0.47 9.94, 12.22 1.86, 32 0" stroke="none" stroke-width="0" fill="#e6fcf5"></path><path d="M32 0 C97.77 -0.65, 160.23 -1.17, 221.61 0 M32 0 C98.83 -2.51, 166.71 -2.33, 221.61 0 M221.61 0 C243.65 -1.3, 252.55 10.31, 253.61 32 M221.61 0 C241.64 1.35, 254.78 8.94, 253.61 32 M253.61 32 C254.93 54.33, 251.54 77.1, 253.61 100 M253.61 32 C253.01 58.84, 254.41 85.99, 253.61 100 M253.61 100 C252.67 121.95, 243.84 133.05, 221.61 132 M253.61 100 C252.04 121.39, 241.88 134.29, 221.61 132 M221.61 132 C171.21 129.47, 122.36 132.85, 32 132 M221.61 132 C162.95 130.22, 105.19 130.7, 32 132 M32 132 C11.23 132.69, -0.92 121.46, 0 100 M32 132 C12.27 133.06, -1.02 120.23, 0 100 M0 100 C-1.06 80.18, -0.49 60.07, 0 32 M0 100 C-0.22 75.32, 0 50.76, 0 32 M0 32 C-0.19 10.48, 12.07 -1.37, 32 0 M0 32 C-1.68 9.77, 10.9 1.78, 32 0" stroke="#12b886" stroke-width="1" fill="none"></path></g><g transform="translate(34.88888888888886 136.42921916636715) rotate(0 99.16240692138672 17.5)"><text x="0" y="0" font-family="Virgil, Segoe UI Emoji" font-size="28px" fill="#12b886" text-anchor="start" style="white-space: pre;" direction="ltr" dominant-baseline="text-before-edge">Application #0</text></g><g stroke-linecap="round" transform="translate(699.6058599686642 59.785714285714334) rotate(0 231.9807129478271 191.10419128044816)"><path d="M32 0 C180.12 5.33, 328.93 4.41, 431.96 0 C452.56 -3.22, 462.72 8.43, 463.96 32 C459.2 123.62, 459.21 212.43, 463.96 350.21 C464.07 374.11, 450.88 383.22, 431.96 382.21 C321.74 382.74, 207.04 382.14, 32 382.21 C14.15 380.78, -0.76 374.03, 0 350.21 C-0.11 261.65, 1.01 176.72, 0 32 C-2.06 9.1, 9.41 0.39, 32 0" stroke="none" stroke-width="0" fill="#eefcfe"></path><path d="M32 0 C158.99 2.75, 283.78 2.62, 431.96 0 M32 0 C137.83 -1.04, 244.36 -1.04, 431.96 0 M431.96 0 C453.55 0.22, 464.74 12.42, 463.96 32 M431.96 0 C453.37 -1.49, 465.26 8.62, 463.96 32 M463.96 32 C461.97 142.44, 463.84 251.68, 463.96 350.21 M463.96 32 C462.65 152.14, 463.07 272.49, 463.96 350.21 M463.96 350.21 C463.57 370.52, 453.37 382.36, 431.96 382.21 M463.96 350.21 C462.7 369.53, 454.45 384.04, 431.96 382.21 M431.96 382.21 C301.97 383.51, 169.21 383.78, 32 382.21 M431.96 382.21 C306.75 382.53, 181.66 381.81, 32 382.21 M32 382.21 C8.72 380.82, 0.87 371.73, 0 350.21 M32 382.21 C9.15 382.41, 0.85 372.28, 0 350.21 M0 350.21 C-0.43 273.5, 0.21 196.02, 0 32 M0 350.21 C1.45 278.62, 0.88 207.64, 0 32 M0 32 C1.81 10.02, 11.63 -1.16, 32 0 M0 32 C1.85 8.82, 12.72 0.46, 32 0" stroke="#15aabf" stroke-width="1" fill="none"></path></g><g stroke-linecap="round" transform="translate(725.0673522739207 253.49409684661066) rotate(0 95.25 85)"><path d="M32 0 C60.25 1.19, 87.85 0.81, 158.5 0 C179.77 2.33, 193.52 12.91, 190.5 32 C189.43 73.84, 193.21 109.57, 190.5 138 C193.87 157.73, 181 171.22, 158.5 170 C118.18 164.74, 78.98 168.88, 32 170 C9.91 172.4, -3.15 157.55, 0 138 C-0.18 105.06, 5.26 63.47, 0 32 C2.48 14.04, 13.25 0.03, 32 0" stroke="none" stroke-width="0" fill="#ebfbee"></path><path d="M32 0 C64.55 -1.18, 93.35 1.71, 158.5 0 M32 0 C80.87 1.2, 129.94 1.32, 158.5 0 M158.5 0 C181.33 -1.14, 192.13 10.34, 190.5 32 M158.5 0 C179.9 -0.22, 188.5 8.72, 190.5 32 M190.5 32 C188.73 68.51, 188.78 106.16, 190.5 138 M190.5 32 C191.26 53.7, 190.36 76.98, 190.5 138 M190.5 138 C191.92 160.56, 181.8 171.54, 158.5 170 M190.5 138 C190.75 160.46, 181.33 167.73, 158.5 170 M158.5 170 C115.97 170.63, 72.5 171.46, 32 170 M158.5 170 C130.22 168.77, 100.37 169.42, 32 170 M32 170 C11.04 170.84, 1.99 157.85, 0 138 M32 170 C11.84 169.81, 0.8 158.55, 0 138 M0 138 C1.7 104.54, 0.61 72.29, 0 32 M0 138 C0.07 114.79, -0.63 92.39, 0 32 M0 32 C0.29 9.95, 9.67 1.17, 32 0 M0 32 C-0.06 10.86, 11.68 1.55, 32 0" stroke="#40c057" stroke-width="1" fill="none"></path></g><g stroke-linecap="round" transform="translate(745.5754599424098 319.99409684661066) rotate(0 75.74999999999994 17.5)"><path d="M8.75 0 C53.91 0.46, 104.96 0.62, 142.75 0 C151.61 2.24, 154.05 5.39, 151.5 8.75 C152.52 11.9, 154.24 15.47, 151.5 26.25 C152.66 33.3, 149.02 37.1, 142.75 35 C114.29 33.84, 86.2 35.27, 8.75 35 C-0.23 33.22, 1.6 28.54, 0 26.25 C3.14 18.02, 2.35 15.37, 0 8.75 C2.59 2.94, 6.35 -3.56, 8.75 0" stroke="none" stroke-width="0" fill="#ffffff"></path><path d="M8.75 0 C44.23 2.39, 84 0.2, 142.75 0 M8.75 0 C42.82 -0.06, 76.22 -1.31, 142.75 0 M142.75 0 C150.21 -0.33, 151.56 2.73, 151.5 8.75 M142.75 0 C146.59 -1.94, 152.56 3.26, 151.5 8.75 M151.5 8.75 C149.68 16.32, 149.78 23.84, 151.5 26.25 M151.5 8.75 C150.62 12.83, 152.11 17.22, 151.5 26.25 M151.5 26.25 C153.46 33.63, 148.8 35.98, 142.75 35 M151.5 26.25 C153 29.81, 149.57 33.78, 142.75 35 M142.75 35 C96.93 35.88, 48.23 35.46, 8.75 35 M142.75 35 C113.06 35, 82.73 35.05, 8.75 35 M8.75 35 C4.9 33.51, 1.02 31.92, 0 26.25 M8.75 35 C3.71 34.22, 0.03 30.84, 0 26.25 M0 26.25 C-0.07 19.57, -1.52 16.55, 0 8.75 M0 26.25 C-0.37 22.89, 0.07 17.87, 0 8.75 M0 8.75 C-1 4.09, 2.87 0.17, 8.75 0 M0 8.75 C1.01 4.46, 1.36 -1.23, 8.75 0" stroke="#40c057" stroke-width="1" fill="none"></path></g><g transform="translate(797.7354864927028 324.99409684661066) rotate(0 23.589973449706974 12.5)"><text x="23.58997344970703" y="0" font-family="Virgil, Segoe UI Emoji" font-size="20px" fill="#40c057" text-anchor="middle" style="white-space: pre;" direction="ltr" dominant-baseline="text-before-edge">math</text></g><g stroke-linecap="round" transform="translate(746.0356703936233 271.2838863953971) rotate(0 75.75000000000006 17.5)"><path d="M8.75 0 C60.01 0.69, 107.78 0.92, 142.75 0 C146.14 -2.38, 154.03 4.32, 151.5 8.75 C152.81 14.56, 152.18 20.07, 151.5 26.25 C148.19 31.24, 145.41 34.44, 142.75 35 C95.8 34.82, 56.75 33.06, 8.75 35 C6.35 32.94, 3.58 35.46, 0 26.25 C2.05 21.76, 2.79 14.09, 0 8.75 C-3.03 6.36, 2.59 0.65, 8.75 0" stroke="none" stroke-width="0" fill="#ffffff"></path><path d="M8.75 0 C57.24 1.04, 108.87 1.97, 142.75 0 M8.75 0 C58.78 0.6, 107.2 0.67, 142.75 0 M142.75 0 C146.85 -1.69, 152.42 3.22, 151.5 8.75 M142.75 0 C150.68 -2.22, 151.31 0.75, 151.5 8.75 M151.5 8.75 C150.06 14.58, 150.07 18.97, 151.5 26.25 M151.5 8.75 C152.48 14.91, 151.72 20.15, 151.5 26.25 M151.5 26.25 C152.8 30.11, 149.44 33.94, 142.75 35 M151.5 26.25 C152.59 33.06, 148.62 35.86, 142.75 35 M142.75 35 C95.31 37.29, 50.32 36.13, 8.75 35 M142.75 35 C98.61 34.82, 52.99 35.48, 8.75 35 M8.75 35 C3.61 34.32, 0.03 31, 0 26.25 M8.75 35 C2.68 36.3, -1.75 32.12, 0 26.25 M0 26.25 C-1.07 23.21, 0.12 18.34, 0 8.75 M0 26.25 C-0.46 20.17, -0.05 13.14, 0 8.75 M0 8.75 C0.88 4.26, 1.57 -1.07, 8.75 0 M0 8.75 C1.36 2.17, 4.54 -1.9, 8.75 0" stroke="#40c057" stroke-width="1" fill="none"></path></g><g transform="translate(805.0156890093459 276.2838863953971) rotate(0 16.769981384277344 12.5)"><text x="16.769981384277344" y="0" font-family="Virgil, Segoe UI Emoji" font-size="20px" fill="#40c057" text-anchor="middle" style="white-space: pre;" direction="ltr" dominant-baseline="text-before-edge">std</text></g><g stroke-linecap="round" transform="translate(746.8173522739207 366.99409684661066) rotate(0 74.27432300546718 17.5)"><path d="M8.75 0 C53.79 -4, 106.25 -0.22, 139.8 0 C144.59 3.37, 146.95 4.08, 148.55 8.75 C145.69 13.85, 145.81 19.94, 148.55 26.25 C149.52 31.33, 148.03 31.85, 139.8 35 C110.4 30.62, 77.72 36.06, 8.75 35 C1.41 37.48, 3.37 34.67, 0 26.25 C-2.96 24, -0.59 16.3, 0 8.75 C2.05 2.51, 3.82 2.36, 8.75 0" stroke="none" stroke-width="0" fill="#ffffff"></path><path d="M8.75 0 C52.71 0.56, 92.83 0.69, 139.8 0 M8.75 0 C45.06 -0.72, 83.57 0.27, 139.8 0 M139.8 0 C147.45 -1.93, 148.38 1.04, 148.55 8.75 M139.8 0 C146.58 -2.03, 150.39 1.23, 148.55 8.75 M148.55 8.75 C148.66 15.1, 149.5 20.67, 148.55 26.25 M148.55 8.75 C149.14 14.49, 148.94 21.49, 148.55 26.25 M148.55 26.25 C149.5 32.93, 145.66 35.75, 139.8 35 M148.55 26.25 C149.53 30.51, 146.14 33.27, 139.8 35 M139.8 35 C88.16 35.92, 35.89 37.53, 8.75 35 M139.8 35 C110.58 34.55, 80.68 34.35, 8.75 35 M8.75 35 C2.71 36.13, -1.52 32.12, 0 26.25 M8.75 35 C0.8 33.13, 0.58 30.48, 0 26.25 M0 26.25 C1.35 20.66, -0.62 13.68, 0 8.75 M0 26.25 C0.39 20.56, -0.59 13.23, 0 8.75 M0 8.75 C1.18 2.27, 4.33 -1.65, 8.75 0 M0 8.75 C1.38 2.88, 4.4 1.93, 8.75 0" stroke="#40c057" stroke-width="1" fill="none"></path></g><g transform="translate(804.6516880967708 371.99409684661066) rotate(0 16.439987182617188 12.5)"><text x="16.439987182617188" y="0" font-family="Virgil, Segoe UI Emoji" font-size="20px" fill="#40c057" text-anchor="middle" style="white-space: pre;" direction="ltr" dominant-baseline="text-before-edge">......</text></g><g transform="translate(743.803261382501 221.7026822643047) rotate(0 76.24991607666016 12.5)"><text x="0" y="0" font-family="Virgil, Segoe UI Emoji" font-size="20px" fill="#40c057" text-anchor="start" style="white-space: pre;" direction="ltr" dominant-baseline="text-before-edge">Shared Modules</text></g><g stroke-linecap="round" transform="translate(734.8558599686642 87.53380460468361) rotate(0 88.25 18.25)"><path d="M9.13 0 C72.35 5.6, 131 1.43, 167.38 0 C176.38 -2.29, 173.07 1.8, 176.5 9.13 C176.85 18.65, 178.52 23.51, 176.5 27.38 C178.29 32.1, 176.29 36.88, 167.38 36.5 C114.34 38.81, 57.57 38.31, 9.13 36.5 C2.73 39.92, 2.07 35.55, 0 27.38 C-1.24 19.07, -1.07 18.84, 0 9.13 C-1.68 4.18, 6.04 1.45, 9.13 0" stroke="none" stroke-width="0" fill="#fff9db"></path><path d="M9.13 0 C59.67 -1.75, 114.01 0.36, 167.38 0 M9.13 0 C68.42 -0.41, 126.13 1.08, 167.38 0 M167.38 0 C172.9 -1.9, 176.67 2.15, 176.5 9.13 M167.38 0 C171.58 0.38, 176.19 4.36, 176.5 9.13 M176.5 9.13 C176.88 14.08, 177.32 20.41, 176.5 27.38 M176.5 9.13 C176.24 13.89, 176.85 17.86, 176.5 27.38 M176.5 27.38 C177.15 33.33, 171.92 35.65, 167.38 36.5 M176.5 27.38 C178.13 34.53, 171.64 36.31, 167.38 36.5 M167.38 36.5 C110.28 37.1, 49.36 37.65, 9.13 36.5 M167.38 36.5 C111.58 35.38, 55.76 35.26, 9.13 36.5 M9.13 36.5 C3.85 36.3, -1.49 33.18, 0 27.38 M9.13 36.5 C1.94 38.73, -1.11 34.28, 0 27.38 M0 27.38 C1.18 19.68, -1.86 11.23, 0 9.13 M0 27.38 C0.17 22.45, 0.37 18.22, 0 9.13 M0 9.13 C0.82 5.04, 3.03 -0.65, 9.13 0 M0 9.13 C2.1 2.01, 4.52 1.8, 9.13 0" stroke="#fd7e14" stroke-width="1" fill="none"></path></g><g transform="translate(785.2759039139767 93.28380460468361) rotate(0 37.8299560546875 12.5)"><text x="37.8299560546875" y="0" font-family="Virgil, Segoe UI Emoji" font-size="20px" fill="#fd7e14" text-anchor="middle" style="white-space: pre;" direction="ltr" dominant-baseline="text-before-edge">Compiler</text></g><g stroke-linecap="round" transform="translate(732.8558599686642 139.5338046046836) rotate(0 90.25 18)"><path d="M9 0 C50.1 2.87, 93.58 -1.49, 171.5 0 C176.32 3.08, 179.28 3.38, 180.5 9 C178.62 16.32, 179.21 26.46, 180.5 27 C180.34 34.9, 175.36 33.18, 171.5 36 C122.15 38.1, 77.58 37.79, 9 36 C5.52 33.32, -0.64 34.25, 0 27 C-0.67 24.62, -0.62 16.11, 0 9 C3.39 3.06, 4.21 2.5, 9 0" stroke="none" stroke-width="0" fill="#fff9db"></path><path d="M9 0 C64.6 -0.47, 116.37 0.28, 171.5 0 M9 0 C70.65 0.05, 134.94 -0.31, 171.5 0 M171.5 0 C176.28 -0.31, 180.12 1.49, 180.5 9 M171.5 0 C178.41 0.37, 179.41 2.6, 180.5 9 M180.5 9 C181.44 11.66, 179.15 15.46, 180.5 27 M180.5 9 C181.23 12.74, 179.74 16.89, 180.5 27 M180.5 27 C179.01 32.16, 178.97 34.57, 171.5 36 M180.5 27 C178.75 33.78, 178.33 35.87, 171.5 36 M171.5 36 C121.53 35.64, 70.24 36.44, 9 36 M171.5 36 C114.51 33.83, 57.59 33.57, 9 36 M9 36 C3.22 36.7, 1.14 32.23, 0 27 M9 36 C2.47 38.11, 1.88 32.23, 0 27 M0 27 C1.78 22.96, -1.63 19.54, 0 9 M0 27 C0.13 20.86, -0.28 14.09, 0 9 M0 9 C-1.82 2.47, 3.88 0.77, 9 0 M0 9 C-1.82 3.1, 1.37 -1.08, 9 0" stroke="#fd7e14" stroke-width="1" fill="none"></path></g><g transform="translate(810.275865767004 145.0338046046836) rotate(0 12.829994201660156 12.5)"><text x="12.829994201660156" y="0" font-family="Virgil, Segoe UI Emoji" font-size="20px" fill="#fd7e14" text-anchor="middle" style="white-space: pre;" direction="ltr" dominant-baseline="text-before-edge">VM</text></g><g transform="translate(853.7214794565405 10) rotate(0 90.0623779296875 17.5)"><text x="0" y="0" font-family="Virgil, Segoe UI Emoji" font-size="28px" fill="#15aabf" text-anchor="start" style="white-space: pre;" direction="ltr" dominant-baseline="text-before-edge">Runtime v 1.0</text></g><g stroke-opacity="0.3" fill-opacity="0.3" transform="translate(375.7193432600957 650.6947541808339) rotate(0 114.40805053710938 22.5)"><text x="0" y="0" font-family="Virgil, Segoe UI Emoji" font-size="36px" fill="#f08c00" text-anchor="start" style="white-space: pre;" direction="ltr" dominant-baseline="text-before-edge">@hemashushu</text></g><g transform="translate(31.753352337923218 207.09040637563703) rotate(0 103.125 48)"><text x="0" y="0" font-family="Cascadia, Segoe UI Emoji" font-size="16px" fill="#099268" text-anchor="start" style="white-space: pre;" direction="ltr" dominant-baseline="text-before-edge">config(runtime, "1.0")</text><text x="0" y="19.2" font-family="Cascadia, Segoe UI Emoji" font-size="16px" fill="#099268" text-anchor="start" style="white-space: pre;" direction="ltr" dominant-baseline="text-before-edge"></text><text x="0" y="38.4" font-family="Cascadia, Segoe UI Emoji" font-size="16px" fill="#099268" text-anchor="start" style="white-space: pre;" direction="ltr" dominant-baseline="text-before-edge">function main() {</text><text x="0" y="57.599999999999994" font-family="Cascadia, Segoe UI Emoji" font-size="16px" fill="#099268" text-anchor="start" style="white-space: pre;" direction="ltr" dominant-baseline="text-before-edge">    ...</text><text x="0" y="76.8" font-family="Cascadia, Segoe UI Emoji" font-size="16px" fill="#099268" text-anchor="start" style="white-space: pre;" direction="ltr" dominant-baseline="text-before-edge">}</text></g><g stroke-linecap="round" transform="translate(12.851233770310614 456.25321684100936) rotate(0 126.80555555555554 73.75)"><path d="M32 0 C92.37 -1.72, 150.28 0.43, 221.61 0 C241.52 -3.16, 251.42 11.35, 253.61 32 C252.13 49.68, 251.29 71.09, 253.61 115.5 C256.68 138.19, 244.25 149.95, 221.61 147.5 C165.64 147.45, 110.53 145.97, 32 147.5 C10.67 147.34, -0.4 136.21, 0 115.5 C-0.23 94.61, -2.83 77.28, 0 32 C-1.36 12.18, 9.37 3.34, 32 0" stroke="none" stroke-width="0" fill="#e6fcf5"></path><path d="M32 0 C80.46 -2.45, 132.48 -1.55, 221.61 0 M32 0 C83.7 1.17, 135.85 0.71, 221.61 0 M221.61 0 C242.2 0.15, 254.93 10.03, 253.61 32 M221.61 0 C242.87 -1.74, 254.61 11.73, 253.61 32 M253.61 32 C256.18 55.8, 255.74 82.31, 253.61 115.5 M253.61 32 C253.71 57.16, 253.07 82.19, 253.61 115.5 M253.61 115.5 C254.01 136.07, 242.91 147.44, 221.61 147.5 M253.61 115.5 C251.75 137.83, 242.64 145.52, 221.61 147.5 M221.61 147.5 C168.01 150.35, 117.1 148.87, 32 147.5 M221.61 147.5 C180.83 146.47, 138.96 148.18, 32 147.5 M32 147.5 C11.41 147.07, -0.95 135.87, 0 115.5 M32 147.5 C11.45 146.62, 2.01 135.25, 0 115.5 M0 115.5 C-1.49 87.11, -0.17 58.63, 0 32 M0 115.5 C-1.03 92.75, -1.19 71.11, 0 32 M0 32 C0.98 9.83, 8.88 -0.84, 32 0 M0 32 C-2.29 11.86, 10.91 0.88, 32 0" stroke="#12b886" stroke-width="1" fill="none"></path></g><g transform="translate(37.74012265919953 403.8643279521207) rotate(0 93.32437896728516 17.5)"><text x="0" y="0" font-family="Virgil, Segoe UI Emoji" font-size="28px" fill="#12b886" text-anchor="start" style="white-space: pre;" direction="ltr" dominant-baseline="text-before-edge">Application #1</text></g><g transform="translate(34.604586108233775 474.52551516139056) rotate(0 84.375 57.599999999999966)"><text x="0" y="0" font-family="Cascadia, Segoe UI Emoji" font-size="16px" fill="#12b886" text-anchor="start" style="white-space: pre;" direction="ltr" dominant-baseline="text-before-edge">{</text><text x="0" y="19.2" font-family="Cascadia, Segoe UI Emoji" font-size="16px" fill="#12b886" text-anchor="start" style="white-space: pre;" direction="ltr" dominant-baseline="text-before-edge">    name: "myapp"</text><text x="0" y="38.4" font-family="Cascadia, Segoe UI Emoji" font-size="16px" fill="#12b886" text-anchor="start" style="white-space: pre;" direction="ltr" dominant-baseline="text-before-edge">    version: "1.0"</text><text x="0" y="57.599999999999994" font-family="Cascadia, Segoe UI Emoji" font-size="16px" fill="#12b886" text-anchor="start" style="white-space: pre;" direction="ltr" dominant-baseline="text-before-edge">    runtime: "1.1"</text><text x="0" y="76.8" font-family="Cascadia, Segoe UI Emoji" font-size="16px" fill="#12b886" text-anchor="start" style="white-space: pre;" direction="ltr" dominant-baseline="text-before-edge">    ...</text><text x="0" y="96" font-family="Cascadia, Segoe UI Emoji" font-size="16px" fill="#12b886" text-anchor="start" style="white-space: pre;" direction="ltr" dominant-baseline="text-before-edge">}</text></g><g stroke-linecap="round" transform="translate(951.2702907604751 251.65415978728538) rotate(0 95.25 85)"><path d="M32 0 C64.41 0.04, 102.94 -3.74, 158.5 0 C181.23 0.65, 188.73 13.91, 190.5 32 C188.82 64.19, 189.87 87.29, 190.5 138 C190.43 158.38, 179.82 172.71, 158.5 170 C115.4 167.71, 73.79 172.88, 32 170 C10.44 167.03, 3.32 161.51, 0 138 C4.16 101.07, 1.06 59.08, 0 32 C-1.46 12.73, 9.65 2.74, 32 0" stroke="none" stroke-width="0" fill="#e7f5ff"></path><path d="M32 0 C74.06 0.55, 118.8 2.16, 158.5 0 M32 0 C70.24 0.15, 108.97 0.96, 158.5 0 M158.5 0 C178.15 -0.36, 190.32 11.45, 190.5 32 M158.5 0 C179.72 -1.93, 191.72 12.35, 190.5 32 M190.5 32 C187.8 73.29, 189.91 112.13, 190.5 138 M190.5 32 C190.23 72.55, 189.57 111.32, 190.5 138 M190.5 138 C188.88 157.9, 179.59 170.47, 158.5 170 M190.5 138 C189.2 161.58, 178.97 171.74, 158.5 170 M158.5 170 C118.88 168.01, 80.69 169.52, 32 170 M158.5 170 C129.51 168.91, 98.54 170.08, 32 170 M32 170 C10.98 169.01, 1.27 159.77, 0 138 M32 170 C11.52 171.32, 0.62 160.02, 0 138 M0 138 C-1.92 107.03, -1.37 71.73, 0 32 M0 138 C-0.89 113.48, 0.33 88.81, 0 32 M0 32 C0.78 10.56, 11.33 -1.97, 32 0 M0 32 C2.12 8.63, 10.4 -1.62, 32 0" stroke="#228be6" stroke-width="1" fill="none"></path></g><g stroke-linecap="round" transform="translate(971.778398428964 318.1541597872854) rotate(0 75.75 17.5)"><path d="M8.75 0 C59.54 -3.3, 107.43 -0.34, 142.75 0 C146.81 3.24, 150.59 5.65, 151.5 8.75 C149.41 12.47, 151.16 20.52, 151.5 26.25 C151.49 34.8, 150.08 35.48, 142.75 35 C106.32 36.92, 66.21 30.73, 8.75 35 C6.23 37.18, 2.09 30.92, 0 26.25 C0.07 17.84, -1.59 16.51, 0 8.75 C-1.02 5.65, 4.85 -2.98, 8.75 0" stroke="none" stroke-width="0" fill="#ffffff"></path><path d="M8.75 0 C45.97 1.71, 84.16 0.28, 142.75 0 M8.75 0 C46.5 0.81, 84.58 -0.15, 142.75 0 M142.75 0 C148.4 0.78, 151.4 1.23, 151.5 8.75 M142.75 0 C149.8 1.68, 153.29 1.22, 151.5 8.75 M151.5 8.75 C151.5 13.37, 152.68 17.05, 151.5 26.25 M151.5 8.75 C151.16 12.28, 150.83 16.3, 151.5 26.25 M151.5 26.25 C151.25 32.56, 147.46 36.95, 142.75 35 M151.5 26.25 C150.63 33.82, 148.67 34.77, 142.75 35 M142.75 35 C114.57 35.23, 87.03 33.17, 8.75 35 M142.75 35 C109.14 35.09, 75.84 33.88, 8.75 35 M8.75 35 C4.19 35.44, 0.74 33.23, 0 26.25 M8.75 35 C3.53 35.69, 0.13 33.78, 0 26.25 M0 26.25 C-0.41 19.43, -1.14 14.96, 0 8.75 M0 26.25 C0.38 20.66, 0.51 16.1, 0 8.75 M0 8.75 C0.67 0.95, 4.76 -1.77, 8.75 0 M0 8.75 C-0.27 1.3, 2.27 -0.54, 8.75 0" stroke="#228be6" stroke-width="1" fill="none"></path></g><g transform="translate(980.6584796057218 323.1541597872854) rotate(0 66.86991882324219 12.5)"><text x="66.86991882324219" y="0" font-family="Virgil, Segoe UI Emoji" font-size="20px" fill="#228be6" text-anchor="middle" style="white-space: pre;" direction="ltr" dominant-baseline="text-before-edge">libsqlite3.so.0</text></g><g stroke-linecap="round" transform="translate(971.528398428964 270.1541597872854) rotate(0 75.75 17.5)"><path d="M8.75 0 C38.58 2.8, 71.04 2.3, 142.75 0 C150.74 -3.13, 154.57 0.84, 151.5 8.75 C151.48 14.94, 152.81 16.79, 151.5 26.25 C150.95 32.21, 146.64 36.73, 142.75 35 C93.86 35.19, 40.43 31.85, 8.75 35 C3.99 38.54, 1.02 32.52, 0 26.25 C-0.76 24.86, 1.82 16.08, 0 8.75 C2.58 3.09, 0.99 -3.54, 8.75 0" stroke="none" stroke-width="0" fill="#ffffff"></path><path d="M8.75 0 C61.49 -1.41, 114.75 -1.5, 142.75 0 M8.75 0 C59.33 0.63, 110.05 -0.6, 142.75 0 M142.75 0 C149.64 1.46, 153.05 1.44, 151.5 8.75 M142.75 0 C147.68 -2.2, 152.94 3.14, 151.5 8.75 M151.5 8.75 C150.47 14.46, 152.63 18.61, 151.5 26.25 M151.5 8.75 C151.25 13.08, 150.86 17.85, 151.5 26.25 M151.5 26.25 C150.75 33.6, 148.66 34.8, 142.75 35 M151.5 26.25 C149.27 30.71, 147.7 33.9, 142.75 35 M142.75 35 C96.57 36.04, 51.45 33.98, 8.75 35 M142.75 35 C93.66 34.55, 43.67 34.91, 8.75 35 M8.75 35 C3.45 35.6, 0.12 33.56, 0 26.25 M8.75 35 C3.34 33.69, 1.67 31.41, 0 26.25 M0 26.25 C-0.08 20.54, -0.28 18.67, 0 8.75 M0 26.25 C0.22 21.22, 0.74 17.13, 0 8.75 M0 8.75 C-0.23 1.51, 2.35 -0.47, 8.75 0 M0 8.75 C1.45 1.64, 3.86 1.37, 8.75 0" stroke="#228be6" stroke-width="1" fill="none"></path></g><g transform="translate(1009.5084399328703 275.1541597872854) rotate(0 37.76995849609375 12.5)"><text x="37.76995849609375" y="0" font-family="Virgil, Segoe UI Emoji" font-size="20px" fill="#228be6" text-anchor="middle" style="white-space: pre;" direction="ltr" dominant-baseline="text-before-edge">libc.so.6</text></g><g stroke-linecap="round" transform="translate(973.0202907604751 365.1541597872854) rotate(0 74.2743230054673 17.5)"><path d="M8.75 0 C62.01 -4.92, 114.03 -3.87, 139.8 0 C142.68 -0.07, 147.6 2.9, 148.55 8.75 C148.2 15.43, 146.98 23.4, 148.55 26.25 C151.77 31.86, 142.66 38.32, 139.8 35 C93.64 37.78, 46.36 34.67, 8.75 35 C-0.1 33.54, 2.06 31.07, 0 26.25 C2.09 19.82, -1.85 9.99, 0 8.75 C-2.08 5.38, 5 -2.75, 8.75 0" stroke="none" stroke-width="0" fill="#ffffff"></path><path d="M8.75 0 C42.52 -0.91, 72.8 0.59, 139.8 0 M8.75 0 C53.73 1.83, 98.43 0.36, 139.8 0 M139.8 0 C144.85 -1.91, 149.8 3.11, 148.55 8.75 M139.8 0 C145.7 1.78, 147.47 1.39, 148.55 8.75 M148.55 8.75 C147.52 12.99, 147.4 19.85, 148.55 26.25 M148.55 8.75 C148.12 15.08, 148.48 19.99, 148.55 26.25 M148.55 26.25 C146.61 30.89, 144.87 34.04, 139.8 35 M148.55 26.25 C149.4 30.63, 144.12 33.86, 139.8 35 M139.8 35 C89.34 35.22, 35.05 36.18, 8.75 35 M139.8 35 C97.89 36.05, 55.51 36.49, 8.75 35 M8.75 35 C3.29 33.86, 1.45 31.5, 0 26.25 M8.75 35 C1.28 33.37, -0.18 31.82, 0 26.25 M0 26.25 C-1.04 23.39, -0.06 19.75, 0 8.75 M0 26.25 C-0.26 22.11, -0.41 18.99, 0 8.75 M0 8.75 C1.26 1.81, 3.74 1.19, 8.75 0 M0 8.75 C-1.48 3.81, 3.33 -1.13, 8.75 0" stroke="#228be6" stroke-width="1" fill="none"></path></g><g transform="translate(1030.8546265833252 370.1541597872854) rotate(0 16.439987182617188 12.5)"><text x="16.439987182617188" y="0" font-family="Virgil, Segoe UI Emoji" font-size="20px" fill="#228be6" text-anchor="middle" style="white-space: pre;" direction="ltr" dominant-baseline="text-before-edge">......</text></g><g transform="translate(976.0061998690553 218.86274520497943) rotate(0 79.76990509033203 12.5)"><text x="0" y="0" font-family="Virgil, Segoe UI Emoji" font-size="20px" fill="#228be6" text-anchor="start" style="white-space: pre;" direction="ltr" dominant-baseline="text-before-edge">Shared Libraries</text></g><g stroke-linecap="round" transform="translate(738.223214155981 552.9002119852199) rotate(0 85.37634299547693 72.3541912804481)"><path d="M32 0 C63.71 4.37, 102.84 4.66, 138.75 0 C159.99 -2.36, 172.43 9.51, 170.75 32 C171.56 49.87, 169.65 70.44, 170.75 112.71 C172.31 131.4, 157.32 145.26, 138.75 144.71 C107.48 146.66, 70.86 143.72, 32 144.71 C13.94 141.67, -2.71 132.91, 0 112.71 C2.59 88.26, -0.6 61.69, 0 32 C2.4 10.03, 7.97 -2.75, 32 0" stroke="none" stroke-width="0" fill="#eefcfe"></path><path d="M32 0 C75.21 2.64, 114.71 1.88, 138.75 0 M32 0 C67.67 0.42, 102.03 0.13, 138.75 0 M138.75 0 C159.08 -0.5, 171.47 9.78, 170.75 32 M138.75 0 C159.86 -1.72, 172.36 8.69, 170.75 32 M170.75 32 C171.96 51.22, 171.25 67.98, 170.75 112.71 M170.75 32 C170.29 56.94, 169.56 81.48, 170.75 112.71 M170.75 112.71 C170.95 135.16, 160.96 145.16, 138.75 144.71 M170.75 112.71 C169.58 133.9, 160.81 146.18, 138.75 144.71 M138.75 144.71 C108.03 144.83, 79.87 143.04, 32 144.71 M138.75 144.71 C104.07 145.33, 70.72 144.31, 32 144.71 M32 144.71 C12.11 143.43, -1.56 134.96, 0 112.71 M32 144.71 C8.94 144.76, -2.25 132.81, 0 112.71 M0 112.71 C0.76 91.33, 0.06 70.29, 0 32 M0 112.71 C-0.01 87.56, 0.92 62.12, 0 32 M0 32 C1.32 10.05, 10.26 -1.99, 32 0 M0 32 C0.66 12.35, 8.76 -0.89, 32 0" stroke="#15aabf" stroke-width="1" fill="none"></path></g><g transform="translate(736.8775755881861 505.24599706212587) rotate(0 84.22434997558594 17.5)"><text x="0" y="0" font-family="Virgil, Segoe UI Emoji" font-size="28px" fill="#15aabf" text-anchor="start" style="white-space: pre;" direction="ltr" dominant-baseline="text-before-edge">Runtime v 1.1</text></g><g stroke-linecap="round" transform="translate(753.5031638579511 578.3903249294394) rotate(0 32.75 6)"><path d="M3 0 C27.65 1.68, 50.46 0.83, 62.5 0 C66.11 1.21, 65.75 0.67, 65.5 3 C65.58 4.89, 65.1 7.07, 65.5 9 C65.7 13.23, 64.46 14.57, 62.5 12 C48.62 13.56, 33.81 12.17, 3 12 C-1.16 13.2, -0.29 12.98, 0 9 C-0.66 8.1, 0.73 5.24, 0 3 C-2.15 1.66, 2.77 -1.28, 3 0" stroke="none" stroke-width="0" fill="#fff9db"></path><path d="M3 0 C15.32 0.41, 29.17 0.14, 62.5 0 M3 0 C21.07 0.01, 38.06 0.02, 62.5 0 M62.5 0 C64.96 0.9, 66.45 1.71, 65.5 3 M62.5 0 C63.67 -0.88, 65.49 1.9, 65.5 3 M65.5 3 C65.51 4.63, 65.44 6.1, 65.5 9 M65.5 3 C65.53 4.29, 65.43 5.5, 65.5 9 M65.5 9 C64.81 10.3, 64.15 12.61, 62.5 12 M65.5 9 C66.43 11.57, 63.63 10.88, 62.5 12 M62.5 12 C41.28 11.04, 20.76 11.15, 3 12 M62.5 12 C47.08 11.94, 32.09 11.55, 3 12 M3 12 C1.91 12.53, 0.64 11.93, 0 9 M3 12 C0.35 10.95, -0.79 10.55, 0 9 M0 9 C0.1 7.5, -0.12 6.33, 0 3 M0 9 C-0.05 7.53, 0.15 6, 0 3 M0 3 C0.8 1.17, 0.42 0.83, 3 0 M0 3 C-0.2 0.96, 1.3 0.72, 3 0" stroke="#fd7e14" stroke-width="1" fill="none"></path></g><g stroke-linecap="round" transform="translate(754.5075537543555 600.3246759239158) rotate(0 32.75 6)"><path d="M3 0 C25.18 -0.85, 47.93 -2.12, 62.5 0 C62.64 2.27, 67.46 0.61, 65.5 3 C66.06 3.66, 66.22 5.58, 65.5 9 C64.09 9.4, 64.61 10.17, 62.5 12 C45.27 12.82, 23.04 11.76, 3 12 C2.69 9.48, -1.55 11.51, 0 9 C0.54 7.79, 0.45 4.91, 0 3 C-0.66 2.57, 2.1 -0.1, 3 0" stroke="none" stroke-width="0" fill="#fff9db"></path><path d="M3 0 C24.51 -0.94, 46.06 0.61, 62.5 0 M3 0 C17.97 -0.18, 32.49 0.21, 62.5 0 M62.5 0 C64.09 -0.18, 66.31 1.32, 65.5 3 M62.5 0 C63.75 0.18, 65.18 1.18, 65.5 3 M65.5 3 C65.7 5.41, 65.53 7.08, 65.5 9 M65.5 3 C65.62 5.14, 65.51 7.14, 65.5 9 M65.5 9 C65.43 10.17, 63.63 11.71, 62.5 12 M65.5 9 C66.18 10.46, 64.86 12.66, 62.5 12 M62.5 12 C38.74 13, 16.47 12.99, 3 12 M62.5 12 C43.55 12.18, 24.29 11.63, 3 12 M3 12 C1.02 11.3, 0.83 11.02, 0 9 M3 12 C0.27 11.58, -0.01 10.86, 0 9 M0 9 C0.17 7.81, 0.14 6.21, 0 3 M0 9 C0.12 6.78, -0.02 4.39, 0 3 M0 3 C0.46 0.8, 0.79 0.29, 3 0 M0 3 C-0.96 0.04, -0.05 -0.46, 3 0" stroke="#fd7e14" stroke-width="1" fill="none"></path></g><g stroke-linecap="round" transform="translate(754.7121332294989 625.8323083824878) rotate(0 33.24213807458045 28.04334031007818)"><path d="M14.02 0 C25.26 -4.06, 26.74 1.73, 52.46 0 C62.11 -2.99, 65.97 8.2, 66.48 14.02 C64.75 19.53, 67.6 29.13, 66.48 42.07 C63.86 49.09, 62.72 56.59, 52.46 56.09 C38.45 55.94, 20.81 59.37, 14.02 56.09 C6.02 59.09, 0.01 54.52, 0 42.07 C-1.12 33.99, -3.49 21.19, 0 14.02 C1.48 3.08, 2.82 -2.75, 14.02 0" stroke="none" stroke-width="0" fill="#ebfbee"></path><path d="M14.02 0 C26.09 1.36, 38.9 -0.41, 52.46 0 M14.02 0 C27.19 0.57, 41.59 -0.1, 52.46 0 M52.46 0 C62.38 -1.67, 64.82 2.84, 66.48 14.02 M52.46 0 C60.89 1.68, 65.14 5.93, 66.48 14.02 M66.48 14.02 C65.13 20.99, 68.19 32.33, 66.48 42.07 M66.48 14.02 C67.12 22.64, 65.34 30.83, 66.48 42.07 M66.48 42.07 C65.92 50.33, 60.58 56.17, 52.46 56.09 M66.48 42.07 C64.87 52.13, 62.61 55.6, 52.46 56.09 M52.46 56.09 C37.19 57.38, 20.1 54.89, 14.02 56.09 M52.46 56.09 C39.91 57.2, 28.54 57.08, 14.02 56.09 M14.02 56.09 C3.02 55.58, 1.21 52.26, 0 42.07 M14.02 56.09 C4.58 55.64, -0.35 52.19, 0 42.07 M0 42.07 C-0.21 36.91, -0.62 27.72, 0 14.02 M0 42.07 C-0.23 31.45, 0.82 22.76, 0 14.02 M0 14.02 C-0.76 5.87, 4.01 1.87, 14.02 0 M0 14.02 C1.18 3.17, 5 0.11, 14.02 0" stroke="#40c057" stroke-width="1" fill="none"></path></g><g stroke-linecap="round" transform="translate(833.0928575734275 624.0905145081786) rotate(0 29.758550325961608 27.694981535216186)"><path d="M13.85 0 C27.02 0.22, 31.45 -0.46, 45.67 0 C56.66 -0.4, 56.63 6.67, 59.52 13.85 C61.44 24.26, 62.25 37.62, 59.52 41.54 C58.75 49.67, 56.52 52.03, 45.67 55.39 C35.53 56.28, 18.99 54.53, 13.85 55.39 C7.55 57.07, -1.46 50.2, 0 41.54 C0.93 30.26, 0.26 20.31, 0 13.85 C0.11 3.87, 4.66 2.76, 13.85 0" stroke="none" stroke-width="0" fill="#e7f5ff"></path><path d="M13.85 0 C26.37 2.11, 35.9 -1.24, 45.67 0 M13.85 0 C25.45 -0.71, 38.37 0.03, 45.67 0 M45.67 0 C56.87 -1.51, 60.72 5.39, 59.52 13.85 M45.67 0 C54.31 -1.46, 61.6 3.21, 59.52 13.85 M59.52 13.85 C60.63 22.63, 60.98 28.63, 59.52 41.54 M59.52 13.85 C59.76 24.18, 58.78 35.15, 59.52 41.54 M59.52 41.54 C59.99 51.39, 55.95 57.08, 45.67 55.39 M59.52 41.54 C61.01 49.04, 57.03 53.11, 45.67 55.39 M45.67 55.39 C33.99 55.57, 25.89 57.21, 13.85 55.39 M45.67 55.39 C37.9 55.49, 31.71 54.75, 13.85 55.39 M13.85 55.39 C5.86 56.82, 0.25 51.49, 0 41.54 M13.85 55.39 C2.5 53.76, -1.17 52.94, 0 41.54 M0 41.54 C-0.6 30.8, -1.58 21.99, 0 13.85 M0 41.54 C0.3 30.91, -0.21 20.29, 0 13.85 M0 13.85 C1.49 6.38, 6.41 1.39, 13.85 0 M0 13.85 C1.67 4.2, 6.34 0.65, 13.85 0" stroke="#228be6" stroke-width="1" fill="none"></path></g><g stroke-linecap="round" transform="translate(960.4419224514804 552.8872710077129) rotate(0 85.37634299547688 72.3541912804481)"><path d="M32 0 C77.75 0.42, 119.46 -3.61, 138.75 0 C162.95 -2.06, 171.42 9.37, 170.75 32 C173.69 60.57, 170.14 82.96, 170.75 112.71 C168.5 137.56, 158.27 144.96, 138.75 144.71 C116.66 142.49, 94.13 142.55, 32 144.71 C7.91 145.7, -2.4 135.95, 0 112.71 C-1.37 85.36, 2.71 60.56, 0 32 C2.11 7.3, 11.48 2.83, 32 0" stroke="none" stroke-width="0" fill="#eefcfe"></path><path d="M32 0 C66.99 1.87, 96.6 1.95, 138.75 0 M32 0 C57.08 -0.93, 79.81 -0.87, 138.75 0 M138.75 0 C161.61 1.6, 170.11 11.2, 170.75 32 M138.75 0 C161.59 1.89, 169.9 12.25, 170.75 32 M170.75 32 C169.28 56.09, 168.43 78.04, 170.75 112.71 M170.75 32 C169.94 55.41, 171.24 78.43, 170.75 112.71 M170.75 112.71 C170.42 136.01, 161.78 145.24, 138.75 144.71 M170.75 112.71 C172.77 135.97, 157.91 144.32, 138.75 144.71 M138.75 144.71 C113.94 144.2, 89.87 142.77, 32 144.71 M138.75 144.71 C109.69 144, 80.77 144.97, 32 144.71 M32 144.71 C10.75 143.79, 0.81 135.2, 0 112.71 M32 144.71 C8.78 143.27, 1.26 133.15, 0 112.71 M0 112.71 C1.24 88.59, 2.32 65.17, 0 32 M0 112.71 C-1.2 89.59, -1.14 66.92, 0 32 M0 32 C-0.55 9.59, 10.6 -1.67, 32 0 M0 32 C-0.6 11.97, 8.62 1.3, 32 0" stroke="#15aabf" stroke-width="1" fill="none"></path></g><g transform="translate(958.8376525626297 502.57726005297866) rotate(0 96.37640380859375 17.5)"><text x="0" y="0" font-family="Virgil, Segoe UI Emoji" font-size="28px" fill="#15aabf" text-anchor="start" style="white-space: pre;" direction="ltr" dominant-baseline="text-before-edge">Runtime v M.N</text></g><g stroke-linecap="round" transform="translate(975.7218721534505 578.3773839519323) rotate(0 32.75 6)"><path d="M3 0 C25.69 -0.98, 44.72 -0.43, 62.5 0 C65.49 0.78, 66.38 2.81, 65.5 3 C64.99 5.78, 65.08 7.09, 65.5 9 C63.51 8.48, 63.72 13.26, 62.5 12 C45.37 12.38, 30.49 13.04, 3 12 C1.92 9.65, 2.35 9.06, 0 9 C0.43 6.52, 0.15 6.11, 0 3 C1.5 3.51, -0.58 1.81, 3 0" stroke="none" stroke-width="0" fill="#fff9db"></path><path d="M3 0 C25.46 -1.2, 49.66 0.71, 62.5 0 M3 0 C17.37 0.58, 30.82 0.31, 62.5 0 M62.5 0 C65.16 0.82, 65.13 1.69, 65.5 3 M62.5 0 C64.23 -0.95, 65.55 0.53, 65.5 3 M65.5 3 C65.46 5.19, 65.67 7.53, 65.5 9 M65.5 3 C65.5 4.78, 65.65 6.3, 65.5 9 M65.5 9 C66.38 11.84, 63.56 11.83, 62.5 12 M65.5 9 C64.68 11.49, 64.28 11.75, 62.5 12 M62.5 12 C45.27 12.3, 28.24 11.48, 3 12 M62.5 12 C46.32 11.98, 30.3 12.5, 3 12 M3 12 C0.18 11.37, 0.55 10.61, 0 9 M3 12 C0.98 10.86, 0.97 11.25, 0 9 M0 9 C-0.06 7.33, 0.13 5.17, 0 3 M0 9 C-0.02 7.06, 0.02 5.15, 0 3 M0 3 C-0.26 1.57, 0.11 0.57, 3 0 M0 3 C1.13 -0.06, 1.75 1.05, 3 0" stroke="#fd7e14" stroke-width="1" fill="none"></path></g><g stroke-linecap="round" transform="translate(976.726262049855 600.3117349464088) rotate(0 32.75 6)"><path d="M3 0 C17.44 -0.49, 31.9 1.22, 62.5 0 C65.38 1.81, 66.43 0.24, 65.5 3 C65.06 4.26, 64.85 4.64, 65.5 9 C64.72 12.26, 63.32 14.22, 62.5 12 C45.52 13.59, 32.93 9.87, 3 12 C3.35 10.06, -0.21 12.01, 0 9 C0.13 7.49, 0.41 5.49, 0 3 C-1.58 2.81, -0.32 -0.43, 3 0" stroke="none" stroke-width="0" fill="#fff9db"></path><path d="M3 0 C26.72 1.26, 49.26 -0.11, 62.5 0 M3 0 C17.18 -0.11, 32.02 0.17, 62.5 0 M62.5 0 C64.13 0.69, 65.27 0.18, 65.5 3 M62.5 0 C64.55 -0.47, 66.52 0.04, 65.5 3 M65.5 3 C65.69 5.09, 65.41 7.7, 65.5 9 M65.5 3 C65.62 4.26, 65.63 5.57, 65.5 9 M65.5 9 C64.56 10.83, 63.78 12.42, 62.5 12 M65.5 9 C65.28 10.75, 64.32 11.92, 62.5 12 M62.5 12 C49.41 11.9, 36.86 11.77, 3 12 M62.5 12 C40.7 12.15, 18.08 11.55, 3 12 M3 12 C1.55 11.61, -0.02 10.01, 0 9 M3 12 C1.97 12.25, -0.03 11.87, 0 9 M0 9 C0.15 6.76, 0.03 4.8, 0 3 M0 9 C0 6.69, -0.03 4.71, 0 3 M0 3 C-0.89 1.57, 1.98 -0.92, 3 0 M0 3 C0.75 2.05, 1.54 0.8, 3 0" stroke="#fd7e14" stroke-width="1" fill="none"></path></g><g stroke-linecap="round" transform="translate(976.9308415249984 625.3403752855731) rotate(0 33.24213807458045 28.04334031007818)"><path d="M14.02 0 C24.73 1.32, 33.91 2.76, 52.46 0 C63.1 -1.05, 62.89 2.42, 66.48 14.02 C63.47 21.68, 65.15 38.08, 66.48 42.07 C64.84 54.48, 60.23 53.33, 52.46 56.09 C41.15 53.2, 30.55 53.77, 14.02 56.09 C4.39 57.48, 1.97 53.52, 0 42.07 C1.97 39.74, -2.3 32.99, 0 14.02 C-1.83 4.09, 6.02 3.23, 14.02 0" stroke="none" stroke-width="0" fill="#ebfbee"></path><path d="M14.02 0 C20.71 -1.15, 28.82 1.14, 52.46 0 M14.02 0 C29.29 0.72, 42.89 0.59, 52.46 0 M52.46 0 C61.34 -1.65, 66.58 3.86, 66.48 14.02 M52.46 0 C63.85 -1.91, 68.1 4.53, 66.48 14.02 M66.48 14.02 C66.1 22.83, 64.74 27.83, 66.48 42.07 M66.48 14.02 C67.6 26.03, 65.78 36.2, 66.48 42.07 M66.48 42.07 C65.05 52.26, 61.43 55.64, 52.46 56.09 M66.48 42.07 C66.13 51.25, 59.81 55.39, 52.46 56.09 M52.46 56.09 C38.24 55.2, 26.53 56.07, 14.02 56.09 M52.46 56.09 C41.88 55.68, 33.49 55.92, 14.02 56.09 M14.02 56.09 C4.64 54.1, 1.68 51.85, 0 42.07 M14.02 56.09 C4.61 57.83, 0.68 51.13, 0 42.07 M0 42.07 C0.06 30.91, 1.15 22.49, 0 14.02 M0 42.07 C-0.25 35.73, -0.88 28.83, 0 14.02 M0 14.02 C1.96 2.83, 5.98 1.82, 14.02 0 M0 14.02 C1.07 6.28, 3.17 1.83, 14.02 0" stroke="#40c057" stroke-width="1" fill="none"></path></g><g stroke-linecap="round" transform="translate(1055.3115658689271 624.0775735306717) rotate(0 29.75855032596155 27.694981535216186)"><path d="M13.85 0 C23.47 2.34, 31.95 -1.22, 45.67 0 C51.3 -2.26, 63.04 2.8, 59.52 13.85 C58.05 24.1, 57.49 33.92, 59.52 41.54 C57.94 48.02, 55.89 52.99, 45.67 55.39 C37.69 52.19, 22.91 56.27, 13.85 55.39 C6.59 57.5, -3.36 51.59, 0 41.54 C-2.48 33.56, -2.11 19.98, 0 13.85 C1.34 7.84, 7.46 -0.17, 13.85 0" stroke="none" stroke-width="0" fill="#e7f5ff"></path><path d="M13.85 0 C25.36 1.65, 40.83 -0.52, 45.67 0 M13.85 0 C23.87 0.43, 34.4 -1.09, 45.67 0 M45.67 0 C55 -0.81, 61.29 2.95, 59.52 13.85 M45.67 0 C56.52 -0.15, 58.41 6.12, 59.52 13.85 M59.52 13.85 C57.51 20.63, 61.41 29.78, 59.52 41.54 M59.52 13.85 C58.82 22.72, 59.04 32.35, 59.52 41.54 M59.52 41.54 C59.14 50.33, 54.59 55.25, 45.67 55.39 M59.52 41.54 C57.52 50.08, 56.18 54.45, 45.67 55.39 M45.67 55.39 C38.37 55.35, 27.35 56.08, 13.85 55.39 M45.67 55.39 C34.83 54.8, 22.88 54.2, 13.85 55.39 M13.85 55.39 C6.3 55.83, -0.05 52.29, 0 41.54 M13.85 55.39 C5.29 55.11, 0.9 51.92, 0 41.54 M0 41.54 C1.26 35.13, -1.11 29.75, 0 13.85 M0 41.54 C-0.82 36.11, 1.05 28.63, 0 13.85 M0 13.85 C1.31 6.43, 5.55 1.4, 13.85 0 M0 13.85 C-1.5 6.45, 3.3 0.43, 13.85 0" stroke="#228be6" stroke-width="1" fill="none"></path></g><g stroke-linecap="round" transform="translate(368.7792640074267 245.33175524012313) rotate(0 109.37240948688839 139.5563536634648)"><path d="M7.86 8.16 C7.86 8.16, 7.86 8.16, 7.86 8.16 M7.86 8.16 C7.86 8.16, 7.86 8.16, 7.86 8.16 M2.35 20.59 C8.42 14.43, 13.12 11.61, 18.1 2.48 M2.35 20.59 C6.12 16.46, 9.22 12.9, 18.1 2.48 M1.43 27.75 C10.24 17.63, 21.35 6.1, 24.4 1.33 M1.43 27.75 C6.44 23.02, 10.59 17.1, 24.4 1.33 M1.17 34.14 C9.48 24.62, 13.51 19.69, 30.7 0.18 M1.17 34.14 C10.19 23.22, 18.47 13.08, 30.7 0.18 M0.91 40.54 C13.01 26.94, 20.51 15.26, 36.34 -0.21 M0.91 40.54 C13.7 25.39, 25.43 11.39, 36.34 -0.21 M1.31 46.19 C16.35 28.23, 30.64 10.97, 41.33 0.15 M1.31 46.19 C12.52 31.37, 24.17 18.85, 41.33 0.15 M1.04 52.58 C14.74 33.24, 32.46 14.17, 46.31 0.51 M1.04 52.58 C17.16 34.13, 34.07 13.17, 46.31 0.51 M0.78 58.98 C19.57 38.45, 36.89 17.71, 51.96 0.11 M0.78 58.98 C13.52 44.89, 24.85 30.58, 51.96 0.11 M1.18 64.62 C18.54 42.83, 35.98 25.87, 56.94 0.47 M1.18 64.62 C13.91 52.43, 24.88 37.68, 56.94 0.47 M0.92 71.02 C22.58 45.33, 44.33 19.53, 62.59 0.08 M0.92 71.02 C14.81 53.26, 29.84 37.61, 62.59 0.08 M1.31 76.67 C24.58 50.33, 48.25 21.96, 67.57 0.44 M1.31 76.67 C18.93 56.68, 35.83 37.73, 67.57 0.44 M1.05 83.06 C20.85 56.88, 43.64 33.64, 73.22 0.04 M1.05 83.06 C17.58 64.46, 33.31 45.8, 73.22 0.04 M0.79 89.46 C17.79 70.36, 31.08 54.46, 78.2 0.41 M0.79 89.46 C21.02 67.13, 39.47 44.12, 78.2 0.41 M1.18 95.1 C30.69 59.02, 64.46 25.24, 83.85 0.01 M1.18 95.1 C21.46 73.74, 38.87 52.36, 83.85 0.01 M0.92 101.5 C31.78 66.82, 58.54 32.34, 88.83 0.37 M0.92 101.5 C34.69 61.42, 70.12 22.76, 88.83 0.37 M0.66 107.9 C30.39 73.74, 64.54 35.35, 94.48 -0.02 M0.66 107.9 C29.91 75.3, 57.56 43.65, 94.48 -0.02 M1.05 113.54 C20.05 90.36, 41.81 66.67, 99.46 0.34 M1.05 113.54 C24.4 85.43, 48.92 59.04, 99.46 0.34 M0.79 119.94 C28.77 87.93, 50.86 59.26, 105.11 -0.06 M0.79 119.94 C38.97 75.59, 79.72 28.77, 105.11 -0.06 M1.19 125.58 C29.02 91.08, 61.28 54.61, 110.09 0.3 M1.19 125.58 C45.2 75.83, 87.13 25.27, 110.09 0.3 M0.93 131.98 C34.28 94.55, 63.33 59.25, 115.08 0.66 M0.93 131.98 C26.89 103.91, 50.96 76.38, 115.08 0.66 M0.66 138.38 C39.44 94.53, 78.89 50.74, 120.72 0.27 M0.66 138.38 C30.15 106.27, 58.5 74.68, 120.72 0.27 M1.06 144.02 C47.15 91.09, 88.6 42.44, 125.71 0.63 M1.06 144.02 C34.66 107.56, 67.09 69.86, 125.71 0.63 M0.8 150.42 C44.42 99.45, 88.7 48.37, 131.35 0.23 M0.8 150.42 C48.98 96.15, 96.86 40.46, 131.35 0.23 M0.54 156.82 C33.8 115.57, 67.7 75.56, 136.34 0.59 M0.54 156.82 C50.39 98.17, 102.48 38.84, 136.34 0.59 M0.93 162.46 C33.28 122.75, 67.17 85.98, 141.98 0.2 M0.93 162.46 C50.38 104.82, 101.75 45.18, 141.98 0.2 M0.67 168.86 C56.43 109.56, 108.54 46.62, 146.97 0.56 M0.67 168.86 C46.28 115.91, 93.2 61.21, 146.97 0.56 M1.06 174.5 C58.6 109.35, 115.33 44.89, 152.61 0.16 M1.06 174.5 C39.65 130.34, 77.95 87.35, 152.61 0.16 M0.8 180.9 C49.32 124.29, 97.69 68.39, 157.6 0.52 M0.8 180.9 C41.2 132.48, 81.04 86.45, 157.6 0.52 M0.54 187.3 C33.99 148.76, 64.33 112.17, 163.24 0.13 M0.54 187.3 C36.16 146.4, 70.13 105.06, 163.24 0.13 M0.94 192.94 C50.08 132.92, 102.14 75.95, 168.23 0.49 M0.94 192.94 C45.35 141.11, 91.05 89.64, 168.23 0.49 M0.67 199.34 C71.06 120.93, 138.11 41.97, 173.22 0.85 M0.67 199.34 C53.08 139.31, 104.91 80.15, 173.22 0.85 M0.41 205.74 C37.41 161.77, 77.82 114.52, 178.86 0.45 M0.41 205.74 C40.59 159.81, 81.35 112.61, 178.86 0.45 M0.81 211.38 C69.97 133.69, 135.22 57.7, 183.85 0.81 M0.81 211.38 C53.58 152.73, 106.2 92.78, 183.85 0.81 M0.55 217.78 C56.92 152.11, 115.95 82.32, 189.49 0.42 M0.55 217.78 C59.23 148.62, 118.54 79.79, 189.49 0.42 M0.94 223.42 C65 153.05, 125.53 80.85, 194.48 0.78 M0.94 223.42 C43.66 174.22, 86.87 124.72, 194.48 0.78 M0.68 229.82 C57.89 164.85, 113.94 98.94, 198.81 1.9 M0.68 229.82 C61.27 159.56, 123.7 88.12, 198.81 1.9 M0.42 236.22 C42.53 188.23, 83.6 139.79, 202.48 3.76 M0.42 236.22 C65.56 163.25, 128.66 90.42, 202.48 3.76 M0.81 241.86 C51.1 186.08, 100.66 126.61, 206.81 4.88 M0.81 241.86 C66.91 165.07, 133.01 90.36, 206.81 4.88 M0.55 248.26 C82.58 153.73, 165.52 58.2, 209.83 7.5 M0.55 248.26 C44.06 196.99, 89.58 145.76, 209.83 7.5 M0.95 253.9 C72.55 171.93, 142.7 88.27, 212.2 10.88 M0.95 253.9 C48.8 197.96, 96.02 143.26, 212.2 10.88 M2 258.79 C76.78 172.66, 150.16 87.51, 215.22 13.51 M2 258.79 C72 177.17, 143.33 95.02, 215.22 13.51 M3.05 263.68 C64.21 190.39, 129.54 117.84, 216.92 17.64 M3.05 263.68 C52.1 206.77, 101.64 149.83, 216.92 17.64 M5.41 267.05 C83.88 176.31, 166.7 84.35, 217.97 22.53 M5.41 267.05 C77.61 183.02, 149.73 100.91, 217.97 22.53 M7.77 270.43 C75.5 191.68, 142.56 115.87, 219.02 27.42 M7.77 270.43 C81.92 185.77, 154.41 102.17, 219.02 27.42 M10.79 273.06 C72.59 198.39, 136.41 126.65, 218.76 33.82 M10.79 273.06 C61.99 214.11, 113.44 154.89, 218.76 33.82 M13.81 275.68 C93.87 185.37, 171.06 96, 219.16 39.46 M13.81 275.68 C69.73 209.49, 125.72 144.38, 219.16 39.46 M17.48 277.55 C91.06 191.08, 165.9 105.39, 218.89 45.86 M17.48 277.55 C84.63 201.8, 151.91 124.7, 218.89 45.86 M22.47 277.91 C84.82 207.47, 145.78 136.14, 218.63 52.25 M22.47 277.91 C87.75 203.59, 152.66 129.06, 218.63 52.25 M26.8 279.03 C93.37 201.76, 159.71 127.27, 219.03 57.9 M26.8 279.03 C71.05 229.11, 114.73 179.55, 219.03 57.9 M31.79 279.39 C93.7 209, 157.32 135.03, 218.77 64.29 M31.79 279.39 C95.34 206.62, 158.63 133.57, 218.77 64.29 M37.43 278.99 C110 196.05, 182.06 112.19, 219.16 69.94 M37.43 278.99 C74.91 234.16, 114.1 189.13, 219.16 69.94 M42.42 279.35 C97.7 215.15, 151.86 151.96, 218.9 76.34 M42.42 279.35 C98.02 213.83, 155.9 148.96, 218.9 76.34 M48.06 278.96 C86.6 233.43, 129.57 185.25, 218.64 82.73 M48.06 278.96 C104.36 213.94, 161.15 150.23, 218.64 82.73 M53.05 279.32 C104.54 219.77, 159.37 159.71, 219.03 88.38 M53.05 279.32 C86.4 241.06, 120.96 202.4, 219.03 88.38 M58.69 278.92 C121.09 205.16, 186.75 133.95, 218.77 94.77 M58.69 278.92 C100.56 231.03, 144.23 181.77, 218.77 94.77 M63.68 279.28 C103.97 234.27, 144.82 189.32, 219.17 100.42 M63.68 279.28 C113.98 223.76, 164.49 165.66, 219.17 100.42 M69.32 278.89 C115.58 224.95, 161.67 172.7, 218.9 106.81 M69.32 278.89 C109.67 230.88, 151.77 182.37, 218.9 106.81 M74.31 279.25 C105.14 244.17, 137 206.82, 218.64 113.21 M74.31 279.25 C119.19 226.87, 163.55 176.13, 218.64 113.21 M79.95 278.85 C113.37 240.12, 145.67 199.89, 219.04 118.86 M79.95 278.85 C115.77 236.85, 153.07 194.57, 219.04 118.86 M84.94 279.21 C136.04 219.87, 187.42 162.24, 218.78 125.25 M84.94 279.21 C114.07 247.04, 142.03 213.94, 218.78 125.25 M90.58 278.82 C140.39 225.51, 189.1 168.95, 219.17 130.9 M90.58 278.82 C125.83 235.54, 162.24 195.46, 219.17 130.9 M95.57 279.18 C129.25 241.76, 161.08 205.57, 218.91 137.29 M95.57 279.18 C141.29 225.29, 187.47 172.35, 218.91 137.29 M101.21 278.79 C137.91 235.51, 174.65 193.46, 218.65 143.69 M101.21 278.79 C127.79 246.36, 155.67 213.87, 218.65 143.69 M106.2 279.15 C137.35 242.01, 165.35 208.71, 219.04 149.34 M106.2 279.15 C148.21 232.57, 187.49 185.64, 219.04 149.34 M111.84 278.75 C133.25 251.91, 152.8 227.88, 218.78 155.73 M111.84 278.75 C135.57 254.23, 156.4 228.65, 218.78 155.73 M116.83 279.11 C153.74 233.69, 192.76 190.01, 219.18 161.38 M116.83 279.11 C139.07 256.55, 158.39 231.91, 219.18 161.38 M121.82 279.47 C157.6 237.69, 190.43 197.45, 218.91 167.77 M121.82 279.47 C150.82 244.91, 180.69 211.62, 218.91 167.77 M127.46 279.08 C150.06 256.16, 169.75 230.71, 218.65 174.17 M127.46 279.08 C163.23 239.53, 197.69 198.74, 218.65 174.17 M132.45 279.44 C155.8 251.32, 178.45 226.12, 219.05 179.81 M132.45 279.44 C151.02 257.52, 170.29 236.85, 219.05 179.81 M138.09 279.04 C158.17 257.02, 174.06 237.46, 218.79 186.21 M138.09 279.04 C159.45 254.42, 180.2 230.61, 218.79 186.21 M143.08 279.4 C159.75 260.1, 172.99 243.72, 219.18 191.86 M143.08 279.4 C163.39 255.83, 182.03 234.2, 219.18 191.86 M148.72 279.01 C166.99 257.18, 186.16 236.86, 218.92 198.25 M148.72 279.01 C162.82 263.31, 177.37 246.29, 218.92 198.25 M153.71 279.37 C179.83 253.03, 204.05 221.03, 218.66 204.65 M153.71 279.37 C174.23 253.91, 195.81 230.3, 218.66 204.65 M159.35 278.97 C171.09 264.2, 184.51 249.32, 219.05 210.29 M159.35 278.97 C176.98 258.52, 193.69 239.28, 219.05 210.29 M164.34 279.33 C176.52 264.72, 189.94 251.86, 218.79 216.69 M164.34 279.33 C184.06 256.12, 203.75 234.84, 218.79 216.69 M169.98 278.94 C185.22 256.55, 206.02 239.51, 219.19 222.34 M169.98 278.94 C190.22 255.48, 208.97 233.41, 219.19 222.34 M174.97 279.3 C187.78 264.24, 200.42 251.56, 218.92 228.73 M174.97 279.3 C186.3 266.09, 198.33 253.31, 218.92 228.73 M180.61 278.9 C188.97 270.8, 195.57 257.93, 218.66 235.13 M180.61 278.9 C193.05 266.41, 203.95 252.47, 218.66 235.13 M185.6 279.26 C197.09 265.89, 206.84 255.98, 219.06 240.77 M185.6 279.26 C197.68 265.68, 208.64 251.15, 219.06 240.77 M191.24 278.87 C198.99 269.39, 211.86 256.45, 218.8 247.17 M191.24 278.87 C198.17 270.7, 204.14 263.58, 218.8 247.17 M197.54 277.72 C200.27 272.76, 205.88 266.97, 217.88 254.32 M197.54 277.72 C204.25 269.52, 212.16 260.11, 217.88 254.32 M203.84 276.57 C209.26 273.24, 212.57 266.22, 216.96 261.48 M203.84 276.57 C207.83 273.59, 210.79 269.33, 216.96 261.48" stroke="#ffd8a8" stroke-width="0.5" fill="none"></path><path d="M32 0 C73.59 -2.99, 117.51 0.11, 186.74 0 M32 0 C65.32 0.55, 98.13 1.23, 186.74 0 M186.74 0 C207.98 0.73, 219.17 10.85, 218.74 32 M186.74 0 C207.43 2.09, 219.82 11, 218.74 32 M218.74 32 C218.85 110.76, 219.54 189.18, 218.74 247.11 M218.74 32 C220.83 111.1, 220.83 191.41, 218.74 247.11 M218.74 247.11 C218.62 266.93, 206.28 277.65, 186.74 279.11 M218.74 247.11 C216.77 269.42, 206.54 280.02, 186.74 279.11 M186.74 279.11 C138.78 277.39, 87.86 277.23, 32 279.11 M186.74 279.11 C129.19 279.94, 73.61 280.99, 32 279.11 M32 279.11 C11.79 279.34, 1.77 268.96, 0 247.11 M32 279.11 C10.88 278.51, 0.92 267.15, 0 247.11 M0 247.11 C2.65 200.03, 3.12 152.49, 0 32 M0 247.11 C0 198.25, 1.31 147.79, 0 32 M0 32 C-1.82 8.92, 8.97 0.79, 32 0 M0 32 C-0.64 9.84, 12.05 1.85, 32 0" stroke="#fd7e14" stroke-width="1" fill="none"></path></g><g transform="translate(379.46469615550734 344.3062692391471) rotate(0 98.18240356445312 35)"><text x="98.18240356445312" y="0" font-family="Virgil, Segoe UI Emoji" font-size="28px" fill="#fd7e14" text-anchor="middle" style="white-space: pre;" direction="ltr" dominant-baseline="text-before-edge">XiaoXuan Core</text><text x="98.18240356445312" y="35" font-family="Virgil, Segoe UI Emoji" font-size="28px" fill="#fd7e14" text-anchor="middle" style="white-space: pre;" direction="ltr" dominant-baseline="text-before-edge">Launcher</text></g><g stroke-linecap="round"><g transform="translate(279.24236761010064 302.7919398895995) rotate(0 32.69779736753 26.471888816506265)"><path d="M0.33 0.51 C11.34 9.23, 54.61 43.87, 65.43 52.77 M-0.95 -0.27 C9.95 8.61, 53.61 45.49, 64.5 54.22" stroke="#fd7e14" stroke-width="2" fill="none"></path></g><g transform="translate(279.24236761010064 302.7919398895995) rotate(0 32.69779736753 26.471888816506265)"><path d="M40.94 45.85 C47.71 47.94, 52.46 49.75, 64.5 54.22 M40.94 45.85 C50.24 49.3, 59.54 53.27, 64.5 54.22" stroke="#fd7e14" stroke-width="2" fill="none"></path></g><g transform="translate(279.24236761010064 302.7919398895995) rotate(0 32.69779736753 26.471888816506265)"><path d="M51.83 32.67 C55.93 38.08, 57.95 43.18, 64.5 54.22 M51.83 32.67 C57.09 41.09, 62.24 50.07, 64.5 54.22" stroke="#fd7e14" stroke-width="2" fill="none"></path></g></g><mask></mask><g stroke-linecap="round"><g transform="translate(282.1043845921447 471.520096021255) rotate(0 29.702986787551197 -28.020201397990434)"><path d="M0.16 0.14 C10.33 -9.19, 50.43 -46.97, 60.14 -56.33 M-1.22 -0.82 C8.94 -9.95, 49.24 -45.96, 59.57 -54.94" stroke="#fd7e14" stroke-width="2" fill="none"></path></g><g transform="translate(282.1043845921447 471.520096021255) rotate(0 29.702986787551197 -28.020201397990434)"><path d="M47.62 -32.98 C50.6 -36.7, 52.56 -44.5, 59.57 -54.94 M47.62 -32.98 C51.05 -39.85, 54.93 -46.85, 59.57 -54.94" stroke="#fd7e14" stroke-width="2" fill="none"></path></g><g transform="translate(282.1043845921447 471.520096021255) rotate(0 29.702986787551197 -28.020201397990434)"><path d="M36.3 -45.8 C41.78 -46.66, 46.28 -51.59, 59.57 -54.94 M36.3 -45.8 C43.2 -48.69, 50.52 -51.81, 59.57 -54.94" stroke="#fd7e14" stroke-width="2" fill="none"></path></g></g><mask></mask><g stroke-linecap="round"><g transform="translate(603.2832275482336 347.8529556890966) rotate(0 35.86562778628479 -37.61553491013498)"><path d="M0.28 -1.19 C12.32 -13.59, 59.25 -62.37, 71.25 -74.6 M-1.03 0.79 C10.9 -11.94, 57.9 -63.49, 70.05 -76.4" stroke="#fd7e14" stroke-width="2" fill="none"></path></g><g transform="translate(603.2832275482336 347.8529556890966) rotate(0 35.86562778628479 -37.61553491013498)"><path d="M60.38 -53.34 C60.52 -59.15, 65.64 -62.38, 70.05 -76.4 M60.38 -53.34 C63.48 -61.61, 66.91 -70.04, 70.05 -76.4" stroke="#fd7e14" stroke-width="2" fill="none"></path></g><g transform="translate(603.2832275482336 347.8529556890966) rotate(0 35.86562778628479 -37.61553491013498)"><path d="M47.82 -64.95 C50.65 -68.28, 58.49 -69.01, 70.05 -76.4 M47.82 -64.95 C55.45 -69.09, 63.3 -73.44, 70.05 -76.4" stroke="#fd7e14" stroke-width="2" fill="none"></path></g></g><mask></mask><g stroke-linecap="round"><g transform="translate(608.7663494011545 441.7920462426415) rotate(0 41.54731139599335 30.495028248462745)"><path d="M0.42 1.09 C14.54 11.38, 70.31 50.79, 84.15 60.66 M-0.82 0.62 C13.28 11.18, 69.8 51.91, 83.75 62.02" stroke="#fd7e14" stroke-width="2" fill="none"></path></g><g transform="translate(608.7663494011545 441.7920462426415) rotate(0 41.54731139599335 30.495028248462745)"><path d="M59.7 55.19 C67.51 58.57, 71.18 59.15, 83.75 62.02 M59.7 55.19 C64.99 56.88, 70.52 58.83, 83.75 62.02" stroke="#fd7e14" stroke-width="2" fill="none"></path></g><g transform="translate(608.7663494011545 441.7920462426415) rotate(0 41.54731139599335 30.495028248462745)"><path d="M69.72 41.33 C74.88 48.23, 76.03 52.29, 83.75 62.02 M69.72 41.33 C72.45 46.4, 75.54 51.73, 83.75 62.02" stroke="#fd7e14" stroke-width="2" fill="none"></path></g></g><mask></mask></svg>